<svg width="338" height="305" viewBox="0 0 338 305" fill="none" xmlns="http://www.w3.org/2000/svg">
<g clip-path="url(#clip0_62_82)">
<path d="M228.361 144.953C229.378 139.975 229.931 134.938 229.931 129.822C229.931 -0.929958 87.865 -21 -24.6245 -21C-94.1307 -21 -155.465 4.79871 -192.195 44.1486C-210.895 36.7804 -232.591 32.5333 -255.769 32.5333C-325.828 32.5333 -382.625 71.1128 -382.625 118.7C-382.625 126.839 -380.938 134.701 -377.826 142.168H-402.779C-463.648 142.188 -513 175.71 -513 217.055C-513 258.4 -463.648 291.903 -402.808 291.903H198.755C259.624 291.903 308.947 258.381 308.947 217.055C308.947 182.683 274.834 153.744 228.361 144.953Z" fill="#FFDB81" fill-opacity="0.27"/>
<path d="M274.136 162.238C295.249 175.869 308.453 195.129 308.453 216.483C308.453 257.828 259.1 291.331 198.261 291.331H-403.331C-419.879 291.331 -435.554 288.842 -449.659 284.397C-429.883 297.158 -403.186 305 -373.784 305H227.779C288.648 305 337.971 271.478 337.971 230.152C337.971 200.047 311.826 174.13 274.107 162.238H274.136Z" fill="#FFE3AF" fill-opacity="0.32"/>
<path d="M229.408 129.249C229.408 134.365 228.855 139.403 227.837 144.381C238.714 146.435 248.922 149.615 258.17 153.685C258.693 150.129 258.984 146.534 258.984 142.919C258.984 73.0094 218.356 34.7459 163.333 14.2808C202.71 36.741 229.408 72.6143 229.408 129.269V129.249Z" fill="#FFE3AF" fill-opacity="0.32"/>
</g>
<defs>
<clipPath id="clip0_62_82">
<rect width="851" height="326" fill="white" transform="translate(-513 -21)"/>
</clipPath>
</defs>
</svg>
