<svg width="1019" height="653" viewBox="0 0 1019 653" fill="none" xmlns="http://www.w3.org/2000/svg">
<g clip-path="url(#clip0_62_66)">
<path d="M887.716 332.416C888.935 322.444 889.597 312.354 889.597 302.106C889.597 40.2017 719.485 0 584.788 0C501.56 0 428.118 51.6765 384.136 130.497C361.745 115.738 335.766 107.231 308.012 107.231C224.123 107.231 156.113 184.508 156.113 279.829C156.113 296.131 158.133 311.879 161.859 326.836H131.98C59.0952 326.876 0 394.024 0 476.841C0 559.658 59.0952 626.766 131.946 626.766H852.266C925.151 626.766 984.212 559.618 984.212 476.841C984.212 407.992 943.364 350.024 887.716 332.416Z" fill="#FFDB81" fill-opacity="0.27"/>
<path d="M942.528 367.038C967.81 394.34 983.62 432.92 983.62 475.693C983.62 558.51 924.524 625.619 851.674 625.619H131.319C111.504 625.619 92.7345 620.633 75.8452 611.73C99.5251 637.291 131.493 653 166.699 653H887.02C959.905 653 1018.97 585.852 1018.97 503.075C1018.97 442.772 987.659 390.858 942.493 367.038H942.528Z" fill="#FFE3AF" fill-opacity="0.32"/>
<path d="M888.97 300.959C888.97 311.207 888.308 321.297 887.089 331.268C900.113 335.383 912.336 341.754 923.41 349.905C924.037 342.783 924.385 335.581 924.385 328.34C924.385 188.307 875.737 111.662 809.851 70.6694C857.002 115.659 888.97 187.515 888.97 300.998V300.959Z" fill="#FFE3AF" fill-opacity="0.32"/>
</g>
<defs>
<clipPath id="clip0_62_66">
<rect width="1019" height="653" fill="white"/>
</clipPath>
</defs>
</svg>
