<svg width="658" height="326" viewBox="0 0 658 326" fill="none" xmlns="http://www.w3.org/2000/svg">
<g clip-path="url(#clip0_62_77)">
<path d="M548.361 165.953C549.378 160.975 549.931 155.938 549.931 150.822C549.931 20.07 407.865 0 295.375 0C225.869 0 164.535 25.7987 127.805 65.1486C109.105 57.7804 87.4095 53.5333 64.231 53.5333C-5.82768 53.5333 -62.625 92.1128 -62.625 139.7C-62.625 147.839 -60.9382 155.701 -57.8264 163.168H-82.7789C-143.648 163.188 -193 196.71 -193 238.055C-193 279.4 -143.648 312.903 -82.808 312.903H518.755C579.624 312.903 628.947 279.381 628.947 238.055C628.947 203.683 594.834 174.744 548.361 165.953Z" fill="#FFDB81" fill-opacity="0.27"/>
<path d="M594.136 183.238C615.249 196.869 628.453 216.129 628.453 237.483C628.453 278.828 579.1 312.331 518.261 312.331H-83.3314C-99.8791 312.331 -115.554 309.842 -129.659 305.397C-109.883 318.158 -83.186 326 -53.784 326H547.779C608.648 326 657.971 292.478 657.971 251.152C657.971 221.047 631.826 195.13 594.107 183.238H594.136Z" fill="#FFE3AF" fill-opacity="0.32"/>
<path d="M549.408 150.249C549.408 155.365 548.855 160.403 547.837 165.381C558.714 167.435 568.922 170.615 578.17 174.685C578.693 171.129 578.984 167.534 578.984 163.919C578.984 94.0094 538.356 55.7459 483.333 35.2808C522.71 57.741 549.408 93.6143 549.408 150.269V150.249Z" fill="#FFE3AF" fill-opacity="0.32"/>
</g>
<defs>
<clipPath id="clip0_62_77">
<rect width="851" height="326" fill="white" transform="translate(-193)"/>
</clipPath>
</defs>
</svg>
