<svg width="450" height="362" viewBox="0 0 450 362" fill="none" xmlns="http://www.w3.org/2000/svg">
<path d="M274.579 331.996C273.123 331.996 271.705 331.247 270.914 329.901C269.726 327.879 270.402 325.277 272.424 324.089L321.819 295.079C323.843 293.891 326.443 294.569 327.631 296.589C328.819 298.611 328.143 301.213 326.121 302.4L276.725 331.411C276.05 331.808 275.309 331.996 274.579 331.996Z" fill="white"/>
<path d="M187.674 266.615C186.259 267.039 183.994 267.747 182.013 266.898C172.247 262.369 162.764 261.096 158.659 259.822C151.441 257.558 144.365 254.586 137.571 250.907C117.898 239.727 101.48 223.594 89.8742 204.206C89.025 202.791 88.1758 201.376 87.3266 199.819C70.3427 169.959 65.955 135.288 75.1547 102.173C84.2128 69.058 105.726 41.4622 135.589 24.4803L135.731 24.3388C195.6 -7.50239 270.612 12.7345 306.279 70.4732C319.017 90.5685 326.093 113.919 326.801 137.694C326.943 144.769 326.235 151.845 324.961 158.638C324.254 162.6 319.017 175.195 318.309 188.215C318.168 191.328 316.469 192.177 313.072 194.583C310.525 196.423 305.713 200.385 305.996 196.281C306.562 184.252 312.789 161.893 313.78 156.515C314.912 150.288 315.479 144.062 315.479 137.835C314.913 116.041 308.402 94.814 296.796 76.4168C264.102 23.7727 195.883 5.37551 141.109 34.2449C113.935 49.6702 94.4034 74.8602 86.0529 105.003C77.7024 135.288 81.6654 166.846 97.234 194.159C97.9417 195.574 98.7909 196.847 99.6401 198.121C110.255 215.811 125.399 230.528 143.232 240.859C149.177 244.114 155.546 246.803 162.056 248.784C167.01 250.341 184.419 255.011 194.751 260.388C197.581 261.803 198.289 262.794 193.901 264.209C191.92 265.2 189.514 266.049 187.674 266.615L187.674 266.615Z" fill="white"/>
<path d="M59.7553 341.861C34.5751 341.861 17.307 335.18 9.74663 322.092C-6.0688 294.739 24.5275 244.156 89.5969 190.087L92.1332 193.138C29.6131 245.089 -1.37696 294.928 13.1821 320.108C23.5207 338.003 56.4058 342.603 103.408 332.727C151.81 322.559 210.185 298.62 267.779 265.324C325.404 232.008 375.295 193.394 408.261 156.591C440.298 120.827 452.746 90.0585 442.414 72.1748C428.547 48.2344 375.382 48.6276 303.667 73.1995L302.38 69.4474C377.114 43.8397 430.747 44.1175 445.849 70.1882C457.26 89.9424 444.961 121.567 411.217 159.237C377.978 196.344 327.743 235.239 269.765 268.757C211.817 302.261 153.026 326.357 104.223 336.609C87.5007 340.122 72.5989 341.86 59.7552 341.86L59.7553 341.861Z" fill="white"/>
<path d="M76.2886 327.641C53.5528 327.641 37.9557 321.606 31.1182 309.784C17.5294 286.47 40.8548 244.963 93.5187 198.757L96.1352 201.74C45.7734 245.926 22.175 286.562 34.5494 307.791C43.8065 323.796 73.3149 327.89 115.508 319.038C159.004 309.91 211.523 288.421 263.393 258.531C347.339 210.159 411.129 150.089 422.126 109.057C424.696 99.4669 424.141 91.3912 420.476 85.0554C408.853 64.9453 366.911 63.7996 308.281 81.9943L307.105 78.2055C367.631 59.4256 411.297 61.2429 423.911 83.0701C428.122 90.3505 428.811 99.4392 425.958 110.084C414.706 152.066 350.173 213.105 265.374 261.968C213.151 292.063 160.217 313.709 116.323 322.92C101.273 326.078 87.856 327.641 76.2886 327.641V327.641Z" fill="white"/>
<path d="M95.4184 311.181C75.4752 311.182 61.7787 305.879 55.7482 295.495C44.9605 276.942 60.7164 245.313 98.9768 208.722L101.719 211.589C65.4352 246.29 49.5321 276.911 59.1788 293.502C67.2223 307.353 92.8905 310.882 129.61 303.171C167.582 295.199 213.385 276.432 258.581 250.326C303.775 224.221 342.935 193.917 368.845 164.996C393.896 137.036 403.687 113.055 395.708 99.2051C386.652 83.5533 356.404 81.1058 312.724 92.4928L311.723 88.6536C357.261 76.7836 389.125 79.9056 399.144 97.2219C408.167 112.883 398.456 137.892 371.801 167.644C345.618 196.869 306.113 227.452 260.565 253.761C215.015 280.072 168.797 298.997 130.424 307.054C117.273 309.815 105.54 311.181 95.4185 311.181L95.4184 311.181Z" fill="white"/>
<path d="M113.947 295.444C107.456 295.444 101.646 294.794 96.6428 293.458C88.5102 291.284 82.7493 287.35 79.5213 281.761C70.905 266.866 81.5642 242.754 109.536 213.867L112.386 216.626C86.1447 243.727 75.4178 266.743 82.9568 279.775C85.6396 284.42 90.5884 287.734 97.6672 289.626C128.378 297.828 191.223 278.91 254.049 242.541C292.917 220.041 326.561 193.99 348.782 169.187C370.227 145.25 378.612 124.746 371.788 112.932C365.287 101.715 345.712 98.4383 316.68 103.702L315.973 99.7989C346.777 94.2108 367.818 98.1724 375.223 110.945C391.252 138.697 338.899 198.008 256.037 245.974C202.422 277.011 148.537 295.443 113.948 295.444H113.947Z" fill="white"/>
<path d="M251.364 318.128C253.77 318.128 256.317 317.562 258.582 316.289C258.582 316.289 258.723 316.289 258.723 316.147L321.989 278.787C328.216 275.107 329.207 267.89 328.216 260.673C327.226 253.314 327.226 255.437 325.952 241.426C325.81 239.021 322.697 242.417 322.697 242.417C322.697 242.417 319.017 245.247 318.026 246.238C316.752 247.512 315.62 248.502 316.044 251.899C316.894 258.691 317.318 259.541 317.743 264.635C317.884 266.616 317.743 268.315 316.328 269.305L253.204 306.666C251.647 307.515 250.09 306.666 248.675 305.675C246.268 304.118 247.118 304.26 236.361 297.609C233.814 296.052 231.549 298.033 228.718 299.165C225.463 300.58 222.349 301.854 224.614 303.128C236.644 310.062 234.238 308.788 240.041 312.468C243.721 315.157 246.976 318.129 251.364 318.129L251.364 318.128Z" fill="white"/>
<path d="M36.94 77.2666C39.2046 77.2666 38.2139 72.7381 40.4783 70.7568C43.0259 68.634 46.9889 69.3417 46.9889 67.2189C46.9889 64.9546 42.4598 65.9452 40.4783 63.681C38.3553 61.1337 39.0631 56.8882 36.94 56.8882H37.0816C34.817 56.8882 35.8077 61.4167 33.5433 63.398C30.9957 65.5207 27.0327 64.8131 27.0327 66.9359C27.0327 69.2002 31.5618 68.2095 33.5433 70.4737C35.6662 73.021 35.1001 77.2666 36.94 77.2666Z" fill="white"/>
<path d="M13.4456 205.058C16.5594 205.058 15.144 198.973 18.3994 196.284C21.7961 193.454 27.3159 194.303 27.3159 191.472C27.3159 188.359 21.23 189.774 18.5409 186.519C15.7102 183.123 16.5594 177.321 13.7287 177.321H13.8703C10.7565 177.321 12.1719 183.406 8.91658 186.095C5.51981 188.925 0 188.076 0 190.906C0 194.02 6.0859 192.605 8.77503 195.86C11.6057 199.256 10.7565 205.058 13.5872 205.058" fill="white"/>
<path d="M185.692 362C187.249 362 186.541 359.028 188.098 357.754C189.796 356.339 192.485 356.764 192.485 355.49C192.485 353.933 189.513 354.641 188.239 353.084C186.824 351.386 187.249 348.697 185.975 348.697H186.116C184.56 348.697 185.267 351.669 183.71 352.943C182.012 354.358 179.323 353.933 179.323 355.207C179.323 356.764 182.295 356.056 183.569 357.613C184.843 359.311 184.418 362 185.692 362Z" fill="white"/>
<path d="M324.252 0C321.846 0 322.978 4.67006 320.431 6.79284C317.883 8.91562 313.637 8.20795 313.637 10.4723C313.637 12.878 318.308 11.746 320.431 14.2932C322.554 16.8405 321.846 21.369 324.111 21.369H323.969C326.375 21.369 325.243 16.699 327.791 14.5762C330.338 12.4534 334.584 13.1611 334.584 10.8968C334.584 8.49102 329.913 9.62307 327.791 7.0758C325.667 4.52852 326.375 0 324.252 0Z" fill="white"/>
<path d="M398.274 260.531C401.105 260.531 399.831 255.012 402.662 252.606C405.776 250.059 410.729 250.908 410.729 248.219C410.729 245.389 405.209 246.662 402.803 243.832C400.256 240.718 401.105 235.482 398.416 235.482H398.557C395.727 235.482 397.001 241.002 394.17 243.407C391.056 245.955 386.103 245.105 386.103 247.794C386.103 250.625 391.622 249.351 394.028 252.181C396.576 255.295 395.727 260.531 398.416 260.531" fill="white"/>
<path d="M198.556 166.85C191.147 166.85 184.161 163.987 178.888 158.769C173.509 153.446 170.547 146.314 170.547 138.687C170.547 123.08 183.182 110.383 198.712 110.383C214.32 110.383 227.019 123.017 227.019 138.545C227.019 154.151 214.384 166.848 198.854 166.848C198.755 166.849 198.655 166.85 198.556 166.85ZM198.712 117.459C187.084 117.459 177.624 126.982 177.624 138.687C177.624 144.41 179.841 149.756 183.866 153.74C187.856 157.688 193.171 159.808 198.817 159.772C210.482 159.772 219.942 150.25 219.942 138.545C219.942 126.918 210.419 117.459 198.712 117.459H198.712Z" fill="white"/>
<path d="M251.646 235.904C250.372 236.47 249.523 236.47 248.532 234.631L207.063 162.599C205.506 159.91 206.355 160.052 209.044 158.495C211.734 156.938 213.29 155.806 214.706 158.495L256.175 230.527C257.732 233.216 256.6 233.216 253.911 234.772C253.061 235.338 252.778 235.48 251.646 235.904Z" fill="white"/>
<path d="M292.413 344.024C290.953 344.024 289.533 343.273 288.743 341.922C287.559 339.898 288.241 337.297 290.266 336.114L323.668 316.585C325.694 315.402 328.294 316.083 329.476 318.106C330.66 320.131 329.978 322.731 327.954 323.915L294.552 343.444C293.878 343.838 293.14 344.024 292.413 344.024Z" fill="white"/>
<path d="M311.378 356.762C309.914 356.762 308.491 356.005 307.703 354.649C306.524 352.622 307.213 350.022 309.24 348.844L325.8 339.222C327.828 338.044 330.426 338.732 331.604 340.758C332.783 342.786 332.094 345.385 330.067 346.563L313.507 356.186C312.836 356.575 312.102 356.762 311.378 356.762H311.378Z" fill="white"/>
</svg>
