<?xml version="1.0" encoding="UTF-8"?>
<svg id="Layer_1" xmlns="http://www.w3.org/2000/svg" viewBox="0 0 310.85 348.88">
  <defs>
    <style>
      .cls-1 {
        fill: #d1cc9d;
        stroke-width: 4px;
      }

      .cls-1, .cls-2 {
        stroke: #c1c09d;
        stroke-miterlimit: 10;
      }

      .cls-2 {
        fill: none;
        isolation: isolate;
        opacity: .5;
        stroke-width: 2px;
      }

      .cls-3 {
        letter-spacing: 0em;
      }

      .cls-4 {
        letter-spacing: 0em;
      }

      .cls-5 {
        letter-spacing: 0em;
      }

      .cls-6 {
        letter-spacing: 0em;
      }

      .cls-7 {
        font-size: 30.16px;
      }

      .cls-7, .cls-8 {
        fill: #fff;
        font-family: MadimiOne-Regular, 'Madimi One';
      }

      .cls-8 {
        font-size: 36.56px;
      }

      .cls-9 {
        letter-spacing: -.06em;
      }

      .cls-10 {
        letter-spacing: -.13em;
      }

      .cls-11 {
        letter-spacing: -.03em;
      }

      .cls-12 {
        letter-spacing: -.02em;
      }

      .cls-13 {
        letter-spacing: -.02em;
      }

      .cls-14 {
        letter-spacing: -.01em;
      }

      .cls-15 {
        letter-spacing: -.02em;
      }

      .cls-16 {
        letter-spacing: -.01em;
      }

      .cls-17 {
        letter-spacing: -.05em;
      }

      .cls-18 {
        letter-spacing: -.04em;
      }

      .cls-19 {
        letter-spacing: -.04em;
      }

      .cls-20 {
        letter-spacing: -.03em;
      }

      .cls-21 {
        letter-spacing: -.03em;
      }

      .cls-22 {
        letter-spacing: -.03em;
      }

      .cls-23 {
        letter-spacing: 0em;
      }

      .cls-24 {
        letter-spacing: 0em;
      }

      .cls-25 {
        letter-spacing: 0em;
      }

      .cls-26 {
        letter-spacing: 0em;
      }

      .cls-27 {
        letter-spacing: .03em;
      }

      .cls-28 {
        letter-spacing: .03em;
      }

      .cls-29 {
        letter-spacing: 0em;
      }

      .cls-30 {
        letter-spacing: 0em;
      }
    </style>
  </defs>
  <path class="cls-1" d="M287.11,299.61l-159.61,46.76c-7.87,2.3-16.55-3.46-19.29-12.81l31.88-68.88,88.21-25.85,68.15,39.57c2.74,9.36-1.46,18.89-9.33,21.21h-.01Z"/>
  <path class="cls-1" d="M308.43,114.5c5.99,20.46-54.23,168.41-65.95,175.87-12.17,7.75-25.62,13.95-40.16,18.2-13.1,3.84-26.29,5.88-39.32,6.28-16.93.52-149.42-94.54-154.66-112.43C-3.24,162.86,1.53,122.4,18.66,88.27,37.45,50.87,71.11,21.04,114.44,8.35c2.14-.63,4.29-1.21,6.45-1.75,80.88-20.05,163.9,27.13,187.54,107.89h0Z"/>
  <path class="cls-2" d="M172.95,314.74L13.66,192.59"/>
  <path class="cls-2" d="M180.59,316.24L28.1,131.62"/>
  <path class="cls-2" d="M208.33,310.07L119.44,33.63"/>
  <path class="cls-2" d="M231.36,300.5l10.38-228.81"/>
  <path class="cls-2" d="M243.07,296.23l44.61-175.74"/>
  <path class="cls-2" d="M194.7,312.47L41.45,92.42"/>
  <path class="cls-2" d="M223.55,304.78L189.48,39.69"/>
  <path class="cls-2" d="M198.11,312.81L84.03,66.93"/>
  <path class="cls-2" d="M218.65,307.63L160.42,28.88"/>
  <text class="cls-7" transform="translate(42.51 132.84)"><tspan class="cls-17" x="0" y="0">C</tspan><tspan class="cls-21" x="14.6" y="0">r</tspan><tspan class="cls-13" x="26.27" y="0">u</tspan><tspan class="cls-12" x="42.83" y="0">z</tspan><tspan class="cls-25" x="56.53" y="0">H</tspan><tspan class="cls-5" x="76.1" y="0">a</tspan><tspan class="cls-29" x="91.04" y="0">c</tspan><tspan x="104.91" y="0">ks </tspan><tspan class="cls-14" x="142.16" y="0">h</tspan><tspan class="cls-4" x="158.9" y="0">a</tspan><tspan class="cls-3" x="173.87" y="0">s </tspan><tspan class="cls-11" x="194.53" y="0">i</tspan><tspan class="cls-28" x="201.92" y="0">t</tspan><tspan x="215.16" y="0">s </tspan><tspan x="7.07" y="36.2">fi</tspan><tspan class="cls-20" x="25.41" y="36.2">r</tspan><tspan class="cls-13" x="37.08" y="36.2">s</tspan><tspan x="50.72" y="36.2">t </tspan><tspan class="cls-23" x="69.54" y="36.2">o</tspan><tspan class="cls-19" x="85.41" y="36.2">f</tspan><tspan class="cls-10" x="97.29" y="36.2">f</tspan><tspan class="cls-18" x="106.43" y="36.2">-</tspan><tspan class="cls-24" x="121.58" y="36.2">c</tspan><tspan x="135" y="36.2">a</tspan><tspan class="cls-15" x="149.87" y="36.2">m</tspan><tspan x="174.54" y="36.2">p</tspan><tspan class="cls-14" x="191.5" y="36.2">u</tspan><tspan x="208.09" y="36.2">s </tspan><tspan class="cls-16" x="44.49" y="72.39">h</tspan><tspan class="cls-5" x="61.23" y="72.39">a</tspan><tspan class="cls-29" x="76.16" y="72.39">c</tspan><tspan x="90.04" y="72.39">k</tspan><tspan class="cls-16" x="106.63" y="72.39">a</tspan><tspan class="cls-27" x="121.08" y="72.39">t</tspan><tspan x="134.23" y="72.39">ho</tspan><tspan class="cls-9" x="167.44" y="72.39">n</tspan><tspan x="182.94" y="72.39">.</tspan></text>
  <text class="cls-8" transform="translate(118.07 65)"><tspan class="cls-26" x="0" y="0">2</tspan><tspan class="cls-22" x="20.54" y="0">0</tspan><tspan class="cls-30" x="41.45" y="0">2</tspan><tspan class="cls-6" x="62.44" y="0">5</tspan></text>
</svg>