<svg width="317" height="342" viewBox="0 0 317 342" fill="none" xmlns="http://www.w3.org/2000/svg">
<path d="M220.174 339.763L55.1385 319.17C47.0061 318.161 41.3343 309.41 42.5401 299.735L99.1594 249.22L190.363 260.606L237.164 324.02C235.959 333.695 228.318 340.785 220.174 339.763Z" fill="#D1CC9D" stroke="#C1C09D" stroke-width="4" stroke-miterlimit="10"/>
<path d="M313.321 178.396C310.688 199.555 196.625 311.33 182.907 313.521C168.66 315.798 153.859 316.118 138.825 314.247C125.279 312.561 112.361 309.188 100.242 304.363C84.5063 298.098 0.721376 158.173 3.02208 139.685C8.1156 98.7837 28.5759 63.5562 57.8698 39.0496C89.9812 12.2044 132.71 -1.76595 177.519 3.82219C179.733 4.09298 181.935 4.42531 184.125 4.78226C266.298 18.5557 323.73 94.8818 313.309 178.384L313.321 178.396Z" fill="#D1CC9D" stroke="#C1C09D" stroke-width="4" stroke-miterlimit="10"/>
<path opacity="0.5" d="M107.107 309.386L14.292 141.138" stroke="#C1C09D" stroke-width="2" stroke-miterlimit="10"/>
<path opacity="0.5" d="M113.468 313.497L54.1543 90.8818" stroke="#C1C09D" stroke-width="2" stroke-miterlimit="10"/>
<path opacity="0.5" d="M141.605 317.841L180.742 34.5693" stroke="#C1C09D" stroke-width="2" stroke-miterlimit="10"/>
<path opacity="0.5" d="M166.926 317.398L276.351 113.074" stroke="#C1C09D" stroke-width="2" stroke-miterlimit="10"/>
<path opacity="0.5" d="M179.549 317.718L297.192 173.94" stroke="#C1C09D" stroke-width="2" stroke-miterlimit="10"/>
<path opacity="0.5" d="M128.06 315.146L83.522 60.0361" stroke="#C1C09D" stroke-width="2" stroke-miterlimit="10"/>
<path opacity="0.5" d="M157.883 318.494L242.369 65.2183" stroke="#C1C09D" stroke-width="2" stroke-miterlimit="10"/>
<path opacity="0.5" d="M131.037 316.66L133.719 52.1338" stroke="#C1C09D" stroke-width="2" stroke-miterlimit="10"/>
<path opacity="0.5" d="M152.149 319.331L220.42 44.958" stroke="#C1C09D" stroke-width="2" stroke-miterlimit="10"/>
<path d="M136.44 69C135.693 69 135.12 68.8267 134.72 68.48C134.32 68.1333 134.04 67.6933 133.88 67.16C133.747 66.6267 133.667 66.0533 133.64 65.44C133.64 64.8267 133.64 64.2533 133.64 63.72C133.64 61.3467 134.147 59.4667 135.16 58.08C136.173 56.6933 137.933 55.6267 140.44 54.88C141.8 54.4267 142.867 54.0133 143.64 53.64C144.44 53.24 145.013 52.7067 145.36 52.04C145.707 51.3467 145.88 50.3733 145.88 49.12C145.88 48.24 145.627 47.48 145.12 46.84C144.613 46.1733 143.733 45.84 142.48 45.84C141.733 45.84 140.947 45.8933 140.12 46C139.32 46.1067 138.56 46.16 137.84 46.16C136.773 46.16 135.987 45.96 135.48 45.56C135 45.16 134.76 44.5467 134.76 43.72C134.76 42.6267 135.32 41.8667 136.44 41.44C137.853 40.8533 139.64 40.56 141.8 40.56C144.867 40.56 147.267 41.32 149 42.84C150.733 44.3333 151.6 46.4133 151.6 49.08C151.6 51.0533 151.333 52.7067 150.8 54.04C150.267 55.3733 149.387 56.48 148.16 57.36C146.933 58.24 145.28 58.9867 143.2 59.6C141.733 60.0267 140.72 60.48 140.16 60.96C139.627 61.4133 139.36 62.0933 139.36 63V64.24C139.893 63.7067 140.6 63.44 141.48 63.44H148.64C149.627 63.44 150.387 63.68 150.92 64.16C151.453 64.64 151.72 65.3333 151.72 66.24C151.72 68.08 150.693 69 148.64 69H136.44ZM165.62 69.32C163.487 69.32 161.647 68.8533 160.1 67.92C158.58 66.96 157.42 65.4267 156.62 63.32C155.82 61.2133 155.42 58.4267 155.42 54.96C155.42 51.4667 155.82 48.6667 156.62 46.56C157.42 44.4533 158.58 42.9333 160.1 42C161.62 41.04 163.46 40.56 165.62 40.56C167.807 40.56 169.647 41.04 171.14 42C172.66 42.9333 173.82 44.4533 174.62 46.56C175.42 48.6667 175.82 51.4667 175.82 54.96C175.82 58.4267 175.42 61.2133 174.62 63.32C173.82 65.4267 172.66 66.96 171.14 67.92C169.62 68.8533 167.78 69.32 165.62 69.32ZM165.62 64.04C166.607 64.04 167.407 63.8 168.02 63.32C168.633 62.84 169.087 61.9467 169.38 60.64C169.673 59.3067 169.82 57.4133 169.82 54.96C169.82 52.48 169.673 50.5867 169.38 49.28C169.087 47.9733 168.633 47.08 168.02 46.6C167.407 46.0933 166.607 45.84 165.62 45.84C164.66 45.84 163.86 46.0933 163.22 46.6C162.607 47.08 162.153 47.9733 161.86 49.28C161.567 50.5867 161.42 52.48 161.42 54.96C161.42 57.4133 161.567 59.3067 161.86 60.64C162.153 61.9467 162.607 62.84 163.22 63.32C163.86 63.8 164.66 64.04 165.62 64.04ZM184.941 69.32C182.968 69.32 181.981 68.4267 181.981 66.64V46.28H179.741C178.915 46.28 178.288 46.0133 177.861 45.48C177.461 44.92 177.261 44.3067 177.261 43.64C177.261 42.9733 177.461 42.3733 177.861 41.84C178.288 41.28 178.915 41 179.741 41H184.821C186.768 41 187.741 41.8933 187.741 43.68V66.64C187.741 67.5467 187.515 68.2267 187.061 68.68C186.635 69.1067 185.928 69.32 184.941 69.32ZM198.083 69.32C197.443 69.32 196.816 69.1867 196.203 68.92C195.616 68.6267 195.19 68.1867 194.923 67.6C194.656 66.9867 194.723 66.2 195.123 65.24L202.323 48.12C202.456 47.8267 202.63 47.4267 202.843 46.92C203.056 46.3867 203.243 45.92 203.403 45.52C203.59 45.0933 203.683 44.88 203.683 44.88C202.99 45.7067 202.136 46.12 201.123 46.12H193.483C192.496 46.12 191.736 45.88 191.203 45.4C190.67 44.92 190.403 44.2267 190.403 43.32C190.403 41.48 191.43 40.56 193.483 40.56H207.523C208.696 40.56 209.563 40.8667 210.123 41.48C210.683 42.0667 210.776 42.8 210.403 43.68L200.963 66.2C200.83 66.52 200.656 66.9333 200.443 67.44C200.256 67.92 199.976 68.36 199.603 68.76C199.23 69.1333 198.723 69.32 198.083 69.32Z" fill="white"/>
<path d="M92.7501 132.256C91.1715 132.256 90.3821 131.541 90.3821 130.112V111.392C90.3821 110.645 90.5635 110.101 90.9261 109.76C91.2888 109.419 91.8648 109.248 92.6541 109.248C94.2115 109.248 94.9901 109.963 94.9901 111.392V114.592C94.9901 117.237 94.9155 118.816 94.7661 119.328C95.3208 118.773 95.9181 118.389 96.5581 118.176C97.1981 117.963 98.0408 117.856 99.0861 117.856H102.222V111.392C102.222 110.645 102.403 110.101 102.766 109.76C103.129 109.419 103.705 109.248 104.494 109.248C106.051 109.248 106.83 109.963 106.83 111.392V130.112C106.83 130.837 106.649 131.381 106.286 131.744C105.945 132.085 105.379 132.256 104.59 132.256C103.011 132.256 102.222 131.541 102.222 130.112V120.64C102.094 121.024 101.678 121.344 100.974 121.6C100.27 121.835 99.4488 121.952 98.5101 121.952C97.1661 121.952 96.2381 122.229 95.7261 122.784C95.2355 123.317 94.9901 124.309 94.9901 125.76V130.112C94.9901 130.837 94.8088 131.381 94.4461 131.744C94.1048 132.085 93.5395 132.256 92.7501 132.256ZM116.539 132.256C114.406 132.256 112.742 131.765 111.547 130.784C110.353 129.781 109.755 128.491 109.755 126.912C109.755 125.056 110.534 123.712 112.091 122.88C113.67 122.048 115.974 121.76 119.003 122.016C118.854 121.035 118.545 120.373 118.075 120.032C117.606 119.669 117.041 119.488 116.379 119.488C115.846 119.488 115.398 119.52 115.035 119.584C114.694 119.627 114.374 119.68 114.075 119.744C113.777 119.808 113.414 119.84 112.987 119.84C112.411 119.84 111.953 119.744 111.611 119.552C111.27 119.339 111.099 118.923 111.099 118.304C111.099 117.429 111.473 116.789 112.219 116.384C112.987 115.957 114.193 115.744 115.835 115.744C118.438 115.744 120.369 116.491 121.627 117.984C122.886 119.456 123.515 121.429 123.515 123.904C123.515 126.763 122.993 128.875 121.947 130.24C120.923 131.584 119.121 132.256 116.539 132.256ZM114.363 126.912C114.363 128.128 115.185 128.736 116.827 128.736C117.361 128.736 117.777 128.64 118.075 128.448C118.374 128.256 118.587 127.872 118.715 127.296C118.865 126.72 118.971 125.856 119.035 124.704C118.929 124.811 118.79 124.885 118.619 124.928C118.449 124.971 118.278 124.992 118.107 124.992C116.699 124.992 115.718 125.131 115.163 125.408C114.63 125.664 114.363 126.165 114.363 126.912ZM133.439 132.256C130.836 132.256 128.906 131.509 127.647 130.016C126.388 128.501 125.759 126.507 125.759 124.032C125.759 121.557 126.388 119.563 127.647 118.048C128.906 116.512 130.836 115.744 133.439 115.744C135.082 115.744 136.276 115.915 137.023 116.256C137.791 116.597 138.175 117.205 138.175 118.08C138.175 118.699 138.004 119.147 137.663 119.424C137.322 119.701 136.863 119.84 136.287 119.84C135.882 119.84 135.562 119.808 135.327 119.744C135.092 119.68 134.836 119.627 134.559 119.584C134.303 119.52 133.898 119.488 133.343 119.488C132.596 119.488 131.999 119.712 131.551 120.16C131.124 120.608 130.815 121.184 130.623 121.888C130.452 122.571 130.367 123.285 130.367 124.032C130.367 124.757 130.431 125.472 130.559 126.176C130.708 126.859 130.996 127.424 131.423 127.872C131.85 128.299 132.5 128.512 133.375 128.512C134.186 128.512 134.783 128.459 135.167 128.352C135.551 128.224 135.924 128.16 136.287 128.16C136.863 128.16 137.322 128.267 137.663 128.48C138.004 128.672 138.175 129.077 138.175 129.696C138.175 130.571 137.791 131.221 137.023 131.648C136.276 132.053 135.082 132.256 133.439 132.256ZM143.646 132.256C142.814 132.256 142.217 132.032 141.854 131.584C141.513 131.136 141.342 130.528 141.342 129.76V110.112C141.342 109.344 141.513 108.736 141.854 108.288C142.217 107.84 142.814 107.616 143.646 107.616C144.478 107.616 145.065 107.84 145.406 108.288C145.769 108.736 145.95 109.344 145.95 110.112V122.016C147.081 121.333 148.083 120.565 148.958 119.712C149.833 118.837 150.43 118.005 150.75 117.216C151.049 116.491 151.475 116 152.03 115.744C152.585 115.488 153.193 115.52 153.854 115.84C154.771 116.288 155.198 116.971 155.134 117.888C155.113 118.656 154.761 119.52 154.078 120.48C153.417 121.419 152.595 122.229 151.614 122.912C152.851 123.339 153.843 124.117 154.59 125.248C155.358 126.357 155.742 127.968 155.742 130.08C155.742 131.531 154.985 132.256 153.47 132.256C151.913 132.256 151.134 131.531 151.134 130.08C151.134 128.523 150.889 127.381 150.398 126.656C149.907 125.931 149.257 125.568 148.446 125.568C147.699 125.568 147.091 125.845 146.622 126.4C146.174 126.955 145.95 127.915 145.95 129.28C145.95 130.517 145.769 131.328 145.406 131.712C145.043 132.075 144.457 132.256 143.646 132.256ZM174.064 132.256C171.483 132.256 169.51 131.616 168.144 130.336C166.8 129.035 166.128 127.083 166.128 124.48V111.744C166.128 110.08 166.896 109.248 168.432 109.248C169.968 109.248 170.736 110.08 170.736 111.744V124.48C170.736 125.824 171.024 126.805 171.6 127.424C172.198 128.043 173.019 128.352 174.064 128.352C176.624 128.352 177.904 127.061 177.904 124.48V111.744C177.904 110.08 178.672 109.248 180.208 109.248C181.744 109.248 182.512 110.08 182.512 111.744V124.48C182.512 127.061 181.798 129.003 180.368 130.304C178.939 131.605 176.838 132.256 174.064 132.256ZM191.008 120.896C191.008 123.435 191.317 125.259 191.936 126.368C192.555 127.456 193.472 128 194.688 128C195.456 128 196.128 127.947 196.704 127.84C197.28 127.712 197.803 127.648 198.272 127.648C199.125 127.648 199.744 127.829 200.128 128.192C200.512 128.533 200.704 128.981 200.704 129.536C200.704 130.261 200.437 130.816 199.904 131.2C199.392 131.584 198.731 131.851 197.92 132C197.131 132.149 196.32 132.224 195.488 132.224C193.184 132.224 191.349 131.797 189.984 130.944C188.64 130.091 187.669 128.832 187.072 127.168C186.496 125.483 186.208 123.392 186.208 120.896C186.208 118.4 186.496 116.288 187.072 114.56C187.669 112.811 188.64 111.488 189.984 110.592C191.349 109.696 193.184 109.248 195.488 109.248C196.32 109.248 197.131 109.323 197.92 109.472C198.731 109.621 199.392 109.888 199.904 110.272C200.437 110.656 200.704 111.211 200.704 111.936C200.704 112.469 200.512 112.917 200.128 113.28C199.744 113.643 199.125 113.824 198.272 113.824C197.803 113.824 197.28 113.771 196.704 113.664C196.128 113.536 195.456 113.472 194.688 113.472C193.195 113.472 192.203 114.08 191.712 115.296C191.243 116.491 191.008 118.357 191.008 120.896ZM209.35 132.256C208.54 132.256 207.686 132.192 206.79 132.064C205.894 131.936 205.169 131.765 204.614 131.552C203.718 131.189 203.27 130.581 203.27 129.728C203.27 129.109 203.452 128.619 203.814 128.256C204.198 127.872 204.796 127.68 205.606 127.68C206.161 127.68 206.833 127.755 207.622 127.904C208.412 128.053 209.105 128.128 209.702 128.128C211.025 128.128 211.974 127.957 212.55 127.616C213.126 127.275 213.414 126.581 213.414 125.536C213.414 124.917 213.19 124.395 212.742 123.968C212.316 123.541 211.452 123.136 210.15 122.752C207.782 122.048 206.065 121.173 204.998 120.128C203.953 119.083 203.43 117.728 203.43 116.064C203.43 114.613 203.75 113.387 204.39 112.384C205.052 111.36 205.958 110.581 207.11 110.048C208.262 109.515 209.574 109.248 211.046 109.248C212.774 109.248 214.204 109.483 215.334 109.952C216.23 110.293 216.678 110.901 216.678 111.776C216.678 112.395 216.486 112.896 216.102 113.28C215.74 113.643 215.153 113.824 214.342 113.824C213.809 113.824 213.233 113.771 212.614 113.664C211.996 113.536 211.388 113.472 210.79 113.472C209.873 113.472 209.18 113.632 208.71 113.952C208.241 114.272 208.006 114.805 208.006 115.552C208.006 116.235 208.337 116.853 208.998 117.408C209.66 117.963 210.876 118.507 212.646 119.04C214.673 119.637 216.07 120.448 216.838 121.472C217.606 122.475 217.99 123.755 217.99 125.312C217.99 127.573 217.233 129.301 215.718 130.496C214.225 131.669 212.102 132.256 209.35 132.256ZM225.227 120.896C225.227 123.435 225.536 125.259 226.155 126.368C226.773 127.456 227.691 128 228.907 128C229.675 128 230.347 127.947 230.923 127.84C231.499 127.712 232.021 127.648 232.491 127.648C233.344 127.648 233.963 127.829 234.347 128.192C234.731 128.533 234.923 128.981 234.923 129.536C234.923 130.261 234.656 130.816 234.123 131.2C233.611 131.584 232.949 131.851 232.139 132C231.349 132.149 230.539 132.224 229.707 132.224C227.403 132.224 225.568 131.797 224.203 130.944C222.859 130.091 221.888 128.832 221.291 127.168C220.715 125.483 220.427 123.392 220.427 120.896C220.427 118.4 220.715 116.288 221.291 114.56C221.888 112.811 222.859 111.488 224.203 110.592C225.568 109.696 227.403 109.248 229.707 109.248C230.539 109.248 231.349 109.323 232.139 109.472C232.949 109.621 233.611 109.888 234.123 110.272C234.656 110.656 234.923 111.211 234.923 111.936C234.923 112.469 234.731 112.917 234.347 113.28C233.963 113.643 233.344 113.824 232.491 113.824C232.021 113.824 231.499 113.771 230.923 113.664C230.347 113.536 229.675 113.472 228.907 113.472C227.413 113.472 226.421 114.08 225.931 115.296C225.461 116.491 225.227 118.357 225.227 120.896ZM103.881 174.256C102.345 174.256 101.577 173.531 101.577 172.08V159.952C101.577 158.48 102.345 157.744 103.881 157.744C104.649 157.744 105.204 157.915 105.545 158.256C105.886 158.576 106.057 159.109 106.057 159.856C106.441 159.152 106.985 158.629 107.689 158.288C108.414 157.925 109.257 157.744 110.217 157.744C112.052 157.744 112.969 158.544 112.969 160.144C112.969 160.741 112.745 161.189 112.297 161.488C111.849 161.787 111.113 161.936 110.089 161.936C109.086 161.936 108.297 162.032 107.721 162.224C107.145 162.395 106.74 162.725 106.505 163.216C106.292 163.685 106.185 164.368 106.185 165.264V172.08C106.185 173.531 105.417 174.256 103.881 174.256ZM121.471 174.256C119.338 174.256 117.663 173.904 116.447 173.2C115.253 172.496 114.399 171.525 113.887 170.288C113.397 169.051 113.151 167.632 113.151 166.032C113.151 163.088 113.802 160.976 115.103 159.696C116.405 158.395 118.154 157.744 120.351 157.744C121.674 157.744 122.847 157.968 123.871 158.416C124.895 158.864 125.695 159.504 126.271 160.336C126.847 161.147 127.135 162.139 127.135 163.312C127.135 166.725 124.703 168.432 119.839 168.432H117.983C118.154 169.093 118.431 169.616 118.815 170C119.221 170.363 119.925 170.544 120.927 170.544C121.482 170.544 121.93 170.512 122.271 170.448C122.613 170.384 122.933 170.32 123.231 170.256C123.551 170.192 123.914 170.16 124.319 170.16C124.895 170.16 125.354 170.267 125.695 170.48C126.037 170.672 126.207 171.077 126.207 171.696C126.207 172.571 125.823 173.221 125.055 173.648C124.309 174.053 123.114 174.256 121.471 174.256ZM117.759 166.064C117.93 165.829 118.122 165.68 118.335 165.616C118.549 165.531 118.879 165.488 119.327 165.488C120.586 165.488 121.45 165.371 121.919 165.136C122.41 164.88 122.655 164.432 122.655 163.792C122.655 162.981 122.431 162.363 121.983 161.936C121.535 161.488 120.97 161.264 120.287 161.264C119.498 161.264 118.879 161.595 118.431 162.256C117.983 162.917 117.759 164.187 117.759 166.064ZM137.001 174.256C134.697 174.256 132.905 173.541 131.625 172.112C130.345 170.683 129.705 168.528 129.705 165.648V152.112C129.705 150.448 130.484 149.616 132.041 149.616C133.47 149.616 134.185 150.448 134.185 152.112V154.864C134.185 155.696 134.164 156.379 134.121 156.912C134.1 157.445 134.046 157.915 133.961 158.32C133.897 158.704 133.79 159.12 133.641 159.568C134.046 158.907 134.601 158.437 135.305 158.16C136.03 157.883 136.948 157.744 138.057 157.744C139.337 157.744 140.468 157.989 141.449 158.48C142.43 158.949 143.198 159.749 143.753 160.88C144.308 162.011 144.585 163.536 144.585 165.456C144.585 168.336 143.902 170.523 142.537 172.016C141.193 173.509 139.348 174.256 137.001 174.256ZM137.225 170.416C138.121 170.416 138.814 170.096 139.305 169.456C139.817 168.816 140.073 167.621 140.073 165.872C140.073 164.699 139.956 163.813 139.721 163.216C139.508 162.597 139.188 162.171 138.761 161.936C138.334 161.701 137.822 161.584 137.225 161.584C136.628 161.584 136.116 161.701 135.689 161.936C135.262 162.171 134.932 162.597 134.697 163.216C134.484 163.813 134.377 164.699 134.377 165.872C134.377 167.621 134.622 168.816 135.113 169.456C135.625 170.096 136.329 170.416 137.225 170.416ZM149.975 174.256C148.439 174.256 147.671 173.531 147.671 172.08V159.952C147.671 158.48 148.439 157.744 149.975 157.744C150.743 157.744 151.297 157.915 151.639 158.256C151.98 158.576 152.151 159.109 152.151 159.856C152.535 159.152 153.079 158.629 153.783 158.288C154.508 157.925 155.351 157.744 156.311 157.744C158.145 157.744 159.063 158.544 159.063 160.144C159.063 160.741 158.839 161.189 158.391 161.488C157.943 161.787 157.207 161.936 156.183 161.936C155.18 161.936 154.391 162.032 153.815 162.224C153.239 162.395 152.833 162.725 152.599 163.216C152.385 163.685 152.279 164.368 152.279 165.264V172.08C152.279 173.531 151.511 174.256 149.975 174.256ZM165.743 174.256C163.609 174.256 161.945 173.765 160.751 172.784C159.556 171.781 158.959 170.491 158.959 168.912C158.959 167.056 159.737 165.712 161.295 164.88C162.873 164.048 165.177 163.76 168.207 164.016C168.057 163.035 167.748 162.373 167.279 162.032C166.809 161.669 166.244 161.488 165.583 161.488C165.049 161.488 164.601 161.52 164.239 161.584C163.897 161.627 163.577 161.68 163.279 161.744C162.98 161.808 162.617 161.84 162.191 161.84C161.615 161.84 161.156 161.744 160.815 161.552C160.473 161.339 160.303 160.923 160.303 160.304C160.303 159.429 160.676 158.789 161.423 158.384C162.191 157.957 163.396 157.744 165.039 157.744C167.641 157.744 169.572 158.491 170.831 159.984C172.089 161.456 172.719 163.429 172.719 165.904C172.719 168.763 172.196 170.875 171.151 172.24C170.127 173.584 168.324 174.256 165.743 174.256ZM163.567 168.912C163.567 170.128 164.388 170.736 166.031 170.736C166.564 170.736 166.98 170.64 167.279 170.448C167.577 170.256 167.791 169.872 167.919 169.296C168.068 168.72 168.175 167.856 168.239 166.704C168.132 166.811 167.993 166.885 167.823 166.928C167.652 166.971 167.481 166.992 167.311 166.992C165.903 166.992 164.921 167.131 164.367 167.408C163.833 167.664 163.567 168.165 163.567 168.912ZM178.1 174.256C176.564 174.256 175.796 173.531 175.796 172.08V164.4C175.796 162.352 176.446 160.731 177.748 159.536C179.07 158.341 180.809 157.744 182.964 157.744C185.118 157.744 186.846 158.341 188.148 159.536C189.47 160.731 190.132 162.352 190.132 164.4V172.08C190.132 173.531 189.364 174.256 187.828 174.256C186.292 174.256 185.524 173.531 185.524 172.08V164.656C185.524 163.653 185.3 162.896 184.852 162.384C184.404 161.851 183.774 161.584 182.964 161.584C182.153 161.584 181.524 161.851 181.076 162.384C180.628 162.896 180.404 163.653 180.404 164.656V172.08C180.404 173.531 179.636 174.256 178.1 174.256ZM200.798 174.256C198.451 174.256 196.595 173.509 195.23 172.016C193.886 170.523 193.214 168.336 193.214 165.456C193.214 163.536 193.491 162.011 194.046 160.88C194.6 159.749 195.368 158.949 196.35 158.48C197.352 157.989 198.483 157.744 199.742 157.744C200.872 157.744 201.79 157.883 202.494 158.16C203.198 158.437 203.752 158.907 204.158 159.568C204.008 159.12 203.891 158.704 203.806 158.32C203.742 157.915 203.688 157.445 203.646 156.912C203.624 156.379 203.614 155.696 203.614 154.864V152.112C203.614 150.448 204.328 149.616 205.758 149.616C207.315 149.616 208.094 150.448 208.094 152.112V165.648C208.094 168.528 207.454 170.683 206.174 172.112C204.894 173.541 203.102 174.256 200.798 174.256ZM200.574 170.416C201.47 170.416 202.163 170.096 202.654 169.456C203.166 168.816 203.422 167.621 203.422 165.872C203.422 164.699 203.304 163.813 203.07 163.216C202.856 162.597 202.536 162.171 202.11 161.936C201.683 161.701 201.171 161.584 200.574 161.584C199.976 161.584 199.464 161.701 199.038 161.936C198.611 162.171 198.28 162.597 198.046 163.216C197.832 163.813 197.726 164.699 197.726 165.872C197.726 167.621 197.971 168.816 198.462 169.456C198.974 170.096 199.678 170.416 200.574 170.416ZM216.701 174.256C212.69 174.256 210.685 173.371 210.685 171.6C210.685 171.045 210.834 170.608 211.133 170.288C211.431 169.968 211.826 169.808 212.317 169.808C212.53 169.808 212.733 169.84 212.925 169.904C213.138 169.947 213.543 170.064 214.141 170.256C214.397 170.341 214.738 170.427 215.165 170.512C215.591 170.597 216.007 170.64 216.413 170.64C217.181 170.64 217.725 170.544 218.045 170.352C218.365 170.16 218.525 169.84 218.525 169.392C218.525 169.029 218.439 168.752 218.269 168.56C218.098 168.347 217.735 168.144 217.181 167.952C216.626 167.76 215.762 167.493 214.589 167.152C213.522 166.853 212.658 166.32 211.997 165.552C211.357 164.763 211.037 163.792 211.037 162.64C211.037 161.019 211.623 159.781 212.797 158.928C213.97 158.075 215.581 157.648 217.629 157.648C219.165 157.648 220.37 157.861 221.245 158.288C222.119 158.715 222.557 159.333 222.557 160.144C222.557 160.656 222.407 161.083 222.109 161.424C221.81 161.765 221.405 161.936 220.893 161.936C220.679 161.936 220.423 161.904 220.125 161.84C219.847 161.776 219.506 161.691 219.101 161.584C218.802 161.477 218.482 161.392 218.141 161.328C217.821 161.264 217.479 161.232 217.117 161.232C216.093 161.232 215.581 161.595 215.581 162.32C215.581 162.747 215.783 163.109 216.189 163.408C216.594 163.685 217.373 163.995 218.525 164.336C220.103 164.805 221.266 165.435 222.013 166.224C222.759 166.992 223.133 168.016 223.133 169.296C223.133 170.789 222.557 171.995 221.405 172.912C220.274 173.808 218.706 174.256 216.701 174.256ZM80.2316 216.256C78.2476 216.256 76.7756 215.787 75.8156 214.848C74.877 213.909 74.4076 212.469 74.4076 210.528V203.872H73.5756C72.125 203.872 71.3996 203.221 71.3996 201.92C71.3996 200.64 72.125 200 73.5756 200H74.4076V196.544C74.4076 195.84 74.621 195.264 75.0476 194.816C75.4956 194.368 76.0716 194.144 76.7756 194.144C77.4583 194.144 78.0023 194.357 78.4076 194.784C78.813 195.189 79.0156 195.755 79.0156 196.48V198.048C79.0156 198.837 78.8876 199.488 78.6316 200H81.6716C83.1223 200 83.8476 200.64 83.8476 201.92C83.8476 203.221 83.1223 203.872 81.6716 203.872H79.0156V210.624C79.0156 211.264 79.0903 211.723 79.2396 212C79.389 212.256 79.6343 212.384 79.9756 212.384C80.4236 212.384 80.7543 212.352 80.9676 212.288C81.2023 212.203 81.4903 212.16 81.8316 212.16C82.4076 212.16 82.8663 212.267 83.2076 212.48C83.549 212.672 83.7196 213.077 83.7196 213.696C83.7196 214.571 83.4423 215.221 82.8876 215.648C82.333 216.053 81.4476 216.256 80.2316 216.256ZM93.3089 216.256C91.0262 216.256 89.2235 215.605 87.9009 214.304C86.5782 213.003 85.9169 210.901 85.9169 208C85.9169 205.077 86.5782 202.976 87.9009 201.696C89.2235 200.395 91.0262 199.744 93.3089 199.744C95.5915 199.744 97.3942 200.395 98.7169 201.696C100.04 202.976 100.701 205.077 100.701 208C100.701 210.901 100.04 213.003 98.7169 214.304C97.3942 215.605 95.5915 216.256 93.3089 216.256ZM93.3089 212.416C93.9062 212.416 94.4075 212.299 94.8129 212.064C95.2182 211.808 95.5275 211.36 95.7409 210.72C95.9755 210.08 96.0929 209.173 96.0929 208C96.0929 206.827 95.9755 205.92 95.7409 205.28C95.5275 204.64 95.2182 204.203 94.8129 203.968C94.4075 203.712 93.9062 203.584 93.3089 203.584C92.7329 203.584 92.2315 203.712 91.8049 203.968C91.3995 204.203 91.0795 204.64 90.8449 205.28C90.6315 205.92 90.5249 206.827 90.5249 208C90.5249 209.173 90.6315 210.08 90.8449 210.72C91.0795 211.36 91.3995 211.808 91.8049 212.064C92.2315 212.299 92.7329 212.416 93.3089 212.416ZM115.133 204.896C115.133 207.435 115.442 209.259 116.061 210.368C116.68 211.456 117.597 212 118.813 212C119.581 212 120.253 211.947 120.829 211.84C121.405 211.712 121.928 211.648 122.397 211.648C123.25 211.648 123.869 211.829 124.253 212.192C124.637 212.533 124.829 212.981 124.829 213.536C124.829 214.261 124.562 214.816 124.029 215.2C123.517 215.584 122.856 215.851 122.045 216C121.256 216.149 120.445 216.224 119.613 216.224C117.309 216.224 115.474 215.797 114.109 214.944C112.765 214.091 111.794 212.832 111.197 211.168C110.621 209.483 110.333 207.392 110.333 204.896C110.333 202.4 110.621 200.288 111.197 198.56C111.794 196.811 112.765 195.488 114.109 194.592C115.474 193.696 117.309 193.248 119.613 193.248C120.445 193.248 121.256 193.323 122.045 193.472C122.856 193.621 123.517 193.888 124.029 194.272C124.562 194.656 124.829 195.211 124.829 195.936C124.829 196.469 124.637 196.917 124.253 197.28C123.869 197.643 123.25 197.824 122.397 197.824C121.928 197.824 121.405 197.771 120.829 197.664C120.253 197.536 119.581 197.472 118.813 197.472C117.32 197.472 116.328 198.08 115.837 199.296C115.368 200.491 115.133 202.357 115.133 204.896ZM128.553 216.256C127.017 216.256 126.249 215.531 126.249 214.08V201.952C126.249 200.48 127.017 199.744 128.553 199.744C129.321 199.744 129.876 199.915 130.217 200.256C130.558 200.576 130.729 201.109 130.729 201.856C131.113 201.152 131.657 200.629 132.361 200.288C133.086 199.925 133.929 199.744 134.889 199.744C136.724 199.744 137.641 200.544 137.641 202.144C137.641 202.741 137.417 203.189 136.969 203.488C136.521 203.787 135.785 203.936 134.761 203.936C133.758 203.936 132.969 204.032 132.393 204.224C131.817 204.395 131.412 204.725 131.177 205.216C130.964 205.685 130.857 206.368 130.857 207.264V214.08C130.857 215.531 130.089 216.256 128.553 216.256ZM145.696 216.256C144.288 216.256 143.051 215.968 141.984 215.392C140.917 214.816 140.085 214.005 139.488 212.96C138.912 211.915 138.624 210.699 138.624 209.312V201.824C138.624 200.373 139.392 199.648 140.928 199.648C142.464 199.648 143.232 200.373 143.232 201.824V209.248C143.232 210.251 143.445 211.029 143.872 211.584C144.299 212.139 144.907 212.416 145.696 212.416C146.485 212.416 147.093 212.139 147.52 211.584C147.947 211.029 148.16 210.251 148.16 209.248V201.824C148.16 200.373 148.928 199.648 150.464 199.648C152 199.648 152.768 200.373 152.768 201.824V209.312C152.768 210.699 152.469 211.915 151.872 212.96C151.296 214.005 150.475 214.816 149.408 215.392C148.363 215.968 147.125 216.256 145.696 216.256ZM157.69 216C157.156 216 156.708 215.787 156.346 215.36C156.004 214.933 155.834 214.411 155.834 213.792C155.834 213.387 155.93 213.024 156.122 212.704L161.05 204.992C161.284 204.629 161.476 204.373 161.626 204.224C161.775 204.075 161.935 203.968 162.106 203.904H157.626C156.196 203.904 155.482 203.253 155.482 201.952C155.482 200.651 156.196 200 157.626 200H165.53C166.106 200 166.586 200.213 166.97 200.64C167.354 201.067 167.546 201.589 167.546 202.208C167.546 202.613 167.45 202.976 167.258 203.296L162.042 211.072C161.658 211.669 161.22 212.011 160.73 212.096H166.17C167.599 212.096 168.314 212.768 168.314 214.112C168.314 215.371 167.599 216 166.17 216H157.69ZM173.469 216.256C171.89 216.256 171.101 215.541 171.101 214.112V195.392C171.101 194.645 171.282 194.101 171.645 193.76C172.008 193.419 172.584 193.248 173.373 193.248C174.93 193.248 175.709 193.963 175.709 195.392V198.592C175.709 201.237 175.634 202.816 175.485 203.328C176.04 202.773 176.637 202.389 177.277 202.176C177.917 201.963 178.76 201.856 179.805 201.856H182.941V195.392C182.941 194.645 183.122 194.101 183.485 193.76C183.848 193.419 184.424 193.248 185.213 193.248C186.77 193.248 187.549 193.963 187.549 195.392V214.112C187.549 214.837 187.368 215.381 187.005 215.744C186.664 216.085 186.098 216.256 185.309 216.256C183.73 216.256 182.941 215.541 182.941 214.112V204.64C182.813 205.024 182.397 205.344 181.693 205.6C180.989 205.835 180.168 205.952 179.229 205.952C177.885 205.952 176.957 206.229 176.445 206.784C175.954 207.317 175.709 208.309 175.709 209.76V214.112C175.709 214.837 175.528 215.381 175.165 215.744C174.824 216.085 174.258 216.256 173.469 216.256ZM197.258 216.256C195.125 216.256 193.461 215.765 192.266 214.784C191.071 213.781 190.474 212.491 190.474 210.912C190.474 209.056 191.253 207.712 192.81 206.88C194.389 206.048 196.693 205.76 199.722 206.016C199.573 205.035 199.263 204.373 198.794 204.032C198.325 203.669 197.759 203.488 197.098 203.488C196.565 203.488 196.117 203.52 195.754 203.584C195.413 203.627 195.093 203.68 194.794 203.744C194.495 203.808 194.133 203.84 193.706 203.84C193.13 203.84 192.671 203.744 192.33 203.552C191.989 203.339 191.818 202.923 191.818 202.304C191.818 201.429 192.191 200.789 192.938 200.384C193.706 199.957 194.911 199.744 196.554 199.744C199.157 199.744 201.087 200.491 202.346 201.984C203.605 203.456 204.234 205.429 204.234 207.904C204.234 210.763 203.711 212.875 202.666 214.24C201.642 215.584 199.839 216.256 197.258 216.256ZM195.082 210.912C195.082 212.128 195.903 212.736 197.546 212.736C198.079 212.736 198.495 212.64 198.794 212.448C199.093 212.256 199.306 211.872 199.434 211.296C199.583 210.72 199.69 209.856 199.754 208.704C199.647 208.811 199.509 208.885 199.338 208.928C199.167 208.971 198.997 208.992 198.826 208.992C197.418 208.992 196.437 209.131 195.882 209.408C195.349 209.664 195.082 210.165 195.082 210.912ZM214.158 216.256C211.555 216.256 209.625 215.509 208.366 214.016C207.107 212.501 206.478 210.507 206.478 208.032C206.478 205.557 207.107 203.563 208.366 202.048C209.625 200.512 211.555 199.744 214.158 199.744C215.801 199.744 216.995 199.915 217.742 200.256C218.51 200.597 218.894 201.205 218.894 202.08C218.894 202.699 218.723 203.147 218.382 203.424C218.041 203.701 217.582 203.84 217.006 203.84C216.601 203.84 216.281 203.808 216.046 203.744C215.811 203.68 215.555 203.627 215.278 203.584C215.022 203.52 214.617 203.488 214.062 203.488C213.315 203.488 212.718 203.712 212.27 204.16C211.843 204.608 211.534 205.184 211.342 205.888C211.171 206.571 211.086 207.285 211.086 208.032C211.086 208.757 211.15 209.472 211.278 210.176C211.427 210.859 211.715 211.424 212.142 211.872C212.569 212.299 213.219 212.512 214.094 212.512C214.905 212.512 215.502 212.459 215.886 212.352C216.27 212.224 216.643 212.16 217.006 212.16C217.582 212.16 218.041 212.267 218.382 212.48C218.723 212.672 218.894 213.077 218.894 213.696C218.894 214.571 218.51 215.221 217.742 215.648C216.995 216.053 215.801 216.256 214.158 216.256ZM224.365 216.256C223.533 216.256 222.935 216.032 222.573 215.584C222.231 215.136 222.061 214.528 222.061 213.76V194.112C222.061 193.344 222.231 192.736 222.573 192.288C222.935 191.84 223.533 191.616 224.365 191.616C225.197 191.616 225.783 191.84 226.125 192.288C226.487 192.736 226.669 193.344 226.669 194.112V206.016C227.799 205.333 228.802 204.565 229.677 203.712C230.551 202.837 231.149 202.005 231.469 201.216C231.767 200.491 232.194 200 232.749 199.744C233.303 199.488 233.911 199.52 234.573 199.84C235.49 200.288 235.917 200.971 235.853 201.888C235.831 202.656 235.479 203.52 234.797 204.48C234.135 205.419 233.314 206.229 232.333 206.912C233.57 207.339 234.562 208.117 235.309 209.248C236.077 210.357 236.461 211.968 236.461 214.08C236.461 215.531 235.703 216.256 234.189 216.256C232.631 216.256 231.853 215.531 231.853 214.08C231.853 212.523 231.607 211.381 231.117 210.656C230.626 209.931 229.975 209.568 229.165 209.568C228.418 209.568 227.81 209.845 227.341 210.4C226.893 210.955 226.669 211.915 226.669 213.28C226.669 214.517 226.487 215.328 226.125 215.712C225.762 216.075 225.175 216.256 224.365 216.256ZM244.966 216.256C240.956 216.256 238.95 215.371 238.95 213.6C238.95 213.045 239.1 212.608 239.398 212.288C239.697 211.968 240.092 211.808 240.582 211.808C240.796 211.808 240.998 211.84 241.19 211.904C241.404 211.947 241.809 212.064 242.406 212.256C242.662 212.341 243.004 212.427 243.43 212.512C243.857 212.597 244.273 212.64 244.678 212.64C245.446 212.64 245.99 212.544 246.31 212.352C246.63 212.16 246.79 211.84 246.79 211.392C246.79 211.029 246.705 210.752 246.534 210.56C246.364 210.347 246.001 210.144 245.446 209.952C244.892 209.76 244.028 209.493 242.854 209.152C241.788 208.853 240.924 208.32 240.262 207.552C239.622 206.763 239.302 205.792 239.302 204.64C239.302 203.019 239.889 201.781 241.062 200.928C242.236 200.075 243.846 199.648 245.894 199.648C247.43 199.648 248.636 199.861 249.51 200.288C250.385 200.715 250.822 201.333 250.822 202.144C250.822 202.656 250.673 203.083 250.374 203.424C250.076 203.765 249.67 203.936 249.158 203.936C248.945 203.936 248.689 203.904 248.39 203.84C248.113 203.776 247.772 203.691 247.366 203.584C247.068 203.477 246.748 203.392 246.406 203.328C246.086 203.264 245.745 203.232 245.382 203.232C244.358 203.232 243.846 203.595 243.846 204.32C243.846 204.747 244.049 205.109 244.454 205.408C244.86 205.685 245.638 205.995 246.79 206.336C248.369 206.805 249.532 207.435 250.278 208.224C251.025 208.992 251.398 210.016 251.398 211.296C251.398 212.789 250.822 213.995 249.67 214.912C248.54 215.808 246.972 216.256 244.966 216.256ZM255.526 216.256C254.758 216.256 254.139 216.021 253.67 215.552C253.222 215.083 252.998 214.485 252.998 213.76C252.998 213.013 253.222 212.405 253.67 211.936C254.139 211.467 254.758 211.232 255.526 211.232C256.273 211.232 256.881 211.467 257.35 211.936C257.819 212.405 258.054 213.013 258.054 213.76C258.054 214.485 257.819 215.083 257.35 215.552C256.881 216.021 256.273 216.256 255.526 216.256Z" fill="white"/>
</svg>
