<svg width="317" height="340" viewBox="0 0 317 340" fill="none" xmlns="http://www.w3.org/2000/svg">
<path d="M225.567 337.575L59.9782 321.979C51.8088 321.216 45.8787 312.637 46.8014 302.938L101.871 250.737L193.382 259.353L242.066 321.327C241.155 331.039 233.724 338.35 225.555 337.575H225.567Z" fill="#D1CC9D" stroke="#C1C09D" stroke-width="4" stroke-miterlimit="10"/>
<path d="M313.806 173.463C311.813 194.683 201.17 309.868 187.538 312.465C173.365 315.173 158.576 315.948 143.492 314.52C129.91 313.24 116.893 310.262 104.639 305.806C88.7185 300.021 0.750535 162.68 2.49759 144.131C6.3608 103.094 25.7384 67.2636 54.2818 41.8954C85.5689 14.09 127.855 -1.16042 172.811 3.07376C175.038 3.28301 177.252 3.54149 179.442 3.8369C261.997 15.124 321.692 89.69 313.806 173.463Z" fill="#D1CC9D" stroke="#C1C09D" stroke-width="4" stroke-miterlimit="10"/>
<path opacity="0.5" d="M112.808 308.686L14.407 144.587" stroke="#C1C09D" stroke-width="2" stroke-miterlimit="10"/>
<path opacity="0.5" d="M119.304 312.576L52.5715 93.752" stroke="#C1C09D" stroke-width="2" stroke-miterlimit="10"/>
<path opacity="0.5" d="M147.577 316.12L177.228 34.584" stroke="#C1C09D" stroke-width="2" stroke-miterlimit="10"/>
<path opacity="0.5" d="M172.86 315L275.407 109.729" stroke="#C1C09D" stroke-width="2" stroke-miterlimit="10"/>
<path opacity="0.5" d="M185.483 314.976L298.279 169.438" stroke="#C1C09D" stroke-width="2" stroke-miterlimit="10"/>
<path opacity="0.5" d="M133.933 313.807L80.8936 62.4141" stroke="#C1C09D" stroke-width="2" stroke-miterlimit="10"/>
<path opacity="0.5" d="M163.866 316.33L239.839 63.2632" stroke="#C1C09D" stroke-width="2" stroke-miterlimit="10"/>
<path opacity="0.5" d="M136.972 315.234L130.808 53.2441" stroke="#C1C09D" stroke-width="2" stroke-miterlimit="10"/>
<path opacity="0.5" d="M158.158 317.302L217.225 43.8032" stroke="#C1C09D" stroke-width="2" stroke-miterlimit="10"/>
<path d="M97.44 63C96.6933 63 96.12 62.8267 95.72 62.48C95.32 62.1333 95.04 61.6933 94.88 61.16C94.7467 60.6267 94.6667 60.0533 94.64 59.44C94.64 58.8267 94.64 58.2533 94.64 57.72C94.64 55.3467 95.1467 53.4667 96.16 52.08C97.1733 50.6933 98.9333 49.6267 101.44 48.88C102.8 48.4267 103.867 48.0133 104.64 47.64C105.44 47.24 106.013 46.7067 106.36 46.04C106.707 45.3467 106.88 44.3733 106.88 43.12C106.88 42.24 106.627 41.48 106.12 40.84C105.613 40.1733 104.733 39.84 103.48 39.84C102.733 39.84 101.947 39.8933 101.12 40C100.32 40.1067 99.56 40.16 98.84 40.16C97.7733 40.16 96.9867 39.96 96.48 39.56C96 39.16 95.76 38.5467 95.76 37.72C95.76 36.6267 96.32 35.8667 97.44 35.44C98.8533 34.8533 100.64 34.56 102.8 34.56C105.867 34.56 108.267 35.32 110 36.84C111.733 38.3333 112.6 40.4133 112.6 43.08C112.6 45.0533 112.333 46.7067 111.8 48.04C111.267 49.3733 110.387 50.48 109.16 51.36C107.933 52.24 106.28 52.9867 104.2 53.6C102.733 54.0267 101.72 54.48 101.16 54.96C100.627 55.4133 100.36 56.0933 100.36 57V58.24C100.893 57.7067 101.6 57.44 102.48 57.44H109.64C110.627 57.44 111.387 57.68 111.92 58.16C112.453 58.64 112.72 59.3333 112.72 60.24C112.72 62.08 111.693 63 109.64 63H97.44ZM126.62 63.32C124.487 63.32 122.647 62.8533 121.1 61.92C119.58 60.96 118.42 59.4267 117.62 57.32C116.82 55.2133 116.42 52.4267 116.42 48.96C116.42 45.4667 116.82 42.6667 117.62 40.56C118.42 38.4533 119.58 36.9333 121.1 36C122.62 35.04 124.46 34.56 126.62 34.56C128.807 34.56 130.647 35.04 132.14 36C133.66 36.9333 134.82 38.4533 135.62 40.56C136.42 42.6667 136.82 45.4667 136.82 48.96C136.82 52.4267 136.42 55.2133 135.62 57.32C134.82 59.4267 133.66 60.96 132.14 61.92C130.62 62.8533 128.78 63.32 126.62 63.32ZM126.62 58.04C127.607 58.04 128.407 57.8 129.02 57.32C129.633 56.84 130.087 55.9467 130.38 54.64C130.673 53.3067 130.82 51.4133 130.82 48.96C130.82 46.48 130.673 44.5867 130.38 43.28C130.087 41.9733 129.633 41.08 129.02 40.6C128.407 40.0933 127.607 39.84 126.62 39.84C125.66 39.84 124.86 40.0933 124.22 40.6C123.607 41.08 123.153 41.9733 122.86 43.28C122.567 44.5867 122.42 46.48 122.42 48.96C122.42 51.4133 122.567 53.3067 122.86 54.64C123.153 55.9467 123.607 56.84 124.22 57.32C124.86 57.8 125.66 58.04 126.62 58.04ZM145.941 63.32C143.968 63.32 142.981 62.4267 142.981 60.64V40.28H140.741C139.915 40.28 139.288 40.0133 138.861 39.48C138.461 38.92 138.261 38.3067 138.261 37.64C138.261 36.9733 138.461 36.3733 138.861 35.84C139.288 35.28 139.915 35 140.741 35H145.821C147.768 35 148.741 35.8933 148.741 37.68V60.64C148.741 61.5467 148.515 62.2267 148.061 62.68C147.635 63.1067 146.928 63.32 145.941 63.32ZM163.233 63.44C161.606 63.44 160.033 63.1333 158.513 62.52C156.993 61.9067 155.739 60.9867 154.753 59.76C153.793 58.5333 153.313 57.0133 153.313 55.2C153.313 53.7333 153.699 52.4667 154.473 51.4C155.246 50.3067 156.179 49.4667 157.273 48.88C156.339 48.32 155.606 47.4933 155.073 46.4C154.539 45.3067 154.273 44.12 154.273 42.84C154.273 41.48 154.566 40.1733 155.153 38.92C155.766 37.64 156.726 36.6 158.033 35.8C159.366 34.9733 161.086 34.56 163.193 34.56C165.326 34.56 167.033 34.9733 168.313 35.8C169.619 36.6267 170.566 37.68 171.153 38.96C171.739 40.2133 172.033 41.5067 172.033 42.84C172.033 44.1467 171.779 45.3467 171.273 46.44C170.766 47.5333 170.059 48.3467 169.153 48.88C170.273 49.4667 171.179 50.3067 171.873 51.4C172.593 52.4667 172.953 53.7333 172.953 55.2C172.953 57.04 172.473 58.5733 171.513 59.8C170.579 61 169.366 61.9067 167.873 62.52C166.406 63.1333 164.859 63.44 163.233 63.44ZM163.393 46.32C164.406 46.32 165.166 45.9733 165.673 45.28C166.179 44.56 166.433 43.7467 166.433 42.84C166.433 41.9867 166.153 41.2 165.593 40.48C165.059 39.7333 164.233 39.36 163.113 39.36C162.073 39.36 161.273 39.7333 160.713 40.48C160.153 41.2 159.873 41.9867 159.873 42.84C159.873 43.7467 160.153 44.56 160.713 45.28C161.273 45.9733 162.166 46.32 163.393 46.32ZM163.193 58.44C164.553 58.44 165.566 58.0533 166.233 57.28C166.899 56.48 167.233 55.6267 167.233 54.72C167.233 53.7867 166.899 52.9333 166.233 52.16C165.566 51.3867 164.553 51 163.193 51C161.806 51 160.766 51.3867 160.073 52.16C159.406 52.9333 159.073 53.7867 159.073 54.72C159.073 55.6267 159.406 56.48 160.073 57.28C160.766 58.0533 161.806 58.44 163.193 58.44Z" fill="white"/>
<path d="M89.9141 103.896C89.9141 106.435 90.2235 108.259 90.8421 109.368C91.4608 110.456 92.3781 111 93.5941 111C94.3621 111 95.0341 110.947 95.6101 110.84C96.1861 110.712 96.7088 110.648 97.1781 110.648C98.0315 110.648 98.6501 110.829 99.0341 111.192C99.4181 111.533 99.6101 111.981 99.6101 112.536C99.6101 113.261 99.3435 113.816 98.8101 114.2C98.2981 114.584 97.6368 114.851 96.8261 115C96.0368 115.149 95.2261 115.224 94.3941 115.224C92.0901 115.224 90.2555 114.797 88.8901 113.944C87.5461 113.091 86.5755 111.832 85.9781 110.168C85.4021 108.483 85.1141 106.392 85.1141 103.896C85.1141 101.4 85.4021 99.288 85.9781 97.56C86.5755 95.8107 87.5461 94.488 88.8901 93.592C90.2555 92.696 92.0901 92.248 94.3941 92.248C95.2261 92.248 96.0368 92.3227 96.8261 92.472C97.6368 92.6213 98.2981 92.888 98.8101 93.272C99.3435 93.656 99.6101 94.2107 99.6101 94.936C99.6101 95.4693 99.4181 95.9173 99.0341 96.28C98.6501 96.6427 98.0315 96.824 97.1781 96.824C96.7088 96.824 96.1861 96.7707 95.6101 96.664C95.0341 96.536 94.3621 96.472 93.5941 96.472C92.1008 96.472 91.1088 97.08 90.6181 98.296C90.1488 99.4907 89.9141 101.357 89.9141 103.896ZM103.334 115.256C101.798 115.256 101.03 114.531 101.03 113.08V100.952C101.03 99.48 101.798 98.744 103.334 98.744C104.102 98.744 104.657 98.9147 104.998 99.256C105.339 99.576 105.51 100.109 105.51 100.856C105.894 100.152 106.438 99.6293 107.142 99.288C107.867 98.9253 108.71 98.744 109.67 98.744C111.505 98.744 112.422 99.544 112.422 101.144C112.422 101.741 112.198 102.189 111.75 102.488C111.302 102.787 110.566 102.936 109.542 102.936C108.539 102.936 107.75 103.032 107.174 103.224C106.598 103.395 106.193 103.725 105.958 104.216C105.745 104.685 105.638 105.368 105.638 106.264V113.08C105.638 114.531 104.87 115.256 103.334 115.256ZM120.477 115.256C119.069 115.256 117.832 114.968 116.765 114.392C115.698 113.816 114.866 113.005 114.269 111.96C113.693 110.915 113.405 109.699 113.405 108.312V100.824C113.405 99.3733 114.173 98.648 115.709 98.648C117.245 98.648 118.013 99.3733 118.013 100.824V108.248C118.013 109.251 118.226 110.029 118.653 110.584C119.08 111.139 119.688 111.416 120.477 111.416C121.266 111.416 121.874 111.139 122.301 110.584C122.728 110.029 122.941 109.251 122.941 108.248V100.824C122.941 99.3733 123.709 98.648 125.245 98.648C126.781 98.648 127.549 99.3733 127.549 100.824V108.312C127.549 109.699 127.25 110.915 126.653 111.96C126.077 113.005 125.256 113.816 124.189 114.392C123.144 114.968 121.906 115.256 120.477 115.256ZM132.471 115C131.938 115 131.49 114.787 131.127 114.36C130.786 113.933 130.615 113.411 130.615 112.792C130.615 112.387 130.711 112.024 130.903 111.704L135.831 103.992C136.066 103.629 136.258 103.373 136.407 103.224C136.556 103.075 136.716 102.968 136.887 102.904H132.407C130.978 102.904 130.263 102.253 130.263 100.952C130.263 99.6507 130.978 99 132.407 99H140.311C140.887 99 141.367 99.2133 141.751 99.64C142.135 100.067 142.327 100.589 142.327 101.208C142.327 101.613 142.231 101.976 142.039 102.296L136.823 110.072C136.439 110.669 136.002 111.011 135.511 111.096H140.951C142.38 111.096 143.095 111.768 143.095 113.112C143.095 114.371 142.38 115 140.951 115H132.471ZM148.25 115.256C146.671 115.256 145.882 114.541 145.882 113.112V94.392C145.882 93.6453 146.063 93.1013 146.426 92.76C146.789 92.4187 147.365 92.248 148.154 92.248C149.711 92.248 150.49 92.9627 150.49 94.392V97.592C150.49 100.237 150.415 101.816 150.266 102.328C150.821 101.773 151.418 101.389 152.058 101.176C152.698 100.963 153.541 100.856 154.586 100.856H157.722V94.392C157.722 93.6453 157.903 93.1013 158.266 92.76C158.629 92.4187 159.205 92.248 159.994 92.248C161.551 92.248 162.33 92.9627 162.33 94.392V113.112C162.33 113.837 162.149 114.381 161.786 114.744C161.445 115.085 160.879 115.256 160.09 115.256C158.511 115.256 157.722 114.541 157.722 113.112V103.64C157.594 104.024 157.178 104.344 156.474 104.6C155.77 104.835 154.949 104.952 154.01 104.952C152.666 104.952 151.738 105.229 151.226 105.784C150.735 106.317 150.49 107.309 150.49 108.76V113.112C150.49 113.837 150.309 114.381 149.946 114.744C149.605 115.085 149.039 115.256 148.25 115.256ZM172.039 115.256C169.906 115.256 168.242 114.765 167.047 113.784C165.853 112.781 165.255 111.491 165.255 109.912C165.255 108.056 166.034 106.712 167.591 105.88C169.17 105.048 171.474 104.76 174.503 105.016C174.354 104.035 174.045 103.373 173.575 103.032C173.106 102.669 172.541 102.488 171.879 102.488C171.346 102.488 170.898 102.52 170.535 102.584C170.194 102.627 169.874 102.68 169.575 102.744C169.277 102.808 168.914 102.84 168.487 102.84C167.911 102.84 167.453 102.744 167.111 102.552C166.77 102.339 166.599 101.923 166.599 101.304C166.599 100.429 166.973 99.7893 167.719 99.384C168.487 98.9573 169.693 98.744 171.335 98.744C173.938 98.744 175.869 99.4907 177.127 100.984C178.386 102.456 179.015 104.429 179.015 106.904C179.015 109.763 178.493 111.875 177.447 113.24C176.423 114.584 174.621 115.256 172.039 115.256ZM169.863 109.912C169.863 111.128 170.685 111.736 172.327 111.736C172.861 111.736 173.277 111.64 173.575 111.448C173.874 111.256 174.087 110.872 174.215 110.296C174.365 109.72 174.471 108.856 174.535 107.704C174.429 107.811 174.29 107.885 174.119 107.928C173.949 107.971 173.778 107.992 173.607 107.992C172.199 107.992 171.218 108.131 170.663 108.408C170.13 108.664 169.863 109.165 169.863 109.912ZM188.939 115.256C186.336 115.256 184.406 114.509 183.147 113.016C181.888 111.501 181.259 109.507 181.259 107.032C181.259 104.557 181.888 102.563 183.147 101.048C184.406 99.512 186.336 98.744 188.939 98.744C190.582 98.744 191.776 98.9147 192.523 99.256C193.291 99.5973 193.675 100.205 193.675 101.08C193.675 101.699 193.504 102.147 193.163 102.424C192.822 102.701 192.363 102.84 191.787 102.84C191.382 102.84 191.062 102.808 190.827 102.744C190.592 102.68 190.336 102.627 190.059 102.584C189.803 102.52 189.398 102.488 188.843 102.488C188.096 102.488 187.499 102.712 187.051 103.16C186.624 103.608 186.315 104.184 186.123 104.888C185.952 105.571 185.867 106.285 185.867 107.032C185.867 107.757 185.931 108.472 186.059 109.176C186.208 109.859 186.496 110.424 186.923 110.872C187.35 111.299 188 111.512 188.875 111.512C189.686 111.512 190.283 111.459 190.667 111.352C191.051 111.224 191.424 111.16 191.787 111.16C192.363 111.16 192.822 111.267 193.163 111.48C193.504 111.672 193.675 112.077 193.675 112.696C193.675 113.571 193.291 114.221 192.523 114.648C191.776 115.053 190.582 115.256 188.939 115.256ZM199.146 115.256C198.314 115.256 197.717 115.032 197.354 114.584C197.013 114.136 196.842 113.528 196.842 112.76V93.112C196.842 92.344 197.013 91.736 197.354 91.288C197.717 90.84 198.314 90.616 199.146 90.616C199.978 90.616 200.565 90.84 200.906 91.288C201.269 91.736 201.45 92.344 201.45 93.112V105.016C202.581 104.333 203.583 103.565 204.458 102.712C205.333 101.837 205.93 101.005 206.25 100.216C206.549 99.4907 206.975 99 207.53 98.744C208.085 98.488 208.693 98.52 209.354 98.84C210.271 99.288 210.698 99.9707 210.634 100.888C210.613 101.656 210.261 102.52 209.578 103.48C208.917 104.419 208.095 105.229 207.114 105.912C208.351 106.339 209.343 107.117 210.09 108.248C210.858 109.357 211.242 110.968 211.242 113.08C211.242 114.531 210.485 115.256 208.97 115.256C207.413 115.256 206.634 114.531 206.634 113.08C206.634 111.523 206.389 110.381 205.898 109.656C205.407 108.931 204.757 108.568 203.946 108.568C203.199 108.568 202.591 108.845 202.122 109.4C201.674 109.955 201.45 110.915 201.45 112.28C201.45 113.517 201.269 114.328 200.906 114.712C200.543 115.075 199.957 115.256 199.146 115.256ZM219.748 115.256C215.737 115.256 213.732 114.371 213.732 112.6C213.732 112.045 213.881 111.608 214.18 111.288C214.478 110.968 214.873 110.808 215.364 110.808C215.577 110.808 215.78 110.84 215.972 110.904C216.185 110.947 216.59 111.064 217.188 111.256C217.444 111.341 217.785 111.427 218.212 111.512C218.638 111.597 219.054 111.64 219.46 111.64C220.228 111.64 220.772 111.544 221.092 111.352C221.412 111.16 221.572 110.84 221.572 110.392C221.572 110.029 221.486 109.752 221.316 109.56C221.145 109.347 220.782 109.144 220.228 108.952C219.673 108.76 218.809 108.493 217.636 108.152C216.569 107.853 215.705 107.32 215.044 106.552C214.404 105.763 214.084 104.792 214.084 103.64C214.084 102.019 214.67 100.781 215.844 99.928C217.017 99.0747 218.628 98.648 220.676 98.648C222.212 98.648 223.417 98.8613 224.292 99.288C225.166 99.7147 225.604 100.333 225.604 101.144C225.604 101.656 225.454 102.083 225.156 102.424C224.857 102.765 224.452 102.936 223.94 102.936C223.726 102.936 223.47 102.904 223.172 102.84C222.894 102.776 222.553 102.691 222.148 102.584C221.849 102.477 221.529 102.392 221.188 102.328C220.868 102.264 220.526 102.232 220.164 102.232C219.14 102.232 218.628 102.595 218.628 103.32C218.628 103.747 218.83 104.109 219.236 104.408C219.641 104.685 220.42 104.995 221.572 105.336C223.15 105.805 224.313 106.435 225.06 107.224C225.806 107.992 226.18 109.016 226.18 110.296C226.18 111.789 225.604 112.995 224.452 113.912C223.321 114.808 221.753 115.256 219.748 115.256ZM45.5998 157.256C44.0638 157.256 43.2958 156.531 43.2958 155.08V142.952C43.2958 141.48 44.0638 140.744 45.5998 140.744C46.3678 140.744 46.9224 140.915 47.2638 141.256C47.6051 141.576 47.7758 142.109 47.7758 142.856C48.1598 142.152 48.7038 141.629 49.4078 141.288C50.1331 140.925 50.9758 140.744 51.9358 140.744C53.7704 140.744 54.6878 141.544 54.6878 143.144C54.6878 143.741 54.4638 144.189 54.0158 144.488C53.5678 144.787 52.8318 144.936 51.8078 144.936C50.8051 144.936 50.0158 145.032 49.4398 145.224C48.8638 145.395 48.4584 145.725 48.2238 146.216C48.0104 146.685 47.9038 147.368 47.9038 148.264V155.08C47.9038 156.531 47.1358 157.256 45.5998 157.256ZM63.19 157.256C61.0567 157.256 59.382 156.904 58.166 156.2C56.9713 155.496 56.118 154.525 55.606 153.288C55.1153 152.051 54.87 150.632 54.87 149.032C54.87 146.088 55.5207 143.976 56.822 142.696C58.1233 141.395 59.8727 140.744 62.07 140.744C63.3927 140.744 64.566 140.968 65.59 141.416C66.614 141.864 67.414 142.504 67.99 143.336C68.566 144.147 68.854 145.139 68.854 146.312C68.854 149.725 66.422 151.432 61.558 151.432H59.702C59.8727 152.093 60.15 152.616 60.534 153C60.9393 153.363 61.6433 153.544 62.646 153.544C63.2007 153.544 63.6487 153.512 63.99 153.448C64.3313 153.384 64.6513 153.32 64.95 153.256C65.27 153.192 65.6327 153.16 66.038 153.16C66.614 153.16 67.0727 153.267 67.414 153.48C67.7553 153.672 67.926 154.077 67.926 154.696C67.926 155.571 67.542 156.221 66.774 156.648C66.0273 157.053 64.8327 157.256 63.19 157.256ZM59.478 149.064C59.6487 148.829 59.8407 148.68 60.054 148.616C60.2673 148.531 60.598 148.488 61.046 148.488C62.3047 148.488 63.1687 148.371 63.638 148.136C64.1287 147.88 64.374 147.432 64.374 146.792C64.374 145.981 64.15 145.363 63.702 144.936C63.254 144.488 62.6887 144.264 62.006 144.264C61.2167 144.264 60.598 144.595 60.15 145.256C59.702 145.917 59.478 147.187 59.478 149.064ZM77.43 157.256C75.2967 157.256 73.6327 156.765 72.438 155.784C71.2433 154.781 70.646 153.491 70.646 151.912C70.646 150.056 71.4247 148.712 72.982 147.88C74.5607 147.048 76.8647 146.76 79.894 147.016C79.7447 146.035 79.4353 145.373 78.966 145.032C78.4967 144.669 77.9313 144.488 77.27 144.488C76.7367 144.488 76.2887 144.52 75.926 144.584C75.5847 144.627 75.2647 144.68 74.966 144.744C74.6673 144.808 74.3047 144.84 73.878 144.84C73.302 144.84 72.8433 144.744 72.502 144.552C72.1607 144.339 71.99 143.923 71.99 143.304C71.99 142.429 72.3633 141.789 73.11 141.384C73.878 140.957 75.0833 140.744 76.726 140.744C79.3287 140.744 81.2593 141.491 82.518 142.984C83.7767 144.456 84.406 146.429 84.406 148.904C84.406 151.763 83.8833 153.875 82.838 155.24C81.814 156.584 80.0113 157.256 77.43 157.256ZM75.254 151.912C75.254 153.128 76.0753 153.736 77.718 153.736C78.2513 153.736 78.6673 153.64 78.966 153.448C79.2647 153.256 79.478 152.872 79.606 152.296C79.7553 151.72 79.862 150.856 79.926 149.704C79.8193 149.811 79.6807 149.885 79.51 149.928C79.3393 149.971 79.1687 149.992 78.998 149.992C77.59 149.992 76.6087 150.131 76.054 150.408C75.5207 150.664 75.254 151.165 75.254 151.912ZM94.3298 157.256C91.7271 157.256 89.7964 156.509 88.5378 155.016C87.2791 153.501 86.6497 151.507 86.6497 149.032C86.6497 146.557 87.2791 144.563 88.5378 143.048C89.7964 141.512 91.7271 140.744 94.3298 140.744C95.9724 140.744 97.1671 140.915 97.9138 141.256C98.6818 141.597 99.0658 142.205 99.0658 143.08C99.0658 143.699 98.8951 144.147 98.5538 144.424C98.2124 144.701 97.7538 144.84 97.1778 144.84C96.7724 144.84 96.4524 144.808 96.2178 144.744C95.9831 144.68 95.7271 144.627 95.4498 144.584C95.1938 144.52 94.7884 144.488 94.2338 144.488C93.4871 144.488 92.8898 144.712 92.4418 145.16C92.0151 145.608 91.7058 146.184 91.5138 146.888C91.3431 147.571 91.2578 148.285 91.2578 149.032C91.2578 149.757 91.3218 150.472 91.4498 151.176C91.5991 151.859 91.8871 152.424 92.3138 152.872C92.7404 153.299 93.3911 153.512 94.2658 153.512C95.0764 153.512 95.6738 153.459 96.0578 153.352C96.4418 153.224 96.8151 153.16 97.1778 153.16C97.7538 153.16 98.2124 153.267 98.5538 153.48C98.8951 153.672 99.0658 154.077 99.0658 154.696C99.0658 155.571 98.6818 156.221 97.9138 156.648C97.1671 157.053 95.9724 157.256 94.3298 157.256ZM106.841 155.112C106.841 156.541 106.094 157.256 104.601 157.256C103.875 157.256 103.299 157.075 102.873 156.712C102.446 156.349 102.233 155.816 102.233 155.112V135.112C102.233 133.448 103.011 132.616 104.569 132.616C106.105 132.616 106.873 133.448 106.873 135.112V138.536C106.873 139.133 106.809 139.709 106.681 140.264C106.553 140.819 106.339 141.395 106.041 141.992C106.403 141.544 106.883 141.224 107.481 141.032C108.078 140.84 108.771 140.744 109.561 140.744C110.969 140.744 112.195 141.021 113.241 141.576C114.286 142.131 115.097 142.909 115.673 143.912C116.27 144.893 116.569 146.067 116.569 147.432V155.112C116.569 156.541 115.822 157.256 114.329 157.256C113.603 157.256 113.027 157.075 112.601 156.712C112.174 156.349 111.961 155.816 111.961 155.112V147.624C111.961 146.621 111.726 145.864 111.257 145.352C110.809 144.84 110.179 144.584 109.369 144.584C108.579 144.584 107.961 144.851 107.513 145.384C107.065 145.896 106.841 146.643 106.841 147.624V155.112ZM127.971 157.256C125.838 157.256 124.163 156.904 122.947 156.2C121.753 155.496 120.899 154.525 120.387 153.288C119.897 152.051 119.651 150.632 119.651 149.032C119.651 146.088 120.302 143.976 121.603 142.696C122.905 141.395 124.654 140.744 126.851 140.744C128.174 140.744 129.347 140.968 130.371 141.416C131.395 141.864 132.195 142.504 132.771 143.336C133.347 144.147 133.635 145.139 133.635 146.312C133.635 149.725 131.203 151.432 126.339 151.432H124.483C124.654 152.093 124.931 152.616 125.315 153C125.721 153.363 126.425 153.544 127.427 153.544C127.982 153.544 128.43 153.512 128.771 153.448C129.113 153.384 129.433 153.32 129.731 153.256C130.051 153.192 130.414 153.16 130.819 153.16C131.395 153.16 131.854 153.267 132.195 153.48C132.537 153.672 132.707 154.077 132.707 154.696C132.707 155.571 132.323 156.221 131.555 156.648C130.809 157.053 129.614 157.256 127.971 157.256ZM124.259 149.064C124.43 148.829 124.622 148.68 124.835 148.616C125.049 148.531 125.379 148.488 125.827 148.488C127.086 148.488 127.95 148.371 128.419 148.136C128.91 147.88 129.155 147.432 129.155 146.792C129.155 145.981 128.931 145.363 128.483 144.936C128.035 144.488 127.47 144.264 126.787 144.264C125.998 144.264 125.379 144.595 124.931 145.256C124.483 145.917 124.259 147.187 124.259 149.064ZM141.982 157.256C137.971 157.256 135.966 156.371 135.966 154.6C135.966 154.045 136.115 153.608 136.414 153.288C136.713 152.968 137.107 152.808 137.598 152.808C137.811 152.808 138.014 152.84 138.206 152.904C138.419 152.947 138.825 153.064 139.422 153.256C139.678 153.341 140.019 153.427 140.446 153.512C140.873 153.597 141.289 153.64 141.694 153.64C142.462 153.64 143.006 153.544 143.326 153.352C143.646 153.16 143.806 152.84 143.806 152.392C143.806 152.029 143.721 151.752 143.55 151.56C143.379 151.347 143.017 151.144 142.462 150.952C141.907 150.76 141.043 150.493 139.87 150.152C138.803 149.853 137.939 149.32 137.278 148.552C136.638 147.763 136.318 146.792 136.318 145.64C136.318 144.019 136.905 142.781 138.078 141.928C139.251 141.075 140.862 140.648 142.91 140.648C144.446 140.648 145.651 140.861 146.526 141.288C147.401 141.715 147.838 142.333 147.838 143.144C147.838 143.656 147.689 144.083 147.39 144.424C147.091 144.765 146.686 144.936 146.174 144.936C145.961 144.936 145.705 144.904 145.406 144.84C145.129 144.776 144.787 144.691 144.382 144.584C144.083 144.477 143.763 144.392 143.422 144.328C143.102 144.264 142.761 144.232 142.398 144.232C141.374 144.232 140.862 144.595 140.862 145.32C140.862 145.747 141.065 146.109 141.47 146.408C141.875 146.685 142.654 146.995 143.806 147.336C145.385 147.805 146.547 148.435 147.294 149.224C148.041 149.992 148.414 151.016 148.414 152.296C148.414 153.789 147.838 154.995 146.686 155.912C145.555 156.808 143.987 157.256 141.982 157.256ZM164.336 157.256C162.203 157.256 160.539 156.765 159.344 155.784C158.15 154.781 157.552 153.491 157.552 151.912C157.552 150.056 158.331 148.712 159.888 147.88C161.467 147.048 163.771 146.76 166.8 147.016C166.651 146.035 166.342 145.373 165.872 145.032C165.403 144.669 164.838 144.488 164.176 144.488C163.643 144.488 163.195 144.52 162.832 144.584C162.491 144.627 162.171 144.68 161.872 144.744C161.574 144.808 161.211 144.84 160.784 144.84C160.208 144.84 159.75 144.744 159.408 144.552C159.067 144.339 158.896 143.923 158.896 143.304C158.896 142.429 159.27 141.789 160.016 141.384C160.784 140.957 161.99 140.744 163.632 140.744C166.235 140.744 168.166 141.491 169.424 142.984C170.683 144.456 171.312 146.429 171.312 148.904C171.312 151.763 170.79 153.875 169.744 155.24C168.72 156.584 166.918 157.256 164.336 157.256ZM162.16 151.912C162.16 153.128 162.982 153.736 164.624 153.736C165.158 153.736 165.574 153.64 165.872 153.448C166.171 153.256 166.384 152.872 166.512 152.296C166.662 151.72 166.768 150.856 166.832 149.704C166.726 149.811 166.587 149.885 166.416 149.928C166.246 149.971 166.075 149.992 165.904 149.992C164.496 149.992 163.515 150.131 162.96 150.408C162.427 150.664 162.16 151.165 162.16 151.912ZM183.662 157.256C182.126 157.256 181.358 156.531 181.358 155.08V142.952C181.358 141.48 182.126 140.744 183.662 140.744C184.43 140.744 184.985 140.915 185.326 141.256C185.668 141.576 185.838 142.109 185.838 142.856C186.222 142.152 186.766 141.629 187.47 141.288C188.196 140.925 189.038 140.744 189.998 140.744C191.833 140.744 192.75 141.544 192.75 143.144C192.75 143.741 192.526 144.189 192.078 144.488C191.63 144.787 190.894 144.936 189.87 144.936C188.868 144.936 188.078 145.032 187.502 145.224C186.926 145.395 186.521 145.725 186.286 146.216C186.073 146.685 185.966 147.368 185.966 148.264V155.08C185.966 156.531 185.198 157.256 183.662 157.256ZM201.253 157.256C199.119 157.256 197.445 156.904 196.229 156.2C195.034 155.496 194.181 154.525 193.669 153.288C193.178 152.051 192.933 150.632 192.933 149.032C192.933 146.088 193.583 143.976 194.885 142.696C196.186 141.395 197.935 140.744 200.133 140.744C201.455 140.744 202.629 140.968 203.653 141.416C204.677 141.864 205.477 142.504 206.053 143.336C206.629 144.147 206.917 145.139 206.917 146.312C206.917 149.725 204.485 151.432 199.621 151.432H197.765C197.935 152.093 198.213 152.616 198.597 153C199.002 153.363 199.706 153.544 200.709 153.544C201.263 153.544 201.711 153.512 202.053 153.448C202.394 153.384 202.714 153.32 203.013 153.256C203.333 153.192 203.695 153.16 204.101 153.16C204.677 153.16 205.135 153.267 205.477 153.48C205.818 153.672 205.989 154.077 205.989 154.696C205.989 155.571 205.605 156.221 204.837 156.648C204.09 157.053 202.895 157.256 201.253 157.256ZM197.541 149.064C197.711 148.829 197.903 148.68 198.117 148.616C198.33 148.531 198.661 148.488 199.109 148.488C200.367 148.488 201.231 148.371 201.701 148.136C202.191 147.88 202.437 147.432 202.437 146.792C202.437 145.981 202.213 145.363 201.765 144.936C201.317 144.488 200.751 144.264 200.069 144.264C199.279 144.264 198.661 144.595 198.213 145.256C197.765 145.917 197.541 147.187 197.541 149.064ZM216.549 157.256C213.946 157.256 212.015 156.509 210.757 155.016C209.498 153.501 208.868 151.507 208.868 149.032C208.868 146.557 209.498 144.563 210.757 143.048C212.015 141.512 213.946 140.744 216.549 140.744C218.191 140.744 219.386 140.915 220.133 141.256C220.901 141.597 221.285 142.205 221.285 143.08C221.285 143.699 221.114 144.147 220.773 144.424C220.431 144.701 219.973 144.84 219.397 144.84C218.991 144.84 218.671 144.808 218.437 144.744C218.202 144.68 217.946 144.627 217.669 144.584C217.413 144.52 217.007 144.488 216.453 144.488C215.706 144.488 215.109 144.712 214.661 145.16C214.234 145.608 213.925 146.184 213.733 146.888C213.562 147.571 213.477 148.285 213.477 149.032C213.477 149.757 213.541 150.472 213.669 151.176C213.818 151.859 214.106 152.424 214.533 152.872C214.959 153.299 215.61 153.512 216.485 153.512C217.295 153.512 217.893 153.459 218.277 153.352C218.661 153.224 219.034 153.16 219.397 153.16C219.973 153.16 220.431 153.267 220.773 153.48C221.114 153.672 221.285 154.077 221.285 154.696C221.285 155.571 220.901 156.221 220.133 156.648C219.386 157.053 218.191 157.256 216.549 157.256ZM230.856 157.256C228.573 157.256 226.77 156.605 225.448 155.304C224.125 154.003 223.464 151.901 223.464 149C223.464 146.077 224.125 143.976 225.448 142.696C226.77 141.395 228.573 140.744 230.856 140.744C233.138 140.744 234.941 141.395 236.264 142.696C237.586 143.976 238.248 146.077 238.248 149C238.248 151.901 237.586 154.003 236.264 155.304C234.941 156.605 233.138 157.256 230.856 157.256ZM230.856 153.416C231.453 153.416 231.954 153.299 232.36 153.064C232.765 152.808 233.074 152.36 233.288 151.72C233.522 151.08 233.64 150.173 233.64 149C233.64 147.827 233.522 146.92 233.288 146.28C233.074 145.64 232.765 145.203 232.36 144.968C231.954 144.712 231.453 144.584 230.856 144.584C230.28 144.584 229.778 144.712 229.352 144.968C228.946 145.203 228.626 145.64 228.392 146.28C228.178 146.92 228.072 147.827 228.072 149C228.072 150.173 228.178 151.08 228.392 151.72C228.626 152.36 228.946 152.808 229.352 153.064C229.778 153.299 230.28 153.416 230.856 153.416ZM243.631 157.256C242.095 157.256 241.327 156.531 241.327 155.08V142.952C241.327 141.48 242.095 140.744 243.631 140.744C244.399 140.744 244.954 140.915 245.295 141.256C245.636 141.576 245.807 142.109 245.807 142.856C246.191 142.152 246.735 141.629 247.439 141.288C248.164 140.925 249.007 140.744 249.967 140.744C251.802 140.744 252.719 141.544 252.719 143.144C252.719 143.741 252.495 144.189 252.047 144.488C251.599 144.787 250.863 144.936 249.839 144.936C248.836 144.936 248.047 145.032 247.471 145.224C246.895 145.395 246.49 145.725 246.255 146.216C246.042 146.685 245.935 147.368 245.935 148.264V155.08C245.935 156.531 245.167 157.256 243.631 157.256ZM260.485 157.256C258.139 157.256 256.283 156.509 254.917 155.016C253.573 153.523 252.901 151.336 252.901 148.456C252.901 146.536 253.179 145.011 253.733 143.88C254.288 142.749 255.056 141.949 256.037 141.48C257.04 140.989 258.171 140.744 259.429 140.744C260.56 140.744 261.477 140.883 262.181 141.16C262.885 141.437 263.44 141.907 263.845 142.568C263.696 142.12 263.579 141.704 263.493 141.32C263.429 140.915 263.376 140.445 263.333 139.912C263.312 139.379 263.301 138.696 263.301 137.864V135.112C263.301 133.448 264.016 132.616 265.445 132.616C267.003 132.616 267.781 133.448 267.781 135.112V148.648C267.781 151.528 267.141 153.683 265.861 155.112C264.581 156.541 262.789 157.256 260.485 157.256ZM260.261 153.416C261.157 153.416 261.851 153.096 262.341 152.456C262.853 151.816 263.109 150.621 263.109 148.872C263.109 147.699 262.992 146.813 262.757 146.216C262.544 145.597 262.224 145.171 261.797 144.936C261.371 144.701 260.859 144.584 260.261 144.584C259.664 144.584 259.152 144.701 258.725 144.936C258.299 145.171 257.968 145.597 257.733 146.216C257.52 146.813 257.413 147.699 257.413 148.872C257.413 150.621 257.659 151.816 258.149 152.456C258.661 153.096 259.365 153.416 260.261 153.416ZM46.881 199.256C45.345 199.256 44.577 198.531 44.577 197.08V189.4C44.577 187.352 45.2277 185.731 46.529 184.536C47.8517 183.341 49.5903 182.744 51.745 182.744C53.8997 182.744 55.6277 183.341 56.929 184.536C58.2517 185.731 58.913 187.352 58.913 189.4V197.08C58.913 198.531 58.145 199.256 56.609 199.256C55.073 199.256 54.305 198.531 54.305 197.08V189.656C54.305 188.653 54.081 187.896 53.633 187.384C53.185 186.851 52.5557 186.584 51.745 186.584C50.9343 186.584 50.305 186.851 49.857 187.384C49.409 187.896 49.185 188.653 49.185 189.656V197.08C49.185 198.531 48.417 199.256 46.881 199.256ZM69.274 199.256C67.866 199.256 66.6287 198.968 65.562 198.392C64.4953 197.816 63.6633 197.005 63.066 195.96C62.49 194.915 62.202 193.699 62.202 192.312V184.824C62.202 183.373 62.97 182.648 64.506 182.648C66.042 182.648 66.81 183.373 66.81 184.824V192.248C66.81 193.251 67.0233 194.029 67.45 194.584C67.8767 195.139 68.4847 195.416 69.274 195.416C70.0633 195.416 70.6713 195.139 71.098 194.584C71.5247 194.029 71.738 193.251 71.738 192.248V184.824C71.738 183.373 72.506 182.648 74.042 182.648C75.578 182.648 76.346 183.373 76.346 184.824V192.312C76.346 193.699 76.0473 194.915 75.45 195.96C74.874 197.005 74.0527 197.816 72.986 198.392C71.9407 198.968 70.7033 199.256 69.274 199.256ZM81.9435 199.256C80.4075 199.256 79.6395 198.531 79.6395 197.08V189.4C79.6395 187.224 80.1515 185.571 81.1755 184.44C82.2208 183.309 83.7142 182.744 85.6555 182.744C88.3008 182.744 90.0928 183.693 91.0315 185.592C91.9702 183.693 93.7622 182.744 96.4075 182.744C98.3488 182.744 99.8315 183.309 100.856 184.44C101.901 185.571 102.424 187.224 102.424 189.4V197.08C102.424 198.531 101.656 199.256 100.12 199.256C98.5835 199.256 97.8155 198.531 97.8155 197.08V189.656C97.8155 188.568 97.6342 187.789 97.2715 187.32C96.9088 186.829 96.3435 186.584 95.5755 186.584C94.0395 186.584 93.2715 187.608 93.2715 189.656V196.952C93.2715 198.403 92.5248 199.128 91.0315 199.128C89.5382 199.128 88.7915 198.403 88.7915 196.952V189.656C88.7915 187.608 88.0235 186.584 86.4875 186.584C84.9942 186.584 84.2475 187.608 84.2475 189.656V197.08C84.2475 198.531 83.4795 199.256 81.9435 199.256ZM112.939 199.256C110.635 199.256 108.843 198.541 107.562 197.112C106.283 195.683 105.643 193.528 105.643 190.648V177.112C105.643 175.448 106.421 174.616 107.979 174.616C109.408 174.616 110.123 175.448 110.123 177.112V179.864C110.123 180.696 110.101 181.379 110.059 181.912C110.037 182.445 109.984 182.915 109.899 183.32C109.835 183.704 109.728 184.12 109.579 184.568C109.984 183.907 110.539 183.437 111.243 183.16C111.968 182.883 112.885 182.744 113.995 182.744C115.275 182.744 116.405 182.989 117.387 183.48C118.368 183.949 119.136 184.749 119.691 185.88C120.245 187.011 120.523 188.536 120.523 190.456C120.523 193.336 119.84 195.523 118.475 197.016C117.131 198.509 115.285 199.256 112.939 199.256ZM113.163 195.416C114.059 195.416 114.752 195.096 115.243 194.456C115.755 193.816 116.011 192.621 116.011 190.872C116.011 189.699 115.893 188.813 115.659 188.216C115.445 187.597 115.125 187.171 114.699 186.936C114.272 186.701 113.76 186.584 113.163 186.584C112.565 186.584 112.053 186.701 111.627 186.936C111.2 187.171 110.869 187.597 110.635 188.216C110.421 188.813 110.315 189.699 110.315 190.872C110.315 192.621 110.56 193.816 111.051 194.456C111.563 195.096 112.267 195.416 113.163 195.416ZM131.096 199.256C128.963 199.256 127.288 198.904 126.072 198.2C124.878 197.496 124.024 196.525 123.512 195.288C123.022 194.051 122.776 192.632 122.776 191.032C122.776 188.088 123.427 185.976 124.728 184.696C126.03 183.395 127.779 182.744 129.976 182.744C131.299 182.744 132.472 182.968 133.496 183.416C134.52 183.864 135.32 184.504 135.896 185.336C136.472 186.147 136.76 187.139 136.76 188.312C136.76 191.725 134.328 193.432 129.464 193.432H127.608C127.779 194.093 128.056 194.616 128.44 195C128.846 195.363 129.55 195.544 130.552 195.544C131.107 195.544 131.555 195.512 131.896 195.448C132.238 195.384 132.558 195.32 132.856 195.256C133.176 195.192 133.539 195.16 133.944 195.16C134.52 195.16 134.979 195.267 135.32 195.48C135.662 195.672 135.832 196.077 135.832 196.696C135.832 197.571 135.448 198.221 134.68 198.648C133.934 199.053 132.739 199.256 131.096 199.256ZM127.384 191.064C127.555 190.829 127.747 190.68 127.96 190.616C128.174 190.531 128.504 190.488 128.952 190.488C130.211 190.488 131.075 190.371 131.544 190.136C132.035 189.88 132.28 189.432 132.28 188.792C132.28 187.981 132.056 187.363 131.608 186.936C131.16 186.488 130.595 186.264 129.912 186.264C129.123 186.264 128.504 186.595 128.056 187.256C127.608 187.917 127.384 189.187 127.384 191.064ZM141.975 199.256C140.439 199.256 139.671 198.531 139.671 197.08V184.952C139.671 183.48 140.439 182.744 141.975 182.744C142.743 182.744 143.297 182.915 143.639 183.256C143.98 183.576 144.151 184.109 144.151 184.856C144.535 184.152 145.079 183.629 145.783 183.288C146.508 182.925 147.351 182.744 148.311 182.744C150.145 182.744 151.063 183.544 151.063 185.144C151.063 185.741 150.839 186.189 150.391 186.488C149.943 186.787 149.207 186.936 148.183 186.936C147.18 186.936 146.391 187.032 145.815 187.224C145.239 187.395 144.833 187.725 144.599 188.216C144.385 188.685 144.279 189.368 144.279 190.264V197.08C144.279 198.531 143.511 199.256 141.975 199.256ZM166.543 199.256C164.261 199.256 162.458 198.605 161.135 197.304C159.813 196.003 159.151 193.901 159.151 191C159.151 188.077 159.813 185.976 161.135 184.696C162.458 183.395 164.261 182.744 166.543 182.744C168.826 182.744 170.629 183.395 171.951 184.696C173.274 185.976 173.935 188.077 173.935 191C173.935 193.901 173.274 196.003 171.951 197.304C170.629 198.605 168.826 199.256 166.543 199.256ZM166.543 195.416C167.141 195.416 167.642 195.299 168.047 195.064C168.453 194.808 168.762 194.36 168.975 193.72C169.21 193.08 169.327 192.173 169.327 191C169.327 189.827 169.21 188.92 168.975 188.28C168.762 187.64 168.453 187.203 168.047 186.968C167.642 186.712 167.141 186.584 166.543 186.584C165.967 186.584 165.466 186.712 165.039 186.968C164.634 187.203 164.314 187.64 164.079 188.28C163.866 188.92 163.759 189.827 163.759 191C163.759 192.173 163.866 193.08 164.079 193.72C164.314 194.36 164.634 194.808 165.039 195.064C165.466 195.299 165.967 195.416 166.543 195.416ZM180.315 199.256C179.483 199.256 178.886 199.021 178.523 198.552C178.182 198.061 178.011 197.453 178.011 196.728V186.872H177.563C175.984 186.872 175.195 186.232 175.195 184.952C175.195 183.651 175.984 183 177.563 183H178.011V182.872C178.011 180.397 178.544 178.403 179.611 176.888C180.678 175.373 182.31 174.616 184.507 174.616C184.528 174.616 184.55 174.616 184.571 174.616H184.603C184.667 174.616 184.731 174.616 184.795 174.616C186.544 174.637 187.814 174.883 188.603 175.352C189.414 175.821 189.819 176.536 189.819 177.496C189.819 178.2 189.627 178.669 189.243 178.904C188.88 179.117 188.368 179.224 187.707 179.224C187.131 179.224 186.64 179.181 186.235 179.096C185.851 178.989 185.35 178.915 184.731 178.872H184.539C183.686 178.872 183.131 179.203 182.875 179.864C182.619 180.504 182.491 181.293 182.491 182.232V183H184.315C185.766 183 186.491 183.651 186.491 184.952C186.491 186.232 185.766 186.872 184.315 186.872H182.491V196.728C182.491 197.603 182.299 198.243 181.915 198.648C181.552 199.053 181.019 199.256 180.315 199.256ZM202.917 199.256C202.405 199.256 201.903 199.149 201.413 198.936C200.943 198.701 200.602 198.349 200.389 197.88C200.175 197.389 200.229 196.76 200.549 195.992L206.309 182.296C206.415 182.061 206.554 181.741 206.725 181.336C206.895 180.909 207.045 180.536 207.173 180.216C207.322 179.875 207.397 179.704 207.397 179.704C206.842 180.365 206.159 180.696 205.349 180.696H199.237C198.447 180.696 197.839 180.504 197.413 180.12C196.986 179.736 196.773 179.181 196.773 178.456C196.773 176.984 197.594 176.248 199.237 176.248H210.469C211.407 176.248 212.101 176.493 212.549 176.984C212.997 177.453 213.071 178.04 212.773 178.744L205.22 196.76C205.114 197.016 204.975 197.347 204.805 197.752C204.655 198.136 204.431 198.488 204.133 198.808C203.834 199.107 203.429 199.256 202.917 199.256ZM222.384 199.256C220.677 199.256 219.205 198.883 217.968 198.136C216.752 197.368 215.824 196.141 215.184 194.456C214.544 192.771 214.224 190.541 214.224 187.768C214.224 184.973 214.544 182.733 215.184 181.048C215.824 179.363 216.752 178.147 217.968 177.4C219.184 176.632 220.656 176.248 222.384 176.248C224.133 176.248 225.605 176.632 226.8 177.4C228.016 178.147 228.944 179.363 229.583 181.048C230.224 182.733 230.544 184.973 230.544 187.768C230.544 190.541 230.224 192.771 229.583 194.456C228.944 196.141 228.016 197.368 226.8 198.136C225.584 198.883 224.112 199.256 222.384 199.256ZM222.384 195.032C223.173 195.032 223.813 194.84 224.304 194.456C224.794 194.072 225.157 193.357 225.392 192.312C225.626 191.245 225.744 189.731 225.744 187.768C225.744 185.784 225.626 184.269 225.392 183.224C225.157 182.179 224.794 181.464 224.304 181.08C223.813 180.675 223.173 180.472 222.384 180.472C221.616 180.472 220.976 180.675 220.464 181.08C219.973 181.464 219.61 182.179 219.376 183.224C219.141 184.269 219.024 185.784 219.024 187.768C219.024 189.731 219.141 191.245 219.376 192.312C219.61 193.357 219.973 194.072 220.464 194.456C220.976 194.84 221.616 195.032 222.384 195.032ZM241.79 199.256C240.083 199.256 238.611 198.883 237.374 198.136C236.158 197.368 235.23 196.141 234.59 194.456C233.95 192.771 233.63 190.541 233.63 187.768C233.63 184.973 233.95 182.733 234.59 181.048C235.23 179.363 236.158 178.147 237.374 177.4C238.59 176.632 240.062 176.248 241.79 176.248C243.539 176.248 245.011 176.632 246.206 177.4C247.422 178.147 248.35 179.363 248.99 181.048C249.63 182.733 249.95 184.973 249.95 187.768C249.95 190.541 249.63 192.771 248.99 194.456C248.35 196.141 247.422 197.368 246.206 198.136C244.99 198.883 243.518 199.256 241.79 199.256ZM241.79 195.032C242.579 195.032 243.219 194.84 243.71 194.456C244.2 194.072 244.563 193.357 244.798 192.312C245.032 191.245 245.15 189.731 245.15 187.768C245.15 185.784 245.032 184.269 244.798 183.224C244.563 182.179 244.2 181.464 243.71 181.08C243.219 180.675 242.579 180.472 241.79 180.472C241.022 180.472 240.382 180.675 239.87 181.08C239.379 181.464 239.016 182.179 238.782 183.224C238.547 184.269 238.43 185.784 238.43 187.768C238.43 189.731 238.547 191.245 238.782 192.312C239.016 193.357 239.379 194.072 239.87 194.456C240.382 194.84 241.022 195.032 241.79 195.032ZM253.347 190.648C252.686 190.648 252.153 190.488 251.747 190.168C251.363 189.827 251.171 189.325 251.171 188.664C251.171 187.981 251.363 187.48 251.747 187.16C252.153 186.84 252.686 186.68 253.347 186.68H257.507V182.552C257.507 181.869 257.667 181.336 257.987 180.952C258.329 180.568 258.83 180.376 259.491 180.376C260.174 180.376 260.675 180.568 260.995 180.952C261.315 181.336 261.475 181.869 261.475 182.552V186.68H265.603C266.286 186.68 266.819 186.84 267.203 187.16C267.587 187.48 267.779 187.981 267.779 188.664C267.779 189.325 267.587 189.827 267.203 190.168C266.819 190.488 266.286 190.648 265.603 190.648H261.475V194.808C261.475 195.469 261.315 196.003 260.995 196.408C260.675 196.792 260.174 196.984 259.491 196.984C258.83 196.984 258.329 196.792 257.987 196.408C257.667 196.003 257.507 195.469 257.507 194.808V190.648H253.347ZM92.2113 241.256C90.0779 241.256 88.4139 240.765 87.2193 239.784C86.0246 238.781 85.4273 237.491 85.4273 235.912C85.4273 234.056 86.2059 232.712 87.7633 231.88C89.3419 231.048 91.6459 230.76 94.6753 231.016C94.5259 230.035 94.2166 229.373 93.7473 229.032C93.2779 228.669 92.7126 228.488 92.0513 228.488C91.5179 228.488 91.0699 228.52 90.7073 228.584C90.3659 228.627 90.0459 228.68 89.7473 228.744C89.4486 228.808 89.0859 228.84 88.6593 228.84C88.0833 228.84 87.6246 228.744 87.2833 228.552C86.9419 228.339 86.7713 227.923 86.7713 227.304C86.7713 226.429 87.1446 225.789 87.8913 225.384C88.6593 224.957 89.8646 224.744 91.5073 224.744C94.1099 224.744 96.0406 225.491 97.2993 226.984C98.5579 228.456 99.1873 230.429 99.1873 232.904C99.1873 235.763 98.6646 237.875 97.6193 239.24C96.5953 240.584 94.7926 241.256 92.2113 241.256ZM90.0353 235.912C90.0353 237.128 90.8566 237.736 92.4993 237.736C93.0326 237.736 93.4486 237.64 93.7473 237.448C94.0459 237.256 94.2593 236.872 94.3873 236.296C94.5366 235.72 94.6433 234.856 94.7073 233.704C94.6006 233.811 94.4619 233.885 94.2913 233.928C94.1206 233.971 93.9499 233.992 93.7793 233.992C92.3713 233.992 91.3899 234.131 90.8353 234.408C90.3019 234.664 90.0353 235.165 90.0353 235.912ZM109.091 241.256C107.107 241.256 105.635 240.787 104.675 239.848C103.736 238.909 103.267 237.469 103.267 235.528V228.872H102.435C100.984 228.872 100.259 228.221 100.259 226.92C100.259 225.64 100.984 225 102.435 225H103.267V221.544C103.267 220.84 103.48 220.264 103.907 219.816C104.355 219.368 104.931 219.144 105.635 219.144C106.318 219.144 106.862 219.357 107.267 219.784C107.672 220.189 107.875 220.755 107.875 221.48V223.048C107.875 223.837 107.747 224.488 107.491 225H110.531C111.982 225 112.707 225.64 112.707 226.92C112.707 228.221 111.982 228.872 110.531 228.872H107.875V235.624C107.875 236.264 107.95 236.723 108.099 237C108.248 237.256 108.494 237.384 108.835 237.384C109.283 237.384 109.614 237.352 109.827 237.288C110.062 237.203 110.35 237.16 110.691 237.16C111.267 237.16 111.726 237.267 112.067 237.48C112.408 237.672 112.579 238.077 112.579 238.696C112.579 239.571 112.302 240.221 111.747 240.648C111.192 241.053 110.307 241.256 109.091 241.256ZM122.31 241.256C120.326 241.256 118.854 240.787 117.894 239.848C116.955 238.909 116.486 237.469 116.486 235.528V228.872H115.654C114.203 228.872 113.478 228.221 113.478 226.92C113.478 225.64 114.203 225 115.654 225H116.486V221.544C116.486 220.84 116.699 220.264 117.126 219.816C117.574 219.368 118.15 219.144 118.854 219.144C119.536 219.144 120.08 219.357 120.486 219.784C120.891 220.189 121.094 220.755 121.094 221.48V223.048C121.094 223.837 120.966 224.488 120.71 225H123.75C125.2 225 125.926 225.64 125.926 226.92C125.926 228.221 125.2 228.872 123.75 228.872H121.094V235.624C121.094 236.264 121.168 236.723 121.318 237C121.467 237.256 121.712 237.384 122.054 237.384C122.502 237.384 122.832 237.352 123.046 237.288C123.28 237.203 123.568 237.16 123.91 237.16C124.486 237.16 124.944 237.267 125.286 237.48C125.627 237.672 125.798 238.077 125.798 238.696C125.798 239.571 125.52 240.221 124.966 240.648C124.411 241.053 123.526 241.256 122.31 241.256ZM136.346 241.256C134.213 241.256 132.538 240.904 131.322 240.2C130.128 239.496 129.274 238.525 128.762 237.288C128.272 236.051 128.026 234.632 128.026 233.032C128.026 230.088 128.677 227.976 129.978 226.696C131.28 225.395 133.029 224.744 135.226 224.744C136.549 224.744 137.722 224.968 138.746 225.416C139.77 225.864 140.57 226.504 141.146 227.336C141.722 228.147 142.01 229.139 142.01 230.312C142.01 233.725 139.578 235.432 134.714 235.432H132.858C133.029 236.093 133.306 236.616 133.69 237C134.096 237.363 134.8 237.544 135.802 237.544C136.357 237.544 136.805 237.512 137.146 237.448C137.488 237.384 137.808 237.32 138.106 237.256C138.426 237.192 138.789 237.16 139.194 237.16C139.77 237.16 140.229 237.267 140.57 237.48C140.912 237.672 141.082 238.077 141.082 238.696C141.082 239.571 140.698 240.221 139.93 240.648C139.184 241.053 137.989 241.256 136.346 241.256ZM132.634 233.064C132.805 232.829 132.997 232.68 133.21 232.616C133.424 232.531 133.754 232.488 134.202 232.488C135.461 232.488 136.325 232.371 136.794 232.136C137.285 231.88 137.53 231.432 137.53 230.792C137.53 229.981 137.306 229.363 136.858 228.936C136.41 228.488 135.845 228.264 135.162 228.264C134.373 228.264 133.754 228.595 133.306 229.256C132.858 229.917 132.634 231.187 132.634 233.064ZM147.1 241.256C145.564 241.256 144.796 240.531 144.796 239.08V231.4C144.796 229.352 145.446 227.731 146.748 226.536C148.07 225.341 149.809 224.744 151.964 224.744C154.118 224.744 155.846 225.341 157.148 226.536C158.47 227.731 159.132 229.352 159.132 231.4V239.08C159.132 240.531 158.364 241.256 156.828 241.256C155.292 241.256 154.524 240.531 154.524 239.08V231.656C154.524 230.653 154.3 229.896 153.852 229.384C153.404 228.851 152.774 228.584 151.964 228.584C151.153 228.584 150.524 228.851 150.076 229.384C149.628 229.896 149.404 230.653 149.404 231.656V239.08C149.404 240.531 148.636 241.256 147.1 241.256ZM169.798 241.256C167.451 241.256 165.595 240.509 164.23 239.016C162.886 237.523 162.214 235.336 162.214 232.456C162.214 230.536 162.491 229.011 163.046 227.88C163.6 226.749 164.368 225.949 165.35 225.48C166.352 224.989 167.483 224.744 168.742 224.744C169.872 224.744 170.79 224.883 171.494 225.16C172.198 225.437 172.752 225.907 173.158 226.568C173.008 226.12 172.891 225.704 172.806 225.32C172.742 224.915 172.688 224.445 172.646 223.912C172.624 223.379 172.614 222.696 172.614 221.864V219.112C172.614 217.448 173.328 216.616 174.758 216.616C176.315 216.616 177.094 217.448 177.094 219.112V232.648C177.094 235.528 176.454 237.683 175.174 239.112C173.894 240.541 172.102 241.256 169.798 241.256ZM169.574 237.416C170.47 237.416 171.163 237.096 171.654 236.456C172.166 235.816 172.422 234.621 172.422 232.872C172.422 231.699 172.304 230.813 172.07 230.216C171.856 229.597 171.536 229.171 171.11 228.936C170.683 228.701 170.171 228.584 169.574 228.584C168.976 228.584 168.464 228.701 168.038 228.936C167.611 229.171 167.28 229.597 167.046 230.216C166.832 230.813 166.726 231.699 166.726 232.872C166.726 234.621 166.971 235.816 167.462 236.456C167.974 237.096 168.678 237.416 169.574 237.416ZM188.44 241.256C186.307 241.256 184.632 240.904 183.416 240.2C182.221 239.496 181.368 238.525 180.856 237.288C180.365 236.051 180.12 234.632 180.12 233.032C180.12 230.088 180.771 227.976 182.072 226.696C183.373 225.395 185.123 224.744 187.32 224.744C188.643 224.744 189.816 224.968 190.84 225.416C191.864 225.864 192.664 226.504 193.24 227.336C193.816 228.147 194.104 229.139 194.104 230.312C194.104 233.725 191.672 235.432 186.808 235.432H184.952C185.123 236.093 185.4 236.616 185.784 237C186.189 237.363 186.893 237.544 187.896 237.544C188.451 237.544 188.899 237.512 189.24 237.448C189.581 237.384 189.901 237.32 190.2 237.256C190.52 237.192 190.883 237.16 191.288 237.16C191.864 237.16 192.323 237.267 192.664 237.48C193.005 237.672 193.176 238.077 193.176 238.696C193.176 239.571 192.792 240.221 192.024 240.648C191.277 241.053 190.083 241.256 188.44 241.256ZM184.728 233.064C184.899 232.829 185.091 232.68 185.304 232.616C185.517 232.531 185.848 232.488 186.296 232.488C187.555 232.488 188.419 232.371 188.888 232.136C189.379 231.88 189.624 231.432 189.624 230.792C189.624 229.981 189.4 229.363 188.952 228.936C188.504 228.488 187.939 228.264 187.256 228.264C186.467 228.264 185.848 228.595 185.4 229.256C184.952 229.917 184.728 231.187 184.728 233.064ZM204.44 241.256C202.307 241.256 200.632 240.904 199.416 240.2C198.221 239.496 197.368 238.525 196.856 237.288C196.365 236.051 196.12 234.632 196.12 233.032C196.12 230.088 196.771 227.976 198.072 226.696C199.373 225.395 201.123 224.744 203.32 224.744C204.643 224.744 205.816 224.968 206.84 225.416C207.864 225.864 208.664 226.504 209.24 227.336C209.816 228.147 210.104 229.139 210.104 230.312C210.104 233.725 207.672 235.432 202.808 235.432H200.952C201.123 236.093 201.4 236.616 201.784 237C202.189 237.363 202.893 237.544 203.896 237.544C204.451 237.544 204.899 237.512 205.24 237.448C205.581 237.384 205.901 237.32 206.2 237.256C206.52 237.192 206.883 237.16 207.288 237.16C207.864 237.16 208.323 237.267 208.664 237.48C209.005 237.672 209.176 238.077 209.176 238.696C209.176 239.571 208.792 240.221 208.024 240.648C207.277 241.053 206.083 241.256 204.44 241.256ZM200.728 233.064C200.899 232.829 201.091 232.68 201.304 232.616C201.517 232.531 201.848 232.488 202.296 232.488C203.555 232.488 204.419 232.371 204.888 232.136C205.379 231.88 205.624 231.432 205.624 230.792C205.624 229.981 205.4 229.363 204.952 228.936C204.504 228.488 203.939 228.264 203.256 228.264C202.467 228.264 201.848 228.595 201.4 229.256C200.952 229.917 200.728 231.187 200.728 233.064ZM218.451 241.256C214.44 241.256 212.435 240.371 212.435 238.6C212.435 238.045 212.584 237.608 212.883 237.288C213.181 236.968 213.576 236.808 214.067 236.808C214.28 236.808 214.483 236.84 214.675 236.904C214.888 236.947 215.293 237.064 215.891 237.256C216.147 237.341 216.488 237.427 216.915 237.512C217.341 237.597 217.757 237.64 218.163 237.64C218.931 237.64 219.475 237.544 219.795 237.352C220.115 237.16 220.275 236.84 220.275 236.392C220.275 236.029 220.189 235.752 220.019 235.56C219.848 235.347 219.485 235.144 218.931 234.952C218.376 234.76 217.512 234.493 216.339 234.152C215.272 233.853 214.408 233.32 213.747 232.552C213.107 231.763 212.787 230.792 212.787 229.64C212.787 228.019 213.373 226.781 214.547 225.928C215.72 225.075 217.331 224.648 219.379 224.648C220.915 224.648 222.12 224.861 222.995 225.288C223.869 225.715 224.307 226.333 224.307 227.144C224.307 227.656 224.157 228.083 223.859 228.424C223.56 228.765 223.155 228.936 222.643 228.936C222.429 228.936 222.173 228.904 221.875 228.84C221.597 228.776 221.256 228.691 220.851 228.584C220.552 228.477 220.232 228.392 219.891 228.328C219.571 228.264 219.229 228.232 218.867 228.232C217.843 228.232 217.331 228.595 217.331 229.32C217.331 229.747 217.533 230.109 217.939 230.408C218.344 230.685 219.123 230.995 220.275 231.336C221.853 231.805 223.016 232.435 223.763 233.224C224.509 233.992 224.883 235.016 224.883 236.296C224.883 237.789 224.307 238.995 223.155 239.912C222.024 240.808 220.456 241.256 218.451 241.256ZM229.011 241.256C228.243 241.256 227.624 241.021 227.155 240.552C226.707 240.083 226.483 239.485 226.483 238.76C226.483 238.013 226.707 237.405 227.155 236.936C227.624 236.467 228.243 236.232 229.011 236.232C229.757 236.232 230.365 236.467 230.835 236.936C231.304 237.405 231.539 238.013 231.539 238.76C231.539 239.485 231.304 240.083 230.835 240.552C230.365 241.021 229.757 241.256 229.011 241.256Z" fill="white"/>
</svg>
