<svg width="316" height="344" viewBox="0 0 316 344" fill="none" xmlns="http://www.w3.org/2000/svg">
<path d="M215.419 341.29L50.8262 317.374C42.7061 316.193 37.2189 307.331 38.6214 297.693L96.2497 248.335L187.207 261.554L232.717 325.904C231.314 335.554 223.526 342.484 215.419 341.302V341.29Z" fill="#D1CC9D" stroke="#C1C09D" stroke-width="4" stroke-miterlimit="10"/>
<path d="M311.802 181.831C308.738 202.928 192.448 312.389 178.693 314.297C164.409 316.291 149.596 316.316 134.599 314.137C121.09 312.18 108.245 308.537 96.225 303.478C80.6122 296.893 -0.330578 155.306 2.35152 136.868C8.26937 96.0767 29.4309 61.2677 59.217 37.3642C91.8574 11.1714 134.869 -1.93739 179.555 4.5616C181.769 4.88163 183.959 5.2509 186.137 5.65709C268.027 21.0922 323.896 98.563 311.802 181.831Z" fill="#D1CC9D" stroke="#C1C09D" stroke-width="4" stroke-miterlimit="10"/>
<path opacity="0.5" d="M105.846 303.946L16.8079 141.323" stroke="#C1C09D" stroke-width="2" stroke-miterlimit="10"/>
<path opacity="0.5" d="M112.121 307.983L57.8022 93.9224" stroke="#C1C09D" stroke-width="2" stroke-miterlimit="10"/>
<path opacity="0.5" d="M140.16 312.635L185.62 42.2383" stroke="#C1C09D" stroke-width="2" stroke-miterlimit="10"/>
<path opacity="0.5" d="M165.48 312.648L279.445 119.032" stroke="#C1C09D" stroke-width="2" stroke-miterlimit="10"/>
<path opacity="0.5" d="M178.091 313.177L298.933 177.646" stroke="#C1C09D" stroke-width="2" stroke-miterlimit="10"/>
<path opacity="0.5" d="M126.663 309.817L87.8467 64.9111" stroke="#C1C09D" stroke-width="2" stroke-miterlimit="10"/>
<path opacity="0.5" d="M156.412 313.546L246.533 72.6406" stroke="#C1C09D" stroke-width="2" stroke-miterlimit="10"/>
<path opacity="0.5" d="M129.616 311.319L138.216 58.2275" stroke="#C1C09D" stroke-width="2" stroke-miterlimit="10"/>
<path opacity="0.5" d="M150.654 314.236L225.052 52.873" stroke="#C1C09D" stroke-width="2" stroke-miterlimit="10"/>
<path d="M129.44 74C128.693 74 128.12 73.8267 127.72 73.48C127.32 73.1333 127.04 72.6933 126.88 72.16C126.747 71.6267 126.667 71.0533 126.64 70.44C126.64 69.8267 126.64 69.2533 126.64 68.72C126.64 66.3467 127.147 64.4667 128.16 63.08C129.173 61.6933 130.933 60.6267 133.44 59.88C134.8 59.4267 135.867 59.0133 136.64 58.64C137.44 58.24 138.013 57.7067 138.36 57.04C138.707 56.3467 138.88 55.3733 138.88 54.12C138.88 53.24 138.627 52.48 138.12 51.84C137.613 51.1733 136.733 50.84 135.48 50.84C134.733 50.84 133.947 50.8933 133.12 51C132.32 51.1067 131.56 51.16 130.84 51.16C129.773 51.16 128.987 50.96 128.48 50.56C128 50.16 127.76 49.5467 127.76 48.72C127.76 47.6267 128.32 46.8667 129.44 46.44C130.853 45.8533 132.64 45.56 134.8 45.56C137.867 45.56 140.267 46.32 142 47.84C143.733 49.3333 144.6 51.4133 144.6 54.08C144.6 56.0533 144.333 57.7067 143.8 59.04C143.267 60.3733 142.387 61.48 141.16 62.36C139.933 63.24 138.28 63.9867 136.2 64.6C134.733 65.0267 133.72 65.48 133.16 65.96C132.627 66.4133 132.36 67.0933 132.36 68V69.24C132.893 68.7067 133.6 68.44 134.48 68.44H141.64C142.627 68.44 143.387 68.68 143.92 69.16C144.453 69.64 144.72 70.3333 144.72 71.24C144.72 73.08 143.693 74 141.64 74H129.44ZM158.62 74.32C156.487 74.32 154.647 73.8533 153.1 72.92C151.58 71.96 150.42 70.4267 149.62 68.32C148.82 66.2133 148.42 63.4267 148.42 59.96C148.42 56.4667 148.82 53.6667 149.62 51.56C150.42 49.4533 151.58 47.9333 153.1 47C154.62 46.04 156.46 45.56 158.62 45.56C160.807 45.56 162.647 46.04 164.14 47C165.66 47.9333 166.82 49.4533 167.62 51.56C168.42 53.6667 168.82 56.4667 168.82 59.96C168.82 63.4267 168.42 66.2133 167.62 68.32C166.82 70.4267 165.66 71.96 164.14 72.92C162.62 73.8533 160.78 74.32 158.62 74.32ZM158.62 69.04C159.607 69.04 160.407 68.8 161.02 68.32C161.633 67.84 162.087 66.9467 162.38 65.64C162.673 64.3067 162.82 62.4133 162.82 59.96C162.82 57.48 162.673 55.5867 162.38 54.28C162.087 52.9733 161.633 52.08 161.02 51.6C160.407 51.0933 159.607 50.84 158.62 50.84C157.66 50.84 156.86 51.0933 156.22 51.6C155.607 52.08 155.153 52.9733 154.86 54.28C154.567 55.5867 154.42 57.48 154.42 59.96C154.42 62.4133 154.567 64.3067 154.86 65.64C155.153 66.9467 155.607 67.84 156.22 68.32C156.86 68.8 157.66 69.04 158.62 69.04ZM174.831 74C174.084 74 173.511 73.8267 173.111 73.48C172.711 73.1333 172.431 72.6933 172.271 72.16C172.137 71.6267 172.057 71.0533 172.031 70.44C172.031 69.8267 172.031 69.2533 172.031 68.72C172.031 66.3467 172.537 64.4667 173.551 63.08C174.564 61.6933 176.324 60.6267 178.831 59.88C180.191 59.4267 181.257 59.0133 182.031 58.64C182.831 58.24 183.404 57.7067 183.751 57.04C184.097 56.3467 184.271 55.3733 184.271 54.12C184.271 53.24 184.017 52.48 183.511 51.84C183.004 51.1733 182.124 50.84 180.871 50.84C180.124 50.84 179.337 50.8933 178.511 51C177.711 51.1067 176.951 51.16 176.231 51.16C175.164 51.16 174.377 50.96 173.871 50.56C173.391 50.16 173.151 49.5467 173.151 48.72C173.151 47.6267 173.711 46.8667 174.831 46.44C176.244 45.8533 178.031 45.56 180.191 45.56C183.257 45.56 185.657 46.32 187.391 47.84C189.124 49.3333 189.991 51.4133 189.991 54.08C189.991 56.0533 189.724 57.7067 189.191 59.04C188.657 60.3733 187.777 61.48 186.551 62.36C185.324 63.24 183.671 63.9867 181.591 64.6C180.124 65.0267 179.111 65.48 178.551 65.96C178.017 66.4133 177.751 67.0933 177.751 68V69.24C178.284 68.7067 178.991 68.44 179.871 68.44H187.031C188.017 68.44 188.777 68.68 189.311 69.16C189.844 69.64 190.111 70.3333 190.111 71.24C190.111 73.08 189.084 74 187.031 74H174.831ZM199.504 74.32C197.53 74.32 196.544 73.4267 196.544 71.64V51.28H194.304C193.477 51.28 192.85 51.0133 192.424 50.48C192.024 49.92 191.824 49.3067 191.824 48.64C191.824 47.9733 192.024 47.3733 192.424 46.84C192.85 46.28 193.477 46 194.304 46H199.384C201.33 46 202.304 46.8933 202.304 48.68V71.64C202.304 72.5467 202.077 73.2267 201.624 73.68C201.197 74.1067 200.49 74.32 199.504 74.32Z" fill="white"/>
<path d="M35.7423 124.896C35.7423 127.435 36.0516 129.259 36.6703 130.368C37.2889 131.456 38.2063 132 39.4223 132C40.1903 132 40.8623 131.947 41.4383 131.84C42.0143 131.712 42.5369 131.648 43.0063 131.648C43.8596 131.648 44.4783 131.829 44.8623 132.192C45.2463 132.533 45.4383 132.981 45.4383 133.536C45.4383 134.261 45.1716 134.816 44.6383 135.2C44.1263 135.584 43.4649 135.851 42.6543 136C41.8649 136.149 41.0543 136.224 40.2223 136.224C37.9183 136.224 36.0836 135.797 34.7183 134.944C33.3743 134.091 32.4036 132.832 31.8063 131.168C31.2303 129.483 30.9423 127.392 30.9423 124.896C30.9423 122.4 31.2303 120.288 31.8063 118.56C32.4036 116.811 33.3743 115.488 34.7183 114.592C36.0836 113.696 37.9183 113.248 40.2223 113.248C41.0543 113.248 41.8649 113.323 42.6543 113.472C43.4649 113.621 44.1263 113.888 44.6383 114.272C45.1716 114.656 45.4383 115.211 45.4383 115.936C45.4383 116.469 45.2463 116.917 44.8623 117.28C44.4783 117.643 43.8596 117.824 43.0063 117.824C42.5369 117.824 42.0143 117.771 41.4383 117.664C40.8623 117.536 40.1903 117.472 39.4223 117.472C37.9289 117.472 36.9369 118.08 36.4463 119.296C35.9769 120.491 35.7423 122.357 35.7423 124.896ZM49.1623 136.256C47.6263 136.256 46.8583 135.531 46.8583 134.08V121.952C46.8583 120.48 47.6263 119.744 49.1623 119.744C49.9303 119.744 50.4849 119.915 50.8263 120.256C51.1676 120.576 51.3383 121.109 51.3383 121.856C51.7223 121.152 52.2663 120.629 52.9703 120.288C53.6956 119.925 54.5383 119.744 55.4983 119.744C57.3329 119.744 58.2503 120.544 58.2503 122.144C58.2503 122.741 58.0263 123.189 57.5783 123.488C57.1303 123.787 56.3943 123.936 55.3703 123.936C54.3676 123.936 53.5783 124.032 53.0023 124.224C52.4263 124.395 52.0209 124.725 51.7863 125.216C51.5729 125.685 51.4663 126.368 51.4663 127.264V134.08C51.4663 135.531 50.6983 136.256 49.1623 136.256ZM66.3053 136.256C64.8973 136.256 63.6599 135.968 62.5933 135.392C61.5266 134.816 60.6946 134.005 60.0973 132.96C59.5213 131.915 59.2333 130.699 59.2333 129.312V121.824C59.2333 120.373 60.0013 119.648 61.5373 119.648C63.0733 119.648 63.8413 120.373 63.8413 121.824V129.248C63.8413 130.251 64.0546 131.029 64.4813 131.584C64.9079 132.139 65.5159 132.416 66.3053 132.416C67.0946 132.416 67.7026 132.139 68.1293 131.584C68.5559 131.029 68.7693 130.251 68.7693 129.248V121.824C68.7693 120.373 69.5373 119.648 71.0733 119.648C72.6093 119.648 73.3773 120.373 73.3773 121.824V129.312C73.3773 130.699 73.0786 131.915 72.4813 132.96C71.9053 134.005 71.0839 134.816 70.0173 135.392C68.9719 135.968 67.7346 136.256 66.3053 136.256ZM78.299 136C77.7657 136 77.3177 135.787 76.955 135.36C76.6137 134.933 76.443 134.411 76.443 133.792C76.443 133.387 76.539 133.024 76.731 132.704L81.659 124.992C81.8937 124.629 82.0857 124.373 82.235 124.224C82.3843 124.075 82.5443 123.968 82.715 123.904H78.235C76.8057 123.904 76.091 123.253 76.091 121.952C76.091 120.651 76.8057 120 78.235 120H86.139C86.715 120 87.195 120.213 87.579 120.64C87.963 121.067 88.155 121.589 88.155 122.208C88.155 122.613 88.059 122.976 87.867 123.296L82.651 131.072C82.267 131.669 81.8297 132.011 81.339 132.096H86.779C88.2083 132.096 88.923 132.768 88.923 134.112C88.923 135.371 88.2083 136 86.779 136H78.299ZM94.0783 136.256C92.4996 136.256 91.7103 135.541 91.7103 134.112V115.392C91.7103 114.645 91.8916 114.101 92.2543 113.76C92.6169 113.419 93.1929 113.248 93.9823 113.248C95.5396 113.248 96.3183 113.963 96.3183 115.392V118.592C96.3183 121.237 96.2436 122.816 96.0943 123.328C96.6489 122.773 97.2463 122.389 97.8863 122.176C98.5263 121.963 99.3689 121.856 100.414 121.856H103.55V115.392C103.55 114.645 103.732 114.101 104.094 113.76C104.457 113.419 105.033 113.248 105.822 113.248C107.38 113.248 108.158 113.963 108.158 115.392V134.112C108.158 134.837 107.977 135.381 107.614 135.744C107.273 136.085 106.708 136.256 105.918 136.256C104.34 136.256 103.55 135.541 103.55 134.112V124.64C103.422 125.024 103.006 125.344 102.302 125.6C101.598 125.835 100.777 125.952 99.8383 125.952C98.4943 125.952 97.5663 126.229 97.0543 126.784C96.5636 127.317 96.3183 128.309 96.3183 129.76V134.112C96.3183 134.837 96.1369 135.381 95.7743 135.744C95.4329 136.085 94.8676 136.256 94.0783 136.256ZM117.868 136.256C115.734 136.256 114.07 135.765 112.876 134.784C111.681 133.781 111.084 132.491 111.084 130.912C111.084 129.056 111.862 127.712 113.42 126.88C114.998 126.048 117.302 125.76 120.332 126.016C120.182 125.035 119.873 124.373 119.404 124.032C118.934 123.669 118.369 123.488 117.708 123.488C117.174 123.488 116.726 123.52 116.364 123.584C116.022 123.627 115.702 123.68 115.404 123.744C115.105 123.808 114.742 123.84 114.316 123.84C113.74 123.84 113.281 123.744 112.94 123.552C112.598 123.339 112.428 122.923 112.428 122.304C112.428 121.429 112.801 120.789 113.548 120.384C114.316 119.957 115.521 119.744 117.164 119.744C119.766 119.744 121.697 120.491 122.956 121.984C124.214 123.456 124.844 125.429 124.844 127.904C124.844 130.763 124.321 132.875 123.276 134.24C122.252 135.584 120.449 136.256 117.868 136.256ZM115.692 130.912C115.692 132.128 116.513 132.736 118.156 132.736C118.689 132.736 119.105 132.64 119.404 132.448C119.702 132.256 119.916 131.872 120.044 131.296C120.193 130.72 120.3 129.856 120.364 128.704C120.257 128.811 120.118 128.885 119.948 128.928C119.777 128.971 119.606 128.992 119.436 128.992C118.028 128.992 117.046 129.131 116.492 129.408C115.958 129.664 115.692 130.165 115.692 130.912ZM134.767 136.256C132.165 136.256 130.234 135.509 128.975 134.016C127.717 132.501 127.087 130.507 127.087 128.032C127.087 125.557 127.717 123.563 128.975 122.048C130.234 120.512 132.165 119.744 134.767 119.744C136.41 119.744 137.605 119.915 138.351 120.256C139.119 120.597 139.503 121.205 139.503 122.08C139.503 122.699 139.333 123.147 138.991 123.424C138.65 123.701 138.191 123.84 137.615 123.84C137.21 123.84 136.89 123.808 136.655 123.744C136.421 123.68 136.165 123.627 135.887 123.584C135.631 123.52 135.226 123.488 134.671 123.488C133.925 123.488 133.327 123.712 132.879 124.16C132.453 124.608 132.143 125.184 131.951 125.888C131.781 126.571 131.695 127.285 131.695 128.032C131.695 128.757 131.759 129.472 131.887 130.176C132.037 130.859 132.325 131.424 132.751 131.872C133.178 132.299 133.829 132.512 134.703 132.512C135.514 132.512 136.111 132.459 136.495 132.352C136.879 132.224 137.253 132.16 137.615 132.16C138.191 132.16 138.65 132.267 138.991 132.48C139.333 132.672 139.503 133.077 139.503 133.696C139.503 134.571 139.119 135.221 138.351 135.648C137.605 136.053 136.41 136.256 134.767 136.256ZM144.974 136.256C144.142 136.256 143.545 136.032 143.182 135.584C142.841 135.136 142.67 134.528 142.67 133.76V114.112C142.67 113.344 142.841 112.736 143.182 112.288C143.545 111.84 144.142 111.616 144.974 111.616C145.806 111.616 146.393 111.84 146.734 112.288C147.097 112.736 147.278 113.344 147.278 114.112V126.016C148.409 125.333 149.411 124.565 150.286 123.712C151.161 122.837 151.758 122.005 152.078 121.216C152.377 120.491 152.803 120 153.358 119.744C153.913 119.488 154.521 119.52 155.182 119.84C156.099 120.288 156.526 120.971 156.462 121.888C156.441 122.656 156.089 123.52 155.406 124.48C154.745 125.419 153.923 126.229 152.942 126.912C154.179 127.339 155.171 128.117 155.918 129.248C156.686 130.357 157.07 131.968 157.07 134.08C157.07 135.531 156.313 136.256 154.798 136.256C153.241 136.256 152.462 135.531 152.462 134.08C152.462 132.523 152.217 131.381 151.726 130.656C151.235 129.931 150.585 129.568 149.774 129.568C149.027 129.568 148.419 129.845 147.95 130.4C147.502 130.955 147.278 131.915 147.278 133.28C147.278 134.517 147.097 135.328 146.734 135.712C146.371 136.075 145.785 136.256 144.974 136.256ZM165.576 136.256C161.565 136.256 159.56 135.371 159.56 133.6C159.56 133.045 159.709 132.608 160.008 132.288C160.306 131.968 160.701 131.808 161.192 131.808C161.405 131.808 161.608 131.84 161.8 131.904C162.013 131.947 162.418 132.064 163.016 132.256C163.272 132.341 163.613 132.427 164.04 132.512C164.466 132.597 164.882 132.64 165.288 132.64C166.056 132.64 166.6 132.544 166.92 132.352C167.24 132.16 167.4 131.84 167.4 131.392C167.4 131.029 167.314 130.752 167.144 130.56C166.973 130.347 166.61 130.144 166.056 129.952C165.501 129.76 164.637 129.493 163.464 129.152C162.397 128.853 161.533 128.32 160.872 127.552C160.232 126.763 159.912 125.792 159.912 124.64C159.912 123.019 160.498 121.781 161.672 120.928C162.845 120.075 164.456 119.648 166.504 119.648C168.04 119.648 169.245 119.861 170.12 120.288C170.994 120.715 171.432 121.333 171.432 122.144C171.432 122.656 171.282 123.083 170.984 123.424C170.685 123.765 170.28 123.936 169.768 123.936C169.554 123.936 169.298 123.904 169 123.84C168.722 123.776 168.381 123.691 167.976 123.584C167.677 123.477 167.357 123.392 167.016 123.328C166.696 123.264 166.354 123.232 165.992 123.232C164.968 123.232 164.456 123.595 164.456 124.32C164.456 124.747 164.658 125.109 165.064 125.408C165.469 125.685 166.248 125.995 167.4 126.336C168.978 126.805 170.141 127.435 170.888 128.224C171.634 128.992 172.008 130.016 172.008 131.296C172.008 132.789 171.432 133.995 170.28 134.912C169.149 135.808 167.581 136.256 165.576 136.256ZM186.778 134.112C186.778 135.541 186.031 136.256 184.538 136.256C183.813 136.256 183.237 136.075 182.81 135.712C182.383 135.349 182.17 134.816 182.17 134.112V114.112C182.17 112.448 182.949 111.616 184.506 111.616C186.042 111.616 186.81 112.448 186.81 114.112V117.536C186.81 118.133 186.746 118.709 186.618 119.264C186.49 119.819 186.277 120.395 185.978 120.992C186.341 120.544 186.821 120.224 187.418 120.032C188.015 119.84 188.709 119.744 189.498 119.744C190.906 119.744 192.133 120.021 193.178 120.576C194.223 121.131 195.034 121.909 195.61 122.912C196.207 123.893 196.506 125.067 196.506 126.432V134.112C196.506 135.541 195.759 136.256 194.266 136.256C193.541 136.256 192.965 136.075 192.538 135.712C192.111 135.349 191.898 134.816 191.898 134.112V126.624C191.898 125.621 191.663 124.864 191.194 124.352C190.746 123.84 190.117 123.584 189.306 123.584C188.517 123.584 187.898 123.851 187.45 124.384C187.002 124.896 186.778 125.643 186.778 126.624V134.112ZM205.711 136.256C203.578 136.256 201.914 135.765 200.719 134.784C199.525 133.781 198.927 132.491 198.927 130.912C198.927 129.056 199.706 127.712 201.263 126.88C202.842 126.048 205.146 125.76 208.175 126.016C208.026 125.035 207.717 124.373 207.247 124.032C206.778 123.669 206.213 123.488 205.551 123.488C205.018 123.488 204.57 123.52 204.207 123.584C203.866 123.627 203.546 123.68 203.247 123.744C202.949 123.808 202.586 123.84 202.159 123.84C201.583 123.84 201.125 123.744 200.783 123.552C200.442 123.339 200.271 122.923 200.271 122.304C200.271 121.429 200.645 120.789 201.391 120.384C202.159 119.957 203.365 119.744 205.007 119.744C207.61 119.744 209.541 120.491 210.799 121.984C212.058 123.456 212.687 125.429 212.687 127.904C212.687 130.763 212.165 132.875 211.119 134.24C210.095 135.584 208.293 136.256 205.711 136.256ZM203.535 130.912C203.535 132.128 204.357 132.736 205.999 132.736C206.533 132.736 206.949 132.64 207.247 132.448C207.546 132.256 207.759 131.872 207.887 131.296C208.037 130.72 208.143 129.856 208.207 128.704C208.101 128.811 207.962 128.885 207.791 128.928C207.621 128.971 207.45 128.992 207.279 128.992C205.871 128.992 204.89 129.131 204.335 129.408C203.802 129.664 203.535 130.165 203.535 130.912ZM221.138 136.256C217.128 136.256 215.122 135.371 215.122 133.6C215.122 133.045 215.272 132.608 215.57 132.288C215.869 131.968 216.264 131.808 216.754 131.808C216.968 131.808 217.17 131.84 217.362 131.904C217.576 131.947 217.981 132.064 218.578 132.256C218.834 132.341 219.176 132.427 219.602 132.512C220.029 132.597 220.445 132.64 220.85 132.64C221.618 132.64 222.162 132.544 222.482 132.352C222.802 132.16 222.962 131.84 222.962 131.392C222.962 131.029 222.877 130.752 222.706 130.56C222.536 130.347 222.173 130.144 221.618 129.952C221.064 129.76 220.2 129.493 219.026 129.152C217.96 128.853 217.096 128.32 216.434 127.552C215.794 126.763 215.474 125.792 215.474 124.64C215.474 123.019 216.061 121.781 217.234 120.928C218.408 120.075 220.018 119.648 222.066 119.648C223.602 119.648 224.808 119.861 225.682 120.288C226.557 120.715 226.994 121.333 226.994 122.144C226.994 122.656 226.845 123.083 226.546 123.424C226.248 123.765 225.842 123.936 225.33 123.936C225.117 123.936 224.861 123.904 224.562 123.84C224.285 123.776 223.944 123.691 223.538 123.584C223.24 123.477 222.92 123.392 222.578 123.328C222.258 123.264 221.917 123.232 221.554 123.232C220.53 123.232 220.018 123.595 220.018 124.32C220.018 124.747 220.221 125.109 220.626 125.408C221.032 125.685 221.81 125.995 222.962 126.336C224.541 126.805 225.704 127.435 226.45 128.224C227.197 128.992 227.57 130.016 227.57 131.296C227.57 132.789 226.994 133.995 225.842 134.912C224.712 135.808 223.144 136.256 221.138 136.256ZM240.133 116.992C239.343 116.992 238.682 116.736 238.149 116.224C237.615 115.712 237.349 115.083 237.349 114.336C237.349 113.547 237.615 112.896 238.149 112.384C238.682 111.872 239.343 111.616 240.133 111.616C240.943 111.616 241.605 111.872 242.117 112.384C242.65 112.896 242.917 113.547 242.917 114.336C242.917 115.083 242.65 115.712 242.117 116.224C241.605 116.736 240.943 116.992 240.133 116.992ZM242.437 134.112C242.437 135.541 241.69 136.256 240.197 136.256C239.471 136.256 238.895 136.085 238.469 135.744C238.042 135.381 237.829 134.837 237.829 134.112V121.92C237.829 121.237 237.999 120.704 238.341 120.32C238.703 119.936 239.301 119.744 240.133 119.744C240.965 119.744 241.551 119.936 241.893 120.32C242.255 120.704 242.437 121.237 242.437 121.92V134.112ZM252.841 136.256C250.857 136.256 249.385 135.787 248.425 134.848C247.486 133.909 247.017 132.469 247.017 130.528V123.872H246.185C244.734 123.872 244.009 123.221 244.009 121.92C244.009 120.64 244.734 120 246.185 120H247.017V116.544C247.017 115.84 247.23 115.264 247.657 114.816C248.105 114.368 248.681 114.144 249.385 114.144C250.068 114.144 250.612 114.357 251.017 114.784C251.422 115.189 251.625 115.755 251.625 116.48V118.048C251.625 118.837 251.497 119.488 251.241 120H254.281C255.732 120 256.457 120.64 256.457 121.92C256.457 123.221 255.732 123.872 254.281 123.872H251.625V130.624C251.625 131.264 251.7 131.723 251.849 132C251.998 132.256 252.244 132.384 252.585 132.384C253.033 132.384 253.364 132.352 253.577 132.288C253.812 132.203 254.1 132.16 254.441 132.16C255.017 132.16 255.476 132.267 255.817 132.48C256.158 132.672 256.329 133.077 256.329 133.696C256.329 134.571 256.052 135.221 255.497 135.648C254.942 136.053 254.057 136.256 252.841 136.256ZM264.92 136.256C260.909 136.256 258.904 135.371 258.904 133.6C258.904 133.045 259.053 132.608 259.352 132.288C259.65 131.968 260.045 131.808 260.536 131.808C260.749 131.808 260.952 131.84 261.144 131.904C261.357 131.947 261.762 132.064 262.36 132.256C262.616 132.341 262.957 132.427 263.384 132.512C263.81 132.597 264.226 132.64 264.632 132.64C265.4 132.64 265.944 132.544 266.264 132.352C266.584 132.16 266.744 131.84 266.744 131.392C266.744 131.029 266.658 130.752 266.488 130.56C266.317 130.347 265.954 130.144 265.4 129.952C264.845 129.76 263.981 129.493 262.808 129.152C261.741 128.853 260.877 128.32 260.216 127.552C259.576 126.763 259.256 125.792 259.256 124.64C259.256 123.019 259.842 121.781 261.016 120.928C262.189 120.075 263.8 119.648 265.848 119.648C267.384 119.648 268.589 119.861 269.464 120.288C270.338 120.715 270.776 121.333 270.776 122.144C270.776 122.656 270.626 123.083 270.328 123.424C270.029 123.765 269.624 123.936 269.112 123.936C268.898 123.936 268.642 123.904 268.344 123.84C268.066 123.776 267.725 123.691 267.32 123.584C267.021 123.477 266.701 123.392 266.36 123.328C266.04 123.264 265.698 123.232 265.336 123.232C264.312 123.232 263.8 123.595 263.8 124.32C263.8 124.747 264.002 125.109 264.408 125.408C264.813 125.685 265.592 125.995 266.744 126.336C268.322 126.805 269.485 127.435 270.232 128.224C270.978 128.992 271.352 130.016 271.352 131.296C271.352 132.789 270.776 133.995 269.624 134.912C268.493 135.808 266.925 136.256 264.92 136.256ZM76.7525 178.256C75.9205 178.256 75.3232 178.021 74.9605 177.552C74.6192 177.061 74.4485 176.453 74.4485 175.728V165.872H74.0005C72.4218 165.872 71.6325 165.232 71.6325 163.952C71.6325 162.651 72.4218 162 74.0005 162H74.4485V161.872C74.4485 160.272 74.6618 158.939 75.0885 157.872C75.5365 156.784 76.1232 155.92 76.8485 155.28C77.5952 154.64 78.4165 154.181 79.3125 153.904C80.2298 153.605 81.1578 153.456 82.0965 153.456C83.6538 153.456 84.9018 153.648 85.8405 154.032C86.8005 154.416 87.4938 154.896 87.9205 155.472C88.3685 156.048 88.5925 156.624 88.5925 157.2C88.5925 157.797 88.3792 158.309 87.9525 158.736C87.5472 159.163 87.0032 159.376 86.3205 159.376C85.9578 159.376 85.5418 159.291 85.0725 159.12C84.6032 158.928 84.0912 158.597 83.5365 158.128C83.2805 157.915 82.9605 157.733 82.5765 157.584C82.1925 157.435 81.7978 157.36 81.3925 157.36C80.9872 157.36 80.5925 157.477 80.2085 157.712C79.8245 157.925 79.5152 158.32 79.2805 158.896C79.0458 159.451 78.9285 160.229 78.9285 161.232V162H80.7525C82.2032 162 82.9285 162.651 82.9285 163.952C82.9285 165.232 82.2032 165.872 80.7525 165.872H78.9285V175.728C78.9285 176.603 78.7365 177.243 78.3525 177.648C77.9898 178.053 77.4565 178.256 76.7525 178.256ZM86.9285 178.256C86.0965 178.256 85.4992 178.064 85.1365 177.68C84.7952 177.275 84.6245 176.741 84.6245 176.08V163.92C84.6245 163.237 84.7952 162.704 85.1365 162.32C85.4992 161.936 86.0965 161.744 86.9285 161.744C87.7605 161.744 88.3472 161.936 88.6885 162.32C89.0512 162.704 89.2325 163.237 89.2325 163.92V176.08C89.2325 176.741 89.0512 177.275 88.6885 177.68C88.3472 178.064 87.7605 178.256 86.9285 178.256ZM95.0373 178.256C93.5013 178.256 92.7333 177.531 92.7333 176.08V163.952C92.7333 162.48 93.5013 161.744 95.0373 161.744C95.8053 161.744 96.3599 161.915 96.7013 162.256C97.0426 162.576 97.2133 163.109 97.2133 163.856C97.5973 163.152 98.1413 162.629 98.8453 162.288C99.5706 161.925 100.413 161.744 101.373 161.744C103.208 161.744 104.125 162.544 104.125 164.144C104.125 164.741 103.901 165.189 103.453 165.488C103.005 165.787 102.269 165.936 101.245 165.936C100.243 165.936 99.4533 166.032 98.8773 166.224C98.3013 166.395 97.8959 166.725 97.6613 167.216C97.4479 167.685 97.3413 168.368 97.3413 169.264V176.08C97.3413 177.531 96.5733 178.256 95.0373 178.256ZM110.388 178.256C106.378 178.256 104.372 177.371 104.372 175.6C104.372 175.045 104.522 174.608 104.82 174.288C105.119 173.968 105.514 173.808 106.004 173.808C106.218 173.808 106.42 173.84 106.612 173.904C106.826 173.947 107.231 174.064 107.828 174.256C108.084 174.341 108.426 174.427 108.852 174.512C109.279 174.597 109.695 174.64 110.1 174.64C110.868 174.64 111.412 174.544 111.732 174.352C112.052 174.16 112.212 173.84 112.212 173.392C112.212 173.029 112.127 172.752 111.956 172.56C111.786 172.347 111.423 172.144 110.868 171.952C110.314 171.76 109.45 171.493 108.276 171.152C107.21 170.853 106.346 170.32 105.684 169.552C105.044 168.763 104.724 167.792 104.724 166.64C104.724 165.019 105.311 163.781 106.484 162.928C107.658 162.075 109.268 161.648 111.316 161.648C112.852 161.648 114.058 161.861 114.932 162.288C115.807 162.715 116.244 163.333 116.244 164.144C116.244 164.656 116.095 165.083 115.796 165.424C115.498 165.765 115.092 165.936 114.58 165.936C114.367 165.936 114.111 165.904 113.812 165.84C113.535 165.776 113.194 165.691 112.788 165.584C112.49 165.477 112.17 165.392 111.828 165.328C111.508 165.264 111.167 165.232 110.804 165.232C109.78 165.232 109.268 165.595 109.268 166.32C109.268 166.747 109.471 167.109 109.876 167.408C110.282 167.685 111.06 167.995 112.212 168.336C113.791 168.805 114.954 169.435 115.7 170.224C116.447 170.992 116.82 172.016 116.82 173.296C116.82 174.789 116.244 175.995 115.092 176.912C113.962 177.808 112.394 178.256 110.388 178.256ZM126.841 178.256C124.857 178.256 123.385 177.787 122.425 176.848C121.486 175.909 121.017 174.469 121.017 172.528V165.872H120.185C118.734 165.872 118.009 165.221 118.009 163.92C118.009 162.64 118.734 162 120.185 162H121.017V158.544C121.017 157.84 121.23 157.264 121.657 156.816C122.105 156.368 122.681 156.144 123.385 156.144C124.068 156.144 124.612 156.357 125.017 156.784C125.422 157.189 125.625 157.755 125.625 158.48V160.048C125.625 160.837 125.497 161.488 125.241 162H128.281C129.732 162 130.457 162.64 130.457 163.92C130.457 165.221 129.732 165.872 128.281 165.872H125.625V172.624C125.625 173.264 125.7 173.723 125.849 174C125.998 174.256 126.244 174.384 126.585 174.384C127.033 174.384 127.364 174.352 127.577 174.288C127.812 174.203 128.1 174.16 128.441 174.16C129.017 174.16 129.476 174.267 129.817 174.48C130.158 174.672 130.329 175.077 130.329 175.696C130.329 176.571 130.052 177.221 129.497 177.648C128.942 178.053 128.057 178.256 126.841 178.256ZM145.37 178.256C144.943 178.256 144.495 178.171 144.026 178C143.578 177.808 143.151 177.477 142.746 177.008C142.34 176.517 141.988 175.813 141.69 174.896L138.33 164.368C138.18 163.877 138.202 163.429 138.394 163.024C138.586 162.597 138.895 162.267 139.322 162.032C139.748 161.776 140.218 161.648 140.73 161.648C141.199 161.648 141.626 161.765 142.01 162C142.415 162.235 142.692 162.597 142.842 163.088L145.978 173.68C146.788 172.336 147.322 171.003 147.578 169.68C147.855 168.336 147.994 167.045 147.994 165.808C147.994 165.424 147.983 165.051 147.962 164.688C147.94 164.304 147.93 163.941 147.93 163.6C147.93 162.981 148.175 162.501 148.666 162.16C149.178 161.819 149.743 161.648 150.362 161.648C151.642 161.648 152.378 162.256 152.57 163.472C152.612 163.685 152.644 163.973 152.666 164.336C152.687 164.677 152.698 165.072 152.698 165.52C152.698 166.245 152.623 167.099 152.474 168.08C152.346 169.04 152.09 170.075 151.706 171.184C151.343 172.272 150.788 173.392 150.042 174.544C149.38 175.568 148.783 176.347 148.25 176.88C147.738 177.413 147.247 177.776 146.778 177.968C146.308 178.16 145.839 178.256 145.37 178.256ZM158.07 158.992C157.281 158.992 156.619 158.736 156.086 158.224C155.553 157.712 155.286 157.083 155.286 156.336C155.286 155.547 155.553 154.896 156.086 154.384C156.619 153.872 157.281 153.616 158.07 153.616C158.881 153.616 159.542 153.872 160.054 154.384C160.587 154.896 160.854 155.547 160.854 156.336C160.854 157.083 160.587 157.712 160.054 158.224C159.542 158.736 158.881 158.992 158.07 158.992ZM160.374 176.112C160.374 177.541 159.627 178.256 158.134 178.256C157.409 178.256 156.833 178.085 156.406 177.744C155.979 177.381 155.766 176.837 155.766 176.112V163.92C155.766 163.237 155.937 162.704 156.278 162.32C156.641 161.936 157.238 161.744 158.07 161.744C158.902 161.744 159.489 161.936 159.83 162.32C160.193 162.704 160.374 163.237 160.374 163.92V176.112ZM166.225 178.256C164.689 178.256 163.921 177.531 163.921 176.08V163.952C163.921 162.48 164.689 161.744 166.225 161.744C166.993 161.744 167.547 161.915 167.889 162.256C168.23 162.576 168.401 163.109 168.401 163.856C168.785 163.152 169.329 162.629 170.033 162.288C170.758 161.925 171.601 161.744 172.561 161.744C174.395 161.744 175.313 162.544 175.313 164.144C175.313 164.741 175.089 165.189 174.641 165.488C174.193 165.787 173.457 165.936 172.433 165.936C171.43 165.936 170.641 166.032 170.065 166.224C169.489 166.395 169.083 166.725 168.849 167.216C168.635 167.685 168.529 168.368 168.529 169.264V176.08C168.529 177.531 167.761 178.256 166.225 178.256ZM184.404 178.256C182.42 178.256 180.948 177.787 179.988 176.848C179.049 175.909 178.58 174.469 178.58 172.528V165.872H177.748C176.297 165.872 175.572 165.221 175.572 163.92C175.572 162.64 176.297 162 177.748 162H178.58V158.544C178.58 157.84 178.793 157.264 179.22 156.816C179.668 156.368 180.244 156.144 180.948 156.144C181.63 156.144 182.174 156.357 182.58 156.784C182.985 157.189 183.188 157.755 183.188 158.48V160.048C183.188 160.837 183.06 161.488 182.804 162H185.844C187.294 162 188.02 162.64 188.02 163.92C188.02 165.221 187.294 165.872 185.844 165.872H183.188V172.624C183.188 173.264 183.262 173.723 183.411 174C183.561 174.256 183.806 174.384 184.148 174.384C184.596 174.384 184.926 174.352 185.14 174.288C185.374 174.203 185.662 174.16 186.004 174.16C186.58 174.16 187.038 174.267 187.38 174.48C187.721 174.672 187.892 175.077 187.892 175.696C187.892 176.571 187.614 177.221 187.06 177.648C186.505 178.053 185.62 178.256 184.404 178.256ZM197.43 178.256C196.022 178.256 194.785 177.968 193.718 177.392C192.652 176.816 191.82 176.005 191.222 174.96C190.646 173.915 190.358 172.699 190.358 171.312V163.824C190.358 162.373 191.126 161.648 192.662 161.648C194.198 161.648 194.966 162.373 194.966 163.824V171.248C194.966 172.251 195.18 173.029 195.606 173.584C196.033 174.139 196.641 174.416 197.43 174.416C198.22 174.416 198.828 174.139 199.254 173.584C199.681 173.029 199.894 172.251 199.894 171.248V163.824C199.894 162.373 200.662 161.648 202.198 161.648C203.734 161.648 204.502 162.373 204.502 163.824V171.312C204.502 172.699 204.204 173.915 203.606 174.96C203.03 176.005 202.209 176.816 201.142 177.392C200.097 177.968 198.86 178.256 197.43 178.256ZM213.93 178.256C211.797 178.256 210.133 177.765 208.938 176.784C207.743 175.781 207.146 174.491 207.146 172.912C207.146 171.056 207.925 169.712 209.482 168.88C211.061 168.048 213.365 167.76 216.394 168.016C216.245 167.035 215.935 166.373 215.466 166.032C214.997 165.669 214.431 165.488 213.77 165.488C213.237 165.488 212.789 165.52 212.426 165.584C212.085 165.627 211.765 165.68 211.466 165.744C211.167 165.808 210.805 165.84 210.378 165.84C209.802 165.84 209.343 165.744 209.002 165.552C208.661 165.339 208.49 164.923 208.49 164.304C208.49 163.429 208.863 162.789 209.61 162.384C210.378 161.957 211.583 161.744 213.226 161.744C215.829 161.744 217.759 162.491 219.018 163.984C220.277 165.456 220.906 167.429 220.906 169.904C220.906 172.763 220.383 174.875 219.338 176.24C218.314 177.584 216.511 178.256 213.93 178.256ZM211.754 172.912C211.754 174.128 212.575 174.736 214.218 174.736C214.751 174.736 215.167 174.64 215.466 174.448C215.765 174.256 215.978 173.872 216.106 173.296C216.255 172.72 216.362 171.856 216.426 170.704C216.319 170.811 216.181 170.885 216.01 170.928C215.839 170.971 215.669 170.992 215.498 170.992C214.09 170.992 213.109 171.131 212.554 171.408C212.021 171.664 211.754 172.165 211.754 172.912ZM228.626 176.112C228.626 177.541 227.879 178.256 226.386 178.256C225.66 178.256 225.084 178.075 224.658 177.712C224.231 177.349 224.018 176.816 224.018 176.112V156.112C224.018 155.344 224.188 154.736 224.53 154.288C224.892 153.84 225.49 153.616 226.322 153.616C227.154 153.616 227.74 153.84 228.082 154.288C228.444 154.736 228.626 155.344 228.626 156.112V176.112ZM83.0905 218.112C83.0905 219.541 82.3438 220.256 80.8505 220.256C80.1252 220.256 79.5492 220.075 79.1225 219.712C78.6958 219.349 78.4825 218.816 78.4825 218.112V198.112C78.4825 196.448 79.2612 195.616 80.8185 195.616C82.3545 195.616 83.1225 196.448 83.1225 198.112V201.536C83.1225 202.133 83.0585 202.709 82.9305 203.264C82.8025 203.819 82.5892 204.395 82.2905 204.992C82.6532 204.544 83.1332 204.224 83.7305 204.032C84.3278 203.84 85.0212 203.744 85.8105 203.744C87.2185 203.744 88.4452 204.021 89.4905 204.576C90.5358 205.131 91.3465 205.909 91.9225 206.912C92.5198 207.893 92.8185 209.067 92.8185 210.432V218.112C92.8185 219.541 92.0718 220.256 90.5785 220.256C89.8532 220.256 89.2772 220.075 88.8505 219.712C88.4238 219.349 88.2105 218.816 88.2105 218.112V210.624C88.2105 209.621 87.9758 208.864 87.5065 208.352C87.0585 207.84 86.4292 207.584 85.6185 207.584C84.8292 207.584 84.2105 207.851 83.7625 208.384C83.3145 208.896 83.0905 209.643 83.0905 210.624V218.112ZM102.024 220.256C99.8904 220.256 98.2264 219.765 97.0318 218.784C95.8371 217.781 95.2398 216.491 95.2398 214.912C95.2398 213.056 96.0184 211.712 97.5758 210.88C99.1544 210.048 101.458 209.76 104.488 210.016C104.338 209.035 104.029 208.373 103.56 208.032C103.09 207.669 102.525 207.488 101.864 207.488C101.33 207.488 100.882 207.52 100.52 207.584C100.178 207.627 99.8584 207.68 99.5598 207.744C99.2611 207.808 98.8984 207.84 98.4718 207.84C97.8958 207.84 97.4371 207.744 97.0958 207.552C96.7544 207.339 96.5838 206.923 96.5838 206.304C96.5838 205.429 96.9571 204.789 97.7038 204.384C98.4718 203.957 99.6771 203.744 101.32 203.744C103.922 203.744 105.853 204.491 107.112 205.984C108.37 207.456 109 209.429 109 211.904C109 214.763 108.477 216.875 107.432 218.24C106.408 219.584 104.605 220.256 102.024 220.256ZM99.8478 214.912C99.8478 216.128 100.669 216.736 102.312 216.736C102.845 216.736 103.261 216.64 103.56 216.448C103.858 216.256 104.072 215.872 104.2 215.296C104.349 214.72 104.456 213.856 104.52 212.704C104.413 212.811 104.274 212.885 104.104 212.928C103.933 212.971 103.762 212.992 103.592 212.992C102.184 212.992 101.202 213.131 100.648 213.408C100.114 213.664 99.8478 214.165 99.8478 214.912ZM118.924 220.256C116.321 220.256 114.39 219.509 113.132 218.016C111.873 216.501 111.243 214.507 111.243 212.032C111.243 209.557 111.873 207.563 113.132 206.048C114.39 204.512 116.321 203.744 118.924 203.744C120.566 203.744 121.761 203.915 122.508 204.256C123.276 204.597 123.66 205.205 123.66 206.08C123.66 206.699 123.489 207.147 123.148 207.424C122.806 207.701 122.348 207.84 121.772 207.84C121.366 207.84 121.046 207.808 120.812 207.744C120.577 207.68 120.321 207.627 120.044 207.584C119.788 207.52 119.382 207.488 118.828 207.488C118.081 207.488 117.484 207.712 117.036 208.16C116.609 208.608 116.3 209.184 116.108 209.888C115.937 210.571 115.852 211.285 115.852 212.032C115.852 212.757 115.916 213.472 116.044 214.176C116.193 214.859 116.481 215.424 116.908 215.872C117.334 216.299 117.985 216.512 118.86 216.512C119.67 216.512 120.268 216.459 120.652 216.352C121.036 216.224 121.409 216.16 121.772 216.16C122.348 216.16 122.806 216.267 123.148 216.48C123.489 216.672 123.66 217.077 123.66 217.696C123.66 218.571 123.276 219.221 122.508 219.648C121.761 220.053 120.566 220.256 118.924 220.256ZM129.13 220.256C128.298 220.256 127.701 220.032 127.338 219.584C126.997 219.136 126.826 218.528 126.826 217.76V198.112C126.826 197.344 126.997 196.736 127.338 196.288C127.701 195.84 128.298 195.616 129.13 195.616C129.962 195.616 130.549 195.84 130.89 196.288C131.253 196.736 131.434 197.344 131.434 198.112V210.016C132.565 209.333 133.568 208.565 134.442 207.712C135.317 206.837 135.914 206.005 136.234 205.216C136.533 204.491 136.96 204 137.514 203.744C138.069 203.488 138.677 203.52 139.338 203.84C140.256 204.288 140.682 204.971 140.618 205.888C140.597 206.656 140.245 207.52 139.562 208.48C138.901 209.419 138.08 210.229 137.098 210.912C138.336 211.339 139.328 212.117 140.074 213.248C140.842 214.357 141.226 215.968 141.226 218.08C141.226 219.531 140.469 220.256 138.954 220.256C137.397 220.256 136.618 219.531 136.618 218.08C136.618 216.523 136.373 215.381 135.882 214.656C135.392 213.931 134.741 213.568 133.93 213.568C133.184 213.568 132.576 213.845 132.106 214.4C131.658 214.955 131.434 215.915 131.434 217.28C131.434 218.517 131.253 219.328 130.89 219.712C130.528 220.075 129.941 220.256 129.13 220.256ZM150.18 220.256C148.047 220.256 146.383 219.765 145.188 218.784C143.993 217.781 143.396 216.491 143.396 214.912C143.396 213.056 144.175 211.712 145.732 210.88C147.311 210.048 149.615 209.76 152.644 210.016C152.495 209.035 152.185 208.373 151.716 208.032C151.247 207.669 150.681 207.488 150.02 207.488C149.487 207.488 149.039 207.52 148.676 207.584C148.335 207.627 148.015 207.68 147.716 207.744C147.417 207.808 147.055 207.84 146.628 207.84C146.052 207.84 145.593 207.744 145.252 207.552C144.911 207.339 144.74 206.923 144.74 206.304C144.74 205.429 145.113 204.789 145.86 204.384C146.628 203.957 147.833 203.744 149.476 203.744C152.079 203.744 154.009 204.491 155.268 205.984C156.527 207.456 157.156 209.429 157.156 211.904C157.156 214.763 156.633 216.875 155.588 218.24C154.564 219.584 152.761 220.256 150.18 220.256ZM148.004 214.912C148.004 216.128 148.825 216.736 150.468 216.736C151.001 216.736 151.417 216.64 151.716 216.448C152.015 216.256 152.228 215.872 152.356 215.296C152.505 214.72 152.612 213.856 152.676 212.704C152.569 212.811 152.431 212.885 152.26 212.928C152.089 212.971 151.919 212.992 151.748 212.992C150.34 212.992 149.359 213.131 148.804 213.408C148.271 213.664 148.004 214.165 148.004 214.912ZM167.06 220.256C165.076 220.256 163.604 219.787 162.644 218.848C161.705 217.909 161.236 216.469 161.236 214.528V207.872H160.404C158.953 207.872 158.228 207.221 158.228 205.92C158.228 204.64 158.953 204 160.404 204H161.236V200.544C161.236 199.84 161.449 199.264 161.876 198.816C162.324 198.368 162.9 198.144 163.604 198.144C164.286 198.144 164.83 198.357 165.236 198.784C165.641 199.189 165.844 199.755 165.844 200.48V202.048C165.844 202.837 165.716 203.488 165.46 204H168.5C169.95 204 170.676 204.64 170.676 205.92C170.676 207.221 169.95 207.872 168.5 207.872H165.844V214.624C165.844 215.264 165.918 215.723 166.068 216C166.217 216.256 166.462 216.384 166.804 216.384C167.252 216.384 167.582 216.352 167.796 216.288C168.03 216.203 168.318 216.16 168.66 216.16C169.236 216.16 169.694 216.267 170.036 216.48C170.377 216.672 170.548 217.077 170.548 217.696C170.548 218.571 170.27 219.221 169.716 219.648C169.161 220.053 168.276 220.256 167.06 220.256ZM178.341 218.112C178.341 219.541 177.594 220.256 176.101 220.256C175.375 220.256 174.799 220.075 174.373 219.712C173.946 219.349 173.733 218.816 173.733 218.112V198.112C173.733 196.448 174.511 195.616 176.069 195.616C177.605 195.616 178.373 196.448 178.373 198.112V201.536C178.373 202.133 178.309 202.709 178.181 203.264C178.053 203.819 177.839 204.395 177.541 204.992C177.903 204.544 178.383 204.224 178.981 204.032C179.578 203.84 180.271 203.744 181.061 203.744C182.469 203.744 183.695 204.021 184.741 204.576C185.786 205.131 186.597 205.909 187.173 206.912C187.77 207.893 188.069 209.067 188.069 210.432V218.112C188.069 219.541 187.322 220.256 185.829 220.256C185.103 220.256 184.527 220.075 184.101 219.712C183.674 219.349 183.461 218.816 183.461 218.112V210.624C183.461 209.621 183.226 208.864 182.757 208.352C182.309 207.84 181.679 207.584 180.869 207.584C180.079 207.584 179.461 207.851 179.013 208.384C178.565 208.896 178.341 209.643 178.341 210.624V218.112ZM198.543 220.256C196.261 220.256 194.458 219.605 193.135 218.304C191.813 217.003 191.151 214.901 191.151 212C191.151 209.077 191.813 206.976 193.135 205.696C194.458 204.395 196.261 203.744 198.543 203.744C200.826 203.744 202.629 204.395 203.951 205.696C205.274 206.976 205.935 209.077 205.935 212C205.935 214.901 205.274 217.003 203.951 218.304C202.629 219.605 200.826 220.256 198.543 220.256ZM198.543 216.416C199.141 216.416 199.642 216.299 200.047 216.064C200.453 215.808 200.762 215.36 200.975 214.72C201.21 214.08 201.327 213.173 201.327 212C201.327 210.827 201.21 209.92 200.975 209.28C200.762 208.64 200.453 208.203 200.047 207.968C199.642 207.712 199.141 207.584 198.543 207.584C197.967 207.584 197.466 207.712 197.039 207.968C196.634 208.203 196.314 208.64 196.079 209.28C195.866 209.92 195.759 210.827 195.759 212C195.759 213.173 195.866 214.08 196.079 214.72C196.314 215.36 196.634 215.808 197.039 216.064C197.466 216.299 197.967 216.416 198.543 216.416ZM211.319 220.256C209.783 220.256 209.015 219.531 209.015 218.08V210.4C209.015 208.352 209.665 206.731 210.967 205.536C212.289 204.341 214.028 203.744 216.183 203.744C218.337 203.744 220.065 204.341 221.367 205.536C222.689 206.731 223.351 208.352 223.351 210.4V218.08C223.351 219.531 222.583 220.256 221.047 220.256C219.511 220.256 218.743 219.531 218.743 218.08V210.656C218.743 209.653 218.519 208.896 218.071 208.384C217.623 207.851 216.993 207.584 216.183 207.584C215.372 207.584 214.743 207.851 214.295 208.384C213.847 208.896 213.623 209.653 213.623 210.656V218.08C213.623 219.531 212.855 220.256 211.319 220.256ZM227.979 220.256C227.211 220.256 226.593 220.021 226.123 219.552C225.675 219.083 225.451 218.485 225.451 217.76C225.451 217.013 225.675 216.405 226.123 215.936C226.593 215.467 227.211 215.232 227.979 215.232C228.726 215.232 229.334 215.467 229.803 215.936C230.273 216.405 230.507 217.013 230.507 217.76C230.507 218.485 230.273 219.083 229.803 219.552C229.334 220.021 228.726 220.256 227.979 220.256Z" fill="white"/>
</svg>
