<svg width="312" height="350" viewBox="0 0 312 350" fill="none" xmlns="http://www.w3.org/2000/svg">
<path d="M287.404 300.26L127.795 347.021C119.921 349.323 111.247 343.562 108.503 334.208L140.381 265.328L228.595 239.48L296.743 279.052C299.486 288.407 295.278 297.946 287.417 300.26H287.404Z" fill="#D1CC9D" stroke="#C1C09D" stroke-width="4" stroke-miterlimit="10"/>
<path d="M308.726 115.15C314.717 135.607 254.493 283.558 242.781 291.017C230.613 298.771 217.165 304.962 202.623 309.221C189.52 313.062 176.331 315.105 163.302 315.499C146.373 316.016 13.8793 220.956 8.63814 203.071C-2.93918 163.511 1.82211 123.052 18.9605 88.9204C37.7475 51.5143 71.4091 21.6904 114.741 9.00013C116.882 8.37239 119.035 7.79386 121.188 7.25228C202.069 -12.7986 285.091 34.3807 308.726 115.138V115.15Z" fill="#D1CC9D" stroke="#C1C09D" stroke-width="4" stroke-miterlimit="10"/>
<path opacity="0.5" d="M173.243 315.388L13.9531 193.236" stroke="#C1C09D" stroke-width="2" stroke-miterlimit="10"/>
<path opacity="0.5" d="M180.883 316.889L28.397 132.271" stroke="#C1C09D" stroke-width="2" stroke-miterlimit="10"/>
<path opacity="0.5" d="M208.627 310.723L119.736 34.2822" stroke="#C1C09D" stroke-width="2" stroke-miterlimit="10"/>
<path opacity="0.5" d="M231.658 301.147L242.042 72.3408" stroke="#C1C09D" stroke-width="2" stroke-miterlimit="10"/>
<path opacity="0.5" d="M243.371 296.876L287.983 121.132" stroke="#C1C09D" stroke-width="2" stroke-miterlimit="10"/>
<path opacity="0.5" d="M194.995 313.123L41.7461 93.0684" stroke="#C1C09D" stroke-width="2" stroke-miterlimit="10"/>
<path opacity="0.5" d="M223.846 305.43L189.778 40.3379" stroke="#C1C09D" stroke-width="2" stroke-miterlimit="10"/>
<path opacity="0.5" d="M198.403 313.455L84.3271 67.5771" stroke="#C1C09D" stroke-width="2" stroke-miterlimit="10"/>
<path opacity="0.5" d="M218.949 308.274L160.718 29.5312" stroke="#C1C09D" stroke-width="2" stroke-miterlimit="10"/>
<path d="M56.295 136.12C56.295 139.293 56.6817 141.573 57.455 142.96C58.2283 144.32 59.375 145 60.895 145C61.855 145 62.695 144.933 63.415 144.8C64.135 144.64 64.7883 144.56 65.375 144.56C66.4417 144.56 67.215 144.787 67.695 145.24C68.175 145.667 68.415 146.227 68.415 146.92C68.415 147.827 68.0817 148.52 67.415 149C66.775 149.48 65.9483 149.813 64.935 150C63.9483 150.187 62.935 150.28 61.895 150.28C59.015 150.28 56.7217 149.747 55.015 148.68C53.335 147.613 52.1217 146.04 51.375 143.96C50.655 141.853 50.295 139.24 50.295 136.12C50.295 133 50.655 130.36 51.375 128.2C52.1217 126.013 53.335 124.36 55.015 123.24C56.7217 122.12 59.015 121.56 61.895 121.56C62.935 121.56 63.9483 121.653 64.935 121.84C65.9483 122.027 66.775 122.36 67.415 122.84C68.0817 123.32 68.415 124.013 68.415 124.92C68.415 125.587 68.175 126.147 67.695 126.6C67.215 127.053 66.4417 127.28 65.375 127.28C64.7883 127.28 64.135 127.213 63.415 127.08C62.695 126.92 61.855 126.84 60.895 126.84C59.0283 126.84 57.7883 127.6 57.175 129.12C56.5883 130.613 56.295 132.947 56.295 136.12ZM75.1088 150.24C74.2021 150.24 73.4821 150.04 72.9488 149.64C72.4154 149.213 72.1488 148.613 72.1488 147.84V130.56C72.1488 127.467 72.9621 125.2 74.5888 123.76C76.2421 122.293 78.8154 121.56 82.3088 121.56C85.1621 121.56 87.3354 122.28 88.8288 123.72C90.3488 125.133 91.1088 127.187 91.1088 129.88C91.1088 130.813 91.0821 131.72 91.0288 132.6C90.9754 133.453 90.8954 134.053 90.7888 134.4C90.3888 135.867 89.6554 136.987 88.5888 137.76C90.0288 138.96 90.7488 140.347 90.7488 141.92V147.84C90.7488 149.493 89.8288 150.32 87.9888 150.32C87.0821 150.32 86.3621 150.12 85.8288 149.72C85.2954 149.293 85.0288 148.667 85.0288 147.84V142.56C85.0288 141.12 84.8021 140.107 84.3488 139.52C83.9221 138.933 83.0421 138.64 81.7088 138.64C80.2688 138.64 79.2688 138.96 78.7088 139.6C78.1754 140.213 77.9088 141.36 77.9088 143.04V147.84C77.9088 149.44 76.9754 150.24 75.1088 150.24ZM77.5888 135.36C78.2554 134.8 78.8421 134.44 79.3488 134.28C79.8821 134.093 80.6421 134 81.6288 134C82.9621 134 83.9354 133.933 84.5488 133.8C85.1888 133.667 85.6021 133.387 85.7888 132.96C85.9754 132.533 86.0688 131.867 86.0688 130.96C86.0688 129.147 85.7888 127.893 85.2288 127.2C84.6954 126.48 83.7221 126.12 82.3088 126.12C80.7354 126.12 79.6154 126.48 78.9488 127.2C78.3088 127.92 77.9888 129.173 77.9888 130.96C77.9888 131.84 77.9488 132.627 77.8688 133.32C77.8154 133.987 77.7221 134.667 77.5888 135.36ZM105.702 150.32C102.475 150.32 100.008 149.52 98.3016 147.92C96.6216 146.293 95.7816 143.853 95.7816 140.6V124.68C95.7816 122.6 96.7416 121.56 98.6616 121.56C100.582 121.56 101.542 122.6 101.542 124.68V140.6C101.542 142.28 101.902 143.507 102.622 144.28C103.368 145.053 104.395 145.44 105.702 145.44C108.902 145.44 110.502 143.827 110.502 140.6V124.68C110.502 122.6 111.462 121.56 113.382 121.56C115.302 121.56 116.262 122.6 116.262 124.68V140.6C116.262 143.827 115.368 146.253 113.582 147.88C111.795 149.507 109.168 150.32 105.702 150.32ZM122.985 150C122.239 150 121.639 149.733 121.185 149.2C120.732 148.64 120.505 148.04 120.505 147.4C120.505 147.08 120.559 146.76 120.665 146.44C120.772 146.12 121.012 145.587 121.385 144.84C121.652 144.333 122.012 143.707 122.465 142.96C122.919 142.187 123.505 141.213 124.225 140.04C124.972 138.867 125.879 137.4 126.945 135.64C128.039 133.88 129.332 131.747 130.825 129.24C131.359 128.307 131.799 127.747 132.145 127.56C132.492 127.373 132.639 127.28 132.585 127.28H122.905C122.239 127.28 121.679 127.027 121.225 126.52C120.799 125.987 120.599 125.333 120.625 124.56C120.679 123.707 120.959 123.067 121.465 122.64C121.999 122.213 122.665 122 123.465 122H136.985C137.919 122 138.625 122.267 139.105 122.8C139.585 123.333 139.799 124 139.745 124.8C139.745 125.147 139.545 125.667 139.145 126.36C138.745 127.053 138.199 127.987 137.505 129.16L129.385 142.48C129.119 142.907 128.812 143.267 128.465 143.56C128.119 143.853 127.825 144.08 127.585 144.24C127.345 144.373 127.239 144.44 127.265 144.44H137.985C138.679 144.44 139.239 144.72 139.665 145.28C140.092 145.813 140.292 146.493 140.265 147.32C140.239 148.12 139.999 148.773 139.545 149.28C139.092 149.76 138.505 150 137.785 150H122.985ZM147.887 150.32C145.914 150.32 144.927 149.427 144.927 147.64V124.24C144.927 123.307 145.154 122.627 145.607 122.2C146.06 121.773 146.78 121.56 147.767 121.56C149.714 121.56 150.687 122.453 150.687 124.24V128.24C150.687 131.547 150.594 133.52 150.407 134.16C151.1 133.467 151.847 132.987 152.647 132.72C153.447 132.453 154.5 132.32 155.807 132.32H159.727V124.24C159.727 123.307 159.954 122.627 160.407 122.2C160.86 121.773 161.58 121.56 162.567 121.56C164.514 121.56 165.487 122.453 165.487 124.24V147.64C165.487 148.547 165.26 149.227 164.807 149.68C164.38 150.107 163.674 150.32 162.687 150.32C160.714 150.32 159.727 149.427 159.727 147.64V135.8C159.567 136.28 159.047 136.68 158.167 137C157.287 137.293 156.26 137.44 155.087 137.44C153.407 137.44 152.247 137.787 151.607 138.48C150.994 139.147 150.687 140.387 150.687 142.2V147.64C150.687 148.547 150.46 149.227 150.007 149.68C149.58 150.107 148.874 150.32 147.887 150.32ZM176.737 147.64C176.737 149.427 175.804 150.32 173.937 150.32C173.03 150.32 172.31 150.093 171.777 149.64C171.244 149.187 170.977 148.52 170.977 147.64V131.8C170.977 128.12 171.724 125.493 173.217 123.92C174.71 122.347 177.044 121.56 180.217 121.56C183.47 121.56 185.87 122.36 187.417 123.96C188.964 125.56 189.737 128.173 189.737 131.8V147.64C189.737 149.427 188.804 150.32 186.937 150.32C186.03 150.32 185.31 150.093 184.777 149.64C184.244 149.187 183.977 148.52 183.977 147.64V138C183.47 138.453 182.91 138.84 182.297 139.16C181.71 139.48 181.017 139.64 180.217 139.64C179.044 139.64 178.164 139.853 177.577 140.28C177.017 140.707 176.737 141.467 176.737 142.56V147.64ZM176.497 135.92C176.924 135.493 177.43 135.16 178.017 134.92C178.63 134.68 179.364 134.56 180.217 134.56C181.23 134.56 182.004 134.48 182.537 134.32C183.097 134.16 183.484 133.853 183.697 133.4C183.91 132.947 184.017 132.28 184.017 131.4C184.017 129.427 183.737 128.08 183.177 127.36C182.617 126.613 181.617 126.24 180.177 126.24C178.844 126.24 177.924 126.627 177.417 127.4C176.937 128.147 176.697 129.533 176.697 131.56C176.697 132.6 176.684 133.48 176.657 134.2C176.63 134.92 176.577 135.493 176.497 135.92ZM200.318 136.12C200.318 139.293 200.705 141.573 201.478 142.96C202.252 144.32 203.398 145 204.918 145C205.878 145 206.718 144.933 207.438 144.8C208.158 144.64 208.812 144.56 209.398 144.56C210.465 144.56 211.238 144.787 211.718 145.24C212.198 145.667 212.438 146.227 212.438 146.92C212.438 147.827 212.105 148.52 211.438 149C210.798 149.48 209.972 149.813 208.958 150C207.972 150.187 206.958 150.28 205.918 150.28C203.038 150.28 200.745 149.747 199.038 148.68C197.358 147.613 196.145 146.04 195.398 143.96C194.678 141.853 194.318 139.24 194.318 136.12C194.318 133 194.678 130.36 195.398 128.2C196.145 126.013 197.358 124.36 199.038 123.24C200.745 122.12 203.038 121.56 205.918 121.56C206.958 121.56 207.972 121.653 208.958 121.84C209.972 122.027 210.798 122.36 211.438 122.84C212.105 123.32 212.438 124.013 212.438 124.92C212.438 125.587 212.198 126.147 211.718 126.6C211.238 127.053 210.465 127.28 209.398 127.28C208.812 127.28 208.158 127.213 207.438 127.08C206.718 126.92 205.878 126.84 204.918 126.84C203.052 126.84 201.812 127.6 201.198 129.12C200.612 130.613 200.318 132.947 200.318 136.12ZM232.689 150.32C230.689 150.32 229.689 149.387 229.689 147.52V141.32C229.689 140.04 229.423 139.08 228.889 138.44C228.383 137.773 227.503 137.44 226.249 137.44C224.889 137.44 223.876 137.72 223.209 138.28C222.569 138.84 222.249 139.813 222.249 141.2V147.2C222.249 149.28 221.289 150.32 219.369 150.32C217.449 150.32 216.489 149.28 216.489 147.2V124.68C216.489 122.6 217.449 121.56 219.369 121.56C221.289 121.56 222.249 122.6 222.249 124.68V134.08C222.623 133.707 223.009 133.413 223.409 133.2C223.809 132.987 224.476 132.747 225.409 132.48C226.743 132.107 227.663 131.32 228.169 130.12C228.676 128.92 228.929 127 228.929 124.36C228.929 123.373 229.143 122.667 229.569 122.24C229.996 121.787 230.676 121.56 231.609 121.56C233.583 121.56 234.569 122.56 234.569 124.56C234.569 127.227 234.289 129.4 233.729 131.08C233.169 132.733 232.303 134.013 231.129 134.92C233.983 136.147 235.409 138.307 235.409 141.4V147.52C235.409 149.387 234.503 150.32 232.689 150.32ZM246.918 150.32C245.905 150.32 244.838 150.24 243.718 150.08C242.598 149.92 241.692 149.707 240.998 149.44C239.878 148.987 239.318 148.227 239.318 147.16C239.318 146.387 239.545 145.773 239.998 145.32C240.478 144.84 241.225 144.6 242.238 144.6C242.932 144.6 243.772 144.693 244.758 144.88C245.745 145.067 246.612 145.16 247.358 145.16C249.012 145.16 250.198 144.947 250.918 144.52C251.638 144.093 251.998 143.227 251.998 141.92C251.998 141.147 251.718 140.493 251.158 139.96C250.625 139.427 249.545 138.92 247.918 138.44C244.958 137.56 242.812 136.467 241.478 135.16C240.172 133.853 239.518 132.16 239.518 130.08C239.518 128.267 239.918 126.733 240.718 125.48C241.545 124.2 242.678 123.227 244.118 122.56C245.558 121.893 247.198 121.56 249.038 121.56C251.198 121.56 252.985 121.853 254.398 122.44C255.518 122.867 256.078 123.627 256.078 124.72C256.078 125.493 255.838 126.12 255.358 126.6C254.905 127.053 254.172 127.28 253.158 127.28C252.492 127.28 251.772 127.213 250.998 127.08C250.225 126.92 249.465 126.84 248.718 126.84C247.572 126.84 246.705 127.04 246.118 127.44C245.532 127.84 245.238 128.507 245.238 129.44C245.238 130.293 245.652 131.067 246.478 131.76C247.305 132.453 248.825 133.133 251.038 133.8C253.572 134.547 255.318 135.56 256.278 136.84C257.238 138.093 257.718 139.693 257.718 141.64C257.718 144.467 256.772 146.627 254.878 148.12C253.012 149.587 250.358 150.32 246.918 150.32ZM102.76 203C102.014 203 101.44 202.827 101.04 202.48C100.64 202.133 100.36 201.693 100.2 201.16C100.067 200.627 99.987 200.053 99.9603 199.44C99.9603 198.827 99.9603 198.253 99.9603 197.72C99.9603 195.347 100.467 193.467 101.48 192.08C102.494 190.693 104.254 189.627 106.76 188.88C108.12 188.427 109.187 188.013 109.96 187.64C110.76 187.24 111.334 186.707 111.68 186.04C112.027 185.347 112.2 184.373 112.2 183.12C112.2 182.24 111.947 181.48 111.44 180.84C110.934 180.173 110.054 179.84 108.8 179.84C108.054 179.84 107.267 179.893 106.44 180C105.64 180.107 104.88 180.16 104.16 180.16C103.094 180.16 102.307 179.96 101.8 179.56C101.32 179.16 101.08 178.547 101.08 177.72C101.08 176.627 101.64 175.867 102.76 175.44C104.174 174.853 105.96 174.56 108.12 174.56C111.187 174.56 113.587 175.32 115.32 176.84C117.054 178.333 117.92 180.413 117.92 183.08C117.92 185.053 117.654 186.707 117.12 188.04C116.587 189.373 115.707 190.48 114.48 191.36C113.254 192.24 111.6 192.987 109.52 193.6C108.054 194.027 107.04 194.48 106.48 194.96C105.947 195.413 105.68 196.093 105.68 197V198.24C106.214 197.707 106.92 197.44 107.8 197.44H114.96C115.947 197.44 116.707 197.68 117.24 198.16C117.774 198.64 118.04 199.333 118.04 200.24C118.04 202.08 117.014 203 114.96 203H102.76ZM131.94 203.32C129.807 203.32 127.967 202.853 126.42 201.92C124.9 200.96 123.74 199.427 122.94 197.32C122.14 195.213 121.74 192.427 121.74 188.96C121.74 185.467 122.14 182.667 122.94 180.56C123.74 178.453 124.9 176.933 126.42 176C127.94 175.04 129.78 174.56 131.94 174.56C134.127 174.56 135.967 175.04 137.46 176C138.98 176.933 140.14 178.453 140.94 180.56C141.74 182.667 142.14 185.467 142.14 188.96C142.14 192.427 141.74 195.213 140.94 197.32C140.14 199.427 138.98 200.96 137.46 201.92C135.94 202.853 134.1 203.32 131.94 203.32ZM131.94 198.04C132.927 198.04 133.727 197.8 134.34 197.32C134.954 196.84 135.407 195.947 135.7 194.64C135.994 193.307 136.14 191.413 136.14 188.96C136.14 186.48 135.994 184.587 135.7 183.28C135.407 181.973 134.954 181.08 134.34 180.6C133.727 180.093 132.927 179.84 131.94 179.84C130.98 179.84 130.18 180.093 129.54 180.6C128.927 181.08 128.474 181.973 128.18 183.28C127.887 184.587 127.74 186.48 127.74 188.96C127.74 191.413 127.887 193.307 128.18 194.64C128.474 195.947 128.927 196.84 129.54 197.32C130.18 197.8 130.98 198.04 131.94 198.04ZM148.151 203C147.404 203 146.831 202.827 146.431 202.48C146.031 202.133 145.751 201.693 145.591 201.16C145.458 200.627 145.378 200.053 145.351 199.44C145.351 198.827 145.351 198.253 145.351 197.72C145.351 195.347 145.858 193.467 146.871 192.08C147.884 190.693 149.644 189.627 152.151 188.88C153.511 188.427 154.578 188.013 155.351 187.64C156.151 187.24 156.724 186.707 157.071 186.04C157.418 185.347 157.591 184.373 157.591 183.12C157.591 182.24 157.338 181.48 156.831 180.84C156.324 180.173 155.444 179.84 154.191 179.84C153.444 179.84 152.658 179.893 151.831 180C151.031 180.107 150.271 180.16 149.551 180.16C148.484 180.16 147.698 179.96 147.191 179.56C146.711 179.16 146.471 178.547 146.471 177.72C146.471 176.627 147.031 175.867 148.151 175.44C149.564 174.853 151.351 174.56 153.511 174.56C156.578 174.56 158.978 175.32 160.711 176.84C162.444 178.333 163.311 180.413 163.311 183.08C163.311 185.053 163.044 186.707 162.511 188.04C161.978 189.373 161.098 190.48 159.871 191.36C158.644 192.24 156.991 192.987 154.911 193.6C153.444 194.027 152.431 194.48 151.871 194.96C151.338 195.413 151.071 196.093 151.071 197V198.24C151.604 197.707 152.311 197.44 153.191 197.44H160.351C161.338 197.44 162.098 197.68 162.631 198.16C163.164 198.64 163.431 199.333 163.431 200.24C163.431 202.08 162.404 203 160.351 203H148.151ZM174.84 203.32C174.226 203.32 173.466 203.293 172.56 203.24C171.68 203.187 170.8 203.053 169.92 202.84C169.066 202.627 168.346 202.307 167.76 201.88C167.173 201.427 166.88 200.827 166.88 200.08C166.88 198.213 167.826 197.28 169.72 197.28C170.173 197.28 170.706 197.36 171.32 197.52C171.933 197.653 172.56 197.8 173.2 197.96C173.866 198.093 174.453 198.16 174.96 198.16C176.346 198.16 177.48 197.88 178.36 197.32C179.24 196.733 179.68 195.827 179.68 194.6C179.68 193.667 179.52 192.933 179.2 192.4C178.88 191.84 178.466 191.44 177.96 191.2C177.48 190.933 176.96 190.76 176.4 190.68C175.866 190.6 175.373 190.56 174.92 190.56H170.56C169.733 190.56 169.08 190.333 168.6 189.88C168.146 189.4 167.906 188.88 167.88 188.32L168.96 178.8C169.093 177.76 169.346 176.867 169.72 176.12C170.12 175.373 170.8 175 171.76 175H181.48C182.493 175 183.253 175.2 183.76 175.6C184.293 176 184.56 176.653 184.56 177.56C184.56 178.467 184.293 179.2 183.76 179.76C183.226 180.293 182.466 180.56 181.48 180.56H176.48C176.026 180.56 175.56 180.453 175.08 180.24C174.6 180.027 174.2 179.733 173.88 179.36C173.88 179.333 173.853 179.547 173.8 180C173.746 180.427 173.68 180.973 173.6 181.64C173.52 182.28 173.44 182.933 173.36 183.6C173.28 184.267 173.213 184.827 173.16 185.28C173.106 185.707 173.08 185.92 173.08 185.92C174.733 185.893 176.293 185.96 177.76 186.12C179.253 186.28 180.573 186.64 181.72 187.2C182.866 187.76 183.773 188.627 184.44 189.8C185.106 190.973 185.44 192.573 185.44 194.6C185.44 196.467 184.986 198.053 184.08 199.36C183.2 200.64 181.96 201.627 180.36 202.32C178.786 202.987 176.946 203.32 174.84 203.32ZM192.841 194.64C191.801 194.64 191.055 194.4 190.601 193.92C190.175 193.413 189.961 192.747 189.961 191.92V177.28C189.961 176.427 190.175 175.76 190.601 175.28C191.055 174.8 191.801 174.56 192.841 174.56C193.881 174.56 194.615 174.8 195.041 175.28C195.495 175.76 195.721 176.427 195.721 177.28V191.92C195.721 192.747 195.495 193.413 195.041 193.92C194.615 194.4 193.881 194.64 192.841 194.64ZM192.841 203.32C191.881 203.32 191.108 203.027 190.521 202.44C189.961 201.853 189.681 201.107 189.681 200.2C189.681 199.267 189.961 198.507 190.521 197.92C191.108 197.333 191.881 197.04 192.841 197.04C193.775 197.04 194.535 197.333 195.121 197.92C195.708 198.507 196.001 199.267 196.001 200.2C196.001 201.107 195.708 201.853 195.121 202.44C194.535 203.027 193.775 203.32 192.841 203.32ZM205.107 194.64C204.067 194.64 203.32 194.4 202.867 193.92C202.44 193.413 202.227 192.747 202.227 191.92V177.28C202.227 176.427 202.44 175.76 202.867 175.28C203.32 174.8 204.067 174.56 205.107 174.56C206.147 174.56 206.88 174.8 207.307 175.28C207.76 175.76 207.987 176.427 207.987 177.28V191.92C207.987 192.747 207.76 193.413 207.307 193.92C206.88 194.4 206.147 194.64 205.107 194.64ZM205.107 203.32C204.147 203.32 203.374 203.027 202.787 202.44C202.227 201.853 201.947 201.107 201.947 200.2C201.947 199.267 202.227 198.507 202.787 197.92C203.374 197.333 204.147 197.04 205.107 197.04C206.04 197.04 206.8 197.333 207.387 197.92C207.974 198.507 208.267 199.267 208.267 200.2C208.267 201.107 207.974 201.853 207.387 202.44C206.8 203.027 206.04 203.32 205.107 203.32Z" fill="white"/>
</svg>
