<?xml version="1.0" encoding="UTF-8"?>
<svg id="Layer_1" xmlns="http://www.w3.org/2000/svg" viewBox="0 0 310.85 348.88">
  <defs>
    <style>
      .cls-1 {
        fill: #d1cc9d;
        stroke-width: 4px;
      }

      .cls-1, .cls-2 {
        stroke: #c1c09d;
        stroke-miterlimit: 10;
      }

      .cls-3, .cls-2 {
        isolation: isolate;
      }

      .cls-2 {
        fill: none;
        opacity: .5;
        stroke-width: 2px;
      }

      .cls-4 {
        fill: #fff;
      }
    </style>
  </defs>
  <path class="cls-1" d="M287.11,299.61l-159.61,46.76c-7.87,2.3-16.55-3.46-19.29-12.81l31.88-68.88,88.21-25.85,68.15,39.57c2.74,9.36-1.46,18.89-9.33,21.21h-.01Z"/>
  <path class="cls-1" d="M308.43,114.5c5.99,20.46-54.23,168.41-65.95,175.87-12.17,7.75-25.62,13.95-40.16,18.2-13.1,3.84-26.29,5.88-39.32,6.28-16.93.52-149.42-94.54-154.66-112.43C-3.24,162.86,1.53,122.4,18.66,88.27,37.45,50.87,71.11,21.04,114.44,8.35c2.14-.63,4.29-1.21,6.45-1.75,80.88-20.05,163.9,27.13,187.54,107.89h0Z"/>
  <path class="cls-2" d="M172.95,314.74L13.66,192.59"/>
  <path class="cls-2" d="M180.59,316.24L28.1,131.62"/>
  <path class="cls-2" d="M208.33,310.07L119.44,33.63"/>
  <path class="cls-2" d="M231.36,300.5l10.38-228.81"/>
  <path class="cls-2" d="M243.07,296.23l44.61-175.74"/>
  <path class="cls-2" d="M194.7,312.47L41.45,92.42"/>
  <path class="cls-2" d="M223.55,304.78L189.48,39.69"/>
  <path class="cls-2" d="M198.11,312.81L84.03,66.93"/>
  <path class="cls-2" d="M218.65,307.63L160.42,28.88"/>
  <g class="cls-3">
    <g class="cls-3">
      <path class="cls-4" d="M51.95,129.07c1.45,0,2.5-.33,3.38-.33,1.6,0,2.29.75,2.29,1.78,0,2.05-2.56,2.53-4.92,2.53-6.52,0-8.75-3.62-8.75-10.68s2.23-10.98,8.75-10.98c2.35,0,4.92.48,4.92,2.53,0,1.03-.69,1.78-2.29,1.78-.88,0-1.93-.33-3.38-.33-2.84,0-3.47,2.2-3.47,7s1.18,6.7,3.47,6.7h0Z"/>
    </g>
    <g class="cls-3">
      <path class="cls-4" d="M58.95,131.03v-11.43c0-1.45.72-2.08,2.17-2.08s2.05.57,2.05,1.99c.72-1.33,2.11-1.99,3.92-1.99s2.59.72,2.59,2.26c0,1.15-.78,1.69-2.72,1.69-2.87,0-3.68.63-3.68,3.14v6.43c0,1.39-.72,2.05-2.17,2.05s-2.17-.66-2.17-2.05h0Z"/>
    </g>
    <g class="cls-3">
      <path class="cls-4" d="M70.62,126.54v-7.06c0-1.39.69-2.05,2.17-2.05s2.17.66,2.17,2.05v7c0,1.9.84,2.99,2.32,2.99s2.32-1.09,2.32-2.99v-7c0-1.39.69-2.05,2.17-2.05s2.17.66,2.17,2.05v7.06c0,3.95-2.65,6.55-6.67,6.55s-6.67-2.59-6.67-6.55h.02Z"/>
    </g>
    <g class="cls-3">
      <path class="cls-4" d="M86.82,130.76c0-.39.09-.72.27-1.03l4.65-7.27c.45-.69.66-.91,1-1.03h-4.22c-1.36,0-2.02-.6-2.02-1.84s.66-1.84,2.02-1.84h7.45c1.09,0,1.9.9,1.9,2.08,0,.39-.09.72-.27,1.03l-4.92,7.33c-.39.6-.75.88-1.24.96h5.13c1.33,0,2.02.63,2.02,1.9s-.63,1.78-2.02,1.78h-7.99c-1,0-1.75-.91-1.75-2.08h-.01Z"/>
    </g>
    <g class="cls-3">
      <path class="cls-4" d="M101.21,131.06v-17.65c0-1.42.66-2.02,2.14-2.02s2.2.66,2.2,2.02v3.02c0,2.56-.06,3.95-.21,4.46,1.03-1.03,2.08-1.39,4.07-1.39h2.96v-6.09c0-1.42.66-2.02,2.14-2.02s2.2.66,2.2,2.02v17.65c0,1.39-.63,2.02-2.11,2.02s-2.23-.63-2.23-2.02v-8.93c-.24.72-1.72,1.24-3.5,1.24-2.53,0-3.32.84-3.32,3.59v4.1c0,1.39-.63,2.02-2.11,2.02s-2.23-.63-2.23-2.02h0Z"/>
    </g>
    <g class="cls-3">
      <path class="cls-4" d="M119.46,128.05c0-3.5,3.02-5.1,8.72-4.62-.27-1.84-1.21-2.38-2.47-2.38-1.54,0-2.02.33-3.2.33-1.09,0-1.78-.27-1.78-1.45,0-1.66,1.36-2.41,4.46-2.41,4.92,0,7.24,3.02,7.24,7.69,0,5.4-1.72,7.87-6.58,7.87-4.01,0-6.4-2.05-6.4-5.04h.01ZM126.12,129.77c1.51,0,1.87-.57,2.08-3.8-.21.21-.54.27-.87.27-2.65,0-3.53.39-3.53,1.81,0,1.12.78,1.72,2.32,1.72Z"/>
    </g>
    <g class="cls-3">
      <path class="cls-4" d="M134.55,125.33c0-4.68,2.32-7.81,7.24-7.81,3.11,0,4.46.54,4.46,2.2,0,1.18-.69,1.66-1.78,1.66-1.18,0-1.24-.33-2.78-.33-2.14,0-2.81,2.2-2.81,4.28s.36,4.22,2.84,4.22c1.54,0,2.05-.33,2.75-.33,1.09,0,1.78.27,1.78,1.45,0,1.66-1.36,2.41-4.46,2.41-4.92,0-7.24-3.08-7.24-7.75Z"/>
    </g>
    <g class="cls-3">
      <path class="cls-4" d="M149.23,130.73v-18.52c0-1.45.6-2.35,2.17-2.35s2.17.91,2.17,2.35v11.22c2.14-1.3,3.92-3.05,4.53-4.52.57-1.36,1.69-1.9,2.93-1.3.81.39,1.27,1.09,1.21,1.93-.06,1.45-1.48,3.47-3.32,4.74,2.32.81,3.89,2.78,3.89,6.76,0,1.39-.75,2.05-2.14,2.05s-2.2-.66-2.2-2.05c0-2.93-1-4.25-2.53-4.25-1.42,0-2.35.94-2.35,3.5,0,2.32-.66,2.81-2.17,2.81s-2.17-.91-2.17-2.35l-.02-.02Z"/>
      <path class="cls-4" d="M165.16,130.58c0-1.03.6-1.69,1.54-1.69.39,0,.6.06,1.72.42.48.15,1.39.36,2.14.36,1.45,0,1.99-.33,1.99-1.18,0-1.03-.42-1.15-3.71-2.11-2.02-.57-3.35-2.08-3.35-4.25,0-3.05,2.35-4.71,6.21-4.71,2.9,0,4.65.81,4.65,2.35,0,.97-.6,1.69-1.57,1.69-.39,0-.94-.12-1.69-.33-.57-.18-1.21-.33-1.87-.33-1,0-1.45.36-1.45,1.03,0,.81.6,1.27,2.78,1.9,2.99.88,4.34,2.26,4.34,4.68,0,2.81-2.29,4.68-6.06,4.68s-5.67-.88-5.67-2.5h0Z"/>
    </g>
    <g class="cls-3">
      <path class="cls-4" d="M188.71,133.08c-1.39,0-2.23-.69-2.23-2.02v-18.85c0-1.57.75-2.35,2.2-2.35s2.17.78,2.17,2.35v3.23c0,1.15-.21,2.14-.78,3.26.69-.84,1.81-1.18,3.32-1.18,3.95,0,6.61,2.47,6.61,6.3v7.24c0,1.39-.69,2.02-2.11,2.02s-2.23-.69-2.23-2.02v-7.06c0-1.87-.9-2.87-2.44-2.87s-2.38,1.03-2.38,2.87v7.06c0,1.39-.69,2.02-2.11,2.02h-.02Z"/>
    </g>
    <g class="cls-3">
      <path class="cls-4" d="M202.26,128.05c0-3.5,3.02-5.1,8.72-4.62-.27-1.84-1.21-2.38-2.47-2.38-1.54,0-2.02.33-3.2.33-1.09,0-1.78-.27-1.78-1.45,0-1.66,1.36-2.41,4.46-2.41,4.92,0,7.24,3.02,7.24,7.69,0,5.4-1.72,7.87-6.58,7.87-4.01,0-6.4-2.05-6.4-5.04h0ZM208.92,129.77c1.51,0,1.87-.57,2.08-3.8-.21.21-.54.27-.88.27-2.65,0-3.53.39-3.53,1.81,0,1.12.78,1.72,2.32,1.72h0Z"/>
    </g>
    <g class="cls-3">
      <path class="cls-4" d="M217.53,130.58c0-1.03.6-1.69,1.54-1.69.39,0,.6.06,1.72.42.48.15,1.39.36,2.14.36,1.45,0,1.99-.33,1.99-1.18,0-1.03-.42-1.15-3.71-2.11-2.02-.57-3.35-2.08-3.35-4.25,0-3.05,2.35-4.71,6.21-4.71,2.9,0,4.65.81,4.65,2.35,0,.97-.6,1.69-1.57,1.69-.39,0-.93-.12-1.69-.33-.57-.18-1.21-.33-1.87-.33-1,0-1.45.36-1.45,1.03,0,.81.6,1.27,2.78,1.9,2.99.88,4.34,2.26,4.34,4.68,0,2.81-2.29,4.68-6.06,4.68s-5.67-.88-5.67-2.5h0Z"/>
    </g>
    <g class="cls-3">
      <path class="cls-4" d="M238.49,112.42c0-1.48,1.12-2.56,2.62-2.56s2.62,1.09,2.62,2.56-1.12,2.5-2.62,2.5-2.62-1.09-2.62-2.5ZM241.17,133.08c-1.39,0-2.23-.63-2.23-2.02v-11.49c0-1.27.6-2.05,2.17-2.05s2.17.78,2.17,2.05v11.49c0,1.39-.69,2.02-2.11,2.02Z"/>
    </g>
    <g class="cls-3">
      <path class="cls-4" d="M247.63,127.68v-6.28h-.79c-1.33,0-2.05-.66-2.05-1.84s.72-1.81,2.05-1.81h.79v-3.26c0-1.33.9-2.26,2.23-2.26s2.11.84,2.11,2.2v1.48c0,.66-.15,1.42-.36,1.84h2.87c1.33,0,2.05.63,2.05,1.81s-.72,1.84-2.05,1.84h-2.5v6.37c0,1.21.24,1.66.91,1.66.84,0,1.09-.21,1.75-.21,1.09,0,1.78.27,1.78,1.45,0,1.66-1,2.41-3.29,2.41-3.74,0-5.49-1.72-5.49-5.4h-.01Z"/>
    </g>
    <g class="cls-3">
      <path class="cls-4" d="M258.82,130.58c0-1.03.6-1.69,1.54-1.69.39,0,.6.06,1.72.42.48.15,1.39.36,2.14.36,1.45,0,1.99-.33,1.99-1.18,0-1.03-.42-1.15-3.71-2.11-2.02-.57-3.35-2.08-3.35-4.25,0-3.05,2.35-4.71,6.21-4.71,2.9,0,4.65.81,4.65,2.35,0,.97-.6,1.69-1.57,1.69-.39,0-.93-.12-1.69-.33-.57-.18-1.21-.33-1.87-.33-1,0-1.45.36-1.45,1.03,0,.81.6,1.27,2.78,1.9,2.99.88,4.34,2.26,4.34,4.68,0,2.81-2.29,4.68-6.06,4.68s-5.67-.88-5.67-2.5h0Z"/>
    </g>
    <g class="cls-3">
      <path class="cls-4" d="M52.54,166.9v-9.29h-.42c-1.51,0-2.23-.63-2.23-1.81s.72-1.84,2.23-1.84h.42v-.12c0-6,3.65-7.93,7.21-7.93,4.4,0,6.12,1.93,6.12,3.53,0,1.12-.84,2.05-2.14,2.05-.69,0-1.57-.3-2.62-1.18-.48-.39-1.27-.72-2.02-.72-1.18,0-2.32.81-2.32,3.65v.72h1.72c1.33,0,2.05.66,2.05,1.84s-.72,1.81-2.05,1.81h-1.72v9.29c0,1.66-.72,2.38-2.05,2.38-1.57,0-2.17-1.03-2.17-2.38h-.01ZM62.13,167.23v-11.46c0-1.27.6-2.05,2.17-2.05s2.17.78,2.17,2.05v11.46c0,1.27-.6,2.05-2.17,2.05s-2.17-.78-2.17-2.05Z"/>
    </g>
    <g class="cls-3">
      <path class="cls-4" d="M69.76,167.23v-11.43c0-1.45.72-2.08,2.17-2.08s2.05.57,2.05,1.99c.72-1.33,2.11-1.99,3.92-1.99s2.59.72,2.59,2.26c0,1.15-.78,1.69-2.72,1.69-2.87,0-3.68.63-3.68,3.14v6.43c0,1.39-.72,2.05-2.17,2.05s-2.17-.66-2.17-2.05h.01Z"/>
    </g>
    <g class="cls-3">
      <path class="cls-4" d="M80.74,166.78c0-1.03.6-1.69,1.54-1.69.39,0,.6.06,1.72.42.48.15,1.39.36,2.14.36,1.45,0,1.99-.33,1.99-1.18,0-1.03-.42-1.15-3.71-2.11-2.02-.57-3.35-2.08-3.35-4.25,0-3.05,2.35-4.71,6.21-4.71,2.9,0,4.65.81,4.65,2.35,0,.97-.6,1.69-1.57,1.69-.39,0-.94-.12-1.69-.33-.57-.18-1.21-.33-1.87-.33-1,0-1.45.36-1.45,1.03,0,.81.6,1.27,2.78,1.9,2.99.88,4.34,2.26,4.34,4.68,0,2.81-2.29,4.68-6.06,4.68s-5.67-.88-5.67-2.5h0Z"/>
    </g>
    <g class="cls-3">
      <path class="cls-4" d="M96.43,163.88v-6.28h-.78c-1.33,0-2.05-.66-2.05-1.84s.72-1.81,2.05-1.81h.78v-3.26c0-1.33.9-2.26,2.23-2.26s2.11.84,2.11,2.2v1.48c0,.66-.15,1.42-.36,1.84h2.87c1.33,0,2.05.63,2.05,1.81s-.72,1.84-2.05,1.84h-2.5v6.37c0,1.21.24,1.66.91,1.66.84,0,1.09-.21,1.75-.21,1.09,0,1.78.27,1.78,1.45,0,1.66-1,2.41-3.29,2.41-3.74,0-5.49-1.72-5.49-5.4h-.01Z"/>
    </g>
    <g class="cls-3">
      <path class="cls-4" d="M113.11,161.5c0-5.49,2.65-7.78,6.97-7.78s6.97,2.29,6.97,7.78-2.65,7.78-6.97,7.78-6.97-2.29-6.97-7.78ZM122.7,161.5c0-3.32-.97-4.16-2.62-4.16s-2.62.84-2.62,4.16.97,4.16,2.62,4.16,2.62-.84,2.62-4.16Z"/>
    </g>
    <g class="cls-3">
      <path class="cls-4" d="M130.88,166.9v-9.29h-.42c-1.51,0-2.23-.63-2.23-1.81s.72-1.84,2.23-1.84h.42v-.12c0-4.68,1.99-7.78,6.12-7.78h.27c3.32.06,4.74.91,4.74,2.72,0,1.33-.75,1.63-1.99,1.63-1.09,0-1.66-.24-2.81-.33h-.18c-1.6,0-1.93,1.39-1.93,3.17v.72h1.72c1.33,0,2.05.66,2.05,1.84s-.72,1.81-2.05,1.81h-1.72v9.29c0,1.66-.72,2.38-2.05,2.38-1.57,0-2.17-1.03-2.17-2.38h0Z"/>
    </g>
    <g class="cls-3">
      <path class="cls-4" d="M142.76,166.9v-9.29h-.42c-1.51,0-2.23-.63-2.23-1.81s.72-1.84,2.23-1.84h.42v-.12c0-4.68,1.99-7.78,6.12-7.78h.27c3.32.06,4.74.91,4.74,2.72,0,1.33-.75,1.63-1.99,1.63-1.09,0-1.66-.24-2.81-.33h-.18c-1.6,0-1.93,1.39-1.93,3.17v.72h1.72c1.33,0,2.05.66,2.05,1.84s-.72,1.81-2.05,1.81h-1.72v9.29c0,1.66-.72,2.38-2.05,2.38-1.57,0-2.17-1.03-2.17-2.38h0Z"/>
    </g>
    <g class="cls-3">
      <path class="cls-4" d="M151.11,160.36c0-1.57.78-2.17,2.05-2.17h7.78c1.27,0,2.05.6,2.05,2.17s-.78,2.17-2.05,2.17h-7.78c-1.27,0-2.05-.6-2.05-2.17Z"/>
    </g>
    <g class="cls-3">
      <path class="cls-4" d="M165.09,161.53c0-4.68,2.32-7.81,7.24-7.81,3.11,0,4.46.54,4.46,2.2,0,1.18-.69,1.66-1.78,1.66-1.18,0-1.24-.33-2.78-.33-2.14,0-2.81,2.2-2.81,4.28s.36,4.22,2.84,4.22c1.54,0,2.05-.33,2.75-.33,1.09,0,1.78.27,1.78,1.45,0,1.66-1.36,2.41-4.46,2.41-4.92,0-7.24-3.08-7.24-7.75Z"/>
    </g>
    <g class="cls-3">
      <path class="cls-4" d="M178.36,164.25c0-3.5,3.02-5.1,8.72-4.62-.27-1.84-1.21-2.38-2.47-2.38-1.54,0-2.02.33-3.2.33-1.09,0-1.78-.27-1.78-1.45,0-1.66,1.36-2.41,4.46-2.41,4.92,0,7.24,3.02,7.24,7.69,0,5.4-1.72,7.87-6.58,7.87-4.01,0-6.4-2.05-6.4-5.04h0ZM185.02,165.97c1.51,0,1.87-.57,2.08-3.8-.21.21-.54.27-.87.27-2.66,0-3.53.39-3.53,1.81,0,1.12.79,1.72,2.32,1.72h0Z"/>
    </g>
    <g class="cls-3">
      <path class="cls-4" d="M194.22,167.23v-7.24c0-4.1,2.02-6.27,5.67-6.27,2.56,0,4.16.84,5.07,2.68.9-1.84,2.5-2.68,5.07-2.68,3.65,0,5.67,2.17,5.67,6.27v7.24c0,1.39-.69,2.05-2.17,2.05s-2.17-.66-2.17-2.05v-7c0-2.05-.66-2.9-2.11-2.9s-2.17.94-2.17,2.9v6.88c0,1.39-.69,2.05-2.11,2.05s-2.11-.66-2.11-2.05v-6.88c0-1.96-.66-2.9-2.17-2.9s-2.11.94-2.11,2.9v7c0,1.39-.69,2.05-2.17,2.05s-2.17-.66-2.17-2.05h-.02Z"/>
    </g>
    <g class="cls-3">
      <path class="cls-4" d="M218.92,173.63v-11.89c0-5.46,2.53-8.14,6.88-8.14s7.15,2.87,7.15,8.3-2.56,7.39-6.15,7.39c-2.11,0-3.41-.6-4.16-1.84.42,1.24.51,2.08.51,4.43v1.75c0,1.6-.63,2.35-2.02,2.35s-2.2-.81-2.2-2.35h0ZM228.7,161.5c0-3.29-1-4.25-2.68-4.25s-2.69.96-2.69,4.25,1,4.25,2.69,4.25,2.68-.97,2.68-4.25Z"/>
    </g>
    <g class="cls-3">
      <path class="cls-4" d="M235.85,162.74v-7.06c0-1.39.69-2.05,2.17-2.05s2.17.66,2.17,2.05v7c0,1.9.84,2.99,2.32,2.99s2.32-1.09,2.32-2.99v-7c0-1.39.69-2.05,2.17-2.05s2.17.66,2.17,2.05v7.06c0,3.95-2.65,6.55-6.67,6.55s-6.67-2.59-6.67-6.55h.02Z"/>
    </g>
    <g class="cls-3">
      <path class="cls-4" d="M251.75,166.78c0-1.03.6-1.69,1.54-1.69.39,0,.6.06,1.72.42.48.15,1.39.36,2.14.36,1.45,0,1.99-.33,1.99-1.18,0-1.03-.42-1.15-3.71-2.11-2.02-.57-3.35-2.08-3.35-4.25,0-3.05,2.35-4.71,6.21-4.71,2.9,0,4.65.81,4.65,2.35,0,.97-.6,1.69-1.57,1.69-.39,0-.93-.12-1.69-.33-.57-.18-1.21-.33-1.87-.33-1,0-1.45.36-1.45,1.03,0,.81.6,1.27,2.78,1.9,2.99.88,4.34,2.26,4.34,4.68,0,2.81-2.29,4.68-6.06,4.68s-5.67-.88-5.67-2.5h0Z"/>
    </g>
    <g class="cls-3">
      <path class="cls-4" d="M91.04,205.47c-1.39,0-2.23-.69-2.23-2.02v-18.85c0-1.57.75-2.35,2.2-2.35s2.17.79,2.17,2.35v3.23c0,1.15-.21,2.14-.78,3.26.69-.85,1.81-1.18,3.32-1.18,3.95,0,6.61,2.47,6.61,6.3v7.24c0,1.39-.69,2.02-2.11,2.02s-2.23-.69-2.23-2.02v-7.06c0-1.87-.9-2.87-2.44-2.87s-2.38,1.03-2.38,2.87v7.06c0,1.39-.69,2.02-2.11,2.02h-.02Z"/>
    </g>
    <g class="cls-3">
      <path class="cls-4" d="M104.59,200.44c0-3.5,3.02-5.1,8.72-4.62-.27-1.84-1.21-2.38-2.47-2.38-1.54,0-2.02.33-3.2.33-1.09,0-1.78-.27-1.78-1.45,0-1.66,1.36-2.41,4.46-2.41,4.92,0,7.24,3.02,7.24,7.69,0,5.4-1.72,7.87-6.58,7.87-4.01,0-6.4-2.05-6.4-5.04h.01ZM111.25,202.16c1.51,0,1.87-.57,2.08-3.8-.21.21-.54.27-.88.27-2.65,0-3.53.39-3.53,1.81,0,1.12.78,1.72,2.32,1.72h0Z"/>
    </g>
    <g class="cls-3">
      <path class="cls-4" d="M119.67,197.72c0-4.68,2.32-7.81,7.24-7.81,3.11,0,4.46.54,4.46,2.2,0,1.18-.69,1.66-1.78,1.66-1.18,0-1.24-.33-2.78-.33-2.14,0-2.81,2.2-2.81,4.28s.36,4.22,2.84,4.22c1.54,0,2.05-.33,2.75-.33,1.09,0,1.78.27,1.78,1.45,0,1.66-1.36,2.41-4.46,2.41-4.92,0-7.24-3.08-7.24-7.75Z"/>
    </g>
    <g class="cls-3">
      <path class="cls-4" d="M134.36,203.12v-18.52c0-1.45.6-2.35,2.17-2.35s2.17.91,2.17,2.35v11.22c2.14-1.3,3.92-3.05,4.53-4.53.57-1.36,1.69-1.9,2.93-1.3.81.39,1.27,1.09,1.21,1.93-.06,1.45-1.48,3.47-3.32,4.74,2.32.81,3.89,2.78,3.89,6.76,0,1.39-.75,2.05-2.14,2.05s-2.2-.66-2.2-2.05c0-2.93-1-4.25-2.53-4.25-1.42,0-2.35.94-2.35,3.5,0,2.32-.66,2.8-2.17,2.8s-2.17-.9-2.17-2.35h-.02Z"/>
    </g>
    <g class="cls-3">
      <path class="cls-4" d="M149.99,200.44c0-3.5,3.02-5.1,8.72-4.62-.27-1.84-1.21-2.38-2.47-2.38-1.54,0-2.02.33-3.2.33-1.09,0-1.78-.27-1.78-1.45,0-1.66,1.36-2.41,4.46-2.41,4.92,0,7.24,3.02,7.24,7.69,0,5.4-1.72,7.87-6.58,7.87-4.01,0-6.4-2.05-6.4-5.04h0ZM156.65,202.16c1.51,0,1.87-.57,2.08-3.8-.21.21-.54.27-.87.27-2.65,0-3.53.39-3.53,1.81,0,1.12.78,1.72,2.32,1.72h0Z"/>
    </g>
    <g class="cls-3">
      <path class="cls-4" d="M166.79,200.08v-6.28h-.79c-1.33,0-2.05-.66-2.05-1.84s.72-1.81,2.05-1.81h.79v-3.26c0-1.33.9-2.26,2.23-2.26s2.11.84,2.11,2.2v1.48c0,.66-.15,1.42-.36,1.84h2.87c1.33,0,2.05.63,2.05,1.81s-.72,1.84-2.05,1.84h-2.5v6.37c0,1.21.24,1.66.91,1.66.84,0,1.09-.21,1.75-.21,1.09,0,1.78.27,1.78,1.45,0,1.66-1,2.41-3.29,2.41-3.74,0-5.49-1.72-5.49-5.4h0Z"/>
    </g>
    <g class="cls-3">
      <path class="cls-4" d="M180.78,205.47c-1.39,0-2.23-.69-2.23-2.02v-18.85c0-1.57.75-2.35,2.2-2.35s2.17.79,2.17,2.35v3.23c0,1.15-.21,2.14-.78,3.26.69-.85,1.81-1.18,3.32-1.18,3.95,0,6.61,2.47,6.61,6.3v7.24c0,1.39-.69,2.02-2.11,2.02s-2.23-.69-2.23-2.02v-7.06c0-1.87-.91-2.87-2.44-2.87s-2.38,1.03-2.38,2.87v7.06c0,1.39-.69,2.02-2.11,2.02h-.02Z"/>
      <path class="cls-4" d="M194.96,197.69c0-5.49,2.66-7.78,6.97-7.78s6.97,2.29,6.97,7.78-2.65,7.78-6.97,7.78-6.97-2.29-6.97-7.78ZM204.55,197.69c0-3.32-.97-4.16-2.62-4.16s-2.62.84-2.62,4.16.96,4.16,2.62,4.16,2.62-.85,2.62-4.16Z"/>
    </g>
    <g class="cls-3">
      <path class="cls-4" d="M211.79,203.42v-7.24c0-3.86,2.68-6.27,6.76-6.27s6.76,2.41,6.76,6.27v7.24c0,1.39-.69,2.05-2.17,2.05s-2.17-.66-2.17-2.05v-7c0-1.9-.88-2.9-2.41-2.9s-2.41,1-2.41,2.9v7c0,1.39-.69,2.05-2.17,2.05s-2.17-.66-2.17-2.05h-.02Z"/>
    </g>
    <g class="cls-3">
      <path class="cls-4" d="M227.26,203.12c0-1.42.94-2.38,2.38-2.38s2.38.97,2.38,2.38-.97,2.35-2.38,2.35-2.38-.96-2.38-2.35Z"/>
    </g>
  </g>
  <g class="cls-3">
    <g class="cls-3">
      <path class="cls-4" d="M120.48,60.18c0-4.31,1.61-6.69,6.21-8.08,3.73-1.21,4.97-1.79,4.97-5.26,0-1.61-.8-3-3.11-3-1.35,0-2.92.29-4.24.29-1.97,0-2.82-.69-2.82-2.23,0-.99.48-1.68,1.54-2.08,1.24-.51,3.03-.8,4.9-.8,5.59,0,8.96,2.92,8.96,7.79,0,5.45-1.97,7.93-7.68,9.62-2.71.8-3.51,1.46-3.51,3.11v1.13c.44-.44,1.17-.73,1.94-.73h6.54c1.79,0,2.81.91,2.81,2.56s-.99,2.52-2.81,2.52h-11.15c-2.78,0-2.56-2.85-2.56-4.83h0Z"/>
    </g>
    <g class="cls-3">
      <path class="cls-4" d="M140.37,52.17c0-9.54,3.36-13.16,9.32-13.16s9.32,3.62,9.32,13.16-3.44,13.13-9.32,13.13-9.32-3.58-9.32-13.13ZM153.53,52.17c0-6.76-1.17-8.33-3.84-8.33s-3.84,1.57-3.84,8.33,1.17,8.3,3.84,8.3,3.84-1.54,3.84-8.3Z"/>
    </g>
    <g class="cls-3">
      <path class="cls-4" d="M161.93,60.18c0-4.31,1.61-6.69,6.21-8.08,3.73-1.21,4.97-1.79,4.97-5.26,0-1.61-.8-3-3.11-3-1.35,0-2.92.29-4.24.29-1.97,0-2.81-.69-2.81-2.23,0-.99.47-1.68,1.54-2.08,1.24-.51,3.04-.8,4.9-.8,5.59,0,8.96,2.92,8.96,7.79,0,5.45-1.97,7.93-7.68,9.62-2.71.8-3.51,1.46-3.51,3.11v1.13c.44-.44,1.17-.73,1.94-.73h6.54c1.79,0,2.82.91,2.82,2.56s-.99,2.52-2.82,2.52h-11.15c-2.78,0-2.56-2.85-2.56-4.83h0Z"/>
    </g>
    <g class="cls-3">
      <path class="cls-4" d="M181.61,62.33c0-1.68.8-2.56,2.6-2.56,1.21,0,3.4.8,4.79.8,2.52,0,4.31-.99,4.31-3.25,0-3.44-2.67-3.69-4.35-3.69h-3.98c-1.5,0-2.41-1.02-2.45-2.05l.99-8.7c.22-1.9.8-3.47,2.56-3.47h8.88c1.83,0,2.82.69,2.82,2.34s-1.02,2.74-2.82,2.74h-4.57c-.84,0-1.79-.4-2.38-1.1,0-.07-.73,6-.73,6,6-.07,11.3.51,11.3,7.93,0,5.12-3.95,7.97-9.69,7.97-2.23,0-7.28-.18-7.28-2.96Z"/>
    </g>
  </g>
</svg>