<?xml version="1.0" encoding="UTF-8"?>
<svg id="Layer_1" xmlns="http://www.w3.org/2000/svg" viewBox="0 0 310.85 348.88">
  <defs>
    <style>
      .cls-1 {
        fill: #d1cc9d;
        stroke-width: 4px;
      }

      .cls-1, .cls-2 {
        stroke: #c1c09d;
        stroke-miterlimit: 10;
      }

      .cls-2 {
        fill: none;
        isolation: isolate;
        opacity: .5;
        stroke-width: 2px;
      }

      .cls-3 {
        letter-spacing: 0em;
      }

      .cls-4 {
        fill: #fff;
        font-family: MadimiOne-Regular, 'Madimi One';
        font-size: 43.93px;
      }

      .cls-5 {
        letter-spacing: -.02em;
      }

      .cls-6 {
        letter-spacing: -.02em;
      }

      .cls-7 {
        letter-spacing: -.03em;
      }

      .cls-8 {
        letter-spacing: 0em;
      }

      .cls-9 {
        letter-spacing: 0em;
      }

      .cls-10 {
        letter-spacing: 0em;
      }

      .cls-11 {
        letter-spacing: 0em;
      }

      .cls-12 {
        letter-spacing: 0em;
      }

      .cls-13 {
        letter-spacing: .03em;
      }
    </style>
  </defs>
  <path class="cls-1" d="M287.11,299.61l-159.61,46.76c-7.87,2.3-16.55-3.46-19.29-12.81l31.88-68.88,88.21-25.85,68.15,39.57c2.74,9.36-1.46,18.89-9.33,21.21h-.01Z"/>
  <path class="cls-1" d="M308.43,114.5c5.99,20.46-54.23,168.41-65.95,175.87-12.17,7.75-25.62,13.95-40.16,18.2-13.1,3.84-26.29,5.88-39.32,6.28-16.93.52-149.42-94.54-154.66-112.43C-3.24,162.86,1.53,122.4,18.66,88.27,37.45,50.87,71.11,21.04,114.44,8.35c2.14-.63,4.29-1.21,6.45-1.75,80.88-20.05,163.9,27.13,187.54,107.89h0Z"/>
  <path class="cls-2" d="M172.95,314.74L13.66,192.59"/>
  <path class="cls-2" d="M180.59,316.24L28.1,131.62"/>
  <path class="cls-2" d="M208.33,310.07L119.44,33.63"/>
  <path class="cls-2" d="M231.36,300.5l10.38-228.81"/>
  <path class="cls-2" d="M243.07,296.23l44.61-175.74"/>
  <path class="cls-2" d="M194.7,312.47L41.45,92.42"/>
  <path class="cls-2" d="M223.55,304.78L189.48,39.69"/>
  <path class="cls-2" d="M198.11,312.81L84.03,66.93"/>
  <path class="cls-2" d="M218.65,307.63L160.42,28.88"/>
  <text class="cls-4" transform="translate(37.7 143.77) scale(1.02 1)"><tspan class="cls-8" x="0" y="0">C</tspan><tspan class="cls-3" x="23.15" y="0">R</tspan><tspan class="cls-5" x="49.11" y="0">U</tspan><tspan class="cls-6" x="76.39" y="0">Z</tspan><tspan class="cls-12" x="102.83" y="0">H</tspan><tspan x="131.65" y="0">A</tspan><tspan class="cls-10" x="158.14" y="0">C</tspan><tspan x="181.42" y="0">KS </tspan><tspan class="cls-11" x="58.25" y="52.71">2</tspan><tspan class="cls-7" x="82.93" y="52.71">0</tspan><tspan class="cls-9" x="108.06" y="52.71">2</tspan><tspan x="132.44" y="52.71">6</tspan><tspan class="cls-13" x="157.65" y="52.71">!</tspan><tspan x="171.09" y="52.71">!</tspan></text>
</svg>