<?xml version="1.0" encoding="UTF-8"?>
<svg id="Layer_1" xmlns="http://www.w3.org/2000/svg" viewBox="0 0 310.85 348.88">
  <defs>
    <style>
      .cls-1 {
        fill: #d1cc9d;
        stroke-width: 4px;
      }

      .cls-1, .cls-2 {
        stroke: #c1c09d;
        stroke-miterlimit: 10;
      }

      .cls-3, .cls-2 {
        isolation: isolate;
      }

      .cls-2 {
        fill: none;
        opacity: .5;
        stroke-width: 2px;
      }

      .cls-4 {
        fill: #fff;
      }
    </style>
  </defs>
  <path class="cls-1" d="M287.11,299.61l-159.61,46.76c-7.87,2.3-16.55-3.46-19.29-12.81l31.88-68.88,88.21-25.85,68.15,39.57c2.74,9.36-1.46,18.89-9.33,21.21h-.01Z"/>
  <path class="cls-1" d="M308.43,114.5c5.99,20.46-54.23,168.41-65.95,175.87-12.17,7.75-25.62,13.95-40.16,18.2-13.1,3.84-26.29,5.88-39.32,6.28-16.93.52-149.42-94.54-154.66-112.43C-3.24,162.86,1.53,122.4,18.66,88.27,37.45,50.87,71.11,21.04,114.44,8.35c2.14-.63,4.29-1.21,6.45-1.75,80.88-20.05,163.9,27.13,187.54,107.89h0Z"/>
  <path class="cls-2" d="M172.95,314.74L13.66,192.59"/>
  <path class="cls-2" d="M180.59,316.24L28.1,131.62"/>
  <path class="cls-2" d="M208.33,310.07L119.44,33.63"/>
  <path class="cls-2" d="M231.36,300.5l10.38-228.81"/>
  <path class="cls-2" d="M243.07,296.23l44.61-175.74"/>
  <path class="cls-2" d="M194.7,312.47L41.45,92.42"/>
  <path class="cls-2" d="M223.55,304.78L189.48,39.69"/>
  <path class="cls-2" d="M198.11,312.81L84.03,66.93"/>
  <path class="cls-2" d="M218.65,307.63L160.42,28.88"/>
  <g class="cls-3">
    <g class="cls-3">
      <path class="cls-4" d="M51.73,138.28c2.15,0,3.72-.48,5.02-.48,2.38,0,3.41,1.1,3.41,2.59,0,2.99-3.81,3.69-7.3,3.69-9.68,0-13-5.27-13-15.55s3.32-15.99,13-15.99c3.5,0,7.3.7,7.3,3.69,0,1.49-1.03,2.59-3.41,2.59-1.3,0-2.87-.48-5.02-.48-4.21,0-5.15,3.21-5.15,10.19s1.75,9.75,5.15,9.75Z"/>
    </g>
    <g class="cls-3">
      <path class="cls-4" d="M64.32,141.4v-18.98c0-6.81,3.54-9.88,11.38-9.88,6.41,0,9.86,3.21,9.86,9.14,0,2.06-.13,4.22-.36,4.96-.45,1.58-1.3,2.86-2.46,3.69,1.57,1.27,2.42,2.9,2.42,4.57v6.5c0,1.76-1.03,2.72-3.09,2.72s-3.32-.92-3.32-2.72v-5.8c0-3.16-.72-4.31-3.72-4.31-3.23,0-4.26,1.14-4.26,4.83v5.27c0,1.8-1.03,2.64-3.14,2.64s-3.32-.92-3.32-2.64h.01ZM74.94,126.2c4.48,0,4.97-.35,4.97-3.34,0-3.95-1.08-5.32-4.21-5.32-3.54,0-4.84,1.41-4.84,5.32,0,1.93-.13,3.29-.45,4.83,1.48-1.23,2.29-1.49,4.53-1.49Z"/>
    </g>
    <g class="cls-3">
      <path class="cls-4" d="M90.8,133.45v-17.48c0-2.28,1.08-3.43,3.23-3.43s3.23,1.14,3.23,3.43v17.48c0,3.69,1.75,5.32,4.66,5.32,3.54,0,5.38-1.71,5.38-5.32v-17.48c0-2.28,1.08-3.43,3.23-3.43s3.23,1.14,3.23,3.43v17.48c0,7.07-4.08,10.68-11.83,10.68-7.22,0-11.11-3.51-11.11-10.68h-.02Z"/>
    </g>
    <g class="cls-3">
      <path class="cls-4" d="M118.49,140.92c0-.7.13-1.19.99-2.81,1.17-2.24,3.9-6.06,10.58-17.13,1.21-2.02,2.06-2.15,1.97-2.15h-10.85c-1.52,0-2.6-1.27-2.55-2.99.09-1.85,1.39-2.81,3.18-2.81h15.15c2.11,0,3.18,1.32,3.09,3.08,0,.75-.94,2.24-2.51,4.79l-9.1,14.63c-.9,1.41-2.51,2.15-2.38,2.15h12.01c1.52,0,2.6,1.36,2.55,3.16-.04,1.76-1.17,2.94-2.78,2.94h-16.58c-1.66,0-2.78-1.45-2.78-2.86h.01Z"/>
    </g>
    <g class="cls-3">
      <path class="cls-4" d="M145.81,141.18v-25.7c0-2.06.99-2.94,3.18-2.94s3.27.97,3.27,2.94v4.39c0,3.73-.09,5.75-.31,6.5,1.52-1.49,3.09-2.02,6.05-2.02h4.39v-8.87c0-2.06.99-2.94,3.18-2.94s3.27.97,3.27,2.94v25.7c0,2.02-.94,2.94-3.14,2.94s-3.32-.92-3.32-2.94v-13c-.36,1.05-2.55,1.8-5.2,1.8-3.77,0-4.93,1.23-4.93,5.23v5.97c0,2.02-.94,2.94-3.14,2.94s-3.32-.92-3.32-2.94h.02Z"/>
    </g>
    <g class="cls-3">
      <path class="cls-4" d="M178.3,144.12c-2.06,0-3.32-1.01-3.32-2.94v-17.4c0-8.08,3.23-11.25,10.35-11.25s10.67,3.29,10.67,11.25v17.4c0,2.02-1.03,2.94-3.14,2.94s-3.32-1.01-3.32-2.94v-10.59c-1.12,1.01-2.42,1.8-4.21,1.8-2.64,0-3.9.79-3.9,3.21v5.58c0,2.02-1.03,2.94-3.14,2.94h.01ZM185.34,126.82c3.41,0,4.26-.53,4.26-3.47,0-4.31-1.08-5.67-4.3-5.67-3,0-3.9,1.41-3.9,5.84,0,2.28-.04,3.87-.22,4.79.94-.92,2.24-1.49,4.17-1.49h0Z"/>
    </g>
    <g class="cls-3">
      <path class="cls-4" d="M213.03,138.28c2.15,0,3.72-.48,5.02-.48,2.38,0,3.41,1.1,3.41,2.59,0,2.99-3.81,3.69-7.3,3.69-9.68,0-13-5.27-13-15.55s3.32-15.99,13-15.99c3.5,0,7.3.7,7.3,3.69,0,1.49-1.03,2.59-3.41,2.59-1.3,0-2.87-.48-5.02-.48-4.21,0-5.15,3.21-5.15,10.19s1.75,9.75,5.15,9.75Z"/>
    </g>
    <g class="cls-3">
      <path class="cls-4" d="M240.76,141.05v-6.81c0-2.81-1.03-4.26-3.85-4.26-3.05,0-4.48,1.1-4.48,4.13v6.59c0,2.28-1.08,3.43-3.23,3.43s-3.23-1.14-3.23-3.43v-24.73c0-2.28,1.08-3.43,3.23-3.43s3.23,1.14,3.23,3.43v10.32c.85-.83,1.43-1.14,3.54-1.76,2.96-.83,3.94-3.12,3.94-8.92,0-2.15.9-3.08,3-3.08,2.24,0,3.32,1.05,3.32,3.29,0,5.84-1.21,9.4-3.85,11.38,3.14,1.32,4.8,3.82,4.8,7.12v6.72c0,1.98-1.08,3.08-3.05,3.08-2.24,0-3.36-1.01-3.36-3.08h0Z"/>
      <path class="cls-4" d="M253.44,143.16c-1.25-.48-1.88-1.27-1.88-2.5,0-1.71.99-2.81,3.27-2.81,1.52,0,4.08.62,5.74.62,3.67,0,5.2-.7,5.2-3.56,0-1.71-.94-2.77-4.57-3.82-6.63-1.93-9.41-4.61-9.41-9.18,0-5.93,4.44-9.36,10.67-9.36,2.29,0,4.48.35,6,.97,1.26.48,1.88,1.27,1.88,2.5,0,1.71-.99,2.81-3.27,2.81-1.52,0-3.32-.48-4.97-.48-2.6,0-3.9.83-3.9,2.86,0,1.89,1.52,3.34,6.5,4.79,5.65,1.67,7.48,4.35,7.48,8.61,0,6.19-4.39,9.53-12.1,9.53-2.29,0-5.11-.35-6.63-.97h-.01Z"/>
    </g>
    <g class="cls-3">
      <path class="cls-4" d="M100.07,190.68c0-5.18,1.97-8.04,7.62-9.71,4.57-1.45,6.1-2.15,6.1-6.33,0-1.93-.99-3.6-3.81-3.6-1.66,0-3.58.35-5.2.35-2.42,0-3.45-.83-3.45-2.68,0-1.19.58-2.02,1.88-2.5,1.52-.62,3.72-.97,6.01-.97,6.86,0,10.98,3.51,10.98,9.36,0,6.55-2.42,9.53-9.41,11.55-3.32.97-4.3,1.76-4.3,3.73v1.36c.54-.53,1.43-.88,2.38-.88h8.02c2.2,0,3.45,1.1,3.45,3.08s-1.21,3.03-3.45,3.03h-13.67c-3.41,0-3.14-3.43-3.14-5.8h-.01Z"/>
    </g>
    <g class="cls-3">
      <path class="cls-4" d="M124.44,181.06c0-11.47,4.12-15.81,11.43-15.81s11.43,4.35,11.43,15.81-4.21,15.77-11.43,15.77-11.43-4.31-11.43-15.77ZM140.57,181.06c0-8.13-1.43-10.02-4.71-10.02s-4.71,1.89-4.71,10.02,1.43,9.97,4.71,9.97,4.71-1.85,4.71-9.97Z"/>
    </g>
    <g class="cls-3">
      <path class="cls-4" d="M150.88,190.68c0-5.18,1.97-8.04,7.62-9.71,4.57-1.45,6.09-2.15,6.09-6.33,0-1.93-.99-3.6-3.81-3.6-1.66,0-3.58.35-5.2.35-2.42,0-3.45-.83-3.45-2.68,0-1.19.58-2.02,1.88-2.5,1.52-.62,3.72-.97,6.01-.97,6.86,0,10.98,3.51,10.98,9.36,0,6.55-2.42,9.53-9.41,11.55-3.32.97-4.3,1.76-4.3,3.73v1.36c.54-.53,1.43-.88,2.38-.88h8.02c2.2,0,3.45,1.1,3.45,3.08s-1.21,3.03-3.45,3.03h-13.67c-3.41,0-3.14-3.43-3.14-5.8h0Z"/>
    </g>
    <g class="cls-3">
      <path class="cls-4" d="M174.94,183.74c0-9.09,3.23-18.49,12.95-18.49,4.53,0,6.05.79,6.05,3.12,0,1.89-1.3,2.59-3.81,2.59-5.11,0-7.13,1.49-7.71,5.23,1.03-.66,2.38-1.05,4.21-1.05,5.78,0,9.81,3.21,9.81,10.67,0,7.86-5.02,11.03-10.17,11.03-5.6,0-11.34-3.38-11.34-13.09h0ZM190.27,185.81c0-2.72-.9-5.4-4.08-5.4s-4.3,2.68-4.3,5.4,1.12,5.23,4.3,5.23,4.08-2.55,4.08-5.23Z"/>
    </g>
    <g class="cls-3">
      <path class="cls-4" d="M201.19,193.41c0-2.06,1.39-3.47,3.54-3.47s3.54,1.41,3.54,3.47-1.43,3.43-3.54,3.43-3.54-1.41-3.54-3.43ZM201.51,184.31v-16.08c0-1.85.9-2.99,3.23-2.99s3.23,1.14,3.23,2.99v16.08c0,1.84-.9,2.99-3.23,2.99s-3.23-1.14-3.23-2.99Z"/>
    </g>
    <g class="cls-3">
      <path class="cls-4" d="M214.9,193.41c0-2.06,1.39-3.47,3.54-3.47s3.54,1.41,3.54,3.47-1.43,3.43-3.54,3.43-3.54-1.41-3.54-3.43ZM215.22,184.31v-16.08c0-1.85.9-2.99,3.23-2.99s3.23,1.14,3.23,2.99v16.08c0,1.84-.9,2.99-3.23,2.99s-3.23-1.14-3.23-2.99Z"/>
    </g>
  </g>
</svg>