<svg width="311" height="350" viewBox="0 0 311 350" fill="none" xmlns="http://www.w3.org/2000/svg">
<path d="M183.259 347.45L23.9574 299.655C16.108 297.304 11.9618 287.728 14.7669 278.386L79.002 238.013L167.044 264.428L202.625 334.759C199.82 344.102 191.109 349.813 183.259 347.45Z" fill="#D1CC9D" stroke="#C1C09D" stroke-width="4" stroke-miterlimit="10"/>
<path d="M301.973 203.857C295.846 224.277 164.78 315.496 150.89 315.373C136.458 315.25 121.817 313.096 107.3 308.751C94.2336 304.825 82.0534 299.347 70.9066 292.578C56.4381 283.777 -2.88798 131.838 2.45161 114.003C14.2873 74.5292 40.3209 43.1913 73.2812 23.9159C109.416 2.79419 153.879 -3.86481 197.125 9.12085C199.266 9.7609 201.382 10.4502 203.474 11.1764C282.214 38.4524 326.124 123.284 301.961 203.881L301.973 203.857Z" fill="#D1CC9D" stroke="#C1C09D" stroke-width="4" stroke-miterlimit="10"/>
<path opacity="0.5" d="M76.8246 298.67L13.3154 117.302" stroke="#C1C09D" stroke-width="2" stroke-miterlimit="10"/>
<path opacity="0.5" d="M82.4101 303.778L60.9902 74.3936" stroke="#C1C09D" stroke-width="2" stroke-miterlimit="10"/>
<path opacity="0.5" d="M109.44 312.751L195.181 39.9541" stroke="#C1C09D" stroke-width="2" stroke-miterlimit="10"/>
<path opacity="0.5" d="M134.478 316.53L276.383 133.291" stroke="#C1C09D" stroke-width="2" stroke-miterlimit="10"/>
<path opacity="0.5" d="M146.867 318.955L286.816 196.779" stroke="#C1C09D" stroke-width="2" stroke-miterlimit="10"/>
<path opacity="0.5" d="M96.522 307.828L95.0825 48.8652" stroke="#C1C09D" stroke-width="2" stroke-miterlimit="10"/>
<path opacity="0.5" d="M125.385 316.099L250.841 80.437" stroke="#C1C09D" stroke-width="2" stroke-miterlimit="10"/>
<path opacity="0.5" d="M99.2163 309.822L145.895 49.4438" stroke="#C1C09D" stroke-width="2" stroke-miterlimit="10"/>
<path opacity="0.5" d="M119.578 315.964L232.571 56.8047" stroke="#C1C09D" stroke-width="2" stroke-miterlimit="10"/>
<path d="M137.44 68C136.693 68 136.12 67.8267 135.72 67.48C135.32 67.1333 135.04 66.6933 134.88 66.16C134.747 65.6267 134.667 65.0533 134.64 64.44C134.64 63.8267 134.64 63.2533 134.64 62.72C134.64 60.3467 135.147 58.4667 136.16 57.08C137.173 55.6933 138.933 54.6267 141.44 53.88C142.8 53.4267 143.867 53.0133 144.64 52.64C145.44 52.24 146.013 51.7067 146.36 51.04C146.707 50.3467 146.88 49.3733 146.88 48.12C146.88 47.24 146.627 46.48 146.12 45.84C145.613 45.1733 144.733 44.84 143.48 44.84C142.733 44.84 141.947 44.8933 141.12 45C140.32 45.1067 139.56 45.16 138.84 45.16C137.773 45.16 136.987 44.96 136.48 44.56C136 44.16 135.76 43.5467 135.76 42.72C135.76 41.6267 136.32 40.8667 137.44 40.44C138.853 39.8533 140.64 39.56 142.8 39.56C145.867 39.56 148.267 40.32 150 41.84C151.733 43.3333 152.6 45.4133 152.6 48.08C152.6 50.0533 152.333 51.7067 151.8 53.04C151.267 54.3733 150.387 55.48 149.16 56.36C147.933 57.24 146.28 57.9867 144.2 58.6C142.733 59.0267 141.72 59.48 141.16 59.96C140.627 60.4133 140.36 61.0933 140.36 62V63.24C140.893 62.7067 141.6 62.44 142.48 62.44H149.64C150.627 62.44 151.387 62.68 151.92 63.16C152.453 63.64 152.72 64.3333 152.72 65.24C152.72 67.08 151.693 68 149.64 68H137.44ZM166.62 68.32C164.487 68.32 162.647 67.8533 161.1 66.92C159.58 65.96 158.42 64.4267 157.62 62.32C156.82 60.2133 156.42 57.4267 156.42 53.96C156.42 50.4667 156.82 47.6667 157.62 45.56C158.42 43.4533 159.58 41.9333 161.1 41C162.62 40.04 164.46 39.56 166.62 39.56C168.807 39.56 170.647 40.04 172.14 41C173.66 41.9333 174.82 43.4533 175.62 45.56C176.42 47.6667 176.82 50.4667 176.82 53.96C176.82 57.4267 176.42 60.2133 175.62 62.32C174.82 64.4267 173.66 65.96 172.14 66.92C170.62 67.8533 168.78 68.32 166.62 68.32ZM166.62 63.04C167.607 63.04 168.407 62.8 169.02 62.32C169.633 61.84 170.087 60.9467 170.38 59.64C170.673 58.3067 170.82 56.4133 170.82 53.96C170.82 51.48 170.673 49.5867 170.38 48.28C170.087 46.9733 169.633 46.08 169.02 45.6C168.407 45.0933 167.607 44.84 166.62 44.84C165.66 44.84 164.86 45.0933 164.22 45.6C163.607 46.08 163.153 46.9733 162.86 48.28C162.567 49.5867 162.42 51.48 162.42 53.96C162.42 56.4133 162.567 58.3067 162.86 59.64C163.153 60.9467 163.607 61.84 164.22 62.32C164.86 62.8 165.66 63.04 166.62 63.04ZM185.941 68.32C183.968 68.32 182.981 67.4267 182.981 65.64V45.28H180.741C179.915 45.28 179.288 45.0133 178.861 44.48C178.461 43.92 178.261 43.3067 178.261 42.64C178.261 41.9733 178.461 41.3733 178.861 40.84C179.288 40.28 179.915 40 180.741 40H185.821C187.768 40 188.741 40.8933 188.741 42.68V65.64C188.741 66.5467 188.515 67.2267 188.061 67.68C187.635 68.1067 186.928 68.32 185.941 68.32ZM194.787 60.8C193.961 60.8 193.227 60.64 192.587 60.32C191.974 60 191.667 59.52 191.667 58.88C191.667 58.6133 191.721 58.36 191.827 58.12L197.707 41.6C197.974 40.88 198.374 40.36 198.907 40.04C199.467 39.72 200.041 39.56 200.627 39.56C201.561 39.56 202.267 39.8667 202.747 40.48C203.254 41.0667 203.361 41.7867 203.067 42.64L198.427 55.76C198.987 55.4133 199.561 55.24 200.147 55.24H204.067V52.08C204.067 51.1467 204.294 50.4667 204.747 50.04C205.201 49.6133 205.921 49.4 206.907 49.4C208.854 49.4 209.827 50.2933 209.827 52.08V55.24H210.987C211.974 55.24 212.734 55.48 213.267 55.96C213.801 56.44 214.067 57.1333 214.067 58.04C214.067 59.88 213.041 60.8 210.987 60.8H209.827V65.64C209.827 67.4267 208.894 68.32 207.027 68.32C206.121 68.32 205.401 68.1067 204.867 67.68C204.334 67.2267 204.067 66.5467 204.067 65.64V60.8H194.787Z" fill="white"/>
<path d="M65.1095 137.256C63.5308 137.256 62.7415 136.541 62.7415 135.112V116.392C62.7415 115.645 62.9228 115.101 63.2855 114.76C63.6482 114.419 64.2242 114.248 65.0135 114.248C66.5708 114.248 67.3495 114.963 67.3495 116.392V119.592C67.3495 122.237 67.2748 123.816 67.1255 124.328C67.6802 123.773 68.2775 123.389 68.9175 123.176C69.5575 122.963 70.4002 122.856 71.4455 122.856H74.5815V116.392C74.5815 115.645 74.7628 115.101 75.1255 114.76C75.4882 114.419 76.0642 114.248 76.8535 114.248C78.4108 114.248 79.1895 114.963 79.1895 116.392V135.112C79.1895 135.837 79.0082 136.381 78.6455 136.744C78.3042 137.085 77.7388 137.256 76.9495 137.256C75.3708 137.256 74.5815 136.541 74.5815 135.112V125.64C74.4535 126.024 74.0375 126.344 73.3335 126.6C72.6295 126.835 71.8082 126.952 70.8695 126.952C69.5255 126.952 68.5975 127.229 68.0855 127.784C67.5948 128.317 67.3495 129.309 67.3495 130.76V135.112C67.3495 135.837 67.1682 136.381 66.8055 136.744C66.4642 137.085 65.8988 137.256 65.1095 137.256ZM88.8988 137.256C86.7654 137.256 85.1014 136.765 83.9068 135.784C82.7121 134.781 82.1148 133.491 82.1148 131.912C82.1148 130.056 82.8934 128.712 84.4508 127.88C86.0294 127.048 88.3334 126.76 91.3628 127.016C91.2134 126.035 90.9041 125.373 90.4348 125.032C89.9654 124.669 89.4001 124.488 88.7388 124.488C88.2054 124.488 87.7574 124.52 87.3948 124.584C87.0534 124.627 86.7334 124.68 86.4348 124.744C86.1361 124.808 85.7734 124.84 85.3468 124.84C84.7708 124.84 84.3121 124.744 83.9708 124.552C83.6294 124.339 83.4588 123.923 83.4588 123.304C83.4588 122.429 83.8321 121.789 84.5788 121.384C85.3468 120.957 86.5521 120.744 88.1948 120.744C90.7974 120.744 92.7281 121.491 93.9868 122.984C95.2454 124.456 95.8748 126.429 95.8748 128.904C95.8748 131.763 95.3521 133.875 94.3068 135.24C93.2828 136.584 91.4801 137.256 88.8988 137.256ZM86.7228 131.912C86.7228 133.128 87.5441 133.736 89.1868 133.736C89.7201 133.736 90.1361 133.64 90.4348 133.448C90.7334 133.256 90.9468 132.872 91.0748 132.296C91.2241 131.72 91.3308 130.856 91.3948 129.704C91.2881 129.811 91.1494 129.885 90.9788 129.928C90.8081 129.971 90.6374 129.992 90.4668 129.992C89.0588 129.992 88.0774 130.131 87.5228 130.408C86.9894 130.664 86.7228 131.165 86.7228 131.912ZM105.799 137.256C103.196 137.256 101.265 136.509 100.007 135.016C98.7478 133.501 98.1185 131.507 98.1185 129.032C98.1185 126.557 98.7478 124.563 100.007 123.048C101.265 121.512 103.196 120.744 105.799 120.744C107.441 120.744 108.636 120.915 109.383 121.256C110.151 121.597 110.535 122.205 110.535 123.08C110.535 123.699 110.364 124.147 110.023 124.424C109.681 124.701 109.223 124.84 108.647 124.84C108.241 124.84 107.921 124.808 107.687 124.744C107.452 124.68 107.196 124.627 106.919 124.584C106.663 124.52 106.257 124.488 105.703 124.488C104.956 124.488 104.359 124.712 103.911 125.16C103.484 125.608 103.175 126.184 102.983 126.888C102.812 127.571 102.727 128.285 102.727 129.032C102.727 129.757 102.791 130.472 102.919 131.176C103.068 131.859 103.356 132.424 103.783 132.872C104.209 133.299 104.86 133.512 105.735 133.512C106.545 133.512 107.143 133.459 107.527 133.352C107.911 133.224 108.284 133.16 108.647 133.16C109.223 133.16 109.681 133.267 110.023 133.48C110.364 133.672 110.535 134.077 110.535 134.696C110.535 135.571 110.151 136.221 109.383 136.648C108.636 137.053 107.441 137.256 105.799 137.256ZM116.005 137.256C115.173 137.256 114.576 137.032 114.213 136.584C113.872 136.136 113.701 135.528 113.701 134.76V115.112C113.701 114.344 113.872 113.736 114.213 113.288C114.576 112.84 115.173 112.616 116.005 112.616C116.837 112.616 117.424 112.84 117.765 113.288C118.128 113.736 118.309 114.344 118.309 115.112V127.016C119.44 126.333 120.443 125.565 121.317 124.712C122.192 123.837 122.789 123.005 123.109 122.216C123.408 121.491 123.835 121 124.389 120.744C124.944 120.488 125.552 120.52 126.213 120.84C127.131 121.288 127.557 121.971 127.493 122.888C127.472 123.656 127.12 124.52 126.437 125.48C125.776 126.419 124.955 127.229 123.973 127.912C125.211 128.339 126.203 129.117 126.949 130.248C127.717 131.357 128.101 132.968 128.101 135.08C128.101 136.531 127.344 137.256 125.829 137.256C124.272 137.256 123.493 136.531 123.493 135.08C123.493 133.523 123.248 132.381 122.757 131.656C122.267 130.931 121.616 130.568 120.805 130.568C120.059 130.568 119.451 130.845 118.981 131.4C118.533 131.955 118.309 132.915 118.309 134.28C118.309 135.517 118.128 136.328 117.765 136.712C117.403 137.075 116.816 137.256 116.005 137.256ZM146.424 137.256C143.842 137.256 141.869 136.616 140.504 135.336C139.16 134.035 138.488 132.083 138.488 129.48V116.744C138.488 115.08 139.256 114.248 140.792 114.248C142.328 114.248 143.096 115.08 143.096 116.744V129.48C143.096 130.824 143.384 131.805 143.96 132.424C144.557 133.043 145.378 133.352 146.424 133.352C148.984 133.352 150.264 132.061 150.264 129.48V116.744C150.264 115.08 151.032 114.248 152.568 114.248C154.104 114.248 154.872 115.08 154.872 116.744V129.48C154.872 132.061 154.157 134.003 152.728 135.304C151.298 136.605 149.197 137.256 146.424 137.256ZM163.367 125.896C163.367 128.435 163.677 130.259 164.295 131.368C164.914 132.456 165.831 133 167.047 133C167.815 133 168.487 132.947 169.063 132.84C169.639 132.712 170.162 132.648 170.631 132.648C171.485 132.648 172.103 132.829 172.487 133.192C172.871 133.533 173.063 133.981 173.063 134.536C173.063 135.261 172.797 135.816 172.263 136.2C171.751 136.584 171.09 136.851 170.279 137C169.49 137.149 168.679 137.224 167.847 137.224C165.543 137.224 163.709 136.797 162.343 135.944C160.999 135.091 160.029 133.832 159.431 132.168C158.855 130.483 158.567 128.392 158.567 125.896C158.567 123.4 158.855 121.288 159.431 119.56C160.029 117.811 160.999 116.488 162.343 115.592C163.709 114.696 165.543 114.248 167.847 114.248C168.679 114.248 169.49 114.323 170.279 114.472C171.09 114.621 171.751 114.888 172.263 115.272C172.797 115.656 173.063 116.211 173.063 116.936C173.063 117.469 172.871 117.917 172.487 118.28C172.103 118.643 171.485 118.824 170.631 118.824C170.162 118.824 169.639 118.771 169.063 118.664C168.487 118.536 167.815 118.472 167.047 118.472C165.554 118.472 164.562 119.08 164.071 120.296C163.602 121.491 163.367 123.357 163.367 125.896ZM181.71 137.256C180.899 137.256 180.046 137.192 179.15 137.064C178.254 136.936 177.528 136.765 176.974 136.552C176.078 136.189 175.63 135.581 175.63 134.728C175.63 134.109 175.811 133.619 176.174 133.256C176.558 132.872 177.155 132.68 177.966 132.68C178.52 132.68 179.192 132.755 179.982 132.904C180.771 133.053 181.464 133.128 182.062 133.128C183.384 133.128 184.334 132.957 184.91 132.616C185.486 132.275 185.774 131.581 185.774 130.536C185.774 129.917 185.55 129.395 185.102 128.968C184.675 128.541 183.811 128.136 182.51 127.752C180.142 127.048 178.424 126.173 177.358 125.128C176.312 124.083 175.79 122.728 175.79 121.064C175.79 119.613 176.11 118.387 176.75 117.384C177.411 116.36 178.318 115.581 179.47 115.048C180.622 114.515 181.934 114.248 183.406 114.248C185.134 114.248 186.563 114.483 187.694 114.952C188.59 115.293 189.038 115.901 189.038 116.776C189.038 117.395 188.846 117.896 188.462 118.28C188.099 118.643 187.512 118.824 186.702 118.824C186.168 118.824 185.592 118.771 184.974 118.664C184.355 118.536 183.747 118.472 183.15 118.472C182.232 118.472 181.539 118.632 181.07 118.952C180.6 119.272 180.366 119.805 180.366 120.552C180.366 121.235 180.696 121.853 181.358 122.408C182.019 122.963 183.235 123.507 185.006 124.04C187.032 124.637 188.43 125.448 189.198 126.472C189.966 127.475 190.35 128.755 190.35 130.312C190.35 132.573 189.592 134.301 188.078 135.496C186.584 136.669 184.462 137.256 181.71 137.256ZM197.586 125.896C197.586 128.435 197.895 130.259 198.514 131.368C199.133 132.456 200.05 133 201.266 133C202.034 133 202.706 132.947 203.282 132.84C203.858 132.712 204.381 132.648 204.85 132.648C205.703 132.648 206.322 132.829 206.706 133.192C207.09 133.533 207.282 133.981 207.282 134.536C207.282 135.261 207.015 135.816 206.482 136.2C205.97 136.584 205.309 136.851 204.498 137C203.709 137.149 202.898 137.224 202.066 137.224C199.762 137.224 197.927 136.797 196.562 135.944C195.218 135.091 194.247 133.832 193.65 132.168C193.074 130.483 192.786 128.392 192.786 125.896C192.786 123.4 193.074 121.288 193.65 119.56C194.247 117.811 195.218 116.488 196.562 115.592C197.927 114.696 199.762 114.248 202.066 114.248C202.898 114.248 203.709 114.323 204.498 114.472C205.309 114.621 205.97 114.888 206.482 115.272C207.015 115.656 207.282 116.211 207.282 116.936C207.282 117.469 207.09 117.917 206.706 118.28C206.322 118.643 205.703 118.824 204.85 118.824C204.381 118.824 203.858 118.771 203.282 118.664C202.706 118.536 202.034 118.472 201.266 118.472C199.773 118.472 198.781 119.08 198.29 120.296C197.821 121.491 197.586 123.357 197.586 125.896ZM219.601 117.992C218.812 117.992 218.151 117.736 217.617 117.224C217.084 116.712 216.817 116.083 216.817 115.336C216.817 114.547 217.084 113.896 217.617 113.384C218.151 112.872 218.812 112.616 219.601 112.616C220.412 112.616 221.073 112.872 221.585 113.384C222.119 113.896 222.385 114.547 222.385 115.336C222.385 116.083 222.119 116.712 221.585 117.224C221.073 117.736 220.412 117.992 219.601 117.992ZM221.905 135.112C221.905 136.541 221.159 137.256 219.665 137.256C218.94 137.256 218.364 137.085 217.937 136.744C217.511 136.381 217.297 135.837 217.297 135.112V122.92C217.297 122.237 217.468 121.704 217.809 121.32C218.172 120.936 218.769 120.744 219.601 120.744C220.433 120.744 221.02 120.936 221.361 121.32C221.724 121.704 221.905 122.237 221.905 122.92V135.112ZM230.888 137.256C226.878 137.256 224.872 136.371 224.872 134.6C224.872 134.045 225.022 133.608 225.32 133.288C225.619 132.968 226.014 132.808 226.504 132.808C226.718 132.808 226.92 132.84 227.112 132.904C227.326 132.947 227.731 133.064 228.328 133.256C228.584 133.341 228.926 133.427 229.352 133.512C229.779 133.597 230.195 133.64 230.6 133.64C231.368 133.64 231.912 133.544 232.232 133.352C232.552 133.16 232.712 132.84 232.712 132.392C232.712 132.029 232.627 131.752 232.456 131.56C232.286 131.347 231.923 131.144 231.368 130.952C230.814 130.76 229.95 130.493 228.776 130.152C227.71 129.853 226.846 129.32 226.184 128.552C225.544 127.763 225.224 126.792 225.224 125.64C225.224 124.019 225.811 122.781 226.984 121.928C228.158 121.075 229.768 120.648 231.816 120.648C233.352 120.648 234.558 120.861 235.432 121.288C236.307 121.715 236.744 122.333 236.744 123.144C236.744 123.656 236.595 124.083 236.296 124.424C235.998 124.765 235.592 124.936 235.08 124.936C234.867 124.936 234.611 124.904 234.312 124.84C234.035 124.776 233.694 124.691 233.288 124.584C232.99 124.477 232.67 124.392 232.328 124.328C232.008 124.264 231.667 124.232 231.304 124.232C230.28 124.232 229.768 124.595 229.768 125.32C229.768 125.747 229.971 126.109 230.376 126.408C230.782 126.685 231.56 126.995 232.712 127.336C234.291 127.805 235.454 128.435 236.2 129.224C236.947 129.992 237.32 131.016 237.32 132.296C237.32 133.789 236.744 134.995 235.592 135.912C234.462 136.808 232.894 137.256 230.888 137.256ZM58.9968 177.112C58.9968 178.541 58.2501 179.256 56.7568 179.256C56.0314 179.256 55.4554 179.075 55.0288 178.712C54.6021 178.349 54.3888 177.816 54.3888 177.112V157.112C54.3888 155.448 55.1674 154.616 56.7248 154.616C58.2608 154.616 59.0288 155.448 59.0288 157.112V160.536C59.0288 161.133 58.9648 161.709 58.8368 162.264C58.7088 162.819 58.4954 163.395 58.1968 163.992C58.5594 163.544 59.0394 163.224 59.6368 163.032C60.2341 162.84 60.9274 162.744 61.7168 162.744C63.1248 162.744 64.3514 163.021 65.3968 163.576C66.4421 164.131 67.2528 164.909 67.8288 165.912C68.4261 166.893 68.7248 168.067 68.7248 169.432V177.112C68.7248 178.541 67.9781 179.256 66.4848 179.256C65.7594 179.256 65.1834 179.075 64.7568 178.712C64.3301 178.349 64.1168 177.816 64.1168 177.112V169.624C64.1168 168.621 63.8821 167.864 63.4128 167.352C62.9648 166.84 62.3354 166.584 61.5248 166.584C60.7354 166.584 60.1168 166.851 59.6688 167.384C59.2208 167.896 58.9968 168.643 58.9968 169.624V177.112ZM79.1995 179.256C76.9168 179.256 75.1142 178.605 73.7915 177.304C72.4688 176.003 71.8075 173.901 71.8075 171C71.8075 168.077 72.4688 165.976 73.7915 164.696C75.1142 163.395 76.9168 162.744 79.1995 162.744C81.4822 162.744 83.2848 163.395 84.6075 164.696C85.9302 165.976 86.5915 168.077 86.5915 171C86.5915 173.901 85.9302 176.003 84.6075 177.304C83.2848 178.605 81.4822 179.256 79.1995 179.256ZM79.1995 175.416C79.7968 175.416 80.2982 175.299 80.7035 175.064C81.1088 174.808 81.4182 174.36 81.6315 173.72C81.8662 173.08 81.9835 172.173 81.9835 171C81.9835 169.827 81.8662 168.92 81.6315 168.28C81.4182 167.64 81.1088 167.203 80.7035 166.968C80.2982 166.712 79.7968 166.584 79.1995 166.584C78.6235 166.584 78.1222 166.712 77.6955 166.968C77.2902 167.203 76.9702 167.64 76.7355 168.28C76.5222 168.92 76.4155 169.827 76.4155 171C76.4155 172.173 76.5222 173.08 76.7355 173.72C76.9702 174.36 77.2902 174.808 77.6955 175.064C78.1222 175.299 78.6235 175.416 79.1995 175.416ZM94.9508 179.256C90.9401 179.256 88.9348 178.371 88.9348 176.6C88.9348 176.045 89.0841 175.608 89.3828 175.288C89.6814 174.968 90.0761 174.808 90.5668 174.808C90.7801 174.808 90.9828 174.84 91.1748 174.904C91.3881 174.947 91.7934 175.064 92.3908 175.256C92.6468 175.341 92.9881 175.427 93.4148 175.512C93.8414 175.597 94.2574 175.64 94.6628 175.64C95.4308 175.64 95.9748 175.544 96.2948 175.352C96.6148 175.16 96.7748 174.84 96.7748 174.392C96.7748 174.029 96.6894 173.752 96.5188 173.56C96.3481 173.347 95.9854 173.144 95.4308 172.952C94.8761 172.76 94.0121 172.493 92.8388 172.152C91.7721 171.853 90.9081 171.32 90.2468 170.552C89.6068 169.763 89.2868 168.792 89.2868 167.64C89.2868 166.019 89.8734 164.781 91.0468 163.928C92.2201 163.075 93.8308 162.648 95.8788 162.648C97.4148 162.648 98.6201 162.861 99.4948 163.288C100.369 163.715 100.807 164.333 100.807 165.144C100.807 165.656 100.657 166.083 100.359 166.424C100.06 166.765 99.6548 166.936 99.1428 166.936C98.9294 166.936 98.6734 166.904 98.3748 166.84C98.0974 166.776 97.7561 166.691 97.3508 166.584C97.0521 166.477 96.7321 166.392 96.3908 166.328C96.0708 166.264 95.7294 166.232 95.3668 166.232C94.3428 166.232 93.8308 166.595 93.8308 167.32C93.8308 167.747 94.0334 168.109 94.4388 168.408C94.8441 168.685 95.6228 168.995 96.7748 169.336C98.3534 169.805 99.5161 170.435 100.263 171.224C101.009 171.992 101.383 173.016 101.383 174.296C101.383 175.789 100.807 176.995 99.6548 177.912C98.5241 178.808 96.9561 179.256 94.9508 179.256ZM111.404 179.256C109.42 179.256 107.948 178.787 106.988 177.848C106.049 176.909 105.58 175.469 105.58 173.528V166.872H104.748C103.297 166.872 102.572 166.221 102.572 164.92C102.572 163.64 103.297 163 104.748 163H105.58V159.544C105.58 158.84 105.793 158.264 106.22 157.816C106.668 157.368 107.244 157.144 107.948 157.144C108.63 157.144 109.174 157.357 109.58 157.784C109.985 158.189 110.188 158.755 110.188 159.48V161.048C110.188 161.837 110.06 162.488 109.804 163H112.844C114.294 163 115.02 163.64 115.02 164.92C115.02 166.221 114.294 166.872 112.844 166.872H110.188V173.624C110.188 174.264 110.262 174.723 110.411 175C110.561 175.256 110.806 175.384 111.148 175.384C111.596 175.384 111.926 175.352 112.14 175.288C112.374 175.203 112.662 175.16 113.004 175.16C113.58 175.16 114.038 175.267 114.38 175.48C114.721 175.672 114.892 176.077 114.892 176.696C114.892 177.571 114.614 178.221 114.06 178.648C113.505 179.053 112.62 179.256 111.404 179.256ZM125.44 179.256C123.307 179.256 121.632 178.904 120.416 178.2C119.221 177.496 118.368 176.525 117.856 175.288C117.365 174.051 117.12 172.632 117.12 171.032C117.12 168.088 117.771 165.976 119.072 164.696C120.373 163.395 122.123 162.744 124.32 162.744C125.643 162.744 126.816 162.968 127.84 163.416C128.864 163.864 129.664 164.504 130.24 165.336C130.816 166.147 131.104 167.139 131.104 168.312C131.104 171.725 128.672 173.432 123.808 173.432H121.952C122.123 174.093 122.4 174.616 122.784 175C123.189 175.363 123.893 175.544 124.896 175.544C125.451 175.544 125.899 175.512 126.24 175.448C126.581 175.384 126.901 175.32 127.2 175.256C127.52 175.192 127.883 175.16 128.288 175.16C128.864 175.16 129.323 175.267 129.664 175.48C130.005 175.672 130.176 176.077 130.176 176.696C130.176 177.571 129.792 178.221 129.024 178.648C128.277 179.053 127.083 179.256 125.44 179.256ZM121.728 171.064C121.899 170.829 122.091 170.68 122.304 170.616C122.517 170.531 122.848 170.488 123.296 170.488C124.555 170.488 125.419 170.371 125.888 170.136C126.379 169.88 126.624 169.432 126.624 168.792C126.624 167.981 126.4 167.363 125.952 166.936C125.504 166.488 124.939 166.264 124.256 166.264C123.467 166.264 122.848 166.595 122.4 167.256C121.952 167.917 121.728 169.187 121.728 171.064ZM140.704 179.256C138.357 179.256 136.501 178.509 135.136 177.016C133.792 175.523 133.12 173.336 133.12 170.456C133.12 168.536 133.397 167.011 133.952 165.88C134.507 164.749 135.275 163.949 136.256 163.48C137.259 162.989 138.389 162.744 139.648 162.744C140.779 162.744 141.696 162.883 142.4 163.16C143.104 163.437 143.659 163.907 144.064 164.568C143.915 164.12 143.797 163.704 143.712 163.32C143.648 162.915 143.595 162.445 143.552 161.912C143.531 161.379 143.52 160.696 143.52 159.864V157.112C143.52 155.448 144.235 154.616 145.664 154.616C147.221 154.616 148 155.448 148 157.112V170.648C148 173.528 147.36 175.683 146.08 177.112C144.8 178.541 143.008 179.256 140.704 179.256ZM140.48 175.416C141.376 175.416 142.069 175.096 142.56 174.456C143.072 173.816 143.328 172.621 143.328 170.872C143.328 169.699 143.211 168.813 142.976 168.216C142.763 167.597 142.443 167.171 142.016 166.936C141.589 166.701 141.077 166.584 140.48 166.584C139.883 166.584 139.371 166.701 138.944 166.936C138.517 167.171 138.187 167.597 137.952 168.216C137.739 168.813 137.632 169.699 137.632 170.872C137.632 172.621 137.877 173.816 138.368 174.456C138.88 175.096 139.584 175.416 140.48 175.416ZM162.315 179.256C161.483 179.256 160.886 179.021 160.523 178.552C160.182 178.061 160.011 177.453 160.011 176.728V166.872H159.563C157.984 166.872 157.195 166.232 157.195 164.952C157.195 163.651 157.984 163 159.563 163H160.011V162.872C160.011 160.397 160.544 158.403 161.611 156.888C162.678 155.373 164.31 154.616 166.507 154.616C166.528 154.616 166.55 154.616 166.571 154.616H166.603C166.667 154.616 166.731 154.616 166.795 154.616C168.544 154.637 169.814 154.883 170.603 155.352C171.414 155.821 171.819 156.536 171.819 157.496C171.819 158.2 171.627 158.669 171.243 158.904C170.88 159.117 170.368 159.224 169.707 159.224C169.131 159.224 168.64 159.181 168.235 159.096C167.851 158.989 167.35 158.915 166.731 158.872H166.539C165.686 158.872 165.131 159.203 164.875 159.864C164.619 160.504 164.491 161.293 164.491 162.232V163H166.315C167.766 163 168.491 163.651 168.491 164.952C168.491 166.232 167.766 166.872 166.315 166.872H164.491V176.728C164.491 177.603 164.299 178.243 163.915 178.648C163.552 179.053 163.019 179.256 162.315 179.256ZM176.512 179.256C174.229 179.256 172.427 178.605 171.104 177.304C169.781 176.003 169.12 173.901 169.12 171C169.12 168.077 169.781 165.976 171.104 164.696C172.427 163.395 174.229 162.744 176.512 162.744C178.795 162.744 180.597 163.395 181.92 164.696C183.243 165.976 183.904 168.077 183.904 171C183.904 173.901 183.243 176.003 181.92 177.304C180.597 178.605 178.795 179.256 176.512 179.256ZM176.512 175.416C177.109 175.416 177.611 175.299 178.016 175.064C178.421 174.808 178.731 174.36 178.944 173.72C179.179 173.08 179.296 172.173 179.296 171C179.296 169.827 179.179 168.92 178.944 168.28C178.731 167.64 178.421 167.203 178.016 166.968C177.611 166.712 177.109 166.584 176.512 166.584C175.936 166.584 175.435 166.712 175.008 166.968C174.603 167.203 174.283 167.64 174.048 168.28C173.835 168.92 173.728 169.827 173.728 171C173.728 172.173 173.835 173.08 174.048 173.72C174.283 174.36 174.603 174.808 175.008 175.064C175.435 175.299 175.936 175.416 176.512 175.416ZM189.287 179.256C187.751 179.256 186.983 178.531 186.983 177.08V164.952C186.983 163.48 187.751 162.744 189.287 162.744C190.055 162.744 190.61 162.915 190.951 163.256C191.293 163.576 191.463 164.109 191.463 164.856C191.847 164.152 192.391 163.629 193.095 163.288C193.821 162.925 194.663 162.744 195.623 162.744C197.458 162.744 198.375 163.544 198.375 165.144C198.375 165.741 198.151 166.189 197.703 166.488C197.255 166.787 196.519 166.936 195.495 166.936C194.493 166.936 193.703 167.032 193.127 167.224C192.551 167.395 192.146 167.725 191.911 168.216C191.698 168.685 191.591 169.368 191.591 170.264V177.08C191.591 178.531 190.823 179.256 189.287 179.256ZM214.56 179.256C212.576 179.256 211.104 178.787 210.144 177.848C209.205 176.909 208.736 175.469 208.736 173.528V166.872H207.904C206.453 166.872 205.728 166.221 205.728 164.92C205.728 163.64 206.453 163 207.904 163H208.736V159.544C208.736 158.84 208.949 158.264 209.376 157.816C209.824 157.368 210.4 157.144 211.104 157.144C211.786 157.144 212.33 157.357 212.736 157.784C213.141 158.189 213.344 158.755 213.344 159.48V161.048C213.344 161.837 213.216 162.488 212.96 163H216C217.45 163 218.176 163.64 218.176 164.92C218.176 166.221 217.45 166.872 216 166.872H213.344V173.624C213.344 174.264 213.418 174.723 213.568 175C213.717 175.256 213.962 175.384 214.304 175.384C214.752 175.384 215.082 175.352 215.296 175.288C215.53 175.203 215.818 175.16 216.16 175.16C216.736 175.16 217.194 175.267 217.536 175.48C217.877 175.672 218.048 176.077 218.048 176.696C218.048 177.571 217.77 178.221 217.216 178.648C216.661 179.053 215.776 179.256 214.56 179.256ZM225.841 177.112C225.841 178.541 225.094 179.256 223.601 179.256C222.875 179.256 222.299 179.075 221.873 178.712C221.446 178.349 221.233 177.816 221.233 177.112V157.112C221.233 155.448 222.011 154.616 223.569 154.616C225.105 154.616 225.873 155.448 225.873 157.112V160.536C225.873 161.133 225.809 161.709 225.681 162.264C225.553 162.819 225.339 163.395 225.041 163.992C225.403 163.544 225.883 163.224 226.481 163.032C227.078 162.84 227.771 162.744 228.561 162.744C229.969 162.744 231.195 163.021 232.241 163.576C233.286 164.131 234.097 164.909 234.673 165.912C235.27 166.893 235.569 168.067 235.569 169.432V177.112C235.569 178.541 234.822 179.256 233.329 179.256C232.603 179.256 232.027 179.075 231.601 178.712C231.174 178.349 230.961 177.816 230.961 177.112V169.624C230.961 168.621 230.726 167.864 230.257 167.352C229.809 166.84 229.179 166.584 228.369 166.584C227.579 166.584 226.961 166.851 226.513 167.384C226.065 167.896 225.841 168.643 225.841 169.624V177.112ZM246.971 179.256C244.838 179.256 243.163 178.904 241.947 178.2C240.753 177.496 239.899 176.525 239.387 175.288C238.897 174.051 238.651 172.632 238.651 171.032C238.651 168.088 239.302 165.976 240.603 164.696C241.905 163.395 243.654 162.744 245.851 162.744C247.174 162.744 248.347 162.968 249.371 163.416C250.395 163.864 251.195 164.504 251.771 165.336C252.347 166.147 252.635 167.139 252.635 168.312C252.635 171.725 250.203 173.432 245.339 173.432H243.483C243.654 174.093 243.931 174.616 244.315 175C244.721 175.363 245.425 175.544 246.427 175.544C246.982 175.544 247.43 175.512 247.771 175.448C248.113 175.384 248.433 175.32 248.731 175.256C249.051 175.192 249.414 175.16 249.819 175.16C250.395 175.16 250.854 175.267 251.195 175.48C251.537 175.672 251.707 176.077 251.707 176.696C251.707 177.571 251.323 178.221 250.555 178.648C249.809 179.053 248.614 179.256 246.971 179.256ZM243.259 171.064C243.43 170.829 243.622 170.68 243.835 170.616C244.049 170.531 244.379 170.488 244.827 170.488C246.086 170.488 246.95 170.371 247.419 170.136C247.91 169.88 248.155 169.432 248.155 168.792C248.155 167.981 247.931 167.363 247.483 166.936C247.035 166.488 246.47 166.264 245.787 166.264C244.998 166.264 244.379 166.595 243.931 167.256C243.483 167.917 243.259 169.187 243.259 171.064ZM92.9556 221.256C92.1236 221.256 91.5263 221.021 91.1636 220.552C90.8223 220.061 90.6516 219.453 90.6516 218.728V208.872H90.2036C88.625 208.872 87.8356 208.232 87.8356 206.952C87.8356 205.651 88.625 205 90.2036 205H90.6516V204.872C90.6516 203.272 90.865 201.939 91.2916 200.872C91.7396 199.784 92.3263 198.92 93.0516 198.28C93.7983 197.64 94.6196 197.181 95.5156 196.904C96.433 196.605 97.361 196.456 98.2996 196.456C99.857 196.456 101.105 196.648 102.044 197.032C103.004 197.416 103.697 197.896 104.124 198.472C104.572 199.048 104.796 199.624 104.796 200.2C104.796 200.797 104.582 201.309 104.156 201.736C103.75 202.163 103.206 202.376 102.524 202.376C102.161 202.376 101.745 202.291 101.276 202.12C100.806 201.928 100.294 201.597 99.7396 201.128C99.4836 200.915 99.1636 200.733 98.7796 200.584C98.3956 200.435 98.001 200.36 97.5956 200.36C97.1903 200.36 96.7956 200.477 96.4116 200.712C96.0276 200.925 95.7183 201.32 95.4836 201.896C95.249 202.451 95.1316 203.229 95.1316 204.232V205H96.9556C98.4063 205 99.1316 205.651 99.1316 206.952C99.1316 208.232 98.4063 208.872 96.9556 208.872H95.1316V218.728C95.1316 219.603 94.9396 220.243 94.5556 220.648C94.193 221.053 93.6596 221.256 92.9556 221.256ZM103.132 221.256C102.3 221.256 101.702 221.064 101.34 220.68C100.998 220.275 100.828 219.741 100.828 219.08V206.92C100.828 206.237 100.998 205.704 101.34 205.32C101.702 204.936 102.3 204.744 103.132 204.744C103.964 204.744 104.55 204.936 104.892 205.32C105.254 205.704 105.436 206.237 105.436 206.92V219.08C105.436 219.741 105.254 220.275 104.892 220.68C104.55 221.064 103.964 221.256 103.132 221.256ZM111.24 221.256C109.704 221.256 108.936 220.531 108.936 219.08V206.952C108.936 205.48 109.704 204.744 111.24 204.744C112.008 204.744 112.563 204.915 112.904 205.256C113.246 205.576 113.416 206.109 113.416 206.856C113.8 206.152 114.344 205.629 115.048 205.288C115.774 204.925 116.616 204.744 117.576 204.744C119.411 204.744 120.328 205.544 120.328 207.144C120.328 207.741 120.104 208.189 119.656 208.488C119.208 208.787 118.472 208.936 117.448 208.936C116.446 208.936 115.656 209.032 115.08 209.224C114.504 209.395 114.099 209.725 113.864 210.216C113.651 210.685 113.544 211.368 113.544 212.264V219.08C113.544 220.531 112.776 221.256 111.24 221.256ZM126.591 221.256C122.581 221.256 120.575 220.371 120.575 218.6C120.575 218.045 120.725 217.608 121.023 217.288C121.322 216.968 121.717 216.808 122.207 216.808C122.421 216.808 122.623 216.84 122.815 216.904C123.029 216.947 123.434 217.064 124.031 217.256C124.287 217.341 124.629 217.427 125.055 217.512C125.482 217.597 125.898 217.64 126.303 217.64C127.071 217.64 127.615 217.544 127.935 217.352C128.255 217.16 128.415 216.84 128.415 216.392C128.415 216.029 128.33 215.752 128.159 215.56C127.989 215.347 127.626 215.144 127.071 214.952C126.517 214.76 125.653 214.493 124.479 214.152C123.413 213.853 122.549 213.32 121.887 212.552C121.247 211.763 120.927 210.792 120.927 209.64C120.927 208.019 121.514 206.781 122.687 205.928C123.861 205.075 125.471 204.648 127.519 204.648C129.055 204.648 130.261 204.861 131.135 205.288C132.01 205.715 132.447 206.333 132.447 207.144C132.447 207.656 132.298 208.083 131.999 208.424C131.701 208.765 131.295 208.936 130.783 208.936C130.57 208.936 130.314 208.904 130.015 208.84C129.738 208.776 129.397 208.691 128.991 208.584C128.693 208.477 128.373 208.392 128.031 208.328C127.711 208.264 127.37 208.232 127.007 208.232C125.983 208.232 125.471 208.595 125.471 209.32C125.471 209.747 125.674 210.109 126.079 210.408C126.485 210.685 127.263 210.995 128.415 211.336C129.994 211.805 131.157 212.435 131.903 213.224C132.65 213.992 133.023 215.016 133.023 216.296C133.023 217.789 132.447 218.995 131.295 219.912C130.165 220.808 128.597 221.256 126.591 221.256ZM143.044 221.256C141.06 221.256 139.588 220.787 138.628 219.848C137.689 218.909 137.22 217.469 137.22 215.528V208.872H136.388C134.937 208.872 134.212 208.221 134.212 206.92C134.212 205.64 134.937 205 136.388 205H137.22V201.544C137.22 200.84 137.433 200.264 137.86 199.816C138.308 199.368 138.884 199.144 139.588 199.144C140.271 199.144 140.815 199.357 141.22 199.784C141.625 200.189 141.828 200.755 141.828 201.48V203.048C141.828 203.837 141.7 204.488 141.444 205H144.484C145.935 205 146.66 205.64 146.66 206.92C146.66 208.221 145.935 208.872 144.484 208.872H141.828V215.624C141.828 216.264 141.903 216.723 142.052 217C142.201 217.256 142.447 217.384 142.788 217.384C143.236 217.384 143.567 217.352 143.78 217.288C144.015 217.203 144.303 217.16 144.644 217.16C145.22 217.16 145.679 217.267 146.02 217.48C146.361 217.672 146.532 218.077 146.532 218.696C146.532 219.571 146.255 220.221 145.7 220.648C145.145 221.053 144.26 221.256 143.044 221.256ZM163.013 221.256C161.029 221.256 159.557 220.787 158.597 219.848C157.658 218.909 157.189 217.469 157.189 215.528V208.872H156.357C154.906 208.872 154.181 208.221 154.181 206.92C154.181 205.64 154.906 205 156.357 205H157.189V201.544C157.189 200.84 157.402 200.264 157.829 199.816C158.277 199.368 158.853 199.144 159.557 199.144C160.24 199.144 160.784 199.357 161.189 199.784C161.594 200.189 161.797 200.755 161.797 201.48V203.048C161.797 203.837 161.669 204.488 161.413 205H164.453C165.904 205 166.629 205.64 166.629 206.92C166.629 208.221 165.904 208.872 164.453 208.872H161.797V215.624C161.797 216.264 161.872 216.723 162.021 217C162.17 217.256 162.416 217.384 162.757 217.384C163.205 217.384 163.536 217.352 163.749 217.288C163.984 217.203 164.272 217.16 164.613 217.16C165.189 217.16 165.648 217.267 165.989 217.48C166.33 217.672 166.501 218.077 166.501 218.696C166.501 219.571 166.224 220.221 165.669 220.648C165.114 221.053 164.229 221.256 163.013 221.256ZM171.992 201.992C171.203 201.992 170.541 201.736 170.008 201.224C169.475 200.712 169.208 200.083 169.208 199.336C169.208 198.547 169.475 197.896 170.008 197.384C170.541 196.872 171.203 196.616 171.992 196.616C172.803 196.616 173.464 196.872 173.976 197.384C174.509 197.896 174.776 198.547 174.776 199.336C174.776 200.083 174.509 200.712 173.976 201.224C173.464 201.736 172.803 201.992 171.992 201.992ZM174.296 219.112C174.296 220.541 173.549 221.256 172.056 221.256C171.331 221.256 170.755 221.085 170.328 220.744C169.901 220.381 169.688 219.837 169.688 219.112V206.92C169.688 206.237 169.859 205.704 170.2 205.32C170.563 204.936 171.16 204.744 171.992 204.744C172.824 204.744 173.411 204.936 173.752 205.32C174.115 205.704 174.296 206.237 174.296 206.92V219.112ZM180.022 221.256C178.486 221.256 177.718 220.531 177.718 219.08V211.4C177.718 209.224 178.23 207.571 179.254 206.44C180.299 205.309 181.792 204.744 183.734 204.744C186.379 204.744 188.171 205.693 189.11 207.592C190.048 205.693 191.84 204.744 194.486 204.744C196.427 204.744 197.91 205.309 198.934 206.44C199.979 207.571 200.502 209.224 200.502 211.4V219.08C200.502 220.531 199.734 221.256 198.198 221.256C196.662 221.256 195.894 220.531 195.894 219.08V211.656C195.894 210.568 195.712 209.789 195.35 209.32C194.987 208.829 194.422 208.584 193.654 208.584C192.118 208.584 191.35 209.608 191.35 211.656V218.952C191.35 220.403 190.603 221.128 189.11 221.128C187.616 221.128 186.87 220.403 186.87 218.952V211.656C186.87 209.608 186.102 208.584 184.566 208.584C183.072 208.584 182.326 209.608 182.326 211.656V219.08C182.326 220.531 181.558 221.256 180.022 221.256ZM211.893 221.256C209.76 221.256 208.085 220.904 206.869 220.2C205.674 219.496 204.821 218.525 204.309 217.288C203.818 216.051 203.573 214.632 203.573 213.032C203.573 210.088 204.224 207.976 205.525 206.696C206.826 205.395 208.576 204.744 210.773 204.744C212.096 204.744 213.269 204.968 214.293 205.416C215.317 205.864 216.117 206.504 216.693 207.336C217.269 208.147 217.557 209.139 217.557 210.312C217.557 213.725 215.125 215.432 210.261 215.432H208.405C208.576 216.093 208.853 216.616 209.237 217C209.642 217.363 210.346 217.544 211.349 217.544C211.904 217.544 212.352 217.512 212.693 217.448C213.034 217.384 213.354 217.32 213.653 217.256C213.973 217.192 214.336 217.16 214.741 217.16C215.317 217.16 215.776 217.267 216.117 217.48C216.458 217.672 216.629 218.077 216.629 218.696C216.629 219.571 216.245 220.221 215.477 220.648C214.73 221.053 213.536 221.256 211.893 221.256ZM208.181 213.064C208.352 212.829 208.544 212.68 208.757 212.616C208.97 212.531 209.301 212.488 209.749 212.488C211.008 212.488 211.872 212.371 212.341 212.136C212.832 211.88 213.077 211.432 213.077 210.792C213.077 209.981 212.853 209.363 212.405 208.936C211.957 208.488 211.392 208.264 210.709 208.264C209.92 208.264 209.301 208.595 208.853 209.256C208.405 209.917 208.181 211.187 208.181 213.064ZM220.995 221.256C220.227 221.256 219.608 221.021 219.139 220.552C218.691 220.083 218.467 219.485 218.467 218.76C218.467 218.013 218.691 217.405 219.139 216.936C219.608 216.467 220.227 216.232 220.995 216.232C221.742 216.232 222.35 216.467 222.819 216.936C223.288 217.405 223.523 218.013 223.523 218.76C223.523 219.485 223.288 220.083 222.819 220.552C222.35 221.021 221.742 221.256 220.995 221.256Z" fill="white"/>
</svg>
