<svg width="343" height="349" viewBox="0 0 343 349" fill="none" xmlns="http://www.w3.org/2000/svg">
<path d="M304.107 299.611L144.498 346.372C136.624 348.674 127.95 342.913 125.207 333.559L157.084 264.679L245.298 238.831L313.446 278.404C316.189 287.758 311.982 297.297 304.12 299.611H304.107Z" fill="#D1CC9D" stroke="#C1C09D" stroke-width="4" stroke-miterlimit="10"/>
<path d="M325.429 114.501C331.42 134.958 271.196 282.909 259.484 290.368C247.316 298.122 233.868 304.314 219.326 308.572C206.223 312.413 193.034 314.456 180.005 314.85C163.076 315.367 30.5824 220.307 25.3413 202.422C13.7639 162.862 18.5252 122.403 35.6636 88.2715C54.4506 50.8654 88.1122 21.0415 131.444 8.35121C133.585 7.72346 135.738 7.14494 137.891 6.60336C218.772 -13.4475 301.794 33.7317 325.429 114.489V114.501Z" fill="#D1CC9D" stroke="#C1C09D" stroke-width="4" stroke-miterlimit="10"/>
<path opacity="0.5" d="M211.984 319.491L49.4712 217.046" stroke="#C1C09D" stroke-width="2" stroke-miterlimit="10"/>
<path opacity="0.5" d="M219.538 320.008L60.1011 153.779" stroke="#C1C09D" stroke-width="2" stroke-miterlimit="10"/>
<path opacity="0.5" d="M246.286 310.21L143.738 43.2842" stroke="#C1C09D" stroke-width="2" stroke-miterlimit="10"/>
<path opacity="0.5" d="M268.235 297.581L265.356 65.7964" stroke="#C1C09D" stroke-width="2" stroke-miterlimit="10"/>
<path opacity="0.5" d="M279.443 291.772L313.006 109.012" stroke="#C1C09D" stroke-width="2" stroke-miterlimit="10"/>
<path opacity="0.5" d="M233.109 314.395L70.9158 112.569" stroke="#C1C09D" stroke-width="2" stroke-miterlimit="10"/>
<path opacity="0.5" d="M260.853 302.911L212.489 40.3301" stroke="#C1C09D" stroke-width="2" stroke-miterlimit="10"/>
<path opacity="0.5" d="M236.455 314.284L111.049 81.3916" stroke="#C1C09D" stroke-width="2" stroke-miterlimit="10"/>
<path opacity="0.5" d="M256.227 306.419L183.49 33.2031" stroke="#C1C09D" stroke-width="2" stroke-miterlimit="10"/>
<path d="M153.44 54C152.693 54 152.12 53.8267 151.72 53.48C151.32 53.1333 151.04 52.6933 150.88 52.16C150.747 51.6267 150.667 51.0533 150.64 50.44C150.64 49.8267 150.64 49.2533 150.64 48.72C150.64 46.3467 151.147 44.4667 152.16 43.08C153.173 41.6933 154.933 40.6267 157.44 39.88C158.8 39.4267 159.867 39.0133 160.64 38.64C161.44 38.24 162.013 37.7067 162.36 37.04C162.707 36.3467 162.88 35.3733 162.88 34.12C162.88 33.24 162.627 32.48 162.12 31.84C161.613 31.1733 160.733 30.84 159.48 30.84C158.733 30.84 157.947 30.8933 157.12 31C156.32 31.1067 155.56 31.16 154.84 31.16C153.773 31.16 152.987 30.96 152.48 30.56C152 30.16 151.76 29.5467 151.76 28.72C151.76 27.6267 152.32 26.8667 153.44 26.44C154.853 25.8533 156.64 25.56 158.8 25.56C161.867 25.56 164.267 26.32 166 27.84C167.733 29.3333 168.6 31.4133 168.6 34.08C168.6 36.0533 168.333 37.7067 167.8 39.04C167.267 40.3733 166.387 41.48 165.16 42.36C163.933 43.24 162.28 43.9867 160.2 44.6C158.733 45.0267 157.72 45.48 157.16 45.96C156.627 46.4133 156.36 47.0933 156.36 48V49.24C156.893 48.7067 157.6 48.44 158.48 48.44H165.64C166.627 48.44 167.387 48.68 167.92 49.16C168.453 49.64 168.72 50.3333 168.72 51.24C168.72 53.08 167.693 54 165.64 54H153.44ZM182.62 54.32C180.487 54.32 178.647 53.8533 177.1 52.92C175.58 51.96 174.42 50.4267 173.62 48.32C172.82 46.2133 172.42 43.4267 172.42 39.96C172.42 36.4667 172.82 33.6667 173.62 31.56C174.42 29.4533 175.58 27.9333 177.1 27C178.62 26.04 180.46 25.56 182.62 25.56C184.807 25.56 186.647 26.04 188.14 27C189.66 27.9333 190.82 29.4533 191.62 31.56C192.42 33.6667 192.82 36.4667 192.82 39.96C192.82 43.4267 192.42 46.2133 191.62 48.32C190.82 50.4267 189.66 51.96 188.14 52.92C186.62 53.8533 184.78 54.32 182.62 54.32ZM182.62 49.04C183.607 49.04 184.407 48.8 185.02 48.32C185.633 47.84 186.087 46.9467 186.38 45.64C186.673 44.3067 186.82 42.4133 186.82 39.96C186.82 37.48 186.673 35.5867 186.38 34.28C186.087 32.9733 185.633 32.08 185.02 31.6C184.407 31.0933 183.607 30.84 182.62 30.84C181.66 30.84 180.86 31.0933 180.22 31.6C179.607 32.08 179.153 32.9733 178.86 34.28C178.567 35.5867 178.42 37.48 178.42 39.96C178.42 42.4133 178.567 44.3067 178.86 45.64C179.153 46.9467 179.607 47.84 180.22 48.32C180.86 48.8 181.66 49.04 182.62 49.04ZM201.941 54.32C199.968 54.32 198.981 53.4267 198.981 51.64V31.28H196.741C195.915 31.28 195.288 31.0133 194.861 30.48C194.461 29.92 194.261 29.3067 194.261 28.64C194.261 27.9733 194.461 27.3733 194.861 26.84C195.288 26.28 195.915 26 196.741 26H201.821C203.768 26 204.741 26.8933 204.741 28.68V51.64C204.741 52.5467 204.515 53.2267 204.061 53.68C203.635 54.1067 202.928 54.32 201.941 54.32ZM216.197 54.32C215.13 54.32 214.277 54.28 213.637 54.2C212.997 54.1467 212.423 54.0667 211.917 53.96C210.61 53.6933 209.77 53.28 209.397 52.72C209.05 52.1333 208.877 51.5467 208.877 50.96C208.877 50.3467 209.103 49.84 209.557 49.44C210.01 49.0133 210.783 48.8 211.877 48.8C212.623 48.8 213.423 48.84 214.277 48.92C215.13 49 215.957 49.04 216.757 49.04C217.61 49.04 218.383 48.96 219.077 48.8C219.797 48.6133 220.37 48.2933 220.797 47.84C221.223 47.36 221.437 46.6667 221.437 45.76C221.437 44.88 221.237 44.2133 220.837 43.76C220.437 43.3067 219.93 43 219.317 42.84C218.703 42.68 218.09 42.6 217.477 42.6C217.05 42.6 216.623 42.6133 216.197 42.64C215.77 42.64 215.37 42.64 214.997 42.64C213.797 42.64 212.837 42.4933 212.117 42.2C211.397 41.9067 211.037 41.1733 211.037 40C211.037 38.8267 211.383 38.0933 212.077 37.8C212.797 37.5067 213.73 37.36 214.877 37.36C215.25 37.36 215.637 37.3733 216.037 37.4C216.463 37.4 216.89 37.4 217.317 37.4C218.25 37.4 219.05 37.1333 219.717 36.6C220.383 36.04 220.717 35.1067 220.717 33.8C220.717 32.7867 220.303 32.0267 219.477 31.52C218.65 31.0133 217.69 30.76 216.597 30.76C215.903 30.76 215.17 30.8267 214.397 30.96C213.65 31.0933 212.97 31.16 212.357 31.16C210.81 31.16 210.037 30.4133 210.037 28.92C210.037 26.68 212.157 25.56 216.397 25.56C219.33 25.56 221.637 26.3067 223.317 27.8C224.997 29.2667 225.837 31.2667 225.837 33.8C225.837 35.1067 225.557 36.3467 224.997 37.52C224.463 38.6933 223.797 39.4933 222.997 39.92C224.25 40.48 225.263 41.3067 226.037 42.4C226.81 43.4933 227.197 44.64 227.197 45.84C227.197 47.52 226.73 49 225.797 50.28C224.89 51.56 223.61 52.56 221.957 53.28C220.33 53.9733 218.41 54.32 216.197 54.32Z" fill="white"/>
<path d="M86.3561 100.248C84.8267 100.248 84.0621 99.5557 84.0621 98.171V80.036C84.0621 79.3127 84.2377 78.7857 84.5891 78.455C84.9404 78.1243 85.4984 77.959 86.2631 77.959C87.7717 77.959 88.5261 78.6513 88.5261 80.036V83.136C88.5261 85.6987 88.4537 87.228 88.3091 87.724C88.8464 87.1867 89.4251 86.8147 90.0451 86.608C90.6651 86.4013 91.4814 86.298 92.4941 86.298H95.5321V80.036C95.5321 79.3127 95.7077 78.7857 96.0591 78.455C96.4104 78.1243 96.9684 77.959 97.7331 77.959C99.2417 77.959 99.9961 78.6513 99.9961 80.036V98.171C99.9961 98.8737 99.8204 99.4007 99.4691 99.752C99.1384 100.083 98.5907 100.248 97.8261 100.248C96.2967 100.248 95.5321 99.5557 95.5321 98.171V88.995C95.4081 89.367 95.0051 89.677 94.3231 89.925C93.6411 90.1523 92.8454 90.266 91.9361 90.266C90.6341 90.266 89.7351 90.5347 89.2391 91.072C88.7637 91.5887 88.5261 92.5497 88.5261 93.955V98.171C88.5261 98.8737 88.3504 99.4007 87.9991 99.752C87.6684 100.083 87.1207 100.248 86.3561 100.248ZM109.402 100.248C107.335 100.248 105.723 99.7727 104.566 98.822C103.409 97.8507 102.83 96.6003 102.83 95.071C102.83 93.273 103.584 91.971 105.093 91.165C106.622 90.359 108.854 90.08 111.789 90.328C111.644 89.3773 111.345 88.7367 110.89 88.406C110.435 88.0547 109.888 87.879 109.247 87.879C108.73 87.879 108.296 87.91 107.945 87.972C107.614 88.0133 107.304 88.065 107.015 88.127C106.726 88.189 106.374 88.22 105.961 88.22C105.403 88.22 104.959 88.127 104.628 87.941C104.297 87.7343 104.132 87.3313 104.132 86.732C104.132 85.8847 104.494 85.2647 105.217 84.872C105.961 84.4587 107.129 84.252 108.72 84.252C111.241 84.252 113.112 84.9753 114.331 86.422C115.55 87.848 116.16 89.7597 116.16 92.157C116.16 94.9263 115.654 96.9723 114.641 98.295C113.649 99.597 111.903 100.248 109.402 100.248ZM107.294 95.071C107.294 96.249 108.09 96.838 109.681 96.838C110.198 96.838 110.601 96.745 110.89 96.559C111.179 96.373 111.386 96.001 111.51 95.443C111.655 94.885 111.758 94.048 111.82 92.932C111.717 93.0353 111.582 93.1077 111.417 93.149C111.252 93.1903 111.086 93.211 110.921 93.211C109.557 93.211 108.606 93.3453 108.069 93.614C107.552 93.862 107.294 94.3477 107.294 95.071ZM125.774 100.248C123.252 100.248 121.382 99.5247 120.163 98.078C118.943 96.6107 118.334 94.6783 118.334 92.281C118.334 89.8837 118.943 87.9513 120.163 86.484C121.382 84.996 123.252 84.252 125.774 84.252C127.365 84.252 128.522 84.4173 129.246 84.748C129.99 85.0787 130.362 85.6677 130.362 86.515C130.362 87.1143 130.196 87.5483 129.866 87.817C129.535 88.0857 129.091 88.22 128.533 88.22C128.14 88.22 127.83 88.189 127.603 88.127C127.375 88.065 127.127 88.0133 126.859 87.972C126.611 87.91 126.218 87.879 125.681 87.879C124.957 87.879 124.379 88.096 123.945 88.53C123.531 88.964 123.232 89.522 123.046 90.204C122.88 90.8653 122.798 91.5577 122.798 92.281C122.798 92.9837 122.86 93.676 122.984 94.358C123.128 95.0193 123.407 95.567 123.821 96.001C124.234 96.4143 124.864 96.621 125.712 96.621C126.497 96.621 127.076 96.5693 127.448 96.466C127.82 96.342 128.181 96.28 128.533 96.28C129.091 96.28 129.535 96.3833 129.866 96.59C130.196 96.776 130.362 97.1687 130.362 97.768C130.362 98.6153 129.99 99.2457 129.246 99.659C128.522 100.052 127.365 100.248 125.774 100.248ZM135.661 100.248C134.855 100.248 134.277 100.031 133.925 99.597C133.595 99.163 133.429 98.574 133.429 97.83V78.796C133.429 78.052 133.595 77.463 133.925 77.029C134.277 76.595 134.855 76.378 135.661 76.378C136.467 76.378 137.036 76.595 137.366 77.029C137.718 77.463 137.893 78.052 137.893 78.796V90.328C138.989 89.6667 139.96 88.9227 140.807 88.096C141.655 87.2487 142.233 86.4427 142.543 85.678C142.833 84.9753 143.246 84.5 143.783 84.252C144.321 84.004 144.91 84.035 145.55 84.345C146.439 84.779 146.852 85.4403 146.79 86.329C146.77 87.073 146.429 87.91 145.767 88.84C145.127 89.7493 144.331 90.5347 143.38 91.196C144.579 91.6093 145.54 92.3637 146.263 93.459C147.007 94.5337 147.379 96.094 147.379 98.14C147.379 99.5453 146.646 100.248 145.178 100.248C143.67 100.248 142.915 99.5453 142.915 98.14C142.915 96.6313 142.678 95.5257 142.202 94.823C141.727 94.1203 141.097 93.769 140.311 93.769C139.588 93.769 138.999 94.0377 138.544 94.575C138.11 95.1123 137.893 96.0423 137.893 97.365C137.893 98.5637 137.718 99.349 137.366 99.721C137.015 100.072 136.447 100.248 135.661 100.248ZM165.129 100.248C162.629 100.248 160.717 99.628 159.394 98.388C158.092 97.1273 157.441 95.2363 157.441 92.715V80.377C157.441 78.765 158.185 77.959 159.673 77.959C161.161 77.959 161.905 78.765 161.905 80.377V92.715C161.905 94.017 162.184 94.9677 162.742 95.567C163.321 96.1663 164.117 96.466 165.129 96.466C167.609 96.466 168.849 95.2157 168.849 92.715V80.377C168.849 78.765 169.593 77.959 171.081 77.959C172.569 77.959 173.313 78.765 173.313 80.377V92.715C173.313 95.2157 172.621 97.0963 171.236 98.357C169.852 99.6177 167.816 100.248 165.129 100.248ZM181.543 89.243C181.543 91.7023 181.843 93.4693 182.442 94.544C183.042 95.598 183.93 96.125 185.108 96.125C185.852 96.125 186.503 96.0733 187.061 95.97C187.619 95.846 188.126 95.784 188.58 95.784C189.407 95.784 190.006 95.9597 190.378 96.311C190.75 96.6417 190.936 97.0757 190.936 97.613C190.936 98.3157 190.678 98.853 190.161 99.225C189.665 99.597 189.025 99.8553 188.239 100C187.475 100.145 186.689 100.217 185.883 100.217C183.651 100.217 181.874 99.8037 180.551 98.977C179.249 98.1503 178.309 96.931 177.73 95.319C177.172 93.6863 176.893 91.661 176.893 89.243C176.893 86.825 177.172 84.779 177.73 83.105C178.309 81.4103 179.249 80.129 180.551 79.261C181.874 78.393 183.651 77.959 185.883 77.959C186.689 77.959 187.475 78.0313 188.239 78.176C189.025 78.3207 189.665 78.579 190.161 78.951C190.678 79.323 190.936 79.8603 190.936 80.563C190.936 81.0797 190.75 81.5137 190.378 81.865C190.006 82.2163 189.407 82.392 188.58 82.392C188.126 82.392 187.619 82.3403 187.061 82.237C186.503 82.113 185.852 82.051 185.108 82.051C183.662 82.051 182.701 82.64 182.225 83.818C181.771 84.9753 181.543 86.7837 181.543 89.243ZM199.313 100.248C198.527 100.248 197.701 100.186 196.833 100.062C195.965 99.938 195.262 99.7727 194.725 99.566C193.857 99.2147 193.423 98.6257 193.423 97.799C193.423 97.1997 193.598 96.7243 193.95 96.373C194.322 96.001 194.9 95.815 195.686 95.815C196.223 95.815 196.874 95.8873 197.639 96.032C198.403 96.1767 199.075 96.249 199.654 96.249C200.935 96.249 201.855 96.0837 202.413 95.753C202.971 95.4223 203.25 94.7507 203.25 93.738C203.25 93.1387 203.033 92.6323 202.599 92.219C202.185 91.8057 201.348 91.413 200.088 91.041C197.794 90.359 196.13 89.5117 195.097 88.499C194.084 87.4863 193.578 86.174 193.578 84.562C193.578 83.1567 193.888 81.9683 194.508 80.997C195.148 80.005 196.027 79.2507 197.143 78.734C198.259 78.2173 199.53 77.959 200.956 77.959C202.63 77.959 204.014 78.1863 205.11 78.641C205.978 78.9717 206.412 79.5607 206.412 80.408C206.412 81.0073 206.226 81.493 205.854 81.865C205.502 82.2163 204.934 82.392 204.149 82.392C203.632 82.392 203.074 82.3403 202.475 82.237C201.875 82.113 201.286 82.051 200.708 82.051C199.819 82.051 199.147 82.206 198.693 82.516C198.238 82.826 198.011 83.3427 198.011 84.066C198.011 84.7273 198.331 85.3267 198.972 85.864C199.612 86.4013 200.79 86.9283 202.506 87.445C204.469 88.0237 205.823 88.809 206.567 89.801C207.311 90.7723 207.683 92.0123 207.683 93.521C207.683 95.7117 206.949 97.3857 205.482 98.543C204.035 99.6797 201.979 100.248 199.313 100.248ZM214.693 89.243C214.693 91.7023 214.992 93.4693 215.592 94.544C216.191 95.598 217.08 96.125 218.258 96.125C219.002 96.125 219.653 96.0733 220.211 95.97C220.769 95.846 221.275 95.784 221.73 95.784C222.556 95.784 223.156 95.9597 223.528 96.311C223.9 96.6417 224.086 97.0757 224.086 97.613C224.086 98.3157 223.827 98.853 223.311 99.225C222.815 99.597 222.174 99.8553 221.389 100C220.624 100.145 219.839 100.217 219.033 100.217C216.801 100.217 215.023 99.8037 213.701 98.977C212.399 98.1503 211.458 96.931 210.88 95.319C210.322 93.6863 210.043 91.661 210.043 89.243C210.043 86.825 210.322 84.779 210.88 83.105C211.458 81.4103 212.399 80.129 213.701 79.261C215.023 78.393 216.801 77.959 219.033 77.959C219.839 77.959 220.624 78.0313 221.389 78.176C222.174 78.3207 222.815 78.579 223.311 78.951C223.827 79.323 224.086 79.8603 224.086 80.563C224.086 81.0797 223.9 81.5137 223.528 81.865C223.156 82.2163 222.556 82.392 221.73 82.392C221.275 82.392 220.769 82.3403 220.211 82.237C219.653 82.113 219.002 82.051 218.258 82.051C216.811 82.051 215.85 82.64 215.375 83.818C214.92 84.9753 214.693 86.7837 214.693 89.243ZM236.02 81.586C235.255 81.586 234.615 81.338 234.098 80.842C233.581 80.346 233.323 79.7363 233.323 79.013C233.323 78.2483 233.581 77.618 234.098 77.122C234.615 76.626 235.255 76.378 236.02 76.378C236.805 76.378 237.446 76.626 237.942 77.122C238.459 77.618 238.717 78.2483 238.717 79.013C238.717 79.7363 238.459 80.346 237.942 80.842C237.446 81.338 236.805 81.586 236.02 81.586ZM238.252 98.171C238.252 99.5557 237.529 100.248 236.082 100.248C235.379 100.248 234.821 100.083 234.408 99.752C233.995 99.4007 233.788 98.8737 233.788 98.171V86.36C233.788 85.6987 233.953 85.182 234.284 84.81C234.635 84.438 235.214 84.252 236.02 84.252C236.826 84.252 237.394 84.438 237.725 84.81C238.076 85.182 238.252 85.6987 238.252 86.36V98.171ZM246.954 100.248C243.069 100.248 241.126 99.3903 241.126 97.675C241.126 97.1377 241.271 96.714 241.56 96.404C241.85 96.094 242.232 95.939 242.707 95.939C242.914 95.939 243.11 95.97 243.296 96.032C243.503 96.0733 243.896 96.187 244.474 96.373C244.722 96.4557 245.053 96.5383 245.466 96.621C245.88 96.7037 246.283 96.745 246.675 96.745C247.419 96.745 247.946 96.652 248.256 96.466C248.566 96.28 248.721 95.97 248.721 95.536C248.721 95.1847 248.639 94.916 248.473 94.73C248.308 94.5233 247.957 94.327 247.419 94.141C246.882 93.955 246.045 93.6967 244.908 93.366C243.875 93.0767 243.038 92.56 242.397 91.816C241.777 91.0513 241.467 90.111 241.467 88.995C241.467 87.4243 242.036 86.2257 243.172 85.399C244.309 84.5723 245.869 84.159 247.853 84.159C249.341 84.159 250.509 84.3657 251.356 84.779C252.204 85.1923 252.627 85.7917 252.627 86.577C252.627 87.073 252.483 87.4863 252.193 87.817C251.904 88.1477 251.511 88.313 251.015 88.313C250.809 88.313 250.561 88.282 250.271 88.22C250.003 88.158 249.672 88.0753 249.279 87.972C248.99 87.8687 248.68 87.786 248.349 87.724C248.039 87.662 247.709 87.631 247.357 87.631C246.365 87.631 245.869 87.9823 245.869 88.685C245.869 89.0983 246.066 89.4497 246.458 89.739C246.851 90.0077 247.605 90.3073 248.721 90.638C250.251 91.0927 251.377 91.7023 252.1 92.467C252.824 93.211 253.185 94.203 253.185 95.443C253.185 96.8897 252.627 98.0573 251.511 98.946C250.416 99.814 248.897 100.248 246.954 100.248ZM57.644 141.248C56.838 141.248 56.2594 141.021 55.908 140.566C55.5774 140.091 55.412 139.502 55.412 138.799V129.251H54.978C53.4487 129.251 52.684 128.631 52.684 127.391C52.684 126.13 53.4487 125.5 54.978 125.5H55.412V125.376C55.412 122.979 55.9287 121.046 56.962 119.579C57.9954 118.112 59.5764 117.378 61.705 117.378C61.7257 117.378 61.7464 117.378 61.767 117.378H61.798C61.86 117.378 61.922 117.378 61.984 117.378C63.6787 117.399 64.9084 117.636 65.673 118.091C66.4584 118.546 66.851 119.238 66.851 120.168C66.851 120.85 66.665 121.305 66.293 121.532C65.9417 121.739 65.4457 121.842 64.805 121.842C64.247 121.842 63.7717 121.801 63.379 121.718C63.007 121.615 62.5214 121.542 61.922 121.501H61.736C60.9094 121.501 60.372 121.821 60.124 122.462C59.876 123.082 59.752 123.847 59.752 124.756V125.5H61.519C62.9244 125.5 63.627 126.13 63.627 127.391C63.627 128.631 62.9244 129.251 61.519 129.251H59.752V138.799C59.752 139.646 59.566 140.266 59.194 140.659C58.8427 141.052 58.326 141.248 57.644 141.248ZM71.3974 141.248C69.186 141.248 67.4397 140.618 66.1584 139.357C64.877 138.096 64.2364 136.061 64.2364 133.25C64.2364 130.419 64.877 128.383 66.1584 127.143C67.4397 125.882 69.186 125.252 71.3974 125.252C73.6087 125.252 75.355 125.882 76.6364 127.143C77.9177 128.383 78.5584 130.419 78.5584 133.25C78.5584 136.061 77.9177 138.096 76.6364 139.357C75.355 140.618 73.6087 141.248 71.3974 141.248ZM71.3974 137.528C71.976 137.528 72.4617 137.414 72.8544 137.187C73.247 136.939 73.5467 136.505 73.7534 135.885C73.9807 135.265 74.0944 134.387 74.0944 133.25C74.0944 132.113 73.9807 131.235 73.7534 130.615C73.5467 129.995 73.247 129.571 72.8544 129.344C72.4617 129.096 71.976 128.972 71.3974 128.972C70.8394 128.972 70.3537 129.096 69.9404 129.344C69.5477 129.571 69.2377 129.995 69.0104 130.615C68.8037 131.235 68.7004 132.113 68.7004 133.25C68.7004 134.387 68.8037 135.265 69.0104 135.885C69.2377 136.505 69.5477 136.939 69.9404 137.187C70.3537 137.414 70.8394 137.528 71.3974 137.528ZM88.3924 141.248C87.0284 141.248 85.8297 140.969 84.7964 140.411C83.7631 139.853 82.9571 139.068 82.3784 138.055C81.8204 137.042 81.5414 135.864 81.5414 134.521V127.267C81.5414 125.862 82.2854 125.159 83.7734 125.159C85.2614 125.159 86.0054 125.862 86.0054 127.267V134.459C86.0054 135.43 86.2121 136.185 86.6254 136.722C87.0387 137.259 87.6277 137.528 88.3924 137.528C89.1571 137.528 89.7461 137.259 90.1594 136.722C90.5727 136.185 90.7794 135.43 90.7794 134.459V127.267C90.7794 125.862 91.5234 125.159 93.0114 125.159C94.4994 125.159 95.2434 125.862 95.2434 127.267V134.521C95.2434 135.864 94.9541 137.042 94.3754 138.055C93.8174 139.068 93.0217 139.853 91.9884 140.411C90.9757 140.969 89.7771 141.248 88.3924 141.248ZM100.666 141.248C99.178 141.248 98.434 140.545 98.434 139.14V131.7C98.434 129.716 99.0643 128.145 100.325 126.988C101.606 125.831 103.291 125.252 105.378 125.252C107.465 125.252 109.139 125.831 110.4 126.988C111.681 128.145 112.322 129.716 112.322 131.7V139.14C112.322 140.545 111.578 141.248 110.09 141.248C108.602 141.248 107.858 140.545 107.858 139.14V131.948C107.858 130.977 107.641 130.243 107.207 129.747C106.773 129.23 106.163 128.972 105.378 128.972C104.593 128.972 103.983 129.23 103.549 129.747C103.115 130.243 102.898 130.977 102.898 131.948V139.14C102.898 140.545 102.154 141.248 100.666 141.248ZM122.655 141.248C120.381 141.248 118.583 140.525 117.261 139.078C115.959 137.631 115.308 135.513 115.308 132.723C115.308 130.863 115.576 129.385 116.114 128.29C116.651 127.195 117.395 126.42 118.346 125.965C119.317 125.49 120.412 125.252 121.632 125.252C122.727 125.252 123.616 125.386 124.298 125.655C124.98 125.924 125.517 126.378 125.91 127.019C125.765 126.585 125.651 126.182 125.569 125.81C125.507 125.417 125.455 124.963 125.414 124.446C125.393 123.929 125.383 123.268 125.383 122.462V119.796C125.383 118.184 126.075 117.378 127.46 117.378C128.968 117.378 129.723 118.184 129.723 119.796V132.909C129.723 135.699 129.103 137.786 127.863 139.171C126.623 140.556 124.887 141.248 122.655 141.248ZM122.438 137.528C123.306 137.528 123.977 137.218 124.453 136.598C124.949 135.978 125.197 134.821 125.197 133.126C125.197 131.989 125.083 131.132 124.856 130.553C124.649 129.954 124.339 129.54 123.926 129.313C123.512 129.086 123.016 128.972 122.438 128.972C121.859 128.972 121.363 129.086 120.95 129.313C120.536 129.54 120.216 129.954 119.989 130.553C119.782 131.132 119.679 131.989 119.679 133.126C119.679 134.821 119.916 135.978 120.392 136.598C120.888 137.218 121.57 137.528 122.438 137.528ZM140.714 141.248C138.648 141.248 137.025 140.907 135.847 140.225C134.69 139.543 133.863 138.603 133.367 137.404C132.892 136.205 132.654 134.831 132.654 133.281C132.654 130.429 133.285 128.383 134.545 127.143C135.806 125.882 137.501 125.252 139.629 125.252C140.911 125.252 142.047 125.469 143.039 125.903C144.031 126.337 144.806 126.957 145.364 127.763C145.922 128.548 146.201 129.509 146.201 130.646C146.201 133.953 143.845 135.606 139.133 135.606H137.335C137.501 136.247 137.769 136.753 138.141 137.125C138.534 137.476 139.216 137.652 140.187 137.652C140.725 137.652 141.159 137.621 141.489 137.559C141.82 137.497 142.13 137.435 142.419 137.373C142.729 137.311 143.081 137.28 143.473 137.28C144.031 137.28 144.476 137.383 144.806 137.59C145.137 137.776 145.302 138.169 145.302 138.768C145.302 139.615 144.93 140.246 144.186 140.659C143.463 141.052 142.306 141.248 140.714 141.248ZM137.118 133.312C137.284 133.085 137.47 132.94 137.676 132.878C137.883 132.795 138.203 132.754 138.637 132.754C139.857 132.754 140.694 132.64 141.148 132.413C141.624 132.165 141.861 131.731 141.861 131.111C141.861 130.326 141.644 129.726 141.21 129.313C140.776 128.879 140.229 128.662 139.567 128.662C138.803 128.662 138.203 128.982 137.769 129.623C137.335 130.264 137.118 131.493 137.118 133.312ZM155.501 141.248C153.228 141.248 151.43 140.525 150.107 139.078C148.805 137.631 148.154 135.513 148.154 132.723C148.154 130.863 148.423 129.385 148.96 128.29C149.498 127.195 150.242 126.42 151.192 125.965C152.164 125.49 153.259 125.252 154.478 125.252C155.574 125.252 156.462 125.386 157.144 125.655C157.826 125.924 158.364 126.378 158.756 127.019C158.612 126.585 158.498 126.182 158.415 125.81C158.353 125.417 158.302 124.963 158.26 124.446C158.24 123.929 158.229 123.268 158.229 122.462V119.796C158.229 118.184 158.922 117.378 160.306 117.378C161.815 117.378 162.569 118.184 162.569 119.796V132.909C162.569 135.699 161.949 137.786 160.709 139.171C159.469 140.556 157.733 141.248 155.501 141.248ZM155.284 137.528C156.152 137.528 156.824 137.218 157.299 136.598C157.795 135.978 158.043 134.821 158.043 133.126C158.043 131.989 157.93 131.132 157.702 130.553C157.496 129.954 157.186 129.54 156.772 129.313C156.359 129.086 155.863 128.972 155.284 128.972C154.706 128.972 154.21 129.086 153.796 129.313C153.383 129.54 153.063 129.954 152.835 130.553C152.629 131.132 152.525 131.989 152.525 133.126C152.525 134.821 152.763 135.978 153.238 136.598C153.734 137.218 154.416 137.528 155.284 137.528ZM180.25 141.248C178.018 141.248 176.282 140.556 175.042 139.171C173.802 137.786 173.182 135.699 173.182 132.909V119.796C173.182 118.184 173.936 117.378 175.445 117.378C176.83 117.378 177.522 118.184 177.522 119.796V122.462C177.522 123.268 177.501 123.929 177.46 124.446C177.439 124.963 177.388 125.417 177.305 125.81C177.243 126.182 177.14 126.585 176.995 127.019C177.388 126.378 177.925 125.924 178.607 125.655C179.31 125.386 180.198 125.252 181.273 125.252C182.513 125.252 183.608 125.49 184.559 125.965C185.51 126.42 186.254 127.195 186.791 128.29C187.328 129.385 187.597 130.863 187.597 132.723C187.597 135.513 186.936 137.631 185.613 139.078C184.311 140.525 182.523 141.248 180.25 141.248ZM180.467 137.528C181.335 137.528 182.007 137.218 182.482 136.598C182.978 135.978 183.226 134.821 183.226 133.126C183.226 131.989 183.112 131.132 182.885 130.553C182.678 129.954 182.368 129.54 181.955 129.313C181.542 129.086 181.046 128.972 180.467 128.972C179.888 128.972 179.392 129.086 178.979 129.313C178.566 129.54 178.245 129.954 178.018 130.553C177.811 131.132 177.708 131.989 177.708 133.126C177.708 134.821 177.946 135.978 178.421 136.598C178.917 137.218 179.599 137.528 180.467 137.528ZM192.955 148.13C190.083 148.13 188.646 147.303 188.646 145.65C188.646 145.051 188.812 144.648 189.142 144.441C189.473 144.255 189.917 144.162 190.475 144.162C191.054 144.162 191.56 144.203 191.994 144.286C192.428 144.389 192.914 144.441 193.451 144.441C194.051 144.441 194.474 144.369 194.722 144.224C194.97 144.079 195.094 143.811 195.094 143.418C195.094 143.17 195.043 142.85 194.939 142.457C194.836 142.064 194.629 141.486 194.319 140.721C194.03 139.956 193.606 138.902 193.048 137.559L189.173 128.166C189.049 127.856 188.987 127.525 188.987 127.174C188.987 126.471 189.246 125.965 189.762 125.655C190.279 125.324 190.816 125.159 191.374 125.159C191.891 125.159 192.304 125.293 192.614 125.562C192.945 125.81 193.183 126.141 193.327 126.554L197.202 136.598C197.988 135.007 198.504 133.643 198.752 132.506C199.021 131.369 199.135 130.326 199.093 129.375C199.073 128.776 199.031 128.29 198.969 127.918C198.928 127.525 198.897 127.277 198.876 127.174C198.794 126.513 198.99 126.017 199.465 125.686C199.961 125.335 200.54 125.159 201.201 125.159C201.801 125.159 202.255 125.293 202.565 125.562C202.896 125.81 203.134 126.161 203.278 126.616C203.382 126.947 203.444 127.329 203.464 127.763C203.506 128.176 203.526 128.517 203.526 128.786C203.526 129.861 203.423 130.956 203.216 132.072C203.03 133.188 202.751 134.242 202.379 135.234C202.028 136.205 201.584 137.053 201.046 137.776C200.964 137.879 200.809 138.086 200.581 138.396C200.375 138.706 200.116 139.016 199.806 139.326C199.496 139.615 199.176 139.822 198.845 139.946C199.197 140.318 199.445 140.804 199.589 141.403C199.734 142.023 199.806 142.664 199.806 143.325C199.806 144.73 199.259 145.877 198.163 146.766C197.089 147.675 195.353 148.13 192.955 148.13ZM217.941 139.171C217.941 140.556 217.218 141.248 215.771 141.248C215.069 141.248 214.511 141.072 214.097 140.721C213.684 140.37 213.477 139.853 213.477 139.171V126.368C213.477 123.929 213.994 122.09 215.027 120.85C216.081 119.589 217.631 118.959 219.677 118.959C221.186 118.959 222.436 119.269 223.428 119.889C224.42 120.509 225.082 121.398 225.412 122.555C225.743 121.398 226.404 120.509 227.396 119.889C228.388 119.269 229.659 118.959 231.209 118.959C233.317 118.959 234.878 119.569 235.89 120.788C236.903 121.987 237.409 123.847 237.409 126.368V138.861C237.409 139.708 237.244 140.318 236.913 140.69C236.583 141.062 236.025 141.248 235.239 141.248C234.454 141.248 233.875 141.062 233.503 140.69C233.131 140.297 232.945 139.688 232.945 138.861V126.12C232.945 124.074 232.067 123.051 230.31 123.051C229.422 123.051 228.76 123.351 228.326 123.95C227.892 124.529 227.675 125.459 227.675 126.74V138.551C227.675 139.398 227.51 140.008 227.179 140.38C226.849 140.752 226.291 140.938 225.505 140.938C224.72 140.938 224.141 140.752 223.769 140.38C223.397 139.987 223.211 139.378 223.211 138.551V126.74C223.211 124.281 222.333 123.051 220.576 123.051C218.82 123.051 217.941 124.074 217.941 126.12V139.171ZM246.813 141.248C244.746 141.248 243.134 140.773 241.977 139.822C240.82 138.851 240.241 137.6 240.241 136.071C240.241 134.273 240.995 132.971 242.504 132.165C244.033 131.359 246.265 131.08 249.2 131.328C249.055 130.377 248.756 129.737 248.301 129.406C247.846 129.055 247.299 128.879 246.658 128.879C246.141 128.879 245.707 128.91 245.356 128.972C245.025 129.013 244.715 129.065 244.426 129.127C244.137 129.189 243.785 129.22 243.372 129.22C242.814 129.22 242.37 129.127 242.039 128.941C241.708 128.734 241.543 128.331 241.543 127.732C241.543 126.885 241.905 126.265 242.628 125.872C243.372 125.459 244.54 125.252 246.131 125.252C248.652 125.252 250.523 125.975 251.742 127.422C252.961 128.848 253.571 130.76 253.571 133.157C253.571 135.926 253.065 137.972 252.052 139.295C251.06 140.597 249.314 141.248 246.813 141.248ZM244.705 136.071C244.705 137.249 245.501 137.838 247.092 137.838C247.609 137.838 248.012 137.745 248.301 137.559C248.59 137.373 248.797 137.001 248.921 136.443C249.066 135.885 249.169 135.048 249.231 133.932C249.128 134.035 248.993 134.108 248.828 134.149C248.663 134.19 248.497 134.211 248.332 134.211C246.968 134.211 246.017 134.345 245.48 134.614C244.963 134.862 244.705 135.348 244.705 136.071ZM258.784 141.248C257.296 141.248 256.552 140.545 256.552 139.14V127.391C256.552 125.965 257.296 125.252 258.784 125.252C259.528 125.252 260.065 125.417 260.396 125.748C260.727 126.058 260.892 126.575 260.892 127.298C261.264 126.616 261.791 126.11 262.473 125.779C263.176 125.428 263.992 125.252 264.922 125.252C266.699 125.252 267.588 126.027 267.588 127.577C267.588 128.156 267.371 128.59 266.937 128.879C266.503 129.168 265.79 129.313 264.798 129.313C263.827 129.313 263.062 129.406 262.504 129.592C261.946 129.757 261.553 130.078 261.326 130.553C261.119 131.008 261.016 131.669 261.016 132.537V139.14C261.016 140.545 260.272 141.248 258.784 141.248ZM270.923 141.248C270.117 141.248 269.538 141.031 269.187 140.597C268.856 140.163 268.691 139.574 268.691 138.83V119.796C268.691 119.052 268.856 118.463 269.187 118.029C269.538 117.595 270.117 117.378 270.923 117.378C271.729 117.378 272.297 117.595 272.628 118.029C272.979 118.463 273.155 119.052 273.155 119.796V131.328C274.25 130.667 275.222 129.923 276.069 129.096C276.916 128.249 277.495 127.443 277.805 126.678C278.094 125.975 278.508 125.5 279.045 125.252C279.582 125.004 280.171 125.035 280.812 125.345C281.701 125.779 282.114 126.44 282.052 127.329C282.031 128.073 281.69 128.91 281.029 129.84C280.388 130.749 279.593 131.535 278.642 132.196C279.841 132.609 280.802 133.364 281.525 134.459C282.269 135.534 282.641 137.094 282.641 139.14C282.641 140.545 281.907 141.248 280.44 141.248C278.931 141.248 278.177 140.545 278.177 139.14C278.177 137.631 277.939 136.526 277.464 135.823C276.989 135.12 276.358 134.769 275.573 134.769C274.85 134.769 274.261 135.038 273.806 135.575C273.372 136.112 273.155 137.042 273.155 138.365C273.155 139.564 272.979 140.349 272.628 140.721C272.277 141.072 271.708 141.248 270.923 141.248ZM84.6929 180.171C84.6929 181.556 83.9695 182.248 82.5229 182.248C81.8202 182.248 81.2622 182.072 80.8489 181.721C80.4355 181.37 80.2289 180.853 80.2289 180.171V167.895C80.2289 165.043 80.8075 163.007 81.9649 161.788C83.1222 160.569 84.9305 159.959 87.3899 159.959C89.9112 159.959 91.7712 160.579 92.9699 161.819C94.1685 163.059 94.7679 165.084 94.7679 167.895V180.171C94.7679 181.556 94.0445 182.248 92.5979 182.248C91.8952 182.248 91.3372 182.072 90.9239 181.721C90.5105 181.37 90.3039 180.853 90.3039 180.171V172.7C89.9112 173.051 89.4772 173.351 89.0019 173.599C88.5472 173.847 88.0099 173.971 87.3899 173.971C86.4805 173.971 85.7985 174.136 85.3439 174.467C84.9099 174.798 84.6929 175.387 84.6929 176.234V180.171ZM84.5069 171.088C84.8375 170.757 85.2302 170.499 85.6849 170.313C86.1602 170.127 86.7285 170.034 87.3899 170.034C88.1752 170.034 88.7745 169.972 89.1879 169.848C89.6219 169.724 89.9215 169.486 90.0869 169.135C90.2522 168.784 90.3349 168.267 90.3349 167.585C90.3349 166.056 90.1179 165.012 89.6839 164.454C89.2499 163.875 88.4749 163.586 87.3589 163.586C86.3255 163.586 85.6125 163.886 85.2199 164.485C84.8479 165.064 84.6619 166.138 84.6619 167.709C84.6619 168.515 84.6515 169.197 84.6309 169.755C84.6102 170.313 84.5689 170.757 84.5069 171.088ZM105.141 182.248C102.868 182.248 101.07 181.525 99.7475 180.078C98.4455 178.631 97.7945 176.513 97.7945 173.723C97.7945 171.863 98.0631 170.385 98.6005 169.29C99.1378 168.195 99.8818 167.42 100.832 166.965C101.804 166.49 102.899 166.252 104.118 166.252C105.214 166.252 106.102 166.386 106.784 166.655C107.466 166.924 108.004 167.378 108.396 168.019C108.252 167.585 108.138 167.182 108.055 166.81C107.993 166.417 107.942 165.963 107.9 165.446C107.88 164.929 107.869 164.268 107.869 163.462V160.796C107.869 159.184 108.562 158.378 109.946 158.378C111.455 158.378 112.209 159.184 112.209 160.796V173.909C112.209 176.699 111.589 178.786 110.349 180.171C109.109 181.556 107.373 182.248 105.141 182.248ZM104.924 178.528C105.792 178.528 106.464 178.218 106.939 177.598C107.435 176.978 107.683 175.821 107.683 174.126C107.683 172.989 107.57 172.132 107.342 171.553C107.136 170.954 106.826 170.54 106.412 170.313C105.999 170.086 105.503 169.972 104.924 169.972C104.346 169.972 103.85 170.086 103.436 170.313C103.023 170.54 102.703 170.954 102.475 171.553C102.269 172.132 102.165 172.989 102.165 174.126C102.165 175.821 102.403 176.978 102.878 177.598C103.374 178.218 104.056 178.528 104.924 178.528ZM121.224 182.248C119.157 182.248 117.545 181.773 116.388 180.822C115.23 179.851 114.652 178.6 114.652 177.071C114.652 175.273 115.406 173.971 116.915 173.165C118.444 172.359 120.676 172.08 123.611 172.328C123.466 171.377 123.166 170.737 122.712 170.406C122.257 170.055 121.709 169.879 121.069 169.879C120.552 169.879 120.118 169.91 119.767 169.972C119.436 170.013 119.126 170.065 118.837 170.127C118.547 170.189 118.196 170.22 117.783 170.22C117.225 170.22 116.78 170.127 116.45 169.941C116.119 169.734 115.954 169.331 115.954 168.732C115.954 167.885 116.315 167.265 117.039 166.872C117.783 166.459 118.95 166.252 120.542 166.252C123.063 166.252 124.933 166.975 126.153 168.422C127.372 169.848 127.982 171.76 127.982 174.157C127.982 176.926 127.475 178.972 126.463 180.295C125.471 181.597 123.724 182.248 121.224 182.248ZM119.116 177.071C119.116 178.249 119.911 178.838 121.503 178.838C122.019 178.838 122.422 178.745 122.712 178.559C123.001 178.373 123.208 178.001 123.332 177.443C123.476 176.885 123.58 176.048 123.642 174.932C123.538 175.035 123.404 175.108 123.239 175.149C123.073 175.19 122.908 175.211 122.743 175.211C121.379 175.211 120.428 175.345 119.891 175.614C119.374 175.862 119.116 176.348 119.116 177.071ZM133.195 182.248C131.707 182.248 130.963 181.545 130.963 180.14V172.7C130.963 170.592 131.459 168.99 132.451 167.895C133.463 166.8 134.91 166.252 136.791 166.252C139.353 166.252 141.089 167.172 141.999 169.011C142.908 167.172 144.644 166.252 147.207 166.252C149.087 166.252 150.524 166.8 151.516 167.895C152.528 168.99 153.035 170.592 153.035 172.7V180.14C153.035 181.545 152.291 182.248 150.803 182.248C149.315 182.248 148.571 181.545 148.571 180.14V172.948C148.571 171.894 148.395 171.14 148.044 170.685C147.692 170.21 147.145 169.972 146.401 169.972C144.913 169.972 144.169 170.964 144.169 172.948V180.016C144.169 181.421 143.445 182.124 141.999 182.124C140.552 182.124 139.829 181.421 139.829 180.016V172.948C139.829 170.964 139.085 169.972 137.597 169.972C136.15 169.972 135.427 170.964 135.427 172.948V180.14C135.427 181.545 134.683 182.248 133.195 182.248ZM161.629 182.248C157.743 182.248 155.801 181.39 155.801 179.675C155.801 179.138 155.945 178.714 156.235 178.404C156.524 178.094 156.906 177.939 157.382 177.939C157.588 177.939 157.785 177.97 157.971 178.032C158.177 178.073 158.57 178.187 159.149 178.373C159.397 178.456 159.727 178.538 160.141 178.621C160.554 178.704 160.957 178.745 161.35 178.745C162.094 178.745 162.621 178.652 162.931 178.466C163.241 178.28 163.396 177.97 163.396 177.536C163.396 177.185 163.313 176.916 163.148 176.73C162.982 176.523 162.631 176.327 162.094 176.141C161.556 175.955 160.719 175.697 159.583 175.366C158.549 175.077 157.712 174.56 157.072 173.816C156.452 173.051 156.142 172.111 156.142 170.995C156.142 169.424 156.71 168.226 157.847 167.399C158.983 166.572 160.544 166.159 162.528 166.159C164.016 166.159 165.183 166.366 166.031 166.779C166.878 167.192 167.302 167.792 167.302 168.577C167.302 169.073 167.157 169.486 166.868 169.817C166.578 170.148 166.186 170.313 165.69 170.313C165.483 170.313 165.235 170.282 164.946 170.22C164.677 170.158 164.346 170.075 163.954 169.972C163.664 169.869 163.354 169.786 163.024 169.724C162.714 169.662 162.383 169.631 162.032 169.631C161.04 169.631 160.544 169.982 160.544 170.685C160.544 171.098 160.74 171.45 161.133 171.739C161.525 172.008 162.28 172.307 163.396 172.638C164.925 173.093 166.051 173.702 166.775 174.467C167.498 175.211 167.86 176.203 167.86 177.443C167.86 178.89 167.302 180.057 166.186 180.946C165.09 181.814 163.571 182.248 161.629 182.248ZM169.911 187.859C169.415 187.859 169.043 187.735 168.795 187.487C168.547 187.26 168.423 186.981 168.423 186.65C168.423 186.567 168.433 186.412 168.454 186.185C168.495 185.958 168.568 185.586 168.671 185.069C168.774 184.573 168.94 183.86 169.167 182.93C169.394 182.021 169.704 180.822 170.097 179.334C170.283 178.652 170.593 178.156 171.027 177.846C171.461 177.536 171.926 177.381 172.422 177.381C173.001 177.381 173.528 177.577 174.003 177.97C174.478 178.342 174.716 178.848 174.716 179.489C174.716 179.82 174.623 180.192 174.437 180.605L171.647 186.464C171.523 186.712 171.347 187.001 171.12 187.332C170.913 187.683 170.51 187.859 169.911 187.859ZM186.34 182C185.947 182 185.616 181.845 185.348 181.535C185.079 181.225 184.945 180.832 184.945 180.357V166.407C184.945 165.725 185.038 165.012 185.224 164.268C185.43 163.524 185.802 162.832 186.34 162.191C186.898 161.53 187.683 160.992 188.696 160.579C189.708 160.166 191.031 159.959 192.664 159.959C194.834 159.959 196.518 160.496 197.717 161.571C198.915 162.646 199.515 164.258 199.515 166.407C199.515 167.275 199.349 168.071 199.019 168.794C198.709 169.517 198.233 170.065 197.593 170.437C198.605 170.892 199.329 171.522 199.763 172.328C200.217 173.134 200.445 174.25 200.445 175.676C200.445 177.743 199.804 179.313 198.523 180.388C197.262 181.463 195.309 182 192.664 182H186.34ZM189.192 169.879C189.46 169.548 189.894 169.29 190.494 169.104C191.114 168.918 191.837 168.825 192.664 168.825C193.635 168.825 194.296 168.649 194.648 168.298C195.02 167.926 195.206 167.296 195.206 166.407C195.206 165.374 194.989 164.64 194.555 164.206C194.141 163.751 193.511 163.524 192.664 163.524C191.465 163.524 190.618 163.741 190.122 164.175C189.646 164.609 189.409 165.353 189.409 166.407C189.409 167.048 189.398 167.564 189.378 167.957C189.378 168.329 189.357 168.66 189.316 168.949C189.295 169.238 189.254 169.548 189.192 169.879ZM189.409 178.404H192.664C193.904 178.404 194.761 178.187 195.237 177.753C195.733 177.319 195.981 176.627 195.981 175.676C195.981 174.333 195.722 173.372 195.206 172.793C194.71 172.214 193.862 171.925 192.664 171.925C191.816 171.925 191.155 172.039 190.68 172.266C190.204 172.473 189.874 172.845 189.688 173.382C189.502 173.919 189.409 174.684 189.409 175.676V178.404ZM205.548 182.248C204.06 182.248 203.316 181.545 203.316 180.14V168.391C203.316 166.965 204.06 166.252 205.548 166.252C206.292 166.252 206.83 166.417 207.16 166.748C207.491 167.058 207.656 167.575 207.656 168.298C208.028 167.616 208.555 167.11 209.237 166.779C209.94 166.428 210.756 166.252 211.686 166.252C213.464 166.252 214.352 167.027 214.352 168.577C214.352 169.156 214.135 169.59 213.701 169.879C213.267 170.168 212.554 170.313 211.562 170.313C210.591 170.313 209.826 170.406 209.268 170.592C208.71 170.757 208.318 171.078 208.09 171.553C207.884 172.008 207.78 172.669 207.78 173.537V180.14C207.78 181.545 207.036 182.248 205.548 182.248ZM222.589 182.248C220.522 182.248 218.9 181.907 217.722 181.225C216.565 180.543 215.738 179.603 215.242 178.404C214.767 177.205 214.529 175.831 214.529 174.281C214.529 171.429 215.159 169.383 216.42 168.143C217.681 166.882 219.375 166.252 221.504 166.252C222.785 166.252 223.922 166.469 224.914 166.903C225.906 167.337 226.681 167.957 227.239 168.763C227.797 169.548 228.076 170.509 228.076 171.646C228.076 174.953 225.72 176.606 221.008 176.606H219.21C219.375 177.247 219.644 177.753 220.016 178.125C220.409 178.476 221.091 178.652 222.062 178.652C222.599 178.652 223.033 178.621 223.364 178.559C223.695 178.497 224.005 178.435 224.294 178.373C224.604 178.311 224.955 178.28 225.348 178.28C225.906 178.28 226.35 178.383 226.681 178.59C227.012 178.776 227.177 179.169 227.177 179.768C227.177 180.615 226.805 181.246 226.061 181.659C225.338 182.052 224.18 182.248 222.589 182.248ZM218.993 174.312C219.158 174.085 219.344 173.94 219.551 173.878C219.758 173.795 220.078 173.754 220.512 173.754C221.731 173.754 222.568 173.64 223.023 173.413C223.498 173.165 223.736 172.731 223.736 172.111C223.736 171.326 223.519 170.726 223.085 170.313C222.651 169.879 222.103 169.662 221.442 169.662C220.677 169.662 220.078 169.982 219.644 170.623C219.21 171.264 218.993 172.493 218.993 174.312ZM233.006 182.248C231.518 182.248 230.774 181.545 230.774 180.14V172.7C230.774 170.716 231.405 169.145 232.665 167.988C233.947 166.831 235.631 166.252 237.718 166.252C239.806 166.252 241.48 166.831 242.74 167.988C244.022 169.145 244.662 170.716 244.662 172.7V180.14C244.662 181.545 243.918 182.248 242.43 182.248C240.942 182.248 240.198 181.545 240.198 180.14V172.948C240.198 171.977 239.981 171.243 239.547 170.747C239.113 170.23 238.504 169.972 237.718 169.972C236.933 169.972 236.323 170.23 235.889 170.747C235.455 171.243 235.238 171.977 235.238 172.948V180.14C235.238 181.545 234.494 182.248 233.006 182.248ZM254.431 182.248C252.509 182.248 251.083 181.793 250.153 180.884C249.244 179.975 248.789 178.58 248.789 176.699V170.251H247.983C246.578 170.251 245.875 169.621 245.875 168.36C245.875 167.12 246.578 166.5 247.983 166.5H248.789V163.152C248.789 162.47 248.996 161.912 249.409 161.478C249.843 161.044 250.401 160.827 251.083 160.827C251.745 160.827 252.272 161.034 252.664 161.447C253.057 161.84 253.253 162.387 253.253 163.09V164.609C253.253 165.374 253.129 166.004 252.881 166.5H255.826C257.232 166.5 257.934 167.12 257.934 168.36C257.934 169.621 257.232 170.251 255.826 170.251H253.253V176.792C253.253 177.412 253.326 177.856 253.47 178.125C253.615 178.373 253.853 178.497 254.183 178.497C254.617 178.497 254.938 178.466 255.144 178.404C255.372 178.321 255.651 178.28 255.981 178.28C256.539 178.28 256.984 178.383 257.314 178.59C257.645 178.776 257.81 179.169 257.81 179.768C257.81 180.615 257.542 181.246 257.004 181.659C256.467 182.052 255.609 182.248 254.431 182.248ZM54.7657 223.248C53.2364 223.248 52.4717 222.556 52.4717 221.171V203.036C52.4717 202.313 52.6474 201.786 52.9987 201.455C53.3501 201.124 53.9081 200.959 54.6727 200.959C56.1814 200.959 56.9357 201.651 56.9357 203.036V206.136C56.9357 208.699 56.8634 210.228 56.7187 210.724C57.2561 210.187 57.8347 209.815 58.4547 209.608C59.0747 209.401 59.8911 209.298 60.9037 209.298H63.9417V203.036C63.9417 202.313 64.1174 201.786 64.4687 201.455C64.8201 201.124 65.3781 200.959 66.1427 200.959C67.6514 200.959 68.4057 201.651 68.4057 203.036V221.171C68.4057 221.874 68.2301 222.401 67.8787 222.752C67.5481 223.083 67.0004 223.248 66.2357 223.248C64.7064 223.248 63.9417 222.556 63.9417 221.171V211.995C63.8177 212.367 63.4147 212.677 62.7327 212.925C62.0507 213.152 61.2551 213.266 60.3457 213.266C59.0437 213.266 58.1447 213.535 57.6487 214.072C57.1734 214.589 56.9357 215.55 56.9357 216.955V221.171C56.9357 221.874 56.7601 222.401 56.4087 222.752C56.0781 223.083 55.5304 223.248 54.7657 223.248ZM77.8116 223.248C75.7449 223.248 74.1329 222.773 72.9756 221.822C71.8182 220.851 71.2396 219.6 71.2396 218.071C71.2396 216.273 71.9939 214.971 73.5026 214.165C75.0319 213.359 77.2639 213.08 80.1986 213.328C80.0539 212.377 79.7542 211.737 79.2996 211.406C78.8449 211.055 78.2972 210.879 77.6566 210.879C77.1399 210.879 76.7059 210.91 76.3546 210.972C76.0239 211.013 75.7139 211.065 75.4246 211.127C75.1352 211.189 74.7839 211.22 74.3706 211.22C73.8126 211.22 73.3682 211.127 73.0376 210.941C72.7069 210.734 72.5416 210.331 72.5416 209.732C72.5416 208.885 72.9032 208.265 73.6266 207.872C74.3706 207.459 75.5382 207.252 77.1296 207.252C79.6509 207.252 81.5212 207.975 82.7406 209.422C83.9599 210.848 84.5696 212.76 84.5696 215.157C84.5696 217.926 84.0632 219.972 83.0506 221.295C82.0586 222.597 80.3122 223.248 77.8116 223.248ZM75.7036 218.071C75.7036 219.249 76.4992 219.838 78.0906 219.838C78.6072 219.838 79.0102 219.745 79.2996 219.559C79.5889 219.373 79.7956 219.001 79.9196 218.443C80.0642 217.885 80.1676 217.048 80.2296 215.932C80.1262 216.035 79.9919 216.108 79.8266 216.149C79.6612 216.19 79.4959 216.211 79.3306 216.211C77.9666 216.211 77.0159 216.345 76.4786 216.614C75.9619 216.862 75.7036 217.348 75.7036 218.071ZM94.0917 223.248C91.8183 223.248 90.0203 222.525 88.6977 221.078C87.3957 219.631 86.7447 217.513 86.7447 214.723C86.7447 212.863 87.0133 211.385 87.5507 210.29C88.088 209.195 88.832 208.42 89.7827 207.965C90.754 207.49 91.8493 207.252 93.0687 207.252C94.164 207.252 95.0527 207.386 95.7347 207.655C96.4167 207.924 96.954 208.378 97.3467 209.019C97.202 208.585 97.0883 208.182 97.0057 207.81C96.9437 207.417 96.892 206.963 96.8507 206.446C96.83 205.929 96.8197 205.268 96.8197 204.462V201.796C96.8197 200.184 97.512 199.378 98.8967 199.378C100.405 199.378 101.16 200.184 101.16 201.796V214.909C101.16 217.699 100.54 219.786 99.2997 221.171C98.0597 222.556 96.3237 223.248 94.0917 223.248ZM93.8747 219.528C94.7427 219.528 95.4143 219.218 95.8897 218.598C96.3857 217.978 96.6337 216.821 96.6337 215.126C96.6337 213.989 96.52 213.132 96.2927 212.553C96.086 211.954 95.776 211.54 95.3627 211.313C94.9493 211.086 94.4533 210.972 93.8747 210.972C93.296 210.972 92.8 211.086 92.3867 211.313C91.9733 211.54 91.653 211.954 91.4257 212.553C91.219 213.132 91.1157 213.989 91.1157 215.126C91.1157 216.821 91.3533 217.978 91.8287 218.598C92.3247 219.218 93.0067 219.528 93.8747 219.528ZM111.438 223.248C109.165 223.248 107.367 222.525 106.044 221.078C104.742 219.631 104.091 217.513 104.091 214.723C104.091 212.863 104.36 211.385 104.897 210.29C105.435 209.195 106.179 208.42 107.129 207.965C108.101 207.49 109.196 207.252 110.415 207.252C111.511 207.252 112.399 207.386 113.081 207.655C113.763 207.924 114.301 208.378 114.693 209.019C114.549 208.585 114.435 208.182 114.352 207.81C114.29 207.417 114.239 206.963 114.197 206.446C114.177 205.929 114.166 205.268 114.166 204.462V201.796C114.166 200.184 114.859 199.378 116.243 199.378C117.752 199.378 118.506 200.184 118.506 201.796V214.909C118.506 217.699 117.886 219.786 116.646 221.171C115.406 222.556 113.67 223.248 111.438 223.248ZM111.221 219.528C112.089 219.528 112.761 219.218 113.236 218.598C113.732 217.978 113.98 216.821 113.98 215.126C113.98 213.989 113.867 213.132 113.639 212.553C113.433 211.954 113.123 211.54 112.709 211.313C112.296 211.086 111.8 210.972 111.221 210.972C110.643 210.972 110.147 211.086 109.733 211.313C109.32 211.54 109 211.954 108.772 212.553C108.566 213.132 108.462 213.989 108.462 215.126C108.462 216.821 108.7 217.978 109.175 218.598C109.671 219.218 110.353 219.528 111.221 219.528ZM127.521 223.248C125.454 223.248 123.842 222.773 122.685 221.822C121.527 220.851 120.949 219.6 120.949 218.071C120.949 216.273 121.703 214.971 123.212 214.165C124.741 213.359 126.973 213.08 129.908 213.328C129.763 212.377 129.463 211.737 129.009 211.406C128.554 211.055 128.006 210.879 127.366 210.879C126.849 210.879 126.415 210.91 126.064 210.972C125.733 211.013 125.423 211.065 125.134 211.127C124.844 211.189 124.493 211.22 124.08 211.22C123.522 211.22 123.077 211.127 122.747 210.941C122.416 210.734 122.251 210.331 122.251 209.732C122.251 208.885 122.612 208.265 123.336 207.872C124.08 207.459 125.247 207.252 126.839 207.252C129.36 207.252 131.23 207.975 132.45 209.422C133.669 210.848 134.279 212.76 134.279 215.157C134.279 217.926 133.772 219.972 132.76 221.295C131.768 222.597 130.021 223.248 127.521 223.248ZM125.413 218.071C125.413 219.249 126.208 219.838 127.8 219.838C128.316 219.838 128.719 219.745 129.009 219.559C129.298 219.373 129.505 219.001 129.629 218.443C129.773 217.885 129.877 217.048 129.939 215.932C129.835 216.035 129.701 216.108 129.536 216.149C129.37 216.19 129.205 216.211 129.04 216.211C127.676 216.211 126.725 216.345 126.188 216.614C125.671 216.862 125.413 217.348 125.413 218.071ZM143.801 223.248C141.527 223.248 139.729 222.525 138.407 221.078C137.105 219.631 136.454 217.513 136.454 214.723C136.454 212.863 136.722 211.385 137.26 210.29C137.797 209.195 138.541 208.42 139.492 207.965C140.463 207.49 141.558 207.252 142.778 207.252C143.873 207.252 144.762 207.386 145.444 207.655C146.126 207.924 146.663 208.378 147.056 209.019C146.911 208.585 146.797 208.182 146.715 207.81C146.653 207.417 146.601 206.963 146.56 206.446C146.539 205.929 146.529 205.268 146.529 204.462V201.796C146.529 200.184 147.221 199.378 148.606 199.378C150.114 199.378 150.869 200.184 150.869 201.796V214.909C150.869 217.699 150.249 219.786 149.009 221.171C147.769 222.556 146.033 223.248 143.801 223.248ZM143.584 219.528C144.452 219.528 145.123 219.218 145.599 218.598C146.095 217.978 146.343 216.821 146.343 215.126C146.343 213.989 146.229 213.132 146.002 212.553C145.795 211.954 145.485 211.54 145.072 211.313C144.658 211.086 144.162 210.972 143.584 210.972C143.005 210.972 142.509 211.086 142.096 211.313C141.682 211.54 141.362 211.954 141.135 212.553C140.928 213.132 140.825 213.989 140.825 215.126C140.825 216.821 141.062 217.978 141.538 218.598C142.034 219.218 142.716 219.528 143.584 219.528ZM152.383 228.859C151.887 228.859 151.515 228.735 151.267 228.487C151.019 228.26 150.895 227.981 150.895 227.65C150.895 227.567 150.905 227.412 150.926 227.185C150.967 226.958 151.039 226.586 151.143 226.069C151.246 225.573 151.411 224.86 151.639 223.93C151.866 223.021 152.176 221.822 152.569 220.334C152.755 219.652 153.065 219.156 153.499 218.846C153.933 218.536 154.398 218.381 154.894 218.381C155.472 218.381 155.999 218.577 156.475 218.97C156.95 219.342 157.188 219.848 157.188 220.489C157.188 220.82 157.095 221.192 156.909 221.605L154.119 227.464C153.995 227.712 153.819 228.001 153.592 228.332C153.385 228.683 152.982 228.859 152.383 228.859ZM172.779 223.248C170.713 223.248 169.101 222.773 167.943 221.822C166.786 220.851 166.207 219.6 166.207 218.071C166.207 216.273 166.962 214.971 168.47 214.165C170 213.359 172.232 213.08 175.166 213.328C175.022 212.377 174.722 211.737 174.267 211.406C173.813 211.055 173.265 210.879 172.624 210.879C172.108 210.879 171.674 210.91 171.322 210.972C170.992 211.013 170.682 211.065 170.392 211.127C170.103 211.189 169.752 211.22 169.338 211.22C168.78 211.22 168.336 211.127 168.005 210.941C167.675 210.734 167.509 210.331 167.509 209.732C167.509 208.885 167.871 208.265 168.594 207.872C169.338 207.459 170.506 207.252 172.097 207.252C174.619 207.252 176.489 207.975 177.708 209.422C178.928 210.848 179.537 212.76 179.537 215.157C179.537 217.926 179.031 219.972 178.018 221.295C177.026 222.597 175.28 223.248 172.779 223.248ZM170.671 218.071C170.671 219.249 171.467 219.838 173.058 219.838C173.575 219.838 173.978 219.745 174.267 219.559C174.557 219.373 174.763 219.001 174.887 218.443C175.032 217.885 175.135 217.048 175.197 215.932C175.094 216.035 174.96 216.108 174.794 216.149C174.629 216.19 174.464 216.211 174.298 216.211C172.934 216.211 171.984 216.345 171.446 216.614C170.93 216.862 170.671 217.348 170.671 218.071ZM184.75 223.248C183.262 223.248 182.518 222.545 182.518 221.14V213.7C182.518 211.716 183.149 210.145 184.409 208.988C185.691 207.831 187.375 207.252 189.462 207.252C191.55 207.252 193.224 207.831 194.484 208.988C195.766 210.145 196.406 211.716 196.406 213.7V221.14C196.406 222.545 195.662 223.248 194.174 223.248C192.686 223.248 191.942 222.545 191.942 221.14V213.948C191.942 212.977 191.725 212.243 191.291 211.747C190.857 211.23 190.248 210.972 189.462 210.972C188.677 210.972 188.067 211.23 187.633 211.747C187.199 212.243 186.982 212.977 186.982 213.948V221.14C186.982 222.545 186.238 223.248 184.75 223.248ZM206.739 223.248C204.466 223.248 202.668 222.525 201.345 221.078C200.043 219.631 199.392 217.513 199.392 214.723C199.392 212.863 199.661 211.385 200.198 210.29C200.735 209.195 201.479 208.42 202.43 207.965C203.401 207.49 204.497 207.252 205.716 207.252C206.811 207.252 207.7 207.386 208.382 207.655C209.064 207.924 209.601 208.378 209.994 209.019C209.849 208.585 209.736 208.182 209.653 207.81C209.591 207.417 209.539 206.963 209.498 206.446C209.477 205.929 209.467 205.268 209.467 204.462V201.796C209.467 200.184 210.159 199.378 211.544 199.378C213.053 199.378 213.807 200.184 213.807 201.796V214.909C213.807 217.699 213.187 219.786 211.947 221.171C210.707 222.556 208.971 223.248 206.739 223.248ZM206.522 219.528C207.39 219.528 208.062 219.218 208.537 218.598C209.033 217.978 209.281 216.821 209.281 215.126C209.281 213.989 209.167 213.132 208.94 212.553C208.733 211.954 208.423 211.54 208.01 211.313C207.597 211.086 207.101 210.972 206.522 210.972C205.943 210.972 205.447 211.086 205.034 211.313C204.621 211.54 204.3 211.954 204.073 212.553C203.866 213.132 203.763 213.989 203.763 215.126C203.763 216.821 204.001 217.978 204.476 218.598C204.972 219.218 205.654 219.528 206.522 219.528ZM225.908 223C225.515 223 225.174 222.855 224.885 222.566C224.616 222.256 224.482 221.874 224.482 221.419V207.593C224.482 205.444 225.06 203.801 226.218 202.664C227.396 201.527 229.09 200.959 231.302 200.959C237.088 200.959 239.982 204.71 239.982 212.212C239.982 215.87 239.258 218.588 237.812 220.365C236.365 222.122 234.143 223 231.147 223H225.908ZM228.946 219.342H231.147C232.676 219.342 233.782 218.753 234.464 217.575C235.166 216.376 235.518 214.454 235.518 211.809C235.518 209.288 235.197 207.5 234.557 206.446C233.937 205.371 232.872 204.834 231.364 204.834C229.752 204.834 228.946 205.423 228.946 206.601V219.342ZM249.663 223.248C247.451 223.248 245.705 222.618 244.424 221.357C243.142 220.096 242.502 218.061 242.502 215.25C242.502 212.419 243.142 210.383 244.424 209.143C245.705 207.882 247.451 207.252 249.663 207.252C251.874 207.252 253.62 207.882 254.902 209.143C256.183 210.383 256.824 212.419 256.824 215.25C256.824 218.061 256.183 220.096 254.902 221.357C253.62 222.618 251.874 223.248 249.663 223.248ZM249.663 219.528C250.241 219.528 250.727 219.414 251.12 219.187C251.512 218.939 251.812 218.505 252.019 217.885C252.246 217.265 252.36 216.387 252.36 215.25C252.36 214.113 252.246 213.235 252.019 212.615C251.812 211.995 251.512 211.571 251.12 211.344C250.727 211.096 250.241 210.972 249.663 210.972C249.105 210.972 248.619 211.096 248.206 211.344C247.813 211.571 247.503 211.995 247.276 212.615C247.069 213.235 246.966 214.113 246.966 215.25C246.966 216.387 247.069 217.265 247.276 217.885C247.503 218.505 247.813 218.939 248.206 219.187C248.619 219.414 249.105 219.528 249.663 219.528ZM266.658 223.248C265.294 223.248 264.095 222.969 263.062 222.411C262.028 221.853 261.222 221.068 260.644 220.055C260.086 219.042 259.807 217.864 259.807 216.521V209.267C259.807 207.862 260.551 207.159 262.039 207.159C263.527 207.159 264.271 207.862 264.271 209.267V216.459C264.271 217.43 264.477 218.185 264.891 218.722C265.304 219.259 265.893 219.528 266.658 219.528C267.422 219.528 268.011 219.259 268.425 218.722C268.838 218.185 269.045 217.43 269.045 216.459V209.267C269.045 207.862 269.789 207.159 271.277 207.159C272.765 207.159 273.509 207.862 273.509 209.267V216.521C273.509 217.864 273.219 219.042 272.641 220.055C272.083 221.068 271.287 221.853 270.254 222.411C269.241 222.969 268.042 223.248 266.658 223.248ZM290.788 224.891C290.788 226.648 289.961 227.96 288.308 228.828C286.655 229.696 284.288 230.13 281.209 230.13C279.618 230.13 278.45 229.923 277.706 229.51C276.983 229.117 276.621 228.497 276.621 227.65C276.621 227.051 276.786 226.648 277.117 226.441C277.448 226.255 277.892 226.162 278.45 226.162C278.863 226.162 279.215 226.183 279.504 226.224C279.793 226.286 280.103 226.338 280.434 226.379C280.785 226.441 281.219 226.472 281.736 226.472C283.369 226.472 284.536 226.348 285.239 226.1C285.962 225.852 286.324 225.346 286.324 224.581C286.324 223.94 286.066 223.424 285.549 223.031C285.032 222.638 284.381 222.442 283.596 222.442C278.843 222.442 276.466 219.91 276.466 214.847C276.466 212.264 277.065 210.352 278.264 209.112C279.463 207.872 281.25 207.252 283.627 207.252C285.198 207.252 286.5 207.521 287.533 208.058C288.029 206.198 289.083 205.268 290.695 205.268C291.48 205.268 292.08 205.475 292.493 205.888C292.927 206.281 293.144 206.859 293.144 207.624C293.144 208.327 292.937 208.833 292.524 209.143C292.111 209.453 291.449 209.608 290.54 209.608C290.147 209.608 289.786 209.639 289.455 209.701C290.344 210.941 290.788 212.667 290.788 214.878C290.788 216.263 290.581 217.41 290.168 218.319C289.775 219.228 289.042 219.983 287.967 220.582C289 220.954 289.724 221.533 290.137 222.318C290.571 223.083 290.788 223.94 290.788 224.891ZM280.93 214.847C280.93 217.43 281.829 218.722 283.627 218.722C285.425 218.722 286.324 217.43 286.324 214.847C286.324 213.504 286.097 212.522 285.642 211.902C285.208 211.282 284.536 210.972 283.627 210.972C282.738 210.972 282.067 211.282 281.612 211.902C281.157 212.522 280.93 213.504 280.93 214.847ZM113.505 264C113.113 264 112.782 263.845 112.513 263.535C112.245 263.225 112.11 262.832 112.11 262.357V247.849C112.11 245.906 112.71 244.501 113.908 243.633C115.107 242.744 117.039 242.3 119.705 242.3H123.58C124.262 242.3 124.789 242.486 125.161 242.858C125.554 243.209 125.75 243.716 125.75 244.377C125.75 245.018 125.554 245.514 125.161 245.865C124.789 246.216 124.262 246.392 123.58 246.392H119.488C118.455 246.392 117.711 246.599 117.256 247.012C116.802 247.425 116.574 248.097 116.574 249.027C116.574 249.358 116.554 249.771 116.512 250.267C116.471 250.742 116.409 251.29 116.326 251.91C116.678 251.621 117.122 251.393 117.659 251.228C118.197 251.042 118.724 250.949 119.24 250.949H122.309C122.888 250.949 123.332 251.125 123.642 251.476C123.973 251.827 124.138 252.313 124.138 252.933C124.138 253.553 123.973 254.049 123.642 254.421C123.312 254.793 122.867 254.979 122.309 254.979H118.992C118.042 254.979 117.401 255.175 117.07 255.568C116.74 255.94 116.574 256.705 116.574 257.862V259.908H123.58C124.345 259.908 124.893 260.073 125.223 260.404C125.575 260.735 125.75 261.272 125.75 262.016C125.75 262.719 125.585 263.225 125.254 263.535C124.924 263.845 124.366 264 123.58 264H113.505ZM130.198 264.248C128.71 264.248 127.966 263.545 127.966 262.14V250.391C127.966 248.965 128.71 248.252 130.198 248.252C130.942 248.252 131.479 248.417 131.81 248.748C132.14 249.058 132.306 249.575 132.306 250.298C132.678 249.616 133.205 249.11 133.887 248.779C134.589 248.428 135.406 248.252 136.336 248.252C138.113 248.252 139.002 249.027 139.002 250.577C139.002 251.156 138.785 251.59 138.351 251.879C137.917 252.168 137.204 252.313 136.212 252.313C135.24 252.313 134.476 252.406 133.918 252.592C133.36 252.757 132.967 253.078 132.74 253.553C132.533 254.008 132.43 254.669 132.43 255.537V262.14C132.43 263.545 131.686 264.248 130.198 264.248ZM142.218 245.586C141.453 245.586 140.812 245.338 140.296 244.842C139.779 244.346 139.521 243.736 139.521 243.013C139.521 242.248 139.779 241.618 140.296 241.122C140.812 240.626 141.453 240.378 142.218 240.378C143.003 240.378 143.644 240.626 144.14 241.122C144.656 241.618 144.915 242.248 144.915 243.013C144.915 243.736 144.656 244.346 144.14 244.842C143.644 245.338 143.003 245.586 142.218 245.586ZM144.45 262.171C144.45 263.556 143.726 264.248 142.28 264.248C141.577 264.248 141.019 264.083 140.606 263.752C140.192 263.401 139.986 262.874 139.986 262.171V250.36C139.986 249.699 140.151 249.182 140.482 248.81C140.833 248.438 141.412 248.252 142.218 248.252C143.024 248.252 143.592 248.438 143.923 248.81C144.274 249.182 144.45 249.699 144.45 250.36V262.171ZM154.851 264.248C152.33 264.248 150.46 263.525 149.24 262.078C148.021 260.611 147.411 258.678 147.411 256.281C147.411 253.884 148.021 251.951 149.24 250.484C150.46 248.996 152.33 248.252 154.851 248.252C156.443 248.252 157.6 248.417 158.323 248.748C159.067 249.079 159.439 249.668 159.439 250.515C159.439 251.114 159.274 251.548 158.943 251.817C158.613 252.086 158.168 252.22 157.61 252.22C157.218 252.22 156.908 252.189 156.68 252.127C156.453 252.065 156.205 252.013 155.936 251.972C155.688 251.91 155.296 251.879 154.758 251.879C154.035 251.879 153.456 252.096 153.022 252.53C152.609 252.964 152.309 253.522 152.123 254.204C151.958 254.865 151.875 255.558 151.875 256.281C151.875 256.984 151.937 257.676 152.061 258.358C152.206 259.019 152.485 259.567 152.898 260.001C153.312 260.414 153.942 260.621 154.789 260.621C155.575 260.621 156.153 260.569 156.525 260.466C156.897 260.342 157.259 260.28 157.61 260.28C158.168 260.28 158.613 260.383 158.943 260.59C159.274 260.776 159.439 261.169 159.439 261.768C159.439 262.615 159.067 263.246 158.323 263.659C157.6 264.052 156.443 264.248 154.851 264.248ZM164.739 264.248C163.933 264.248 163.354 264.031 163.003 263.597C162.672 263.163 162.507 262.574 162.507 261.83V242.796C162.507 242.052 162.672 241.463 163.003 241.029C163.354 240.595 163.933 240.378 164.739 240.378C165.545 240.378 166.113 240.595 166.444 241.029C166.795 241.463 166.971 242.052 166.971 242.796V254.328C168.066 253.667 169.038 252.923 169.885 252.096C170.732 251.249 171.311 250.443 171.621 249.678C171.91 248.975 172.324 248.5 172.861 248.252C173.398 248.004 173.987 248.035 174.628 248.345C175.517 248.779 175.93 249.44 175.868 250.329C175.847 251.073 175.506 251.91 174.845 252.84C174.204 253.749 173.409 254.535 172.458 255.196C173.657 255.609 174.618 256.364 175.341 257.459C176.085 258.534 176.457 260.094 176.457 262.14C176.457 263.545 175.723 264.248 174.256 264.248C172.747 264.248 171.993 263.545 171.993 262.14C171.993 260.631 171.755 259.526 171.28 258.823C170.805 258.12 170.174 257.769 169.389 257.769C168.666 257.769 168.077 258.038 167.622 258.575C167.188 259.112 166.971 260.042 166.971 261.365C166.971 262.564 166.795 263.349 166.444 263.721C166.093 264.072 165.524 264.248 164.739 264.248ZM184.697 264.248C180.812 264.248 178.869 263.39 178.869 261.675C178.869 261.138 179.014 260.714 179.303 260.404C179.592 260.094 179.975 259.939 180.45 259.939C180.657 259.939 180.853 259.97 181.039 260.032C181.246 260.073 181.638 260.187 182.217 260.373C182.465 260.456 182.796 260.538 183.209 260.621C183.622 260.704 184.025 260.745 184.418 260.745C185.162 260.745 185.689 260.652 185.999 260.466C186.309 260.28 186.464 259.97 186.464 259.536C186.464 259.185 186.381 258.916 186.216 258.73C186.051 258.523 185.699 258.327 185.162 258.141C184.625 257.955 183.788 257.697 182.651 257.366C181.618 257.077 180.781 256.56 180.14 255.816C179.52 255.051 179.21 254.111 179.21 252.995C179.21 251.424 179.778 250.226 180.915 249.399C182.052 248.572 183.612 248.159 185.596 248.159C187.084 248.159 188.252 248.366 189.099 248.779C189.946 249.192 190.37 249.792 190.37 250.577C190.37 251.073 190.225 251.486 189.936 251.817C189.647 252.148 189.254 252.313 188.758 252.313C188.551 252.313 188.303 252.282 188.014 252.22C187.745 252.158 187.415 252.075 187.022 251.972C186.733 251.869 186.423 251.786 186.092 251.724C185.782 251.662 185.451 251.631 185.1 251.631C184.108 251.631 183.612 251.982 183.612 252.685C183.612 253.098 183.808 253.45 184.201 253.739C184.594 254.008 185.348 254.307 186.464 254.638C187.993 255.093 189.12 255.702 189.843 256.467C190.566 257.211 190.928 258.203 190.928 259.443C190.928 260.89 190.37 262.057 189.254 262.946C188.159 263.814 186.64 264.248 184.697 264.248ZM200.287 264.248C198.075 264.248 196.329 263.618 195.048 262.357C193.766 261.096 193.126 259.061 193.126 256.25C193.126 253.419 193.766 251.383 195.048 250.143C196.329 248.882 198.075 248.252 200.287 248.252C202.498 248.252 204.244 248.882 205.526 250.143C206.807 251.383 207.448 253.419 207.448 256.25C207.448 259.061 206.807 261.096 205.526 262.357C204.244 263.618 202.498 264.248 200.287 264.248ZM200.287 260.528C200.865 260.528 201.351 260.414 201.744 260.187C202.136 259.939 202.436 259.505 202.643 258.885C202.87 258.265 202.984 257.387 202.984 256.25C202.984 255.113 202.87 254.235 202.643 253.615C202.436 252.995 202.136 252.571 201.744 252.344C201.351 252.096 200.865 251.972 200.287 251.972C199.729 251.972 199.243 252.096 198.83 252.344C198.437 252.571 198.127 252.995 197.9 253.615C197.693 254.235 197.59 255.113 197.59 256.25C197.59 257.387 197.693 258.265 197.9 258.885C198.127 259.505 198.437 259.939 198.83 260.187C199.243 260.414 199.729 260.528 200.287 260.528ZM212.663 264.248C211.175 264.248 210.431 263.545 210.431 262.14V254.7C210.431 252.716 211.061 251.145 212.322 249.988C213.603 248.831 215.287 248.252 217.375 248.252C219.462 248.252 221.136 248.831 222.397 249.988C223.678 251.145 224.319 252.716 224.319 254.7V262.14C224.319 263.545 223.575 264.248 222.087 264.248C220.599 264.248 219.855 263.545 219.855 262.14V254.948C219.855 253.977 219.638 253.243 219.204 252.747C218.77 252.23 218.16 251.972 217.375 251.972C216.589 251.972 215.98 252.23 215.546 252.747C215.112 253.243 214.895 253.977 214.895 254.948V262.14C214.895 263.545 214.151 264.248 212.663 264.248ZM228.803 264.248C228.059 264.248 227.459 264.021 227.005 263.566C226.571 263.111 226.354 262.533 226.354 261.83C226.354 261.107 226.571 260.518 227.005 260.063C227.459 259.608 228.059 259.381 228.803 259.381C229.526 259.381 230.115 259.608 230.57 260.063C231.024 260.518 231.252 261.107 231.252 261.83C231.252 262.533 231.024 263.111 230.57 263.566C230.115 264.021 229.526 264.248 228.803 264.248Z" fill="white"/>
</svg>
