<svg width="240" height="240" viewBox="0 0 240 240" fill="none" xmlns="http://www.w3.org/2000/svg">
<circle cx="120" cy="120" r="120" fill="#F9B047"/>
<path d="M64.6783 129.48C63.3556 129.48 62.1823 129.224 61.1583 128.712C60.1769 128.2 59.6863 127.432 59.6863 126.408C59.6863 125.981 59.7716 125.576 59.9423 125.192L69.3503 98.76C69.7769 97.608 70.4169 96.776 71.2703 96.264C72.1663 95.752 73.0836 95.496 74.0223 95.496C75.5156 95.496 76.6463 95.9867 77.4143 96.968C78.2249 97.9067 78.3956 99.0587 77.9263 100.424L70.5023 121.416C71.3983 120.861 72.3156 120.584 73.2543 120.584H79.5263V115.528C79.5263 114.035 79.8889 112.947 80.6143 112.264C81.3396 111.581 82.4916 111.24 84.0703 111.24C87.1849 111.24 88.7423 112.669 88.7423 115.528V120.584H90.5983C92.1769 120.584 93.3929 120.968 94.2463 121.736C95.0996 122.504 95.5263 123.613 95.5263 125.064C95.5263 128.008 93.8836 129.48 90.5983 129.48H88.7423V137.224C88.7423 140.083 87.2489 141.512 84.2623 141.512C82.8116 141.512 81.6596 141.171 80.8063 140.488C79.9529 139.763 79.5263 138.675 79.5263 137.224V129.48H64.6783ZM115.173 141.512C111.76 141.512 108.816 140.765 106.341 139.272C103.909 137.736 102.053 135.283 100.773 131.912C99.4933 128.541 98.8533 124.083 98.8533 118.536C98.8533 112.947 99.4933 108.467 100.773 105.096C102.053 101.725 103.909 99.2933 106.341 97.8C108.773 96.264 111.717 95.496 115.173 95.496C118.672 95.496 121.616 96.264 124.005 97.8C126.437 99.2933 128.293 101.725 129.573 105.096C130.853 108.467 131.493 112.947 131.493 118.536C131.493 124.083 130.853 128.541 129.573 131.912C128.293 135.283 126.437 137.736 124.005 139.272C121.573 140.765 118.629 141.512 115.173 141.512ZM115.173 133.064C116.752 133.064 118.032 132.68 119.013 131.912C119.995 131.144 120.72 129.715 121.189 127.624C121.659 125.491 121.893 122.461 121.893 118.536C121.893 114.568 121.659 111.539 121.189 109.448C120.72 107.357 119.995 105.928 119.013 105.16C118.032 104.349 116.752 103.944 115.173 103.944C113.637 103.944 112.357 104.349 111.333 105.16C110.352 105.928 109.627 107.357 109.157 109.448C108.688 111.539 108.453 114.568 108.453 118.536C108.453 122.461 108.688 125.491 109.157 127.624C109.627 129.715 110.352 131.144 111.333 131.912C112.357 132.68 113.637 133.064 115.173 133.064ZM143.987 120.008C141.256 120.008 139.123 119.091 137.587 117.256C136.051 115.379 135.283 112.2 135.283 107.72C135.283 103.283 136.029 100.125 137.523 98.248C139.059 96.3707 141.213 95.432 143.987 95.432C146.76 95.432 148.893 96.3707 150.387 98.248C151.923 100.125 152.691 103.283 152.691 107.72C152.691 112.2 151.923 115.379 150.387 117.256C148.893 119.091 146.76 120.008 143.987 120.008ZM148.595 138.248C147.656 139.528 146.845 140.424 146.163 140.936C145.48 141.405 144.648 141.469 143.667 141.128C142.6 140.744 141.875 140.083 141.491 139.144C141.149 138.163 141.363 137.096 142.131 135.944C146.269 129.885 149.768 124.765 152.627 120.584C155.528 116.36 157.917 112.883 159.795 110.152C161.672 107.379 163.165 105.203 164.275 103.624C165.384 102.045 166.195 100.872 166.707 100.104C167.261 99.336 167.624 98.824 167.795 98.568C167.965 98.312 168.093 98.1413 168.179 98.056C169.16 96.8187 169.992 96.0293 170.675 95.688C171.4 95.3467 172.232 95.4107 173.171 95.88C174.195 96.392 174.792 97.1387 174.963 98.12C175.133 99.0587 174.835 100.104 174.067 101.256C172.317 103.859 170.355 106.76 168.179 109.96C166.045 113.117 163.827 116.381 161.523 119.752C159.261 123.08 157.021 126.344 154.803 129.544C152.584 132.701 150.515 135.603 148.595 138.248ZM143.987 113.672C144.925 113.672 145.608 113.288 146.035 112.52C146.504 111.752 146.739 110.152 146.739 107.72C146.739 105.331 146.504 103.752 146.035 102.984C145.608 102.173 144.925 101.768 143.987 101.768C143.048 101.768 142.344 102.173 141.875 102.984C141.448 103.752 141.235 105.331 141.235 107.72C141.235 110.152 141.448 111.752 141.875 112.52C142.344 113.288 143.048 113.672 143.987 113.672ZM172.659 141.32C169.928 141.32 167.795 140.403 166.259 138.568C164.723 136.691 163.955 133.512 163.955 129.032C163.955 124.595 164.701 121.437 166.195 119.56C167.731 117.683 169.885 116.744 172.659 116.744C175.432 116.744 177.565 117.683 179.059 119.56C180.595 121.437 181.363 124.595 181.363 129.032C181.363 133.512 180.595 136.691 179.059 138.568C177.565 140.403 175.432 141.32 172.659 141.32ZM172.659 134.984C173.597 134.984 174.28 134.6 174.707 133.832C175.176 133.064 175.411 131.464 175.411 129.032C175.411 126.643 175.176 125.064 174.707 124.296C174.28 123.485 173.597 123.08 172.659 123.08C171.72 123.08 171.016 123.485 170.547 124.296C170.12 125.064 169.907 126.643 169.907 129.032C169.907 131.464 170.12 133.064 170.547 133.832C171.016 134.6 171.72 134.984 172.659 134.984Z" fill="white"/>
</svg>
