<svg width="240" height="240" viewBox="0 0 240 240" fill="none" xmlns="http://www.w3.org/2000/svg">
<circle cx="120" cy="120" r="120" fill="#F9B047"/>
<path d="M78.079 141C76.8843 141 75.967 140.723 75.327 140.168C74.687 139.613 74.239 138.909 73.983 138.056C73.7697 137.203 73.6417 136.285 73.599 135.304C73.599 134.323 73.599 133.405 73.599 132.552C73.599 128.755 74.4097 125.747 76.031 123.528C77.6523 121.309 80.4683 119.603 84.479 118.408C86.655 117.683 88.3617 117.021 89.599 116.424C90.879 115.784 91.7963 114.931 92.351 113.864C92.9057 112.755 93.183 111.197 93.183 109.192C93.183 107.784 92.7777 106.568 91.967 105.544C91.1563 104.477 89.7483 103.944 87.743 103.944C86.5483 103.944 85.2897 104.029 83.967 104.2C82.687 104.371 81.471 104.456 80.319 104.456C78.6123 104.456 77.3537 104.136 76.543 103.496C75.775 102.856 75.391 101.875 75.391 100.552C75.391 98.8027 76.287 97.5867 78.079 96.904C80.3403 95.9653 83.199 95.496 86.655 95.496C91.5617 95.496 95.4017 96.712 98.175 99.144C100.948 101.533 102.335 104.861 102.335 109.128C102.335 112.285 101.908 114.931 101.055 117.064C100.202 119.197 98.7937 120.968 96.831 122.376C94.8683 123.784 92.223 124.979 88.895 125.96C86.5483 126.643 84.927 127.368 84.031 128.136C83.1777 128.861 82.751 129.949 82.751 131.4V133.384C83.6043 132.531 84.735 132.104 86.143 132.104H97.599C99.1777 132.104 100.394 132.488 101.247 133.256C102.1 134.024 102.527 135.133 102.527 136.584C102.527 139.528 100.884 141 97.599 141H78.079ZM119.802 141.512C118.095 141.512 116.73 141.448 115.706 141.32C114.682 141.235 113.765 141.107 112.954 140.936C110.863 140.509 109.519 139.848 108.922 138.952C108.367 138.013 108.09 137.075 108.09 136.136C108.09 135.155 108.453 134.344 109.178 133.704C109.903 133.021 111.141 132.68 112.89 132.68C114.085 132.68 115.365 132.744 116.73 132.872C118.095 133 119.418 133.064 120.698 133.064C122.063 133.064 123.301 132.936 124.41 132.68C125.562 132.381 126.479 131.869 127.162 131.144C127.845 130.376 128.186 129.267 128.186 127.816C128.186 126.408 127.866 125.341 127.226 124.616C126.586 123.891 125.775 123.4 124.794 123.144C123.813 122.888 122.831 122.76 121.85 122.76C121.167 122.76 120.485 122.781 119.802 122.824C119.119 122.824 118.479 122.824 117.882 122.824C115.962 122.824 114.426 122.589 113.274 122.12C112.122 121.651 111.546 120.477 111.546 118.6C111.546 116.723 112.101 115.549 113.21 115.08C114.362 114.611 115.855 114.376 117.69 114.376C118.287 114.376 118.906 114.397 119.546 114.44C120.229 114.44 120.911 114.44 121.594 114.44C123.087 114.44 124.367 114.013 125.434 113.16C126.501 112.264 127.034 110.771 127.034 108.68C127.034 107.059 126.373 105.843 125.05 105.032C123.727 104.221 122.191 103.816 120.442 103.816C119.333 103.816 118.159 103.923 116.922 104.136C115.727 104.349 114.639 104.456 113.658 104.456C111.183 104.456 109.946 103.261 109.946 100.872C109.946 97.288 113.338 95.496 120.122 95.496C124.815 95.496 128.506 96.6907 131.194 99.08C133.882 101.427 135.226 104.627 135.226 108.68C135.226 110.771 134.778 112.755 133.882 114.632C133.029 116.509 131.962 117.789 130.682 118.472C132.687 119.368 134.309 120.691 135.546 122.44C136.783 124.189 137.402 126.024 137.402 127.944C137.402 130.632 136.655 133 135.162 135.048C133.711 137.096 131.663 138.696 129.018 139.848C126.415 140.957 123.343 141.512 119.802 141.512ZM149.018 120.008C146.287 120.008 144.154 119.091 142.618 117.256C141.082 115.379 140.314 112.2 140.314 107.72C140.314 103.283 141.061 100.125 142.554 98.248C144.09 96.3707 146.245 95.432 149.018 95.432C151.791 95.432 153.925 96.3707 155.418 98.248C156.954 100.125 157.722 103.283 157.722 107.72C157.722 112.2 156.954 115.379 155.418 117.256C153.925 119.091 151.791 120.008 149.018 120.008ZM153.626 138.248C152.687 139.528 151.877 140.424 151.194 140.936C150.511 141.405 149.679 141.469 148.698 141.128C147.631 140.744 146.906 140.083 146.522 139.144C146.181 138.163 146.394 137.096 147.162 135.944C151.301 129.885 154.799 124.765 157.658 120.584C160.559 116.36 162.949 112.883 164.826 110.152C166.703 107.379 168.197 105.203 169.306 103.624C170.415 102.045 171.226 100.872 171.738 100.104C172.293 99.336 172.655 98.824 172.826 98.568C172.997 98.312 173.125 98.1413 173.21 98.056C174.191 96.8187 175.023 96.0293 175.706 95.688C176.431 95.3467 177.263 95.4107 178.202 95.88C179.226 96.392 179.823 97.1387 179.994 98.12C180.165 99.0587 179.866 100.104 179.098 101.256C177.349 103.859 175.386 106.76 173.21 109.96C171.077 113.117 168.858 116.381 166.554 119.752C164.293 123.08 162.053 126.344 159.834 129.544C157.615 132.701 155.546 135.603 153.626 138.248ZM149.018 113.672C149.957 113.672 150.639 113.288 151.066 112.52C151.535 111.752 151.77 110.152 151.77 107.72C151.77 105.331 151.535 103.752 151.066 102.984C150.639 102.173 149.957 101.768 149.018 101.768C148.079 101.768 147.375 102.173 146.906 102.984C146.479 103.752 146.266 105.331 146.266 107.72C146.266 110.152 146.479 111.752 146.906 112.52C147.375 113.288 148.079 113.672 149.018 113.672ZM177.69 141.32C174.959 141.32 172.826 140.403 171.29 138.568C169.754 136.691 168.986 133.512 168.986 129.032C168.986 124.595 169.733 121.437 171.226 119.56C172.762 117.683 174.917 116.744 177.69 116.744C180.463 116.744 182.597 117.683 184.09 119.56C185.626 121.437 186.394 124.595 186.394 129.032C186.394 133.512 185.626 136.691 184.09 138.568C182.597 140.403 180.463 141.32 177.69 141.32ZM177.69 134.984C178.629 134.984 179.311 134.6 179.738 133.832C180.207 133.064 180.442 131.464 180.442 129.032C180.442 126.643 180.207 125.064 179.738 124.296C179.311 123.485 178.629 123.08 177.69 123.08C176.751 123.08 176.047 123.485 175.578 124.296C175.151 125.064 174.938 126.643 174.938 129.032C174.938 131.464 175.151 133.064 175.578 133.832C176.047 134.6 176.751 134.984 177.69 134.984Z" fill="white"/>
</svg>
