<svg width="240" height="240" viewBox="0 0 240 240" fill="none" xmlns="http://www.w3.org/2000/svg">
<circle cx="120" cy="120" r="120" fill="#F9B047"/>
<path d="M77.8333 144.512C76.1266 144.512 74.7613 144.448 73.7373 144.32C72.7133 144.235 71.7959 144.107 70.9853 143.936C68.8946 143.509 67.5506 142.848 66.9533 141.952C66.3986 141.013 66.1213 140.075 66.1213 139.136C66.1213 138.155 66.4839 137.344 67.2093 136.704C67.9346 136.021 69.1719 135.68 70.9213 135.68C72.1159 135.68 73.3959 135.744 74.7613 135.872C76.1266 136 77.4493 136.064 78.7292 136.064C80.0946 136.064 81.3319 135.936 82.4413 135.68C83.5933 135.381 84.5106 134.869 85.1933 134.144C85.8759 133.376 86.2173 132.267 86.2173 130.816C86.2173 129.408 85.8973 128.341 85.2573 127.616C84.6173 126.891 83.8066 126.4 82.8253 126.144C81.8439 125.888 80.8626 125.76 79.8813 125.76C79.1986 125.76 78.5159 125.781 77.8333 125.824C77.1506 125.824 76.5106 125.824 75.9133 125.824C73.9933 125.824 72.4573 125.589 71.3053 125.12C70.1533 124.651 69.5773 123.477 69.5773 121.6C69.5773 119.723 70.1319 118.549 71.2413 118.08C72.3933 117.611 73.8866 117.376 75.7213 117.376C76.3186 117.376 76.9373 117.397 77.5773 117.44C78.2599 117.44 78.9426 117.44 79.6253 117.44C81.1186 117.44 82.3986 117.013 83.4653 116.16C84.5319 115.264 85.0653 113.771 85.0653 111.68C85.0653 110.059 84.4039 108.843 83.0813 108.032C81.7586 107.221 80.2226 106.816 78.4733 106.816C77.3639 106.816 76.1906 106.923 74.9533 107.136C73.7586 107.349 72.6706 107.456 71.6892 107.456C69.2146 107.456 67.9773 106.261 67.9773 103.872C67.9773 100.288 71.3693 98.496 78.1533 98.496C82.8466 98.496 86.5373 99.6907 89.2253 102.08C91.9133 104.427 93.2573 107.627 93.2573 111.68C93.2573 113.771 92.8093 115.755 91.9133 117.632C91.0599 119.509 89.9933 120.789 88.7133 121.472C90.7186 122.368 92.3399 123.691 93.5773 125.44C94.8146 127.189 95.4333 129.024 95.4333 130.944C95.4333 133.632 94.6866 136 93.1933 138.048C91.7426 140.096 89.6946 141.696 87.0493 142.848C84.4466 143.957 81.3746 144.512 77.8333 144.512ZM108.989 144.512C107.965 144.512 106.963 144.299 105.981 143.872C105.043 143.403 104.36 142.699 103.933 141.76C103.507 140.779 103.613 139.52 104.253 137.984L115.773 110.592C115.987 110.123 116.264 109.483 116.605 108.672C116.947 107.819 117.245 107.072 117.501 106.432C117.8 105.749 117.949 105.408 117.949 105.408C116.84 106.731 115.475 107.392 113.853 107.392H101.629C100.051 107.392 98.8346 107.008 97.9813 106.24C97.1279 105.472 96.7013 104.363 96.7013 102.912C96.7013 99.968 98.3439 98.496 101.629 98.496H124.093C125.971 98.496 127.357 98.9867 128.253 99.968C129.149 100.907 129.299 102.08 128.701 103.488L113.597 139.52C113.384 140.032 113.107 140.693 112.765 141.504C112.467 142.272 112.019 142.976 111.421 143.616C110.824 144.213 110.013 144.512 108.989 144.512ZM140.112 123.008C137.381 123.008 135.248 122.091 133.712 120.256C132.176 118.379 131.408 115.2 131.408 110.72C131.408 106.283 132.154 103.125 133.648 101.248C135.184 99.3707 137.338 98.432 140.112 98.432C142.885 98.432 145.018 99.3707 146.512 101.248C148.048 103.125 148.816 106.283 148.816 110.72C148.816 115.2 148.048 118.379 146.512 120.256C145.018 122.091 142.885 123.008 140.112 123.008ZM144.72 141.248C143.781 142.528 142.97 143.424 142.288 143.936C141.605 144.405 140.773 144.469 139.792 144.128C138.725 143.744 138 143.083 137.616 142.144C137.274 141.163 137.488 140.096 138.256 138.944C142.394 132.885 145.893 127.765 148.752 123.584C151.653 119.36 154.042 115.883 155.92 113.152C157.797 110.379 159.29 108.203 160.4 106.624C161.509 105.045 162.32 103.872 162.832 103.104C163.386 102.336 163.749 101.824 163.92 101.568C164.09 101.312 164.218 101.141 164.304 101.056C165.285 99.8187 166.117 99.0293 166.8 98.688C167.525 98.3467 168.357 98.4107 169.296 98.88C170.32 99.392 170.917 100.139 171.088 101.12C171.258 102.059 170.96 103.104 170.192 104.256C168.442 106.859 166.48 109.76 164.304 112.96C162.17 116.117 159.952 119.381 157.648 122.752C155.386 126.08 153.146 129.344 150.928 132.544C148.709 135.701 146.64 138.603 144.72 141.248ZM140.112 116.672C141.05 116.672 141.733 116.288 142.16 115.52C142.629 114.752 142.864 113.152 142.864 110.72C142.864 108.331 142.629 106.752 142.16 105.984C141.733 105.173 141.05 104.768 140.112 104.768C139.173 104.768 138.469 105.173 138 105.984C137.573 106.752 137.36 108.331 137.36 110.72C137.36 113.152 137.573 114.752 138 115.52C138.469 116.288 139.173 116.672 140.112 116.672ZM168.784 144.32C166.053 144.32 163.92 143.403 162.384 141.568C160.848 139.691 160.08 136.512 160.08 132.032C160.08 127.595 160.826 124.437 162.32 122.56C163.856 120.683 166.01 119.744 168.784 119.744C171.557 119.744 173.69 120.683 175.184 122.56C176.72 124.437 177.488 127.595 177.488 132.032C177.488 136.512 176.72 139.691 175.184 141.568C173.69 143.403 171.557 144.32 168.784 144.32ZM168.784 137.984C169.722 137.984 170.405 137.6 170.832 136.832C171.301 136.064 171.536 134.464 171.536 132.032C171.536 129.643 171.301 128.064 170.832 127.296C170.405 126.485 169.722 126.08 168.784 126.08C167.845 126.08 167.141 126.485 166.672 127.296C166.245 128.064 166.032 129.643 166.032 132.032C166.032 134.464 166.245 136.064 166.672 136.832C167.141 137.6 167.845 137.984 168.784 137.984Z" fill="white"/>
</svg>
