<?xml version="1.0" encoding="UTF-8"?>
<svg id="Layer_1" xmlns="http://www.w3.org/2000/svg" viewBox="0 0 240 240">
  <defs>
    <style>
      .cls-1 {
        isolation: isolate;
      }

      .cls-2 {
        fill: #fff;
      }

      .cls-3 {
        fill: #f9b047;
      }
    </style>
  </defs>
  <circle class="cls-3" cx="120" cy="120" r="120"/>
  <g class="cls-1">
    <g class="cls-1">
      <path class="cls-2" d="M53.67,124.5c0-4.38,2.64-7.74,5.94-9.48-2.82-1.68-4.5-5.22-4.5-9.06,0-6.06,3.84-12.42,13.38-12.42s13.26,6.42,13.26,12.42c0,3.9-1.62,7.44-4.32,9.06,3.36,1.74,5.7,5.1,5.7,9.48,0,8.28-7.26,12.36-14.58,12.36s-14.88-4.2-14.88-12.36ZM74.55,123.78c0-2.82-1.98-5.58-6.06-5.58s-6.18,2.76-6.18,5.58,2.04,5.58,6.18,5.58,6.06-2.82,6.06-5.58ZM73.35,105.96c0-2.52-1.62-5.22-4.98-5.22-3.12,0-4.86,2.7-4.86,5.22,0,2.7,1.62,5.22,5.28,5.22,3,0,4.56-2.52,4.56-5.22Z"/>
      <path class="cls-2" d="M88.77,115.14c0-15.66,5.52-21.6,15.3-21.6s15.3,5.94,15.3,21.6-5.64,21.54-15.3,21.54-15.3-5.88-15.3-21.54ZM110.37,115.14c0-11.1-1.92-13.68-6.3-13.68s-6.3,2.58-6.3,13.68,1.92,13.62,6.3,13.62,6.3-2.52,6.3-13.62Z"/>
    </g>
    <g class="cls-1">
      <path class="cls-2" d="M125.13,115.14c0-15.66,5.52-21.6,15.3-21.6s15.3,5.94,15.3,21.6-5.64,21.54-15.3,21.54-15.3-5.88-15.3-21.54ZM146.73,115.14c0-11.1-1.92-13.68-6.3-13.68s-6.3,2.58-6.3,13.68,1.92,13.62,6.3,13.62,6.3-2.52,6.3-13.62Z"/>
    </g>
    <g class="cls-1">
      <path class="cls-2" d="M158.01,116.82c0-2.52,1.56-3.72,4.08-3.72h7.8v-7.74c0-2.52,1.2-4.08,3.72-4.08s3.72,1.56,3.72,4.08v7.74h7.74c2.52,0,4.08,1.2,4.08,3.72s-1.56,3.72-4.08,3.72h-7.74v7.8c0,2.52-1.2,4.08-3.72,4.08s-3.72-1.56-3.72-4.08v-7.8h-7.8c-2.52,0-4.08-1.2-4.08-3.72Z"/>
    </g>
  </g>
</svg>