<?xml version="1.0" encoding="UTF-8"?>
<svg id="Layer_1" xmlns="http://www.w3.org/2000/svg" viewBox="0 0 240 240">
  <defs>
    <style>
      .cls-1 {
        isolation: isolate;
      }

      .cls-2 {
        fill: #fff;
      }

      .cls-3 {
        fill: #f9b047;
      }
    </style>
  </defs>
  <circle class="cls-3" cx="120" cy="120" r="120"/>
  <g class="cls-1">
    <g class="cls-1">
      <path class="cls-2" d="M68.43,118.8c0-12.42,4.32-25.26,17.34-25.26,6.06,0,8.1,1.08,8.1,4.26,0,2.58-1.74,3.54-5.1,3.54-6.84,0-9.54,2.04-10.32,7.14,1.38-.9,3.18-1.44,5.64-1.44,7.74,0,13.14,4.38,13.14,14.58,0,10.74-6.72,15.06-13.62,15.06-7.5,0-15.18-4.62-15.18-17.88ZM88.95,121.62c0-3.72-1.2-7.38-5.46-7.38s-5.76,3.66-5.76,7.38,1.5,7.14,5.76,7.14,5.46-3.48,5.46-7.14Z"/>
    </g>
    <g class="cls-1">
      <path class="cls-2" d="M105.57,130.56l10.8-25.68c.54-1.32,2.04-4.86,2.04-4.86-.96,1.14-2.46,1.86-3.84,1.86h-11.46c-2.94,0-4.62-1.5-4.62-4.2s1.62-4.14,4.62-4.14h21.06c3.54,0,5.4,2.04,4.32,4.68l-14.16,33.78c-.6,1.44-1.44,4.68-4.32,4.68s-6.24-1.8-4.44-6.12Z"/>
    </g>
    <g class="cls-1">
      <path class="cls-2" d="M131.01,105c0-8.34,2.94-11.52,8.16-11.52s8.16,3.18,8.16,11.52-3,11.52-8.16,11.52-8.16-3.12-8.16-11.52ZM141.75,105c0-4.5-.84-5.58-2.58-5.58s-2.58,1.08-2.58,5.58.84,5.58,2.58,5.58,2.58-1.02,2.58-5.58ZM138.87,136.32c-2.04-.72-2.88-2.7-1.44-4.86,23.22-33.96,24-34.98,24.42-35.52,1.86-2.34,2.94-2.94,4.68-2.04,1.92.96,2.28,2.88.84,5.04-6.6,9.84-16.74,24.72-23.88,34.68-1.74,2.4-2.76,3.36-4.62,2.7ZM157.89,124.98c0-8.34,2.94-11.52,8.16-11.52s8.16,3.18,8.16,11.52-3,11.52-8.16,11.52-8.16-3.12-8.16-11.52ZM168.63,124.98c0-4.5-.84-5.58-2.58-5.58s-2.58,1.08-2.58,5.58.84,5.58,2.58,5.58,2.58-1.02,2.58-5.58Z"/>
    </g>
  </g>
</svg>