<?xml version="1.0" encoding="UTF-8"?>
<svg id="Layer_1" xmlns="http://www.w3.org/2000/svg" viewBox="0 0 240 240">
  <defs>
    <style>
      .cls-1 {
        isolation: isolate;
      }

      .cls-2 {
        fill: #fff;
      }

      .cls-3 {
        fill: #f9b047;
      }
    </style>
  </defs>
  <circle class="cls-3" cx="120" cy="120" r="120"/>
  <g class="cls-1">
    <g class="cls-1">
      <path class="cls-2" d="M64.04,138.83c-4.62-.91-5.32-3.15-5.32-5.25s1.4-3.78,5.25-3.78c2.59,0,5.74.42,8.54.42,4.48,0,8.19-.98,8.19-5.74s-3.71-5.53-6.93-5.53c-1.54,0-3.01.07-4.34.07-4.2,0-6.93-.49-6.93-4.62s2.73-4.62,6.72-4.62c1.33,0,2.73.07,4.27.07,3.22,0,5.95-1.75,5.95-6.3,0-3.57-3.43-5.32-7.21-5.32-2.45,0-5.25.7-7.42.7-2.8,0-4.06-1.19-4.06-3.92,0-3.92,3.78-5.88,11.13-5.88,10.22,0,16.52,5.53,16.52,14.42,0,4.62-2.17,9.24-4.97,10.71,4.41,1.96,7.35,6.16,7.35,10.36,0,8.89-7.7,14.84-19.25,14.84-3.78,0-5.74-.28-7.49-.63Z"/>
    </g>
    <g class="cls-1">
      <path class="cls-2" d="M97.15,125.25c0-5.11,3.08-9.03,6.93-11.06-3.29-1.96-5.25-6.09-5.25-10.57,0-7.07,4.48-14.49,15.61-14.49s15.47,7.49,15.47,14.49c0,4.55-1.89,8.68-5.04,10.57,3.92,2.03,6.65,5.95,6.65,11.06,0,9.66-8.47,14.42-17.01,14.42s-17.36-4.9-17.36-14.42ZM121.51,124.41c0-3.29-2.31-6.51-7.07-6.51s-7.21,3.22-7.21,6.51,2.38,6.51,7.21,6.51,7.07-3.29,7.07-6.51ZM120.11,103.62c0-2.94-1.89-6.09-5.81-6.09-3.64,0-5.67,3.15-5.67,6.09,0,3.15,1.89,6.09,6.16,6.09,3.5,0,5.32-2.94,5.32-6.09Z"/>
      <path class="cls-2" d="M134.81,102.5c0-9.73,3.43-13.44,9.52-13.44s9.52,3.71,9.52,13.44-3.5,13.44-9.52,13.44-9.52-3.64-9.52-13.44ZM147.34,102.5c0-5.25-.98-6.51-3.01-6.51s-3.01,1.26-3.01,6.51.98,6.51,3.01,6.51,3.01-1.19,3.01-6.51ZM143.98,139.04c-2.38-.84-3.36-3.15-1.68-5.67,27.09-39.62,28-40.81,28.49-41.44,2.17-2.73,3.43-3.43,5.46-2.38,2.24,1.12,2.66,3.36.98,5.88-7.7,11.48-19.53,28.84-27.86,40.46-2.03,2.8-3.22,3.92-5.39,3.15ZM166.17,125.81c0-9.73,3.43-13.44,9.52-13.44s9.52,3.71,9.52,13.44-3.5,13.44-9.52,13.44-9.52-3.64-9.52-13.44ZM178.7,125.81c0-5.25-.98-6.51-3.01-6.51s-3.01,1.26-3.01,6.51.98,6.51,3.01,6.51,3.01-1.19,3.01-6.51Z"/>
    </g>
  </g>
</svg>