<svg width="240" height="240" viewBox="0 0 240 240" fill="none" xmlns="http://www.w3.org/2000/svg">
<circle cx="120" cy="120" r="120" fill="#F9B047"/>
<path d="M61.6143 138.512C60.5903 138.512 59.5876 138.299 58.6063 137.872C57.6676 137.403 56.9849 136.699 56.5583 135.76C56.1316 134.779 56.2383 133.52 56.8783 131.984L68.3983 104.592C68.6116 104.123 68.8889 103.483 69.2303 102.672C69.5716 101.819 69.8703 101.072 70.1263 100.432C70.4249 99.7493 70.5743 99.408 70.5743 99.408C69.4649 100.731 68.0996 101.392 66.4783 101.392H54.2543C52.6756 101.392 51.4596 101.008 50.6063 100.24C49.7529 99.472 49.3263 98.3627 49.3263 96.912C49.3263 93.968 50.9689 92.496 54.2543 92.496H76.7183C78.5956 92.496 79.9823 92.9867 80.8783 93.968C81.7743 94.9067 81.9236 96.08 81.3263 97.488L66.2222 133.52C66.0089 134.032 65.7316 134.693 65.3903 135.504C65.0916 136.272 64.6436 136.976 64.0463 137.616C63.4489 138.213 62.6383 138.512 61.6143 138.512ZM100.548 138.512C97.1349 138.512 94.1909 137.765 91.7163 136.272C89.2843 134.736 87.4283 132.283 86.1483 128.912C84.8683 125.541 84.2283 121.083 84.2283 115.536C84.2283 109.947 84.8683 105.467 86.1483 102.096C87.4283 98.7253 89.2843 96.2933 91.7163 94.8C94.1483 93.264 97.0923 92.496 100.548 92.496C104.047 92.496 106.991 93.264 109.38 94.8C111.812 96.2933 113.668 98.7253 114.948 102.096C116.228 105.467 116.868 109.947 116.868 115.536C116.868 121.083 116.228 125.541 114.948 128.912C113.668 132.283 111.812 134.736 109.38 136.272C106.948 137.765 104.004 138.512 100.548 138.512ZM100.548 130.064C102.127 130.064 103.407 129.68 104.388 128.912C105.37 128.144 106.095 126.715 106.564 124.624C107.034 122.491 107.268 119.461 107.268 115.536C107.268 111.568 107.034 108.539 106.564 106.448C106.095 104.357 105.37 102.928 104.388 102.16C103.407 101.349 102.127 100.944 100.548 100.944C99.0123 100.944 97.7323 101.349 96.7083 102.16C95.7269 102.928 95.0016 104.357 94.5323 106.448C94.0629 108.539 93.8283 111.568 93.8283 115.536C93.8283 119.461 94.0629 122.491 94.5323 124.624C95.0016 126.715 95.7269 128.144 96.7083 128.912C97.7323 129.68 99.0123 130.064 100.548 130.064ZM139.361 138.512C135.947 138.512 133.003 137.765 130.529 136.272C128.097 134.736 126.241 132.283 124.961 128.912C123.681 125.541 123.041 121.083 123.041 115.536C123.041 109.947 123.681 105.467 124.961 102.096C126.241 98.7253 128.097 96.2933 130.529 94.8C132.961 93.264 135.905 92.496 139.361 92.496C142.859 92.496 145.803 93.264 148.193 94.8C150.625 96.2933 152.481 98.7253 153.761 102.096C155.041 105.467 155.681 109.947 155.681 115.536C155.681 121.083 155.041 125.541 153.761 128.912C152.481 132.283 150.625 134.736 148.193 136.272C145.761 137.765 142.817 138.512 139.361 138.512ZM139.361 130.064C140.939 130.064 142.219 129.68 143.201 128.912C144.182 128.144 144.907 126.715 145.377 124.624C145.846 122.491 146.081 119.461 146.081 115.536C146.081 111.568 145.846 108.539 145.377 106.448C144.907 104.357 144.182 102.928 143.201 102.16C142.219 101.349 140.939 100.944 139.361 100.944C137.825 100.944 136.545 101.349 135.521 102.16C134.539 102.928 133.814 104.357 133.345 106.448C132.875 108.539 132.641 111.568 132.641 115.536C132.641 119.461 132.875 122.491 133.345 124.624C133.814 126.715 134.539 128.144 135.521 128.912C136.545 129.68 137.825 130.064 139.361 130.064ZM162.476 121.296C161.153 121.296 160.086 120.976 159.276 120.336C158.508 119.653 158.124 118.651 158.124 117.328C158.124 115.963 158.508 114.96 159.276 114.32C160.086 113.68 161.153 113.36 162.476 113.36H170.796V105.104C170.796 103.739 171.116 102.672 171.756 101.904C172.438 101.136 173.441 100.752 174.764 100.752C176.129 100.752 177.132 101.136 177.772 101.904C178.412 102.672 178.732 103.739 178.732 105.104V113.36H186.988C188.353 113.36 189.42 113.68 190.188 114.32C190.956 114.96 191.34 115.963 191.34 117.328C191.34 118.651 190.956 119.653 190.188 120.336C189.42 120.976 188.353 121.296 186.988 121.296H178.732V129.616C178.732 130.939 178.412 132.005 177.772 132.816C177.132 133.584 176.129 133.968 174.764 133.968C173.441 133.968 172.438 133.584 171.756 132.816C171.116 132.005 170.796 130.939 170.796 129.616V121.296H162.476Z" fill="white"/>
</svg>
