<svg width="240" height="240" viewBox="0 0 240 240" fill="none" xmlns="http://www.w3.org/2000/svg">
<circle cx="120" cy="120" r="120" fill="#F9B047"/>
<path d="M84.535 138.704C81.9323 138.704 79.415 138.213 76.983 137.232C74.551 136.251 72.5457 134.779 70.967 132.816C69.431 130.853 68.663 128.421 68.663 125.52C68.663 123.173 69.2817 121.147 70.519 119.44C71.7563 117.691 73.2497 116.347 74.999 115.408C73.5057 114.512 72.3323 113.189 71.479 111.44C70.6257 109.691 70.199 107.792 70.199 105.744C70.199 103.568 70.6683 101.477 71.607 99.472C72.5883 97.424 74.1243 95.76 76.215 94.48C78.3483 93.1573 81.1003 92.496 84.471 92.496C87.8843 92.496 90.615 93.1573 92.663 94.48C94.7537 95.8027 96.2683 97.488 97.207 99.536C98.1457 101.541 98.615 103.611 98.615 105.744C98.615 107.835 98.2097 109.755 97.399 111.504C96.5883 113.253 95.4577 114.555 94.007 115.408C95.799 116.347 97.2497 117.691 98.359 119.44C99.511 121.147 100.087 123.173 100.087 125.52C100.087 128.464 99.319 130.917 97.783 132.88C96.2897 134.8 94.3483 136.251 91.959 137.232C89.6123 138.213 87.1377 138.704 84.535 138.704ZM84.791 111.312C86.4123 111.312 87.6283 110.757 88.439 109.648C89.2497 108.496 89.655 107.195 89.655 105.744C89.655 104.379 89.207 103.12 88.311 101.968C87.4577 100.773 86.135 100.176 84.343 100.176C82.679 100.176 81.399 100.773 80.503 101.968C79.607 103.12 79.159 104.379 79.159 105.744C79.159 107.195 79.607 108.496 80.503 109.648C81.399 110.757 82.8283 111.312 84.791 111.312ZM84.471 130.704C86.647 130.704 88.2683 130.085 89.335 128.848C90.4017 127.568 90.935 126.203 90.935 124.752C90.935 123.259 90.4017 121.893 89.335 120.656C88.2683 119.419 86.647 118.8 84.471 118.8C82.2523 118.8 80.5883 119.419 79.479 120.656C78.4123 121.893 77.879 123.259 77.879 124.752C77.879 126.203 78.4123 127.568 79.479 128.848C80.5883 130.085 82.2523 130.704 84.471 130.704ZM122.392 138.512C118.979 138.512 116.035 137.765 113.56 136.272C111.128 134.736 109.272 132.283 107.992 128.912C106.712 125.541 106.072 121.083 106.072 115.536C106.072 109.947 106.712 105.467 107.992 102.096C109.272 98.7253 111.128 96.2933 113.56 94.8C115.992 93.264 118.936 92.496 122.392 92.496C125.891 92.496 128.835 93.264 131.224 94.8C133.656 96.2933 135.512 98.7253 136.792 102.096C138.072 105.467 138.712 109.947 138.712 115.536C138.712 121.083 138.072 125.541 136.792 128.912C135.512 132.283 133.656 134.736 131.224 136.272C128.792 137.765 125.848 138.512 122.392 138.512ZM122.392 130.064C123.971 130.064 125.251 129.68 126.232 128.912C127.213 128.144 127.939 126.715 128.408 124.624C128.877 122.491 129.112 119.461 129.112 115.536C129.112 111.568 128.877 108.539 128.408 106.448C127.939 104.357 127.213 102.928 126.232 102.16C125.251 101.349 123.971 100.944 122.392 100.944C120.856 100.944 119.576 101.349 118.552 102.16C117.571 102.928 116.845 104.357 116.376 106.448C115.907 108.539 115.672 111.568 115.672 115.536C115.672 119.461 115.907 122.491 116.376 124.624C116.845 126.715 117.571 128.144 118.552 128.912C119.576 129.68 120.856 130.064 122.392 130.064ZM145.507 121.296C144.184 121.296 143.118 120.976 142.307 120.336C141.539 119.653 141.155 118.651 141.155 117.328C141.155 115.963 141.539 114.96 142.307 114.32C143.118 113.68 144.184 113.36 145.507 113.36H153.827V105.104C153.827 103.739 154.147 102.672 154.787 101.904C155.47 101.136 156.472 100.752 157.795 100.752C159.16 100.752 160.163 101.136 160.803 101.904C161.443 102.672 161.763 103.739 161.763 105.104V113.36H170.019C171.384 113.36 172.451 113.68 173.219 114.32C173.987 114.96 174.371 115.963 174.371 117.328C174.371 118.651 173.987 119.653 173.219 120.336C172.451 120.976 171.384 121.296 170.019 121.296H161.763V129.616C161.763 130.939 161.443 132.005 160.803 132.816C160.163 133.584 159.16 133.968 157.795 133.968C156.472 133.968 155.47 133.584 154.787 132.816C154.147 132.005 153.827 130.939 153.827 129.616V121.296H145.507Z" fill="white"/>
</svg>
