<?xml version="1.0" encoding="UTF-8"?>
<!DOCTYPE svg PUBLIC "-//W3C//DTD SVG 1.1//EN" "http://www.w3.org/Graphics/SVG/1.1/DTD/svg11.dtd">
<svg xmlns="http://www.w3.org/2000/svg" version="1.1" width="1713px" height="981px" style="shape-rendering:geometricPrecision; text-rendering:geometricPrecision; image-rendering:optimizeQuality; fill-rule:evenodd; clip-rule:evenodd" xmlns:xlink="http://www.w3.org/1999/xlink">
<g><path style="opacity:0.999" fill="#2b398f" d="M 1328.5,391.5 C 1188.83,394.29 1056.49,426.29 931.5,487.5C 930.448,487.649 929.448,487.483 928.5,487C 889.528,452.537 851.528,416.704 814.5,379.5C 812.862,378.295 812.529,376.962 813.5,375.5C 824.835,374.501 835.501,371.334 845.5,366C 850.523,361.318 851.689,355.818 849,349.5C 841.145,339.658 831.645,331.825 820.5,326C 803.433,317.294 786.099,309.461 768.5,302.5C 776.892,280.191 774.392,259.191 761,239.5C 756.756,234.585 751.923,230.419 746.5,227C 751.525,214.93 756.358,202.763 761,190.5C 778.776,190.06 786.442,181.06 784,163.5C 778.563,154.011 770.397,150.511 759.5,153C 745.952,161.32 743.952,171.82 753.5,184.5C 748.04,197.381 742.873,210.381 738,223.5C 732.731,221.133 727.231,219.466 721.5,218.5C 720.356,204.809 720.689,191.142 722.5,177.5C 733.248,171.891 736.748,163.224 733,151.5C 725.997,141.257 716.83,138.757 705.5,144C 697.486,150.527 695.319,158.694 699,168.5C 701.971,173.98 706.471,177.314 712.5,178.5C 712.079,191.54 711.412,204.54 710.5,217.5C 704.487,219.119 698.821,221.619 693.5,225C 679.201,237.478 664.534,249.478 649.5,261C 643.723,264.893 637.389,267.06 630.5,267.5C 618.782,264.985 607.115,262.152 595.5,259C 591.514,258.501 587.514,258.334 583.5,258.5C 552.883,251.669 521.883,246.169 490.5,242C 480.25,240.731 470.25,241.731 460.5,245C 442.724,254.298 425.557,264.465 409,275.5C 406.709,278.835 407.209,281.668 410.5,284C 425.735,291.62 441.401,298.12 457.5,303.5C 410.534,330.315 364.201,358.148 318.5,387C 290.842,402.996 261.842,415.996 231.5,426C 197.989,435.141 164.323,435.808 130.5,428C 128.68,427.8 127.347,426.966 126.5,425.5C 158.871,417.815 187.538,402.981 212.5,381C 222.7,370.802 232.533,360.302 242,349.5C 264.364,320.476 286.698,291.476 309,262.5C 342.281,223.713 379.781,189.713 421.5,160.5C 464.354,132.067 509.354,107.233 556.5,86C 644.902,51.8189 735.236,46.1523 827.5,69C 887.621,84.479 944.954,106.812 999.5,136C 1054.71,166.731 1107.38,201.231 1157.5,239.5C 1187.58,263.404 1217.25,287.904 1246.5,313C 1274.62,338.472 1301.95,364.639 1328.5,391.5 Z"/></g>
<g><path style="opacity:1" fill="#8d94c3" d="M 851.5,113.5 C 898.442,124.897 944.442,139.064 989.5,156C 1022.23,169.03 1053.56,184.697 1083.5,203C 1084.99,206.841 1083.66,208.174 1079.5,207C 1070.1,200.604 1060.43,194.604 1050.5,189C 1014.83,170.671 977.829,155.338 939.5,143C 910.958,134.363 882.291,126.03 853.5,118C 850.589,117.302 849.923,115.802 851.5,113.5 Z"/></g>
<g><path style="opacity:1" fill="#025ca4" d="M 552.5,125.5 C 566.21,124.367 571.377,130.367 568,143.5C 564.364,149.177 559.197,151.01 552.5,149C 543.208,141.168 543.208,133.335 552.5,125.5 Z"/></g>
<g><path style="opacity:1" fill="#015ca4" d="M 502.5,131.5 C 515.427,130.923 520.594,136.923 518,149.5C 513.118,155.888 506.951,157.221 499.5,153.5C 495.726,149.195 494.56,144.195 496,138.5C 497.694,135.642 499.861,133.309 502.5,131.5 Z"/></g>
<g><path style="opacity:1" fill="#fdf456" d="M 768.5,302.5 C 758.36,321.263 742.694,332.763 721.5,337C 704.234,339.794 687.234,338.794 670.5,334C 654.553,324.529 637.553,317.529 619.5,313C 601.094,313.082 582.761,312.082 564.5,310C 553.316,307.272 542.316,303.939 531.5,300C 519.838,300.166 508.172,300.166 496.5,300C 490.192,298.096 484.359,295.262 479,291.5C 478.219,290.056 478.386,288.723 479.5,287.5C 481.167,286.667 482.833,285.833 484.5,285C 497.654,280.903 510.987,277.57 524.5,275C 543.054,265.611 562.721,260.111 583.5,258.5C 587.514,258.334 591.514,258.501 595.5,259C 607.115,262.152 618.782,264.985 630.5,267.5C 637.389,267.06 643.723,264.893 649.5,261C 664.534,249.478 679.201,237.478 693.5,225C 698.821,221.619 704.487,219.119 710.5,217.5C 711.412,204.54 712.079,191.54 712.5,178.5C 706.471,177.314 701.971,173.98 699,168.5C 695.319,158.694 697.486,150.527 705.5,144C 716.83,138.757 725.997,141.257 733,151.5C 736.748,163.224 733.248,171.891 722.5,177.5C 720.689,191.142 720.356,204.809 721.5,218.5C 727.231,219.466 732.731,221.133 738,223.5C 742.873,210.381 748.04,197.381 753.5,184.5C 743.952,171.82 745.952,161.32 759.5,153C 770.397,150.511 778.563,154.011 784,163.5C 786.442,181.06 778.776,190.06 761,190.5C 756.358,202.763 751.525,214.93 746.5,227C 751.923,230.419 756.756,234.585 761,239.5C 774.392,259.191 776.892,280.191 768.5,302.5 Z"/></g>
<g><path style="opacity:1" fill="#060503" d="M 720.5,149.5 C 714.631,151.304 713.131,154.971 716,160.5C 719.827,164.419 723.661,164.419 727.5,160.5C 725.732,169.228 720.398,172.728 711.5,171C 704.511,166.872 702.678,161.039 706,153.5C 709.986,148.682 714.819,147.349 720.5,149.5 Z"/></g>
<g><path style="opacity:1" fill="#f7f7f4" d="M 720.5,149.5 C 728.107,149.778 730.441,153.445 727.5,160.5C 723.661,164.419 719.827,164.419 716,160.5C 713.131,154.971 714.631,151.304 720.5,149.5 Z"/></g>
<g><path style="opacity:1" fill="#015da4" d="M 526.5,156.5 C 537.096,155.93 542.263,160.93 542,171.5C 541.394,174.548 539.894,177.048 537.5,179C 526.697,183.728 520.363,180.395 518.5,169C 518.562,163.018 521.228,158.851 526.5,156.5 Z"/></g>
<g><path style="opacity:1" fill="#0c0c08" d="M 770.5,160.5 C 765.338,162.697 764.171,166.364 767,171.5C 767.5,172 768,172.5 768.5,173C 771.735,173.229 774.735,173.396 777.5,173.5C 773.686,182.495 767.353,184.662 758.5,180C 752.509,172.268 753.509,165.601 761.5,160C 764.696,159.195 767.696,159.362 770.5,160.5 Z"/></g>
<g><path style="opacity:1" fill="#f9f9f6" d="M 770.5,160.5 C 773.157,160.162 775.49,160.829 777.5,162.5C 778.793,166.299 778.793,169.966 777.5,173.5C 774.735,173.396 771.735,173.229 768.5,173C 768,172.5 767.5,172 767,171.5C 764.171,166.364 765.338,162.697 770.5,160.5 Z"/></g>
<g><path style="opacity:1" fill="#8990c1" d="M 447.5,166.5 C 449.199,166.34 450.866,166.506 452.5,167C 415.845,190.647 381.179,216.98 348.5,246C 346.553,246.991 344.553,247.325 342.5,247C 375.767,217.723 410.767,190.89 447.5,166.5 Z"/></g>
<g><path style="opacity:1" fill="#bbbdbf" d="M 583.5,258.5 C 562.721,260.111 543.054,265.611 524.5,275C 510.987,277.57 497.654,280.903 484.5,285C 482.833,285.833 481.167,286.667 479.5,287.5C 478.386,288.723 478.219,290.056 479,291.5C 484.359,295.262 490.192,298.096 496.5,300C 508.172,300.166 519.838,300.166 531.5,300C 542.316,303.939 553.316,307.272 564.5,310C 582.761,312.082 601.094,313.082 619.5,313C 637.553,317.529 654.553,324.529 670.5,334C 687.234,338.794 704.234,339.794 721.5,337C 742.694,332.763 758.36,321.263 768.5,302.5C 786.099,309.461 803.433,317.294 820.5,326C 831.645,331.825 841.145,339.658 849,349.5C 851.689,355.818 850.523,361.318 845.5,366C 835.501,371.334 824.835,374.501 813.5,375.5C 773.707,378.618 734.04,377.118 694.5,371C 627.67,355.958 561.67,337.792 496.5,316.5C 489.293,323.204 481.626,329.371 473.5,335C 470.688,336.549 467.688,337.382 464.5,337.5C 463.149,335.577 462.482,333.41 462.5,331C 463.423,322.885 465.423,315.052 468.5,307.5C 464.972,305.769 461.306,304.435 457.5,303.5C 441.401,298.12 425.735,291.62 410.5,284C 407.209,281.668 406.709,278.835 409,275.5C 425.557,264.465 442.724,254.298 460.5,245C 470.25,241.731 480.25,240.731 490.5,242C 521.883,246.169 552.883,251.669 583.5,258.5 Z"/></g>
<g><path style="opacity:1" fill="#015da4" d="M 1113.5,274.5 C 1126.1,272.603 1131.6,277.936 1130,290.5C 1126.18,297.777 1120.35,299.943 1112.5,297C 1107.74,292.509 1106.24,287.009 1108,280.5C 1109.36,277.977 1111.19,275.977 1113.5,274.5 Z"/></g>
<g><path style="opacity:1" fill="#015da4" d="M 1146.5,278.5 C 1161.55,277.037 1166.72,283.37 1162,297.5C 1156.91,303.116 1151.08,303.949 1144.5,300C 1138.73,292.202 1139.4,285.036 1146.5,278.5 Z"/></g>
<g><path style="opacity:0.998" fill="#2b3990" d="M 1712.5,279.5 C 1712.5,295.167 1712.5,310.833 1712.5,326.5C 1701.55,321.153 1695.21,324.487 1693.5,336.5C 1695.38,347.942 1701.71,351.275 1712.5,346.5C 1712.5,372.167 1712.5,397.833 1712.5,423.5C 1702.17,432.494 1692.17,441.828 1682.5,451.5C 1659.61,441.59 1636.27,432.757 1612.5,425C 1588.37,417.744 1564.03,411.577 1539.5,406.5C 1565.95,392.107 1591.28,375.941 1615.5,358C 1648.52,332.805 1680.85,306.639 1712.5,279.5 Z"/></g>
<g><path style="opacity:1" fill="#357dae" d="M 457.5,303.5 C 461.306,304.435 464.972,305.769 468.5,307.5C 465.423,315.052 463.423,322.885 462.5,331C 462.482,333.41 463.149,335.577 464.5,337.5C 463.475,337.897 463.308,338.563 464,339.5C 465.062,340.097 466.228,340.43 467.5,340.5C 477.698,336.214 486.364,329.714 493.5,321C 494.667,320.833 495.833,320.667 497,320.5C 542.469,334.433 588.135,347.766 634,360.5C 653.078,365.25 672.245,369.75 691.5,374C 732.306,380.245 773.306,382.078 814.5,379.5C 851.528,416.704 889.528,452.537 928.5,487C 929.448,487.483 930.448,487.649 931.5,487.5C 906.883,499.475 882.55,511.975 858.5,525C 817.298,548.434 775.965,571.6 734.5,594.5C 663.452,583.138 594.786,591.138 528.5,618.5C 531.529,605.709 526.529,599.876 513.5,601C 505.372,605.749 503.539,612.249 508,620.5C 509.432,622.439 511.265,623.772 513.5,624.5C 487.229,636.473 462.229,650.807 438.5,667.5C 352.727,660.535 271.727,637.035 195.5,597C 150.584,572.561 108.251,544.394 68.5,512.5C 41.9992,565.662 18.9992,620.329 -0.5,676.5C -0.5,587.5 -0.5,498.5 -0.5,409.5C 15.3632,399.027 32.6965,395.527 51.5,399C 59.0613,400.187 66.3946,402.187 73.5,405C 90.7135,412.938 108.38,419.771 126.5,425.5C 127.347,426.966 128.68,427.8 130.5,428C 164.323,435.808 197.989,435.141 231.5,426C 261.842,415.996 290.842,402.996 318.5,387C 364.201,358.148 410.534,330.315 457.5,303.5 Z"/></g>
<g><path style="opacity:1" fill="#2e658b" d="M 813.5,375.5 C 812.529,376.962 812.862,378.295 814.5,379.5C 773.306,382.078 732.306,380.245 691.5,374C 672.245,369.75 653.078,365.25 634,360.5C 588.135,347.766 542.469,334.433 497,320.5C 495.833,320.667 494.667,320.833 493.5,321C 486.364,329.714 477.698,336.214 467.5,340.5C 466.228,340.43 465.062,340.097 464,339.5C 463.308,338.563 463.475,337.897 464.5,337.5C 467.688,337.382 470.688,336.549 473.5,335C 481.626,329.371 489.293,323.204 496.5,316.5C 561.67,337.792 627.67,355.958 694.5,371C 734.04,377.118 773.707,378.618 813.5,375.5 Z"/></g>
<g><path style="opacity:1" fill="#015da4" d="M 1117.5,324.5 C 1130.4,323.226 1135.9,328.893 1134,341.5C 1130.64,347.842 1125.47,350.008 1118.5,348C 1112.24,344.235 1110.07,338.735 1112,331.5C 1113.32,328.692 1115.15,326.359 1117.5,324.5 Z"/></g>
<g><path style="opacity:1" fill="#015da4" d="M 1712.5,326.5 C 1712.5,333.167 1712.5,339.833 1712.5,346.5C 1701.71,351.275 1695.38,347.942 1693.5,336.5C 1695.21,324.487 1701.55,321.153 1712.5,326.5 Z"/></g>
<g><path style="opacity:1" fill="#015da4" d="M 1694.5,357.5 C 1709.79,357.758 1714.13,364.758 1707.5,378.5C 1692.81,385.238 1686.31,380.571 1688,364.5C 1689.69,361.642 1691.86,359.309 1694.5,357.5 Z"/></g>
<g><path style="opacity:1" fill="#025ca4" d="M 1660.5,361.5 C 1672.31,361.826 1676.81,367.826 1674,379.5C 1669.38,386.94 1663.21,388.44 1655.5,384C 1650.65,377.856 1650.32,371.522 1654.5,365C 1656.43,363.541 1658.43,362.375 1660.5,361.5 Z"/></g>
<g><path style="opacity:1" fill="#27a9e0" d="M 1328.5,391.5 C 1399.42,388.939 1469.75,393.939 1539.5,406.5C 1564.03,411.577 1588.37,417.744 1612.5,425C 1636.27,432.757 1659.61,441.59 1682.5,451.5C 1692.22,457.029 1702.22,462.029 1712.5,466.5C 1712.5,487.5 1712.5,508.5 1712.5,529.5C 1702.04,532.678 1699.21,539.345 1704,549.5C 1706.14,552.321 1708.97,553.654 1712.5,553.5C 1712.5,555.5 1712.5,557.5 1712.5,559.5C 1603.06,499.473 1492.39,497.306 1380.5,553C 1334.44,575.524 1290.11,600.857 1247.5,629C 1209.74,657.417 1173.74,688.084 1139.5,721C 1123.03,735.903 1104.37,747.236 1083.5,755C 1048.96,765.598 1016.29,761.598 985.5,743C 966.659,729.501 948.992,714.501 932.5,698C 894.445,661.966 851.112,633.966 802.5,614C 780.239,605.936 757.572,599.436 734.5,594.5C 775.965,571.6 817.298,548.434 858.5,525C 882.55,511.975 906.883,499.475 931.5,487.5C 1056.49,426.29 1188.83,394.29 1328.5,391.5 Z"/></g>
<g><path style="opacity:1" fill="#91b9d3" d="M 352.5,401.5 C 354.103,401.312 355.437,401.812 356.5,403C 307.842,427.05 256.508,442.55 202.5,449.5C 202.5,448.5 202.5,447.5 202.5,446.5C 254.787,438.602 304.787,423.602 352.5,401.5 Z"/></g>
<g><path style="opacity:1" fill="#347fb0" d="M 1333.5,403.5 C 1347.19,403.873 1351.69,410.54 1347,423.5C 1342.61,428.186 1337.45,429.352 1331.5,427C 1322.98,418.333 1323.65,410.5 1333.5,403.5 Z"/></g>
<g><path style="opacity:1" fill="#347fb0" d="M 1287.5,406.5 C 1302.35,404.855 1307.52,411.188 1303,425.5C 1294.7,432.886 1287.7,431.886 1282,422.5C 1280.19,415.812 1282.02,410.479 1287.5,406.5 Z"/></g>
<g><path style="opacity:1" fill="#27a9df" d="M 707.5,408.5 C 717.405,406.602 723.405,410.435 725.5,420C 723.2,430.65 716.866,434.316 706.5,431C 699.52,423.018 699.854,415.518 707.5,408.5 Z"/></g>
<g><path style="opacity:1" fill="#27a8df" d="M 741.5,408.5 C 756.632,407.791 761.465,414.457 756,428.5C 748.182,434.608 741.515,433.608 736,425.5C 733.959,418.351 735.792,412.685 741.5,408.5 Z"/></g>
<g><path style="opacity:1" fill="#94bbd4" d="M 829.5,413.5 C 830.873,413.343 832.207,413.51 833.5,414C 857.644,427.745 873.311,447.745 880.5,474C 878.888,474.72 877.388,474.554 876,473.5C 867.222,449.096 851.722,430.262 829.5,417C 828.316,415.855 828.316,414.688 829.5,413.5 Z"/></g>
<g><path style="opacity:1" fill="#347daf" d="M 1712.5,423.5 C 1712.5,437.833 1712.5,452.167 1712.5,466.5C 1702.22,462.029 1692.22,457.029 1682.5,451.5C 1692.17,441.828 1702.17,432.494 1712.5,423.5 Z"/></g>
<g><path style="opacity:1" fill="#89d0ee" d="M 1496.5,424.5 C 1527.4,422.433 1557.73,425.6 1587.5,434C 1593.58,436.205 1599.58,438.705 1605.5,441.5C 1605.29,442.086 1604.96,442.586 1604.5,443C 1602.5,443.667 1600.5,443.667 1598.5,443C 1577.43,434.053 1555.43,429.053 1532.5,428C 1503.15,426.88 1473.99,428.713 1445,433.5C 1440.57,432.443 1440.74,431.276 1445.5,430C 1462.64,428.093 1479.64,426.26 1496.5,424.5 Z"/></g>
<g><path style="opacity:1" fill="#27a8df" d="M 107.5,443.5 C 122.761,443.685 127.094,450.685 120.5,464.5C 116.267,467.362 111.6,468.195 106.5,467C 100.888,462.824 99.0547,457.324 101,450.5C 102.694,447.642 104.861,445.309 107.5,443.5 Z"/></g>
<g><path style="opacity:1" fill="#27a8df" d="M 140.5,443.5 C 154.189,442.348 159.356,448.348 156,461.5C 154.833,464 153,465.833 150.5,467C 136.856,468.689 131.689,462.856 135,449.5C 137.04,447.63 138.873,445.63 140.5,443.5 Z"/></g>
<g><path style="opacity:1" fill="#347eb0" d="M 1307.5,443.5 C 1322.61,443.731 1327.11,450.731 1321,464.5C 1307.21,470.945 1300.55,466.611 1301,451.5C 1302.3,448.039 1304.47,445.372 1307.5,443.5 Z"/></g>
<g><path style="opacity:1" fill="#27a8df" d="M 733.5,456.5 C 746.992,455.165 752.159,461.165 749,474.5C 744.392,480.56 738.559,482.06 731.5,479C 724.395,470.695 725.061,463.195 733.5,456.5 Z"/></g>
<g><path style="opacity:1" fill="#84cfed" d="M 1036.5,474.5 C 1038.86,474.337 1041.19,474.503 1043.5,475C 983.216,481.899 926.549,499.899 873.5,529C 872.167,529.667 870.833,529.667 869.5,529C 921.561,499.702 977.228,481.535 1036.5,474.5 Z"/></g>
<g><path style="opacity:1" fill="#27a8df" d="M 136.5,487.5 C 147.927,486.262 153.427,491.262 153,502.5C 151.445,508.718 147.445,512.051 141,512.5C 131.766,510.05 128.1,504.05 130,494.5C 131.728,491.67 133.895,489.337 136.5,487.5 Z"/></g>
<g><path style="opacity:1" fill="#005ea5" d="M 1712.5,559.5 C 1712.5,592.167 1712.5,624.833 1712.5,657.5C 1704.4,648.23 1696.07,639.063 1687.5,630C 1667.01,610.248 1643.01,596.414 1615.5,588.5C 1614.26,588.556 1613.26,589.056 1612.5,590C 1653.82,605.148 1687.15,630.648 1712.5,666.5C 1712.5,771.167 1712.5,875.833 1712.5,980.5C 1141.5,980.5 570.5,980.5 -0.5,980.5C -0.5,939.833 -0.5,899.167 -0.5,858.5C 30.7579,867.052 62.4246,873.885 94.5,879C 139.494,884.885 182.827,879.218 224.5,862C 244.662,853.093 262.996,841.426 279.5,827C 308.202,799.076 334.702,769.242 359,737.5C 382.983,711.266 409.483,687.933 438.5,667.5C 462.229,650.807 487.229,636.473 513.5,624.5C 520.135,626.048 525.135,624.048 528.5,618.5C 594.786,591.138 663.452,583.138 734.5,594.5C 757.572,599.436 780.239,605.936 802.5,614C 851.112,633.966 894.445,661.966 932.5,698C 948.992,714.501 966.659,729.501 985.5,743C 1016.29,761.598 1048.96,765.598 1083.5,755C 1104.37,747.236 1123.03,735.903 1139.5,721C 1173.74,688.084 1209.74,657.417 1247.5,629C 1290.11,600.857 1334.44,575.524 1380.5,553C 1492.39,497.306 1603.06,499.473 1712.5,559.5 Z"/></g>
<g><path style="opacity:1" fill="#27a9e0" d="M 438.5,667.5 C 409.483,687.933 382.983,711.266 359,737.5C 334.702,769.242 308.202,799.076 279.5,827C 262.996,841.426 244.662,853.093 224.5,862C 182.827,879.218 139.494,884.885 94.5,879C 62.4246,873.885 30.7579,867.052 -0.5,858.5C -0.5,797.833 -0.5,737.167 -0.5,676.5C 18.9992,620.329 41.9992,565.662 68.5,512.5C 108.251,544.394 150.584,572.561 195.5,597C 271.727,637.035 352.727,660.535 438.5,667.5 Z"/></g>
<g><path style="opacity:1" fill="#347fb0" d="M 1712.5,529.5 C 1712.5,537.5 1712.5,545.5 1712.5,553.5C 1708.97,553.654 1706.14,552.321 1704,549.5C 1699.21,539.345 1702.04,532.678 1712.5,529.5 Z"/></g>
<g><path style="opacity:1" fill="#27a8df" d="M 489.5,567.5 C 503.149,566.311 508.316,572.311 505,585.5C 499.638,592.272 493.304,593.272 486,588.5C 480.561,580.332 481.727,573.332 489.5,567.5 Z"/></g>
<g><path style="opacity:1" fill="#8bd1ee" d="M 108.5,568.5 C 118.567,574.376 128.567,580.543 138.5,587C 164.801,601.818 192.467,613.318 221.5,621.5C 221,622.881 220,623.547 218.5,623.5C 178.154,612.741 140.987,595.407 107,571.5C 106.761,570.212 107.261,569.212 108.5,568.5 Z"/></g>
<g><path style="opacity:1" fill="#2a3990" d="M 1394.5,577.5 C 1406.47,578.769 1410.31,585.102 1406,596.5C 1404.89,598.815 1403.06,600.315 1400.5,601C 1386.89,602.038 1382.06,595.871 1386,582.5C 1388.4,579.892 1391.23,578.225 1394.5,577.5 Z"/></g>
<g><path style="opacity:1" fill="#77a9ce" d="M 1712.5,657.5 C 1712.5,660.5 1712.5,663.5 1712.5,666.5C 1687.15,630.648 1653.82,605.148 1612.5,590C 1613.26,589.056 1614.26,588.556 1615.5,588.5C 1643.01,596.414 1667.01,610.248 1687.5,630C 1696.07,639.063 1704.4,648.23 1712.5,657.5 Z"/></g>
<g><path style="opacity:1" fill="#27a8df" d="M 528.5,618.5 C 525.135,624.048 520.135,626.048 513.5,624.5C 511.265,623.772 509.432,622.439 508,620.5C 503.539,612.249 505.372,605.749 513.5,601C 526.529,599.876 531.529,605.709 528.5,618.5 Z"/></g>
<g><path style="opacity:1" fill="#2a3a90" d="M 1360.5,602.5 C 1373.56,602.636 1378.39,608.97 1375,621.5C 1367.54,629.67 1360.54,629.337 1354,620.5C 1351.39,612.698 1353.55,606.698 1360.5,602.5 Z"/></g>
<g><path style="opacity:1" fill="#27a8df" d="M 465.5,607.5 C 478.991,605.49 484.491,611.157 482,624.5C 477.225,632.12 471.058,633.453 463.5,628.5C 457.715,620.894 458.382,613.894 465.5,607.5 Z"/></g>
<g><path style="opacity:1" fill="#2a3990" d="M 1394.5,619.5 C 1409.18,620.043 1413.35,627.043 1407,640.5C 1393.21,646.945 1386.55,642.611 1387,627.5C 1388.35,623.65 1390.85,620.983 1394.5,619.5 Z"/></g>
<g><path style="opacity:1" fill="#2a3990" d="M 696.5,621.5 C 708.748,622.971 712.581,629.638 708,641.5C 703.071,645.68 697.571,646.513 691.5,644C 684.575,636.582 684.909,629.582 692.5,623C 694.058,622.79 695.391,622.29 696.5,621.5 Z"/></g>
<g><path style="opacity:1" fill="#2a3990" d="M 644.5,628.5 C 659.351,626.855 664.518,633.188 660,647.5C 651.754,654.736 644.754,653.736 639,644.5C 637.212,637.776 639.045,632.442 644.5,628.5 Z"/></g>
<g><path style="opacity:1" fill="#347fb0" d="M 159.5,630.5 C 173.131,629.295 178.298,635.295 175,648.5C 166.874,656.804 159.541,656.137 153,646.5C 151.77,639.672 153.936,634.339 159.5,630.5 Z"/></g>
<g><path style="opacity:1" fill="#347eb0" d="M 193.5,638.5 C 208.691,638.535 213.191,645.535 207,659.5C 198.936,664.537 192.27,663.204 187,655.5C 184.788,648.015 186.954,642.348 193.5,638.5 Z"/></g>
<g><path style="opacity:1" fill="#2a3990" d="M 685.5,661.5 C 697.815,660.649 702.982,666.315 701,678.5C 697.235,684.76 691.735,686.927 684.5,685C 678.514,679.993 677.014,673.826 680,666.5C 681.73,664.598 683.563,662.931 685.5,661.5 Z"/></g>
<g><path style="opacity:1" fill="#347fb0" d="M 161.5,665.5 C 173.391,665.897 177.891,671.897 175,683.5C 173.833,686 172,687.833 169.5,689C 157.289,691.125 151.789,685.958 153,673.5C 154.445,669.218 157.278,666.551 161.5,665.5 Z"/></g>
<g><path style="opacity:1" fill="#347eaf" d="M 1039.5,678.5 C 1049.6,676.627 1055.6,680.627 1057.5,690.5C 1055.72,700.122 1050.05,703.955 1040.5,702C 1033.93,698.345 1031.76,692.845 1034,685.5C 1035.67,683.004 1037.5,680.671 1039.5,678.5 Z"/></g>
<g><path style="opacity:1" fill="#75a8ce" d="M 504.5,682.5 C 507.247,682.187 509.914,682.52 512.5,683.5C 512.291,684.086 511.957,684.586 511.5,685C 495.304,686.954 480.304,692.288 466.5,701C 446.476,714.187 429.143,730.354 414.5,749.5C 396.153,774.858 377.32,799.858 358,824.5C 338.282,847.602 314.116,864.102 285.5,874C 271.667,877.457 257.667,878.29 243.5,876.5C 272.406,877.069 298.74,868.903 322.5,852C 335.594,842.241 347.427,831.075 358,818.5C 377.052,793.782 395.718,768.782 414,743.5C 433.542,719.331 457.375,700.831 485.5,688C 491.934,686.093 498.267,684.259 504.5,682.5 Z"/></g>
<g><path style="opacity:1" fill="#347eb0" d="M 1000.5,705.5 C 1015.53,705.55 1020.03,712.55 1014,726.5C 1000.21,732.945 993.545,728.611 994,713.5C 995.305,710.039 997.471,707.372 1000.5,705.5 Z"/></g>
<g><path style="opacity:1" fill="#347fb0" d="M 1039.5,720.5 C 1053.05,718.545 1058.55,724.211 1056,737.5C 1052.43,743.364 1047.27,745.53 1040.5,744C 1033.93,740.345 1031.76,734.845 1034,727.5C 1035.67,725.004 1037.5,722.671 1039.5,720.5 Z"/></g>
<g><path style="opacity:1" fill="#75a7cd" d="M 1218.5,729.5 C 1219.98,729.238 1221.31,729.571 1222.5,730.5C 1186.73,756.045 1147.06,772.212 1103.5,779C 1081.64,780.522 1059.98,779.188 1038.5,775C 996.257,765.389 954.257,755.222 912.5,744.5C 913.171,743.054 914.338,742.388 916,742.5C 918.824,743.054 921.657,743.554 924.5,744C 967.707,754.508 1011.04,764.508 1054.5,774C 1078.33,777.78 1102,777.113 1125.5,772C 1158.88,762.934 1189.88,748.768 1218.5,729.5 Z"/></g>
<g><path style="opacity:1" fill="#2a3990" d="M 146.5,894.5 C 160.787,892.763 165.953,898.763 162,912.5C 156.351,919.581 150.017,920.248 143,914.5C 138.738,906.655 139.905,899.988 146.5,894.5 Z"/></g>
<g><path style="opacity:1" fill="#2a3990" d="M 182.5,894.5 C 196.074,893.242 201.241,899.242 198,912.5C 190.507,920.746 183.507,920.412 177,911.5C 174.539,904.385 176.372,898.719 182.5,894.5 Z"/></g>
<g><path style="opacity:1" fill="#2a3a90" d="M 167.5,935.5 C 179.998,936.163 184.498,942.497 181,954.5C 175.305,961.587 168.972,962.254 162,956.5C 157.321,947.554 159.155,940.554 167.5,935.5 Z"/></g>
<g><path style="opacity:1" fill="#2a3990" d="M 1691.5,950.5 C 1705.04,951.244 1709.21,957.911 1704,970.5C 1698.26,975.407 1692.26,975.74 1686,971.5C 1683.6,966.768 1682.93,961.768 1684,956.5C 1686.11,953.878 1688.61,951.878 1691.5,950.5 Z"/></g>
</svg>
