<svg width="22" height="32" viewBox="0 0 22 32" fill="none" xmlns="http://www.w3.org/2000/svg">
<path d="M1.08452 12V9.97727L5.32884 6.26136C5.64702 5.97348 5.91785 5.71023 6.14134 5.47159C6.36482 5.22917 6.53527 4.98674 6.6527 4.74432C6.77012 4.49811 6.82884 4.23106 6.82884 3.94318C6.82884 3.62121 6.75876 3.34659 6.61861 3.11932C6.47846 2.88826 6.28527 2.71023 6.03906 2.58523C5.79285 2.46023 5.51065 2.39773 5.19247 2.39773C4.8705 2.39773 4.5883 2.46402 4.34588 2.59659C4.10346 2.72538 3.91406 2.91288 3.7777 3.15909C3.64512 3.4053 3.57884 3.70455 3.57884 4.05682H0.914062C0.914062 3.26515 1.09209 2.58144 1.44815 2.00568C1.80421 1.42992 2.30421 0.986742 2.94815 0.676136C3.59588 0.361742 4.34777 0.204545 5.20384 0.204545C6.08641 0.204545 6.85346 0.352272 7.50497 0.647727C8.15649 0.943182 8.66027 1.35606 9.01634 1.88636C9.37618 2.41288 9.55611 3.02462 9.55611 3.72159C9.55611 4.16477 9.46709 4.60417 9.28906 5.03977C9.11103 5.47538 8.79096 5.95644 8.32884 6.48295C7.8705 7.00947 7.21899 7.64015 6.37429 8.375L4.98224 9.65909V9.73295H9.69815V12H1.08452ZM16.1001 12.2841C15.085 12.2841 14.21 12.0436 13.4751 11.5625C12.7403 11.0777 12.174 10.3826 11.7763 9.47727C11.3786 8.56818 11.1816 7.47538 11.1854 6.19886C11.1892 4.92235 11.388 3.83901 11.782 2.94886C12.1797 2.05492 12.7441 1.375 13.4751 0.909091C14.21 0.439394 15.085 0.204545 16.1001 0.204545C17.1153 0.204545 17.9903 0.439394 18.7251 0.909091C19.4638 1.375 20.032 2.05492 20.4297 2.94886C20.8274 3.8428 21.0244 4.92614 21.0206 6.19886C21.0206 7.47917 20.8217 8.57386 20.424 9.48295C20.0263 10.392 19.46 11.0871 18.7251 11.5682C17.9941 12.0455 17.1191 12.2841 16.1001 12.2841ZM16.1001 9.98295C16.7062 9.98295 17.1967 9.67424 17.5717 9.05682C17.9467 8.43561 18.1323 7.48295 18.1286 6.19886C18.1286 5.35795 18.0433 4.66477 17.8729 4.11932C17.7024 3.57008 17.4657 3.16098 17.1626 2.89205C16.8596 2.62311 16.5054 2.48864 16.1001 2.48864C15.4979 2.48864 15.0111 2.79356 14.6399 3.40341C14.2687 4.00947 14.0812 4.94129 14.0774 6.19886C14.0736 7.05114 14.1551 7.75758 14.3217 8.31818C14.4922 8.87879 14.7308 9.29735 15.0376 9.57386C15.3445 9.84659 15.6986 9.98295 16.1001 9.98295ZM1.42045 31V28.9773L5.66477 25.2614C5.98295 24.9735 6.25379 24.7102 6.47727 24.4716C6.70076 24.2292 6.87121 23.9867 6.98864 23.7443C7.10606 23.4981 7.16477 23.2311 7.16477 22.9432C7.16477 22.6212 7.0947 22.3466 6.95455 22.1193C6.81439 21.8883 6.62121 21.7102 6.375 21.5852C6.12879 21.4602 5.84659 21.3977 5.52841 21.3977C5.20644 21.3977 4.92424 21.464 4.68182 21.5966C4.43939 21.7254 4.25 21.9129 4.11364 22.1591C3.98106 22.4053 3.91477 22.7045 3.91477 23.0568H1.25C1.25 22.2652 1.42803 21.5814 1.78409 21.0057C2.14015 20.4299 2.64015 19.9867 3.28409 19.6761C3.93182 19.3617 4.68371 19.2045 5.53977 19.2045C6.42235 19.2045 7.18939 19.3523 7.84091 19.6477C8.49242 19.9432 8.99621 20.3561 9.35227 20.8864C9.71212 21.4129 9.89205 22.0246 9.89205 22.7216C9.89205 23.1648 9.80303 23.6042 9.625 24.0398C9.44697 24.4754 9.12689 24.9564 8.66477 25.483C8.20644 26.0095 7.55492 26.6402 6.71023 27.375L5.31818 28.6591V28.733H10.0341V31H1.42045ZM16.0497 31.1591C15.1634 31.1591 14.3774 31.0076 13.6918 30.7045C13.0099 30.3977 12.4721 29.9754 12.0781 29.4375C11.6842 28.8996 11.4834 28.2803 11.4759 27.5795H14.3054C14.3168 27.8333 14.3982 28.0587 14.5497 28.2557C14.7012 28.4489 14.9077 28.6004 15.169 28.7102C15.4304 28.8201 15.7277 28.875 16.0611 28.875C16.3944 28.875 16.688 28.8163 16.9418 28.6989C17.1993 28.5777 17.4001 28.4129 17.544 28.2045C17.688 27.9924 17.758 27.75 17.7543 27.4773C17.758 27.2045 17.6804 26.9621 17.5213 26.75C17.3622 26.5379 17.1368 26.3731 16.8452 26.2557C16.5573 26.1383 16.2164 26.0795 15.8224 26.0795H14.6918V24.0795H15.8224C16.1671 24.0795 16.4702 24.0227 16.7315 23.9091C16.9967 23.7955 17.2031 23.6364 17.3509 23.4318C17.4986 23.2235 17.5705 22.9848 17.5668 22.7159C17.5705 22.4545 17.508 22.2254 17.3793 22.0284C17.2543 21.8277 17.0781 21.6723 16.8509 21.5625C16.6274 21.4527 16.3679 21.3977 16.0724 21.3977C15.7618 21.3977 15.4796 21.4527 15.2259 21.5625C14.9759 21.6723 14.777 21.8277 14.6293 22.0284C14.4815 22.2292 14.4039 22.4621 14.3963 22.7273H11.7088C11.7164 22.0341 11.9096 21.4242 12.2884 20.8977C12.6671 20.3674 13.1823 19.9527 13.8338 19.6534C14.4891 19.3542 15.2353 19.2045 16.0724 19.2045C16.9058 19.2045 17.6387 19.3504 18.2713 19.642C18.9039 19.9337 19.3963 20.3314 19.7486 20.8352C20.1009 21.3352 20.277 21.9015 20.277 22.5341C20.2808 23.1894 20.0668 23.7292 19.6349 24.1534C19.2069 24.5777 18.6558 24.839 17.9815 24.9375V25.0284C18.883 25.1345 19.563 25.4261 20.0213 25.9034C20.4834 26.3807 20.7126 26.9773 20.7088 27.6932C20.7088 28.3674 20.5099 28.9659 20.1122 29.4886C19.7183 30.0076 19.169 30.4167 18.4645 30.7159C17.7637 31.0114 16.9588 31.1591 16.0497 31.1591Z" fill="white"/>
</svg>
