<svg width="62" height="84" viewBox="0 0 62 84" fill="none" xmlns="http://www.w3.org/2000/svg">
<path d="M2.74219 36L1.89844 30.7031L14.7188 19.1484C15.9375 18.0547 16.8828 17.0859 17.5547 16.2422C18.2266 15.3984 18.6953 14.5703 18.9609 13.7578C19.2422 12.9297 19.3828 12.0234 19.3828 11.0391C19.3828 9.42969 18.9766 8.19531 18.1641 7.33594C17.3516 6.46094 15.9766 6.02344 14.0391 6.02344C12.5547 6.02344 11.3672 6.23438 10.4766 6.65625C9.58594 7.07812 8.9375 7.78125 8.53125 8.76562C8.14062 9.73438 7.94531 11.0625 7.94531 12.75H0.796875C0.796875 8.625 1.78125 5.60156 3.75 3.67969C5.73438 1.74219 9.0625 0.773438 13.7344 0.773438C16.7031 0.773438 19.0938 1.23438 20.9062 2.15625C22.7188 3.0625 24.0391 4.28906 24.8672 5.83594C25.7109 7.36719 26.1328 9.08594 26.1328 10.9922C26.1328 12.6797 25.8594 14.2188 25.3125 15.6094C24.7656 16.9844 23.9609 18.3047 22.8984 19.5703C21.8359 20.8359 20.5156 22.1406 18.9375 23.4844L9.46875 31.5938L9.21094 30.6797H25.5469V36H2.74219ZM47.1328 36.6328C45.2578 36.6328 43.5938 36.4141 42.1406 35.9766C40.6875 35.5234 39.4297 34.9062 38.3672 34.125C37.3203 33.3281 36.4609 32.4062 35.7891 31.3594C35.1172 30.3125 34.6172 29.1953 34.2891 28.0078C33.9609 26.8047 33.7969 25.5781 33.7969 24.3281V13.2422C33.7969 11.9609 33.9531 10.7188 34.2656 9.51562C34.5781 8.29688 35.0703 7.16406 35.7422 6.11719C36.4141 5.05469 37.2734 4.125 38.3203 3.32812C39.3672 2.53125 40.6172 1.90625 42.0703 1.45312C43.5391 1 45.2266 0.773438 47.1328 0.773438C49.0078 0.773438 50.6562 1 52.0781 1.45312C53.5 1.90625 54.7188 2.53906 55.7344 3.35156C56.75 4.16406 57.5703 5.10156 58.1953 6.16406C58.8359 7.22656 59.3047 8.36719 59.6016 9.58594C59.8984 10.8047 60.0469 12.0547 60.0469 13.3359V24.2344C60.0469 25.4688 59.8906 26.6875 59.5781 27.8906C59.2656 29.0938 58.7812 30.2188 58.125 31.2656C57.4844 32.3125 56.6562 33.2422 55.6406 34.0547C54.625 34.8516 53.4141 35.4844 52.0078 35.9531C50.6016 36.4062 48.9766 36.6328 47.1328 36.6328ZM47.1328 31.3594C48.3828 31.3594 49.4062 31.1484 50.2031 30.7266C51 30.2891 51.625 29.7266 52.0781 29.0391C52.5312 28.3516 52.8438 27.6016 53.0156 26.7891C53.2031 25.9766 53.2969 25.1953 53.2969 24.4453V13.0547C53.2969 12.2891 53.2109 11.5 53.0391 10.6875C52.8672 9.875 52.5625 9.11719 52.125 8.41406C51.6875 7.71094 51.0625 7.14844 50.25 6.72656C49.4531 6.28906 48.4141 6.07031 47.1328 6.07031C45.8516 6.07031 44.7969 6.28906 43.9688 6.72656C43.1406 7.14844 42.5 7.71094 42.0469 8.41406C41.5938 9.11719 41.2734 9.875 41.0859 10.6875C40.9141 11.5 40.8281 12.2891 40.8281 13.0547V24.4453C40.8281 25.1953 40.9219 25.9766 41.1094 26.7891C41.3125 27.6016 41.6484 28.3516 42.1172 29.0391C42.6016 29.7266 43.25 30.2891 44.0625 30.7266C44.875 31.1484 45.8984 31.3594 47.1328 31.3594ZM2.74219 84L1.89844 78.7031L14.7188 67.1484C15.9375 66.0547 16.8828 65.0859 17.5547 64.2422C18.2266 63.3984 18.6953 62.5703 18.9609 61.7578C19.2422 60.9297 19.3828 60.0234 19.3828 59.0391C19.3828 57.4297 18.9766 56.1953 18.1641 55.3359C17.3516 54.4609 15.9766 54.0234 14.0391 54.0234C12.5547 54.0234 11.3672 54.2344 10.4766 54.6562C9.58594 55.0781 8.9375 55.7812 8.53125 56.7656C8.14062 57.7344 7.94531 59.0625 7.94531 60.75H0.796875C0.796875 56.625 1.78125 53.6016 3.75 51.6797C5.73438 49.7422 9.0625 48.7734 13.7344 48.7734C16.7031 48.7734 19.0938 49.2344 20.9062 50.1562C22.7188 51.0625 24.0391 52.2891 24.8672 53.8359C25.7109 55.3672 26.1328 57.0859 26.1328 58.9922C26.1328 60.6797 25.8594 62.2188 25.3125 63.6094C24.7656 64.9844 23.9609 66.3047 22.8984 67.5703C21.8359 68.8359 20.5156 70.1406 18.9375 71.4844L9.46875 79.5938L9.21094 78.6797H25.5469V84H2.74219ZM49.9453 84V77.3906H34.2656V71.5547L44.7891 49.4062H51.9375L41.4141 72.5859L40.8047 71.625H49.9453V63.7969H55.5V71.625H61.125V77.3906H55.5V84H49.9453Z" fill="#F2873F"/>
</svg>
