<svg width="76" height="63" viewBox="0 0 76 63" fill="none" xmlns="http://www.w3.org/2000/svg">
<path d="M22.3634 32.7955L24.3071 29.2517C25.8961 26.3544 30.1139 26.5244 31.4647 29.5401L33.2423 33.5086C33.9083 34.9957 33.6059 36.7381 32.4776 37.9136L30.5627 39.9086C28.8517 41.6913 25.9497 41.5117 24.4716 39.5316L22.6652 37.1119C21.7279 35.8564 21.6099 34.1692 22.3634 32.7955Z" stroke="#F2873F" stroke-width="4"/>
<path d="M43.5118 32.7955L45.4555 29.2517C47.0446 26.3544 51.2623 26.5244 52.6131 29.5401L54.3907 33.5086C55.0568 34.9957 54.7543 36.7381 53.626 37.9136L51.7112 39.9086C50.0001 41.6913 47.0981 41.5117 45.62 39.5316L43.8136 37.1119C42.8763 35.8564 42.7584 34.1692 43.5118 32.7955Z" stroke="#F2873F" stroke-width="4"/>
<path d="M14.9585 46.9854C32.8074 57.9114 42.6137 56.7402 59.8989 46.9854" stroke="#F2873F" stroke-width="4"/>
<path d="M17.6021 15.7715C24.3528 9.37734 37.5147 7.43645 47.5623 9.94872C51.9416 11.0437 55.7292 12.9846 58.1365 15.7715" stroke="#F2873F" stroke-width="4"/>
<path d="M28.1762 10.2625C28.5231 8.43835 28.2634 6.5066 27.9382 5.08229C27.6707 3.91124 26.3662 3.42726 25.313 4.0048L11.2039 11.7415C10.7837 11.9719 10.4633 12.3371 10.2991 12.7874C8.64721 17.3181 -0.428295 42.8525 2.62182 48.8215C5.97234 55.3785 17.0969 59.2858 20.2455 60.7565C23.3856 62.2231 26.4137 52.4938 26.4137 52.4938" stroke="#F2873F" stroke-width="4"/>
<path d="M47.7274 9.43996C47.3784 7.58743 47.6412 5.62538 47.9687 4.18153C48.2358 3.00453 49.5478 2.51807 50.6037 3.10253L64.7652 10.9407C65.184 11.1725 65.5022 11.5369 65.6649 11.9871C67.3126 16.5477 76.4369 42.4486 73.3735 48.4998C70.011 55.1419 58.8464 59.1 55.6865 60.5897C52.5351 62.0754 50.2056 52.4939 50.2056 52.4939" stroke="#F2873F" stroke-width="4"/>
</svg>
