<svg width="40" height="68" viewBox="0 0 40 68" fill="none" xmlns="http://www.w3.org/2000/svg">
<path d="M2 38.7858V26.5112C2 25.9589 2.44772 25.5112 3 25.5112H10.9997V13.5742C10.9997 13.1372 11.057 12.7021 11.1701 12.2801L11.7906 9.96417C11.8625 9.69578 11.9896 9.44532 12.1637 9.22876L14.5099 6.31004C14.5696 6.23573 14.6346 6.16578 14.7043 6.10074L17.2995 3.67937L19.7569 2.15086C19.9154 2.05226 20.0984 2 20.285 2H36.9988C37.5511 2 37.9988 2.44771 37.9988 3V11.0762C37.9988 11.6285 37.5511 12.0762 36.9988 12.0762H27.4848C27.2981 12.0762 27.1152 12.1285 26.9566 12.2271L24.9711 13.4621C24.6777 13.6446 24.4993 13.9657 24.4993 14.3113V25.3509C24.4993 25.9032 24.947 26.3509 25.4993 26.3509H35.1605C36.5436 26.3509 37.5092 27.7212 37.0439 29.0238L33.9731 37.619C33.6888 38.4149 32.9348 38.9462 32.0897 38.9462H24.4993V65.8161H10.9997V39.7858H3C2.44772 39.7858 2 39.3381 2 38.7858Z" stroke="#F28E46" stroke-width="4"/>
</svg>
