<?xml version="1.0" encoding="utf-8"?>
<!-- Generator: Adobe Illustrator 26.5.0, SVG Export Plug-In . SVG Version: 6.00 Build 0)  -->
<svg version="1.1" id="Layer_1" xmlns="http://www.w3.org/2000/svg" xmlns:xlink="http://www.w3.org/1999/xlink" x="0px" y="0px"
	 viewBox="0 0 18 18" style="enable-background:new 0 0 18 18;" xml:space="preserve">
<style type="text/css">
	.st0{fill:#696969;}
</style>
<path class="st0" d="M9,0C4,0,0,4,0,9s4,9,9,9s9-4,9-9S14,0,9,0z M8.9,12.6c-0.4,0.2-0.8,0.3-1.2,0.4c-0.5,0.1-0.9,0.1-1.4,0.1
	c-0.8,0-1.5-0.1-2.1-0.5c-0.6-0.3-1-0.7-1.3-1.3c-0.3-0.5-0.4-1.2-0.4-1.9C2.5,8.6,2.6,8,3,7.5s0.8-1,1.3-1.3C4.8,6,5.5,5.8,6.4,5.8
	c0.5,0,1,0.1,1.4,0.2c0.4,0.1,0.8,0.3,1.1,0.5L8.3,8C8,7.8,7.7,7.6,7.4,7.5c-0.3-0.1-0.7-0.1-1-0.1C5.7,7.4,5.2,7.6,4.9,8
	C4.5,8.3,4.4,8.8,4.4,9.5s0.2,1.2,0.5,1.5c0.3,0.4,0.8,0.5,1.5,0.5c0.3,0,0.7,0,1-0.1v-1.1H6V9h2.9V12.6z M15,7.4h-3v1.4h2.9v1.4H12
	V13h-1.8V6H15V7.4z"/>
</svg>
