<svg width="63" height="65" viewBox="0 0 63 65" fill="none" xmlns="http://www.w3.org/2000/svg">
<path d="M2 57.5435V7C2 4.23858 4.23858 2 7 2H31.4536H55.9072C58.6686 2 60.9072 4.23858 60.9072 7V57.5435C60.9072 60.3049 58.6686 62.5435 55.9072 62.5435H7C4.23858 62.5435 2 60.3049 2 57.5435Z" stroke="#F2873F" stroke-width="4"/>
<path d="M29.5127 19.5259H34.9861C40.5089 19.5259 44.9861 24.003 44.9861 29.5259V36.6111C44.9861 42.134 40.5089 46.6111 34.9861 46.6111H29.5127C23.9898 46.6111 19.5127 42.134 19.5127 36.6111V29.5259C19.5127 24.003 23.9898 19.5259 29.5127 19.5259Z" stroke="#F2873F" stroke-width="4"/>
<path d="M50.5587 13.1528C50.9984 13.1528 51.3548 13.5098 51.3548 13.9495C51.3548 14.3891 50.9984 14.7461 50.5587 14.7461C50.1191 14.7461 49.7627 14.3891 49.7627 13.9495C49.7627 13.5098 50.1191 13.1528 50.5587 13.1528Z" fill="#E6E6EA" stroke="#F2873F" stroke-width="4"/>
</svg>
