<svg width="74" height="60" viewBox="0 0 74 60" fill="none" xmlns="http://www.w3.org/2000/svg">
<path d="M15.9912 19.3858H3.06608C2.5138 19.3858 2.06608 19.8335 2.06608 20.3858V56.6345C2.06608 57.1868 2.5138 57.6345 3.06608 57.6345H15.9912C16.5435 57.6345 16.9912 57.1868 16.9912 56.6345V20.3858C16.9912 19.8335 16.5435 19.3858 15.9912 19.3858Z" stroke="#F2873F" stroke-width="4"/>
<path d="M2.90092 7.40429L8.17707 3.10208C8.95158 2.47055 10.0734 2.50763 10.8045 3.18894L15.6199 7.6764C16.3912 8.39518 16.4596 9.57732 15.7235 10.3321C14.7339 11.3466 13.1292 12.8916 10.7861 14.8665C10.0601 15.4783 9.00054 15.478 8.26475 14.878L2.90092 10.5043C1.91945 9.70404 1.91945 8.20459 2.90092 7.40429Z" stroke="#F2873F" stroke-width="4"/>
<path d="M41.2573 57.6345H30.8236H30.7842C30.2319 57.6345 29.7842 57.1867 29.7842 56.6345V33.8688C29.7842 32.451 30.0721 31.0403 30.7067 29.7725C34.9751 21.2439 39.9853 17.8955 51.6122 17.8955C64.2183 18.7014 68.0535 22.9976 70.7861 30.1345C71.1847 31.1754 71.3613 32.2868 71.3613 33.4014V56.6345C71.3613 57.1867 70.9136 57.6345 70.3613 57.6345H59.8882C59.3359 57.6345 58.8882 57.1867 58.8882 56.6345V36.2675C58.8882 35.5466 58.7435 34.8277 58.4056 34.1908C57.0419 31.6202 55.2043 29.99 50.5728 29.99C46.2923 29.99 44.6179 30.7674 43.1754 33.2973C42.4933 34.4937 42.2573 35.8842 42.2573 37.2615V56.6345C42.2573 57.1867 41.8096 57.6345 41.2573 57.6345Z" stroke="#F2873F" stroke-width="4"/>
</svg>
