<svg width="68" height="57" viewBox="0 0 68 57" fill="none" xmlns="http://www.w3.org/2000/svg">
<path d="M60.0855 15.3727C57.1723 49.8228 32.7803 62.3553 6 49.3086C6.54132 49.1806 22.9529 43.4753 21.338 42.995C19.7231 42.5147 11.0018 35.0103 8.42172 28C4.83666 18.259 10.0366 8.26984 10.0366 8.26984C10.0366 8.26984 27.5467 21.987 32.6394 20.108C37.732 18.229 34.2538 5.90221 43.9407 2.74537C51.6578 0.230462 55.2763 4.72782 56.4289 6.66087C56.6971 7.11082 57.242 7.35502 57.7401 7.1927L64.0434 5.13852C64.9176 4.85364 65.6806 5.80014 65.2166 6.59392L60.0855 15.3727Z" stroke="#F2873F" stroke-width="4"/>
</svg>
