<?xml version="1.0" encoding="utf-8"?>
<!-- Generator: Adobe Illustrator 26.5.0, SVG Export Plug-In . SVG Version: 6.00 Build 0)  -->
<svg version="1.1" id="Layer_1" xmlns="http://www.w3.org/2000/svg" xmlns:xlink="http://www.w3.org/1999/xlink" x="0px" y="0px"
	 viewBox="0 0 17 17" style="enable-background:new 0 0 17 17;" xml:space="preserve">
<style type="text/css">
	.st0{fill:#D9D9D9;filter:url(#Adobe_OpacityMaskFilter);}
	.st1{mask:url(#mask0_7942_9406_00000176014983544148507480000017618745904317129644_);}
	.st2{fill:#696969;}
</style>
<defs>
	<filter id="Adobe_OpacityMaskFilter" filterUnits="userSpaceOnUse" x="1.4" y="2.8" width="14.2" height="11.3">
		<feColorMatrix  type="matrix" values="1 0 0 0 0  0 1 0 0 0  0 0 1 0 0  0 0 0 1 0"/>
	</filter>
</defs>
<mask maskUnits="userSpaceOnUse" x="1.4" y="2.8" width="14.2" height="11.3" id="mask0_7942_9406_00000176014983544148507480000017618745904317129644_">
	<rect class="st0" width="17" height="17"/>
</mask>
<g class="st1">
	<path class="st2" d="M1.4,14.2v-1.4h4.1c-0.3-1-0.8-1.9-1.5-2.6C3.3,9.4,2.4,8.9,1.4,8.7c0.2-0.1,0.5-0.1,0.7-0.1
		c0.2,0,0.5,0,0.7,0c1.6,0,2.9,0.5,4,1.6c1.1,1.1,1.6,2.4,1.6,4H1.4z M9.9,14.2c0-0.5-0.1-1-0.2-1.5c-0.1-0.5-0.3-1-0.5-1.4
		c0.5-0.8,1.2-1.5,2-2c0.9-0.5,1.8-0.8,2.8-0.8c0.2,0,0.5,0,0.7,0c0.2,0,0.5,0.1,0.7,0.1c-1,0.3-1.9,0.8-2.6,1.5
		c-0.7,0.7-1.2,1.6-1.5,2.6h4.1v1.4H9.9z M8.5,9.9c0-0.8,0.1-1.5,0.4-2.2C9.2,7.1,9.6,6.5,10.1,6c0.5-0.5,1.1-0.9,1.7-1.2
		c0.7-0.3,1.4-0.5,2.1-0.5c-0.7,0.4-1.2,0.9-1.7,1.5c-0.5,0.6-0.9,1.3-1.2,2c-0.5,0.2-1,0.6-1.4,0.9C9.2,9.1,8.8,9.5,8.5,9.9z
		 M7.2,8.6C7.1,8.5,6.9,8.4,6.8,8.3C6.6,8.2,6.5,8.1,6.3,8c0-0.1,0-0.1,0-0.2c0-0.1,0-0.2,0-0.2c0-0.9-0.1-1.7-0.4-2.6
		C5.7,4.2,5.3,3.5,4.7,2.8c0.8,0.3,1.5,0.8,2,1.4c0.6,0.6,1,1.3,1.3,2.1C7.9,6.6,7.7,7,7.5,7.4C7.4,7.8,7.3,8.2,7.2,8.6z"/>
</g>
</svg>
