<?xml version="1.0" encoding="utf-8"?>
<!-- Generator: Adobe Illustrator 26.5.0, SVG Export Plug-In . SVG Version: 6.00 Build 0)  -->
<svg version="1.1" id="Layer_1" xmlns="http://www.w3.org/2000/svg" xmlns:xlink="http://www.w3.org/1999/xlink" x="0px" y="0px"
	 viewBox="0 0 17 17" style="enable-background:new 0 0 17 17;" xml:space="preserve">
<style type="text/css">
	.st0{fill:#D9D9D9;filter:url(#Adobe_OpacityMaskFilter);}
	.st1{mask:url(#mask0_7942_9403_00000065073988956999247680000000087887704617414022_);}
	.st2{fill:#696969;}
</style>
<defs>
	<filter id="Adobe_OpacityMaskFilter" filterUnits="userSpaceOnUse" x="2.1" y="2.1" width="12.8" height="12.8">
		<feColorMatrix  type="matrix" values="1 0 0 0 0  0 1 0 0 0  0 0 1 0 0  0 0 0 1 0"/>
	</filter>
</defs>
<mask maskUnits="userSpaceOnUse" x="2.1" y="2.1" width="12.8" height="12.8" id="mask0_7942_9403_00000065073988956999247680000000087887704617414022_">
	<rect class="st0" width="17" height="17"/>
</mask>
<g class="st1">
	<path class="st2" d="M7.8,14.9V9.2C7,9.2,6.3,9.1,5.6,8.8C4.9,8.5,4.3,8.1,3.8,7.6S2.8,6.4,2.5,5.7S2.1,4.3,2.1,3.5V2.1h1.4
		c0.7,0,1.5,0.1,2.2,0.4C6.4,2.8,7,3.3,7.5,3.8C7.9,4.2,8.2,4.6,8.5,5C8.7,5.4,8.9,5.9,9,6.4c0.1-0.1,0.1-0.2,0.2-0.2
		C9.3,6.1,9.4,6,9.4,5.9C10,5.4,10.6,5,11.3,4.7c0.7-0.3,1.4-0.4,2.2-0.4h1.4v1.4c0,0.8-0.1,1.5-0.4,2.2c-0.3,0.7-0.7,1.3-1.2,1.8
		c-0.5,0.5-1.1,0.9-1.8,1.2c-0.7,0.3-1.4,0.4-2.2,0.4v3.5H7.8z M7.8,7.8c0-0.6-0.1-1.1-0.3-1.6c-0.2-0.5-0.5-1-0.9-1.4
		C6.1,4.4,5.7,4.1,5.2,3.9C4.6,3.7,4.1,3.5,3.5,3.5c0,0.6,0.1,1.1,0.3,1.6c0.2,0.5,0.5,1,0.9,1.4s0.9,0.7,1.4,0.9S7.2,7.8,7.8,7.8z
		 M9.2,9.9c0.6,0,1.1-0.1,1.6-0.3c0.5-0.2,1-0.5,1.4-0.9c0.4-0.4,0.7-0.9,0.9-1.4c0.2-0.5,0.3-1.1,0.3-1.6c-0.6,0-1.1,0.1-1.6,0.3
		c-0.5,0.2-1,0.5-1.4,0.9C10,7.3,9.7,7.8,9.5,8.3C9.3,8.8,9.2,9.4,9.2,9.9z"/>
</g>
</svg>
