<svg width="523" height="70" viewBox="0 0 523 70" fill="none" xmlns="http://www.w3.org/2000/svg">
<path d="M14.4904 63.336C14.4904 67.624 12.2504 69.768 7.77038 69.768C5.59438 69.768 3.86638 69.224 2.58638 68.136C1.30638 67.048 0.666375 65.448 0.666375 63.336V25.608C0.666375 19.592 1.46638 14.792 3.06638 11.208C4.66638 7.56 7.29038 4.904 10.9384 3.23999C14.5864 1.576 19.4504 0.743998 25.5304 0.743998C33.5944 0.743998 39.6744 2.632 43.7704 6.408C47.9304 10.12 50.0104 16.52 50.0104 25.608V63.336C50.0104 67.624 47.7704 69.768 43.2904 69.768C41.1144 69.768 39.3864 69.224 38.1064 68.136C36.8264 67.048 36.1864 65.448 36.1864 63.336V25.608C36.1864 20.872 35.3544 17.512 33.6904 15.528C32.0904 13.48 29.3704 12.456 25.5304 12.456C22.5224 12.456 20.2184 12.904 18.6184 13.8C17.0184 14.696 15.9304 16.104 15.3544 18.024C14.7784 19.944 14.4904 22.472 14.4904 25.608V63.336ZM67.3414 69C66.1254 69 65.1014 68.52 64.2694 67.56C63.4374 66.6 63.0214 65.384 63.0214 63.912V18.984C63.0214 12.968 64.8774 8.616 68.5894 5.928C72.3014 3.176 78.2854 1.8 86.5414 1.8H98.5414C100.653 1.8 102.285 2.376 103.437 3.528C104.653 4.616 105.261 6.184 105.261 8.232C105.261 10.216 104.653 11.752 103.437 12.84C102.285 13.928 100.653 14.472 98.5414 14.472H85.8694C82.6694 14.472 80.3654 15.112 78.9574 16.392C77.5494 17.672 76.8454 19.752 76.8454 22.632C76.8454 23.656 76.7814 24.936 76.6534 26.472C76.5254 27.944 76.3334 29.64 76.0774 31.56C77.1654 30.664 78.5414 29.96 80.2054 29.448C81.8694 28.872 83.5014 28.584 85.1014 28.584H94.6054C96.3974 28.584 97.7734 29.128 98.7334 30.216C99.7574 31.304 100.269 32.808 100.269 34.728C100.269 36.648 99.7574 38.184 98.7334 39.336C97.7094 40.488 96.3334 41.064 94.6054 41.064H84.3334C81.3894 41.064 79.4054 41.672 78.3814 42.888C77.3574 44.04 76.8454 46.408 76.8454 49.992V56.328H98.5414C100.909 56.328 102.605 56.84 103.629 57.864C104.717 58.888 105.261 60.552 105.261 62.856C105.261 65.032 104.749 66.6 103.725 67.56C102.701 68.52 100.973 69 98.5414 69H67.3414ZM121.584 69.672C119.728 69.672 118.064 69.096 116.592 67.944C115.184 66.728 114.48 65.384 114.48 63.912C114.48 62.76 114.96 61.096 115.92 58.92C116.88 56.744 118.224 54.248 119.952 51.432C121.68 48.616 123.632 45.672 125.808 42.6C128.048 39.464 130.416 36.392 132.912 33.384L116.592 11.784C115.632 10.504 115.152 9.09599 115.152 7.56C115.152 5.576 115.792 3.944 117.072 2.664C118.416 1.384 120.08 0.743998 122.064 0.743998C124.688 0.743998 126.896 1.896 128.688 4.2L144.144 24.36C145.296 22.824 146.608 21 148.08 18.888C149.552 16.776 151.024 14.6 152.496 12.36C153.968 10.12 155.28 8.008 156.432 6.024C158.416 2.568 160.592 0.839996 162.96 0.839996C165.008 0.839996 166.64 1.384 167.856 2.472C169.136 3.496 169.776 4.904 169.776 6.696C169.776 7.848 169.52 9.096 169.008 10.44C168.048 13.128 166.096 16.488 163.152 20.52C160.208 24.552 156.4 29.16 151.728 34.344L170.256 58.536C170.832 59.24 171.216 59.944 171.408 60.648C171.664 61.352 171.792 62.12 171.792 62.952C171.792 64.872 171.12 66.504 169.776 67.848C168.496 69.128 166.928 69.768 165.072 69.768C161.936 69.768 159.312 68.36 157.2 65.544L140.976 44.04C139.312 46.472 137.84 48.712 136.56 50.76C135.28 52.744 133.936 54.888 132.528 57.192C131.12 59.432 129.456 62.152 127.536 65.352C126.512 66.952 125.584 68.072 124.752 68.712C123.92 69.352 122.864 69.672 121.584 69.672ZM200.547 69.768C198.947 69.768 197.315 69.416 195.651 68.712C194.051 67.944 193.251 66.728 193.251 65.064V20.136C193.251 18.088 193.763 16.68 194.787 15.912C195.811 15.144 196.643 14.664 197.283 14.472H178.755C177.219 14.472 176.067 13.8 175.299 12.456C174.595 11.048 174.243 9.608 174.243 8.136C174.243 6.536 174.627 5.096 175.395 3.816C176.163 2.472 177.283 1.8 178.755 1.8H221.667C223.139 1.8 224.259 2.472 225.027 3.816C225.795 5.096 226.179 6.536 226.179 8.136C226.179 9.608 225.795 11.048 225.027 12.456C224.323 13.8 223.203 14.472 221.667 14.472H207.075V65.064C207.075 66.664 206.403 67.848 205.059 68.616C203.779 69.384 202.275 69.768 200.547 69.768ZM270.301 69.768C267.869 69.768 265.309 69.576 262.621 69.192C259.933 68.808 257.757 68.296 256.093 67.656C253.405 66.568 252.061 64.744 252.061 62.184C252.061 60.328 252.605 58.856 253.693 57.768C254.845 56.616 256.637 56.04 259.069 56.04C260.733 56.04 262.749 56.264 265.117 56.712C267.485 57.16 269.565 57.384 271.357 57.384C275.325 57.384 278.173 56.872 279.901 55.848C281.629 54.824 282.493 52.744 282.493 49.608C282.493 47.752 281.821 46.184 280.477 44.904C279.197 43.624 276.605 42.408 272.701 41.256C265.597 39.144 260.445 36.52 257.245 33.384C254.109 30.248 252.541 26.184 252.541 21.192C252.541 16.84 253.501 13.16 255.421 10.152C257.405 7.08 260.125 4.744 263.581 3.144C267.037 1.544 270.973 0.743998 275.389 0.743998C280.573 0.743998 284.861 1.448 288.253 2.856C290.941 3.88 292.285 5.704 292.285 8.328C292.285 10.184 291.709 11.688 290.557 12.84C289.469 13.928 287.709 14.472 285.277 14.472C283.677 14.472 281.949 14.312 280.093 13.992C278.237 13.608 276.413 13.416 274.621 13.416C271.869 13.416 269.789 13.896 268.381 14.856C266.973 15.816 266.269 17.416 266.269 19.656C266.269 21.704 267.261 23.56 269.245 25.224C271.229 26.888 274.877 28.52 280.189 30.12C286.269 31.912 290.461 34.344 292.765 37.416C295.069 40.424 296.221 44.264 296.221 48.936C296.221 55.72 293.949 60.904 289.405 64.488C284.925 68.008 278.557 69.768 270.301 69.768ZM323.641 69.768C322.041 69.768 320.409 69.416 318.745 68.712C317.145 67.944 316.345 66.728 316.345 65.064V20.136C316.345 18.088 316.857 16.68 317.881 15.912C318.905 15.144 319.737 14.664 320.377 14.472H301.849C300.313 14.472 299.161 13.8 298.393 12.456C297.689 11.048 297.337 9.608 297.337 8.136C297.337 6.536 297.721 5.096 298.489 3.816C299.257 2.472 300.377 1.8 301.849 1.8H344.761C346.233 1.8 347.353 2.472 348.121 3.816C348.889 5.096 349.273 6.536 349.273 8.136C349.273 9.608 348.889 11.048 348.121 12.456C347.417 13.8 346.297 14.472 344.761 14.472H330.169V65.064C330.169 66.664 329.497 67.848 328.153 68.616C326.873 69.384 325.369 69.768 323.641 69.768ZM356.841 69C355.625 69 354.601 68.52 353.769 67.56C352.937 66.6 352.521 65.384 352.521 63.912V18.984C352.521 12.968 354.377 8.616 358.089 5.928C361.801 3.176 367.785 1.8 376.041 1.8H388.041C390.153 1.8 391.785 2.376 392.937 3.528C394.153 4.616 394.761 6.184 394.761 8.232C394.761 10.216 394.153 11.752 392.937 12.84C391.785 13.928 390.153 14.472 388.041 14.472H375.369C372.169 14.472 369.865 15.112 368.457 16.392C367.049 17.672 366.345 19.752 366.345 22.632C366.345 23.656 366.281 24.936 366.153 26.472C366.025 27.944 365.833 29.64 365.577 31.56C366.665 30.664 368.041 29.96 369.705 29.448C371.369 28.872 373.001 28.584 374.601 28.584H384.105C385.897 28.584 387.273 29.128 388.233 30.216C389.257 31.304 389.769 32.808 389.769 34.728C389.769 36.648 389.257 38.184 388.233 39.336C387.209 40.488 385.833 41.064 384.105 41.064H373.833C370.889 41.064 368.905 41.672 367.881 42.888C366.857 44.04 366.345 46.408 366.345 49.992V56.328H388.041C390.409 56.328 392.105 56.84 393.129 57.864C394.217 58.888 394.761 60.552 394.761 62.856C394.761 65.032 394.249 66.6 393.225 67.56C392.201 68.52 390.473 69 388.041 69H356.841ZM418.084 63.336C418.084 67.624 415.844 69.768 411.364 69.768C409.188 69.768 407.46 69.224 406.18 68.136C404.9 67.048 404.26 65.448 404.26 63.336V22.344C404.26 15.176 406.148 9.8 409.924 6.216C413.7 2.568 420.036 0.743998 428.932 0.743998C435.524 0.743998 440.676 2.504 444.388 6.024C448.164 9.544 450.052 15.208 450.052 23.016C450.052 29.8 448.26 34.984 444.676 38.568C441.156 42.152 436.164 43.944 429.7 43.944C426.052 43.944 423.396 44.232 421.732 44.808C420.132 45.32 419.108 46.312 418.66 47.784C418.276 49.192 418.084 51.272 418.084 54.024V63.336ZM417.22 35.592C417.988 34.952 418.724 34.408 419.428 33.96C420.132 33.448 421.06 33.064 422.212 32.808C423.428 32.488 425.028 32.328 427.012 32.328C429.764 32.328 431.94 32.104 433.54 31.656C435.14 31.144 436.26 30.216 436.9 28.872C437.604 27.528 437.956 25.576 437.956 23.016C437.956 19.624 437.54 17.16 436.708 15.624C435.94 14.024 434.82 13 433.348 12.552C431.94 12.04 430.212 11.784 428.164 11.784C424.452 11.784 421.828 12.456 420.292 13.8C418.82 15.144 418.084 17.48 418.084 20.808C418.084 23.176 418.02 25.768 417.892 28.584C417.764 31.4 417.54 33.736 417.22 35.592ZM474.582 69.768C472.15 69.768 469.59 69.576 466.902 69.192C464.214 68.808 462.038 68.296 460.374 67.656C457.686 66.568 456.342 64.744 456.342 62.184C456.342 60.328 456.886 58.856 457.974 57.768C459.126 56.616 460.918 56.04 463.35 56.04C465.014 56.04 467.03 56.264 469.398 56.712C471.766 57.16 473.846 57.384 475.638 57.384C479.606 57.384 482.454 56.872 484.182 55.848C485.91 54.824 486.774 52.744 486.774 49.608C486.774 47.752 486.102 46.184 484.758 44.904C483.478 43.624 480.886 42.408 476.982 41.256C469.878 39.144 464.726 36.52 461.526 33.384C458.39 30.248 456.822 26.184 456.822 21.192C456.822 16.84 457.782 13.16 459.702 10.152C461.686 7.08 464.406 4.744 467.862 3.144C471.318 1.544 475.254 0.743998 479.67 0.743998C484.854 0.743998 489.142 1.448 492.534 2.856C495.222 3.88 496.566 5.704 496.566 8.328C496.566 10.184 495.99 11.688 494.838 12.84C493.75 13.928 491.99 14.472 489.558 14.472C487.958 14.472 486.23 14.312 484.374 13.992C482.518 13.608 480.694 13.416 478.902 13.416C476.15 13.416 474.07 13.896 472.662 14.856C471.254 15.816 470.55 17.416 470.55 19.656C470.55 21.704 471.542 23.56 473.526 25.224C475.51 26.888 479.158 28.52 484.47 30.12C490.55 31.912 494.742 34.344 497.046 37.416C499.35 40.424 500.502 44.264 500.502 48.936C500.502 55.72 498.23 60.904 493.686 64.488C489.206 68.008 482.838 69.768 474.582 69.768ZM514.672 38.472C512.368 38.472 510.512 37.768 509.104 36.36C507.76 34.952 507.088 33.16 507.088 30.984C507.088 28.744 507.76 26.92 509.104 25.512C510.512 24.104 512.368 23.4 514.672 23.4C516.912 23.4 518.736 24.104 520.144 25.512C521.552 26.92 522.256 28.744 522.256 30.984C522.256 33.16 521.552 34.952 520.144 36.36C518.736 37.768 516.912 38.472 514.672 38.472ZM514.672 66.888C512.368 66.888 510.512 66.184 509.104 64.776C507.76 63.368 507.088 61.576 507.088 59.4C507.088 57.16 507.76 55.336 509.104 53.928C510.512 52.52 512.368 51.816 514.672 51.816C516.912 51.816 518.736 52.52 520.144 53.928C521.552 55.336 522.256 57.16 522.256 59.4C522.256 61.576 521.552 63.368 520.144 64.776C518.736 66.184 516.912 66.888 514.672 66.888Z" fill="#E6E9FF"/>
</svg>
