<svg width="1188" height="103" viewBox="0 0 1188 103" fill="none" xmlns="http://www.w3.org/2000/svg">
<path d="M0.355469 1.75781H3.34375L20.0234 25.0586L19.5156 25.2148V1.75781H22.9727V30H19.4766L3.30469 7.73438L3.8125 7.55859V30H0.355469V1.75781ZM42.5039 30.4297C40.1471 30.4297 38.207 30.1888 36.6836 29.707C35.1732 29.2253 33.9948 28.5482 33.1484 27.6758C32.3021 26.7904 31.7096 25.7422 31.3711 24.5312C31.0326 23.3203 30.8633 21.9792 30.8633 20.5078V11.6211C30.8633 10.1237 31.026 8.75 31.3516 7.5C31.6901 6.25 32.2826 5.16276 33.1289 4.23828C33.9753 3.3138 35.1536 2.59766 36.6641 2.08984C38.1875 1.58203 40.1341 1.32812 42.5039 1.32812C44.7826 1.32812 46.6576 1.59505 48.1289 2.12891C49.6003 2.66276 50.7461 3.41146 51.5664 4.375C52.3867 5.32552 52.9596 6.4388 53.2852 7.71484C53.6237 8.99089 53.793 10.3776 53.793 11.875V20.2344C53.793 21.6797 53.6237 23.0273 53.2852 24.2773C52.9596 25.5143 52.3802 26.5951 51.5469 27.5195C50.7266 28.431 49.5807 29.1471 48.1094 29.668C46.638 30.1758 44.7695 30.4297 42.5039 30.4297ZM42.5039 27.2656C44.1836 27.2656 45.5638 27.1029 46.6445 26.7773C47.7383 26.4388 48.5456 25.8268 49.0664 24.9414C49.6003 24.056 49.8672 22.7799 49.8672 21.1133V10.8984C49.8672 9.21875 49.6003 7.91667 49.0664 6.99219C48.5326 6.06771 47.7188 5.42318 46.625 5.05859C45.5443 4.68099 44.1706 4.49219 42.5039 4.49219C40.8503 4.49219 39.4505 4.68099 38.3047 5.05859C37.1589 5.42318 36.2865 6.06771 35.6875 6.99219C35.1016 7.91667 34.8086 9.21875 34.8086 10.8984V21.1133C34.8086 22.7799 35.1016 24.056 35.6875 24.9414C36.2734 25.8268 37.1393 26.4388 38.2852 26.7773C39.431 27.1029 40.8372 27.2656 42.5039 27.2656ZM67.2109 30V4.98047H59.0664V1.75781H79.3008V4.98047H71.1367V30H67.2109ZM85.1992 1.75781H102.836V4.6875H89.125V13.9844H101.234V16.9141H89.125V27.0703H103.07V30H85.1992V1.75781ZM110.473 25.2734H115.473V30H110.473V25.2734ZM110.473 11.2305H115.473V15.957H110.473V11.2305ZM132.66 1.75781H136.254L142.25 23.2422L148.402 1.75781H152.602L159.027 23.2422L164.711 1.75781H168.285L160.59 30H157.621L150.727 5.9375L143.637 30H140.668L132.66 1.75781ZM173.246 22.6953V15.4883C173.246 13.5352 173.917 11.9531 175.258 10.7422C176.599 9.51823 178.754 8.90625 181.723 8.90625C184.561 8.90625 186.651 9.46615 187.992 10.5859C189.333 11.6927 190.004 13.2292 190.004 15.1953V20.1172H176.918V23.0273C176.918 24.707 177.25 25.8919 177.914 26.582C178.591 27.2721 179.906 27.6172 181.859 27.6172C183.018 27.6172 183.93 27.5781 184.594 27.5C185.271 27.4089 185.766 27.1484 186.078 26.7188C186.404 26.276 186.618 25.5339 186.723 24.4922H189.965C189.796 26.1198 189.438 27.3633 188.891 28.2227C188.357 29.069 187.53 29.6484 186.41 29.9609C185.29 30.2734 183.773 30.4297 181.859 30.4297C179.802 30.4297 178.142 30.1432 176.879 29.5703C175.616 28.9974 174.691 28.138 174.105 26.9922C173.533 25.8464 173.246 24.4141 173.246 22.6953ZM186.449 17.6367V14.8047C186.449 13.9714 186.247 13.3333 185.844 12.8906C185.453 12.4479 184.906 12.1419 184.203 11.9727C183.5 11.8034 182.673 11.7188 181.723 11.7188C180.264 11.7188 179.099 11.9727 178.227 12.4805C177.354 12.9883 176.918 13.8802 176.918 15.1562V17.6367H186.449ZM211.664 30.4297C210.141 30.4297 208.897 30.1693 207.934 29.6484C206.983 29.1146 206.28 28.418 205.824 27.5586C205.382 26.6862 205.16 25.7552 205.16 24.7656C205.16 23.724 205.362 22.8516 205.766 22.1484C206.182 21.4323 206.957 20.7878 208.09 20.2148C209.236 19.6289 210.909 19.0169 213.109 18.3789C214.255 18.0404 215.173 17.7409 215.863 17.4805C216.553 17.2201 217.055 16.888 217.367 16.4844C217.68 16.0807 217.836 15.5013 217.836 14.7461C217.836 14.1862 217.745 13.6784 217.562 13.2227C217.393 12.7669 217.035 12.4023 216.488 12.1289C215.954 11.8555 215.134 11.7188 214.027 11.7188C212.647 11.7188 211.638 11.862 211 12.1484C210.362 12.4349 209.952 12.8125 209.77 13.2812C209.6 13.737 209.516 14.2448 209.516 14.8047V15.7227H205.98V14.7852C205.98 12.7409 206.664 11.25 208.031 10.3125C209.398 9.375 211.436 8.90625 214.145 8.90625C215.967 8.90625 217.413 9.19922 218.48 9.78516C219.561 10.3581 220.336 11.1719 220.805 12.2266C221.273 13.2812 221.508 14.5182 221.508 15.9375V24.7656C221.508 25.8594 221.645 26.5625 221.918 26.875C222.204 27.1875 222.79 27.3438 223.676 27.3438L223.246 30.1562H222.504C221.124 30.1562 220.128 29.8893 219.516 29.3555C218.904 28.8086 218.441 28.0469 218.129 27.0703C217.829 27.5391 217.413 28.0339 216.879 28.5547C216.358 29.0755 215.674 29.5182 214.828 29.8828C213.995 30.2474 212.94 30.4297 211.664 30.4297ZM212.113 27.6953C212.855 27.6953 213.63 27.5391 214.438 27.2266C215.245 26.901 215.961 26.4779 216.586 25.957C217.224 25.4232 217.641 24.8372 217.836 24.1992V18.75C217.549 19.0365 217.048 19.4141 216.332 19.8828C215.629 20.3385 214.62 20.7552 213.305 21.1328C211.703 21.5885 210.525 22.0573 209.77 22.5391C209.027 23.0208 208.656 23.724 208.656 24.6484C208.656 25.6901 208.923 26.4583 209.457 26.9531C210.004 27.4479 210.889 27.6953 212.113 27.6953ZM229.105 9.29688H232.777V12.2266C233.077 11.4453 233.617 10.8203 234.398 10.3516C235.193 9.86979 236.091 9.52474 237.094 9.31641C238.096 9.10807 239.053 9.00391 239.965 9.00391L239.848 12.1484C238.962 12.1484 238.096 12.2396 237.25 12.4219C236.417 12.6042 235.661 12.8581 234.984 13.1836C234.307 13.4961 233.767 13.8542 233.363 14.2578C232.973 14.6615 232.777 15.0781 232.777 15.5078V30H229.105V9.29688ZM243.949 22.6953V15.4883C243.949 13.5352 244.62 11.9531 245.961 10.7422C247.302 9.51823 249.457 8.90625 252.426 8.90625C255.264 8.90625 257.354 9.46615 258.695 10.5859C260.036 11.6927 260.707 13.2292 260.707 15.1953V20.1172H247.621V23.0273C247.621 24.707 247.953 25.8919 248.617 26.582C249.294 27.2721 250.609 27.6172 252.562 27.6172C253.721 27.6172 254.633 27.5781 255.297 27.5C255.974 27.4089 256.469 27.1484 256.781 26.7188C257.107 26.276 257.322 25.5339 257.426 24.4922H260.668C260.499 26.1198 260.141 27.3633 259.594 28.2227C259.06 29.069 258.233 29.6484 257.113 29.9609C255.993 30.2734 254.477 30.4297 252.562 30.4297C250.505 30.4297 248.845 30.1432 247.582 29.5703C246.319 28.9974 245.395 28.138 244.809 26.9922C244.236 25.8464 243.949 24.4141 243.949 22.6953ZM257.152 17.6367V14.8047C257.152 13.9714 256.951 13.3333 256.547 12.8906C256.156 12.4479 255.609 12.1419 254.906 11.9727C254.203 11.8034 253.376 11.7188 252.426 11.7188C250.967 11.7188 249.802 11.9727 248.93 12.4805C248.057 12.9883 247.621 13.8802 247.621 15.1562V17.6367H257.152ZM284.75 30.4297C282.68 30.4297 281.013 30.1497 279.75 29.5898C278.5 29.0169 277.589 28.2357 277.016 27.2461C276.456 26.2565 276.176 25.1237 276.176 23.8477V15.5078C276.176 14.2318 276.456 13.099 277.016 12.1094C277.589 11.1068 278.5 10.3255 279.75 9.76562C281.013 9.19271 282.68 8.90625 284.75 8.90625C286.807 8.90625 288.461 9.19271 289.711 9.76562C290.974 10.3255 291.892 11.1068 292.465 12.1094C293.038 13.099 293.324 14.2318 293.324 15.5078V23.8477C293.324 25.1237 293.038 26.2565 292.465 27.2461C291.892 28.2357 290.974 29.0169 289.711 29.5898C288.461 30.1497 286.807 30.4297 284.75 30.4297ZM284.75 27.6172C286.182 27.6172 287.354 27.3633 288.266 26.8555C289.19 26.3346 289.652 25.4362 289.652 24.1602V15.1953C289.652 13.9193 289.19 13.0208 288.266 12.5C287.354 11.9792 286.182 11.7188 284.75 11.7188C283.292 11.7188 282.107 11.9792 281.195 12.5C280.297 13.0208 279.848 13.9193 279.848 15.1953V24.1602C279.848 25.4362 280.297 26.3346 281.195 26.8555C282.107 27.3633 283.292 27.6172 284.75 27.6172ZM299.848 37.9688V9.29688H302.738L303.168 10.8594C303.715 10.3646 304.503 9.91536 305.531 9.51172C306.573 9.10807 307.686 8.90625 308.871 8.90625C311.514 8.90625 313.48 9.55078 314.77 10.8398C316.072 12.1289 316.723 13.7695 316.723 15.7617V23.2812C316.723 24.6615 316.404 25.8919 315.766 26.9727C315.128 28.0534 314.19 28.8997 312.953 29.5117C311.716 30.1237 310.199 30.4297 308.402 30.4297C307.243 30.4297 306.26 30.306 305.453 30.0586C304.659 29.8242 304.014 29.5833 303.52 29.3359V37.9688H299.848ZM308.168 27.6172C309.613 27.6172 310.785 27.2786 311.684 26.6016C312.595 25.9115 313.051 24.9349 313.051 23.6719V15.4688C313.051 14.2318 312.595 13.3008 311.684 12.6758C310.785 12.0378 309.659 11.7188 308.305 11.7188C307.445 11.7188 306.671 11.8685 305.98 12.168C305.303 12.4544 304.75 12.7734 304.32 13.125C303.904 13.4766 303.637 13.737 303.52 13.9062V26.5039C303.988 26.7643 304.613 27.0182 305.395 27.2656C306.176 27.5 307.1 27.6172 308.168 27.6172ZM322.504 22.6953V15.4883C322.504 13.5352 323.174 11.9531 324.516 10.7422C325.857 9.51823 328.012 8.90625 330.98 8.90625C333.819 8.90625 335.909 9.46615 337.25 10.5859C338.591 11.6927 339.262 13.2292 339.262 15.1953V20.1172H326.176V23.0273C326.176 24.707 326.508 25.8919 327.172 26.582C327.849 27.2721 329.164 27.6172 331.117 27.6172C332.276 27.6172 333.188 27.5781 333.852 27.5C334.529 27.4089 335.023 27.1484 335.336 26.7188C335.661 26.276 335.876 25.5339 335.98 24.4922H339.223C339.053 26.1198 338.695 27.3633 338.148 28.2227C337.615 29.069 336.788 29.6484 335.668 29.9609C334.548 30.2734 333.031 30.4297 331.117 30.4297C329.06 30.4297 327.4 30.1432 326.137 29.5703C324.874 28.9974 323.949 28.138 323.363 26.9922C322.79 25.8464 322.504 24.4141 322.504 22.6953ZM335.707 17.6367V14.8047C335.707 13.9714 335.505 13.3333 335.102 12.8906C334.711 12.4479 334.164 12.1419 333.461 11.9727C332.758 11.8034 331.931 11.7188 330.98 11.7188C329.522 11.7188 328.357 11.9727 327.484 12.4805C326.612 12.9883 326.176 13.8802 326.176 15.1562V17.6367H335.707ZM345.473 9.29688H349.145V11.3086C349.757 10.6055 350.557 10.0326 351.547 9.58984C352.536 9.13411 353.78 8.90625 355.277 8.90625C356.983 8.90625 358.35 9.1862 359.379 9.74609C360.421 10.293 361.176 11.0286 361.645 11.9531C362.113 12.8646 362.348 13.8672 362.348 14.9609V30H358.676V14.7461C358.676 14.056 358.493 13.4896 358.129 13.0469C357.764 12.6042 357.257 12.2721 356.605 12.0508C355.954 11.8294 355.199 11.7188 354.34 11.7188C353.142 11.7188 352.159 11.875 351.391 12.1875C350.622 12.5 350.056 12.9232 349.691 13.457C349.327 13.9909 349.145 14.5898 349.145 15.2539V30H345.473V9.29688ZM380.805 24.082V12.0703H377.348V9.29688H380.941L381.391 2.89062H384.477V9.29688H389.672V12.0703H384.477V23.8477C384.477 25.2148 384.88 26.0938 385.688 26.4844C386.495 26.875 387.771 27.0703 389.516 27.0703H389.926L389.535 30.1562H388.988C387.1 30.1562 385.551 29.9674 384.34 29.5898C383.142 29.2122 382.25 28.5807 381.664 27.6953C381.091 26.7969 380.805 25.5924 380.805 24.082ZM403.5 30.4297C401.43 30.4297 399.763 30.1497 398.5 29.5898C397.25 29.0169 396.339 28.2357 395.766 27.2461C395.206 26.2565 394.926 25.1237 394.926 23.8477V15.5078C394.926 14.2318 395.206 13.099 395.766 12.1094C396.339 11.1068 397.25 10.3255 398.5 9.76562C399.763 9.19271 401.43 8.90625 403.5 8.90625C405.557 8.90625 407.211 9.19271 408.461 9.76562C409.724 10.3255 410.642 11.1068 411.215 12.1094C411.788 13.099 412.074 14.2318 412.074 15.5078V23.8477C412.074 25.1237 411.788 26.2565 411.215 27.2461C410.642 28.2357 409.724 29.0169 408.461 29.5898C407.211 30.1497 405.557 30.4297 403.5 30.4297ZM403.5 27.6172C404.932 27.6172 406.104 27.3633 407.016 26.8555C407.94 26.3346 408.402 25.4362 408.402 24.1602V15.1953C408.402 13.9193 407.94 13.0208 407.016 12.5C406.104 11.9792 404.932 11.7188 403.5 11.7188C402.042 11.7188 400.857 11.9792 399.945 12.5C399.047 13.0208 398.598 13.9193 398.598 15.1953V24.1602C398.598 25.4362 399.047 26.3346 399.945 26.8555C400.857 27.3633 402.042 27.6172 403.5 27.6172ZM425.98 9.29688H429.34L434.164 26.3867H433.676L438.91 9.29688H442.445L447.914 26.3867H447.406L452.074 9.29688H455.473L449.418 30H446L440.434 12.6562H440.98L435.414 30H431.938L425.98 9.29688ZM467.953 30.4297C465.883 30.4297 464.216 30.1497 462.953 29.5898C461.703 29.0169 460.792 28.2357 460.219 27.2461C459.659 26.2565 459.379 25.1237 459.379 23.8477V15.5078C459.379 14.2318 459.659 13.099 460.219 12.1094C460.792 11.1068 461.703 10.3255 462.953 9.76562C464.216 9.19271 465.883 8.90625 467.953 8.90625C470.01 8.90625 471.664 9.19271 472.914 9.76562C474.177 10.3255 475.095 11.1068 475.668 12.1094C476.241 13.099 476.527 14.2318 476.527 15.5078V23.8477C476.527 25.1237 476.241 26.2565 475.668 27.2461C475.095 28.2357 474.177 29.0169 472.914 29.5898C471.664 30.1497 470.01 30.4297 467.953 30.4297ZM467.953 27.6172C469.385 27.6172 470.557 27.3633 471.469 26.8555C472.393 26.3346 472.855 25.4362 472.855 24.1602V15.1953C472.855 13.9193 472.393 13.0208 471.469 12.5C470.557 11.9792 469.385 11.7188 467.953 11.7188C466.495 11.7188 465.31 11.9792 464.398 12.5C463.5 13.0208 463.051 13.9193 463.051 15.1953V24.1602C463.051 25.4362 463.5 26.3346 464.398 26.8555C465.31 27.3633 466.495 27.6172 467.953 27.6172ZM483.051 9.29688H486.723V12.2266C487.022 11.4453 487.562 10.8203 488.344 10.3516C489.138 9.86979 490.036 9.52474 491.039 9.31641C492.042 9.10807 492.999 9.00391 493.91 9.00391L493.793 12.1484C492.908 12.1484 492.042 12.2396 491.195 12.4219C490.362 12.6042 489.607 12.8581 488.93 13.1836C488.253 13.4961 487.712 13.8542 487.309 14.2578C486.918 14.6615 486.723 15.0781 486.723 15.5078V30H483.051V9.29688ZM498.637 0.605469H502.309V19.7656L512.211 9.29688H516.234L507.816 18.3984L517.074 30H512.836L505.414 20.3906L502.309 23.4766V30H498.637V0.605469ZM521.41 9.29688H525.082V30H521.41V9.29688ZM521.352 4.66797V0.605469H525.141V4.66797H521.352ZM532.66 9.29688H536.332V11.3086C536.944 10.6055 537.745 10.0326 538.734 9.58984C539.724 9.13411 540.967 8.90625 542.465 8.90625C544.171 8.90625 545.538 9.1862 546.566 9.74609C547.608 10.293 548.363 11.0286 548.832 11.9531C549.301 12.8646 549.535 13.8672 549.535 14.9609V30H545.863V14.7461C545.863 14.056 545.681 13.4896 545.316 13.0469C544.952 12.6042 544.444 12.2721 543.793 12.0508C543.142 11.8294 542.387 11.7188 541.527 11.7188C540.329 11.7188 539.346 11.875 538.578 12.1875C537.81 12.5 537.243 12.9232 536.879 13.457C536.514 13.9909 536.332 14.5898 536.332 15.2539V30H532.66V9.29688ZM564.164 37.9688C562.771 37.9688 561.573 37.9102 560.57 37.793C559.568 37.6758 558.682 37.474 557.914 37.1875L558.734 34.4336C559.294 34.6419 560.069 34.8177 561.059 34.9609C562.048 35.1042 563.025 35.1758 563.988 35.1758C565.772 35.1758 567.055 34.7982 567.836 34.043C568.63 33.2878 569.027 32.1419 569.027 30.6055V27.7344C568.637 28.099 568.109 28.3919 567.445 28.6133C566.794 28.8216 566.13 28.9779 565.453 29.082C564.776 29.1732 564.197 29.2188 563.715 29.2188C561.072 29.2188 559.099 28.6523 557.797 27.5195C556.508 26.3867 555.863 24.7461 555.863 22.5977V15.7812C555.863 14.388 556.143 13.1771 556.703 12.1484C557.263 11.1198 558.122 10.3255 559.281 9.76562C560.44 9.19271 561.918 8.90625 563.715 8.90625C564.418 8.90625 565.141 9.01042 565.883 9.21875C566.638 9.42708 567.302 9.6875 567.875 10C568.448 10.3125 568.832 10.6315 569.027 10.957V9.29688H572.699V29.5117C572.699 31.1263 572.432 32.5716 571.898 33.8477C571.378 35.1237 570.492 36.1263 569.242 36.8555C568.005 37.5977 566.312 37.9688 564.164 37.9688ZM564.281 26.4062C565.648 26.4062 566.71 26.2044 567.465 25.8008C568.22 25.3971 568.741 25.0781 569.027 24.8438V14.5703C569.027 13.6719 568.637 12.9753 567.855 12.4805C567.087 11.9727 565.889 11.7188 564.262 11.7188C562.816 11.7188 561.664 12.0117 560.805 12.5977C559.958 13.1836 559.535 14.1146 559.535 15.3906V23.1641C559.535 24.401 559.991 25.2539 560.902 25.7227C561.814 26.1784 562.94 26.4062 564.281 26.4062ZM597.523 30.4297C595.453 30.4297 593.786 30.1497 592.523 29.5898C591.273 29.0169 590.362 28.2357 589.789 27.2461C589.229 26.2565 588.949 25.1237 588.949 23.8477V15.5078C588.949 14.2318 589.229 13.099 589.789 12.1094C590.362 11.1068 591.273 10.3255 592.523 9.76562C593.786 9.19271 595.453 8.90625 597.523 8.90625C599.581 8.90625 601.234 9.19271 602.484 9.76562C603.747 10.3255 604.665 11.1068 605.238 12.1094C605.811 13.099 606.098 14.2318 606.098 15.5078V23.8477C606.098 25.1237 605.811 26.2565 605.238 27.2461C604.665 28.2357 603.747 29.0169 602.484 29.5898C601.234 30.1497 599.581 30.4297 597.523 30.4297ZM597.523 27.6172C598.956 27.6172 600.128 27.3633 601.039 26.8555C601.964 26.3346 602.426 25.4362 602.426 24.1602V15.1953C602.426 13.9193 601.964 13.0208 601.039 12.5C600.128 11.9792 598.956 11.7188 597.523 11.7188C596.065 11.7188 594.88 11.9792 593.969 12.5C593.07 13.0208 592.621 13.9193 592.621 15.1953V24.1602C592.621 25.4362 593.07 26.3346 593.969 26.8555C594.88 27.3633 596.065 27.6172 597.523 27.6172ZM619.555 30.4297C617.862 30.4297 616.488 30.1497 615.434 29.5898C614.392 29.0299 613.63 28.2878 613.148 27.3633C612.667 26.4388 612.426 25.4297 612.426 24.3359V9.29688H616.098V24.3555C616.098 25.0326 616.267 25.6185 616.605 26.1133C616.944 26.5951 617.426 26.9661 618.051 27.2266C618.689 27.487 619.431 27.6172 620.277 27.6172C621.475 27.6172 622.465 27.4349 623.246 27.0703C624.04 26.7057 624.626 26.2435 625.004 25.6836C625.395 25.1107 625.59 24.5378 625.59 23.9648V9.29688H629.262V30H625.98L625.59 27.4023C625.069 28.3268 624.307 29.0625 623.305 29.6094C622.315 30.1562 621.065 30.4297 619.555 30.4297ZM637.914 24.082V12.0703H634.457V9.29688H638.051L638.5 2.89062H641.586V9.29688H646.781V12.0703H641.586V23.8477C641.586 25.2148 641.99 26.0938 642.797 26.4844C643.604 26.875 644.88 27.0703 646.625 27.0703H647.035L646.645 30.1562H646.098C644.21 30.1562 642.66 29.9674 641.449 29.5898C640.251 29.2122 639.359 28.5807 638.773 27.6953C638.201 26.7969 637.914 25.5924 637.914 24.082ZM670.453 30.4297C668.396 30.4297 666.749 30.1042 665.512 29.4531C664.288 28.7891 663.402 27.9167 662.855 26.8359C662.309 25.7422 662.035 24.5573 662.035 23.2812V15.3906C662.035 13.4375 662.777 11.8685 664.262 10.6836C665.759 9.4987 667.79 8.90625 670.355 8.90625C672.009 8.90625 673.448 9.10156 674.672 9.49219C675.896 9.86979 676.84 10.5599 677.504 11.5625C678.181 12.5651 678.52 13.9974 678.52 15.8594L675.023 16.1914C675.023 14.9284 674.88 13.9779 674.594 13.3398C674.307 12.7018 673.832 12.2721 673.168 12.0508C672.504 11.8294 671.599 11.7188 670.453 11.7188C668.878 11.7188 667.693 12.0052 666.898 12.5781C666.104 13.138 665.707 14.1081 665.707 15.4883V23.5938C665.707 25.0781 666.124 26.1198 666.957 26.7188C667.803 27.3177 668.969 27.6172 670.453 27.6172C671.664 27.6172 672.582 27.5326 673.207 27.3633C673.845 27.181 674.294 26.8294 674.555 26.3086C674.815 25.7747 674.991 24.987 675.082 23.9453H678.48C678.35 25.5339 678.012 26.8034 677.465 27.7539C676.918 28.7044 676.078 29.388 674.945 29.8047C673.826 30.2214 672.328 30.4297 670.453 30.4297ZM691.312 30.4297C689.62 30.4297 688.246 30.1497 687.191 29.5898C686.15 29.0299 685.388 28.2878 684.906 27.3633C684.424 26.4388 684.184 25.4297 684.184 24.3359V9.29688H687.855V24.3555C687.855 25.0326 688.025 25.6185 688.363 26.1133C688.702 26.5951 689.184 26.9661 689.809 27.2266C690.447 27.487 691.189 27.6172 692.035 27.6172C693.233 27.6172 694.223 27.4349 695.004 27.0703C695.798 26.7057 696.384 26.2435 696.762 25.6836C697.152 25.1107 697.348 24.5378 697.348 23.9648V9.29688H701.02V30H697.738L697.348 27.4023C696.827 28.3268 696.065 29.0625 695.062 29.6094C694.073 30.1562 692.823 30.4297 691.312 30.4297ZM707.426 28.75L708.324 26.0547C708.78 26.3021 709.568 26.6276 710.688 27.0312C711.807 27.4219 713.07 27.6172 714.477 27.6172C716.104 27.6172 717.204 27.3177 717.777 26.7188C718.35 26.1198 718.637 25.3841 718.637 24.5117C718.637 23.7044 718.526 23.0664 718.305 22.5977C718.096 22.1289 717.504 21.7122 716.527 21.3477L711.605 19.5508C710.108 19.0039 709.06 18.3594 708.461 17.6172C707.862 16.875 707.562 15.8594 707.562 14.5703C707.562 12.8255 708.044 11.4453 709.008 10.4297C709.971 9.41406 711.729 8.90625 714.281 8.90625C715.74 8.90625 717.074 9.02344 718.285 9.25781C719.509 9.47917 720.499 9.73958 721.254 10.0391L720.414 12.8516C720.023 12.6823 719.509 12.513 718.871 12.3438C718.233 12.1745 717.569 12.0312 716.879 11.9141C716.189 11.7839 715.551 11.7188 714.965 11.7188C713.285 11.7188 712.198 11.9336 711.703 12.3633C711.221 12.7799 710.98 13.457 710.98 14.3945C710.98 15.0326 711.098 15.5078 711.332 15.8203C711.579 16.1198 712.055 16.4062 712.758 16.6797L717.621 18.5742C718.78 19.0169 719.652 19.4922 720.238 20C720.837 20.4948 721.241 21.0938 721.449 21.7969C721.658 22.5 721.762 23.3919 721.762 24.4727C721.762 25.5534 721.534 26.5495 721.078 27.4609C720.635 28.3594 719.913 29.082 718.91 29.6289C717.921 30.1628 716.605 30.4297 714.965 30.4297C713.038 30.4297 711.417 30.2148 710.102 29.7852C708.786 29.3555 707.895 29.0104 707.426 28.75ZM729.047 24.082V12.0703H725.59V9.29688H729.184L729.633 2.89062H732.719V9.29688H737.914V12.0703H732.719V23.8477C732.719 25.2148 733.122 26.0938 733.93 26.4844C734.737 26.875 736.013 27.0703 737.758 27.0703H738.168L737.777 30.1562H737.23C735.342 30.1562 733.793 29.9674 732.582 29.5898C731.384 29.2122 730.492 28.5807 729.906 27.6953C729.333 26.7969 729.047 25.5924 729.047 24.082ZM751.742 30.4297C749.672 30.4297 748.005 30.1497 746.742 29.5898C745.492 29.0169 744.581 28.2357 744.008 27.2461C743.448 26.2565 743.168 25.1237 743.168 23.8477V15.5078C743.168 14.2318 743.448 13.099 744.008 12.1094C744.581 11.1068 745.492 10.3255 746.742 9.76562C748.005 9.19271 749.672 8.90625 751.742 8.90625C753.799 8.90625 755.453 9.19271 756.703 9.76562C757.966 10.3255 758.884 11.1068 759.457 12.1094C760.03 13.099 760.316 14.2318 760.316 15.5078V23.8477C760.316 25.1237 760.03 26.2565 759.457 27.2461C758.884 28.2357 757.966 29.0169 756.703 29.5898C755.453 30.1497 753.799 30.4297 751.742 30.4297ZM751.742 27.6172C753.174 27.6172 754.346 27.3633 755.258 26.8555C756.182 26.3346 756.645 25.4362 756.645 24.1602V15.1953C756.645 13.9193 756.182 13.0208 755.258 12.5C754.346 11.9792 753.174 11.7188 751.742 11.7188C750.284 11.7188 749.099 11.9792 748.188 12.5C747.289 13.0208 746.84 13.9193 746.84 15.1953V24.1602C746.84 25.4362 747.289 26.3346 748.188 26.8555C749.099 27.3633 750.284 27.6172 751.742 27.6172ZM766.84 9.29688H770.512V11.3086C770.915 10.8398 771.384 10.4232 771.918 10.0586C772.465 9.69401 773.103 9.41406 773.832 9.21875C774.574 9.01042 775.447 8.90625 776.449 8.90625C778.051 8.90625 779.34 9.16016 780.316 9.66797C781.306 10.1628 782.042 10.8138 782.523 11.6211C783.422 10.7357 784.398 10.0651 785.453 9.60938C786.521 9.14062 787.803 8.90625 789.301 8.90625C791.007 8.90625 792.354 9.1862 793.344 9.74609C794.333 10.293 795.036 11.0286 795.453 11.9531C795.883 12.8646 796.098 13.8672 796.098 14.9609V30H792.426V14.7461C792.426 13.7174 792.068 12.9557 791.352 12.4609C790.635 11.9661 789.639 11.7188 788.363 11.7188C787.165 11.7188 786.195 11.875 785.453 12.1875C784.724 12.5 784.19 12.9232 783.852 13.457C783.526 13.9909 783.363 14.5898 783.363 15.2539V30H779.691V14.7461C779.691 13.7174 779.314 12.9557 778.559 12.4609C777.803 11.9661 776.788 11.7188 775.512 11.7188C774.314 11.7188 773.344 11.875 772.602 12.1875C771.872 12.5 771.339 12.9232 771 13.457C770.674 13.9909 770.512 14.5898 770.512 15.2539V30H766.84V9.29688ZM813.168 37.9688V9.29688H816.059L816.488 10.8594C817.035 10.3646 817.823 9.91536 818.852 9.51172C819.893 9.10807 821.007 8.90625 822.191 8.90625C824.835 8.90625 826.801 9.55078 828.09 10.8398C829.392 12.1289 830.043 13.7695 830.043 15.7617V23.2812C830.043 24.6615 829.724 25.8919 829.086 26.9727C828.448 28.0534 827.51 28.8997 826.273 29.5117C825.036 30.1237 823.52 30.4297 821.723 30.4297C820.564 30.4297 819.581 30.306 818.773 30.0586C817.979 29.8242 817.335 29.5833 816.84 29.3359V37.9688H813.168ZM821.488 27.6172C822.934 27.6172 824.105 27.2786 825.004 26.6016C825.915 25.9115 826.371 24.9349 826.371 23.6719V15.4688C826.371 14.2318 825.915 13.3008 825.004 12.6758C824.105 12.0378 822.979 11.7188 821.625 11.7188C820.766 11.7188 819.991 11.8685 819.301 12.168C818.624 12.4544 818.07 12.7734 817.641 13.125C817.224 13.4766 816.957 13.737 816.84 13.9062V26.5039C817.309 26.7643 817.934 27.0182 818.715 27.2656C819.496 27.5 820.421 27.6172 821.488 27.6172ZM842.016 30.4297C840.492 30.4297 839.249 30.1693 838.285 29.6484C837.335 29.1146 836.632 28.418 836.176 27.5586C835.733 26.6862 835.512 25.7552 835.512 24.7656C835.512 23.724 835.714 22.8516 836.117 22.1484C836.534 21.4323 837.309 20.7878 838.441 20.2148C839.587 19.6289 841.26 19.0169 843.461 18.3789C844.607 18.0404 845.525 17.7409 846.215 17.4805C846.905 17.2201 847.406 16.888 847.719 16.4844C848.031 16.0807 848.188 15.5013 848.188 14.7461C848.188 14.1862 848.096 13.6784 847.914 13.2227C847.745 12.7669 847.387 12.4023 846.84 12.1289C846.306 11.8555 845.486 11.7188 844.379 11.7188C842.999 11.7188 841.99 11.862 841.352 12.1484C840.714 12.4349 840.303 12.8125 840.121 13.2812C839.952 13.737 839.867 14.2448 839.867 14.8047V15.7227H836.332V14.7852C836.332 12.7409 837.016 11.25 838.383 10.3125C839.75 9.375 841.788 8.90625 844.496 8.90625C846.319 8.90625 847.764 9.19922 848.832 9.78516C849.913 10.3581 850.688 11.1719 851.156 12.2266C851.625 13.2812 851.859 14.5182 851.859 15.9375V24.7656C851.859 25.8594 851.996 26.5625 852.27 26.875C852.556 27.1875 853.142 27.3438 854.027 27.3438L853.598 30.1562H852.855C851.475 30.1562 850.479 29.8893 849.867 29.3555C849.255 28.8086 848.793 28.0469 848.48 27.0703C848.181 27.5391 847.764 28.0339 847.23 28.5547C846.71 29.0755 846.026 29.5182 845.18 29.8828C844.346 30.2474 843.292 30.4297 842.016 30.4297ZM842.465 27.6953C843.207 27.6953 843.982 27.5391 844.789 27.2266C845.596 26.901 846.312 26.4779 846.938 25.957C847.576 25.4232 847.992 24.8372 848.188 24.1992V18.75C847.901 19.0365 847.4 19.4141 846.684 19.8828C845.98 20.3385 844.971 20.7552 843.656 21.1328C842.055 21.5885 840.876 22.0573 840.121 22.5391C839.379 23.0208 839.008 23.724 839.008 24.6484C839.008 25.6901 839.275 26.4583 839.809 26.9531C840.355 27.4479 841.241 27.6953 842.465 27.6953ZM867.133 30.4297C865.076 30.4297 863.428 30.1042 862.191 29.4531C860.967 28.7891 860.082 27.9167 859.535 26.8359C858.988 25.7422 858.715 24.5573 858.715 23.2812V15.3906C858.715 13.4375 859.457 11.8685 860.941 10.6836C862.439 9.4987 864.47 8.90625 867.035 8.90625C868.689 8.90625 870.128 9.10156 871.352 9.49219C872.576 9.86979 873.52 10.5599 874.184 11.5625C874.861 12.5651 875.199 13.9974 875.199 15.8594L871.703 16.1914C871.703 14.9284 871.56 13.9779 871.273 13.3398C870.987 12.7018 870.512 12.2721 869.848 12.0508C869.184 11.8294 868.279 11.7188 867.133 11.7188C865.557 11.7188 864.372 12.0052 863.578 12.5781C862.784 13.138 862.387 14.1081 862.387 15.4883V23.5938C862.387 25.0781 862.803 26.1198 863.637 26.7188C864.483 27.3177 865.648 27.6172 867.133 27.6172C868.344 27.6172 869.262 27.5326 869.887 27.3633C870.525 27.181 870.974 26.8294 871.234 26.3086C871.495 25.7747 871.671 24.987 871.762 23.9453H875.16C875.03 25.5339 874.691 26.8034 874.145 27.7539C873.598 28.7044 872.758 29.388 871.625 29.8047C870.505 30.2214 869.008 30.4297 867.133 30.4297ZM881.059 0.605469H884.73V19.7656L894.633 9.29688H898.656L890.238 18.3984L899.496 30H895.258L887.836 20.3906L884.73 23.4766V30H881.059V0.605469ZM908.891 30.4297C907.367 30.4297 906.124 30.1693 905.16 29.6484C904.21 29.1146 903.507 28.418 903.051 27.5586C902.608 26.6862 902.387 25.7552 902.387 24.7656C902.387 23.724 902.589 22.8516 902.992 22.1484C903.409 21.4323 904.184 20.7878 905.316 20.2148C906.462 19.6289 908.135 19.0169 910.336 18.3789C911.482 18.0404 912.4 17.7409 913.09 17.4805C913.78 17.2201 914.281 16.888 914.594 16.4844C914.906 16.0807 915.062 15.5013 915.062 14.7461C915.062 14.1862 914.971 13.6784 914.789 13.2227C914.62 12.7669 914.262 12.4023 913.715 12.1289C913.181 11.8555 912.361 11.7188 911.254 11.7188C909.874 11.7188 908.865 11.862 908.227 12.1484C907.589 12.4349 907.178 12.8125 906.996 13.2812C906.827 13.737 906.742 14.2448 906.742 14.8047V15.7227H903.207V14.7852C903.207 12.7409 903.891 11.25 905.258 10.3125C906.625 9.375 908.663 8.90625 911.371 8.90625C913.194 8.90625 914.639 9.19922 915.707 9.78516C916.788 10.3581 917.562 11.1719 918.031 12.2266C918.5 13.2812 918.734 14.5182 918.734 15.9375V24.7656C918.734 25.8594 918.871 26.5625 919.145 26.875C919.431 27.1875 920.017 27.3438 920.902 27.3438L920.473 30.1562H919.73C918.35 30.1562 917.354 29.8893 916.742 29.3555C916.13 28.8086 915.668 28.0469 915.355 27.0703C915.056 27.5391 914.639 28.0339 914.105 28.5547C913.585 29.0755 912.901 29.5182 912.055 29.8828C911.221 30.2474 910.167 30.4297 908.891 30.4297ZM909.34 27.6953C910.082 27.6953 910.857 27.5391 911.664 27.2266C912.471 26.901 913.188 26.4779 913.812 25.957C914.451 25.4232 914.867 24.8372 915.062 24.1992V18.75C914.776 19.0365 914.275 19.4141 913.559 19.8828C912.855 20.3385 911.846 20.7552 910.531 21.1328C908.93 21.5885 907.751 22.0573 906.996 22.5391C906.254 23.0208 905.883 23.724 905.883 24.6484C905.883 25.6901 906.15 26.4583 906.684 26.9531C907.23 27.4479 908.116 27.6953 909.34 27.6953ZM933.891 37.9688C932.497 37.9688 931.299 37.9102 930.297 37.793C929.294 37.6758 928.409 37.474 927.641 37.1875L928.461 34.4336C929.021 34.6419 929.796 34.8177 930.785 34.9609C931.775 35.1042 932.751 35.1758 933.715 35.1758C935.499 35.1758 936.781 34.7982 937.562 34.043C938.357 33.2878 938.754 32.1419 938.754 30.6055V27.7344C938.363 28.099 937.836 28.3919 937.172 28.6133C936.521 28.8216 935.857 28.9779 935.18 29.082C934.503 29.1732 933.923 29.2188 933.441 29.2188C930.798 29.2188 928.826 28.6523 927.523 27.5195C926.234 26.3867 925.59 24.7461 925.59 22.5977V15.7812C925.59 14.388 925.87 13.1771 926.43 12.1484C926.99 11.1198 927.849 10.3255 929.008 9.76562C930.167 9.19271 931.645 8.90625 933.441 8.90625C934.145 8.90625 934.867 9.01042 935.609 9.21875C936.365 9.42708 937.029 9.6875 937.602 10C938.174 10.3125 938.559 10.6315 938.754 10.957V9.29688H942.426V29.5117C942.426 31.1263 942.159 32.5716 941.625 33.8477C941.104 35.1237 940.219 36.1263 938.969 36.8555C937.732 37.5977 936.039 37.9688 933.891 37.9688ZM934.008 26.4062C935.375 26.4062 936.436 26.2044 937.191 25.8008C937.947 25.3971 938.467 25.0781 938.754 24.8438V14.5703C938.754 13.6719 938.363 12.9753 937.582 12.4805C936.814 11.9727 935.616 11.7188 933.988 11.7188C932.543 11.7188 931.391 12.0117 930.531 12.5977C929.685 13.1836 929.262 14.1146 929.262 15.3906V23.1641C929.262 24.401 929.717 25.2539 930.629 25.7227C931.54 26.1784 932.667 26.4062 934.008 26.4062ZM948.676 22.6953V15.4883C948.676 13.5352 949.346 11.9531 950.688 10.7422C952.029 9.51823 954.184 8.90625 957.152 8.90625C959.991 8.90625 962.081 9.46615 963.422 10.5859C964.763 11.6927 965.434 13.2292 965.434 15.1953V20.1172H952.348V23.0273C952.348 24.707 952.68 25.8919 953.344 26.582C954.021 27.2721 955.336 27.6172 957.289 27.6172C958.448 27.6172 959.359 27.5781 960.023 27.5C960.701 27.4089 961.195 27.1484 961.508 26.7188C961.833 26.276 962.048 25.5339 962.152 24.4922H965.395C965.225 26.1198 964.867 27.3633 964.32 28.2227C963.786 29.069 962.96 29.6484 961.84 29.9609C960.72 30.2734 959.203 30.4297 957.289 30.4297C955.232 30.4297 953.572 30.1432 952.309 29.5703C951.046 28.9974 950.121 28.138 949.535 26.9922C948.962 25.8464 948.676 24.4141 948.676 22.6953ZM961.879 17.6367V14.8047C961.879 13.9714 961.677 13.3333 961.273 12.8906C960.883 12.4479 960.336 12.1419 959.633 11.9727C958.93 11.8034 958.103 11.7188 957.152 11.7188C955.694 11.7188 954.529 11.9727 953.656 12.4805C952.784 12.9883 952.348 13.8802 952.348 15.1562V17.6367H961.879ZM970.785 28.75L971.684 26.0547C972.139 26.3021 972.927 26.6276 974.047 27.0312C975.167 27.4219 976.43 27.6172 977.836 27.6172C979.464 27.6172 980.564 27.3177 981.137 26.7188C981.71 26.1198 981.996 25.3841 981.996 24.5117C981.996 23.7044 981.885 23.0664 981.664 22.5977C981.456 22.1289 980.863 21.7122 979.887 21.3477L974.965 19.5508C973.467 19.0039 972.419 18.3594 971.82 17.6172C971.221 16.875 970.922 15.8594 970.922 14.5703C970.922 12.8255 971.404 11.4453 972.367 10.4297C973.331 9.41406 975.089 8.90625 977.641 8.90625C979.099 8.90625 980.434 9.02344 981.645 9.25781C982.868 9.47917 983.858 9.73958 984.613 10.0391L983.773 12.8516C983.383 12.6823 982.868 12.513 982.23 12.3438C981.592 12.1745 980.928 12.0312 980.238 11.9141C979.548 11.7839 978.91 11.7188 978.324 11.7188C976.645 11.7188 975.557 11.9336 975.062 12.3633C974.581 12.7799 974.34 13.457 974.34 14.3945C974.34 15.0326 974.457 15.5078 974.691 15.8203C974.939 16.1198 975.414 16.4062 976.117 16.6797L980.98 18.5742C982.139 19.0169 983.012 19.4922 983.598 20C984.197 20.4948 984.6 21.0938 984.809 21.7969C985.017 22.5 985.121 23.3919 985.121 24.4727C985.121 25.5534 984.893 26.5495 984.438 27.4609C983.995 28.3594 983.272 29.082 982.27 29.6289C981.28 30.1628 979.965 30.4297 978.324 30.4297C976.397 30.4297 974.776 30.2148 973.461 29.7852C972.146 29.3555 971.254 29.0104 970.785 28.75ZM1008.85 30.4297C1006.78 30.4297 1005.11 30.1497 1003.85 29.5898C1002.6 29.0169 1001.69 28.2357 1001.12 27.2461C1000.56 26.2565 1000.28 25.1237 1000.28 23.8477V15.5078C1000.28 14.2318 1000.56 13.099 1001.12 12.1094C1001.69 11.1068 1002.6 10.3255 1003.85 9.76562C1005.11 9.19271 1006.78 8.90625 1008.85 8.90625C1010.91 8.90625 1012.56 9.19271 1013.81 9.76562C1015.08 10.3255 1015.99 11.1068 1016.57 12.1094C1017.14 13.099 1017.43 14.2318 1017.43 15.5078V23.8477C1017.43 25.1237 1017.14 26.2565 1016.57 27.2461C1015.99 28.2357 1015.08 29.0169 1013.81 29.5898C1012.56 30.1497 1010.91 30.4297 1008.85 30.4297ZM1008.85 27.6172C1010.28 27.6172 1011.46 27.3633 1012.37 26.8555C1013.29 26.3346 1013.75 25.4362 1013.75 24.1602V15.1953C1013.75 13.9193 1013.29 13.0208 1012.37 12.5C1011.46 11.9792 1010.28 11.7188 1008.85 11.7188C1007.39 11.7188 1006.21 11.9792 1005.3 12.5C1004.4 13.0208 1003.95 13.9193 1003.95 15.1953V24.1602C1003.95 25.4362 1004.4 26.3346 1005.3 26.8555C1006.21 27.3633 1007.39 27.6172 1008.85 27.6172ZM1023.95 9.29688H1027.62V11.3086C1028.23 10.6055 1029.03 10.0326 1030.02 9.58984C1031.01 9.13411 1032.26 8.90625 1033.75 8.90625C1035.46 8.90625 1036.83 9.1862 1037.86 9.74609C1038.9 10.293 1039.65 11.0286 1040.12 11.9531C1040.59 12.8646 1040.82 13.8672 1040.82 14.9609V30H1037.15V14.7461C1037.15 14.056 1036.97 13.4896 1036.61 13.0469C1036.24 12.6042 1035.73 12.2721 1035.08 12.0508C1034.43 11.8294 1033.68 11.7188 1032.82 11.7188C1031.62 11.7188 1030.64 11.875 1029.87 12.1875C1029.1 12.5 1028.53 12.9232 1028.17 13.457C1027.8 13.9909 1027.62 14.5898 1027.62 15.2539V30H1023.95V9.29688ZM1063.34 30.4297C1061.82 30.4297 1060.58 30.1693 1059.61 29.6484C1058.66 29.1146 1057.96 28.418 1057.5 27.5586C1057.06 26.6862 1056.84 25.7552 1056.84 24.7656C1056.84 23.724 1057.04 22.8516 1057.45 22.1484C1057.86 21.4323 1058.64 20.7878 1059.77 20.2148C1060.92 19.6289 1062.59 19.0169 1064.79 18.3789C1065.93 18.0404 1066.85 17.7409 1067.54 17.4805C1068.23 17.2201 1068.73 16.888 1069.05 16.4844C1069.36 16.0807 1069.52 15.5013 1069.52 14.7461C1069.52 14.1862 1069.42 13.6784 1069.24 13.2227C1069.07 12.7669 1068.71 12.4023 1068.17 12.1289C1067.63 11.8555 1066.81 11.7188 1065.71 11.7188C1064.33 11.7188 1063.32 11.862 1062.68 12.1484C1062.04 12.4349 1061.63 12.8125 1061.45 13.2812C1061.28 13.737 1061.2 14.2448 1061.2 14.8047V15.7227H1057.66V14.7852C1057.66 12.7409 1058.34 11.25 1059.71 10.3125C1061.08 9.375 1063.12 8.90625 1065.82 8.90625C1067.65 8.90625 1069.09 9.19922 1070.16 9.78516C1071.24 10.3581 1072.02 11.1719 1072.48 12.2266C1072.95 13.2812 1073.19 14.5182 1073.19 15.9375V24.7656C1073.19 25.8594 1073.32 26.5625 1073.6 26.875C1073.88 27.1875 1074.47 27.3438 1075.36 27.3438L1074.93 30.1562H1074.18C1072.8 30.1562 1071.81 29.8893 1071.2 29.3555C1070.58 28.8086 1070.12 28.0469 1069.81 27.0703C1069.51 27.5391 1069.09 28.0339 1068.56 28.5547C1068.04 29.0755 1067.35 29.5182 1066.51 29.8828C1065.67 30.2474 1064.62 30.4297 1063.34 30.4297ZM1063.79 27.6953C1064.54 27.6953 1065.31 27.5391 1066.12 27.2266C1066.92 26.901 1067.64 26.4779 1068.27 25.957C1068.9 25.4232 1069.32 24.8372 1069.52 24.1992V18.75C1069.23 19.0365 1068.73 19.4141 1068.01 19.8828C1067.31 20.3385 1066.3 20.7552 1064.98 21.1328C1063.38 21.5885 1062.2 22.0573 1061.45 22.5391C1060.71 23.0208 1060.34 23.724 1060.34 24.6484C1060.34 25.6901 1060.6 26.4583 1061.14 26.9531C1061.68 27.4479 1062.57 27.6953 1063.79 27.6953ZM1098.46 30.4297C1096.4 30.4297 1094.76 30.1042 1093.52 29.4531C1092.3 28.7891 1091.41 27.9167 1090.86 26.8359C1090.32 25.7422 1090.04 24.5573 1090.04 23.2812V15.3906C1090.04 13.4375 1090.79 11.8685 1092.27 10.6836C1093.77 9.4987 1095.8 8.90625 1098.36 8.90625C1100.02 8.90625 1101.46 9.10156 1102.68 9.49219C1103.9 9.86979 1104.85 10.5599 1105.51 11.5625C1106.19 12.5651 1106.53 13.9974 1106.53 15.8594L1103.03 16.1914C1103.03 14.9284 1102.89 13.9779 1102.6 13.3398C1102.32 12.7018 1101.84 12.2721 1101.18 12.0508C1100.51 11.8294 1099.61 11.7188 1098.46 11.7188C1096.89 11.7188 1095.7 12.0052 1094.91 12.5781C1094.11 13.138 1093.71 14.1081 1093.71 15.4883V23.5938C1093.71 25.0781 1094.13 26.1198 1094.96 26.7188C1095.81 27.3177 1096.98 27.6172 1098.46 27.6172C1099.67 27.6172 1100.59 27.5326 1101.21 27.3633C1101.85 27.181 1102.3 26.8294 1102.56 26.3086C1102.82 25.7747 1103 24.987 1103.09 23.9453H1106.49C1106.36 25.5339 1106.02 26.8034 1105.47 27.7539C1104.93 28.7044 1104.09 29.388 1102.95 29.8047C1101.83 30.2214 1100.34 30.4297 1098.46 30.4297ZM1117.84 30.4297C1116.31 30.4297 1115.07 30.1693 1114.11 29.6484C1113.15 29.1146 1112.45 28.418 1112 27.5586C1111.55 26.6862 1111.33 25.7552 1111.33 24.7656C1111.33 23.724 1111.53 22.8516 1111.94 22.1484C1112.35 21.4323 1113.13 20.7878 1114.26 20.2148C1115.41 19.6289 1117.08 19.0169 1119.28 18.3789C1120.43 18.0404 1121.35 17.7409 1122.04 17.4805C1122.73 17.2201 1123.23 16.888 1123.54 16.4844C1123.85 16.0807 1124.01 15.5013 1124.01 14.7461C1124.01 14.1862 1123.92 13.6784 1123.73 13.2227C1123.57 12.7669 1123.21 12.4023 1122.66 12.1289C1122.13 11.8555 1121.31 11.7188 1120.2 11.7188C1118.82 11.7188 1117.81 11.862 1117.17 12.1484C1116.53 12.4349 1116.12 12.8125 1115.94 13.2812C1115.77 13.737 1115.69 14.2448 1115.69 14.8047V15.7227H1112.15V14.7852C1112.15 12.7409 1112.84 11.25 1114.2 10.3125C1115.57 9.375 1117.61 8.90625 1120.32 8.90625C1122.14 8.90625 1123.58 9.19922 1124.65 9.78516C1125.73 10.3581 1126.51 11.1719 1126.98 12.2266C1127.45 13.2812 1127.68 14.5182 1127.68 15.9375V24.7656C1127.68 25.8594 1127.82 26.5625 1128.09 26.875C1128.38 27.1875 1128.96 27.3438 1129.85 27.3438L1129.42 30.1562H1128.68C1127.3 30.1562 1126.3 29.8893 1125.69 29.3555C1125.08 28.8086 1124.61 28.0469 1124.3 27.0703C1124 27.5391 1123.58 28.0339 1123.05 28.5547C1122.53 29.0755 1121.85 29.5182 1121 29.8828C1120.17 30.2474 1119.11 30.4297 1117.84 30.4297ZM1118.29 27.6953C1119.03 27.6953 1119.8 27.5391 1120.61 27.2266C1121.42 26.901 1122.13 26.4779 1122.76 25.957C1123.4 25.4232 1123.81 24.8372 1124.01 24.1992V18.75C1123.72 19.0365 1123.22 19.4141 1122.5 19.8828C1121.8 20.3385 1120.79 20.7552 1119.48 21.1328C1117.88 21.5885 1116.7 22.0573 1115.94 22.5391C1115.2 23.0208 1114.83 23.724 1114.83 24.6484C1114.83 25.6901 1115.1 26.4583 1115.63 26.9531C1116.18 27.4479 1117.06 27.6953 1118.29 27.6953ZM1134.42 28.75L1135.32 26.0547C1135.77 26.3021 1136.56 26.6276 1137.68 27.0312C1138.8 27.4219 1140.06 27.6172 1141.47 27.6172C1143.1 27.6172 1144.2 27.3177 1144.77 26.7188C1145.34 26.1198 1145.63 25.3841 1145.63 24.5117C1145.63 23.7044 1145.52 23.0664 1145.3 22.5977C1145.09 22.1289 1144.5 21.7122 1143.52 21.3477L1138.6 19.5508C1137.1 19.0039 1136.05 18.3594 1135.45 17.6172C1134.85 16.875 1134.55 15.8594 1134.55 14.5703C1134.55 12.8255 1135.04 11.4453 1136 10.4297C1136.96 9.41406 1138.72 8.90625 1141.27 8.90625C1142.73 8.90625 1144.07 9.02344 1145.28 9.25781C1146.5 9.47917 1147.49 9.73958 1148.25 10.0391L1147.41 12.8516C1147.02 12.6823 1146.5 12.513 1145.86 12.3438C1145.23 12.1745 1144.56 12.0312 1143.87 11.9141C1143.18 11.7839 1142.54 11.7188 1141.96 11.7188C1140.28 11.7188 1139.19 11.9336 1138.7 12.3633C1138.21 12.7799 1137.97 13.457 1137.97 14.3945C1137.97 15.0326 1138.09 15.5078 1138.32 15.8203C1138.57 16.1198 1139.05 16.4062 1139.75 16.6797L1144.61 18.5742C1145.77 19.0169 1146.64 19.4922 1147.23 20C1147.83 20.4948 1148.23 21.0938 1148.44 21.7969C1148.65 22.5 1148.75 23.3919 1148.75 24.4727C1148.75 25.5534 1148.53 26.5495 1148.07 27.4609C1147.63 28.3594 1146.9 29.082 1145.9 29.6289C1144.91 30.1628 1143.6 30.4297 1141.96 30.4297C1140.03 30.4297 1138.41 30.2148 1137.09 29.7852C1135.78 29.3555 1134.89 29.0104 1134.42 28.75ZM1153.91 22.6953V15.4883C1153.91 13.5352 1154.58 11.9531 1155.92 10.7422C1157.26 9.51823 1159.42 8.90625 1162.39 8.90625C1165.23 8.90625 1167.32 9.46615 1168.66 10.5859C1170 11.6927 1170.67 13.2292 1170.67 15.1953V20.1172H1157.58V23.0273C1157.58 24.707 1157.91 25.8919 1158.58 26.582C1159.26 27.2721 1160.57 27.6172 1162.52 27.6172C1163.68 27.6172 1164.59 27.5781 1165.26 27.5C1165.93 27.4089 1166.43 27.1484 1166.74 26.7188C1167.07 26.276 1167.28 25.5339 1167.39 24.4922H1170.63C1170.46 26.1198 1170.1 27.3633 1169.55 28.2227C1169.02 29.069 1168.19 29.6484 1167.07 29.9609C1165.95 30.2734 1164.44 30.4297 1162.52 30.4297C1160.47 30.4297 1158.81 30.1432 1157.54 29.5703C1156.28 28.9974 1155.36 28.138 1154.77 26.9922C1154.2 25.8464 1153.91 24.4141 1153.91 22.6953ZM1167.11 17.6367V14.8047C1167.11 13.9714 1166.91 13.3333 1166.51 12.8906C1166.12 12.4479 1165.57 12.1419 1164.87 11.9727C1164.16 11.8034 1163.34 11.7188 1162.39 11.7188C1160.93 11.7188 1159.76 11.9727 1158.89 12.4805C1158.02 12.9883 1157.58 13.8802 1157.58 15.1562V17.6367H1167.11ZM1176.61 20.2539V17.4609H1187.54V20.2539H1176.61ZM470.316 95.4297C469.092 95.4297 468.018 95.2148 467.094 94.7852C466.182 94.3424 465.453 93.9518 464.906 93.6133L464.438 95H461.723V65.6055H465.395V75.2734C466.059 74.8958 466.892 74.5768 467.895 74.3164C468.897 74.043 469.952 73.9062 471.059 73.9062C472.764 73.9062 474.184 74.1992 475.316 74.7852C476.449 75.3581 477.296 76.1523 477.855 77.168C478.428 78.1706 478.715 79.3229 478.715 80.625V88.125C478.715 89.5052 478.389 90.7487 477.738 91.8555C477.087 92.9622 476.137 93.8346 474.887 94.4727C473.637 95.1107 472.113 95.4297 470.316 95.4297ZM469.77 92.5391C471.215 92.5391 472.452 92.1875 473.48 91.4844C474.522 90.7682 475.043 89.7786 475.043 88.5156V80.3516C475.043 79.1146 474.639 78.2031 473.832 77.6172C473.038 77.0182 471.964 76.7188 470.609 76.7188C469.75 76.7188 468.839 76.8555 467.875 77.1289C466.911 77.4023 466.085 77.6953 465.395 78.0078V91.3281C465.928 91.6276 466.573 91.9076 467.328 92.168C468.083 92.4154 468.897 92.5391 469.77 92.5391ZM485.395 102.93V100.059C486.84 100.059 488.018 99.7656 488.93 99.1797C489.841 98.5938 490.609 97.5521 491.234 96.0547L491.879 94.5117V95.8594L483.012 74.2969H486.801L493.656 91.9141H492.875L498.559 74.2969H502.23L494.34 96.9141C493.637 98.9323 492.615 100.436 491.273 101.426C489.932 102.428 487.973 102.93 485.395 102.93ZM506.723 85.2539V82.4609H517.66V85.2539H506.723ZM532.328 95.4297C530.271 95.4297 528.624 95.1042 527.387 94.4531C526.163 93.7891 525.277 92.9167 524.73 91.8359C524.184 90.7422 523.91 89.5573 523.91 88.2812V80.3906C523.91 78.4375 524.652 76.8685 526.137 75.6836C527.634 74.4987 529.665 73.9062 532.23 73.9062C533.884 73.9062 535.323 74.1016 536.547 74.4922C537.771 74.8698 538.715 75.5599 539.379 76.5625C540.056 77.5651 540.395 78.9974 540.395 80.8594L536.898 81.1914C536.898 79.9284 536.755 78.9779 536.469 78.3398C536.182 77.7018 535.707 77.2721 535.043 77.0508C534.379 76.8294 533.474 76.7188 532.328 76.7188C530.753 76.7188 529.568 77.0052 528.773 77.5781C527.979 78.138 527.582 79.1081 527.582 80.4883V88.5938C527.582 90.0781 527.999 91.1198 528.832 91.7188C529.678 92.3177 530.844 92.6172 532.328 92.6172C533.539 92.6172 534.457 92.5326 535.082 92.3633C535.72 92.181 536.169 91.8294 536.43 91.3086C536.69 90.7747 536.866 89.987 536.957 88.9453H540.355C540.225 90.5339 539.887 91.8034 539.34 92.7539C538.793 93.7044 537.953 94.388 536.82 94.8047C535.701 95.2214 534.203 95.4297 532.328 95.4297ZM551.703 95.4297C550.18 95.4297 548.936 95.1693 547.973 94.6484C547.022 94.1146 546.319 93.418 545.863 92.5586C545.421 91.6862 545.199 90.7552 545.199 89.7656C545.199 88.724 545.401 87.8516 545.805 87.1484C546.221 86.4323 546.996 85.7878 548.129 85.2148C549.275 84.6289 550.948 84.0169 553.148 83.3789C554.294 83.0404 555.212 82.7409 555.902 82.4805C556.592 82.2201 557.094 81.888 557.406 81.4844C557.719 81.0807 557.875 80.5013 557.875 79.7461C557.875 79.1862 557.784 78.6784 557.602 78.2227C557.432 77.7669 557.074 77.4023 556.527 77.1289C555.993 76.8555 555.173 76.7188 554.066 76.7188C552.686 76.7188 551.677 76.862 551.039 77.1484C550.401 77.4349 549.991 77.8125 549.809 78.2812C549.639 78.737 549.555 79.2448 549.555 79.8047V80.7227H546.02V79.7852C546.02 77.7409 546.703 76.25 548.07 75.3125C549.438 74.375 551.475 73.9062 554.184 73.9062C556.007 73.9062 557.452 74.1992 558.52 74.7852C559.6 75.3581 560.375 76.1719 560.844 77.2266C561.312 78.2812 561.547 79.5182 561.547 80.9375V89.7656C561.547 90.8594 561.684 91.5625 561.957 91.875C562.243 92.1875 562.829 92.3438 563.715 92.3438L563.285 95.1562H562.543C561.163 95.1562 560.167 94.8893 559.555 94.3555C558.943 93.8086 558.48 93.0469 558.168 92.0703C557.868 92.5391 557.452 93.0339 556.918 93.5547C556.397 94.0755 555.714 94.5182 554.867 94.8828C554.034 95.2474 552.979 95.4297 551.703 95.4297ZM552.152 92.6953C552.895 92.6953 553.669 92.5391 554.477 92.2266C555.284 91.901 556 91.4779 556.625 90.957C557.263 90.4232 557.68 89.8372 557.875 89.1992V83.75C557.589 84.0365 557.087 84.4141 556.371 84.8828C555.668 85.3385 554.659 85.7552 553.344 86.1328C551.742 86.5885 550.564 87.0573 549.809 87.5391C549.066 88.0208 548.695 88.724 548.695 89.6484C548.695 90.6901 548.962 91.4583 549.496 91.9531C550.043 92.4479 550.928 92.6953 552.152 92.6953ZM568.285 93.75L569.184 91.0547C569.639 91.3021 570.427 91.6276 571.547 92.0312C572.667 92.4219 573.93 92.6172 575.336 92.6172C576.964 92.6172 578.064 92.3177 578.637 91.7188C579.21 91.1198 579.496 90.3841 579.496 89.5117C579.496 88.7044 579.385 88.0664 579.164 87.5977C578.956 87.1289 578.363 86.7122 577.387 86.3477L572.465 84.5508C570.967 84.0039 569.919 83.3594 569.32 82.6172C568.721 81.875 568.422 80.8594 568.422 79.5703C568.422 77.8255 568.904 76.4453 569.867 75.4297C570.831 74.4141 572.589 73.9062 575.141 73.9062C576.599 73.9062 577.934 74.0234 579.145 74.2578C580.368 74.4792 581.358 74.7396 582.113 75.0391L581.273 77.8516C580.883 77.6823 580.368 77.513 579.73 77.3438C579.092 77.1745 578.428 77.0312 577.738 76.9141C577.048 76.7839 576.41 76.7188 575.824 76.7188C574.145 76.7188 573.057 76.9336 572.562 77.3633C572.081 77.7799 571.84 78.457 571.84 79.3945C571.84 80.0326 571.957 80.5078 572.191 80.8203C572.439 81.1198 572.914 81.4062 573.617 81.6797L578.48 83.5742C579.639 84.0169 580.512 84.4922 581.098 85C581.697 85.4948 582.1 86.0938 582.309 86.7969C582.517 87.5 582.621 88.3919 582.621 89.4727C582.621 90.5534 582.393 91.5495 581.938 92.4609C581.495 93.3594 580.772 94.082 579.77 94.6289C578.78 95.1628 577.465 95.4297 575.824 95.4297C573.897 95.4297 572.276 95.2148 570.961 94.7852C569.646 94.3555 568.754 94.0104 568.285 93.75ZM587.777 87.6953V80.4883C587.777 78.5352 588.448 76.9531 589.789 75.7422C591.13 74.5182 593.285 73.9062 596.254 73.9062C599.092 73.9062 601.182 74.4661 602.523 75.5859C603.865 76.6927 604.535 78.2292 604.535 80.1953V85.1172H591.449V88.0273C591.449 89.707 591.781 90.8919 592.445 91.582C593.122 92.2721 594.438 92.6172 596.391 92.6172C597.549 92.6172 598.461 92.5781 599.125 92.5C599.802 92.4089 600.297 92.1484 600.609 91.7188C600.935 91.276 601.15 90.5339 601.254 89.4922H604.496C604.327 91.1198 603.969 92.3633 603.422 93.2227C602.888 94.069 602.061 94.6484 600.941 94.9609C599.822 95.2734 598.305 95.4297 596.391 95.4297C594.333 95.4297 592.673 95.1432 591.41 94.5703C590.147 93.9974 589.223 93.138 588.637 91.9922C588.064 90.8464 587.777 89.4141 587.777 87.6953ZM600.98 82.6367V79.8047C600.98 78.9714 600.779 78.3333 600.375 77.8906C599.984 77.4479 599.438 77.1419 598.734 76.9727C598.031 76.8034 597.204 76.7188 596.254 76.7188C594.796 76.7188 593.63 76.9727 592.758 77.4805C591.885 77.9883 591.449 78.8802 591.449 80.1562V82.6367H600.98ZM629.34 95.4297C628.116 95.4297 627.042 95.2148 626.117 94.7852C625.206 94.3424 624.477 93.9518 623.93 93.6133L623.461 95H620.746V65.6055H624.418V75.2734C625.082 74.8958 625.915 74.5768 626.918 74.3164C627.921 74.043 628.975 73.9062 630.082 73.9062C631.788 73.9062 633.207 74.1992 634.34 74.7852C635.473 75.3581 636.319 76.1523 636.879 77.168C637.452 78.1706 637.738 79.3229 637.738 80.625V88.125C637.738 89.5052 637.413 90.7487 636.762 91.8555C636.111 92.9622 635.16 93.8346 633.91 94.4727C632.66 95.1107 631.137 95.4297 629.34 95.4297ZM628.793 92.5391C630.238 92.5391 631.475 92.1875 632.504 91.4844C633.546 90.7682 634.066 89.7786 634.066 88.5156V80.3516C634.066 79.1146 633.663 78.2031 632.855 77.6172C632.061 77.0182 630.987 76.7188 629.633 76.7188C628.773 76.7188 627.862 76.8555 626.898 77.1289C625.935 77.4023 625.108 77.6953 624.418 78.0078V91.3281C624.952 91.6276 625.596 91.9076 626.352 92.168C627.107 92.4154 627.921 92.5391 628.793 92.5391ZM649.711 95.4297C648.188 95.4297 646.944 95.1693 645.98 94.6484C645.03 94.1146 644.327 93.418 643.871 92.5586C643.428 91.6862 643.207 90.7552 643.207 89.7656C643.207 88.724 643.409 87.8516 643.812 87.1484C644.229 86.4323 645.004 85.7878 646.137 85.2148C647.283 84.6289 648.956 84.0169 651.156 83.3789C652.302 83.0404 653.22 82.7409 653.91 82.4805C654.6 82.2201 655.102 81.888 655.414 81.4844C655.727 81.0807 655.883 80.5013 655.883 79.7461C655.883 79.1862 655.792 78.6784 655.609 78.2227C655.44 77.7669 655.082 77.4023 654.535 77.1289C654.001 76.8555 653.181 76.7188 652.074 76.7188C650.694 76.7188 649.685 76.862 649.047 77.1484C648.409 77.4349 647.999 77.8125 647.816 78.2812C647.647 78.737 647.562 79.2448 647.562 79.8047V80.7227H644.027V79.7852C644.027 77.7409 644.711 76.25 646.078 75.3125C647.445 74.375 649.483 73.9062 652.191 73.9062C654.014 73.9062 655.46 74.1992 656.527 74.7852C657.608 75.3581 658.383 76.1719 658.852 77.2266C659.32 78.2812 659.555 79.5182 659.555 80.9375V89.7656C659.555 90.8594 659.691 91.5625 659.965 91.875C660.251 92.1875 660.837 92.3438 661.723 92.3438L661.293 95.1562H660.551C659.171 95.1562 658.174 94.8893 657.562 94.3555C656.951 93.8086 656.488 93.0469 656.176 92.0703C655.876 92.5391 655.46 93.0339 654.926 93.5547C654.405 94.0755 653.721 94.5182 652.875 94.8828C652.042 95.2474 650.987 95.4297 649.711 95.4297ZM650.16 92.6953C650.902 92.6953 651.677 92.5391 652.484 92.2266C653.292 91.901 654.008 91.4779 654.633 90.957C655.271 90.4232 655.688 89.8372 655.883 89.1992V83.75C655.596 84.0365 655.095 84.4141 654.379 84.8828C653.676 85.3385 652.667 85.7552 651.352 86.1328C649.75 86.5885 648.572 87.0573 647.816 87.5391C647.074 88.0208 646.703 88.724 646.703 89.6484C646.703 90.6901 646.97 91.4583 647.504 91.9531C648.051 92.4479 648.936 92.6953 650.16 92.6953ZM666.293 93.75L667.191 91.0547C667.647 91.3021 668.435 91.6276 669.555 92.0312C670.674 92.4219 671.938 92.6172 673.344 92.6172C674.971 92.6172 676.072 92.3177 676.645 91.7188C677.217 91.1198 677.504 90.3841 677.504 89.5117C677.504 88.7044 677.393 88.0664 677.172 87.5977C676.964 87.1289 676.371 86.7122 675.395 86.3477L670.473 84.5508C668.975 84.0039 667.927 83.3594 667.328 82.6172C666.729 81.875 666.43 80.8594 666.43 79.5703C666.43 77.8255 666.911 76.4453 667.875 75.4297C668.839 74.4141 670.596 73.9062 673.148 73.9062C674.607 73.9062 675.941 74.0234 677.152 74.2578C678.376 74.4792 679.366 74.7396 680.121 75.0391L679.281 77.8516C678.891 77.6823 678.376 77.513 677.738 77.3438C677.1 77.1745 676.436 77.0312 675.746 76.9141C675.056 76.7839 674.418 76.7188 673.832 76.7188C672.152 76.7188 671.065 76.9336 670.57 77.3633C670.089 77.7799 669.848 78.457 669.848 79.3945C669.848 80.0326 669.965 80.5078 670.199 80.8203C670.447 81.1198 670.922 81.4062 671.625 81.6797L676.488 83.5742C677.647 84.0169 678.52 84.4922 679.105 85C679.704 85.4948 680.108 86.0938 680.316 86.7969C680.525 87.5 680.629 88.3919 680.629 89.4727C680.629 90.5534 680.401 91.5495 679.945 92.4609C679.503 93.3594 678.78 94.082 677.777 94.6289C676.788 95.1628 675.473 95.4297 673.832 95.4297C671.905 95.4297 670.284 95.2148 668.969 94.7852C667.654 94.3555 666.762 94.0104 666.293 93.75ZM686.918 74.2969H690.59V95H686.918V74.2969ZM686.859 69.668V65.6055H690.648V69.668H686.859ZM697.309 93.75L698.207 91.0547C698.663 91.3021 699.451 91.6276 700.57 92.0312C701.69 92.4219 702.953 92.6172 704.359 92.6172C705.987 92.6172 707.087 92.3177 707.66 91.7188C708.233 91.1198 708.52 90.3841 708.52 89.5117C708.52 88.7044 708.409 88.0664 708.188 87.5977C707.979 87.1289 707.387 86.7122 706.41 86.3477L701.488 84.5508C699.991 84.0039 698.943 83.3594 698.344 82.6172C697.745 81.875 697.445 80.8594 697.445 79.5703C697.445 77.8255 697.927 76.4453 698.891 75.4297C699.854 74.4141 701.612 73.9062 704.164 73.9062C705.622 73.9062 706.957 74.0234 708.168 74.2578C709.392 74.4792 710.382 74.7396 711.137 75.0391L710.297 77.8516C709.906 77.6823 709.392 77.513 708.754 77.3438C708.116 77.1745 707.452 77.0312 706.762 76.9141C706.072 76.7839 705.434 76.7188 704.848 76.7188C703.168 76.7188 702.081 76.9336 701.586 77.3633C701.104 77.7799 700.863 78.457 700.863 79.3945C700.863 80.0326 700.98 80.5078 701.215 80.8203C701.462 81.1198 701.938 81.4062 702.641 81.6797L707.504 83.5742C708.663 84.0169 709.535 84.4922 710.121 85C710.72 85.4948 711.124 86.0938 711.332 86.7969C711.54 87.5 711.645 88.3919 711.645 89.4727C711.645 90.5534 711.417 91.5495 710.961 92.4609C710.518 93.3594 709.796 94.082 708.793 94.6289C707.803 95.1628 706.488 95.4297 704.848 95.4297C702.921 95.4297 701.299 95.2148 699.984 94.7852C698.669 94.3555 697.777 94.0104 697.309 93.75ZM720.805 87.7539C720.609 85.8268 720.434 83.8607 720.277 81.8555C720.121 79.8503 719.984 77.9036 719.867 76.0156C719.75 74.1276 719.659 72.3893 719.594 70.8008C719.529 69.2122 719.496 67.8646 719.496 66.7578H723.441C723.441 67.8516 723.402 69.1927 723.324 70.7812C723.246 72.3698 723.135 74.1081 722.992 75.9961C722.862 77.8711 722.699 79.8177 722.504 81.8359C722.322 83.8411 722.12 85.8138 721.898 87.7539H720.805ZM719.086 95V90.3906H723.656V95H719.086Z" fill="white"/>
</svg>
