<svg width="1096" height="70" viewBox="0 0 1096 70" fill="none" xmlns="http://www.w3.org/2000/svg">
<path d="M58.1918 69.768C55.4398 69.768 53.0718 68.968 51.0878 67.368C49.1038 65.768 47.6638 63.048 46.7678 59.208L42.9278 43.464C42.1598 46.344 41.2638 49.16 40.2398 51.912C39.2158 54.6 38.2238 57 37.2638 59.112C35.6638 62.888 33.9038 65.608 31.9838 67.272C30.1278 68.936 27.9838 69.768 25.5518 69.768C22.7998 69.768 20.4638 68.84 18.5438 66.984C16.6878 65.128 15.3118 62.536 14.4158 59.208L1.74375 11.016C0.71975 7.752 0.87975 5.224 2.22375 3.432C3.63175 1.64 5.48775 0.743998 7.79175 0.743998C9.90375 0.743998 11.5358 1.448 12.6878 2.856C13.9038 4.264 14.9278 6.664 15.7598 10.056L26.8958 55.56L33.5198 34.632C34.7998 30.664 35.5998 27.528 35.9198 25.224C36.3038 22.856 36.4958 21.032 36.4958 19.752C36.4958 17.704 36.2718 15.976 35.8238 14.568C35.4398 13.16 35.0878 11.848 34.7678 10.632C33.9998 7.304 34.2238 5 35.4398 3.72C36.7198 2.44 38.3518 1.8 40.3358 1.8C42.3838 1.8 44.0478 2.44 45.3278 3.72C46.6718 4.936 47.6638 7.048 48.3038 10.056L58.7678 55.464C61.8398 46.504 64.0158 39.272 65.2958 33.768C66.6398 28.264 67.3118 24.072 67.3118 21.192C67.3118 18.248 67.1838 15.976 66.9278 14.376C66.6718 12.776 66.3838 11.464 66.0638 10.44C65.8078 9.352 65.6798 8.264 65.6798 7.17599C65.6798 5.576 66.2558 4.104 67.4078 2.75999C68.6238 1.416 70.6078 0.743998 73.3598 0.743998C75.4718 0.743998 77.1038 1.512 78.2558 3.048C79.4078 4.584 80.1758 6.472 80.5598 8.712C81.0078 10.952 81.2318 13.128 81.2318 15.24C81.2318 18.248 80.8798 21.704 80.1758 25.608C79.4718 29.512 78.5438 33.544 77.3918 37.704C76.3038 41.8 75.0878 45.736 73.7438 49.512C72.3998 53.288 71.0558 56.552 69.7118 59.304C67.9198 63.08 66.1278 65.768 64.3358 67.368C62.5438 68.968 60.4958 69.768 58.1918 69.768ZM94.3883 69C93.1723 69 92.1483 68.52 91.3163 67.56C90.4843 66.6 90.0683 65.384 90.0683 63.912V18.984C90.0683 12.968 91.9243 8.616 95.6363 5.928C99.3483 3.176 105.332 1.8 113.588 1.8H125.588C127.7 1.8 129.332 2.376 130.484 3.528C131.7 4.616 132.308 6.184 132.308 8.232C132.308 10.216 131.7 11.752 130.484 12.84C129.332 13.928 127.7 14.472 125.588 14.472H112.916C109.716 14.472 107.412 15.112 106.004 16.392C104.596 17.672 103.892 19.752 103.892 22.632C103.892 23.656 103.828 24.936 103.7 26.472C103.572 27.944 103.38 29.64 103.124 31.56C104.212 30.664 105.588 29.96 107.252 29.448C108.916 28.872 110.548 28.584 112.148 28.584H121.652C123.444 28.584 124.82 29.128 125.78 30.216C126.804 31.304 127.316 32.808 127.316 34.728C127.316 36.648 126.804 38.184 125.78 39.336C124.756 40.488 123.38 41.064 121.652 41.064H111.38C108.436 41.064 106.452 41.672 105.428 42.888C104.404 44.04 103.892 46.408 103.892 49.992V56.328H125.588C127.956 56.328 129.652 56.84 130.676 57.864C131.764 58.888 132.308 60.552 132.308 62.856C132.308 65.032 131.796 66.6 130.772 67.56C129.748 68.52 128.02 69 125.588 69H94.3883ZM215.129 69.768C212.377 69.768 210.009 68.968 208.025 67.368C206.041 65.768 204.601 63.048 203.705 59.208L199.865 43.464C199.097 46.344 198.201 49.16 197.177 51.912C196.153 54.6 195.161 57 194.201 59.112C192.601 62.888 190.841 65.608 188.921 67.272C187.065 68.936 184.921 69.768 182.489 69.768C179.737 69.768 177.401 68.84 175.481 66.984C173.625 65.128 172.249 62.536 171.353 59.208L158.681 11.016C157.657 7.752 157.817 5.224 159.161 3.432C160.569 1.64 162.425 0.743998 164.729 0.743998C166.841 0.743998 168.473 1.448 169.625 2.856C170.841 4.264 171.865 6.664 172.697 10.056L183.833 55.56L190.457 34.632C191.737 30.664 192.537 27.528 192.857 25.224C193.241 22.856 193.433 21.032 193.433 19.752C193.433 17.704 193.209 15.976 192.761 14.568C192.377 13.16 192.025 11.848 191.705 10.632C190.937 7.304 191.161 5 192.377 3.72C193.657 2.44 195.289 1.8 197.273 1.8C199.321 1.8 200.985 2.44 202.265 3.72C203.609 4.936 204.601 7.048 205.241 10.056L215.705 55.464C218.777 46.504 220.953 39.272 222.233 33.768C223.577 28.264 224.249 24.072 224.249 21.192C224.249 18.248 224.121 15.976 223.865 14.376C223.609 12.776 223.321 11.464 223.001 10.44C222.745 9.352 222.617 8.264 222.617 7.17599C222.617 5.576 223.193 4.104 224.345 2.75999C225.561 1.416 227.545 0.743998 230.297 0.743998C232.409 0.743998 234.041 1.512 235.193 3.048C236.345 4.584 237.113 6.472 237.497 8.712C237.945 10.952 238.169 13.128 238.169 15.24C238.169 18.248 237.817 21.704 237.113 25.608C236.409 29.512 235.481 33.544 234.329 37.704C233.241 41.8 232.025 45.736 230.681 49.512C229.337 53.288 227.993 56.552 226.649 59.304C224.857 63.08 223.065 65.768 221.273 67.368C219.481 68.968 217.433 69.768 215.129 69.768ZM260.537 63.336C260.537 67.624 258.297 69.768 253.817 69.768C251.641 69.768 249.913 69.224 248.633 68.136C247.353 67.048 246.713 65.448 246.713 63.336V25.32C246.713 16.488 248.505 10.184 252.089 6.408C255.673 2.632 261.273 0.743998 268.889 0.743998C276.697 0.743998 282.457 2.664 286.169 6.504C289.881 10.344 291.737 16.616 291.737 25.32V63.336C291.737 67.624 289.497 69.768 285.017 69.768C282.841 69.768 281.113 69.224 279.833 68.136C278.553 67.048 277.913 65.448 277.913 63.336V40.2C276.697 41.288 275.353 42.216 273.881 42.984C272.473 43.752 270.809 44.136 268.889 44.136C266.073 44.136 263.961 44.648 262.553 45.672C261.209 46.696 260.537 48.52 260.537 51.144V63.336ZM259.961 35.208C260.985 34.184 262.201 33.384 263.609 32.808C265.081 32.232 266.841 31.944 268.889 31.944C271.321 31.944 273.177 31.752 274.457 31.368C275.801 30.984 276.729 30.248 277.241 29.16C277.753 28.072 278.009 26.472 278.009 24.36C278.009 19.624 277.337 16.392 275.993 14.664C274.649 12.872 272.249 11.976 268.793 11.976C265.593 11.976 263.385 12.904 262.169 14.76C261.017 16.552 260.441 19.88 260.441 24.744C260.441 27.24 260.409 29.352 260.345 31.08C260.281 32.808 260.153 34.184 259.961 35.208ZM318.381 63.336C318.381 67.624 316.141 69.768 311.661 69.768C309.485 69.768 307.757 69.224 306.477 68.136C305.197 67.048 304.557 65.448 304.557 63.336V25.608C304.557 19.592 305.357 14.792 306.957 11.208C308.557 7.56 311.181 4.904 314.829 3.23999C318.477 1.576 323.341 0.743998 329.421 0.743998C337.485 0.743998 343.565 2.632 347.661 6.408C351.821 10.12 353.901 16.52 353.901 25.608V63.336C353.901 67.624 351.661 69.768 347.181 69.768C345.005 69.768 343.277 69.224 341.997 68.136C340.717 67.048 340.077 65.448 340.077 63.336V25.608C340.077 20.872 339.245 17.512 337.581 15.528C335.981 13.48 333.261 12.456 329.421 12.456C326.413 12.456 324.109 12.904 322.509 13.8C320.909 14.696 319.821 16.104 319.245 18.024C318.669 19.944 318.381 22.472 318.381 25.608V63.336ZM382.938 69.768C381.338 69.768 379.706 69.416 378.042 68.712C376.442 67.944 375.642 66.728 375.642 65.064V20.136C375.642 18.088 376.154 16.68 377.178 15.912C378.202 15.144 379.034 14.664 379.674 14.472H361.146C359.61 14.472 358.458 13.8 357.69 12.456C356.986 11.048 356.634 9.608 356.634 8.136C356.634 6.536 357.018 5.096 357.786 3.816C358.554 2.472 359.674 1.8 361.146 1.8H404.058C405.53 1.8 406.65 2.472 407.418 3.816C408.186 5.096 408.57 6.536 408.57 8.136C408.57 9.608 408.186 11.048 407.418 12.456C406.714 13.8 405.594 14.472 404.058 14.472H389.466V65.064C389.466 66.664 388.794 67.848 387.45 68.616C386.17 69.384 384.666 69.768 382.938 69.768ZM459.412 69.768C454.676 69.768 452.308 67.624 452.308 63.336V44.232L432.34 11.496C431.188 9.512 430.74 7.72 430.996 6.12C431.316 4.52 432.052 3.24 433.204 2.27999C434.42 1.256 435.796 0.743998 437.332 0.743998C439.444 0.743998 441.108 1.384 442.324 2.664C443.604 3.944 445.044 6.12 446.644 9.192L459.7 32.712C462.26 30.344 464.276 28.36 465.748 26.76C467.22 25.096 468.276 23.528 468.916 22.056C469.556 20.584 469.876 18.952 469.876 17.16C469.876 15.368 469.684 13.384 469.3 11.208C468.916 9.032 468.724 7.432 468.724 6.408C468.724 4.808 469.396 3.464 470.74 2.376C472.084 1.288 473.716 0.743998 475.636 0.743998C477.94 0.743998 479.7 1.896 480.916 4.2C482.196 6.44 482.836 9.736 482.836 14.088C482.836 17.672 482.356 21.032 481.396 24.168C480.5 27.304 478.836 30.472 476.404 33.672C474.036 36.872 470.612 40.36 466.132 44.136V63.336C466.132 65.512 465.588 67.144 464.5 68.232C463.476 69.256 461.78 69.768 459.412 69.768ZM515.126 69.768C509.558 69.768 504.822 68.68 500.918 66.504C497.014 64.264 494.038 60.616 491.99 55.56C490.006 50.504 489.014 43.656 489.014 35.016C489.014 26.376 490.006 19.56 491.99 14.568C494.038 9.576 497.014 6.024 500.918 3.912C504.822 1.8 509.558 0.743998 515.126 0.743998C520.758 0.743998 525.494 1.8 529.334 3.912C533.238 6.024 536.182 9.576 538.166 14.568C540.214 19.56 541.238 26.376 541.238 35.016C541.238 43.656 540.214 50.504 538.166 55.56C536.182 60.616 533.238 64.264 529.334 66.504C525.494 68.68 520.758 69.768 515.126 69.768ZM515.126 57.096C517.686 57.096 519.862 56.488 521.654 55.272C523.51 54.056 524.918 51.848 525.878 48.648C526.902 45.448 527.414 40.904 527.414 35.016C527.414 29.064 526.902 24.552 525.878 21.48C524.918 18.344 523.51 16.232 521.654 15.144C519.862 13.992 517.686 13.416 515.126 13.416C512.63 13.416 510.454 13.992 508.598 15.144C506.742 16.232 505.302 18.344 504.278 21.48C503.318 24.552 502.838 29.064 502.838 35.016C502.838 40.904 503.318 45.448 504.278 48.648C505.302 51.848 506.742 54.056 508.598 55.272C510.454 56.488 512.63 57.096 515.126 57.096ZM576.053 69.768C568.309 69.768 562.389 67.848 558.293 64.008C554.261 60.104 552.245 54.248 552.245 46.44V8.232C552.245 3.24 554.549 0.743998 559.157 0.743998C563.765 0.743998 566.069 3.24 566.069 8.232V46.44C566.069 50.472 566.933 53.416 568.661 55.272C570.453 57.128 572.917 58.056 576.053 58.056C583.733 58.056 587.573 54.184 587.573 46.44V8.232C587.573 3.24 589.877 0.743998 594.485 0.743998C599.093 0.743998 601.397 3.24 601.397 8.232V46.44C601.397 54.184 599.253 60.008 594.965 63.912C590.677 67.816 584.373 69.768 576.053 69.768ZM620.755 69.576C618.579 69.576 616.851 69.096 615.571 68.136C614.291 67.112 613.651 65.672 613.651 63.816V22.344C613.651 14.92 615.603 9.48 619.507 6.024C623.475 2.504 629.651 0.743998 638.035 0.743998C644.883 0.743998 650.099 2.472 653.683 5.928C657.331 9.32 659.155 14.248 659.155 20.712C659.155 22.952 659.091 25.128 658.963 27.24C658.835 29.288 658.643 30.728 658.387 31.56C657.427 35.08 655.667 37.768 653.107 39.624C656.563 42.504 658.291 45.832 658.291 49.608V63.816C658.291 67.784 656.083 69.768 651.667 69.768C649.491 69.768 647.763 69.288 646.483 68.328C645.203 67.304 644.563 65.8 644.563 63.816V51.144C644.563 47.688 644.019 45.256 642.931 43.848C641.907 42.44 639.795 41.736 636.595 41.736C633.139 41.736 630.739 42.504 629.395 44.04C628.115 45.512 627.475 48.264 627.475 52.296V63.816C627.475 67.656 625.235 69.576 620.755 69.576ZM626.707 33.864C628.307 32.52 629.715 31.656 630.931 31.272C632.211 30.824 634.035 30.6 636.403 30.6C639.603 30.6 641.939 30.44 643.411 30.12C644.947 29.8 645.939 29.128 646.387 28.104C646.835 27.08 647.059 25.48 647.059 23.304C647.059 18.952 646.387 15.944 645.043 14.28C643.763 12.552 641.427 11.688 638.035 11.688C634.259 11.688 631.571 12.552 629.971 14.28C628.435 16.008 627.667 19.016 627.667 23.304C627.667 25.416 627.571 27.304 627.379 28.968C627.251 30.568 627.027 32.2 626.707 33.864ZM707.504 69.768C705.072 69.768 702.512 69.576 699.824 69.192C697.136 68.808 694.96 68.296 693.296 67.656C690.608 66.568 689.264 64.744 689.264 62.184C689.264 60.328 689.808 58.856 690.896 57.768C692.048 56.616 693.84 56.04 696.272 56.04C697.936 56.04 699.952 56.264 702.32 56.712C704.688 57.16 706.768 57.384 708.56 57.384C712.528 57.384 715.376 56.872 717.104 55.848C718.832 54.824 719.696 52.744 719.696 49.608C719.696 47.752 719.024 46.184 717.68 44.904C716.4 43.624 713.808 42.408 709.904 41.256C702.8 39.144 697.648 36.52 694.448 33.384C691.312 30.248 689.744 26.184 689.744 21.192C689.744 16.84 690.704 13.16 692.624 10.152C694.608 7.08 697.328 4.744 700.784 3.144C704.24 1.544 708.176 0.743998 712.592 0.743998C717.776 0.743998 722.064 1.448 725.456 2.856C728.144 3.88 729.488 5.704 729.488 8.328C729.488 10.184 728.912 11.688 727.76 12.84C726.672 13.928 724.912 14.472 722.48 14.472C720.88 14.472 719.152 14.312 717.296 13.992C715.44 13.608 713.616 13.416 711.824 13.416C709.072 13.416 706.992 13.896 705.584 14.856C704.176 15.816 703.472 17.416 703.472 19.656C703.472 21.704 704.464 23.56 706.448 25.224C708.432 26.888 712.08 28.52 717.392 30.12C723.472 31.912 727.664 34.344 729.968 37.416C732.272 40.424 733.424 44.264 733.424 48.936C733.424 55.72 731.152 60.904 726.608 64.488C722.128 68.008 715.76 69.768 707.504 69.768ZM766.928 69.768C759.184 69.768 753.264 67.848 749.168 64.008C745.136 60.104 743.12 54.248 743.12 46.44V8.232C743.12 3.24 745.424 0.743998 750.032 0.743998C754.64 0.743998 756.944 3.24 756.944 8.232V46.44C756.944 50.472 757.808 53.416 759.536 55.272C761.328 57.128 763.792 58.056 766.928 58.056C774.608 58.056 778.448 54.184 778.448 46.44V8.232C778.448 3.24 780.752 0.743998 785.36 0.743998C789.968 0.743998 792.272 3.24 792.272 8.232V46.44C792.272 54.184 790.128 60.008 785.84 63.912C781.552 67.816 775.248 69.768 766.928 69.768ZM818.35 63.336C818.35 67.624 816.11 69.768 811.63 69.768C809.454 69.768 807.726 69.224 806.446 68.136C805.166 67.048 804.526 65.448 804.526 63.336V22.344C804.526 15.176 806.414 9.8 810.19 6.216C813.966 2.568 820.302 0.743998 829.198 0.743998C835.79 0.743998 840.942 2.504 844.654 6.024C848.43 9.544 850.318 15.208 850.318 23.016C850.318 29.8 848.526 34.984 844.942 38.568C841.422 42.152 836.43 43.944 829.966 43.944C826.318 43.944 823.662 44.232 821.998 44.808C820.398 45.32 819.374 46.312 818.926 47.784C818.542 49.192 818.35 51.272 818.35 54.024V63.336ZM817.486 35.592C818.254 34.952 818.99 34.408 819.694 33.96C820.398 33.448 821.326 33.064 822.478 32.808C823.694 32.488 825.294 32.328 827.278 32.328C830.03 32.328 832.206 32.104 833.806 31.656C835.406 31.144 836.526 30.216 837.166 28.872C837.87 27.528 838.222 25.576 838.222 23.016C838.222 19.624 837.806 17.16 836.974 15.624C836.206 14.024 835.086 13 833.614 12.552C832.206 12.04 830.478 11.784 828.43 11.784C824.718 11.784 822.094 12.456 820.558 13.8C819.086 15.144 818.35 17.48 818.35 20.808C818.35 23.176 818.286 25.768 818.158 28.584C818.03 31.4 817.806 33.736 817.486 35.592ZM872.537 63.336C872.537 67.624 870.297 69.768 865.817 69.768C863.641 69.768 861.913 69.224 860.633 68.136C859.353 67.048 858.713 65.448 858.713 63.336V22.344C858.713 15.176 860.601 9.8 864.377 6.216C868.153 2.568 874.489 0.743998 883.385 0.743998C889.977 0.743998 895.129 2.504 898.841 6.024C902.617 9.544 904.505 15.208 904.505 23.016C904.505 29.8 902.713 34.984 899.129 38.568C895.609 42.152 890.617 43.944 884.153 43.944C880.505 43.944 877.849 44.232 876.185 44.808C874.585 45.32 873.561 46.312 873.113 47.784C872.729 49.192 872.537 51.272 872.537 54.024V63.336ZM871.673 35.592C872.441 34.952 873.177 34.408 873.881 33.96C874.585 33.448 875.513 33.064 876.665 32.808C877.881 32.488 879.481 32.328 881.465 32.328C884.217 32.328 886.393 32.104 887.993 31.656C889.593 31.144 890.713 30.216 891.353 28.872C892.057 27.528 892.409 25.576 892.409 23.016C892.409 19.624 891.993 17.16 891.161 15.624C890.393 14.024 889.273 13 887.801 12.552C886.393 12.04 884.665 11.784 882.617 11.784C878.905 11.784 876.281 12.456 874.745 13.8C873.273 15.144 872.537 17.48 872.537 20.808C872.537 23.176 872.473 25.768 872.345 28.584C872.217 31.4 871.993 33.736 871.673 35.592ZM938.033 69.768C932.465 69.768 927.729 68.68 923.825 66.504C919.921 64.264 916.945 60.616 914.897 55.56C912.913 50.504 911.921 43.656 911.921 35.016C911.921 26.376 912.913 19.56 914.897 14.568C916.945 9.576 919.921 6.024 923.825 3.912C927.729 1.8 932.465 0.743998 938.033 0.743998C943.665 0.743998 948.401 1.8 952.241 3.912C956.145 6.024 959.089 9.576 961.073 14.568C963.121 19.56 964.145 26.376 964.145 35.016C964.145 43.656 963.121 50.504 961.073 55.56C959.089 60.616 956.145 64.264 952.241 66.504C948.401 68.68 943.665 69.768 938.033 69.768ZM938.033 57.096C940.593 57.096 942.769 56.488 944.561 55.272C946.417 54.056 947.825 51.848 948.785 48.648C949.809 45.448 950.321 40.904 950.321 35.016C950.321 29.064 949.809 24.552 948.785 21.48C947.825 18.344 946.417 16.232 944.561 15.144C942.769 13.992 940.593 13.416 938.033 13.416C935.537 13.416 933.361 13.992 931.505 15.144C929.649 16.232 928.209 18.344 927.185 21.48C926.225 24.552 925.745 29.064 925.745 35.016C925.745 40.904 926.225 45.448 927.185 48.648C928.209 51.848 929.649 54.056 931.505 55.272C933.361 56.488 935.537 57.096 938.033 57.096ZM982.255 69.576C980.079 69.576 978.351 69.096 977.071 68.136C975.791 67.112 975.151 65.672 975.151 63.816V22.344C975.151 14.92 977.103 9.48 981.007 6.024C984.975 2.504 991.151 0.743998 999.535 0.743998C1006.38 0.743998 1011.6 2.472 1015.18 5.928C1018.83 9.32 1020.65 14.248 1020.65 20.712C1020.65 22.952 1020.59 25.128 1020.46 27.24C1020.33 29.288 1020.14 30.728 1019.89 31.56C1018.93 35.08 1017.17 37.768 1014.61 39.624C1018.06 42.504 1019.79 45.832 1019.79 49.608V63.816C1019.79 67.784 1017.58 69.768 1013.17 69.768C1010.99 69.768 1009.26 69.288 1007.98 68.328C1006.7 67.304 1006.06 65.8 1006.06 63.816V51.144C1006.06 47.688 1005.52 45.256 1004.43 43.848C1003.41 42.44 1001.29 41.736 998.095 41.736C994.639 41.736 992.239 42.504 990.895 44.04C989.615 45.512 988.975 48.264 988.975 52.296V63.816C988.975 67.656 986.735 69.576 982.255 69.576ZM988.207 33.864C989.807 32.52 991.215 31.656 992.431 31.272C993.711 30.824 995.535 30.6 997.903 30.6C1001.1 30.6 1003.44 30.44 1004.91 30.12C1006.45 29.8 1007.44 29.128 1007.89 28.104C1008.33 27.08 1008.56 25.48 1008.56 23.304C1008.56 18.952 1007.89 15.944 1006.54 14.28C1005.26 12.552 1002.93 11.688 999.535 11.688C995.759 11.688 993.071 12.552 991.471 14.28C989.935 16.008 989.167 19.016 989.167 23.304C989.167 25.416 989.071 27.304 988.879 28.968C988.751 30.568 988.527 32.2 988.207 33.864ZM1050.25 69.768C1048.65 69.768 1047.02 69.416 1045.35 68.712C1043.75 67.944 1042.95 66.728 1042.95 65.064V20.136C1042.95 18.088 1043.47 16.68 1044.49 15.912C1045.51 15.144 1046.35 14.664 1046.99 14.472H1028.46C1026.92 14.472 1025.77 13.8 1025 12.456C1024.3 11.048 1023.95 9.608 1023.95 8.136C1023.95 6.536 1024.33 5.096 1025.1 3.816C1025.87 2.472 1026.99 1.8 1028.46 1.8H1071.37C1072.84 1.8 1073.96 2.472 1074.73 3.816C1075.5 5.096 1075.88 6.536 1075.88 8.136C1075.88 9.608 1075.5 11.048 1074.73 12.456C1074.03 13.8 1072.91 14.472 1071.37 14.472H1056.78V65.064C1056.78 66.664 1056.11 67.848 1054.76 68.616C1053.48 69.384 1051.98 69.768 1050.25 69.768ZM1088.28 48.936C1085.79 48.936 1083.99 48.36 1082.91 47.208C1081.88 45.992 1081.37 44.392 1081.37 42.408V7.272C1081.37 5.224 1081.88 3.624 1082.91 2.472C1083.99 1.32 1085.79 0.743998 1088.28 0.743998C1090.78 0.743998 1092.54 1.32 1093.56 2.472C1094.65 3.624 1095.19 5.224 1095.19 7.272V42.408C1095.19 44.392 1094.65 45.992 1093.56 47.208C1092.54 48.36 1090.78 48.936 1088.28 48.936ZM1088.28 69.768C1085.98 69.768 1084.12 69.064 1082.71 67.656C1081.37 66.248 1080.7 64.456 1080.7 62.28C1080.7 60.04 1081.37 58.216 1082.71 56.808C1084.12 55.4 1085.98 54.696 1088.28 54.696C1090.52 54.696 1092.35 55.4 1093.75 56.808C1095.16 58.216 1095.87 60.04 1095.87 62.28C1095.87 64.456 1095.16 66.248 1093.75 67.656C1092.35 69.064 1090.52 69.768 1088.28 69.768Z" fill="white"/>
</svg>
