<svg width="959" height="130" viewBox="0 0 959 130" fill="none" xmlns="http://www.w3.org/2000/svg">
<mask id="path-1-outside-1_81_64" maskUnits="userSpaceOnUse" x="-3" y="-3" width="965" height="136" fill="black">
<rect fill="white" x="-3" y="-3" width="965" height="136"/>
<path d="M50.2353 129.44C47.2353 129.44 44.1753 128.78 41.0553 127.46C38.0553 126.02 36.5553 123.74 36.5553 120.62V36.38C36.5553 32.54 37.5153 29.9 39.4353 28.46C41.3553 27.02 42.9153 26.12 44.1153 25.76H9.37531C6.49531 25.76 4.33531 24.5 2.89531 21.98C1.57531 19.34 0.915313 16.64 0.915313 13.88C0.915313 10.88 1.63531 8.17999 3.07531 5.78C4.51531 3.25999 6.61531 1.99999 9.37531 1.99999H89.8353C92.5953 1.99999 94.6953 3.25999 96.1353 5.78C97.5753 8.17999 98.2953 10.88 98.2953 13.88C98.2953 16.64 97.5753 19.34 96.1353 21.98C94.8153 24.5 92.7153 25.76 89.8353 25.76H62.4753V120.62C62.4753 123.62 61.2153 125.84 58.6953 127.28C56.2953 128.72 53.4753 129.44 50.2353 129.44ZM123.155 129.44C114.275 129.44 109.835 125.42 109.835 117.38V12.08C109.835 7.87999 110.855 4.81999 112.895 2.89999C114.935 0.979994 118.175 0.0199955 122.615 0.0199955C131.375 0.0199955 135.755 4.03999 135.755 12.08V30.08C135.755 44.96 135.335 53.84 134.495 56.72C137.615 53.6 140.975 51.44 144.575 50.24C148.175 49.04 152.915 48.44 158.795 48.44H176.435V12.08C176.435 7.87999 177.455 4.81999 179.495 2.89999C181.535 0.979994 184.775 0.0199955 189.215 0.0199955C197.975 0.0199955 202.355 4.03999 202.355 12.08V117.38C202.355 121.46 201.335 124.52 199.295 126.56C197.375 128.48 194.195 129.44 189.755 129.44C180.875 129.44 176.435 125.42 176.435 117.38V64.1C175.715 66.26 173.375 68.06 169.415 69.5C165.455 70.82 160.835 71.48 155.555 71.48C147.995 71.48 142.775 73.04 139.895 76.16C137.135 79.16 135.755 84.74 135.755 92.9V117.38C135.755 121.46 134.735 124.52 132.695 126.56C130.775 128.48 127.595 129.44 123.155 129.44ZM252.98 117.38C252.98 125.42 248.78 129.44 240.38 129.44C236.3 129.44 233.06 128.42 230.66 126.38C228.26 124.34 227.06 121.34 227.06 117.38V46.1C227.06 29.54 230.42 17.72 237.14 10.64C243.86 3.56 254.36 0.0199955 268.64 0.0199955C283.28 0.0199955 294.08 3.62 301.04 10.82C308 18.02 311.48 29.78 311.48 46.1V117.38C311.48 125.42 307.28 129.44 298.88 129.44C294.8 129.44 291.56 128.42 289.16 126.38C286.76 124.34 285.56 121.34 285.56 117.38V74C283.28 76.04 280.76 77.78 278 79.22C275.36 80.66 272.24 81.38 268.64 81.38C263.36 81.38 259.4 82.34 256.76 84.26C254.24 86.18 252.98 89.6 252.98 94.52V117.38ZM251.9 64.64C253.82 62.72 256.1 61.22 258.74 60.14C261.5 59.06 264.8 58.52 268.64 58.52C273.2 58.52 276.68 58.16 279.08 57.44C281.6 56.72 283.34 55.34 284.3 53.3C285.26 51.26 285.74 48.26 285.74 44.3C285.74 35.42 284.48 29.36 281.96 26.12C279.44 22.76 274.94 21.08 268.46 21.08C262.46 21.08 258.32 22.82 256.04 26.3C253.88 29.66 252.8 35.9 252.8 45.02C252.8 49.7 252.74 53.66 252.62 56.9C252.5 60.14 252.26 62.72 251.9 64.64ZM361.437 117.38C361.437 125.42 357.237 129.44 348.837 129.44C344.757 129.44 341.517 128.42 339.117 126.38C336.717 124.34 335.517 121.34 335.517 117.38V46.64C335.517 35.36 337.017 26.36 340.017 19.64C343.017 12.8 347.937 7.81999 354.777 4.69999C361.617 1.57999 370.737 0.0199955 382.137 0.0199955C397.257 0.0199955 408.657 3.56 416.337 10.64C424.137 17.6 428.037 29.6 428.037 46.64V117.38C428.037 125.42 423.837 129.44 415.437 129.44C411.357 129.44 408.117 128.42 405.717 126.38C403.317 124.34 402.117 121.34 402.117 117.38V46.64C402.117 37.76 400.557 31.46 397.437 27.74C394.437 23.9 389.337 21.98 382.137 21.98C376.497 21.98 372.177 22.82 369.177 24.5C366.177 26.18 364.137 28.82 363.057 32.42C361.977 36.02 361.437 40.76 361.437 46.64V117.38ZM525.508 129.44C516.508 129.44 512.008 125.24 512.008 116.84V88.94C512.008 83.18 510.808 78.86 508.408 75.98C506.128 72.98 502.168 71.48 496.528 71.48C490.408 71.48 485.848 72.74 482.848 75.26C479.968 77.78 478.528 82.16 478.528 88.4V115.4C478.528 124.76 474.208 129.44 465.568 129.44C456.928 129.44 452.608 124.76 452.608 115.4V14.06C452.608 4.7 456.928 0.0199955 465.568 0.0199955C474.208 0.0199955 478.528 4.7 478.528 14.06V56.36C480.208 54.68 481.948 53.36 483.748 52.4C485.548 51.44 488.548 50.36 492.748 49.16C498.748 47.48 502.888 43.94 505.168 38.54C507.448 33.14 508.588 24.5 508.588 12.62C508.588 8.17999 509.548 5 511.468 3.08C513.388 1.04 516.448 0.0199955 520.648 0.0199955C529.528 0.0199955 533.968 4.51999 533.968 13.52C533.968 25.52 532.708 35.3 530.188 42.86C527.668 50.3 523.768 56.06 518.488 60.14C531.328 65.66 537.748 75.38 537.748 89.3V116.84C537.748 125.24 533.668 129.44 525.508 129.44ZM641.338 129.44C632.458 129.44 628.018 125.42 628.018 117.38V81.56L590.578 20.18C588.418 16.46 587.578 13.1 588.058 10.1C588.658 7.1 590.038 4.7 592.198 2.89999C594.478 0.979994 597.058 0.0199955 599.938 0.0199955C603.898 0.0199955 607.018 1.21999 609.298 3.61999C611.698 6.02 614.398 10.1 617.398 15.86L641.878 59.96C646.678 55.52 650.458 51.8 653.218 48.8C655.978 45.68 657.958 42.74 659.158 39.98C660.358 37.22 660.958 34.16 660.958 30.8C660.958 27.44 660.598 23.72 659.878 19.64C659.158 15.56 658.798 12.56 658.798 10.64C658.798 7.63999 660.058 5.11999 662.578 3.08C665.098 1.04 668.158 0.0199955 671.758 0.0199955C676.078 0.0199955 679.378 2.18 681.658 6.5C684.058 10.7 685.258 16.88 685.258 25.04C685.258 31.76 684.358 38.06 682.558 43.94C680.878 49.82 677.758 55.76 673.198 61.76C668.758 67.76 662.338 74.3 653.938 81.38V117.38C653.938 121.46 652.918 124.52 650.878 126.56C648.958 128.48 645.778 129.44 641.338 129.44ZM745.803 129.44C735.363 129.44 726.483 127.4 719.163 123.32C711.843 119.12 706.263 112.28 702.423 102.8C698.703 93.32 696.843 80.48 696.843 64.28C696.843 48.08 698.703 35.3 702.423 25.94C706.263 16.58 711.843 9.91999 719.163 5.95999C726.483 1.99999 735.363 0.0199955 745.803 0.0199955C756.363 0.0199955 765.243 1.99999 772.443 5.95999C779.763 9.91999 785.283 16.58 789.003 25.94C792.843 35.3 794.763 48.08 794.763 64.28C794.763 80.48 792.843 93.32 789.003 102.8C785.283 112.28 779.763 119.12 772.443 123.32C765.243 127.4 756.363 129.44 745.803 129.44ZM745.803 105.68C750.603 105.68 754.683 104.54 758.043 102.26C761.523 99.98 764.163 95.84 765.963 89.84C767.883 83.84 768.843 75.32 768.843 64.28C768.843 53.12 767.883 44.66 765.963 38.9C764.163 33.02 761.523 29.06 758.043 27.02C754.683 24.86 750.603 23.78 745.803 23.78C741.123 23.78 737.043 24.86 733.563 27.02C730.083 29.06 727.383 33.02 725.463 38.9C723.663 44.66 722.763 53.12 722.763 64.28C722.763 75.32 723.663 83.84 725.463 89.84C727.383 95.84 730.083 99.98 733.563 102.26C737.043 104.54 741.123 105.68 745.803 105.68ZM860.04 129.44C845.52 129.44 834.42 125.84 826.74 118.64C819.18 111.32 815.4 100.34 815.4 85.7V14.06C815.4 4.7 819.72 0.0199955 828.36 0.0199955C837 0.0199955 841.32 4.7 841.32 14.06V85.7C841.32 93.26 842.94 98.78 846.18 102.26C849.54 105.74 854.16 107.48 860.04 107.48C874.44 107.48 881.64 100.22 881.64 85.7V14.06C881.64 4.7 885.96 0.0199955 894.6 0.0199955C903.24 0.0199955 907.56 4.7 907.56 14.06V85.7C907.56 100.22 903.54 111.14 895.5 118.46C887.46 125.78 875.64 129.44 860.04 129.44ZM944.727 90.38C940.047 90.38 936.687 89.3 934.647 87.14C932.727 84.86 931.767 81.86 931.767 78.14V12.26C931.767 8.42 932.727 5.42 934.647 3.26C936.687 1.1 940.047 0.0199955 944.727 0.0199955C949.407 0.0199955 952.707 1.1 954.627 3.26C956.667 5.42 957.687 8.42 957.687 12.26V78.14C957.687 81.86 956.667 84.86 954.627 87.14C952.707 89.3 949.407 90.38 944.727 90.38ZM944.727 129.44C940.407 129.44 936.927 128.12 934.287 125.48C931.767 122.84 930.507 119.48 930.507 115.4C930.507 111.2 931.767 107.78 934.287 105.14C936.927 102.5 940.407 101.18 944.727 101.18C948.927 101.18 952.347 102.5 954.987 105.14C957.627 107.78 958.947 111.2 958.947 115.4C958.947 119.48 957.627 122.84 954.987 125.48C952.347 128.12 948.927 129.44 944.727 129.44Z"/>
</mask>
<path d="M50.2353 129.44C47.2353 129.44 44.1753 128.78 41.0553 127.46C38.0553 126.02 36.5553 123.74 36.5553 120.62V36.38C36.5553 32.54 37.5153 29.9 39.4353 28.46C41.3553 27.02 42.9153 26.12 44.1153 25.76H9.37531C6.49531 25.76 4.33531 24.5 2.89531 21.98C1.57531 19.34 0.915313 16.64 0.915313 13.88C0.915313 10.88 1.63531 8.17999 3.07531 5.78C4.51531 3.25999 6.61531 1.99999 9.37531 1.99999H89.8353C92.5953 1.99999 94.6953 3.25999 96.1353 5.78C97.5753 8.17999 98.2953 10.88 98.2953 13.88C98.2953 16.64 97.5753 19.34 96.1353 21.98C94.8153 24.5 92.7153 25.76 89.8353 25.76H62.4753V120.62C62.4753 123.62 61.2153 125.84 58.6953 127.28C56.2953 128.72 53.4753 129.44 50.2353 129.44ZM123.155 129.44C114.275 129.44 109.835 125.42 109.835 117.38V12.08C109.835 7.87999 110.855 4.81999 112.895 2.89999C114.935 0.979994 118.175 0.0199955 122.615 0.0199955C131.375 0.0199955 135.755 4.03999 135.755 12.08V30.08C135.755 44.96 135.335 53.84 134.495 56.72C137.615 53.6 140.975 51.44 144.575 50.24C148.175 49.04 152.915 48.44 158.795 48.44H176.435V12.08C176.435 7.87999 177.455 4.81999 179.495 2.89999C181.535 0.979994 184.775 0.0199955 189.215 0.0199955C197.975 0.0199955 202.355 4.03999 202.355 12.08V117.38C202.355 121.46 201.335 124.52 199.295 126.56C197.375 128.48 194.195 129.44 189.755 129.44C180.875 129.44 176.435 125.42 176.435 117.38V64.1C175.715 66.26 173.375 68.06 169.415 69.5C165.455 70.82 160.835 71.48 155.555 71.48C147.995 71.48 142.775 73.04 139.895 76.16C137.135 79.16 135.755 84.74 135.755 92.9V117.38C135.755 121.46 134.735 124.52 132.695 126.56C130.775 128.48 127.595 129.44 123.155 129.44ZM252.98 117.38C252.98 125.42 248.78 129.44 240.38 129.44C236.3 129.44 233.06 128.42 230.66 126.38C228.26 124.34 227.06 121.34 227.06 117.38V46.1C227.06 29.54 230.42 17.72 237.14 10.64C243.86 3.56 254.36 0.0199955 268.64 0.0199955C283.28 0.0199955 294.08 3.62 301.04 10.82C308 18.02 311.48 29.78 311.48 46.1V117.38C311.48 125.42 307.28 129.44 298.88 129.44C294.8 129.44 291.56 128.42 289.16 126.38C286.76 124.34 285.56 121.34 285.56 117.38V74C283.28 76.04 280.76 77.78 278 79.22C275.36 80.66 272.24 81.38 268.64 81.38C263.36 81.38 259.4 82.34 256.76 84.26C254.24 86.18 252.98 89.6 252.98 94.52V117.38ZM251.9 64.64C253.82 62.72 256.1 61.22 258.74 60.14C261.5 59.06 264.8 58.52 268.64 58.52C273.2 58.52 276.68 58.16 279.08 57.44C281.6 56.72 283.34 55.34 284.3 53.3C285.26 51.26 285.74 48.26 285.74 44.3C285.74 35.42 284.48 29.36 281.96 26.12C279.44 22.76 274.94 21.08 268.46 21.08C262.46 21.08 258.32 22.82 256.04 26.3C253.88 29.66 252.8 35.9 252.8 45.02C252.8 49.7 252.74 53.66 252.62 56.9C252.5 60.14 252.26 62.72 251.9 64.64ZM361.437 117.38C361.437 125.42 357.237 129.44 348.837 129.44C344.757 129.44 341.517 128.42 339.117 126.38C336.717 124.34 335.517 121.34 335.517 117.38V46.64C335.517 35.36 337.017 26.36 340.017 19.64C343.017 12.8 347.937 7.81999 354.777 4.69999C361.617 1.57999 370.737 0.0199955 382.137 0.0199955C397.257 0.0199955 408.657 3.56 416.337 10.64C424.137 17.6 428.037 29.6 428.037 46.64V117.38C428.037 125.42 423.837 129.44 415.437 129.44C411.357 129.44 408.117 128.42 405.717 126.38C403.317 124.34 402.117 121.34 402.117 117.38V46.64C402.117 37.76 400.557 31.46 397.437 27.74C394.437 23.9 389.337 21.98 382.137 21.98C376.497 21.98 372.177 22.82 369.177 24.5C366.177 26.18 364.137 28.82 363.057 32.42C361.977 36.02 361.437 40.76 361.437 46.64V117.38ZM525.508 129.44C516.508 129.44 512.008 125.24 512.008 116.84V88.94C512.008 83.18 510.808 78.86 508.408 75.98C506.128 72.98 502.168 71.48 496.528 71.48C490.408 71.48 485.848 72.74 482.848 75.26C479.968 77.78 478.528 82.16 478.528 88.4V115.4C478.528 124.76 474.208 129.44 465.568 129.44C456.928 129.44 452.608 124.76 452.608 115.4V14.06C452.608 4.7 456.928 0.0199955 465.568 0.0199955C474.208 0.0199955 478.528 4.7 478.528 14.06V56.36C480.208 54.68 481.948 53.36 483.748 52.4C485.548 51.44 488.548 50.36 492.748 49.16C498.748 47.48 502.888 43.94 505.168 38.54C507.448 33.14 508.588 24.5 508.588 12.62C508.588 8.17999 509.548 5 511.468 3.08C513.388 1.04 516.448 0.0199955 520.648 0.0199955C529.528 0.0199955 533.968 4.51999 533.968 13.52C533.968 25.52 532.708 35.3 530.188 42.86C527.668 50.3 523.768 56.06 518.488 60.14C531.328 65.66 537.748 75.38 537.748 89.3V116.84C537.748 125.24 533.668 129.44 525.508 129.44ZM641.338 129.44C632.458 129.44 628.018 125.42 628.018 117.38V81.56L590.578 20.18C588.418 16.46 587.578 13.1 588.058 10.1C588.658 7.1 590.038 4.7 592.198 2.89999C594.478 0.979994 597.058 0.0199955 599.938 0.0199955C603.898 0.0199955 607.018 1.21999 609.298 3.61999C611.698 6.02 614.398 10.1 617.398 15.86L641.878 59.96C646.678 55.52 650.458 51.8 653.218 48.8C655.978 45.68 657.958 42.74 659.158 39.98C660.358 37.22 660.958 34.16 660.958 30.8C660.958 27.44 660.598 23.72 659.878 19.64C659.158 15.56 658.798 12.56 658.798 10.64C658.798 7.63999 660.058 5.11999 662.578 3.08C665.098 1.04 668.158 0.0199955 671.758 0.0199955C676.078 0.0199955 679.378 2.18 681.658 6.5C684.058 10.7 685.258 16.88 685.258 25.04C685.258 31.76 684.358 38.06 682.558 43.94C680.878 49.82 677.758 55.76 673.198 61.76C668.758 67.76 662.338 74.3 653.938 81.38V117.38C653.938 121.46 652.918 124.52 650.878 126.56C648.958 128.48 645.778 129.44 641.338 129.44ZM745.803 129.44C735.363 129.44 726.483 127.4 719.163 123.32C711.843 119.12 706.263 112.28 702.423 102.8C698.703 93.32 696.843 80.48 696.843 64.28C696.843 48.08 698.703 35.3 702.423 25.94C706.263 16.58 711.843 9.91999 719.163 5.95999C726.483 1.99999 735.363 0.0199955 745.803 0.0199955C756.363 0.0199955 765.243 1.99999 772.443 5.95999C779.763 9.91999 785.283 16.58 789.003 25.94C792.843 35.3 794.763 48.08 794.763 64.28C794.763 80.48 792.843 93.32 789.003 102.8C785.283 112.28 779.763 119.12 772.443 123.32C765.243 127.4 756.363 129.44 745.803 129.44ZM745.803 105.68C750.603 105.68 754.683 104.54 758.043 102.26C761.523 99.98 764.163 95.84 765.963 89.84C767.883 83.84 768.843 75.32 768.843 64.28C768.843 53.12 767.883 44.66 765.963 38.9C764.163 33.02 761.523 29.06 758.043 27.02C754.683 24.86 750.603 23.78 745.803 23.78C741.123 23.78 737.043 24.86 733.563 27.02C730.083 29.06 727.383 33.02 725.463 38.9C723.663 44.66 722.763 53.12 722.763 64.28C722.763 75.32 723.663 83.84 725.463 89.84C727.383 95.84 730.083 99.98 733.563 102.26C737.043 104.54 741.123 105.68 745.803 105.68ZM860.04 129.44C845.52 129.44 834.42 125.84 826.74 118.64C819.18 111.32 815.4 100.34 815.4 85.7V14.06C815.4 4.7 819.72 0.0199955 828.36 0.0199955C837 0.0199955 841.32 4.7 841.32 14.06V85.7C841.32 93.26 842.94 98.78 846.18 102.26C849.54 105.74 854.16 107.48 860.04 107.48C874.44 107.48 881.64 100.22 881.64 85.7V14.06C881.64 4.7 885.96 0.0199955 894.6 0.0199955C903.24 0.0199955 907.56 4.7 907.56 14.06V85.7C907.56 100.22 903.54 111.14 895.5 118.46C887.46 125.78 875.64 129.44 860.04 129.44ZM944.727 90.38C940.047 90.38 936.687 89.3 934.647 87.14C932.727 84.86 931.767 81.86 931.767 78.14V12.26C931.767 8.42 932.727 5.42 934.647 3.26C936.687 1.1 940.047 0.0199955 944.727 0.0199955C949.407 0.0199955 952.707 1.1 954.627 3.26C956.667 5.42 957.687 8.42 957.687 12.26V78.14C957.687 81.86 956.667 84.86 954.627 87.14C952.707 89.3 949.407 90.38 944.727 90.38ZM944.727 129.44C940.407 129.44 936.927 128.12 934.287 125.48C931.767 122.84 930.507 119.48 930.507 115.4C930.507 111.2 931.767 107.78 934.287 105.14C936.927 102.5 940.407 101.18 944.727 101.18C948.927 101.18 952.347 102.5 954.987 105.14C957.627 107.78 958.947 111.2 958.947 115.4C958.947 119.48 957.627 122.84 954.987 125.48C952.347 128.12 948.927 129.44 944.727 129.44Z" fill="#D9E7FF"/>
<path d="M41.0553 127.46L39.7571 130.165L39.8211 130.195L39.8864 130.223L41.0553 127.46ZM39.4353 28.46L37.6353 26.06V26.06L39.4353 28.46ZM44.1153 25.76L44.9774 28.6335L44.1153 22.76V25.76ZM2.89531 21.98L0.212032 23.3216L0.249271 23.3961L0.290581 23.4684L2.89531 21.98ZM3.07531 5.77999L5.64779 7.32349L5.66421 7.29612L5.68004 7.26841L3.07531 5.77999ZM96.1353 5.77999L93.5306 7.26841L93.5464 7.29612L93.5628 7.32348L96.1353 5.77999ZM96.1353 21.98L93.5016 20.5434L93.4895 20.5656L93.4778 20.588L96.1353 21.98ZM62.4753 25.76V22.76H59.4753V25.76H62.4753ZM58.6953 127.28L57.2069 124.675L57.1792 124.691L57.1518 124.708L58.6953 127.28ZM50.2353 126.44C47.6856 126.44 45.0221 125.881 42.2242 124.697L39.8864 130.223C43.3286 131.679 46.785 132.44 50.2353 132.44V126.44ZM42.3535 124.755C41.2369 124.219 40.5777 123.616 40.1866 123.021C39.803 122.438 39.5553 121.68 39.5553 120.62H33.5553C33.5553 122.68 34.0576 124.622 35.1741 126.319C36.2829 128.004 37.8737 129.261 39.7571 130.165L42.3535 124.755ZM39.5553 120.62V36.38H33.5553V120.62H39.5553ZM39.5553 36.38C39.5553 32.9127 40.4337 31.4612 41.2353 30.86L37.6353 26.06C34.597 28.3388 33.5553 32.1673 33.5553 36.38H39.5553ZM41.2353 30.86C43.0827 29.4745 44.2984 28.8372 44.9774 28.6335L43.2533 22.8865C41.5322 23.4028 39.628 24.5655 37.6353 26.06L41.2353 30.86ZM44.1153 22.76H9.37531V28.76H44.1153V22.76ZM9.37531 22.76C7.58227 22.76 6.41109 22.0859 5.50004 20.4916L0.290581 23.4684C2.25954 26.9141 5.40836 28.76 9.37531 28.76V22.76ZM5.57859 20.6384C4.45208 18.3853 3.91531 16.1423 3.91531 13.88H-2.08469C-2.08469 17.1377 -1.30145 20.2947 0.212032 23.3216L5.57859 20.6384ZM3.91531 13.88C3.91531 11.3832 4.5077 9.22364 5.64779 7.32349L0.502834 4.23651C-1.23708 7.13635 -2.08469 10.3768 -2.08469 13.88H3.91531ZM5.68004 7.26841C6.61982 5.62379 7.75853 4.99999 9.37531 4.99999V-1.00001C5.4721 -1.00001 2.4108 0.896191 0.470581 4.29158L5.68004 7.26841ZM9.37531 4.99999H89.8353V-1.00001H9.37531V4.99999ZM89.8353 4.99999C91.4521 4.99999 92.5908 5.62379 93.5306 7.26841L98.7401 4.29158C96.7998 0.896191 93.7385 -1.00001 89.8353 -1.00001V4.99999ZM93.5628 7.32348C94.7029 9.22363 95.2953 11.3832 95.2953 13.88H101.295C101.295 10.3768 100.448 7.13636 98.7078 4.23651L93.5628 7.32348ZM95.2953 13.88C95.2953 16.0939 94.7233 18.3037 93.5016 20.5434L98.769 23.4165C100.427 20.3763 101.295 17.1861 101.295 13.88H95.2953ZM93.4778 20.588C93.0316 21.4398 92.532 21.9394 92.0268 22.2425C91.5196 22.5469 90.8283 22.76 89.8353 22.76V28.76C91.7223 28.76 93.5211 28.3431 95.1138 27.3875C96.7086 26.4306 97.919 25.0402 98.7928 23.372L93.4778 20.588ZM89.8353 22.76H62.4753V28.76H89.8353V22.76ZM59.4753 25.76V120.62H65.4753V25.76H59.4753ZM59.4753 120.62C59.4753 122.588 58.754 123.791 57.2069 124.675L60.1837 129.885C63.6767 127.889 65.4753 124.652 65.4753 120.62H59.4753ZM57.1518 124.708C55.2874 125.826 53.0186 126.44 50.2353 126.44V132.44C53.932 132.44 57.3032 131.614 60.2388 129.852L57.1518 124.708ZM112.895 2.89999L110.839 0.715389L110.839 0.715393L112.895 2.89999ZM134.495 56.72L131.615 55.88L136.616 58.8413L134.495 56.72ZM144.575 50.24L145.524 53.0861V53.086L144.575 50.24ZM176.435 48.44V51.44H179.435V48.44H176.435ZM179.495 2.89999L177.439 0.715389V0.715393L179.495 2.89999ZM199.295 126.56L197.174 124.439L199.295 126.56ZM176.435 64.1H179.435L173.589 63.1513L176.435 64.1ZM169.415 69.5L170.364 72.346L170.402 72.3332L170.44 72.3194L169.415 69.5ZM139.895 76.16L137.691 74.1252L137.687 74.1288L139.895 76.16ZM132.695 126.56L134.816 128.681L132.695 126.56ZM123.155 126.44C119.108 126.44 116.632 125.518 115.179 124.201C113.781 122.936 112.835 120.856 112.835 117.38H106.835C106.835 121.944 108.109 125.894 111.151 128.649C114.138 131.353 118.322 132.44 123.155 132.44V126.44ZM112.835 117.38V12.08H106.835V117.38H112.835ZM112.835 12.08C112.835 8.29514 113.759 6.20647 114.951 5.08459L110.839 0.715393C107.951 3.43352 106.835 7.46485 106.835 12.08H112.835ZM114.951 5.08459C116.186 3.92218 118.511 3.02 122.615 3.02V-2.98C117.839 -2.98 113.684 -1.96219 110.839 0.715389L114.951 5.08459ZM122.615 3.02C126.593 3.02 129.017 3.93826 130.441 5.2452C131.817 6.50745 132.755 8.59174 132.755 12.08H138.755C138.755 7.52824 137.503 3.58254 134.499 0.824787C131.543 -1.88827 127.397 -2.98 122.615 -2.98V3.02ZM132.755 12.08V30.08H138.755V12.08H132.755ZM132.755 30.08C132.755 37.4996 132.65 43.3863 132.443 47.7583C132.231 52.2567 131.919 54.8383 131.615 55.88L137.375 57.56C137.911 55.7217 138.229 52.4233 138.437 48.0417C138.65 43.5337 138.755 37.5404 138.755 30.08H132.755ZM136.616 58.8413C139.461 55.9971 142.432 54.1166 145.524 53.0861L143.626 47.394C139.518 48.7634 135.769 51.2029 132.374 54.5987L136.616 58.8413ZM145.524 53.086C148.698 52.028 153.081 51.44 158.795 51.44V45.44C152.749 45.44 147.652 46.052 143.626 47.394L145.524 53.086ZM158.795 51.44H176.435V45.44H158.795V51.44ZM179.435 48.44V12.08H173.435V48.44H179.435ZM179.435 12.08C179.435 8.29514 180.359 6.20647 181.551 5.08459L177.439 0.715393C174.551 3.43352 173.435 7.46485 173.435 12.08H179.435ZM181.551 5.08459C182.786 3.92218 185.111 3.02 189.215 3.02V-2.98C184.439 -2.98 180.284 -1.96219 177.439 0.715389L181.551 5.08459ZM189.215 3.02C193.193 3.02 195.617 3.93826 197.041 5.2452C198.417 6.50745 199.355 8.59174 199.355 12.08H205.355C205.355 7.52824 204.103 3.58254 201.099 0.824787C198.143 -1.88827 193.997 -2.98 189.215 -2.98V3.02ZM199.355 12.08V117.38H205.355V12.08H199.355ZM199.355 117.38C199.355 120.998 198.453 123.16 197.174 124.439L201.416 128.681C204.217 125.88 205.355 121.922 205.355 117.38H199.355ZM197.174 124.439C196.084 125.528 193.881 126.44 189.755 126.44V132.44C194.509 132.44 198.666 131.432 201.416 128.681L197.174 124.439ZM189.755 126.44C185.708 126.44 183.232 125.518 181.779 124.201C180.381 122.936 179.435 120.856 179.435 117.38H173.435C173.435 121.944 174.709 125.894 177.751 128.649C180.738 131.353 184.922 132.44 189.755 132.44V126.44ZM179.435 117.38V64.1H173.435V117.38H179.435ZM173.589 63.1513C173.329 63.9303 172.173 65.3047 168.39 66.6806L170.44 72.3194C174.577 70.8153 178.101 68.5897 179.281 65.0487L173.589 63.1513ZM168.466 66.6539C164.881 67.8491 160.594 68.48 155.555 68.48V74.48C161.076 74.48 166.029 73.7909 170.364 72.346L168.466 66.6539ZM155.555 68.48C147.765 68.48 141.449 70.0532 137.691 74.1252L142.099 78.1948C144.101 76.0267 148.225 74.48 155.555 74.48V68.48ZM137.687 74.1288C134.105 78.0226 132.755 84.6338 132.755 92.9H138.755C138.755 84.8462 140.165 80.2974 142.103 78.1912L137.687 74.1288ZM132.755 92.9V117.38H138.755V92.9H132.755ZM132.755 117.38C132.755 120.998 131.853 123.16 130.574 124.439L134.816 128.681C137.617 125.88 138.755 121.922 138.755 117.38H132.755ZM130.574 124.439C129.484 125.528 127.281 126.44 123.155 126.44V132.44C127.909 132.44 132.066 131.432 134.816 128.681L130.574 124.439ZM230.66 126.38L232.603 124.094L230.66 126.38ZM237.14 10.64L239.316 12.7053L237.14 10.64ZM289.16 126.38L291.103 124.094H291.103L289.16 126.38ZM285.56 74H288.56V67.2902L283.56 71.7643L285.56 74ZM278 79.22L276.612 76.5602L276.588 76.573L276.563 76.5863L278 79.22ZM256.76 84.26L254.995 81.8338L254.968 81.8534L254.942 81.8737L256.76 84.26ZM251.9 64.64L248.951 64.0871L247.164 73.6183L254.021 66.7613L251.9 64.64ZM258.74 60.14L257.647 57.3463L257.625 57.3547L257.604 57.3634L258.74 60.14ZM279.08 57.44L278.256 54.5554L278.237 54.5608L278.218 54.5665L279.08 57.44ZM284.3 53.3L287.014 54.5774V54.5774L284.3 53.3ZM281.96 26.12L279.56 27.92L279.576 27.941L279.592 27.9618L281.96 26.12ZM256.04 26.3L253.531 24.6559L253.523 24.6668L253.516 24.6777L256.04 26.3ZM252.62 56.9L255.618 57.011L252.62 56.9ZM249.98 117.38C249.98 120.903 249.066 123.003 247.756 124.258C246.42 125.536 244.15 126.44 240.38 126.44V132.44C245.01 132.44 249.04 131.334 251.904 128.592C254.794 125.827 255.98 121.897 255.98 117.38H249.98ZM240.38 126.44C236.798 126.44 234.317 125.551 232.603 124.094L228.717 128.666C231.803 131.289 235.802 132.44 240.38 132.44V126.44ZM232.603 124.094C231.04 122.766 230.06 120.705 230.06 117.38H224.06C224.06 121.975 225.48 125.914 228.717 128.666L232.603 124.094ZM230.06 117.38V46.1H224.06V117.38H230.06ZM230.06 46.1C230.06 29.8102 233.39 18.9488 239.316 12.7053L234.964 8.57472C227.45 16.4911 224.06 29.2698 224.06 46.1H230.06ZM239.316 12.7053C245.251 6.45233 254.8 3.02 268.64 3.02V-2.98C253.92 -2.98 242.469 0.667664 234.964 8.57472L239.316 12.7053ZM268.64 3.02C282.844 3.02 292.705 6.51444 298.883 12.9051L303.197 8.73493C295.455 0.725552 283.716 -2.98 268.64 -2.98V3.02ZM298.883 12.9051C305.048 19.2824 308.48 30.0926 308.48 46.1H314.48C314.48 29.4674 310.952 16.7576 303.197 8.73493L298.883 12.9051ZM308.48 46.1V117.38H314.48V46.1H308.48ZM308.48 117.38C308.48 120.903 307.566 123.003 306.256 124.258C304.92 125.536 302.65 126.44 298.88 126.44V132.44C303.51 132.44 307.54 131.334 310.404 128.592C313.294 125.827 314.48 121.897 314.48 117.38H308.48ZM298.88 126.44C295.298 126.44 292.817 125.551 291.103 124.094L287.217 128.666C290.303 131.289 294.302 132.44 298.88 132.44V126.44ZM291.103 124.094C289.54 122.766 288.56 120.705 288.56 117.38H282.56C282.56 121.975 283.98 125.914 287.217 128.666L291.103 124.094ZM288.56 117.38V74H282.56V117.38H288.56ZM283.56 71.7643C281.469 73.6351 279.155 75.2335 276.612 76.5602L279.388 81.8797C282.365 80.3265 285.091 78.4449 287.56 76.2357L283.56 71.7643ZM276.563 76.5863C274.443 77.7428 271.837 78.38 268.64 78.38V84.38C272.643 84.38 276.277 83.5772 279.437 81.8537L276.563 76.5863ZM268.64 78.38C263.086 78.38 258.378 79.3739 254.995 81.8338L258.525 86.6862C260.422 85.3061 263.634 84.38 268.64 84.38V78.38ZM254.942 81.8737C251.339 84.6185 249.98 89.1913 249.98 94.52H255.98C255.98 90.0087 257.141 87.7415 258.578 86.6463L254.942 81.8737ZM249.98 94.52V117.38H255.98V94.52H249.98ZM254.021 66.7613C255.646 65.1371 257.586 63.8535 259.876 62.9166L257.604 57.3634C254.614 58.5864 251.995 60.3029 249.779 62.5187L254.021 66.7613ZM259.833 62.9337C262.159 62.0238 265.069 61.52 268.64 61.52V55.52C264.531 55.52 260.841 56.0962 257.647 57.3463L259.833 62.9337ZM268.64 61.52C273.295 61.52 277.121 61.1597 279.942 60.3135L278.218 54.5665C276.239 55.1603 273.105 55.52 268.64 55.52V61.52ZM279.904 60.3246C283.107 59.4094 285.624 57.5312 287.014 54.5774L281.586 52.0226C281.056 53.1488 280.093 54.0306 278.256 54.5554L279.904 60.3246ZM287.014 54.5774C288.255 51.9419 288.74 48.4163 288.74 44.3H282.74C282.74 48.1037 282.265 50.5781 281.586 52.0226L287.014 54.5774ZM288.74 44.3C288.74 39.7352 288.418 35.781 287.732 32.4843C287.052 29.2137 285.976 26.3965 284.328 24.2782L279.592 27.9618C280.464 29.0835 281.278 30.9163 281.858 33.7057C282.432 36.469 282.74 39.9848 282.74 44.3H288.74ZM284.36 24.32C281.019 19.8653 275.359 18.08 268.46 18.08V24.08C274.521 24.08 277.861 25.6547 279.56 27.92L284.36 24.32ZM268.46 18.08C261.931 18.08 256.586 19.9929 253.531 24.6559L258.549 27.9441C260.054 25.6471 262.989 24.08 268.46 24.08V18.08ZM253.516 24.6777C252.13 26.8349 251.227 29.6782 250.654 32.9884C250.075 36.3331 249.8 40.3563 249.8 45.02H255.8C255.8 40.5637 256.065 36.9069 256.566 34.0116C257.073 31.0818 257.79 29.1251 258.564 27.9223L253.516 24.6777ZM249.8 45.02C249.8 49.6776 249.74 53.5982 249.622 56.789L255.618 57.011C255.74 53.7218 255.8 49.7224 255.8 45.02H249.8ZM249.622 56.789C249.504 59.9637 249.272 62.3766 248.951 64.0871L254.849 65.1929C255.248 63.0634 255.496 60.3163 255.618 57.011L249.622 56.789ZM339.117 126.38L341.06 124.094L339.117 126.38ZM340.017 19.64L342.756 20.8629L342.76 20.854L342.764 20.845L340.017 19.64ZM354.777 4.69999L353.532 1.97053L354.777 4.69999ZM416.337 10.64L414.304 12.8457L414.322 12.8622L414.34 12.8784L416.337 10.64ZM405.717 126.38L407.66 124.094L405.717 126.38ZM397.437 27.74L395.073 29.5869L395.105 29.6279L395.138 29.6678L397.437 27.74ZM369.177 24.5L367.711 21.8825L369.177 24.5ZM363.057 32.42L365.931 33.282L363.057 32.42ZM358.437 117.38C358.437 120.903 357.524 123.003 356.213 124.258C354.877 125.536 352.607 126.44 348.837 126.44V132.44C353.467 132.44 357.497 131.334 360.361 128.592C363.251 125.827 364.437 121.897 364.437 117.38H358.437ZM348.837 126.44C345.255 126.44 342.774 125.551 341.06 124.094L337.174 128.666C340.26 131.289 344.259 132.44 348.837 132.44V126.44ZM341.06 124.094C339.497 122.766 338.517 120.705 338.517 117.38H332.517C332.517 121.975 333.937 125.914 337.174 128.666L341.06 124.094ZM338.517 117.38V46.64H332.517V117.38H338.517ZM338.517 46.64C338.517 35.579 339.995 27.0485 342.756 20.8629L337.278 18.417C334.039 25.6715 332.517 35.1409 332.517 46.64H338.517ZM342.764 20.845C345.466 14.6855 349.848 10.2455 356.022 7.42945L353.532 1.97053C346.026 5.39447 340.568 10.9145 337.27 18.435L342.764 20.845ZM356.022 7.42945C362.322 4.55564 370.966 3.02 382.137 3.02V-2.98C370.508 -2.98 360.912 -1.39566 353.532 1.97053L356.022 7.42945ZM382.137 3.02C396.837 3.02 407.382 6.46487 414.304 12.8457L418.37 8.43427C409.932 0.655121 397.677 -2.98 382.137 -2.98V3.02ZM414.34 12.8784C421.195 18.9951 425.037 29.9315 425.037 46.64H431.037C431.037 29.2685 427.08 16.2049 418.334 8.40157L414.34 12.8784ZM425.037 46.64V117.38H431.037V46.64H425.037ZM425.037 117.38C425.037 120.903 424.124 123.003 422.813 124.258C421.477 125.536 419.207 126.44 415.437 126.44V132.44C420.067 132.44 424.097 131.334 426.961 128.592C429.851 125.827 431.037 121.897 431.037 117.38H425.037ZM415.437 126.44C411.855 126.44 409.374 125.551 407.66 124.094L403.774 128.666C406.86 131.289 410.859 132.44 415.437 132.44V126.44ZM407.66 124.094C406.097 122.766 405.117 120.705 405.117 117.38H399.117C399.117 121.975 400.537 125.914 403.774 128.666L407.66 124.094ZM405.117 117.38V46.64H399.117V117.38H405.117ZM405.117 46.64C405.117 37.5721 403.556 30.3676 399.736 25.8122L395.138 29.6678C397.558 32.5524 399.117 37.9479 399.117 46.64H405.117ZM399.801 25.8931C396.001 21.0286 389.804 18.98 382.137 18.98V24.98C388.87 24.98 392.873 26.7714 395.073 29.5869L399.801 25.8931ZM382.137 18.98C376.276 18.98 371.359 19.8396 367.711 21.8825L370.643 27.1175C372.995 25.8004 376.718 24.98 382.137 24.98V18.98ZM367.711 21.8825C363.966 23.9799 361.464 27.2883 360.184 31.558L365.931 33.282C366.81 30.3516 368.388 28.3801 370.643 27.1175L367.711 21.8825ZM360.184 31.558C358.986 35.5489 358.437 40.6129 358.437 46.64H364.437C364.437 40.9071 364.968 36.4911 365.931 33.282L360.184 31.558ZM358.437 46.64V117.38H364.437V46.64H358.437ZM508.408 75.98L506.02 77.7953L506.061 77.8488L506.104 77.9006L508.408 75.98ZM482.848 75.26L480.919 72.9629L480.896 72.9823L480.873 73.0023L482.848 75.26ZM478.528 56.36H475.528V63.6026L480.65 58.4813L478.528 56.36ZM483.748 52.4L485.16 55.0471L483.748 52.4ZM492.748 49.16L491.94 46.2711L491.932 46.2732L491.924 46.2754L492.748 49.16ZM505.168 38.54L507.932 39.7069L505.168 38.54ZM511.468 3.08L513.59 5.20132L513.622 5.16919L513.653 5.13609L511.468 3.08ZM530.188 42.86L533.03 43.8224L533.032 43.8156L533.034 43.8087L530.188 42.86ZM518.488 60.14L516.654 57.7661L512.621 60.8829L517.304 62.8961L518.488 60.14ZM525.508 126.44C521.421 126.44 518.915 125.482 517.43 124.097C515.985 122.748 515.008 120.523 515.008 116.84H509.008C509.008 121.557 510.282 125.632 513.336 128.483C516.352 131.298 520.596 132.44 525.508 132.44V126.44ZM515.008 116.84V88.94H509.008V116.84H515.008ZM515.008 88.94C515.008 82.8373 513.748 77.7018 510.713 74.0594L506.104 77.9006C507.869 80.0182 509.008 83.5227 509.008 88.94H515.008ZM510.797 74.1647C507.711 70.1038 502.624 68.48 496.528 68.48V74.48C501.713 74.48 504.546 75.8562 506.02 77.7953L510.797 74.1647ZM496.528 68.48C490.079 68.48 484.691 69.7947 480.919 72.9629L484.778 77.5571C487.006 75.6853 490.738 74.48 496.528 74.48V68.48ZM480.873 73.0023C477.027 76.3673 475.528 81.8267 475.528 88.4H481.528C481.528 82.4933 482.91 79.1927 484.824 77.5177L480.873 73.0023ZM475.528 88.4V115.4H481.528V88.4H475.528ZM475.528 115.4C475.528 119.674 474.537 122.321 473.084 123.895C471.673 125.424 469.362 126.44 465.568 126.44V132.44C470.415 132.44 474.584 131.116 477.493 127.965C480.36 124.859 481.528 120.486 481.528 115.4H475.528ZM465.568 126.44C461.775 126.44 459.464 125.424 458.053 123.895C456.6 122.321 455.608 119.674 455.608 115.4H449.608C449.608 120.486 450.777 124.859 453.644 127.965C456.553 131.116 460.722 132.44 465.568 132.44V126.44ZM455.608 115.4V14.06H449.608V115.4H455.608ZM455.608 14.06C455.608 9.7855 456.6 7.1389 458.053 5.56483C459.464 4.03615 461.775 3.02 465.568 3.02V-2.98C460.722 -2.98 456.553 -1.65615 453.644 1.49516C450.777 4.60109 449.608 8.97449 449.608 14.06H455.608ZM465.568 3.02C469.362 3.02 471.673 4.03615 473.084 5.56483C474.537 7.1389 475.528 9.7855 475.528 14.06H481.528C481.528 8.97449 480.36 4.60109 477.493 1.49516C474.584 -1.65615 470.415 -2.98 465.568 -2.98V3.02ZM475.528 14.06V56.36H481.528V14.06H475.528ZM480.65 58.4813C482.154 56.977 483.66 55.8471 485.16 55.0471L482.337 49.7529C480.237 50.8729 478.263 52.383 476.407 54.2387L480.65 58.4813ZM485.16 55.0471C486.661 54.2465 489.4 53.2367 493.573 52.0446L491.924 46.2754C487.697 47.4833 484.436 48.6335 482.337 49.7529L485.16 55.0471ZM493.557 52.0489C500.373 50.1404 505.272 46.0079 507.932 39.7069L502.405 37.3731C500.505 41.8721 497.124 44.8196 491.94 46.2711L493.557 52.0489ZM507.932 39.7069C510.458 33.7237 511.588 24.5738 511.588 12.62H505.588C505.588 24.4261 504.438 32.5563 502.405 37.3731L507.932 39.7069ZM511.588 12.62C511.588 8.4938 512.5 6.29112 513.59 5.20132L509.347 0.958675C506.597 3.70887 505.588 7.86619 505.588 12.62H511.588ZM513.653 5.13609C514.775 3.9441 516.864 3.02 520.648 3.02V-2.98C516.033 -2.98 512.002 -1.86411 509.284 1.02391L513.653 5.13609ZM520.648 3.02C524.616 3.02 527.042 4.02181 528.503 5.50203C529.971 6.98967 530.968 9.47237 530.968 13.52H536.968C536.968 8.56762 535.746 4.30032 532.774 1.28796C529.794 -1.73182 525.561 -2.98 520.648 -2.98V3.02ZM530.968 13.52C530.968 25.3436 529.723 34.7704 527.342 41.9113L533.034 43.8087C535.694 35.8296 536.968 25.6964 536.968 13.52H530.968ZM527.347 41.8976C524.982 48.8794 521.389 54.1074 516.654 57.7661L520.323 62.5139C526.148 58.0126 530.355 51.7206 533.03 43.8224L527.347 41.8976ZM517.304 62.8961C523.295 65.4718 527.602 68.9419 530.43 73.2234C533.258 77.504 534.748 82.8115 534.748 89.3H540.748C540.748 81.8685 539.029 75.356 535.437 69.9166C531.845 64.478 526.522 60.3282 519.673 57.3839L517.304 62.8961ZM534.748 89.3V116.84H540.748V89.3H534.748ZM534.748 116.84C534.748 120.599 533.835 122.863 532.537 124.2C531.254 125.52 529.104 126.44 525.508 126.44V132.44C530.073 132.44 534.043 131.26 536.84 128.38C539.622 125.517 540.748 121.481 540.748 116.84H534.748ZM628.018 81.56H631.018V80.7172L630.58 79.9978L628.018 81.56ZM590.578 20.18L587.984 21.6864L588 21.7145L588.017 21.7422L590.578 20.18ZM588.058 10.1L585.117 9.51165L585.105 9.56863L585.096 9.62602L588.058 10.1ZM592.198 2.89999L594.119 5.20465L594.125 5.1997L594.131 5.19473L592.198 2.89999ZM609.298 3.61999L607.123 5.68624L607.15 5.71412L607.177 5.74131L609.298 3.61999ZM617.398 15.86L614.738 17.2458L614.756 17.2812L614.775 17.316L617.398 15.86ZM641.878 59.96L639.255 61.416L641.11 64.7573L643.916 62.1623L641.878 59.96ZM653.218 48.8L655.426 50.8312L655.446 50.8096L655.465 50.7877L653.218 48.8ZM659.158 39.98L656.407 38.7838V38.7838L659.158 39.98ZM659.878 19.64L656.924 20.1613L659.878 19.64ZM662.578 3.08L664.466 5.41174V5.41173L662.578 3.08ZM681.658 6.5L679.005 7.90027L679.029 7.94475L679.054 7.98842L681.658 6.5ZM682.558 43.94L679.69 43.0619L679.682 43.0888L679.674 43.1158L682.558 43.94ZM673.198 61.76L670.81 59.9447L670.798 59.96L670.787 59.9755L673.198 61.76ZM653.938 81.38L652.005 79.0861L650.938 79.9851V81.38H653.938ZM650.878 126.56L653 128.681L650.878 126.56ZM641.338 126.44C637.291 126.44 634.816 125.518 633.362 124.201C631.965 122.936 631.018 120.856 631.018 117.38H625.018C625.018 121.944 626.292 125.894 629.335 128.649C632.321 131.353 636.506 132.44 641.338 132.44V126.44ZM631.018 117.38V81.56H625.018V117.38H631.018ZM630.58 79.9978L593.14 18.6178L588.017 21.7422L625.457 83.1222L630.58 79.9978ZM593.173 18.6736C591.218 15.3074 590.688 12.6565 591.021 10.574L585.096 9.62602C584.469 13.5435 585.619 17.6126 587.984 21.6864L593.173 18.6736ZM591 10.6883C591.478 8.29704 592.533 6.52638 594.119 5.20465L590.278 0.595329C587.544 2.87361 585.838 5.90295 585.117 9.51165L591 10.6883ZM594.131 5.19473C595.891 3.71286 597.792 3.02 599.938 3.02V-2.98C596.325 -2.98 593.066 -1.75287 590.266 0.605255L594.131 5.19473ZM599.938 3.02C603.25 3.02 605.52 3.99801 607.123 5.68624L611.473 1.55374C608.517 -1.55802 604.546 -2.98 599.938 -2.98V3.02ZM607.177 5.74131C609.245 7.80883 611.775 11.5571 614.738 17.2458L620.059 14.4742C617.022 8.64294 614.152 4.23117 611.42 1.49867L607.177 5.74131ZM614.775 17.316L639.255 61.416L644.501 58.504L620.021 14.404L614.775 17.316ZM643.916 62.1623C648.744 57.6959 652.589 53.9148 655.426 50.8312L651.011 46.7688C648.328 49.6852 644.613 53.3441 639.841 57.7577L643.916 62.1623ZM655.465 50.7877C658.36 47.5156 660.546 44.3119 661.91 41.1762L656.407 38.7838C655.371 41.1681 653.597 43.8444 650.971 46.8123L655.465 50.7877ZM661.91 41.1762C663.292 37.997 663.958 34.5235 663.958 30.8H657.958C657.958 33.7965 657.425 36.4429 656.407 38.7838L661.91 41.1762ZM663.958 30.8C663.958 27.2304 663.576 23.3327 662.833 19.1186L656.924 20.1613C657.62 24.1072 657.958 27.6496 657.958 30.8H663.958ZM662.833 19.1186C662.117 15.0606 661.798 12.28 661.798 10.64H655.798C655.798 12.84 656.2 16.0594 656.924 20.1613L662.833 19.1186ZM661.798 10.64C661.798 8.62571 662.585 6.93475 664.466 5.41174L660.691 0.74826C657.532 3.30524 655.798 6.65429 655.798 10.64H661.798ZM664.466 5.41173C666.393 3.85222 668.765 3.02 671.758 3.02V-2.98C667.552 -2.98 663.804 -1.77222 660.691 0.748264L664.466 5.41173ZM671.758 3.02C673.393 3.02 674.715 3.42004 675.83 4.1501C676.965 4.89278 678.047 6.08394 679.005 7.90027L684.312 5.09972C682.99 2.59605 681.282 0.547215 679.116 -0.87011C676.932 -2.30005 674.444 -2.98 671.758 -2.98V3.02ZM679.054 7.98842C681.073 11.5228 682.258 17.086 682.258 25.04H688.258C688.258 16.674 687.044 9.87718 684.263 5.01158L679.054 7.98842ZM682.258 25.04C682.258 31.4898 681.395 37.4915 679.69 43.0619L685.427 44.8181C687.322 38.6285 688.258 32.0302 688.258 25.04H682.258ZM679.674 43.1158C678.117 48.565 675.195 54.1748 670.81 59.9447L675.587 63.5752C680.322 57.3452 683.64 51.075 685.443 44.7642L679.674 43.1158ZM670.787 59.9755C666.534 65.7221 660.302 72.0931 652.005 79.0861L655.872 83.6739C664.375 76.5069 670.982 69.7979 675.61 63.5445L670.787 59.9755ZM650.938 81.38V117.38H656.938V81.38H650.938ZM650.938 117.38C650.938 120.998 650.036 123.16 648.757 124.439L653 128.681C655.801 125.88 656.938 121.922 656.938 117.38H650.938ZM648.757 124.439C647.667 125.528 645.465 126.44 641.338 126.44V132.44C646.092 132.44 650.25 131.432 653 128.681L648.757 124.439ZM719.163 123.32L717.67 125.922L717.686 125.931L717.703 125.94L719.163 123.32ZM702.423 102.8L699.63 103.896L699.636 103.911L699.643 103.926L702.423 102.8ZM702.423 25.94L699.648 24.8013L699.641 24.8166L699.635 24.832L702.423 25.94ZM719.163 5.96L717.736 3.32137L719.163 5.96ZM772.443 5.96L770.997 8.58864L771.007 8.59367L771.016 8.59863L772.443 5.96ZM789.003 25.94L786.215 27.048L786.221 27.0634L786.228 27.0787L789.003 25.94ZM789.003 102.8L786.223 101.674L786.216 101.689L786.21 101.704L789.003 102.8ZM772.443 123.32L773.922 125.93L773.929 125.926L773.936 125.922L772.443 123.32ZM758.043 102.26L756.399 99.7506L756.379 99.7639L756.359 99.7776L758.043 102.26ZM765.963 89.84L763.106 88.9257L763.098 88.9517L763.09 88.978L765.963 89.84ZM765.963 38.9L763.095 39.7781L763.105 39.8135L763.117 39.8487L765.963 38.9ZM758.043 27.02L756.421 29.5435L756.473 29.5769L756.526 29.6081L758.043 27.02ZM733.563 27.02L735.08 29.6081L735.113 29.5889L735.145 29.5689L733.563 27.02ZM725.463 38.9L722.611 37.9688L722.605 37.9869L722.6 38.0052L725.463 38.9ZM725.463 89.84L722.59 90.702L722.598 90.7283L722.606 90.7543L725.463 89.84ZM733.563 102.26L731.919 104.769L733.563 102.26ZM745.803 126.44C735.75 126.44 727.4 124.477 720.624 120.7L717.703 125.94C725.566 130.323 734.976 132.44 745.803 132.44V126.44ZM720.656 120.718C714.034 116.918 708.847 110.668 705.204 101.674L699.643 103.926C703.68 113.892 709.652 121.322 717.67 125.922L720.656 120.718ZM705.216 101.704C701.69 92.718 699.843 80.3004 699.843 64.28H693.843C693.843 80.6596 695.717 93.922 699.63 103.896L705.216 101.704ZM699.843 64.28C699.843 48.2566 701.69 35.9063 705.211 27.048L699.635 24.832C695.716 34.6937 693.843 47.9034 693.843 64.28H699.843ZM705.199 27.0787C708.835 18.2162 714.003 12.1624 720.591 8.59863L717.736 3.32137C709.683 7.67754 703.692 14.9438 699.648 24.8013L705.199 27.0787ZM720.591 8.59863C727.374 4.9287 735.737 3.02 745.803 3.02V-2.98C734.989 -2.98 725.592 -0.928715 717.736 3.32137L720.591 8.59863ZM745.803 3.02C755.998 3.02 764.349 4.93203 770.997 8.58864L773.889 3.33134C766.137 -0.932041 756.728 -2.98 745.803 -2.98V3.02ZM771.016 8.59863C777.594 12.1572 782.698 18.199 786.215 27.048L791.791 24.832C787.868 14.961 781.933 7.68278 773.871 3.32136L771.016 8.59863ZM786.228 27.0787C789.857 35.9255 791.763 48.2635 791.763 64.28H797.763C797.763 47.8965 795.829 34.6745 791.779 24.8013L786.228 27.0787ZM791.763 64.28C791.763 80.2934 789.858 92.6989 786.223 101.674L791.784 103.926C795.828 93.9411 797.763 80.6666 797.763 64.28H791.763ZM786.21 101.704C782.686 110.685 777.563 116.924 770.95 120.718L773.936 125.922C781.963 121.316 787.88 113.875 791.796 103.896L786.21 101.704ZM770.964 120.71C764.323 124.473 755.985 126.44 745.803 126.44V132.44C756.741 132.44 766.163 130.327 773.922 125.93L770.964 120.71ZM745.803 108.68C751.092 108.68 755.786 107.417 759.728 104.742L756.359 99.7776C753.581 101.663 750.114 102.68 745.803 102.68V108.68ZM759.687 104.769C763.993 101.948 766.932 97.0493 768.837 90.702L763.09 88.978C761.394 94.6307 759.053 98.0118 756.399 99.7506L759.687 104.769ZM768.82 90.7543C770.88 84.3168 771.843 75.4341 771.843 64.28H765.843C765.843 75.2059 764.886 83.3632 763.106 88.9257L768.82 90.7543ZM771.843 64.28C771.843 53.0201 770.883 44.1741 768.809 37.9513L763.117 39.8487C764.883 45.1459 765.843 53.2199 765.843 64.28H771.843ZM768.832 38.0219C766.924 31.7884 763.957 27.0094 759.56 24.4319L756.526 29.6081C759.089 31.1106 761.403 34.2516 763.095 39.7781L768.832 38.0219ZM759.665 24.4965C755.732 21.9675 751.061 20.78 745.803 20.78V26.78C750.145 26.78 753.635 27.7525 756.421 29.5435L759.665 24.4965ZM745.803 20.78C740.646 20.78 736.001 21.976 731.981 24.4711L735.145 29.5689C738.085 27.744 741.601 26.78 745.803 26.78V20.78ZM732.046 24.4319C727.671 26.9967 724.642 31.7497 722.611 37.9688L728.315 39.8312C730.124 34.2903 732.496 31.1233 735.08 29.6081L732.046 24.4319ZM722.6 38.0052C720.662 44.2042 719.763 53.0278 719.763 64.28H725.763C725.763 53.2122 726.664 45.1158 728.327 39.7948L722.6 38.0052ZM719.763 64.28C719.763 75.4258 720.665 84.2873 722.59 90.702L728.337 88.978C726.661 83.3927 725.763 75.2142 725.763 64.28H719.763ZM722.606 90.7543C724.632 97.0874 727.633 101.962 731.919 104.769L735.207 99.7506C732.533 97.9985 730.134 94.5926 728.32 88.9257L722.606 90.7543ZM731.919 104.769C735.947 107.408 740.614 108.68 745.803 108.68V102.68C741.632 102.68 738.139 101.672 735.207 99.7506L731.919 104.769ZM826.74 118.64L824.653 120.795L824.67 120.812L824.688 120.829L826.74 118.64ZM846.18 102.26L843.984 104.304L844.003 104.324L844.022 104.344L846.18 102.26ZM895.5 118.46L893.48 116.242L895.5 118.46ZM860.04 126.44C845.99 126.44 835.734 122.96 828.792 116.451L824.688 120.829C833.106 128.72 845.05 132.44 860.04 132.44V126.44ZM828.827 116.485C822.049 109.922 818.4 99.8525 818.4 85.7H812.4C812.4 100.827 816.311 112.718 824.653 120.795L828.827 116.485ZM818.4 85.7V14.06H812.4V85.7H818.4ZM818.4 14.06C818.4 9.7855 819.391 7.1389 820.844 5.56483C822.255 4.03615 824.567 3.02 828.36 3.02V-2.98C823.513 -2.98 819.344 -1.65615 816.435 1.49516C813.568 4.60109 812.4 8.97449 812.4 14.06H818.4ZM828.36 3.02C832.153 3.02 834.464 4.03615 835.875 5.56483C837.328 7.1389 838.32 9.7855 838.32 14.06H844.32C844.32 8.97449 843.151 4.60109 840.284 1.49516C837.375 -1.65615 833.207 -2.98 828.36 -2.98V3.02ZM838.32 14.06V85.7H844.32V14.06H838.32ZM838.32 85.7C838.32 93.5913 839.995 100.02 843.984 104.304L848.376 100.216C845.884 97.5399 844.32 92.9287 844.32 85.7H838.32ZM844.022 104.344C848.065 108.532 853.534 110.48 860.04 110.48V104.48C854.786 104.48 851.014 102.948 848.338 100.176L844.022 104.344ZM860.04 110.48C867.709 110.48 874.01 108.544 878.37 104.147C882.726 99.7556 884.64 93.4162 884.64 85.7H878.64C878.64 92.5038 876.954 97.0544 874.11 99.9225C871.27 102.786 866.771 104.48 860.04 104.48V110.48ZM884.64 85.7V14.06H878.64V85.7H884.64ZM884.64 14.06C884.64 9.7855 885.631 7.1389 887.084 5.56483C888.495 4.03615 890.807 3.02 894.6 3.02V-2.98C889.753 -2.98 885.584 -1.65615 882.675 1.49516C879.808 4.60109 878.64 8.97449 878.64 14.06H884.64ZM894.6 3.02C898.393 3.02 900.704 4.03615 902.115 5.56483C903.568 7.1389 904.56 9.7855 904.56 14.06H910.56C910.56 8.97449 909.391 4.60109 906.524 1.49516C903.615 -1.65615 899.447 -2.98 894.6 -2.98V3.02ZM904.56 14.06V85.7H910.56V14.06H904.56ZM904.56 85.7C904.56 99.6724 900.706 109.663 893.48 116.242L897.52 120.678C906.374 112.617 910.56 100.768 910.56 85.7H904.56ZM893.48 116.242C886.192 122.877 875.215 126.44 860.04 126.44V132.44C876.065 132.44 888.728 128.683 897.52 120.678L893.48 116.242ZM934.647 87.14L932.352 89.0724L932.407 89.1378L932.466 89.1999L934.647 87.14ZM934.647 3.26L932.466 1.20013L932.435 1.23306L932.405 1.26691L934.647 3.26ZM954.627 3.26L952.385 5.25309L952.415 5.28694L952.446 5.31987L954.627 3.26ZM954.627 87.14L952.391 85.1396L952.385 85.1469L954.627 87.14ZM934.287 125.48L932.117 127.551L932.141 127.577L932.166 127.601L934.287 125.48ZM934.287 105.14L932.166 103.019L932.141 103.043L932.117 103.069L934.287 105.14ZM954.987 125.48L957.108 127.601L954.987 125.48ZM944.727 87.38C940.408 87.38 938.047 86.3704 936.828 85.0801L932.466 89.1999C935.327 92.2296 939.686 93.38 944.727 93.38V87.38ZM936.942 85.2076C935.582 83.5923 934.767 81.3336 934.767 78.14H928.767C928.767 82.3864 929.873 86.1277 932.352 89.0724L936.942 85.2076ZM934.767 78.14V12.26H928.767V78.14H934.767ZM934.767 12.26C934.767 8.90923 935.599 6.70461 936.889 5.25309L932.405 1.26691C929.855 4.13538 928.767 7.93077 928.767 12.26H934.767ZM936.828 5.31987C938.047 4.0296 940.408 3.02 944.727 3.02V-2.98C939.686 -2.98 935.327 -1.82961 932.466 1.20013L936.828 5.31987ZM944.727 3.02C949.068 3.02 951.305 4.03881 952.385 5.25309L956.869 1.26691C954.109 -1.83882 949.746 -2.98 944.727 -2.98V3.02ZM952.446 5.31987C953.82 6.77456 954.687 8.95404 954.687 12.26H960.687C960.687 7.88596 959.514 4.06544 956.808 1.20013L952.446 5.31987ZM954.687 12.26V78.14H960.687V12.26H954.687ZM954.687 78.14C954.687 81.289 953.838 83.5226 952.391 85.1396L956.863 89.1404C959.496 86.1974 960.687 82.431 960.687 78.14H954.687ZM952.385 85.1469C951.305 86.3612 949.068 87.38 944.727 87.38V93.38C949.746 93.38 954.109 92.2388 956.869 89.1331L952.385 85.1469ZM944.727 126.44C941.067 126.44 938.397 125.347 936.408 123.359L932.166 127.601C935.457 130.893 939.747 132.44 944.727 132.44V126.44ZM936.457 123.409C934.534 121.394 933.507 118.807 933.507 115.4H927.507C927.507 120.153 929 124.286 932.117 127.551L936.457 123.409ZM933.507 115.4C933.507 111.846 934.55 109.209 936.457 107.211L932.117 103.069C928.984 106.351 927.507 110.554 927.507 115.4H933.507ZM936.408 107.261C938.397 105.273 941.067 104.18 944.727 104.18V98.18C939.747 98.18 935.457 99.7271 932.166 103.019L936.408 107.261ZM944.727 104.18C948.24 104.18 950.861 105.256 952.866 107.261L957.108 103.019C953.833 99.7437 949.614 98.18 944.727 98.18V104.18ZM952.866 107.261C954.871 109.266 955.947 111.887 955.947 115.4H961.947C961.947 110.513 960.383 106.294 957.108 103.019L952.866 107.261ZM955.947 115.4C955.947 118.766 954.888 121.336 952.866 123.359L957.108 127.601C960.366 124.344 961.947 120.194 961.947 115.4H955.947ZM952.866 123.359C950.861 125.364 948.24 126.44 944.727 126.44V132.44C949.614 132.44 953.833 130.876 957.108 127.601L952.866 123.359Z" fill="#D9E7FF" mask="url(#path-1-outside-1_81_64)"/>
</svg>
