<svg width="100" height="131" viewBox="0 0 100 131" fill="none" xmlns="http://www.w3.org/2000/svg">
<path d="M79.4865 29.02H20.2998V21.6509L21.5502 16.7382L26.9687 13.463H39.4729V9.36909L41.9738 6.50333L46.9755 2H52.8108L59.0629 6.50333L60.7301 13.463H74.9016L79.4865 19.6039V29.02Z" fill="#E4B022"/>
<path d="M4.73468 20.6567L19.2584 21.9064V28.1549H79.4282V21.9064H93.537L96.8567 25.2389V126.881L94.3669 129.38H4.73468L1 126.881V25.2389L4.73468 20.6567Z" fill="#D0D0E9"/>
<path d="M22.8735 51.4161L26.1674 54.74L33.1669 47.6768M22.8735 77.5918L26.1674 80.9156L33.1669 73.8524M22.8735 104.183L26.1674 107.507L33.1669 100.443" stroke="#D033D3" stroke-width="2.57333" stroke-linecap="round" stroke-linejoin="round"/>
<path d="M79.5792 21.9161H94.2836C96.0601 21.9161 97.5002 23.3562 97.5002 25.1328V126.163C97.5002 127.94 96.0601 129.38 94.2836 129.38H4.86022C3.08371 129.38 1.64355 127.94 1.64355 126.163V25.1328C1.64355 23.3562 3.08371 21.9161 4.86022 21.9161H19.5646M79.5792 21.9161V28.3264C79.5792 28.6817 79.2912 28.9697 78.9359 28.9697H20.2079C19.8526 28.9697 19.5646 28.6817 19.5646 28.3264V21.9161M79.5792 21.9161V21.9161C79.5792 17.333 75.8639 13.6177 71.2808 13.6177H61.2377C60.7794 13.6177 60.4079 13.2462 60.4079 12.7879V12.6276C60.4079 6.75813 55.6497 2 49.7803 2V2C43.9108 2 39.1527 6.75813 39.1527 12.6276V12.7879C39.1527 13.2462 38.7812 13.6177 38.3228 13.6177H27.863C23.2799 13.6177 19.5646 17.333 19.5646 21.9161V21.9161M46.2377 45.9814H81.2463M46.2377 56.7693H81.2463M46.2377 72.1212H81.2463M46.2377 82.9091H81.2463M46.2377 98.2611H73.3277M46.2377 109.049C46.2377 109.049 62.7484 109.049 73.3277 109.049M37.4856 96.2284V112.326C37.4856 113.037 36.9096 113.613 36.1989 113.613H18.7674C18.0568 113.613 17.4807 113.037 17.4807 112.326V96.2284C17.4807 95.5178 18.0568 94.9418 18.7674 94.9418H36.1989C36.9096 94.9418 37.4856 95.5178 37.4856 96.2284ZM37.4856 70.0886V86.1866C37.4856 86.8972 36.9096 87.4732 36.1989 87.4732H18.7674C18.0568 87.4732 17.4807 86.8972 17.4807 86.1866V70.0886C17.4807 69.3779 18.0568 68.8019 18.7674 68.8019H36.1989C36.9096 68.8019 37.4856 69.3779 37.4856 70.0886ZM46.4436 14.6525L46.8857 15.0926C48.1407 16.342 50.1696 16.342 51.4246 15.0926L51.8666 14.6525C53.1295 13.3952 53.1295 11.3507 51.8666 10.0934L51.4246 9.65333C50.1696 8.40388 48.1407 8.40388 46.8857 9.65333L46.4436 10.0934C45.1807 11.3507 45.1807 13.3952 46.4436 14.6525ZM37.4856 43.5338V59.6318C37.4856 60.3424 36.9096 60.9184 36.1989 60.9184H18.7674C18.0568 60.9184 17.4807 60.3424 17.4807 59.6318V43.5338C17.4807 42.8232 18.0568 42.2471 18.7674 42.2471H36.1989C36.9096 42.2471 37.4856 42.8232 37.4856 43.5338Z" stroke="#050A54" stroke-width="3.21667" stroke-linecap="round"/>
</svg>
