<svg width="590" height="717" viewBox="0 0 590 717" fill="none" xmlns="http://www.w3.org/2000/svg">
<g clip-path="url(#clip0_345_26)">
<path d="M89.3605 340.894C99.6097 337.4 109.869 333.907 120.121 330.398C87.7912 402.303 93.9853 477.254 136.33 523.822C126.081 527.316 115.822 530.809 105.57 534.318C63.225 487.75 57.0308 412.799 89.3605 340.894Z" fill="#D94D2E"/>
<path d="M408.029 585.591C399.486 578.945 390.931 572.313 382.388 565.667C437.539 535.485 468.072 466.753 461.036 388.091C469.579 394.737 478.135 401.37 486.677 408.015C493.713 486.676 463.183 555.394 408.029 585.591Z" fill="#D94D2E"/>
<path d="M137.016 342.895C122.538 321.827 107.221 295.921 106.159 263.631C105.428 241.476 113.14 218.371 125.281 202.527C124.409 201.662 123.693 201.175 123.158 201.115C99.2112 198.585 67.9566 235.436 60.6862 278.376C52.703 325.525 67.732 367.391 94.244 371.88C109.633 374.486 125.382 361.387 137.307 343.341C137.205 343.202 137.103 343.063 137.013 342.91L137.016 342.895Z" fill="#D94D2E"/>
<path d="M441.118 394.385C461.724 379.258 484.716 359.838 496.349 329.698C504.333 309.017 504.656 284.662 498.408 265.704C499.516 265.175 500.352 264.95 500.877 265.07C524.324 270.549 541.706 315.635 534.435 358.575C526.452 405.724 498.478 440.309 471.966 435.82C456.577 433.215 446.018 415.661 440.698 394.696C440.841 394.598 440.983 394.5 441.118 394.385Z" fill="#D94D2E"/>
<path d="M276.339 627.758L286.739 620.95C290.494 618.49 296.353 619.101 299.761 622.286L302.397 624.76C302.348 626.413 302.872 627.966 304.256 628.719C306.601 630 308.93 631.431 311.204 633.005L311.529 633.32C311.609 634.766 312.13 636.09 313.27 636.862C315.49 638.381 317.819 639.691 320.029 641.269L324.94 645.867C326.719 648.196 328.457 650.579 330.375 652.642C340.203 666.641 350.015 681.415 354.014 696.729C348.181 689.017 340.217 682.119 331.89 676.181C323.993 670.559 315.494 665.324 307.205 660.093C303.915 658.011 300.554 655.979 297.109 654.069C294.065 651.647 290.53 649.646 286.63 648.254L275.704 638.018C272.296 634.834 272.576 630.201 276.331 627.741L276.339 627.758Z" fill="url(#paint0_linear_345_26)"/>
<path d="M321.918 622.363L333.806 614.587C338.092 611.775 344.788 612.467 348.684 616.115L351.701 618.943C351.642 620.839 352.244 622.618 353.822 623.465C356.503 624.925 359.165 626.565 361.758 628.361L362.129 628.714C362.217 630.36 362.821 631.88 364.111 632.754C366.653 634.481 369.307 635.982 371.823 637.796L377.432 643.045C379.459 645.706 381.456 648.422 383.637 650.789C394.87 666.779 406.067 683.663 410.634 701.147C403.967 692.349 394.88 684.452 385.37 677.688C376.349 671.267 366.653 665.295 357.168 659.313C353.403 656.937 349.577 654.612 345.641 652.436C342.163 649.667 338.13 647.384 333.676 645.791L321.2 634.103C317.304 630.455 317.632 625.174 321.916 622.377L321.918 622.363Z" fill="url(#paint1_linear_345_26)"/>
<path d="M347.648 591.483L362.664 581.66C368.083 578.11 376.544 578.979 381.463 583.593L385.277 587.166C385.197 589.562 385.963 591.796 387.95 592.894C391.341 594.749 394.697 596.812 397.988 599.077L398.458 599.522C398.579 601.601 399.334 603.528 400.971 604.644C404.18 606.834 407.544 608.73 410.727 611.007L417.822 617.651C420.381 621.012 422.907 624.443 425.674 627.443C439.867 647.655 454.026 668.989 459.804 691.099C451.379 679.976 439.884 669.994 427.866 661.434C416.465 653.313 404.202 645.763 392.214 638.199C387.463 635.199 382.618 632.259 377.638 629.494C373.242 626.006 368.149 623.1 362.503 621.108L346.73 606.331C341.811 601.717 342.216 595.046 347.635 591.496L347.648 591.483Z" fill="url(#paint2_linear_345_26)"/>
<path d="M215.773 617.503L208.193 607.65C205.458 604.092 199.724 602.74 195.458 604.625L192.155 606.094C191.657 607.671 190.65 608.964 189.096 609.22C186.46 609.658 183.789 610.242 181.124 610.98L180.714 611.17C180.162 612.51 179.234 613.588 177.904 613.942C175.307 614.646 172.677 615.115 170.07 615.878L163.919 618.603C161.473 620.217 159.047 621.895 156.557 623.211C142.669 633.194 128.54 643.915 119.723 657.059C127.769 651.697 137.56 647.805 147.378 644.939C156.685 642.231 166.433 640.085 175.982 637.874C179.774 636.992 183.618 636.179 187.499 635.51C191.17 634.225 195.167 633.499 199.308 633.469L212.995 627.4C217.261 625.515 218.522 621.048 215.786 617.49L215.773 617.503Z" fill="url(#paint3_linear_345_26)"/>
<path d="M174.51 597.404L165.845 586.148C162.723 582.082 156.173 580.531 151.293 582.693L147.513 584.371C146.945 586.18 145.791 587.662 144.022 587.942C141.009 588.438 137.956 589.111 134.916 589.953L134.45 590.164C133.825 591.689 132.754 592.926 131.248 593.327C128.28 594.12 125.28 594.664 122.306 595.548L115.282 598.658C112.492 600.503 109.713 602.411 106.874 603.928C91.0027 615.329 74.8715 627.586 64.8041 642.592C73.9956 636.479 85.1755 632.014 96.3816 628.758C107.014 625.664 118.136 623.217 129.061 620.69C133.398 619.687 137.777 618.751 142.209 617.992C146.405 616.522 150.965 615.693 155.695 615.655L171.323 608.726C176.203 606.564 177.632 601.47 174.508 597.419L174.51 597.404Z" fill="url(#paint4_linear_345_26)"/>
<path d="M160.38 559.776L149.435 545.557C145.486 540.421 137.211 538.456 131.048 541.193L126.27 543.312C125.557 545.6 124.098 547.457 121.86 547.841C118.047 548.476 114.199 549.318 110.346 550.374L109.755 550.64C108.957 552.563 107.61 554.134 105.697 554.648C101.946 555.66 98.1454 556.343 94.3897 557.445L85.5034 561.384C81.9805 563.715 78.4655 566.123 74.865 568.045C54.8102 582.458 34.4165 597.941 21.6824 616.918C33.2996 609.187 47.4369 603.561 61.6062 599.419C75.0444 595.504 89.1095 592.412 102.919 589.216C108.393 587.947 113.936 586.766 119.549 585.796C124.848 583.948 130.613 582.881 136.6 582.858L156.36 574.098C162.523 571.36 164.337 564.928 160.388 559.792L160.38 559.776Z" fill="url(#paint5_linear_345_26)"/>
<path d="M252.175 586.524C348.64 602.858 431.912 586.143 438.168 549.192C444.425 512.24 371.297 469.044 274.832 452.711C178.367 436.377 95.095 453.092 88.8384 490.044C82.5818 526.995 155.71 570.191 252.175 586.524Z" fill="url(#paint6_linear_345_26)"/>
<path d="M113.699 570.694L113.699 570.694C109.491 563.753 101.171 546.098 95.135 528.87C92.1178 520.259 89.6889 511.804 88.6232 504.879C88.0901 501.414 87.905 498.375 88.1405 495.911C88.3777 493.428 89.0293 491.664 90.0386 490.598L90.0388 490.598C90.7914 489.803 91.8227 489.485 93.2513 489.677C94.7176 489.874 96.5138 490.603 98.5862 491.817C102.721 494.238 107.648 498.398 112.725 503.197C117.791 507.985 122.951 513.354 127.553 518.158C127.716 518.328 127.878 518.497 128.039 518.665C132.424 523.242 136.298 527.286 139.019 529.697L139.019 529.697C173.23 559.974 211.319 580.621 252.008 587.51C292.696 594.4 335.447 587.456 377.731 570.115L377.353 569.194L377.731 570.115C381.303 568.65 386.453 566.058 392.217 563.158L392.686 562.922C398.66 559.916 405.291 556.589 411.614 553.778C417.951 550.96 423.909 548.692 428.548 547.773C430.873 547.312 432.779 547.209 434.202 547.49C435.589 547.763 436.426 548.376 436.853 549.321C437.441 550.625 437.478 552.468 436.896 554.857C436.32 557.225 435.167 560 433.552 563.063C430.322 569.187 425.323 576.319 419.695 583.433C408.438 597.664 394.798 611.666 388.144 617.163C341.146 655.988 287.648 669.093 239.573 660.953C191.497 652.813 145.288 622.811 113.699 570.694Z" fill="url(#paint7_linear_345_26)" stroke="#C05A3D" stroke-width="2"/>
<path d="M215.461 468.661C226.354 470.505 237.054 460.96 239.36 447.34C241.666 433.72 234.705 421.184 223.812 419.34C212.918 417.495 202.218 427.041 199.912 440.661C197.606 454.28 204.567 466.816 215.461 468.661Z" fill="black"/>
<path d="M328.642 491.641C339.636 493.502 350.415 483.982 352.719 470.376C355.023 456.77 347.978 444.232 336.984 442.37C325.991 440.509 315.211 450.03 312.907 463.635C310.604 477.241 317.648 489.779 328.642 491.641Z" fill="black"/>
<ellipse cx="219.736" cy="431.5" rx="6" ry="7.5" fill="#D9D9D9"/>
<ellipse cx="333.236" cy="457" rx="5.5" ry="10" fill="#D9D9D9"/>
</g>
<g clip-path="url(#clip1_345_26)">
<path d="M436.112 328.587L80.9875 265.295C79.6117 265.049 79.8942 261.639 81.3216 261.097L172.908 225.754C172.908 225.754 173.187 225.682 173.302 225.702L542.879 286.057C544.255 286.303 543.967 289.743 542.545 290.255L436.535 328.54C436.535 328.54 436.256 328.613 436.141 328.592L436.112 328.587Z" fill="url(#paint8_linear_345_26)" stroke="#231F20" stroke-width="2" stroke-miterlimit="10"/>
<path d="M533.769 285.567L190.078 228.477C180.713 226.931 175.032 214.832 177.397 201.564L205.594 43.3529C207.949 30.1439 217.363 20.7964 226.649 22.4515L569.621 83.578C578.908 85.2331 584.513 97.2573 582.158 110.466L554.681 264.64C552.342 277.76 542.991 287.088 533.769 285.567Z" fill="url(#paint9_linear_345_26)" stroke="#231F20" stroke-width="2" stroke-miterlimit="10"/>
<path d="M425.45 326.687L85.4015 266.081C78.9746 264.936 72.803 269.403 71.6168 276.059L69.5483 287.665C68.3621 294.32 72.6104 300.645 79.0373 301.79L419.086 362.395C425.513 363.541 431.684 359.074 432.87 352.418L434.939 340.812C436.125 334.156 431.877 327.832 425.45 326.687Z" fill="#4B4198" stroke="#231F20" stroke-width="2" stroke-miterlimit="10"/>
<path d="M436.567 362.204L541.868 321.097C543.647 320.404 545.173 317.981 545.702 315.012L548.919 296.965C549.765 292.216 547.692 288.416 544.877 289.446L440.09 327.673C438.287 328.331 436.727 330.779 436.192 333.777L432.463 354.704C431.611 359.483 433.707 363.317 436.567 362.204Z" fill="#3B2D8C" stroke="#231F20" stroke-width="2" stroke-miterlimit="10"/>
<path d="M563.238 100.142L226.945 40.2061L198.102 202.038L534.396 261.974L563.238 100.142Z" fill="url(#paint10_linear_345_26)" stroke="#231F20" stroke-width="0.5" stroke-miterlimit="10"/>
<path d="M454.951 246.391C455.19 248.105 407.612 237.833 354.989 229.292C328.037 224.918 288.86 217.981 261.178 213.246C268.862 190.964 293.311 150.23 334.838 142.227C334.661 133.508 336.384 112.548 327.175 109.01C319.349 106.003 321.545 98.0387 326.29 94.6801C330.086 91.9932 337.168 92.0367 340.066 97.0364C342.481 101.203 343.957 103.54 338.797 109.33C336.062 112.398 343.669 139.355 350.962 140.602C367.62 141.892 386.488 146.145 398.241 151.885C404.25 146.009 419.074 130.172 416.034 125.878C414.019 123.031 411.055 120.856 413.646 115.461C416.237 110.066 428.391 112.145 429.852 118.233C431.313 124.321 427.912 129.578 423.86 128.885C420.619 128.33 410.034 156.077 411.972 159.379C426.089 169.074 428.007 187.461 434.629 202.454C441.157 217.235 452.47 228.563 454.951 246.391Z" fill="#F6E569"/>
<path d="M343.118 219.262C322.2 218.71 282.767 209.645 265.273 202.413L261.087 213.005L455.629 246.282C451.183 226.799 443.635 218.995 437.749 207.82C432.604 198.055 431.889 193.319 431.724 194.279C426.027 227.589 367.542 219.906 343.118 219.262Z" fill="url(#paint11_linear_345_26)"/>
<ellipse cx="322.836" cy="171.265" rx="3.90054" ry="3.48327" transform="rotate(9.70673 322.836 171.265)" fill="#235466"/>
<ellipse cx="384.821" cy="179.041" rx="3.90054" ry="3.48327" transform="rotate(9.70673 384.821 179.041)" fill="#235466"/>
<path d="M341.329 178.826C344.209 181.216 351.7 184.698 358.624 179.507" stroke="#235466" stroke-width="1.5" stroke-linecap="round" stroke-linejoin="round"/>
<path d="M341.329 178.826C344.209 181.216 351.7 184.698 358.624 179.507" stroke="black" stroke-opacity="0.2" stroke-width="1.5" stroke-linecap="round" stroke-linejoin="round"/>
</g>
<path d="M496.811 410.417C483.696 393.757 469.761 373.33 468.244 348.19C467.208 330.938 473.588 313.097 483.995 300.984C483.218 300.304 482.571 299.905 482.107 299.856C460.994 297.456 434.148 325.569 428.513 358.845C422.325 395.396 436.291 428.224 459.701 432.188C473.294 434.489 486.909 424.567 497.092 410.739C497.005 410.633 496.91 410.51 496.823 410.404L496.811 410.417Z" fill="#CB3B1A"/>
<path d="M79.1496 339.699C97.0171 328.286 116.9 313.585 126.609 290.345C133.267 274.396 133.116 255.449 127.276 240.585C128.234 240.199 128.976 240.035 129.43 240.142C150.157 244.825 166.252 280.21 160.618 313.485C154.429 350.036 130.434 376.437 107.024 372.473C93.4311 370.172 83.841 356.32 78.7779 339.911C78.895 339.839 79.0248 339.754 79.1419 339.683L79.1496 339.699Z" fill="#CB3B1A"/>
<defs>
<linearGradient id="paint0_linear_345_26" x1="270.506" y1="649.096" x2="359.527" y2="664.169" gradientUnits="userSpaceOnUse">
<stop stop-color="#D94D2E"/>
<stop offset="1" stop-color="#BF3225"/>
</linearGradient>
<linearGradient id="paint1_linear_345_26" x1="315.267" y1="646.737" x2="416.932" y2="663.951" gradientUnits="userSpaceOnUse">
<stop stop-color="#D94D2E"/>
<stop offset="1" stop-color="#BF3225"/>
</linearGradient>
<linearGradient id="paint2_linear_345_26" x1="339.228" y1="622.31" x2="467.766" y2="644.074" gradientUnits="userSpaceOnUse">
<stop stop-color="#D94D2E"/>
<stop offset="1" stop-color="#BF3225"/>
</linearGradient>
<linearGradient id="paint3_linear_345_26" x1="125.236" y1="624.499" x2="214.256" y2="639.572" gradientUnits="userSpaceOnUse">
<stop stop-color="#D94D2E"/>
<stop offset="1" stop-color="#BF3225"/>
</linearGradient>
<linearGradient id="paint4_linear_345_26" x1="71.102" y1="605.396" x2="172.767" y2="622.61" gradientUnits="userSpaceOnUse">
<stop stop-color="#D94D2E"/>
<stop offset="1" stop-color="#BF3225"/>
</linearGradient>
<linearGradient id="paint5_linear_345_26" x1="29.6447" y1="569.892" x2="158.182" y2="591.656" gradientUnits="userSpaceOnUse">
<stop stop-color="#D94D2E"/>
<stop offset="1" stop-color="#BF3225"/>
</linearGradient>
<linearGradient id="paint6_linear_345_26" x1="274.832" y1="452.711" x2="252.175" y2="586.524" gradientUnits="userSpaceOnUse">
<stop stop-color="#D94D2E"/>
<stop offset="1" stop-color="#AC1E1E"/>
</linearGradient>
<linearGradient id="paint7_linear_345_26" x1="263.845" y1="517.543" x2="239.396" y2="661.938" gradientUnits="userSpaceOnUse">
<stop stop-color="#F7A733"/>
<stop offset="1" stop-color="#FED598"/>
</linearGradient>
<linearGradient id="paint8_linear_345_26" x1="85.0861" y1="235.246" x2="538.78" y2="316.106" gradientUnits="userSpaceOnUse">
<stop stop-color="#5F5BA8"/>
<stop offset="1" stop-color="#362788"/>
</linearGradient>
<linearGradient id="paint9_linear_345_26" x1="398.135" y1="53.0147" x2="361.42" y2="259.016" gradientUnits="userSpaceOnUse">
<stop stop-color="#7263AC"/>
<stop offset="1" stop-color="#2E2846"/>
</linearGradient>
<linearGradient id="paint10_linear_345_26" x1="395.092" y1="70.1742" x2="366.249" y2="232.006" gradientUnits="userSpaceOnUse">
<stop stop-color="#DC7FB2"/>
<stop offset="1" stop-color="#C64054"/>
</linearGradient>
<linearGradient id="paint11_linear_345_26" x1="262.027" y1="207.511" x2="451.029" y2="225.676" gradientUnits="userSpaceOnUse">
<stop stop-color="#E7D04C"/>
<stop offset="1" stop-color="#E9CB36"/>
</linearGradient>
<clipPath id="clip0_345_26">
<rect width="480.479" height="450.104" fill="white" transform="translate(75.1416 193) rotate(9.61008)"/>
</clipPath>
<clipPath id="clip1_345_26">
<rect width="479.418" height="306.965" fill="white" transform="translate(117.86) rotate(10.1055)"/>
</clipPath>
</defs>
</svg>
