<svg width="840" height="892" viewBox="0 0 840 892" fill="none" xmlns="http://www.w3.org/2000/svg">
<path d="M839 473L7.45058e-06 473" stroke="#2A307F" stroke-width="1.5"/>
<path d="M839 571H7.45058e-06" stroke="#2A307F" stroke-width="1.5"/>
<path d="M815 672H21" stroke="#2A307F" stroke-width="1.5"/>
<path d="M815 773H33" stroke="#2A307F" stroke-width="1.5"/>
<path d="M840 381L3.00407e-05 381" stroke="#2A307F" stroke-width="1.5"/>
<path d="M840 177L0 177" stroke="#2A307F" stroke-width="1.5"/>
<path d="M815 74L33 74" stroke="#2A307F" stroke-width="1.5"/>
<path d="M840 282L3.00407e-05 282" stroke="#2A307F" stroke-width="1.5"/>
<path d="M88 46L88 821" stroke="#2A307F" stroke-width="1.5"/>
<path d="M491 22L491 791" stroke="#2A307F" stroke-width="1.5"/>
<path d="M393 45.5L393 841" stroke="#2A307F" stroke-width="1.5"/>
<path d="M292 12L292 829" stroke="#2A307F" stroke-width="1.5"/>
<path d="M187 35L187 892" stroke="#2A307F" stroke-width="1.5"/>
<path d="M583 0L583 861" stroke="#2A307F" stroke-width="1.5"/>
<path d="M784 53L784 878" stroke="#2A307F" stroke-width="1.5"/>
<path d="M682 35L682 803" stroke="#2A307F" stroke-width="1.5"/>
</svg>
