<svg xmlns="http://www.w3.org/2000/svg" width="145" height="145" viewBox="0 0 145 145" fill="none">
<path d="M54.375 40.7811V90.6249ZM90.625 54.3749V104.219ZM93.664 125.352L123.117 110.629C125.419 109.481 126.875 107.125 126.875 104.551V29.1207C126.875 24.0699 121.558 20.7832 117.039 23.0428L93.664 34.7274C91.7487 35.688 89.4952 35.688 87.586 34.7274L57.414 19.6474C56.4704 19.1757 55.4299 18.9302 54.375 18.9302C53.3201 18.9302 52.2796 19.1757 51.336 19.6474L21.8829 34.3709C19.575 35.5249 18.125 37.8811 18.125 40.4489V115.879C18.125 120.93 23.4417 124.217 27.9608 121.957L51.336 110.272C53.2512 109.312 55.5048 109.312 57.414 110.272L87.586 125.358C89.5012 126.313 91.7548 126.313 93.664 125.358V125.352Z" fill="#D0D0E9"/>
<path d="M89.9369 35.2265L56.9108 19.1852C56.2531 18.8658 55.4861 19.3371 55.474 20.0682L54.0106 108.359C54.0042 108.75 54.2258 109.108 54.5782 109.277L89.0677 125.813C89.7315 126.132 90.5 125.648 90.5 124.912V36.126C90.5 35.7431 90.2813 35.3938 89.9369 35.2265Z" fill="#ABABD1"/>
<path d="M54.375 40.7811V90.6249M90.625 54.3749V104.219M93.664 125.352L123.117 110.629C125.419 109.481 126.875 107.125 126.875 104.551V29.1207C126.875 24.0699 121.558 20.7832 117.039 23.0428L93.664 34.7274C91.7487 35.688 89.4952 35.688 87.586 34.7274L57.414 19.6474C56.4704 19.1757 55.4299 18.9302 54.375 18.9302C53.3201 18.9302 52.2796 19.1757 51.336 19.6474L21.8829 34.3709C19.575 35.5249 18.125 37.8811 18.125 40.4489V115.879C18.125 120.93 23.4417 124.217 27.9608 121.957L51.336 110.272C53.2512 109.312 55.5048 109.312 57.414 110.272L87.586 125.358C89.5012 126.313 91.7548 126.313 93.664 125.358V125.352Z" stroke="#050A54" stroke-width="3" stroke-linecap="round" stroke-linejoin="round"/>
<path d="M70.7991 47.9031L69.2781 53.4802C69.1271 54.034 68.5418 54.3473 67.9972 54.1657L64.4806 52.9935C63.5558 52.6853 62.7815 53.7474 63.358 54.5336L66.7055 59.0984C66.891 59.3513 66.947 59.6766 66.8569 59.9771L64.9681 66.2731C64.6821 67.2262 65.8122 67.9666 66.5718 67.3238L69.4733 64.8688C69.9848 64.4359 70.7691 64.6189 71.0363 65.2334L72.8571 69.4212C73.3145 70.4733 74.8947 70.0523 74.768 68.9121L74.0745 62.6709C74.0295 62.2655 74.2352 61.8734 74.5943 61.68L78.737 59.4493C79.4629 59.0584 79.4305 58.0064 78.6819 57.6609L74.4804 55.7217C74.1799 55.583 73.9674 55.3046 73.913 54.9781L72.7503 48.0018C72.5739 46.9436 71.0814 46.8681 70.7991 47.9031Z" fill="#B04CEE" stroke="#8C17D4" stroke-width="2"/>
<path d="M70.2991 76.4031L68.7781 81.9802C68.6271 82.534 68.0418 82.8473 67.4972 82.6657L63.9806 81.4935C63.0558 81.1853 62.2815 82.2474 62.858 83.0336L66.2055 87.5984C66.391 87.8513 66.447 88.1766 66.3569 88.4771L64.4681 94.7731C64.1821 95.7262 65.3122 96.4666 66.0718 95.8238L68.9733 93.3688C69.4848 92.9359 70.2691 93.1189 70.5363 93.7334L72.3571 97.9212C72.8145 98.9733 74.3947 98.5523 74.268 97.4121L73.5745 91.1709C73.5295 90.7655 73.7352 90.3734 74.0943 90.18L78.237 87.9493C78.9629 87.5584 78.9305 86.5064 78.1819 86.1609L73.9804 84.2217C73.6799 84.083 73.4674 83.8046 73.413 83.4781L72.2503 76.5018C72.0739 75.4436 70.5814 75.3681 70.2991 76.4031Z" fill="#E4B022" stroke="#BB8D11" stroke-width="2"/>
</svg>