<svg width="226" height="451" viewBox="0 0 226 451" fill="none" xmlns="http://www.w3.org/2000/svg">
<path d="M190.904 364.379C190.973 371.697 189.798 377.313 188.826 381.944C188.109 385.302 186.814 391.324 183.717 398.468C181.829 402.851 178.296 410.993 172.403 416.38C171.769 416.952 170.672 417.901 169.154 419.493C165.73 423.113 162.693 427.868 162.693 427.868C159.18 433.381 156.756 438.595 156.567 438.617C156.422 438.552 158.86 434.432 157.808 433.467C156.956 432.696 154.857 434.963 151.374 435.381C147.662 435.825 143.043 434.163 141.031 430.99C138.459 426.959 140.742 422.194 138.731 420.849C136.158 419.134 129.955 425.3 129.955 425.3C130.343 428.033 131.268 431.152 133.689 432.369C134.212 432.636 134.776 432.789 135.278 432.868C133.836 432.827 131.735 432.629 129.434 431.994C124.31 430.592 117.007 426.713 116.374 421.557C116.251 420.583 116.329 419.328 115.951 419.249C115.305 419.105 114.041 422.591 113.55 423.946C109.407 435.541 103.831 443.032 103.536 442.835C103.342 442.694 105.678 438.884 106.324 432.692C106.324 432.692 106.634 429.732 106.348 426.569C105.654 418.806 101.052 411.808 95.7219 404.174C85.7487 389.911 85.9093 391.585 83.353 386.849C78.4821 377.822 76.7035 369.532 75.5928 364.145C73.8503 355.689 72.0087 345.618 73.8495 333.13C74.6648 327.595 75.8958 323.815 76.1438 316.028C76.3241 310.199 75.8529 305.391 75.4086 302.164C74.7347 299.816 74.0698 297.426 73.4138 294.995C71.5226 287.895 69.9121 280.981 68.5298 274.271L65.9905 251.645C65.0001 242.819 71.4852 234.78 80.4021 233.779L144.833 226.548C153.75 225.547 161.856 231.95 162.846 240.775L166.536 273.657C166.503 274.704 166.448 276.28 166.391 278.21C166.306 281.36 166.278 283.544 166.272 284.465C166.153 293.036 165.398 293.866 165.696 297.989C165.834 299.829 166.318 304.378 168.544 309.22C171.043 314.667 174.057 315.804 177.316 320.828C181.169 326.759 183.121 331.957 184.875 336.621C187.311 343.091 190.765 352.29 190.891 364.381L190.904 364.379Z" fill="url(#paint0_linear_363_243)" stroke="#3D259F" stroke-width="3" stroke-miterlimit="10"/>
<path d="M137.236 432.892C137.236 432.892 136.352 433.059 135.277 432.868C136.487 432.922 137.233 432.865 137.236 432.892Z" fill="#A16EC7" stroke="#3D259F" stroke-width="3" stroke-miterlimit="10"/>
<path d="M13.2078 135.934C13.9328 140.199 16.7007 143.897 20.5631 146.009L32.5315 150.989C42.4434 156.417 69.5359 160.851 72.5686 146.55C74.654 136.729 74.3649 116.6 76.3865 83.0496C77.211 69.3082 79.7427 46.0322 90.4378 13.5803C90.7696 12.1484 90.6571 11.2674 90.1752 10.8746C88.0242 9.13911 78.7244 16.3573 68.848 27.093L43.2797 54.8906C38.3288 60.2667 33.672 67.4106 32.2113 71.5826C27.8338 78.0452 22.6275 87.1195 18.6161 98.6729C14.6242 110.156 13.7054 114.159 13.1332 121.86C12.83 122.45 12.597 132.441 13.1958 135.949L13.2078 135.934Z" fill="url(#paint1_linear_363_243)" stroke="#3D259F" stroke-width="3" stroke-miterlimit="10"/>
<path d="M190.612 116.024C190.864 120.343 189.037 124.542 185.78 127.453L175.386 134.916C167.069 142.363 142.031 152.579 135.93 139.29C131.746 130.173 127.539 110.483 118.131 78.2158C114.281 64.999 106.68 42.8602 89.176 13.5459C88.5485 12.2217 88.4495 11.3391 88.8323 10.8493C90.5061 8.6981 101.054 13.7023 112.933 22.0236L143.681 43.5551C149.635 47.7209 155.707 53.6744 158.029 57.4218C163.678 62.7727 170.686 70.4896 177.118 80.871C183.517 91.202 185.273 94.9046 187.538 102.287C187.965 102.795 190.407 112.486 190.614 116.038L190.612 116.024Z" fill="url(#paint2_linear_363_243)" stroke="#3D259F" stroke-width="3" stroke-miterlimit="10"/>
<path d="M88.9924 10.4522C82.5456 37.1193 73.4234 80.173 69.2502 128.805C66.5712 159.91 66.4202 187.577 66.4005 194.715C66.364 207.556 66.6504 219.859 67.1454 231.584C67.5581 233.189 68.9495 239.127 74.7543 242.7C78.9724 245.3 84.5206 246.587 90.3976 245.927L137.846 240.602C149.6 239.283 158.359 230.663 157.327 221.463C154.607 201.62 150.621 179.631 144.73 156.027C142.047 145.292 140.95 141.001 139.898 137.355C139.898 137.355 137.256 131.125 135.823 124.082C133.364 111.928 118.206 67.1853 89.0074 10.464L88.9924 10.4522Z" fill="url(#paint3_linear_363_243)" stroke="#3D259F" stroke-width="3" stroke-miterlimit="10"/>
<path d="M97.5423 284.109C109.854 282.727 118.726 271.728 117.358 259.543C115.991 247.357 104.901 238.599 92.5899 239.981C80.2783 241.362 71.4065 252.361 72.774 264.546C74.1416 276.732 85.2307 285.49 97.5423 284.109Z" fill="white" stroke="#3D259F" stroke-width="3" stroke-miterlimit="10"/>
<path d="M142.139 279.104C154.45 277.722 163.322 266.724 161.955 254.538C160.587 242.352 149.498 233.594 137.187 234.976C124.875 236.357 116.003 247.356 117.371 259.542C118.738 271.727 129.827 280.485 142.139 279.104Z" fill="white" stroke="#3D259F" stroke-width="3" stroke-miterlimit="10"/>
<path d="M107.918 266.333C111.026 257.221 107.791 247.923 100.693 245.564C93.5949 243.206 85.3215 248.68 82.2138 257.791C79.1062 266.903 82.341 276.201 89.4391 278.56C96.5372 280.919 104.811 275.444 107.918 266.333Z" fill="#1C1C5C" stroke="#3D259F" stroke-width="3" stroke-miterlimit="10"/>
<path d="M152.51 261.322C155.618 252.211 152.383 242.912 145.285 240.554C138.187 238.195 129.913 243.669 126.806 252.781C123.698 261.892 126.933 271.19 134.031 273.549C141.129 275.908 149.402 270.434 152.51 261.322Z" fill="#1C1C5C" stroke="#3D259F" stroke-width="3" stroke-miterlimit="10"/>
<path d="M98.8211 321.472C96.194 326.466 92.7831 334.715 93.8562 344.398C96.1703 365.14 116.83 371.988 120.179 393.047C121.112 398.927 121.056 408.182 114.586 420.621" stroke="#3D259F" stroke-width="3" stroke-miterlimit="10"/>
<path d="M92.5411 356.57C90.3462 364.196 90.8009 370.197 92.44 374.928C96.5512 386.816 107.448 388.951 112.775 401.312C115.57 407.809 115.723 414.535 114.788 420.584" stroke="#3D259F" stroke-width="3" stroke-miterlimit="10"/>
<path d="M119.229 318.031C118.749 321.307 118.482 326.239 120.187 331.68C122.194 338.104 125.298 339.922 128.198 346.258C130.682 351.693 129.646 353.069 131.642 364.639C134.373 380.432 136.696 380.171 137.091 389.416C137.368 396.033 137.713 403.983 132.579 411.14C127.457 418.282 119.701 420.723 116.374 421.557" stroke="#3D259F" stroke-width="3" stroke-miterlimit="10"/>
<path d="M135.951 310.873C135.17 315.375 134.499 322.437 136.402 330.497C139.296 342.751 145.105 344.537 149.554 356.386C153.16 365.961 152.547 374.642 151.35 392.013C150.333 406.724 149.704 414.16 144.204 418.055C138.108 422.368 129.649 420.379 125.753 419.191" stroke="#3D259F" stroke-width="3" stroke-miterlimit="10"/>
<path d="M157.039 315.439C161.244 319.747 167.009 326.507 171.921 335.895C181.406 353.976 181.88 370.51 182.003 378.066C182.136 385.715 181.465 397.286 177.183 410.82" stroke="#3D259F" stroke-width="3" stroke-miterlimit="10"/>
<path d="M154.103 342.552C156.109 347.622 159.003 355.489 161.7 365.382C166.512 383.027 169.891 395.945 167.191 411.508C166.269 416.825 164.167 425.158 158.656 434.808" stroke="#3D259F" stroke-width="3" stroke-miterlimit="10"/>
<path d="M158.835 432.499C157.469 432.03 152.565 430.143 149.701 424.98C146.116 418.518 148.942 411.024 148.942 411.024" stroke="#3D259F" stroke-width="3" stroke-miterlimit="10"/>
<defs>
<linearGradient id="paint0_linear_363_243" x1="117.958" y1="229.564" x2="141.608" y2="440.295" gradientUnits="userSpaceOnUse">
<stop stop-color="#A16EC7"/>
<stop offset="1" stop-color="#AD5EE8"/>
</linearGradient>
<linearGradient id="paint1_linear_363_243" x1="45.3441" y1="15.5375" x2="61.0792" y2="155.744" gradientUnits="userSpaceOnUse">
<stop stop-color="#F066CB"/>
<stop offset="1" stop-color="#C478C7"/>
</linearGradient>
<linearGradient id="paint2_linear_363_243" x1="133.07" y1="5.5213" x2="148.812" y2="145.787" gradientUnits="userSpaceOnUse">
<stop stop-color="#F066CB"/>
<stop offset="1" stop-color="#C478C7"/>
</linearGradient>
<linearGradient id="paint3_linear_363_243" x1="87.9994" y1="10.5636" x2="114.115" y2="243.265" gradientUnits="userSpaceOnUse">
<stop stop-color="#F586C6"/>
<stop offset="1" stop-color="#A16EC7"/>
</linearGradient>
</defs>
</svg>
