<svg width="517" height="474" viewBox="0 0 517 474" fill="none" xmlns="http://www.w3.org/2000/svg">
<path d="M186.983 136.007L193.709 208.554C194.275 214.664 191.184 220.532 185.826 223.521L113.501 263.867C100.32 271.219 105.743 291.307 120.833 291.027L186.825 289.805C194.94 289.655 201.796 295.79 202.546 303.871L208.002 362.731C209.275 376.456 227.178 380.829 234.635 369.237L282.45 294.909C285.248 290.561 290.029 287.893 295.199 287.798L383.563 286.161C397.345 285.906 403.029 268.375 392.019 260.081L344.803 224.516C338.32 219.633 336.702 210.576 341.093 203.75L376.802 148.241C384.967 135.548 370.724 120.38 357.543 127.733L285.218 168.078C279.859 171.067 273.242 170.614 268.341 166.922L210.145 123.086C200.089 115.512 185.821 123.471 186.983 136.007Z" fill="#EB7171" stroke="#9B4747"/>
<path d="M257.703 211.3C258.564 212.843 260.178 213.815 262.148 214.101C264.118 214.387 266.417 213.977 268.563 212.78C270.709 211.583 272.265 209.842 273.057 208.015C273.849 206.189 273.87 204.306 273.009 202.762C272.148 201.219 270.534 200.247 268.564 199.961C266.594 199.676 264.295 200.085 262.149 201.282C260.003 202.479 258.447 204.22 257.655 206.047C256.863 207.873 256.842 209.756 257.703 211.3Z" fill="#461E1E" stroke="#9B4747"/>
<path d="M226.378 226.972C227.239 228.516 228.853 229.488 230.823 229.773C232.793 230.059 235.091 229.65 237.238 228.452C239.384 227.255 240.94 225.514 241.732 223.688C242.524 221.862 242.544 219.978 241.683 218.435C240.822 216.891 239.209 215.919 237.239 215.634C235.269 215.348 232.97 215.757 230.824 216.954C228.677 218.152 227.122 219.892 226.33 221.719C225.538 223.545 225.517 225.429 226.378 226.972Z" fill="#461E1E" stroke="#9B4747"/>
<path d="M228.047 255.316C228.908 256.859 230.522 257.831 232.492 258.117C234.462 258.402 236.76 257.993 238.907 256.796C241.053 255.598 242.609 253.858 243.401 252.031C244.193 250.205 244.213 248.321 243.352 246.778C242.491 245.234 240.878 244.263 238.908 243.977C236.938 243.691 234.639 244.1 232.493 245.298C230.346 246.495 228.791 248.236 227.999 250.062C227.207 251.889 227.186 253.772 228.047 255.316Z" fill="#461E1E" stroke="#9B4747"/>
<path d="M262.493 253.687C263.354 255.231 264.968 256.202 266.937 256.488C268.908 256.774 271.206 256.365 273.353 255.167C275.499 253.97 277.055 252.229 277.847 250.403C278.638 248.576 278.659 246.693 277.798 245.149C276.937 243.606 275.324 242.634 273.354 242.348C271.383 242.063 269.085 242.472 266.939 243.669C264.792 244.867 263.236 246.607 262.444 248.434C261.653 250.26 261.632 252.144 262.493 253.687Z" fill="#461E1E" stroke="#9B4747"/>
<path d="M279.094 226.404C279.955 227.947 281.568 228.919 283.538 229.205C285.508 229.491 287.807 229.081 289.953 227.884C292.1 226.687 293.655 224.946 294.447 223.119C295.239 221.293 295.26 219.41 294.399 217.866C293.538 216.323 291.924 215.351 289.954 215.065C287.984 214.78 285.686 215.189 283.539 216.386C281.393 217.583 279.837 219.324 279.045 221.151C278.253 222.977 278.233 224.86 279.094 226.404Z" fill="#461E1E" stroke="#9B4747"/>
<line y1="-2" x2="99.1809" y2="-2" transform="matrix(-0.511066 -0.859542 -0.865339 0.501187 248.522 219.104)" stroke="#9B4747" stroke-width="4"/>
<line y1="-2" x2="142.216" y2="-2" transform="matrix(-0.945779 0.324811 0.20878 0.977963 245.678 235.131)" stroke="#9B4747" stroke-width="4"/>
<line y1="-2" x2="126.198" y2="-2" transform="matrix(-0.276327 0.961064 0.999729 0.0232645 257.336 241.244)" stroke="#9B4747" stroke-width="4"/>
<line y1="-2" x2="126.029" y2="-2" transform="matrix(-0.960125 -0.27957 -0.513042 0.858363 388.742 269.773)" stroke="#9B4747" stroke-width="4"/>
<line y1="-2" x2="125.593" y2="-2" transform="matrix(0.770245 -0.637748 -0.72768 -0.685916 273.937 213.961)" stroke="#9B4747" stroke-width="4"/>
</svg>
