<svg width="517" height="474" viewBox="0 0 517 474" fill="none" xmlns="http://www.w3.org/2000/svg">
<path d="M330.016 136.007L323.291 208.554C322.724 214.664 325.815 220.532 331.173 223.521L403.499 263.867C416.679 271.219 411.256 291.307 396.167 291.027L330.175 289.805C322.06 289.655 315.203 295.79 314.454 303.871L308.997 362.731C307.725 376.456 289.822 380.829 282.365 369.237L234.549 294.909C231.752 290.561 226.97 287.893 221.801 287.798L133.437 286.161C119.655 285.906 113.971 268.375 124.981 260.081L172.197 224.516C178.68 219.633 180.298 210.576 175.907 203.75L140.198 148.241C132.032 135.548 146.276 120.38 159.456 127.733L231.782 168.078C237.14 171.067 243.757 170.614 248.658 166.922L306.854 123.086C316.91 115.512 331.179 123.471 330.016 136.007Z" fill="#EB7171" stroke="#9B4747"/>
<path d="M259.296 211.3C258.435 212.843 256.822 213.815 254.852 214.101C252.881 214.387 250.583 213.977 248.437 212.78C246.29 211.583 244.734 209.842 243.942 208.015C243.151 206.189 243.13 204.306 243.991 202.762C244.852 201.219 246.465 200.247 248.435 199.961C250.406 199.676 252.704 200.085 254.85 201.282C256.997 202.479 258.553 204.22 259.345 206.047C260.136 207.873 260.157 209.756 259.296 211.3Z" fill="#461E1E" stroke="#9B4747"/>
<path d="M290.621 226.972C289.76 228.516 288.147 229.488 286.177 229.773C284.207 230.059 281.908 229.65 279.762 228.452C277.615 227.255 276.06 225.514 275.268 223.688C274.476 221.862 274.455 219.978 275.316 218.435C276.177 216.891 277.791 215.919 279.76 215.634C281.731 215.348 284.029 215.757 286.176 216.954C288.322 218.152 289.878 219.892 290.67 221.719C291.462 223.545 291.482 225.429 290.621 226.972Z" fill="#461E1E" stroke="#9B4747"/>
<path d="M288.952 255.316C288.091 256.859 286.478 257.831 284.508 258.117C282.538 258.402 280.239 257.993 278.093 256.796C275.946 255.598 274.391 253.858 273.599 252.031C272.807 250.205 272.786 248.321 273.647 246.778C274.508 245.234 276.122 244.263 278.091 243.977C280.062 243.691 282.36 244.1 284.507 245.298C286.653 246.495 288.209 248.236 289.001 250.062C289.793 251.889 289.813 253.772 288.952 255.316Z" fill="#461E1E" stroke="#9B4747"/>
<path d="M254.506 253.687C253.645 255.231 252.032 256.202 250.062 256.488C248.092 256.774 245.793 256.365 243.647 255.167C241.501 253.97 239.945 252.229 239.153 250.403C238.361 248.576 238.34 246.693 239.201 245.149C240.062 243.606 241.676 242.634 243.646 242.348C245.616 242.063 247.915 242.472 250.061 243.669C252.207 244.867 253.763 246.607 254.555 248.434C255.347 250.26 255.367 252.144 254.506 253.687Z" fill="#461E1E" stroke="#9B4747"/>
<path d="M237.906 226.404C237.045 227.947 235.432 228.919 233.462 229.205C231.492 229.491 229.193 229.081 227.047 227.884C224.9 226.687 223.345 224.946 222.553 223.119C221.761 221.293 221.74 219.41 222.601 217.866C223.462 216.323 225.076 215.351 227.046 215.065C229.016 214.78 231.314 215.189 233.461 216.386C235.607 217.583 237.163 219.324 237.955 221.151C238.747 222.977 238.767 224.86 237.906 226.404Z" fill="#461E1E" stroke="#9B4747"/>
<line y1="-2" x2="99.1809" y2="-2" transform="matrix(0.511066 -0.859542 0.865339 0.501187 268.478 219.104)" stroke="#9B4747" stroke-width="4"/>
<line y1="-2" x2="142.216" y2="-2" transform="matrix(0.945779 0.324811 -0.20878 0.977963 271.322 235.131)" stroke="#9B4747" stroke-width="4"/>
<line y1="-2" x2="126.198" y2="-2" transform="matrix(0.276327 0.961064 -0.999729 0.0232645 259.663 241.244)" stroke="#9B4747" stroke-width="4"/>
<line y1="-2" x2="126.029" y2="-2" transform="matrix(0.960125 -0.27957 0.513042 0.858363 128.257 269.773)" stroke="#9B4747" stroke-width="4"/>
<line y1="-2" x2="125.593" y2="-2" transform="matrix(-0.770245 -0.637748 0.72768 -0.685916 243.063 213.961)" stroke="#9B4747" stroke-width="4"/>
</svg>
