<svg width="322" height="259" viewBox="0 0 322 259" fill="none" xmlns="http://www.w3.org/2000/svg">
<ellipse cx="142" cy="99" rx="70" ry="71" fill="url(#paint0_radial_222_45)"/>
<path d="M196.477 237.179C195.435 237.179 194.42 236.644 193.854 235.683C193.004 234.238 193.488 232.379 194.935 231.531L230.28 210.806C231.728 209.957 233.589 210.441 234.439 211.885C235.288 213.329 234.805 215.188 233.358 216.036L198.013 236.762C197.529 237.045 197 237.179 196.477 237.179Z" fill="white"/>
<path d="M134.291 190.471C133.278 190.774 131.658 191.28 130.24 190.673C123.252 187.438 116.466 186.528 113.529 185.618C108.364 184.001 103.3 181.878 98.4392 179.249C84.362 171.262 72.6141 159.737 64.3095 145.886C63.7019 144.875 63.0942 143.864 62.4866 142.752C50.3336 121.42 47.194 96.6502 53.7769 72.9927C60.2585 49.3353 75.6523 29.6208 97.0214 17.4888L97.1227 17.3877C139.962 -5.35982 193.638 9.09751 219.159 50.3464C228.274 64.7026 233.338 81.3841 233.844 98.3689C233.945 103.424 233.439 108.479 232.528 113.332C232.021 116.163 228.274 125.16 227.768 134.462C227.666 136.686 226.451 137.292 224.02 139.011C222.198 140.325 218.754 143.156 218.957 140.224C219.362 131.631 223.818 115.657 224.527 111.815C225.337 107.367 225.742 102.918 225.742 98.47C225.337 82.9006 220.678 67.7355 212.374 54.5925C188.979 16.9832 140.165 3.84023 100.971 24.4647C81.5264 35.4846 67.5504 53.4804 61.5751 75.0147C55.5999 96.6502 58.4356 119.196 69.5759 138.708C70.0823 139.719 70.6899 140.629 71.2975 141.539C78.8932 154.176 89.7296 164.691 102.49 172.071C106.744 174.396 111.301 176.317 115.96 177.733C119.505 178.845 131.961 182.181 139.354 186.023C141.38 187.034 141.886 187.742 138.747 188.753C137.329 189.46 135.607 190.067 134.291 190.471L134.291 190.471Z" fill="white"/>
<path d="M42.7578 244.227C24.74 244.227 12.3837 239.454 6.97383 230.104C-4.34301 210.563 17.5504 174.426 64.1112 135.799L65.9261 137.979C21.1894 175.093 -0.985734 210.698 9.43207 228.687C16.8299 241.471 40.3611 244.757 73.9935 237.702C108.628 230.438 150.399 213.336 191.611 189.549C232.845 165.748 268.544 138.162 292.134 111.869C315.058 86.3197 323.965 64.3383 316.572 51.562C306.649 34.4589 268.606 34.7398 217.29 52.2941L216.37 49.6136C269.846 31.3193 308.223 31.5178 319.029 50.1428C327.195 64.2553 318.394 86.8479 294.249 113.76C270.464 140.27 234.518 168.056 193.032 192.001C151.566 215.937 109.498 233.151 74.5769 240.475C62.6113 242.985 51.9482 244.227 42.7578 244.227L42.7578 244.227Z" fill="white"/>
<path d="M54.5887 234.067C38.3199 234.067 27.1593 229.756 22.2667 221.31C12.5432 204.655 29.2338 175.002 66.9178 141.992L68.79 144.123C32.7533 175.69 15.8674 204.721 24.7219 219.887C31.3459 231.321 52.4608 234.245 82.6525 227.921C113.776 221.4 151.356 206.049 188.473 184.695C248.541 150.137 294.186 107.224 302.055 77.9101C303.894 71.0587 303.497 65.2894 300.874 60.7631C292.557 46.3963 262.545 45.5778 220.592 58.5762L219.751 55.8695C263.06 42.453 294.306 43.7513 303.332 59.3448C306.346 64.5459 306.838 71.0389 304.797 78.6436C296.746 108.636 250.568 152.242 189.89 187.15C152.521 208.65 114.644 224.114 83.2356 230.695C72.4666 232.951 62.8658 234.067 54.5887 234.067V234.067Z" fill="white"/>
<path d="M68.2767 222.308C54.0062 222.309 44.2056 218.521 39.8904 211.102C32.1712 197.848 43.4455 175.252 70.8229 149.112L72.7852 151.159C46.822 175.95 35.4424 197.826 42.3452 209.679C48.1008 219.574 66.4678 222.095 92.7424 216.586C119.914 210.891 152.688 197.484 185.028 178.833C217.368 160.184 245.388 138.535 263.929 117.874C281.854 97.8984 288.86 80.7667 283.151 70.8719C276.671 59.6902 255.027 57.9417 223.771 66.0766L223.055 63.3338C255.64 54.8538 278.44 57.0842 285.609 69.4551C292.066 80.6437 285.117 98.51 266.044 119.765C247.308 140.643 219.041 162.492 186.449 181.288C153.855 200.084 120.783 213.604 93.3255 219.36C83.9151 221.333 75.5193 222.308 68.2768 222.308L68.2767 222.308Z" fill="white"/>
<path d="M81.5362 211.066C76.8913 211.066 72.7334 210.602 69.1537 209.647C63.3343 208.094 59.2121 205.283 56.9023 201.291C50.7368 190.65 58.3641 173.424 78.3798 152.787L80.4191 154.758C61.6417 174.119 53.966 190.562 59.3606 199.872C61.2802 203.19 64.8214 205.558 69.8867 206.909C91.8621 212.769 136.831 199.254 181.787 173.272C209.599 157.198 233.673 138.587 249.573 120.867C264.918 103.767 270.919 89.1184 266.036 80.6785C261.384 72.665 247.377 70.3241 226.603 74.0843L226.097 71.2961C248.139 67.304 263.195 70.1341 268.493 79.2592C279.963 99.0848 242.501 141.457 183.209 175.724C144.845 197.897 106.287 211.065 81.5362 211.066H81.5362Z" fill="white"/>
<path d="M179.864 227.273C181.586 227.273 183.409 226.868 185.029 225.959C185.029 225.959 185.131 225.959 185.131 225.857L230.401 199.167C234.857 196.538 235.566 191.382 234.857 186.226C234.148 180.969 234.148 182.486 233.236 172.477C233.135 170.758 230.907 173.184 230.907 173.184C230.907 173.184 228.274 175.206 227.565 175.914C226.654 176.824 225.843 177.532 226.147 179.958C226.755 184.811 227.059 185.417 227.362 189.057C227.464 190.472 227.362 191.686 226.35 192.393L181.181 219.084C180.067 219.69 178.953 219.084 177.94 218.376C176.219 217.264 176.826 217.365 169.129 212.613C167.306 211.501 165.686 212.917 163.66 213.725C161.331 214.736 159.103 215.646 160.723 216.556C169.332 221.51 167.61 220.6 171.762 223.229C174.396 225.15 176.725 227.273 179.864 227.273L179.864 227.273Z" fill="white"/>
<path d="M26.4325 55.2003C28.0529 55.2003 27.344 51.9651 28.9644 50.5497C30.7873 49.0331 33.623 49.5387 33.623 48.0222C33.623 46.4045 30.3822 47.1122 28.9644 45.4947C27.4452 43.6749 27.9517 40.6418 26.4325 40.6418H26.5338C24.9134 40.6418 25.6223 43.877 24.0019 45.2925C22.179 46.809 19.3433 46.3034 19.3433 47.82C19.3433 49.4376 22.5841 48.7299 24.0019 50.3474C25.521 52.1672 25.1159 55.2003 26.4325 55.2003Z" fill="white"/>
<path d="M9.62111 146.494C11.8492 146.494 10.8364 142.147 13.1658 140.226C15.5964 138.204 19.5461 138.81 19.5461 136.788C19.5461 134.564 15.1913 135.575 13.2671 133.25C11.2416 130.823 11.8492 126.678 9.82369 126.678H9.92497C7.69689 126.678 8.70969 131.025 6.38031 132.946C3.94973 134.968 0 134.362 0 136.384C0 138.608 4.3548 137.597 6.27903 139.922C8.30454 142.349 7.69689 146.494 9.7224 146.494" fill="white"/>
<path d="M132.874 258.615C133.988 258.615 133.481 256.492 134.595 255.582C135.811 254.571 137.735 254.875 137.735 253.965C137.735 252.853 135.608 253.358 134.697 252.246C133.684 251.033 133.988 249.112 133.076 249.112H133.177C132.063 249.112 132.57 251.235 131.456 252.145C130.24 253.156 128.316 252.852 128.316 253.762C128.316 254.875 130.443 254.369 131.354 255.481C132.266 256.694 131.962 258.615 132.874 258.615Z" fill="white"/>
<path d="M232.022 0C230.3 0 231.11 3.33631 229.287 4.85284C227.464 6.36937 224.426 5.8638 224.426 7.48144C224.426 9.20012 227.768 8.39137 229.287 10.2112C230.806 12.0309 230.3 15.2661 231.92 15.2661H231.819C233.541 15.2661 232.731 11.9298 234.554 10.4133C236.376 8.89678 239.415 9.40234 239.415 7.7847C239.415 6.06603 236.073 6.87477 234.554 5.05499C233.034 3.2352 233.541 0 232.022 0Z" fill="white"/>
<path d="M284.988 186.125C287.014 186.125 286.102 182.182 288.128 180.463C290.356 178.643 293.9 179.25 293.9 177.329C293.9 175.307 289.951 176.217 288.229 174.195C286.406 171.971 287.014 168.23 285.089 168.23H285.191C283.165 168.23 284.077 172.173 282.051 173.892C279.823 175.711 276.279 175.105 276.279 177.026C276.279 179.048 280.228 178.138 281.95 180.16C283.773 182.384 283.165 186.125 285.089 186.125" fill="white"/>
<path d="M142.078 119.198C136.777 119.198 131.778 117.152 128.005 113.425C124.156 109.622 122.036 104.527 122.036 99.0778C122.036 87.9286 131.077 78.8578 142.19 78.8578C153.358 78.8578 162.445 87.8832 162.445 98.9766C162.445 110.126 153.404 119.197 142.291 119.197C142.221 119.197 142.149 119.198 142.078 119.198ZM142.19 83.9128C133.869 83.9128 127.1 90.7158 127.1 99.0778C127.1 103.167 128.686 106.986 131.566 109.832C134.422 112.653 138.225 114.167 142.265 114.142C150.612 114.142 157.381 107.339 157.381 98.9766C157.381 90.6704 150.566 83.9128 142.19 83.9128H142.19Z" fill="white"/>
<path d="M180.067 168.532C179.156 168.936 178.548 168.936 177.839 167.622L148.166 116.162C147.052 114.241 147.659 114.342 149.583 113.23C151.508 112.118 152.622 111.309 153.634 113.23L183.308 164.69C184.422 166.611 183.612 166.611 181.688 167.723C181.08 168.127 180.877 168.228 180.067 168.532Z" fill="white"/>
<path d="M209.238 245.773C208.193 245.773 207.177 245.236 206.612 244.271C205.765 242.825 206.252 240.967 207.701 240.122L231.602 226.17C233.053 225.325 234.913 225.812 235.759 227.257C236.606 228.703 236.118 230.561 234.669 231.407L210.768 245.358C210.286 245.64 209.758 245.773 209.238 245.773Z" fill="white"/>
<path d="M222.808 254.873C221.761 254.873 220.742 254.332 220.178 253.364C219.335 251.915 219.827 250.058 221.278 249.217L233.128 242.342C234.579 241.501 236.438 241.993 237.281 243.44C238.124 244.889 237.632 246.746 236.181 247.587L224.331 254.462C223.851 254.74 223.326 254.873 222.808 254.873H222.808Z" fill="white"/>
<defs>
<radialGradient id="paint0_radial_222_45" cx="0" cy="0" r="1" gradientUnits="userSpaceOnUse" gradientTransform="translate(142 99) rotate(90) scale(79.875 78.75)">
<stop offset="0.322917" stop-color="#E89620"/>
<stop offset="0.588542" stop-color="#D52E9F" stop-opacity="0.68"/>
<stop offset="0.859375" stop-color="#D52E9F" stop-opacity="0"/>
</radialGradient>
</defs>
</svg>
