<svg width="128" height="118" viewBox="0 0 128 118" fill="none" xmlns="http://www.w3.org/2000/svg">
<path d="M49 42.0023V3.50232C65.8 1.50232 75 2.33565 78 3.50232V33.0023C78 41.0023 79.3333 44.669 80 45.5023C90 55.502 114.5 79.502 123 91.0023C131.406 102.375 121.167 109.836 116 111.502L65 116.002C48.8333 116.336 14.6 115.502 7.00002 109.502C-0.599985 103.502 1.50002 94.669 3.50002 91.0023L45.5 49.0023L49 42.0023Z" fill="url(#paint0_linear_906_188)" stroke="#ECC6C6"/>
<path d="M36.5 71.002L19 75.002L18 76.002L1 94.002V104.002L8 110.002L31.5 115.502H73L108 112.002L121 110.002L125.5 102.502V94.002L117.5 84.502L112 81.502L89 84.502L73 81.502L56.5 75.002L36.5 71.002Z" fill="url(#paint1_linear_906_188)"/>
<path d="M49.75 2.66111V38.8498C49.75 40.7211 49.3814 42.5741 48.6653 44.303C47.9492 46.0319 46.8995 47.6029 45.5763 48.9261L19.6666 74.8358M49.75 2.66111C48.1603 2.80678 46.577 2.97778 45 3.18045M49.75 2.66111C59.2295 1.77963 68.7704 1.77963 78.25 2.66111M19.6666 74.8358L24.5433 73.6134C37.799 70.3378 51.7882 71.8939 64 78.0024C76.2118 84.1109 90.201 85.667 103.457 82.3914L113.4 79.9024M19.6666 74.8358L5.72064 88.7881C-2.08836 96.5844 1.59764 109.796 12.4783 111.651C29.2236 114.514 46.4376 116.002 64 116.002C81.2659 116.008 98.5013 114.553 115.522 111.651C126.396 109.796 130.082 96.5844 122.279 88.7818L113.4 79.9024M78.25 2.66111V38.8498C78.25 42.6308 79.751 46.2598 82.4236 48.9261L113.4 79.9024M78.25 2.66111C79.8396 2.80678 81.423 2.97778 83 3.18045" stroke="#ECC6C6" stroke-width="3" stroke-linecap="round" stroke-linejoin="round"/>
<defs>
<linearGradient id="paint0_linear_906_188" x1="63.9143" y1="2.29492" x2="63.9143" y2="116.065" gradientUnits="userSpaceOnUse">
<stop stop-color="#D54848"/>
<stop offset="1" stop-color="#9A3088"/>
</linearGradient>
<linearGradient id="paint1_linear_906_188" x1="19" y1="84.002" x2="125" y2="93.002" gradientUnits="userSpaceOnUse">
<stop stop-color="#EF4E3C"/>
<stop offset="1" stop-color="#A60DBF"/>
</linearGradient>
</defs>
</svg>
