<svg width="128" height="118" viewBox="0 0 128 118" fill="none" xmlns="http://www.w3.org/2000/svg">
<path d="M49 42.0028V3.50281C65.8 1.50281 75 2.33614 78 3.50281V33.0028C78 41.0028 79.3333 44.6695 80 45.5028C90 55.5024 114.5 79.5024 123 91.0028C131.406 102.376 121.167 109.836 116 111.503L65 116.003C48.8333 116.336 14.6 115.503 7.00002 109.503C-0.599985 103.503 1.50002 94.6695 3.50002 91.0028L45.5 49.0028L49 42.0028Z" fill="url(#paint0_linear_825_670)" stroke="#73098D"/>
<path d="M36.5 71.0024L19 75.0024L18 76.0024L1 94.0024V104.002L8 110.002L31.5 115.502H73L108 112.002L121 110.002L125.5 102.502V94.0024L117.5 84.5024L112 81.5024L89 84.5024L73 81.5024L56.5 75.0024L36.5 71.0024Z" fill="url(#paint1_linear_825_670)"/>
<path d="M49.75 2.66111V38.8498C49.75 40.7211 49.3814 42.5741 48.6653 44.303C47.9492 46.0319 46.8995 47.6029 45.5763 48.9261L19.6666 74.8358M49.75 2.66111C48.1603 2.80678 46.577 2.97778 45 3.18045M49.75 2.66111C59.2295 1.77963 68.7704 1.77963 78.25 2.66111M19.6666 74.8358L24.5433 73.6134C37.799 70.3378 51.7882 71.8939 64 78.0024C76.2118 84.1109 90.201 85.667 103.457 82.3914L113.4 79.9024M19.6666 74.8358L5.72064 88.7881C-2.08836 96.5844 1.59764 109.796 12.4783 111.651C29.2236 114.514 46.4376 116.002 64 116.002C81.2659 116.008 98.5013 114.553 115.522 111.651C126.396 109.796 130.082 96.5844 122.279 88.7818L113.4 79.9024M78.25 2.66111V38.8498C78.25 42.6308 79.751 46.2598 82.4236 48.9261L113.4 79.9024M78.25 2.66111C79.8396 2.80678 81.423 2.97778 83 3.18045" stroke="#73098D" stroke-width="3" stroke-linecap="round" stroke-linejoin="round"/>
<defs>
<linearGradient id="paint0_linear_825_670" x1="1.63037" y1="59.1805" x2="142.483" y2="59.1805" gradientUnits="userSpaceOnUse">
<stop offset="0.046875" stop-color="#C48841"/>
<stop offset="0.442708" stop-color="#DC6E3F"/>
<stop offset="0.9999" stop-color="#690EDD" stop-opacity="0.854167"/>
</linearGradient>
<linearGradient id="paint1_linear_825_670" x1="19" y1="84.0024" x2="125" y2="93.0024" gradientUnits="userSpaceOnUse">
<stop stop-color="#C25B4D"/>
<stop offset="1" stop-color="#A60DBF"/>
</linearGradient>
</defs>
</svg>
