<svg width="134" height="124" viewBox="0 0 134 124" fill="none" xmlns="http://www.w3.org/2000/svg">
<path d="M17.0747 4.29883H116.925C118.582 4.29883 119.925 5.64197 119.925 7.29883V78.8511C119.925 84.9262 115.001 89.8511 108.925 89.8511H25.0747C18.9996 89.8511 14.0747 84.9262 14.0747 78.8511V7.29883C14.0747 5.64197 15.4179 4.29883 17.0747 4.29883Z" fill="url(#paint0_linear_906_197)" stroke="#ECC6C6" stroke-width="4"/>
<path d="M12 2V77C12 80.9782 13.5804 84.7935 16.3934 87.6066C19.2064 90.4196 23.0218 92 27 92H42M12 2H2ZM12 2H122ZM122 2H132ZM122 2V77C122 80.9782 120.42 84.7935 117.607 87.6066C114.794 90.4196 110.978 92 107 92H92M42 92H92ZM42 92L35.3333 112ZM92 92L98.6667 112ZM98.6667 112L102 122ZM98.6667 112H35.3333ZM35.3333 112L32 122ZM37 62L57 42L71.32 56.32C78.048 46.662 86.8144 38.5988 97 32.7" fill="url(#paint1_linear_906_197)"/>
<path d="M12 2V77C12 80.9782 13.5804 84.7935 16.3934 87.6066C19.2064 90.4196 23.0218 92 27 92H42M12 2H2M12 2H122M42 92H92M42 92L35.3333 112M122 2H132M122 2V77C122 80.9782 120.42 84.7935 117.607 87.6066C114.794 90.4196 110.978 92 107 92H92M92 92L98.6667 112M35.3333 112H98.6667M35.3333 112L32 122M98.6667 112L102 122M37 62L57 42L71.32 56.32C78.048 46.662 86.8144 38.5988 97 32.7" stroke="#ECC6C6" stroke-width="4" stroke-linecap="round" stroke-linejoin="round"/>
<defs>
<linearGradient id="paint0_linear_906_197" x1="67.0001" y1="2.29883" x2="67.0001" y2="91.8511" gradientUnits="userSpaceOnUse">
<stop stop-color="#93EE5B"/>
<stop offset="1" stop-color="#56D67C"/>
</linearGradient>
<linearGradient id="paint1_linear_906_197" x1="67" y1="2" x2="67" y2="122" gradientUnits="userSpaceOnUse">
<stop stop-color="#99F38F"/>
<stop offset="1" stop-color="#38A971"/>
</linearGradient>
</defs>
</svg>
