<svg width="140" height="128" viewBox="0 0 140 128" fill="none" xmlns="http://www.w3.org/2000/svg">
<path d="M70 30.1818H81.3333ZM70 52.7273H81.3333ZM24.6667 75.2727H81.3333ZM24.6667 97.8182H81.3333ZM104 30.1818H129.5C134.192 30.1818 138 33.9695 138 38.6364V109.091C138 113.575 136.209 117.876 133.021 121.047C129.833 124.219 125.509 126 121 126M104 30.1818V109.091C104 113.575 105.791 117.876 108.979 121.047C112.167 124.219 116.491 126 121 126M104 30.1818V10.4545C104 5.78764 100.192 2 95.5 2H10.5C5.808 2 2 5.78764 2 10.4545V109.091C2 113.575 3.79107 117.876 6.97918 121.047C10.1673 124.219 14.4913 126 19 126H121M24.6667 30.1818H47.3333V52.7273H24.6667V30.1818Z" fill="url(#paint0_radial_825_627)"/>
<path d="M70 30.1818H81.3333M70 52.7273H81.3333M24.6667 75.2727H81.3333M24.6667 97.8182H81.3333M104 30.1818H129.5C134.192 30.1818 138 33.9695 138 38.6364V109.091C138 113.575 136.209 117.876 133.021 121.047C129.833 124.219 125.509 126 121 126M104 30.1818V109.091C104 113.575 105.791 117.876 108.979 121.047C112.167 124.219 116.491 126 121 126M104 30.1818V10.4545C104 5.78764 100.192 2 95.5 2H10.5C5.808 2 2 5.78764 2 10.4545V109.091C2 113.575 3.79107 117.876 6.97918 121.047C10.1673 124.219 14.4913 126 19 126H121M24.6667 30.1818H47.3333V52.7273H24.6667V30.1818Z" stroke="#3366F4" stroke-width="4" stroke-linecap="round" stroke-linejoin="round"/>
<defs>
<radialGradient id="paint0_radial_825_627" cx="0" cy="0" r="1" gradientUnits="userSpaceOnUse" gradientTransform="translate(70 64) rotate(90) scale(74.8743 82.1202)">
<stop offset="0.21875" stop-color="#3042E6"/>
<stop offset="1" stop-color="#190BBD"/>
</radialGradient>
</defs>
</svg>
