<svg width="104" height="135" viewBox="0 0 104 135" fill="none" xmlns="http://www.w3.org/2000/svg">
<path d="M68 130.638C65.8687 141.699 19.5 117.638 2 109.138C13.5 65.1383 38 50.6382 45.5 49.1382C53 47.6382 50.5 16.6382 50.5 12.1382C50.5 7.63818 43 12.1382 45.5 7.13818C48 2.13818 56 1.13818 59 4.63826C61.4 7.43832 60 36.4716 59 50.6382C62 51.9715 69.2 54.3382 74 53.1382C80 51.6381 80 16.1382 81 12.1382C82 8.13818 72.5 7.63826 76 4.63826C79.5 1.63826 84.5 0.638259 88 4.63826C91.5 8.63826 86.5 53.1383 89.5 54.6383C92.5 56.1383 108 77.5 98.5 92.5C89.935 106.024 74 99.5 68 130.638Z" fill="url(#paint0_linear_906_276)" stroke="#ECC6C6" stroke-width="3"/>
<circle cx="64.5" cy="73.6387" r="2" fill="#551212"/>
<circle cx="88.5" cy="73.6387" r="2" fill="#551212"/>
<path d="M71.5 79.6387C72.2647 81.1479 78.5 83.6387 83.5 79.6387" stroke="#551212" stroke-width="3" stroke-linecap="round"/>
<defs>
<linearGradient id="paint0_linear_906_276" x1="51.7719" y1="2" x2="51.7719" y2="133.493" gradientUnits="userSpaceOnUse">
<stop stop-color="#FFE62A"/>
<stop offset="1" stop-color="#B79300"/>
</linearGradient>
</defs>
</svg>
