<svg width="149" height="149" viewBox="0 0 149 149" fill="none" xmlns="http://www.w3.org/2000/svg">
<path d="M27.0959 19.6421L29.6656 35.0527C31.3212 44.9921 36.0416 54.1655 43.1667 61.2902L56.3778 74.5016L53.2603 80.7448C51.5123 84.2329 52.197 88.446 54.952 91.2011L65.8109 102.06C67.5025 103.752 68.4612 106.064 68.4612 108.464V117.237C68.4612 120.669 70.3945 123.803 73.4717 125.341L74.7042 125.953C78.1923 127.702 82.4053 127.017 85.1603 124.262L90.9845 118.437C99.9654 109.455 106.336 98.1997 109.416 85.8762C109.816 84.2787 109.758 82.6006 109.248 81.0345C108.738 79.4685 107.796 78.0781 106.532 77.023L95.8178 68.0973C93.7959 66.4056 91.1295 65.6886 88.5275 66.1236L79.1025 67.6945C77.6803 67.9312 76.2222 67.8253 74.8492 67.3853C73.4761 66.9454 72.2279 66.1842 71.2081 65.165L68.8317 62.7885C67.9902 61.947 67.3226 60.9479 66.8672 59.8484C66.4117 58.7488 66.1773 57.5704 66.1773 56.3802C66.1773 55.1901 66.4117 54.0116 66.8672 52.9121C67.3226 51.8125 67.9902 50.8134 68.8317 49.9719L69.8789 48.9085C71.2254 47.5621 72.9619 46.674 74.8417 46.3703C76.7215 46.0667 78.6492 46.3629 80.3512 47.2168L85.2087 49.6497C86.4327 50.2643 87.8193 50.4776 89.1715 50.2594C90.5236 50.0411 91.7727 49.4024 92.7412 48.4338C93.7097 47.4653 94.3485 46.2162 94.5667 44.864C94.785 43.5118 94.5716 42.1252 93.957 40.9012L92.6278 38.2508L102.746 31.5082C107.993 28.0075 112.235 23.1982 115.054 17.5557L116.231 15.2034M27.0959 19.6421C15.674 29.5127 7.6181 42.7025 4.052 57.3714C0.485902 72.0402 1.58752 87.4564 7.20317 101.469C12.8188 115.482 22.6684 127.392 35.3777 135.538C48.087 143.684 63.0221 147.66 78.0993 146.911C93.1765 146.161 107.644 140.724 119.483 131.358C131.321 121.991 139.941 109.163 144.14 94.6623C148.338 80.1618 147.906 64.7124 142.902 50.4695C137.899 36.2266 128.575 23.8926 116.231 15.2034M27.0959 19.6421C40.2547 8.23851 57.0905 1.97324 74.5028 2.00009C90.042 2.00009 104.437 6.88185 116.231 15.2034" fill="url(#paint0_radial_825_628)"/>
<path d="M27.0959 19.6421L29.6656 35.0527C31.3212 44.9921 36.0416 54.1655 43.1667 61.2902L56.3778 74.5016L53.2603 80.7448C51.5123 84.2329 52.197 88.446 54.952 91.2011L65.8109 102.06C67.5025 103.752 68.4612 106.064 68.4612 108.464V117.237C68.4612 120.669 70.3945 123.803 73.4717 125.341L74.7042 125.953C78.1923 127.702 82.4053 127.017 85.1603 124.262L90.9845 118.437C99.9654 109.455 106.336 98.1997 109.416 85.8762C109.816 84.2787 109.758 82.6006 109.248 81.0345C108.738 79.4685 107.796 78.0781 106.532 77.023L95.8178 68.0973C93.7959 66.4056 91.1295 65.6886 88.5275 66.1236L79.1025 67.6945C77.6803 67.9312 76.2222 67.8253 74.8492 67.3853C73.4761 66.9454 72.2279 66.1842 71.2081 65.165L68.8317 62.7885C67.9902 61.947 67.3226 60.9479 66.8672 59.8484C66.4117 58.7488 66.1773 57.5704 66.1773 56.3802C66.1773 55.1901 66.4117 54.0116 66.8672 52.9121C67.3226 51.8125 67.9902 50.8134 68.8317 49.9719L69.8789 48.9085C71.2254 47.5621 72.9619 46.674 74.8417 46.3703C76.7215 46.0667 78.6492 46.3629 80.3512 47.2168L85.2087 49.6497C86.4327 50.2643 87.8193 50.4776 89.1715 50.2594C90.5236 50.0411 91.7727 49.4024 92.7412 48.4338C93.7097 47.4653 94.3485 46.2162 94.5667 44.864C94.785 43.5118 94.5716 42.1252 93.957 40.9012L92.6278 38.2508L102.746 31.5082C107.993 28.0075 112.235 23.1982 115.054 17.5557L116.231 15.2034M27.0959 19.6421C15.674 29.5127 7.6181 42.7025 4.052 57.3714C0.485902 72.0402 1.58752 87.4564 7.20317 101.469C12.8188 115.482 22.6684 127.392 35.3777 135.538C48.087 143.684 63.0221 147.66 78.0993 146.911C93.1765 146.161 107.644 140.724 119.483 131.358C131.321 121.991 139.941 109.163 144.14 94.6623C148.338 80.1618 147.906 64.7124 142.902 50.4695C137.899 36.2266 128.575 23.8926 116.231 15.2034M27.0959 19.6421C40.2547 8.23851 57.0905 1.97324 74.5028 2.00009C90.042 2.00009 104.437 6.88185 116.231 15.2034" stroke="#3366F4" stroke-width="4" stroke-linecap="round" stroke-linejoin="round"/>
<defs>
<radialGradient id="paint0_radial_825_628" cx="0" cy="0" r="1" gradientUnits="userSpaceOnUse" gradientTransform="translate(74.5 74.5) rotate(90) scale(87.5546)">
<stop offset="0.21875" stop-color="#3042E6"/>
<stop offset="1" stop-color="#190BBD"/>
</radialGradient>
</defs>
</svg>
