<svg width="111" height="106" viewBox="0 0 111 106" fill="none" xmlns="http://www.w3.org/2000/svg">
<path d="M45.0329 74.8386C43.6594 71.4527 41.1514 68.6496 37.9384 66.9095C34.7254 65.1694 31.0074 64.6006 27.4211 65.3004C23.8348 66.0003 20.6035 67.9254 18.2805 70.7458C15.9575 73.5663 14.6875 77.1067 14.6879 80.7606C14.6879 82.3782 14.3557 83.9786 13.7118 85.4625C13.068 86.9464 12.1262 88.2823 10.9449 89.3873C9.76356 90.4923 8.36788 91.3429 6.84434 91.8864C5.3208 92.4299 3.70187 92.6547 2.08789 92.5469C4.68374 97.0564 8.69571 100.583 13.501 102.579C18.3063 104.574 23.636 104.928 28.6629 103.585C33.6897 102.241 38.1324 99.2757 41.3013 95.1487C44.4701 91.0216 46.1879 85.9639 46.1879 80.7606C46.1879 78.6659 45.7784 76.6656 45.0329 74.8386ZM45.0329 74.8386C51.2752 72.7118 57.2453 69.8571 62.8199 66.3336ZM36.3441 66.2024C38.4715 59.9468 41.3298 53.9642 44.8596 48.3786ZM62.8146 66.3336C72.7705 60.0434 81.2919 51.7294 87.8256 41.9316L108.175 11.4081C108.954 10.2456 109.306 8.84847 109.17 7.45538C109.034 6.06229 108.418 4.75964 107.429 3.76989C106.439 2.78014 105.136 2.16468 103.743 2.02862C102.35 1.89257 100.953 2.24435 99.7904 3.02389L69.2669 23.3781C59.4678 29.9099 51.1521 38.4295 44.8596 48.3839M62.8146 66.3389C59.2421 58.3489 52.8496 51.9564 44.8596 48.3839Z" fill="url(#paint0_linear_906_195)"/>
<path d="M45.0329 74.8386C43.6594 71.4527 41.1514 68.6496 37.9384 66.9095C34.7254 65.1694 31.0074 64.6006 27.4211 65.3004C23.8348 66.0003 20.6035 67.9254 18.2805 70.7458C15.9575 73.5663 14.6875 77.1067 14.6879 80.7606C14.6879 82.3782 14.3557 83.9786 13.7118 85.4625C13.068 86.9464 12.1262 88.2823 10.9449 89.3873C9.76356 90.4923 8.36788 91.3429 6.84434 91.8864C5.3208 92.4299 3.70187 92.6547 2.08789 92.5469C4.68374 97.0564 8.69571 100.583 13.501 102.579C18.3063 104.574 23.636 104.928 28.6629 103.585C33.6897 102.241 38.1324 99.2757 41.3013 95.1487C44.4701 91.0216 46.1879 85.9639 46.1879 80.7606C46.1879 78.6659 45.7784 76.6656 45.0329 74.8386ZM45.0329 74.8386C51.2752 72.7118 57.2453 69.8571 62.8199 66.3336M36.3441 66.2024C38.4715 59.9468 41.3298 53.9642 44.8596 48.3786M62.8146 66.3336C72.7705 60.0434 81.2919 51.7294 87.8256 41.9316L108.175 11.4081C108.954 10.2456 109.306 8.84847 109.17 7.45538C109.034 6.06229 108.418 4.75964 107.429 3.76989C106.439 2.78014 105.136 2.16468 103.743 2.02862C102.35 1.89257 100.953 2.24435 99.7904 3.02389L69.2669 23.3781C59.4678 29.9099 51.1521 38.4295 44.8596 48.3839C52.8496 51.9564 59.2421 58.3489 62.8146 66.3389" stroke="#ECC6C6" stroke-width="3" stroke-linecap="round" stroke-linejoin="round"/>
<defs>
<linearGradient id="paint0_linear_906_195" x1="2.08789" y1="53.1928" x2="123.202" y2="53.1928" gradientUnits="userSpaceOnUse">
<stop offset="0.046875" stop-color="#418DC4"/>
<stop offset="0.442708" stop-color="#C064E2"/>
<stop offset="0.9999" stop-color="#5418A2" stop-opacity="0.854167"/>
</linearGradient>
</defs>
</svg>
