<svg width="111" height="106" viewBox="0 0 111 106" fill="none" xmlns="http://www.w3.org/2000/svg">
<path d="M62.5 66.1982C59.5 58.1982 51.6667 52.0316 45 48.6982C40.5 53.1982 36.5 65.1982 36.5 65.6982C36.5 66.1982 44.3333 71.3649 45.5 74.6982C45.675 75.1982 62.6762 66.6682 62.5 66.1982Z" fill="#EA8126"/>
<path d="M45.0325 74.8386C43.6591 71.4527 41.1511 68.6496 37.9381 66.9095C34.7251 65.1694 31.007 64.6006 27.4207 65.3004C23.8345 66.0003 20.6031 67.9254 18.2801 70.7458C15.9571 73.5663 14.6871 77.1067 14.6875 80.7606C14.6875 82.3782 14.3553 83.9786 13.7114 85.4625C13.0676 86.9464 12.1258 88.2823 10.9445 89.3873C9.7632 90.4923 8.36752 91.3429 6.84398 91.8864C5.32044 92.4299 3.70151 92.6547 2.08752 92.5469C4.68337 97.0564 8.69534 100.583 13.5006 102.579C18.3059 104.574 23.6357 104.928 28.6625 103.585C33.6893 102.241 38.132 99.2757 41.3009 95.1487C44.4698 91.0216 46.1875 85.9639 46.1875 80.7606C46.1875 78.6659 45.778 76.6656 45.0325 74.8386ZM45.0325 74.8386C51.2749 72.7118 57.245 69.8571 62.8195 66.3336L45.0325 74.8386ZM36.3438 66.2024C38.4711 59.9468 41.3294 53.9642 44.8593 48.3786L36.3438 66.2024ZM62.8143 66.3336C72.7701 60.0434 81.2916 51.7294 87.8253 41.9316L108.174 11.4081C108.954 10.2456 109.306 8.84847 109.17 7.45538C109.033 6.06229 108.418 4.75964 107.428 3.76989C106.439 2.78014 105.136 2.16468 103.743 2.02862C102.35 1.89257 100.953 2.24435 99.79 3.02389L69.2665 23.3781C59.4675 29.9099 51.1517 38.4295 44.8593 48.3839M62.8143 66.3389C59.2418 58.3489 52.8492 51.9564 44.8593 48.3839L62.8143 66.3389Z" fill="url(#paint0_linear_850_535)"/>
<path d="M45.0325 74.8386C43.6591 71.4527 41.1511 68.6496 37.9381 66.9095C34.7251 65.1694 31.007 64.6006 27.4207 65.3004C23.8345 66.0003 20.6031 67.9254 18.2801 70.7458C15.9571 73.5663 14.6871 77.1067 14.6875 80.7606C14.6875 82.3782 14.3553 83.9786 13.7114 85.4625C13.0676 86.9464 12.1258 88.2823 10.9445 89.3873C9.7632 90.4923 8.36752 91.3429 6.84398 91.8864C5.32044 92.4299 3.70151 92.6547 2.08752 92.5469C4.68337 97.0564 8.69534 100.583 13.5006 102.579C18.3059 104.574 23.6357 104.928 28.6625 103.585C33.6893 102.241 38.132 99.2757 41.3009 95.1487C44.4698 91.0216 46.1875 85.9639 46.1875 80.7606C46.1875 78.6659 45.778 76.6656 45.0325 74.8386ZM45.0325 74.8386C51.2749 72.7118 57.245 69.8571 62.8195 66.3336M36.3438 66.2024C38.4711 59.9468 41.3294 53.9642 44.8593 48.3786M62.8143 66.3336C72.7701 60.0434 81.2916 51.7294 87.8253 41.9316L108.174 11.4081C108.954 10.2456 109.306 8.84847 109.17 7.45538C109.033 6.06229 108.418 4.75964 107.428 3.76989C106.439 2.78014 105.136 2.16468 103.743 2.02862C102.35 1.89257 100.953 2.24435 99.79 3.02389L69.2665 23.3781C59.4675 29.9099 51.1517 38.4295 44.8593 48.3839C52.8492 51.9564 59.2418 58.3489 62.8143 66.3389" stroke="#73098D" stroke-width="3" stroke-linecap="round" stroke-linejoin="round"/>
<defs>
<linearGradient id="paint0_linear_850_535" x1="2.08753" y1="53.1928" x2="123.201" y2="53.1928" gradientUnits="userSpaceOnUse">
<stop offset="0.046875" stop-color="#C48841"/>
<stop offset="0.442708" stop-color="#DC6E3F"/>
<stop offset="0.9999" stop-color="#690EDD" stop-opacity="0.854167"/>
</linearGradient>
</defs>
</svg>
