<svg width="908" height="174" viewBox="0 0 908 174" fill="none" xmlns="http://www.w3.org/2000/svg">
<g clip-path="url(#clip0_999_69)">
<mask id="mask0_999_69" style="mask-type:luminance" maskUnits="userSpaceOnUse" x="0" y="0" width="908" height="174">
<path d="M908 0H0V174H908V0Z" fill="white"/>
</mask>
<g mask="url(#mask0_999_69)">
<path fill-rule="evenodd" clip-rule="evenodd" d="M174.553 86.7961C174.553 38.8605 135.669 0 87.7063 0C39.7427 0 0.859375 38.8605 0.859375 86.7961C0.859375 134.734 39.7427 173.592 87.7063 173.592C135.669 173.592 174.553 134.734 174.553 86.7961ZM71.8991 38.576C71.2163 39.9152 71.2163 41.6684 71.2163 45.1747V65.0472C71.2163 65.9231 71.2163 66.361 71.327 66.7659C71.425 67.1246 71.5862 67.463 71.803 67.7652C72.0476 68.1063 72.3877 68.3824 73.0679 68.9347L78.0977 73.0182C78.9176 73.6838 79.3275 74.0166 79.4763 74.4173C79.6068 74.7687 79.6068 75.1553 79.4763 75.5067C79.3275 75.9073 78.9176 76.2401 78.0977 76.9057L73.068 80.9893C72.3878 81.5415 72.0476 81.8176 71.803 82.1587C71.5862 82.4609 71.425 82.7993 71.327 83.1581C71.2163 83.563 71.2163 84.0009 71.2163 84.8768V128.417C71.2163 131.923 71.2163 133.676 71.8991 135.015C72.4997 136.194 73.458 137.151 74.6367 137.751C75.9768 138.434 77.731 138.434 81.2393 138.434H94.1732C97.6815 138.434 99.4357 138.434 100.775 137.751C101.954 137.151 102.912 136.194 103.513 135.015C104.196 133.676 104.196 131.923 104.196 128.417V108.544C104.196 107.668 104.196 107.23 104.085 106.826C103.987 106.467 103.826 106.128 103.609 105.826C103.364 105.485 103.024 105.209 102.344 104.657L97.3148 100.573C96.495 99.9077 96.085 99.5748 95.9362 99.1741C95.8057 98.8227 95.8057 98.4362 95.9362 98.0848C96.085 97.6841 96.4949 97.3513 97.3148 96.6857L102.344 92.6022C103.024 92.05 103.364 91.7738 103.609 91.4327C103.826 91.1305 103.987 90.7921 104.085 90.4334C104.196 90.0285 104.196 89.5906 104.196 88.7147V45.1747C104.196 41.6684 104.196 39.9152 103.513 38.576C102.912 37.398 101.954 36.4402 100.775 35.84C99.4357 35.1576 97.6815 35.1576 94.1732 35.1576H81.2393C77.731 35.1576 75.9768 35.1576 74.6367 35.84C73.458 36.4402 72.4997 37.398 71.8991 38.576Z" fill="white"/>
<path d="M244.271 138.719C245.132 138.719 245.829 138.022 245.829 137.162V35.2064C245.829 34.3465 245.132 33.6494 244.271 33.6494H229.237C228.68 33.6494 228.17 33.9507 227.864 34.4159C224.417 39.6544 218.007 42.2929 209.223 42.5676C208.363 42.5944 207.664 43.2886 207.664 44.1486V59.3978C207.664 60.2577 208.361 60.9548 209.222 60.9548H221.372C222.232 60.9548 222.93 61.6519 222.93 62.5119V137.162C222.93 138.022 223.627 138.719 224.488 138.719H244.271Z" fill="white"/>
<path d="M304.292 54.7272C312.402 54.7272 318.922 59.0386 318.922 69.8968C318.922 80.4358 312.402 85.0665 304.292 85.0665H286.64V54.7272H304.292ZM304.292 104.707C328.145 104.707 341.98 90.1763 341.98 69.2581C341.98 49.4577 328.145 34.9268 304.292 34.9268H265.458C264.597 34.9268 263.9 35.6239 263.9 36.4838V137.162C263.9 138.022 264.597 138.719 265.458 138.719H285.082C285.942 138.719 286.64 138.022 286.64 137.162V106.264C286.64 105.404 287.338 104.707 288.198 104.707H304.292Z" fill="white"/>
<path d="M377.251 124.029C370.572 124.029 366.438 120.995 366.438 115.566C366.438 110.775 369.3 107.582 376.138 107.582H394.744V109.178C394.744 118.44 386.793 124.029 377.251 124.029ZM396.493 137.162C396.493 138.022 397.191 138.719 398.051 138.719H415.131C415.992 138.719 416.689 138.022 416.689 137.162V92.0921C416.689 70.3755 404.444 57.7607 382.34 57.7607C365.928 57.7607 353.363 66.5251 348.211 80.6152C347.902 81.4614 348.415 82.3739 349.291 82.5885L366.499 86.8063C367.277 86.9969 368.067 86.5655 368.37 85.8249C370.983 79.4328 375.334 75.645 382.34 75.645C389.655 75.645 394.744 80.4354 394.744 89.0581V90.1759C394.744 92.5711 393.949 93.5292 391.086 93.5292H371.208C354.67 93.5292 344.651 102.312 344.651 116.204C344.651 131.055 356.101 140.636 372.003 140.636C380.005 140.636 387.693 138.006 393.111 132.15C394.176 130.999 396.493 131.701 396.493 133.269V137.162Z" fill="white"/>
<path d="M459 124.667C451.273 124.667 445.628 121.46 442.845 115.566C442.508 114.851 441.724 114.435 440.956 114.629L424.871 118.701C424.044 118.91 423.535 119.748 423.781 120.565C427.853 134.089 441.474 140.636 458.205 140.636C479.674 140.636 491.918 129.618 491.918 114.608C491.918 85.5452 445.96 95.4454 445.96 81.0741C445.96 76.2837 449.936 73.2497 457.092 73.2497C464.214 73.2497 468.983 77.1421 471.269 83.1109C471.552 83.8513 472.312 84.3158 473.091 84.1683L489.508 81.0606C490.385 80.8944 490.947 80.0236 490.694 79.1674C486.928 66.4529 476.345 57.7607 457.251 57.7607C436.26 57.7607 425.128 68.9384 425.128 82.9903C425.128 113.011 471.245 104.069 471.245 116.524C471.245 121.474 467.111 124.667 459 124.667Z" fill="white"/>
<path d="M530.442 124.667C522.714 124.667 517.07 121.46 514.287 115.566C513.949 114.851 513.165 114.435 512.398 114.629L496.313 118.701C495.486 118.91 494.977 119.748 495.223 120.565C499.295 134.089 512.915 140.636 529.647 140.636C551.115 140.636 563.36 129.618 563.36 114.608C563.36 85.5452 517.402 95.4454 517.402 81.0741C517.402 76.2837 521.378 73.2497 528.534 73.2497C535.656 73.2497 540.424 77.1421 542.71 83.1109C542.994 83.8513 543.753 84.3158 544.533 84.1683L560.949 81.0606C561.827 80.8944 562.389 80.0236 562.135 79.1674C558.37 66.4529 547.786 57.7607 528.693 57.7607C507.702 57.7607 496.57 68.9384 496.57 82.9903C496.57 113.011 542.687 104.069 542.687 116.524C542.687 121.474 538.552 124.667 530.442 124.667Z" fill="white"/>
<path d="M583.464 137.53C583.634 138.228 584.259 138.719 584.978 138.719H609.712C610.435 138.719 611.063 138.222 611.229 137.519L623.827 83.9491L636.426 137.519C636.591 138.222 637.219 138.719 637.943 138.719H663.475C664.192 138.719 664.817 138.23 664.988 137.533L683.624 61.6057C683.865 60.6246 683.122 59.6777 682.111 59.6777H664.534C663.795 59.6777 663.158 60.1963 663.008 60.9194L650.543 121.154L635.1 60.8487C634.923 60.1596 634.302 59.6777 633.591 59.6777H613.927C613.205 59.6777 612.578 60.1729 612.411 60.8744L598.065 121.154L585.757 60.9232C585.609 60.1983 584.971 59.6777 584.231 59.6777H566.494C565.484 59.6777 564.741 60.6225 564.98 61.6028L583.464 137.53Z" fill="white"/>
<path d="M725.638 140.636C749.491 140.636 765.871 122.113 765.871 99.2777C765.871 76.2837 749.491 57.7607 725.638 57.7607C701.943 57.7607 685.405 76.2837 685.405 99.2777C685.405 122.113 701.943 140.636 725.638 140.636ZM725.638 121.634C715.778 121.634 708.145 113.33 708.145 99.2777C708.145 85.2258 715.778 76.7627 725.638 76.7627C735.497 76.7627 743.289 85.2258 743.289 99.2777C743.289 113.33 735.497 121.634 725.638 121.634Z" fill="white"/>
<path d="M797.238 96.8825C797.238 83.3096 804.076 80.116 814.571 80.116C816.583 80.116 818.794 80.3157 820.889 80.7151C821.777 80.8843 822.657 80.3176 822.814 79.428L826.143 60.6234C826.26 59.9629 825.944 59.2932 825.327 59.0303C823.414 58.2159 821.048 57.7607 818.229 57.7607C807.574 57.7607 799.305 63.9883 795.33 76.603V61.2339C795.33 60.374 794.632 59.6769 793.772 59.6769H776.532C775.672 59.6769 774.975 60.374 774.975 61.2339V137.162C774.975 138.022 775.672 138.719 776.532 138.719H795.68C796.54 138.719 797.238 138.022 797.238 137.162V96.8825Z" fill="white"/>
<path d="M867.289 122.113C855.839 122.113 849.796 112.691 849.796 99.2783C849.796 85.8651 855.839 76.2843 867.289 76.2843C878.739 76.2843 884.782 85.8651 884.782 99.2783C884.782 112.691 878.739 122.113 867.289 122.113ZM886.054 137.162C886.054 138.022 886.751 138.719 887.612 138.719H905.487C906.347 138.719 907.045 138.022 907.045 137.162V36.7162C907.045 35.8563 906.347 35.1592 905.487 35.1592H886.976C886.115 35.1592 885.418 35.8563 885.418 36.7162V70.6954C880.488 61.434 872.219 57.7613 861.723 57.7613C841.209 57.7613 827.215 75.6456 827.215 99.2783C827.215 122.911 841.209 140.636 861.723 140.636C872.855 140.636 881.442 136.164 886.054 124.667V137.162Z" fill="white"/>
</g>
</g>
<defs>
<clipPath id="clip0_999_69">
<rect width="908" height="174" fill="white"/>
</clipPath>
</defs>
</svg>
