<svg width="266" height="91" viewBox="0 0 266 91" fill="none" xmlns="http://www.w3.org/2000/svg">
<path fill-rule="evenodd" clip-rule="evenodd" d="M28.6435 2.69401L23.9555 5.38802L23.7267 5.61862L23.4982 5.84895L28.5065 8.69945L33.5148 11.5499L33.8523 11.4579L34.1898 11.3658L38.9804 8.61308L43.7711 5.86063L43.7625 5.71212L43.7536 5.5639L38.9933 2.85592L34.233 0.147941L33.7822 0.0741131L33.3318 0L28.6435 2.69401ZM19.7463 7.78187L17.3153 9.20969L14.6442 10.7604L11.9735 12.311L16.9323 15.1761L21.8914 18.0408L22.2129 18.0497L22.5346 18.0585L27.4325 15.2431L32.3307 12.4273L32.3299 12.2737L32.3287 12.1201L28.6833 10.0512L25.0375 7.98198L23.6075 7.16816L22.1774 6.35405L19.7463 7.78187ZM40.2486 9.13016L35.4531 11.8872L35.196 12.146L34.9386 12.4051L39.7469 15.1721L44.5553 17.9391L44.8694 18.0226L45.1837 18.1061L50.1828 15.2556L55.1823 12.4051L54.8393 12.0884L54.4964 11.772L49.7701 9.07258L45.0438 6.37315L40.2486 9.13016ZM51.4078 15.7904L46.3558 18.6762L46.3503 18.8244L46.3452 18.9729L51.2485 21.7938L56.1518 24.6147L56.4682 24.6033L56.7845 24.5919L61.7416 21.7285L66.6984 18.8649L63.8867 17.2293L61.0746 15.5934L58.7674 14.2491L56.4602 12.9045L51.4078 15.7904ZM5.6604 15.9024L0.869753 18.6662V18.8447V19.0228L5.87119 21.8958L10.8723 24.7689L15.81 21.9323L20.7474 19.0955L20.8157 18.886L20.8838 18.6762L16.062 15.897L11.2401 13.1177L10.8457 13.128L10.4511 13.1382L5.6604 15.9024ZM34.0468 19.2201V25.0377L39.0345 27.9141L44.0222 30.7908H44.3257H44.6291V24.9878V19.1847L39.5965 16.2938L34.5639 13.4028H34.3053H34.0468V19.2201ZM214.277 14.834L212.463 15.0843L210.559 15.7048L208.655 16.3254L207.033 17.2943L205.41 18.2632L203.979 19.8238L202.548 21.3842L201.81 22.8875L201.072 24.3906L200.619 26.5219L200.166 28.653L200.348 30.7315L200.53 32.8101L201.09 34.5797L201.651 36.3493L202.652 37.7016L203.653 39.0542L205.01 40.0419L206.367 41.0298L208.369 41.7747L210.371 42.5198L215.09 43.2096L219.81 43.8997L220.755 44.3319L221.7 44.764L222.113 45.7497L222.527 46.7354L222.525 47.6709L222.525 48.6065L221.966 49.5189L221.408 50.4317L220.485 50.9071L219.563 51.3826L217.792 51.6015L216.022 51.8201L213.692 51.5861L211.363 51.3521L209.824 50.9063L208.286 50.4607L206.855 49.501L205.424 48.5412L201.748 52.2289L198.073 55.9166L199.489 57.1739L200.906 58.431L202.783 59.4142L204.661 60.397L206.766 60.9785L208.871 61.56L211.909 61.8864L214.947 62.2125L217.378 62.0241L219.81 61.8357L221.669 61.3938L223.528 60.952L225.903 59.8232L228.279 58.6941L229.951 57.0274L231.623 55.3607L232.485 53.5515L233.347 51.742L233.657 50.0505L233.967 48.3593V46.9743V45.5895L233.514 43.3923L233.061 41.1952L232.175 39.5345L231.29 37.8738L230.126 36.8724L228.962 35.871L227.675 35.2231L226.388 34.5754L224.953 34.1077L223.519 33.6402L218.909 32.9524L214.298 32.2645L213.41 31.8068L212.522 31.349L212.061 30.6489L211.601 29.9488V28.9856V28.0221L212.052 27.1536L212.503 26.285L213.566 25.63L214.629 24.975L217.09 24.8578L219.551 24.7406L221.15 25.0713L222.749 25.402L224.409 26.3985L226.069 27.3947L229.589 23.8949L233.109 20.3951V20.2012V20.0074L231.321 18.6597L229.534 17.312L227.989 16.6244L226.443 15.9369L224.127 15.3998L221.812 14.8628L218.952 14.7231L216.091 14.5837L214.277 14.834ZM100.266 15.6119L100.07 16.1108L91.9032 38.4872L83.7371 60.8636L83.599 61.2257L83.4608 61.5877L89.5562 61.5107L95.652 61.4337L96.7193 58.1557L97.787 54.8776L104.949 54.8015L112.111 54.7254L113.173 58.1508L114.235 61.5763H120.189H126.142L126.147 61.3625L126.153 61.1487L117.782 38.136L109.41 15.1231L104.936 15.1182L100.462 15.1131L100.266 15.6119ZM162.179 38.3447V61.5763H168.042H173.905V53.3098V45.0433L178.553 45.0391L183.2 45.0348L185.034 44.6041L186.868 44.1734L188.609 43.3348L190.351 42.4964L191.755 41.2855L193.16 40.0746L194.24 38.4088L195.321 36.743L195.976 34.8357L196.632 32.9287V30.0782V27.2277L195.976 25.3207L195.321 23.4135L194.245 21.755L193.17 20.0966L191.861 18.949L190.553 17.8014L189.115 17.0212L187.676 16.2407L185.464 15.6769L183.252 15.1131H172.715H162.179V38.3447ZM0.0775084 25.8632L0.154731 31.7674L5.23711 34.692L10.3195 37.6167L10.2423 31.5938L10.165 25.571L5.30289 22.7695L0.44074 19.9683L0.220513 19.9635L0 19.9589L0.0775084 25.8632ZM45.5526 25.815L45.6301 31.715L50.4923 34.527L55.3544 37.339L55.712 37.343L56.0695 37.347V31.5533V25.7594L51.143 22.9306L46.2162 20.1015L45.8458 20.0082L45.4754 19.9147L45.5526 25.815ZM182.494 26.0162L183.768 26.6576L184.414 27.6262L185.059 28.5948V30.0782V31.5616L184.415 32.5148L183.77 33.468L182.771 34.0535L181.77 34.639L177.838 34.7376L173.905 34.8363V30.1056V25.3749H177.563H181.22L182.494 26.0162ZM28.7851 28.8174L23.9527 31.6155L23.7259 31.8447L23.4991 32.0736L28.4956 34.9241L33.4922 37.7746L33.8411 37.6825L34.1898 37.5904L38.9804 34.8377L43.7711 32.0853L43.7628 31.9367L43.7542 31.7885L40.1162 29.7199L36.4779 27.6516L35.0478 26.8352L33.6178 26.0191L28.7851 28.8174ZM139.229 26.2212L137.872 26.4672L136.082 27.0641L134.293 27.661L132.587 28.9372L130.882 30.2133L129.957 31.3778L129.033 32.5422L128.457 33.7331L127.882 34.9241L127.437 36.6344L126.991 38.3447L126.82 42.0503L126.649 45.756L126.967 48.5215L127.285 51.2871L127.964 53.1519L128.643 55.0167L129.83 56.5491L131.016 58.0815L132.736 59.2839L134.455 60.4859L135.993 61.0244L137.53 61.5631L139.614 61.8853L141.697 62.2074L143.429 62.0164L145.161 61.8251L146.448 61.5224L147.735 61.2197L149.528 60.3585L151.32 59.4977L152.845 58.0385L154.368 56.579L155.266 55.0155L156.163 53.4523L156.668 51.3145L157.174 49.1766L157.17 44.0457L157.167 38.9148L156.785 37.2045L156.403 35.4942L155.543 33.6821L154.684 31.87L153.044 30.2601L151.403 28.6504L149.818 27.8508L148.232 27.0516L146.697 26.6422L145.161 26.2329L142.873 26.104L140.585 25.9755L139.229 26.2212ZM0.0775084 38.9692L0.154731 44.8669L5.23711 47.7964L10.3195 50.7261L10.2423 44.7195L10.165 38.713L5.30289 35.8975L0.44074 33.0821L0.220513 33.0767L0 33.0712L0.0775084 38.9692ZM22.8933 38.986L22.8944 44.9008L26.5399 46.9697L30.1857 49.0389L31.6872 49.9151L33.1888 50.7914V44.8156V38.8395L28.1584 35.9554L23.1278 33.0712H23.0103H22.8924L22.8933 38.986ZM45.5526 38.9116L45.6301 44.8176L50.4923 47.633L55.3544 50.4485L55.712 50.4539L56.0695 50.4593V44.8025V39.1457L55.569 38.7215L55.0684 38.2974L50.7783 35.8436L46.4882 33.3896L45.9817 33.1978L45.4754 33.0057L45.5526 38.9116ZM107.1 38.9148L108.715 44.0457L108.867 44.5445L109.02 45.0433H105.139H101.259V44.837V44.6306L103.182 38.8578L105.105 33.0849L105.295 33.4344L105.486 33.7839L107.1 38.9148ZM144.528 36.495L145.259 37.0682L145.782 38.4191L146.305 39.7699V44.0457V48.3214L145.782 49.6723L145.259 51.0231L144.528 51.5964L143.797 52.1696H142.248H140.7L139.831 51.7218L138.962 51.274L138.349 49.9402L137.737 48.6065L137.731 44.1882L137.725 39.7699L138.258 38.3917L138.792 37.0138L139.688 36.4688L140.585 35.9237L142.191 35.9229L143.797 35.9217L144.528 36.495ZM19.8893 47.0293L17.6013 48.3739L14.7892 50.0098L11.9775 51.6457L16.9343 54.5093L21.8914 57.3726L22.2077 57.384L22.5241 57.3954L27.4274 54.5746L32.3307 51.7537L32.3282 51.6052L32.3259 51.457L28.8317 49.4616L25.3375 47.4663L23.7576 46.5755L22.1774 45.6847L19.8893 47.0293ZM39.9929 48.5623L34.9277 51.457L34.9205 51.5995L34.9137 51.742L39.7346 54.509L44.5553 57.276L44.8582 57.3595L45.1611 57.443L50.1602 54.5948L55.1597 51.7463L55.0384 51.5513L54.9174 51.3561L50.5598 48.8696L46.2022 46.3831L45.6301 46.0253L45.0581 45.6676L39.9929 48.5623ZM0.0775084 52.0795L0.154731 57.9755L5.23711 60.901L10.3192 63.8264L10.2423 57.811L10.165 51.7956L5.30289 48.9941L0.44074 46.193L0.220513 46.1881L0 46.1835L0.0775084 52.0795ZM29.6028 54.5612L25.5881 56.8729L24.4806 57.5314L23.3732 58.1902L27.3513 60.4748L31.3297 62.7595L32.4878 63.4291L33.6458 64.0984L38.7076 61.1983L43.7694 58.2982V58.1557L43.7691 58.0131L40.1236 55.9442L36.4779 53.8751L35.0478 53.0624L33.6178 52.2494L29.6028 54.5612ZM11.5176 58.6146L11.5951 64.5548L16.6002 67.4526L21.6054 70.3501L21.6829 64.4869L21.7604 58.6237L21.5399 58.4139L21.3194 58.2044L16.763 55.5859L12.2066 52.9672L11.8233 52.8207L11.4404 52.6741L11.5176 58.6146ZM22.8933 65.1802L22.8944 71.1254L26.5399 73.1903L30.1857 75.255L31.6929 76.121L33.2002 76.9869L33.123 70.9704L33.0458 64.9535L28.3266 62.2336L23.6075 59.5136L23.2499 59.3742L22.8924 59.2349L22.8933 65.1802ZM88.7843 72.5858L88.3513 73.6185L86.0818 79.7625L83.8123 85.9064V86.0182V86.1302L84.4558 86.0393L85.0994 85.9481L85.6657 84.309L86.232 82.67H89.5828H92.934L93.5595 84.3803L94.1853 86.0906H94.719H95.2527V85.8249V85.5592L92.8476 79.055L90.4426 72.5507L90.243 72.0519L90.0433 71.553H89.6303H89.2173L88.7843 72.5858ZM127.388 71.8304L126.775 72.0821L126.315 72.7363L125.856 73.3902V74.8947V76.3989H125.117H124.378L124.496 76.7552L124.614 77.1115L125.234 77.2027L125.856 77.2937V81.6923V86.0906H126.428H127V81.6723V77.254H128.144H129.288V76.8265V76.3989H128.144H127V75.0973V73.7961L127.296 73.2445L127.592 72.6932H128.461H129.33L129.234 72.1944L129.139 71.6955L128.57 71.6371L128.001 71.5784L127.388 71.8304ZM136.152 78.7919V86.0906H136.724H137.296V83.1298V80.1692L140.287 80.0589L143.278 79.9486L144.077 79.3648L144.875 78.7813L145.375 77.8039L145.875 76.8265V75.8288V74.8311L145.375 73.8431L144.875 72.8551L143.874 72.2753L142.873 71.6958L139.513 71.5943L136.152 71.4929V78.7919ZM164.658 71.7431L164.467 71.933V79.0119V86.0906H165.039H165.611V85.663V85.2354H165.803H165.995L166.53 85.7177L167.064 86.2003L168.411 86.1972L169.758 86.1943L170.426 85.8343L171.094 85.4746L171.635 84.2859L172.176 83.0976V81.2447V79.3919L171.62 78.1696L171.063 76.9476L170.062 76.5306L169.061 76.1138H168.398H167.734L166.672 76.6531L165.611 77.1925V74.3727V71.553H165.23H164.848L164.658 71.7431ZM174.595 71.9421L174.446 72.3312L174.533 78.6664L174.62 85.0017L175.295 85.5461L175.971 86.0906H176.94H177.909V85.6946V85.299L176.936 85.1169L175.962 84.935L175.792 84.4917L175.621 84.0485V77.8008V71.553H175.183H174.745L174.595 71.9421ZM212.659 71.9529L211.801 72.3303L211.275 72.9184L210.749 73.5068L210.516 74.5392L210.282 75.5717L210.549 76.5371L210.817 77.5023L211.664 78.2127L212.511 78.9227L214.158 79.2425L215.805 79.5626L216.553 79.7052L217.301 79.848L217.912 80.4149L218.523 80.9819V82.2672V83.5522L217.78 84.238L217.038 84.9236L215.805 85.108L214.571 85.2922L213.696 85.1009L212.821 84.9093L211.829 84.2378L210.836 83.5665L210.507 83.961L210.179 84.3552L210.366 84.6568L210.553 84.9586L211.749 85.5761L212.945 86.1932L214.804 86.1943L216.663 86.1952L217.522 85.7445L218.381 85.2939L218.889 84.7337L219.398 84.1739L219.671 83.2238L219.945 82.2738L219.657 81.21L219.37 80.1461L218.528 79.4404L217.687 78.7346L215.602 78.3882L213.517 78.0422L213.039 77.7925L212.561 77.5428L212.11 77.093L211.658 76.6432V75.4346V74.2259L212.238 73.6057L212.818 72.9851L213.541 72.8044L214.263 72.6237L215.681 72.7593L217.098 72.895L217.662 73.4036L218.226 73.9121L218.657 73.5555L219.088 73.1986L218.913 72.9164L218.738 72.6339L217.558 72.0997L216.377 71.5656L214.947 71.5704L213.517 71.5753L212.659 71.9529ZM231.511 71.9421L231.361 72.3312L231.449 78.6664L231.536 85.0017L232.211 85.5461L232.886 86.0906H233.856H234.825V85.663V85.2354H234.253H233.681L233.109 84.6653L232.537 84.0952V77.8241V71.553H232.099H231.661L231.511 71.9421ZM244.168 71.7431L243.977 71.933V72.4558V72.9783H244.692H245.407V72.2656V71.553H244.883H244.359L244.168 71.7431ZM143.797 73.6262L144.589 74.4164V75.8288V77.2412L143.797 78.0314L143.004 78.8218L140.15 78.9199L137.296 79.0176V75.8288V72.6399L140.15 72.7377L143.004 72.8357L143.797 73.6262ZM105.263 74.8311V76.3989H104.524H103.785L103.903 76.7552L104.021 77.1115L104.642 77.2027L105.263 77.2937V80.7085V84.1235L105.681 84.9299L106.1 85.7366L106.563 85.9136L107.026 86.0906H107.861H108.695V85.663V85.2354H108.123H107.551L106.979 84.6653L106.407 84.0952V80.6746V77.254H107.551H108.695V76.8265V76.3989H107.551H106.407V74.8311V73.2633H105.835H105.263V74.8311ZM91.1522 77.6648L92.3926 81.0683V81.2992V81.5298H89.5391H86.6856L87.8616 78.1804L89.0374 74.8311L89.3191 74.1185L89.6006 73.4058L89.7564 73.8334L89.912 74.261L91.1522 77.6648ZM99.9718 76.3062L99.3998 76.4576L98.8993 76.9L98.3988 77.3424V76.8706V76.3989H97.6838H96.9687V81.2447V86.0906H97.6838H98.3988V82.3721V78.6533L99.1009 77.9538L99.8028 77.254H100.693H101.582L102.166 77.5656L102.75 77.8769L103.065 77.5633L103.379 77.25L102.943 76.8148L102.506 76.3798L101.525 76.2675L100.544 76.1549L99.9718 76.3062ZM117.582 76.5978L116.601 77.1115L116.009 77.9173L115.416 78.7232V81.2082V83.6936L115.921 84.4604L116.425 85.2274L117.17 85.7138L117.915 86.2003L119.24 86.1995L120.564 86.1989L121.366 85.675L122.167 85.1508L122.647 84.2668L123.127 83.3826V81.2447V79.1069L122.626 78.183L122.126 77.2594L121.427 76.8034L120.729 76.3476L119.646 76.2159L118.562 76.0839L117.582 76.5978ZM149.809 76.6352L148.736 77.1925V76.7957V76.3989H148.164H147.592V81.2447V86.0906H148.142H148.691L148.785 82.3596L148.879 78.6285L149.682 77.9413L150.484 77.254H151.33H152.176L152.737 77.6032L153.298 77.9524L153.651 77.6012L154.003 77.25L153.554 76.8025L153.105 76.3553L151.993 76.2164L150.881 76.0779L149.809 76.6352ZM156.468 76.5978L155.477 77.1115L154.895 78.1092L154.314 79.1069L154.319 81.2447L154.325 83.3826L154.805 84.2668L155.285 85.1508L156.086 85.675L156.888 86.1989L158.212 86.1995L159.537 86.2003L160.282 85.7138L161.027 85.2274L161.508 84.4949L161.99 83.762L162.102 81.5771L162.214 79.3919L161.696 78.4145L161.178 77.437L160.438 76.8971L159.698 76.3573L158.579 76.2204L157.46 76.0839L156.468 76.5978ZM181.065 76.5978L180.074 77.1115L179.544 78.0262L179.014 78.941L178.859 80.4492L178.704 81.9574L179.042 83.2016L179.379 84.4458L180.041 85.1057L180.704 85.7659L181.88 86.0817L183.057 86.3976L184.174 86.0977L185.291 85.7981L185.962 85.2374L186.633 84.677L186.234 84.4151L185.835 84.1534L184.947 84.6933L184.058 85.2334L183.05 85.2343L182.041 85.2354L181.375 84.7705L180.709 84.3059L180.31 83.3544L179.911 82.4032V81.9665V81.5298H183.343H186.776L186.769 80.6034L186.763 79.677L186.221 78.4877L185.68 77.2985L184.951 76.823L184.223 76.3476L183.14 76.2159L182.056 76.0839L181.065 76.5978ZM191.269 76.6531L190.208 77.1925V76.7957V76.3989H189.636H189.064V81.2447V86.0906H189.636H190.208V82.6557V79.2212L190.626 78.4147L191.045 77.6081L191.508 77.431L191.971 77.254H193.041H194.112L194.806 77.9895L195.499 78.7246L195.599 82.4077L195.699 86.0906H196.242H196.786V82.3721V78.6533L197.488 77.9538L198.19 77.254H199.36H200.53L201.232 77.9538L201.934 78.6533V82.3721V86.0906H202.506H203.078V82.3707V78.6511L202.673 77.8712L202.269 77.0913L201.485 76.6739L200.702 76.2564L199.338 76.2766L197.975 76.2971L196.979 77.0539L195.984 77.8104L195.817 77.3769L195.65 76.9433L194.654 76.5286L193.658 76.1138H192.995H192.331L191.269 76.6531ZM223.814 76.4986L222.956 76.8912L222.496 77.4288L222.036 77.9667L221.709 78.9355L221.383 79.9044L221.389 81.3585L221.395 82.8125L221.937 84.0017L222.479 85.191L223.251 85.6955L224.024 86.2003H225.387H226.749L227.525 85.6938L228.3 85.1873L228.881 83.88L229.461 82.5728L229.322 80.635L229.183 78.6972L228.711 77.9798L228.239 77.262L227.539 76.8048L226.839 76.3476L225.755 76.227L224.672 76.1064L223.814 76.4986ZM250.77 76.6674L249.697 77.2552V76.827V76.3989H249.125H248.553V81.2447V86.0906H249.125H249.697L249.699 83.1688L249.701 80.2471L249.996 79.1864L250.292 78.126L250.916 77.6899L251.541 77.254H252.634H253.728L254.43 77.9538L255.132 78.6533V82.3721V86.0906H255.725H256.319L256.226 82.1044L256.133 78.1186L255.273 77.2629L254.414 76.4071L253.128 76.2432L251.843 76.0793L250.77 76.6674ZM260.4 76.5183L259.52 76.9006L258.994 78.0037L258.467 79.1069L258.338 80.4375L258.209 81.7681L258.55 83.1828L258.89 84.5975L259.73 85.3988L260.569 86.2003H261.964H263.358L264.145 85.6864L264.932 85.1727L264.795 86.82L264.658 88.4676L263.883 89.1318L263.108 89.7962H261.901H260.693L260.033 89.3356L259.373 88.8752L259.04 89.2133L258.707 89.5517L259.371 90.0924L260.035 90.6331L261.015 90.8164L261.996 91L262.947 90.8221L263.898 90.6443L264.645 89.8641L265.392 89.0836L265.696 88.2812L266 87.4788V81.9388V76.3989H265.428H264.856V76.7957V77.1925L263.795 76.6531L262.733 76.1138L262.007 76.1249L261.281 76.1361L260.4 76.5183ZM234.557 76.7552L234.574 77.1115L236.207 81.5298L237.839 85.9481L238.428 86.0327L239.016 86.1174L240.614 81.757L242.211 77.3966L242.42 76.8726L242.628 76.3487L241.961 76.4451L241.294 76.5414L239.981 80.3038L238.668 84.0662L238.492 84.2412L238.317 84.4162L236.976 80.4075L235.636 76.3989H235.087H234.539L234.557 76.7552ZM244.263 81.2447V86.0906H244.835H245.407V81.2447V76.3989H244.835H244.263V81.2447ZM121.072 77.9322L121.806 78.61L122.004 79.9275L122.202 81.2447L122.011 82.5152L121.82 83.786L120.956 84.5106L120.092 85.2354H119.384H118.677L117.889 84.8292L117.101 84.423L116.759 83.6756L116.417 82.9282V81.2171V79.5062L116.846 78.6793L117.275 77.8523L117.776 77.5619L118.276 77.2714L119.307 77.2626L120.338 77.254L121.072 77.9322ZM159.62 77.5476L160.171 77.8409L160.603 78.6736L161.035 79.5062V81.2171V82.9282L160.693 83.6756L160.351 84.423L159.563 84.8292L158.775 85.2354H158.068H157.36L156.496 84.5106L155.632 83.786L155.441 82.5152L155.25 81.2447L155.448 79.9275L155.646 78.61L156.38 77.9322L157.114 77.254H158.092H159.07L159.62 77.5476ZM170.209 77.9897L170.902 78.7252V81.2923V83.8595L170.099 84.5476L169.297 85.2354H168.299H167.301L166.639 84.5761L165.978 83.9168L165.777 82.5808L165.576 81.2447L165.777 79.9087L165.978 78.5727L166.639 77.9133L167.301 77.254H168.408H169.515L170.209 77.9897ZM184.244 77.5619L184.822 77.87L185.227 78.8355L185.632 79.8012V80.2379V80.6746H182.771H179.911V80.2379V79.8012L180.313 78.8418L180.716 77.8823L181.243 77.577L181.77 77.2714L182.719 77.2626L183.667 77.254L184.244 77.5619ZM226.86 77.5619L227.437 77.87L227.842 78.8355L228.247 79.8012V81.1931V82.585L227.93 83.4912L227.613 84.3977L226.8 84.8164L225.987 85.2354H225.387H224.786L223.974 84.8164L223.161 84.3977L222.844 83.4912L222.527 82.585V81.1931V79.8012L222.929 78.8418L223.331 77.8823L223.858 77.577L224.386 77.2714L225.334 77.2626L226.282 77.254L226.86 77.5619ZM263.469 77.5619L264.046 77.87L264.451 78.8355L264.856 79.8012V81.2447V82.6882L264.451 83.654L264.046 84.6194L263.469 84.9276L262.891 85.2354H262.002H261.112L260.433 84.5587L259.754 83.8817L259.555 82.5634L259.357 81.2447L259.555 79.9261L259.754 78.6077L260.433 77.9307L261.112 77.254H262.002H262.891L263.469 77.5619Z" fill="white"/>
</svg>
