<svg width="244" height="40" viewBox="0 0 244 40" fill="none" xmlns="http://www.w3.org/2000/svg">
<path fill-rule="evenodd" clip-rule="evenodd" d="M7.07692 0.251592L5.90882 0.449026L4.76889 1.00391L3.62872 1.55854L2.69968 2.49229L1.77064 3.42604L1.15512 4.64707L0.539348 5.86836L0.269674 7.61547L0 9.36259L0.0808287 13.7467L0.161902 18.1307L0.896709 19.3165L1.63151 20.5021L14.7356 29.7079L27.8396 38.9134L28.8193 39.4567L29.7991 40L33.963 39.9793L38.1269 39.9586L39.5235 39.4121L40.9199 38.8656L42.1441 37.7595L43.3683 36.6532L43.9982 35.3593L44.6282 34.0652L44.866 31.986L45.1039 29.9068L45.0982 19.8135L45.0924 9.72028L44.854 7.8747L44.616 6.02886L44.0083 4.78075L43.4006 3.53263L42.4784 2.60159L41.556 1.67055L40.42 1.08933L39.284 0.508355L37.7257 0.254054L36.1674 0L22.2061 0.0270793L8.24477 0.0541587L7.07692 0.251592ZM37.2348 4.65618L38.3023 4.86346L38.9494 5.34819L39.5965 5.83291L40.0864 6.66892L40.5762 7.50469L40.6507 19.1562L40.7252 30.808L40.4528 32.127L40.1802 33.4463L39.6636 34.1065L39.1468 34.7668L38.3018 35.1218L37.4567 35.4765L34.9288 35.6205L32.4008 35.7643L31.0632 35.1067L29.7256 34.449L29.1277 33.6548L28.5301 32.8609L23.4315 23.7523L18.3329 14.6438L17.8445 14.0961L17.3561 13.5483L16.2931 13.1404L15.2298 12.7323L14.3253 12.88L13.4207 13.0274L10.2831 15.128L7.14575 17.2287H6.43102H5.71655L5.08241 16.4712L4.44827 15.7139L4.44974 12.1015L4.45097 8.4894L4.71795 7.50469L4.98517 6.51999L5.51276 5.94344L6.04035 5.3669L6.53022 5.10078L7.02009 4.83442L7.7549 4.65618L8.48971 4.47795L22.3286 4.46343L36.1674 4.4489L37.2348 4.65618ZM72.566 6.29424L71.2444 6.6512L69.9942 7.32129L68.7438 7.99138L67.3967 9.35619L66.0495 10.7207L65.2726 12.3302L64.4954 13.9395L64.1092 15.8198L63.7226 17.7003L63.7268 19.4955L63.7312 21.2906L64.091 23.0138L64.4511 24.7371L65.3037 26.479L66.1566 28.2207L67.3908 29.4612L68.625 30.7017L70.0893 31.486L71.5532 32.2703L73.3327 32.6482L75.1121 33.0261L76.8267 32.8668L78.5412 32.7075L79.6662 32.3781L80.791 32.0487L81.7768 31.5433L82.7629 31.0377L84.1032 29.8066L85.4435 28.5752L86.206 27.0191L86.9682 25.4628L87.1336 24.4229L87.2991 23.3831H84.4699H81.6409L81.3384 24.3062L81.0357 25.2294L80.5627 25.8734L80.0897 26.5174L79.1159 27.0676L78.1417 27.6178L76.6942 27.7495L75.2464 27.8815L74.1486 27.5725L73.0508 27.2638L72.0757 26.4248L71.1006 25.5859L70.4121 24.1768L69.7236 22.7676V19.4443V16.1209L70.2899 14.8636L70.8561 13.6062L71.7595 12.7214L72.6628 11.8369L73.6425 11.4255L74.6223 11.0144L76.135 11.0134L77.6477 11.0127L78.7747 11.5609L79.9016 12.1094L80.5218 12.9265L81.142 13.7435L81.384 14.6246L81.626 15.5054H84.4312H87.2364V15.0052V14.5052L86.7302 12.9947L86.2239 11.4844L85.5199 10.4559L84.8157 9.42733L83.9352 8.65015L83.0544 7.87297L81.8826 7.27624L80.7106 6.67926L79.2231 6.29203L77.7356 5.90455L75.8117 5.92079L73.8875 5.93704L72.566 6.29424ZM172.046 6.28489L170.76 6.63298L169.769 7.14109L168.778 7.6492L167.79 8.54602L166.802 9.44284L166.168 10.6895L165.534 11.9359L165.532 13.7822L165.53 15.6285L165.986 16.5893L166.442 17.5504L167.263 18.3754L168.084 19.2005L169.489 19.9137L170.895 20.6269L173.95 21.4174L177.005 22.2078L178.151 22.825L179.297 23.4422L179.593 24.1593L179.888 24.8766L179.67 25.6427L179.451 26.4091L178.548 27.1434L177.645 27.878L175.978 27.9967L174.311 28.1153L173.215 27.8172L172.119 27.5191L171.347 26.6964L170.574 25.8736L170.411 24.9975L170.247 24.1216H167.53H164.813L164.942 25.5526L165.071 26.9834L165.692 28.2145L166.313 29.4457L167.343 30.3809L168.373 31.3161L169.449 31.7949L170.526 32.2735L172.173 32.6245L173.821 32.9754L175.148 32.9798L176.475 32.984L178.087 32.7105L179.7 32.4372L181.214 31.7213L182.727 31.0057L183.706 29.8885L184.684 28.7716L185.07 27.6336L185.456 26.4957V25.1063V23.7169L185.047 22.5124L184.639 21.3078L183.516 20.1914L182.394 19.075L181.033 18.4135L179.671 17.7523L176.647 16.985L173.624 16.2176L172.948 15.8666L172.272 15.5153L171.761 14.8617L171.249 14.2081V13.6136V13.0193L171.606 12.3261L171.963 11.6331L172.882 11.1946L173.801 10.7562L175.403 10.7468L177.005 10.7377L177.741 11.1269L178.476 11.5161L178.918 12.0073L179.36 12.4984L179.548 13.202L179.735 13.9053H182.411H185.088L185.021 12.843L184.953 11.7808L184.42 10.64L183.886 9.49946L182.905 8.54233L181.924 7.58495L181.003 7.11278L180.082 6.64061L178.676 6.27258L177.27 5.90455L175.301 5.92079L173.331 5.93704L172.046 6.28489ZM91.3188 6.31492L91.1554 6.47888V19.4854V32.4916H93.9722H96.7889V19.3212V6.15072H94.1355H91.4819L91.3188 6.31492ZM188.803 6.31492L188.64 6.47888V19.4854V32.4916H191.438H194.237L194.316 26.1526L194.396 19.8135L194.951 18.9165L195.506 18.0196L196.335 17.624L197.164 17.2287L198.107 17.2297L199.049 17.2304L199.833 17.7112L200.618 18.1917L200.997 18.9288L201.376 19.6661V26.0787V32.4916H204.206H207.036L206.962 25.0448L206.887 17.5979L206.201 16.1928L205.514 14.7876L204.57 14.0358L203.625 13.2837L202.592 12.9176L201.56 12.5513H200.21H198.861L197.928 12.8322L196.995 13.1133L196.095 13.859L195.195 14.6047L194.735 15.3626L194.275 16.1209L194.274 11.1358L194.273 6.15072H191.62H188.966L188.803 6.31492ZM234.443 10.4588V12.7975H233.095H231.748V14.89V16.9825H233.095H234.443L234.448 22.8292L234.453 28.6759L234.906 29.6781L235.359 30.68L236.309 31.4688L237.259 32.2575L238.239 32.5244L239.219 32.791L241.364 32.6886L243.509 32.5859L243.755 32.3395L244 32.0928L243.579 30.0818L243.159 28.071L242.234 28.2197L241.308 28.3684L240.692 27.9625L240.076 27.5568V22.2696V16.9825H241.913H243.75V14.89V12.7975H241.913H240.076V10.4588V8.12013H237.259H234.443V10.4588ZM106.814 12.8878L105.695 13.1914L104.589 13.8425L103.484 14.4934L102.558 15.5239L101.631 16.5541L101.052 17.8271L100.472 19.1003L100.182 20.9703L99.893 22.8405L100.183 24.6504L100.473 26.4603L101.21 27.9829L101.948 29.5055L103.177 30.616L104.406 31.7265L105.729 32.224L107.051 32.7215L108.595 32.8742L110.138 33.027L111.729 32.7631L113.32 32.4995L114.842 31.7467L116.363 30.9939L117.218 29.9907L118.072 28.9878L118.429 27.9332L118.787 26.8785L117.769 26.738L116.751 26.5977L115.261 26.5494L113.771 26.5009L112.934 27.4169L112.097 28.333L111.057 28.5671L110.016 28.8012L108.852 28.5397L107.689 28.2783L106.995 27.6156L106.301 26.9526L105.954 26.1225L105.607 25.2924V24.707V24.1216H112.253H118.9L118.773 21.8445L118.646 19.5673L118.118 18.1737L117.59 16.7801L116.907 15.917L116.225 15.0537L115.443 14.393L114.662 13.732L113.012 13.1468L111.363 12.5617L109.648 12.5732L107.933 12.5845L106.814 12.8878ZM127.649 12.8866L126.546 13.2081L125.935 13.535L125.324 13.8622L124.408 14.6L123.492 15.3378L122.877 16.5778L122.262 17.8178V18.1275V18.4371L123.058 18.5585L123.854 18.6799L125.592 18.814L127.329 18.9482L127.607 18.334L127.886 17.7198L128.687 17.2289L129.488 16.738L130.76 16.7373L132.032 16.7363L132.667 17.2902L133.301 17.8441L133.443 18.7431L133.586 19.6419L132.996 20.0304L132.406 20.4189L129.538 20.7968L126.671 21.1746L125.32 21.6825L123.969 22.1904L123.257 22.7925L122.545 23.3947L122.01 24.5059L121.475 25.6171L121.565 27.4179L121.656 29.2189L122.37 30.2553L123.085 31.2918L124.156 31.9229L125.228 32.5539L126.99 32.8067L128.753 33.0595L130.216 32.6295L131.68 32.1994L132.727 31.147L133.774 30.0946V31.2932V32.4916H136.468H139.163V25.5204V18.5489L138.801 17.3242L138.439 16.0995L137.592 15.1044L136.745 14.1096L135.198 13.4112L133.652 12.7128L131.202 12.639L128.753 12.5649L127.649 12.8866ZM152.097 12.9053L151.193 13.2544L150.422 13.826L149.651 14.3976L149.063 15.3823L148.475 16.367L148.472 14.5823L148.47 12.7975H145.776H143.082V22.6446V32.4916H145.88H148.679L148.758 26.1526L148.838 19.8135L149.271 19.0157L149.705 18.2181L150.316 17.8158L150.927 17.4135L151.972 17.2951L153.016 17.1767L153.935 17.5627L154.854 17.9487L155.331 19.0041L155.808 20.0597L155.813 26.2757L155.818 32.4916H158.652H161.485L161.407 25.1679L161.329 17.8441L160.692 16.4901L160.055 15.1362L159.348 14.4343L158.641 13.7327L157.659 13.2244L156.676 12.716L154.839 12.6362L153.002 12.5565L152.097 12.9053ZM217.28 12.8743L216.16 13.1914L215.055 13.8425L213.95 14.4934L213.024 15.5239L212.097 16.5541L211.517 17.8271L210.937 19.1003L210.648 20.9703L210.359 22.8405L210.642 24.5645L210.925 26.2885L211.39 27.3591L211.854 28.4297L212.615 29.473L213.377 30.5165L214.664 31.3723L215.95 32.228L217.542 32.6369L219.134 33.0458L221.094 32.8966L223.053 32.7474L224.82 31.872L226.586 30.9968L227.423 29.9594L228.26 28.9221L228.754 27.9359L229.248 26.9499L229.532 25.8904L229.816 24.8306L229.812 22.6884L229.809 20.5459L229.313 18.9487L228.817 17.3518L227.888 16.1209L226.959 14.89L225.784 14.0966L224.61 13.3031L223.709 13.0242L222.808 12.7455L220.604 12.6513L218.399 12.557L217.28 12.8743ZM111.601 17.2548L112.298 17.5979L112.765 18.2323L113.232 18.867L113.435 19.7709L113.638 20.6751H109.622H105.607L105.611 20.2443L105.615 19.8135L106.163 18.8288L106.711 17.8441L107.812 17.2742L108.913 16.7046L109.909 16.8082L110.904 16.9116L111.601 17.2548ZM222.321 17.5768L222.924 17.9743L223.458 19.0171L223.991 20.0597L224.104 21.9437L224.216 23.8279L223.913 25.097L223.61 26.366L222.975 27.1235L222.341 27.8812L221.542 28.217L220.742 28.5528H220.13H219.518L218.704 28.1628L217.891 27.7727L217.342 26.9684L216.794 26.1641L216.548 25.3274L216.301 24.4909L216.299 22.615L216.296 20.7394L216.7 19.6609L217.105 18.5826L217.961 17.7966L218.816 17.0103L219.465 16.9305L220.114 16.851L220.916 17.0152L221.717 17.1794L222.321 17.5768ZM133.528 25.0448L133.528 26.4603L133.049 27.2483L132.571 28.0366L131.764 28.4624L130.957 28.8881L129.69 28.9051L128.423 28.9221L127.731 28.4051L127.038 27.8881L126.966 26.9201L126.893 25.9524L127.524 25.3564L128.155 24.7604L130.659 24.2235L133.162 23.6869L133.346 23.6581L133.529 23.6293L133.528 25.0448Z" fill="white"/>
</svg>
