<svg width="368" height="93" viewBox="0 0 368 93" fill="none" xmlns="http://www.w3.org/2000/svg">
<path fill-rule="evenodd" clip-rule="evenodd" d="M38.6212 0.313131C38.6212 0.485354 38.2679 0.626263 37.8362 0.626263C37.3476 0.626263 37.0512 0.803808 37.0512 1.09596C37.0512 1.38811 36.7548 1.56566 36.2662 1.56566C35.8345 1.56566 35.4812 1.70657 35.4812 1.87879C35.4812 2.05101 35.2693 2.19192 35.0102 2.19192C34.7512 2.19192 34.5393 2.40328 34.5393 2.66162C34.5393 2.95377 34.2428 3.13131 33.7543 3.13131C33.2657 3.13131 32.9693 3.30886 32.9693 3.60101C32.9693 3.89316 32.6729 4.07071 32.1843 4.07071C31.7526 4.07071 31.3993 4.19627 31.3993 4.35002C31.3993 4.50345 31.0461 4.71764 30.6143 4.82567C30.1826 4.9337 29.8294 5.1604 29.8294 5.32918C29.8294 5.49827 29.613 5.63636 29.3486 5.63636C29.0839 5.63636 28.7863 5.84773 28.687 6.10606C28.5875 6.36439 28.168 6.57576 27.7548 6.57576C27.3416 6.57576 27.0034 6.71385 27.0034 6.88294C27.0034 7.05172 26.6502 7.27842 26.2184 7.38645C25.7867 7.49448 25.4334 7.70867 25.4334 7.8621C25.4334 8.01585 25.2215 8.14141 24.9625 8.14141C24.7034 8.14141 24.4915 8.28232 24.4915 8.45455C24.4915 8.62677 24.2045 8.76768 23.8537 8.76768C23.5027 8.76768 23.1344 8.97904 23.0352 9.23737C22.9356 9.49571 22.5161 9.70707 22.1029 9.70707C21.6445 9.70707 21.3515 9.89025 21.3515 10.1768C21.3515 10.4689 21.0551 10.6465 20.5666 10.6465C20.1348 10.6465 19.7816 10.7874 19.7816 10.9596C19.7816 11.1318 19.5696 11.2727 19.3106 11.2727C19.0515 11.2727 18.8396 11.4841 18.8396 11.7424C18.8396 12.0346 18.5432 12.2121 18.0546 12.2121C17.566 12.2121 17.2696 12.3897 17.2696 12.6818C17.2696 12.974 16.9732 13.1515 16.4846 13.1515C16.0529 13.1515 15.6997 13.2771 15.6997 13.4308C15.6997 13.5843 15.3464 13.7984 14.9147 13.9065C14.4829 14.0145 14.1297 14.2412 14.1297 14.41C14.1297 14.5791 13.9177 14.7172 13.6587 14.7172C13.3997 14.7172 13.1877 14.9285 13.1877 15.1869C13.1877 15.5 12.8737 15.6566 12.2457 15.6566C11.7276 15.6566 11.3038 15.7975 11.3038 15.9697C11.3038 16.1419 10.9505 16.2828 10.5188 16.2828C10.0302 16.2828 9.73379 16.4604 9.73379 16.7525C9.73379 17.0234 9.44994 17.2222 9.06341 17.2222C8.69447 17.2222 8.06554 17.5745 7.6652 18.005C7.26517 18.4356 6.64849 18.7879 6.29494 18.7879C5.93259 18.7879 5.65188 18.993 5.65188 19.2576C5.65188 19.5497 5.35547 19.7273 4.86689 19.7273C4.43515 19.7273 4.08191 19.8528 4.08191 20.0066C4.08191 20.16 3.72867 20.3742 3.29693 20.4822C2.86519 20.5903 2.51195 20.817 2.51195 20.9857C2.51195 21.1548 2.3 21.2929 2.04096 21.2929C1.72696 21.2929 1.56997 21.6061 1.56997 22.2323C1.56997 22.8586 1.72696 23.1717 2.04096 23.1717C2.3 23.1717 2.51195 23.3098 2.51195 23.4789C2.51195 23.6477 2.86519 23.8744 3.29693 23.9824C3.72867 24.0904 4.08191 24.3046 4.08191 24.4581C4.08191 24.6118 4.43515 24.7374 4.86689 24.7374C5.35547 24.7374 5.65188 24.9149 5.65188 25.2071C5.65188 25.4717 5.93259 25.6768 6.29494 25.6768C6.64849 25.6768 7.26517 26.029 7.6652 26.4596C8.06554 26.8902 8.69447 27.2424 9.06341 27.2424C9.44994 27.2424 9.73379 27.4413 9.73379 27.7121C9.73379 28.0043 10.0302 28.1818 10.5188 28.1818C10.9505 28.1818 11.3038 28.3227 11.3038 28.4949C11.3038 28.6672 11.7276 28.8081 12.2457 28.8081C12.7638 28.8081 13.1877 28.959 13.1877 29.1434C13.1877 29.6686 13.9743 30.323 14.8767 30.5488C15.3295 30.6621 15.6997 30.8804 15.6997 31.0338C15.6997 31.1876 16.0529 31.3131 16.4846 31.3131C16.9732 31.3131 17.2696 31.4907 17.2696 31.7828C17.2696 32.075 17.566 32.2525 18.0546 32.2525C18.5432 32.2525 18.8396 32.4301 18.8396 32.7222C18.8396 33.0159 19.1373 33.1919 19.6343 33.1919C20.0717 33.1919 20.5107 32.9806 20.6099 32.7222C20.7094 32.4639 21.1289 32.2525 21.5421 32.2525C22.0006 32.2525 22.2935 32.0693 22.2935 31.7828C22.2935 31.4907 22.5899 31.3131 23.0785 31.3131C23.5102 31.3131 23.8635 31.1876 23.8635 31.0338C23.8635 30.8804 24.2167 30.6662 24.6485 30.5582C25.0802 30.4501 25.4334 30.2234 25.4334 30.0547C25.4334 29.8856 25.6454 29.7475 25.9044 29.7475C26.1635 29.7475 26.3754 29.5361 26.3754 29.2778C26.3754 28.9646 26.6894 28.8081 27.3174 28.8081C27.8355 28.8081 28.2594 28.6672 28.2594 28.4949C28.2594 28.3227 28.5464 28.1818 28.8971 28.1818C29.2482 28.1818 29.6165 27.9705 29.7157 27.7121C29.8152 27.4538 30.1832 27.2424 30.5333 27.2424C30.8837 27.2424 31.4976 26.8902 31.8979 26.4596C32.298 26.029 32.9147 25.6768 33.2682 25.6768C33.6306 25.6768 33.9113 25.4717 33.9113 25.2071C33.9113 24.9149 34.2077 24.7374 34.6962 24.7374C35.128 24.7374 35.4812 24.5965 35.4812 24.4242C35.4812 24.252 35.6932 24.1111 35.9522 24.1111C36.2113 24.1111 36.4232 23.8997 36.4232 23.6414C36.4232 23.3493 36.7196 23.1717 37.2082 23.1717C37.6968 23.1717 37.9932 22.9942 37.9932 22.702C37.9932 22.4099 38.2896 22.2323 38.7782 22.2323C39.2099 22.2323 39.5631 22.0914 39.5631 21.9192C39.5631 21.747 40.2696 21.6061 41.1331 21.6061C41.9966 21.6061 42.7031 21.747 42.7031 21.9192C42.7031 22.0914 42.915 22.2323 43.1741 22.2323C43.4331 22.2323 43.6451 22.4437 43.6451 22.702C43.6451 22.9885 43.938 23.1717 44.3964 23.1717C44.8097 23.1717 45.2291 23.3831 45.3287 23.6414C45.4279 23.8997 45.7962 24.1111 46.1473 24.1111C46.498 24.1111 46.785 24.252 46.785 24.4242C46.785 24.5965 47.2089 24.7374 47.727 24.7374C48.2451 24.7374 48.6689 24.8883 48.6689 25.0727C48.6689 25.5979 49.4555 26.2523 50.3579 26.4781C50.8107 26.5914 51.1809 26.8097 51.1809 26.9631C51.1809 27.1169 51.5341 27.2424 51.9659 27.2424C52.4544 27.2424 52.7509 27.42 52.7509 27.7121C52.7509 28.0043 53.0473 28.1818 53.5358 28.1818C53.9676 28.1818 54.3208 28.3227 54.3208 28.4949C54.3208 28.6672 54.5328 28.8081 54.7918 28.8081C55.0509 28.8081 55.2628 29.0194 55.2628 29.2778C55.2628 29.5699 55.5592 29.7475 56.0478 29.7475C56.5364 29.7475 56.8328 29.925 56.8328 30.2172C56.8328 30.5093 57.1292 30.6869 57.6177 30.6869C58.0495 30.6869 58.4027 30.8278 58.4027 31C58.4027 31.1722 58.6147 31.3131 58.8737 31.3131C59.1328 31.3131 59.3447 31.4446 59.3447 31.6053C59.3447 31.7659 59.6625 31.9961 60.0512 32.1169C60.4399 32.2381 60.8513 32.4824 60.9655 32.6599C61.251 33.1036 63.2059 33.0692 63.3569 32.6179C63.4241 32.4169 63.6791 32.2525 63.9237 32.2525C64.1686 32.2525 64.3686 32.0412 64.3686 31.7828C64.3686 31.4697 64.6826 31.3131 65.3106 31.3131C65.8287 31.3131 66.2526 31.1722 66.2526 31C66.2526 30.8278 66.5396 30.6869 66.8903 30.6869C67.2413 30.6869 67.6096 30.4755 67.7089 30.2172C67.8084 29.9588 68.1616 29.7475 68.4938 29.7475C68.8264 29.7475 69.1796 29.5361 69.2788 29.2778C69.3784 29.0194 69.6566 28.8081 69.8971 28.8081C70.1376 28.8081 70.3345 28.6672 70.3345 28.4949C70.3345 28.3227 70.6877 28.1818 71.1195 28.1818C71.608 28.1818 71.9044 28.0043 71.9044 27.7121C71.9044 27.42 72.2008 27.2424 72.6894 27.2424C73.1212 27.2424 73.4744 27.1169 73.4744 26.9631C73.4744 26.8097 73.8276 26.5955 74.2594 26.4875C74.6911 26.3794 75.0444 26.1527 75.0444 25.9839C75.0444 25.8149 75.2563 25.6768 75.5154 25.6768C75.7744 25.6768 75.9864 25.4654 75.9864 25.2071C75.9864 24.9149 76.2828 24.7374 76.7713 24.7374C77.2031 24.7374 77.5563 24.5965 77.5563 24.4242C77.5563 24.252 77.914 24.1111 78.351 24.1111C78.7884 24.1111 79.2274 23.8997 79.3266 23.6414C79.4261 23.3831 79.775 23.1717 80.1019 23.1717C80.5531 23.1717 80.6962 22.9453 80.6962 22.2323C80.6962 21.5193 80.5531 21.2929 80.1019 21.2929C79.775 21.2929 79.4261 21.0816 79.3266 20.8232C79.2274 20.5649 78.7884 20.3535 78.351 20.3535C77.914 20.3535 77.5563 20.2126 77.5563 20.0404C77.5563 19.8682 77.2031 19.7273 76.7713 19.7273C76.2828 19.7273 75.9864 19.5497 75.9864 19.2576C75.9864 18.9992 75.7744 18.7879 75.5154 18.7879C75.2563 18.7879 75.0444 18.6498 75.0444 18.4807C75.0444 18.3119 74.6911 18.0852 74.2594 17.9772C73.8276 17.8692 73.4744 17.655 73.4744 17.5015C73.4744 17.3478 73.1212 17.2222 72.6894 17.2222C72.2008 17.2222 71.9044 17.0447 71.9044 16.7525C71.9044 16.4604 71.608 16.2828 71.1195 16.2828C70.6877 16.2828 70.3345 16.1419 70.3345 15.9697C70.3345 15.7975 70.1376 15.6566 69.8971 15.6566C69.6566 15.6566 69.3784 15.4452 69.2788 15.1869C69.1796 14.9285 68.8264 14.7172 68.4938 14.7172C68.1616 14.7172 67.8084 14.5058 67.7089 14.2475C67.6096 13.9891 67.2413 13.7778 66.8903 13.7778C66.5396 13.7778 66.2526 13.6369 66.2526 13.4646C66.2526 13.2924 65.97 13.1515 65.6246 13.1515C65.2757 13.1515 64.9966 12.9427 64.9966 12.6818C64.9966 12.3897 64.7002 12.2121 64.2116 12.2121C63.7799 12.2121 63.4266 12.074 63.4266 11.9049C63.4266 11.7362 63.0734 11.5095 62.6416 11.4014C62.2099 11.2934 61.8567 11.0792 61.8567 10.9258C61.8567 10.772 61.5034 10.6465 61.0717 10.6465C60.5831 10.6465 60.2867 10.4689 60.2867 10.1768C60.2867 9.91843 60.0747 9.70707 59.8157 9.70707C59.5567 9.70707 59.3447 9.56898 59.3447 9.39989C59.3447 9.23111 58.9915 9.0044 58.5597 8.89637C58.128 8.78834 57.7747 8.57416 57.7747 8.42073C57.7747 8.26698 57.4215 8.14141 56.9898 8.14141C56.5012 8.14141 56.2048 7.96387 56.2048 7.67172C56.2048 7.37957 55.9084 7.20202 55.4198 7.20202C54.9881 7.20202 54.6348 7.06111 54.6348 6.88889C54.6348 6.71667 54.4379 6.57576 54.1974 6.57576C53.9569 6.57576 53.6787 6.36439 53.5792 6.10606C53.4799 5.84773 53.1267 5.63636 52.7942 5.63636C52.462 5.63636 52.1087 5.425 52.0092 5.16667C51.91 4.90833 51.5417 4.69697 51.1906 4.69697C50.8399 4.69697 50.5529 4.55606 50.5529 4.38384C50.5529 4.21162 50.129 4.07071 49.6109 4.07071C48.9829 4.07071 48.6689 3.91414 48.6689 3.60101C48.6689 3.34268 48.457 3.13131 48.198 3.13131C47.9389 3.13131 47.727 2.99322 47.727 2.82413C47.727 2.65535 47.3737 2.42865 46.942 2.32062C46.5102 2.21259 46.157 1.9984 46.157 1.84497C46.157 1.69122 45.8038 1.56566 45.372 1.56566C44.8834 1.56566 44.587 1.38811 44.587 1.09596C44.587 0.803808 44.2906 0.626263 43.802 0.626263C43.3703 0.626263 43.0171 0.485354 43.0171 0.313131C43.0171 0.134333 42.0751 0 40.8191 0C39.5631 0 38.6212 0.134333 38.6212 0.313131ZM320.073 20.8232C319.973 21.0816 319.554 21.2929 319.14 21.2929C318.682 21.2929 318.389 21.4761 318.389 21.7626C318.389 22.021 318.238 22.2323 318.053 22.2323C317.634 22.2323 316.819 23.0227 316.819 23.4291C316.819 23.5951 316.607 23.8121 316.348 23.9113C315.996 24.046 315.877 24.6074 315.877 26.1368C315.877 27.7459 315.978 28.1818 316.348 28.1818C316.616 28.1818 316.819 28.4627 316.819 28.8322C316.819 29.1898 317.232 29.8943 317.737 30.3978C319.625 32.281 326.867 31.3939 326.867 29.2793C326.867 29.1679 327.079 28.8651 327.338 28.6067C327.666 28.2795 327.809 27.4785 327.809 25.9677C327.809 24.2479 327.711 23.798 327.338 23.798C327.079 23.798 326.867 23.647 326.867 23.4626C326.867 23.0289 326.068 22.2323 325.633 22.2323C325.448 22.2323 325.297 22.021 325.297 21.7626C325.297 21.4495 324.983 21.2929 324.355 21.2929C323.727 21.2929 323.413 21.1364 323.413 20.8232C323.413 20.4678 323.028 20.3535 321.833 20.3535C320.719 20.3535 320.2 20.4919 320.073 20.8232ZM130.914 30.7652C130.897 38.2571 130.816 40.0736 130.524 39.4545C129.94 38.212 127.615 36.0101 126.888 36.0101C126.524 36.0101 126.225 35.8692 126.225 35.697C126.225 35.5247 126.013 35.3838 125.754 35.3838C125.495 35.3838 125.283 35.1725 125.283 34.9141C125.283 34.5766 124.937 34.4444 124.053 34.4444C123.377 34.4444 122.77 34.2847 122.705 34.0897C122.552 33.6303 118.904 33.646 118.75 34.1063C118.688 34.2923 117.942 34.4444 117.093 34.4444C115.93 34.4444 115.549 34.5603 115.549 34.9141C115.549 35.1725 115.338 35.3838 115.079 35.3838C114.819 35.3838 114.608 35.5247 114.608 35.697C114.608 35.8692 114.254 36.0101 113.823 36.0101C113.334 36.0101 113.038 36.1876 113.038 36.4798C113.038 36.7381 112.826 36.9495 112.567 36.9495C112.308 36.9495 112.096 37.0904 112.096 37.2626C112.096 37.4348 111.884 37.5758 111.625 37.5758C111.366 37.5758 111.154 37.7871 111.154 38.0455C111.154 38.3038 111.012 38.5152 110.84 38.5152C110.667 38.5152 110.526 38.7265 110.526 38.9848C110.526 39.2432 110.386 39.4545 110.215 39.4545C109.602 39.4545 108.642 40.5474 108.642 41.2463C108.642 41.6386 108.5 41.9596 108.328 41.9596C108.155 41.9596 108.014 42.3119 108.014 42.7424C108.014 43.2297 107.836 43.5253 107.543 43.5253C107.25 43.5253 107.072 43.8208 107.072 44.3081C107.072 44.7386 106.93 45.0909 106.758 45.0909C106.585 45.0909 106.444 45.725 106.444 46.5C106.444 47.5437 106.322 47.9091 105.973 47.9091C105.572 47.9091 105.502 48.7095 105.502 53.2323C105.502 57.7552 105.572 58.5556 105.973 58.5556C106.313 58.5556 106.444 58.9034 106.444 59.8081C106.444 60.497 106.585 61.0606 106.758 61.0606C106.93 61.0606 107.072 61.5582 107.072 62.1663C107.072 62.8605 107.247 63.3393 107.543 63.4523C107.802 63.5516 108.014 63.9699 108.014 64.382C108.014 64.7941 108.14 65.1313 108.294 65.1313C108.448 65.1313 108.662 65.4836 108.771 65.9141C108.879 66.3447 109.106 66.697 109.276 66.697C109.445 66.697 109.584 66.9083 109.584 67.1667C109.584 67.425 109.796 67.6364 110.055 67.6364C110.314 67.6364 110.526 67.7873 110.526 67.9717C110.526 68.3894 111.318 69.202 111.726 69.202C111.892 69.202 112.11 69.4134 112.209 69.6717C112.308 69.93 112.677 70.1414 113.028 70.1414C113.379 70.1414 113.666 70.2823 113.666 70.4545C113.666 70.6268 113.862 70.7677 114.103 70.7677C114.343 70.7677 114.622 70.979 114.721 71.2374C114.844 71.5571 115.346 71.7071 116.291 71.7071C117.236 71.7071 117.738 71.8571 117.861 72.1768C118 72.5369 118.595 72.6465 120.416 72.6465C122.238 72.6465 122.833 72.5369 122.972 72.1768C123.09 71.8705 123.578 71.7071 124.375 71.7071C125.252 71.7071 125.597 71.5743 125.597 71.2374C125.597 70.9452 125.894 70.7677 126.382 70.7677C126.814 70.7677 127.167 70.6268 127.167 70.4545C127.167 70.2823 127.379 70.1414 127.638 70.1414C127.897 70.1414 128.109 69.9895 128.109 69.8039C128.109 69.6182 128.674 68.9406 129.365 68.2983C130.056 67.6558 130.648 66.8567 130.681 66.5222C130.713 66.1878 130.819 67.1823 130.916 68.7323C132.183 89.0026 141.925 69.3357 141.925 46.5075C141.925 21.2929 141.925 21.2929 136.43 21.2929C130.935 21.2929 130.935 21.2929 130.914 30.7652ZM165.16 46.0303C165.16 62.3131 165.268 70.7677 165.474 70.7677C165.647 70.7677 165.788 70.979 165.788 71.2374C165.788 72.1417 176.336 71.9122 176.58 71.0025C176.684 70.6149 176.772 61.3856 176.774 50.4924C176.777 37.5003 176.886 30.6869 177.092 30.6869C177.269 30.6869 177.406 31.574 177.406 32.7222C177.406 33.8417 177.53 34.7576 177.681 34.7576C177.833 34.7576 178.023 35.5608 178.105 36.5424C178.186 37.5238 178.416 38.3811 178.615 38.4472C178.814 38.5136 178.976 39.1856 178.976 39.9502C178.976 40.7108 179.1 41.3333 179.252 41.3333C179.404 41.3333 179.592 42.206 179.669 43.2726C179.748 44.361 179.971 45.2653 180.178 45.3339C180.409 45.4106 180.546 46.2075 180.546 47.4654C180.546 49.0426 180.648 49.4747 181.017 49.4747C181.379 49.4747 181.488 49.8749 181.488 51.197C181.488 52.1442 181.611 52.9192 181.762 52.9192C181.912 52.9192 182.131 53.7646 182.248 54.798C182.365 55.8313 182.596 56.6768 182.76 56.6768C182.924 56.6768 183.058 57.3109 183.058 58.0859C183.058 59.1295 183.18 59.4949 183.529 59.4949C183.899 59.4949 184 59.9299 184 61.5303C184 62.6786 184.137 63.5657 184.314 63.5657C184.489 63.5657 184.628 64.4039 184.628 65.4542C184.628 66.8441 184.752 67.3906 185.099 67.523C185.429 67.6495 185.57 68.1624 185.57 69.2355C185.57 70.3888 185.686 70.7677 186.041 70.7677C186.3 70.7677 186.512 70.979 186.512 71.2374C186.512 71.6448 187.786 71.7071 196.089 71.7071C205.666 71.7071 205.666 71.7071 205.666 70.9242C205.666 70.4937 205.807 70.1414 205.98 70.1414C206.152 70.1414 206.294 69.3814 206.294 68.4527C206.294 67.2406 206.426 66.7133 206.765 66.5836C207.11 66.4515 207.236 65.9085 207.236 64.5483C207.236 63.1883 207.361 62.645 207.706 62.5129C208.053 62.3805 208.177 61.834 208.177 60.4441C208.177 59.3938 208.317 58.5556 208.491 58.5556C208.664 58.5556 208.805 57.841 208.805 56.9677C208.805 55.9735 208.982 55.2038 209.276 54.9098C209.536 54.6514 209.747 53.8865 209.747 53.2101C209.747 52.5334 209.879 51.9798 210.039 51.9798C210.199 51.9798 210.427 51.2048 210.546 50.2576C210.665 49.3104 210.887 48.5354 211.04 48.5354C211.192 48.5354 211.317 47.6799 211.317 46.6343C211.317 45.3618 211.473 44.5777 211.788 44.2633C212.091 43.9611 212.259 43.1874 212.259 42.0939C212.259 41.1589 212.401 40.3939 212.573 40.3939C212.746 40.3939 212.887 39.6189 212.887 38.6717C212.887 37.3497 212.997 36.9495 213.358 36.9495C213.713 36.9495 213.829 36.5697 213.829 35.4098C213.829 34.5412 213.984 33.8188 214.185 33.7521C214.381 33.687 214.644 32.7241 214.77 31.6125C214.896 30.5006 215.021 38.75 215.047 49.9444C215.073 61.1389 215.179 70.6149 215.283 71.0025C219.034 84.9607 226.075 68.9719 226.075 46.4956C226.075 21.2845 226.075 21.2845 215.792 21.3668C205.509 21.4495 205.509 21.4495 205.412 23.3258C205.349 24.5542 205.159 25.2894 204.863 25.4551C204.547 25.631 204.41 26.2733 204.41 27.5712C204.41 28.6045 204.27 29.4343 204.096 29.4343C203.918 29.4343 203.782 30.3214 203.782 31.4697C203.782 33.0701 203.681 33.505 203.311 33.505C202.962 33.505 202.84 33.8705 202.84 34.9141C202.84 35.6891 202.711 36.3232 202.555 36.3232C202.398 36.3232 202.173 37.0278 202.055 37.8889C201.936 38.75 201.711 39.4545 201.554 39.4545C201.398 39.4545 201.27 40.3705 201.27 41.4899C201.27 43.0903 201.169 43.5253 200.799 43.5253C200.428 43.5253 200.328 43.9602 200.328 45.5606C200.328 46.7089 200.191 47.596 200.014 47.596C199.837 47.596 199.7 48.4831 199.7 49.6313C199.7 51.2317 199.599 51.6667 199.229 51.6667C198.891 51.6667 198.758 52.0108 198.758 52.8857C198.758 53.6804 198.594 54.1673 198.287 54.2851C197.954 54.4122 197.816 54.9292 197.816 56.0408C197.816 56.9072 197.674 57.6162 197.502 57.6162C197.325 57.6162 197.188 58.5033 197.188 59.6515C197.188 61.2519 197.087 61.6869 196.717 61.6869C196.347 61.6869 196.246 62.1218 196.246 63.7222C196.246 64.8705 196.109 65.7576 195.932 65.7576C195.759 65.7576 195.618 65.053 195.618 64.1919C195.618 63.3308 195.493 62.6263 195.34 62.6263C195.187 62.6263 194.965 61.8513 194.846 60.904C194.728 59.9568 194.517 59.1818 194.377 59.1818C194.237 59.1818 194.06 58.3091 193.982 57.2426C193.904 56.1542 193.68 55.2498 193.474 55.1813C193.272 55.1139 193.106 54.5071 193.106 53.8326C193.106 53.1578 192.965 52.6061 192.792 52.6061C192.617 52.6061 192.478 51.7678 192.478 50.7176C192.478 49.3276 192.353 48.7812 192.007 48.6487C191.656 48.5144 191.536 47.957 191.536 46.4665C191.536 44.8958 191.434 44.4646 191.065 44.4646C190.703 44.4646 190.594 44.0645 190.594 42.7424C190.594 41.7952 190.47 41.0202 190.318 41.0202C190.166 41.0202 189.978 40.1475 189.901 39.081C189.822 37.9925 189.599 37.0882 189.392 37.0196C189.19 36.9523 189.024 36.3455 189.024 35.671C189.024 34.9965 188.9 34.4444 188.748 34.4444C188.596 34.4444 188.408 33.5717 188.331 32.5052C188.252 31.4168 188.029 30.5125 187.822 30.4439C187.591 30.3672 187.454 29.5702 187.454 28.3124C187.454 26.7352 187.353 26.303 186.983 26.303C186.613 26.303 186.512 25.8681 186.512 24.2677C186.512 23.1194 186.375 22.2323 186.198 22.2323C186.025 22.2323 185.884 22.021 185.884 21.7626C185.884 21.3546 184.523 21.2929 175.522 21.2929C165.16 21.2929 165.16 21.2929 165.16 46.0303ZM0 47.596C0 62.8351 0.107386 70.7677 0.313993 70.7677C0.486689 70.7677 0.627986 70.979 0.627986 71.2374C0.627986 71.5239 0.920942 71.7071 1.37937 71.7071C1.79259 71.7071 2.21208 71.9184 2.31162 72.1768C2.41084 72.4351 2.81652 72.6465 3.21246 72.6465C3.61438 72.6465 4.19338 72.9925 4.52244 73.4293C4.85967 73.8771 5.42894 74.2121 5.85283 74.2121C6.2604 74.2121 6.59386 74.3502 6.59386 74.5193C6.59386 74.6881 6.9471 74.9148 7.37884 75.0228C7.81058 75.1308 8.16382 75.345 8.16382 75.4985C8.16382 75.6522 8.37577 75.7778 8.63481 75.7778C8.89386 75.7778 9.1058 75.9159 9.1058 76.085C9.1058 76.2537 9.45904 76.4804 9.89079 76.5885C10.3225 76.6965 10.6758 76.9107 10.6758 77.0641C10.6758 77.2179 11.029 77.3434 11.4608 77.3434C11.9493 77.3434 12.2457 77.521 12.2457 77.8131C12.2457 78.0715 12.4577 78.2828 12.7167 78.2828C12.9758 78.2828 13.1877 78.4209 13.1877 78.59C13.1877 78.7588 13.541 78.9855 13.9727 79.0935C14.4044 79.2016 14.7577 79.4157 14.7577 79.5692C14.7577 79.7229 15.1109 79.8485 15.5427 79.8485C16.0312 79.8485 16.3276 80.026 16.3276 80.3182C16.3276 80.6047 16.6206 80.7879 17.079 80.7879C17.4922 80.7879 17.9117 80.9992 18.0113 81.2576C18.1105 81.5159 18.5162 81.7273 18.9121 81.7273C19.314 81.7273 19.893 82.0733 20.2221 82.5101C20.5593 82.9579 21.1286 83.2929 21.5525 83.2929C21.9601 83.2929 22.2935 83.431 22.2935 83.6001C22.2935 83.7689 22.6468 83.9956 23.0785 84.1036C23.5102 84.2117 23.8635 84.4258 23.8635 84.5793C23.8635 84.733 24.2167 84.8586 24.6485 84.8586C25.137 84.8586 25.4334 85.0361 25.4334 85.3283C25.4334 85.5866 25.6454 85.798 25.9044 85.798C26.1635 85.798 26.3754 85.9389 26.3754 86.1111C26.3754 86.2833 26.7287 86.4242 27.1604 86.4242C27.649 86.4242 27.9454 86.6018 27.9454 86.8939C27.9454 87.1523 28.1573 87.3636 28.4164 87.3636C28.6754 87.3636 28.8874 87.5017 28.8874 87.6708C28.8874 87.8396 29.2406 88.0663 29.6724 88.1743C30.1041 88.2824 30.4573 88.4965 30.4573 88.65C30.4573 88.8037 30.8106 88.9293 31.2423 88.9293C31.7309 88.9293 32.0273 89.1068 32.0273 89.399C32.0273 89.6636 32.308 89.8687 32.6704 89.8687C33.0239 89.8687 33.6406 90.221 34.0406 90.6515C34.441 91.0821 35.0548 91.4343 35.4052 91.4343C35.7553 91.4343 36.1233 91.6457 36.2229 91.904C36.3221 92.1624 36.6904 92.3737 37.0415 92.3737C37.3922 92.3737 37.6792 92.5146 37.6792 92.6869C37.6792 92.8591 38.1031 93 38.6212 93C39.5631 93 39.5631 93 39.5631 82.3313C39.5631 70.9721 39.5365 70.7677 38.0491 70.7677C37.71 70.7677 37.3511 70.5563 37.2515 70.298C37.1523 70.0396 36.8546 69.8283 36.5899 69.8283C36.3256 69.8283 36.1092 69.6902 36.1092 69.5211C36.1092 69.3523 35.756 69.1256 35.3242 69.0176C34.8925 68.9096 34.5393 68.6954 34.5393 68.5419C34.5393 68.3882 34.186 68.2626 33.7543 68.2626C33.2657 68.2626 32.9693 68.0851 32.9693 67.7929C32.9693 67.5283 32.6886 67.3232 32.3262 67.3232C31.9727 67.3232 31.356 66.971 30.956 66.5404C30.5556 66.1098 29.9267 65.7576 29.5577 65.7576C29.1712 65.7576 28.8874 65.5587 28.8874 65.2879C28.8874 64.9957 28.591 64.8182 28.1024 64.8182C27.6706 64.8182 27.3174 64.6773 27.3174 64.505C27.3174 64.3328 26.9642 64.1919 26.5324 64.1919C26.0439 64.1919 25.7474 64.0144 25.7474 63.7222C25.7474 63.4639 25.5355 63.2525 25.2765 63.2525C25.0174 63.2525 24.8055 63.1144 24.8055 62.9453C24.8055 62.7766 24.4522 62.5499 24.0205 62.4418C23.5887 62.3338 23.2355 62.1196 23.2355 61.9662C23.2355 61.8124 22.8823 61.6869 22.4505 61.6869C21.9619 61.6869 21.6655 61.5093 21.6655 61.2172C21.6655 60.904 21.3515 60.7475 20.7236 60.7475C20.0956 60.7475 19.7816 60.5909 19.7816 60.2778C19.7816 60.0194 19.6403 59.8081 19.4676 59.8081C19.2635 59.8081 19.1536 55.5285 19.1536 47.596C19.1536 36.9495 19.0933 35.3838 18.6826 35.3838C18.4236 35.3838 18.2116 35.1725 18.2116 34.9141C18.2116 34.622 17.9152 34.4444 17.4266 34.4444C16.938 34.4444 16.6416 34.2669 16.6416 33.9747C16.6416 33.7164 16.4297 33.505 16.1706 33.505C15.9116 33.505 15.6997 33.3641 15.6997 33.1919C15.6997 33.0197 15.3464 32.8788 14.9147 32.8788C14.4261 32.8788 14.1297 32.7012 14.1297 32.4091C14.1297 32.1169 13.8333 31.9394 13.3447 31.9394C12.913 31.9394 12.5597 31.8098 12.5597 31.651C12.5597 31.4926 12.166 31.2765 11.6846 31.1713C11.2033 31.0658 10.5477 30.6318 10.2277 30.2068C9.89675 29.7678 9.32623 29.4343 8.90485 29.4343C8.49728 29.4343 8.16382 29.2934 8.16382 29.1212C8.16382 28.949 7.81058 28.8081 7.37884 28.8081C6.89027 28.8081 6.59386 28.6305 6.59386 28.3384C6.59386 28.0462 6.29745 27.8687 5.80887 27.8687C5.3203 27.8687 5.02389 27.6911 5.02389 27.399C5.02389 27.1407 4.81195 26.9293 4.5529 26.9293C4.29386 26.9293 4.08191 26.7884 4.08191 26.6162C4.08191 26.4439 3.72867 26.303 3.29693 26.303C2.80836 26.303 2.51195 26.1255 2.51195 25.8333C2.51195 25.5468 2.21899 25.3636 1.76056 25.3636C1.34734 25.3636 0.92785 25.1523 0.828314 24.8939C0.0970239 22.9929 0 25.6502 0 47.596ZM80.6962 25.0167C80.6962 25.1701 80.343 25.3843 79.9113 25.4923C79.4795 25.6004 79.1263 25.8271 79.1263 25.9958C79.1263 26.1649 78.9143 26.303 78.6553 26.303C78.3962 26.303 78.1843 26.4439 78.1843 26.6162C78.1843 26.7884 77.8973 26.9293 77.5466 26.9293C77.1955 26.9293 76.8272 27.1407 76.728 27.399C76.6285 27.6573 76.209 27.8687 75.7958 27.8687C75.3373 27.8687 75.0444 28.0519 75.0444 28.3384C75.0444 28.6305 74.748 28.8081 74.2594 28.8081C73.8276 28.8081 73.4744 28.949 73.4744 29.1212C73.4744 29.2934 73.2625 29.4343 73.0034 29.4343C72.7444 29.4343 72.5324 29.6457 72.5324 29.904C72.5324 30.1962 72.236 30.3737 71.7474 30.3737C71.3157 30.3737 70.9625 30.4993 70.9625 30.653C70.9625 30.8065 70.5923 31.0247 70.1395 31.1381C69.2371 31.3639 68.4505 32.0183 68.4505 32.5434C68.4505 32.7279 68.0266 32.8788 67.5085 32.8788C66.9904 32.8788 66.5666 33.0197 66.5666 33.1919C66.5666 33.3641 66.2909 33.505 65.9543 33.505C65.6174 33.505 65.2289 33.7008 65.0908 33.94C64.9526 34.1789 64.557 34.4275 64.2116 34.492C63.5977 34.607 63.5817 34.89 63.5017 47.1757C63.4194 59.742 63.4194 59.742 62.6382 59.9374C62.2083 60.0451 61.8567 60.2715 61.8567 60.4403C61.8567 60.6094 61.5034 60.7475 61.0717 60.7475C60.5831 60.7475 60.2867 60.925 60.2867 61.2172C60.2867 61.5093 59.9903 61.6869 59.5017 61.6869C59.07 61.6869 58.7167 61.8278 58.7167 62C58.7167 62.1722 58.5004 62.3131 58.236 62.3131C57.9713 62.3131 57.6736 62.5245 57.5744 62.7828C57.4749 63.0412 57.0554 63.2525 56.6422 63.2525C56.1837 63.2525 55.8908 63.4357 55.8908 63.7222C55.8908 64.0144 55.5944 64.1919 55.1058 64.1919C54.6741 64.1919 54.3208 64.3175 54.3208 64.4712C54.3208 64.6247 53.9676 64.8388 53.5358 64.9469C53.1041 65.0549 52.7509 65.2816 52.7509 65.4504C52.7509 65.6195 52.5389 65.7576 52.2799 65.7576C52.0208 65.7576 51.8089 65.8957 51.8089 66.0648C51.8089 66.2335 51.4556 66.4602 51.0239 66.5683C50.5922 66.6763 50.2389 66.8751 50.2389 67.0101C50.2389 67.1451 49.8857 67.3439 49.4539 67.4519C49.0222 67.56 48.6689 67.7867 48.6689 67.9554C48.6689 68.1245 48.457 68.2626 48.198 68.2626C47.9389 68.2626 47.727 68.4035 47.727 68.5758C47.727 68.748 47.3737 68.8889 46.942 68.8889C46.4534 68.8889 46.157 69.0664 46.157 69.3586C46.157 69.6507 45.8606 69.8283 45.372 69.8283C44.8834 69.8283 44.587 70.0058 44.587 70.298C44.587 70.5901 44.2906 70.7677 43.802 70.7677C43.3703 70.7677 43.0171 70.9086 43.0171 71.0808C43.0171 71.253 42.8215 71.3939 42.5828 71.3939C41.8465 71.3939 41.7699 72.4755 41.7655 82.9015C41.7611 93 41.7611 93 42.8601 93C43.4645 93 43.959 92.8591 43.959 92.6869C43.959 92.5146 44.3123 92.3737 44.744 92.3737C45.2326 92.3737 45.529 92.1962 45.529 91.904C45.529 91.6332 45.8129 91.4343 46.1994 91.4343C46.5683 91.4343 47.1973 91.0821 47.5976 90.6515C47.9976 90.221 48.6143 89.8687 48.9679 89.8687C49.3302 89.8687 49.6109 89.6636 49.6109 89.399C49.6109 89.1068 49.9073 88.9293 50.3959 88.9293C50.8276 88.9293 51.1809 88.8037 51.1809 88.65C51.1809 88.4965 51.5341 88.2824 51.9659 88.1743C52.3976 88.0663 52.7509 87.8396 52.7509 87.6708C52.7509 87.5017 53.1041 87.3636 53.5358 87.3636C54.0244 87.3636 54.3208 87.1861 54.3208 86.8939C54.3208 86.6356 54.5328 86.4242 54.7918 86.4242C55.0509 86.4242 55.2628 86.2833 55.2628 86.1111C55.2628 85.9389 55.616 85.798 56.0478 85.798C56.5364 85.798 56.8328 85.6204 56.8328 85.3283C56.8328 85.0361 57.1292 84.8586 57.6177 84.8586C58.0495 84.8586 58.4027 84.7177 58.4027 84.5455C58.4027 84.3732 58.6191 84.2323 58.8835 84.2323C59.1482 84.2323 59.4458 84.021 59.545 83.7626C59.6446 83.5043 60.0641 83.2929 60.4773 83.2929C60.9357 83.2929 61.2287 83.1097 61.2287 82.8232C61.2287 82.5524 61.5125 82.3535 61.899 82.3535C62.268 82.3535 62.8969 82.0013 63.2973 81.5707C63.6973 81.1401 64.314 80.7879 64.6675 80.7879C65.0299 80.7879 65.3106 80.5828 65.3106 80.3182C65.3106 80.026 65.607 79.8485 66.0956 79.8485C66.5273 79.8485 66.8805 79.7076 66.8805 79.5354C66.8805 79.3631 67.2338 79.2222 67.6655 79.2222C68.1541 79.2222 68.4505 79.0447 68.4505 78.7525C68.4505 78.4942 68.6625 78.2828 68.9215 78.2828C69.1805 78.2828 69.3925 78.0715 69.3925 77.8131C69.3925 77.521 69.6889 77.3434 70.1775 77.3434C70.6092 77.3434 70.9625 77.2025 70.9625 77.0303C70.9625 76.8581 71.3157 76.7172 71.7474 76.7172C72.236 76.7172 72.5324 76.5396 72.5324 76.2475C72.5324 75.9722 72.8248 75.7737 73.2389 75.7678C74.0487 75.7565 75.0444 75.0955 75.0444 74.5691C75.0444 74.3728 75.4683 74.2121 75.9864 74.2121C76.6143 74.2121 76.9283 74.0556 76.9283 73.7424C76.9283 73.4503 77.2247 73.2727 77.7133 73.2727C78.1451 73.2727 78.4983 73.1472 78.4983 72.9934C78.4983 72.84 78.8515 72.6258 79.2833 72.5178C79.715 72.4097 80.0683 72.183 80.0683 72.0143C80.0683 71.8452 80.2802 71.7071 80.5393 71.7071C80.7983 71.7071 81.0102 71.4957 81.0102 71.2374C81.0102 70.979 81.1616 70.7677 81.3465 70.7677C82.5818 70.7677 82.5802 70.7977 82.5802 47.3051C82.5802 24.7374 82.5802 24.7374 81.6382 24.7374C81.1201 24.7374 80.6962 24.8629 80.6962 25.0167ZM270.27 26.8958C269.812 27.3583 269.72 28.0384 269.72 30.948C269.72 34.4444 269.72 34.4444 267.402 34.4444C264.614 34.4444 264.707 34.2747 264.701 39.3763C264.696 42.899 264.696 42.899 267.208 42.899C269.72 42.899 269.72 42.899 269.72 54.0151C269.72 63.6875 269.781 65.1313 270.191 65.1313C270.531 65.1313 270.662 65.4792 270.662 66.3838C270.662 67.0727 270.803 67.6364 270.976 67.6364C271.149 67.6364 271.29 67.8477 271.29 68.1061C271.29 68.3644 271.441 68.5758 271.626 68.5758C272.061 68.5758 272.86 69.3724 272.86 69.806C272.86 69.9905 273.072 70.1414 273.331 70.1414C273.59 70.1414 273.802 70.2823 273.802 70.4545C273.802 70.6268 274.367 70.7677 275.058 70.7677C275.965 70.7677 276.314 70.8983 276.314 71.2374C276.314 72.1433 287.803 71.9131 288.048 71.0025C289.144 66.9249 288.215 64.1919 285.734 64.1919C283.71 64.1919 283.222 64.1005 283.222 63.7222C283.222 63.4614 282.943 63.2525 282.594 63.2525C280.781 63.2525 280.71 62.8464 280.71 52.4495C280.71 42.899 280.71 42.899 284.801 42.899C291.203 42.899 291.117 34.6536 284.713 34.5133C280.71 34.4257 280.71 34.4257 280.71 30.8597C280.71 28.8983 280.624 27.0708 280.519 26.7984C280.218 26.0149 271.054 26.1023 270.27 26.8958ZM37.0512 32.4091C37.0512 32.7482 36.7023 32.8788 35.7952 32.8788C35.1044 32.8788 34.5393 33.0197 34.5393 33.1919C34.5393 33.3641 34.3273 33.505 34.0683 33.505C33.8092 33.505 33.5973 33.7164 33.5973 33.9747C33.5973 34.2669 33.3009 34.4444 32.8123 34.4444C32.3237 34.4444 32.0273 34.622 32.0273 34.9141C32.0273 35.1725 31.876 35.3838 31.691 35.3838C31.5058 35.3838 31.1525 35.5852 30.906 35.8313C30.6592 36.0771 30.4573 36.4294 30.4573 36.6141C30.4573 36.7986 30.2454 36.9495 29.9863 36.9495C29.7273 36.9495 29.5154 37.1609 29.5154 37.4192C29.5154 37.6775 29.3769 37.8889 29.2073 37.8889C29.0381 37.8889 28.8108 38.2412 28.7024 38.6717C28.5941 39.1023 28.3793 39.4545 28.2255 39.4545C28.0713 39.4545 27.9454 39.8068 27.9454 40.2374C27.9454 40.6679 27.8057 41.0202 27.6352 41.0202C27.4644 41.0202 27.2345 41.5838 27.124 42.2727C27.0135 42.9616 26.7999 43.5253 26.6492 43.5253C26.4985 43.5253 26.3754 44.6525 26.3754 46.0303C26.3754 47.4917 26.5064 48.5354 26.6894 48.5354C26.8621 48.5354 27.0034 49.099 27.0034 49.7879C27.0034 50.6925 27.1343 51.0404 27.4744 51.0404C27.8145 51.0404 27.9454 51.3883 27.9454 52.2929C27.9454 52.9818 28.0867 53.5455 28.2594 53.5455C28.4321 53.5455 28.5734 53.7568 28.5734 54.0151C28.5734 54.2735 28.7853 54.4848 29.0444 54.4848C29.3373 54.4848 29.5154 54.7804 29.5154 55.2677C29.5154 55.6982 29.6758 56.0505 29.8717 56.0505C30.068 56.0505 30.5556 56.4028 30.956 56.8333C31.356 57.2639 31.9727 57.6162 32.3262 57.6162C32.6801 57.6162 32.9693 57.7555 32.9693 57.9258C32.9693 58.4757 34.0343 59.4949 34.609 59.4949C34.916 59.4949 35.1672 59.6359 35.1672 59.8081C35.1672 59.9803 35.9444 60.1212 36.8942 60.1212C38.2199 60.1212 38.6212 60.2302 38.6212 60.5909C38.6212 60.9692 39.1097 61.0606 41.1331 61.0606C43.1565 61.0606 43.6451 60.9692 43.6451 60.5909C43.6451 60.2302 44.0463 60.1212 45.372 60.1212C46.3218 60.1212 47.099 59.9956 47.099 59.8419C47.099 59.6885 47.4522 59.4743 47.884 59.3663C48.3157 59.2582 48.6689 59.0315 48.6689 58.8627C48.6689 58.6936 48.8809 58.5556 49.1399 58.5556C49.399 58.5556 49.6109 58.3442 49.6109 58.0859C49.6109 57.8275 49.7623 57.6162 49.9472 57.6162C50.3821 57.6162 51.1809 56.8196 51.1809 56.3859C51.1809 56.2014 51.3332 56.0505 51.5191 56.0505C52.0962 56.0505 53.6928 54.2528 53.6928 53.6031C53.6928 53.2636 53.9048 52.9051 54.1638 52.8058C54.4229 52.7069 54.6348 52.2691 54.6348 51.8329C54.6348 51.3971 54.7761 51.0404 54.9488 51.0404C55.1438 51.0404 55.2628 49.3182 55.2628 46.5C55.2628 43.6818 55.1438 41.9596 54.9488 41.9596C54.7761 41.9596 54.6348 41.5469 54.6348 41.0424C54.6348 40.5383 54.4229 39.9142 54.1638 39.6559C53.9048 39.3976 53.6928 39.0353 53.6928 38.8505C53.6928 38.6661 53.561 38.5152 53.3999 38.5152C53.2388 38.5152 53.008 38.2036 52.8868 37.8228C52.6331 37.0256 51.0782 35.3838 50.5771 35.3838C50.3912 35.3838 50.2389 35.1725 50.2389 34.9141C50.2389 34.622 49.9425 34.4444 49.4539 34.4444C48.9654 34.4444 48.6689 34.2669 48.6689 33.9747C48.6689 33.6826 48.3725 33.505 47.884 33.505C47.4522 33.505 47.099 33.3641 47.099 33.1919C47.099 33.0197 46.7357 32.8788 46.2917 32.8788C45.8474 32.8788 45.2722 32.6674 45.0131 32.4091C44.647 32.044 43.7072 31.9394 40.7968 31.9394C37.6767 31.9394 37.0512 32.0177 37.0512 32.4091ZM245.621 33.7296C245.233 33.8022 244.915 33.9929 244.915 34.1532C244.915 34.3132 243.996 34.4444 242.874 34.4444C241.269 34.4444 240.833 34.545 240.833 34.9141C240.833 35.2423 240.501 35.3838 239.734 35.3838C239.129 35.3838 238.635 35.5247 238.635 35.697C238.635 35.8692 238.362 36.0101 238.029 36.0101C237.696 36.0101 237.212 36.2215 236.953 36.4798C236.694 36.7381 236.391 36.9495 236.28 36.9495C235.954 36.9495 235.181 37.8147 235.181 38.1798C235.181 38.3642 234.969 38.5152 234.71 38.5152C234.451 38.5152 234.239 38.7265 234.239 38.9848C234.239 39.2432 234.088 39.4545 233.903 39.4545C233.303 39.4545 232.669 40.3288 232.669 41.1545C232.669 41.6615 232.494 41.9596 232.198 41.9596C231.872 41.9596 231.727 42.2865 231.727 43.0221C231.727 43.6777 231.547 44.1534 231.256 44.2649C228.195 45.4363 231.043 46.9697 236.28 46.9697C241.775 46.9697 241.775 46.9697 241.775 45.7172C241.775 44.8125 241.906 44.4646 242.246 44.4646C242.505 44.4646 242.717 44.3137 242.717 44.1293C242.717 43.5735 243.571 42.899 244.274 42.899C244.637 42.899 245.016 42.6876 245.115 42.4293C245.25 42.0795 245.809 41.9596 247.303 41.9596C248.878 41.9596 249.311 42.0607 249.311 42.4293C249.311 42.6958 249.592 42.899 249.961 42.899C250.656 42.899 251.509 43.5766 251.509 44.1293C251.509 44.3137 251.72 44.4646 251.98 44.4646C252.335 44.4646 252.451 44.8473 252.451 46.0303C252.451 47.2133 252.335 47.596 251.98 47.596C251.72 47.596 251.509 47.8073 251.509 48.0657C251.509 48.4558 250.898 48.5354 247.898 48.5354C245.912 48.5354 244.287 48.6609 244.287 48.8144C244.287 48.9678 243.202 49.1478 241.876 49.2145C240.352 49.2913 239.419 49.4766 239.338 49.7184C239.267 49.9329 238.67 50.101 237.981 50.101C237.097 50.101 236.751 50.2331 236.751 50.5707C236.751 50.829 236.539 51.0404 236.28 51.0404C236.021 51.0404 235.809 51.1813 235.809 51.3535C235.809 51.5258 235.456 51.6667 235.024 51.6667C234.535 51.6667 234.239 51.8442 234.239 52.1364C234.239 52.4285 233.943 52.6061 233.454 52.6061C232.965 52.6061 232.669 52.7836 232.669 53.0758C232.669 53.3341 232.457 53.5455 232.198 53.5455C231.905 53.5455 231.727 53.841 231.727 54.3283C231.727 54.8155 231.549 55.1111 231.256 55.1111C230.963 55.1111 230.785 55.4067 230.785 55.8939C230.785 56.3245 230.644 56.6768 230.471 56.6768C230.298 56.6768 230.157 57.0391 230.157 57.4818C230.157 57.9249 229.945 58.4986 229.686 58.7569C229.412 59.0306 229.215 59.7956 229.215 60.5909C229.215 61.3863 229.412 62.1512 229.686 62.4249C229.945 62.6832 230.157 63.3978 230.157 64.0131C230.157 64.6281 230.283 65.1313 230.437 65.1313C230.591 65.1313 230.806 65.4836 230.914 65.9141C231.022 66.3447 231.25 66.697 231.419 66.697C231.588 66.697 231.727 66.9083 231.727 67.1667C231.727 67.425 231.939 67.6364 232.198 67.6364C232.457 67.6364 232.669 67.7873 232.669 67.9717C232.669 68.4054 233.468 69.202 233.903 69.202C234.088 69.202 234.239 69.4134 234.239 69.6717C234.239 69.93 234.451 70.1414 234.71 70.1414C234.969 70.1414 235.181 70.2823 235.181 70.4545C235.181 70.6268 235.534 70.7677 235.966 70.7677C236.454 70.7677 236.751 70.9452 236.751 71.2374C236.751 71.5909 237.131 71.7071 238.287 71.7071C239.363 71.7071 239.878 71.8477 240.004 72.1768C240.143 72.5369 240.739 72.6465 242.56 72.6465C244.381 72.6465 244.977 72.5369 245.115 72.1768C245.242 71.8477 245.756 71.7071 246.832 71.7071C247.989 71.7071 248.369 71.5909 248.369 71.2374C248.369 70.9665 248.652 70.7677 249.039 70.7677C249.408 70.7677 250.037 70.4154 250.437 69.9848C250.837 69.5543 251.313 69.202 251.493 69.202C251.675 69.202 251.823 68.8497 251.823 68.4192C251.823 67.9482 252.002 67.6364 252.273 67.6364C252.523 67.6364 252.781 67.2534 252.854 66.7753C252.926 66.3018 253.006 67.2174 253.031 68.8106C253.079 71.7071 253.079 71.7071 258.259 71.7071C263.44 71.7071 263.44 71.7071 263.44 58.0859C263.44 46.1869 263.381 44.4646 262.969 44.4646C262.629 44.4646 262.498 44.1168 262.498 43.2121C262.498 42.3075 262.367 41.9596 262.027 41.9596C261.734 41.9596 261.556 41.664 261.556 41.1768C261.556 40.7462 261.415 40.3939 261.242 40.3939C261.07 40.3939 260.928 40.1826 260.928 39.9242C260.928 39.6659 260.716 39.4545 260.457 39.4545C260.198 39.4545 259.986 39.3027 259.986 39.1173C259.986 38.6792 258.252 36.9495 257.813 36.9495C257.627 36.9495 257.474 36.7381 257.474 36.4798C257.474 36.1876 257.178 36.0101 256.689 36.0101C256.258 36.0101 255.904 35.8692 255.904 35.697C255.904 35.5247 255.481 35.3838 254.962 35.3838C254.334 35.3838 254.02 35.2273 254.02 34.9141C254.02 34.5456 253.587 34.4444 252.006 34.4444C250.898 34.4444 249.944 34.3248 249.886 34.1789C249.763 33.8667 246.644 33.5382 245.621 33.7296ZM310.775 33.7136C310.473 33.7966 310.225 33.9948 310.225 34.1542C310.225 34.3139 309.726 34.4444 309.117 34.4444C308.42 34.4444 307.94 34.6195 307.827 34.9141C307.727 35.1725 307.449 35.3838 307.209 35.3838C306.968 35.3838 306.771 35.5247 306.771 35.697C306.771 35.8692 306.418 36.0101 305.986 36.0101C305.498 36.0101 305.201 36.1876 305.201 36.4798C305.201 36.7381 304.989 36.9495 304.73 36.9495C304.471 36.9495 304.259 37.1609 304.259 37.4192C304.259 37.6775 304.118 37.8889 303.945 37.8889C303.773 37.8889 303.631 38.2412 303.631 38.6717C303.631 39.1023 303.49 39.4545 303.317 39.4545C303.145 39.4545 303.002 38.6442 302.999 37.654C302.991 34.2397 303.324 34.4444 297.786 34.4444C293.702 34.4444 292.956 34.5171 292.956 34.9141C292.956 35.1725 292.742 35.3838 292.482 35.3838C292.065 35.3838 292.018 37.5228 292.09 53.4672C292.171 71.5505 292.171 71.5505 297.587 71.6363C303.003 71.7218 303.003 71.7218 303.003 60.5984C303.003 53.48 303.115 49.4747 303.314 49.4747C303.484 49.4747 303.714 48.9111 303.825 48.2222C303.935 47.5333 304.149 46.9697 304.3 46.9697C304.45 46.9697 304.573 46.6174 304.573 46.1869C304.573 45.5606 304.73 45.404 305.358 45.404C305.847 45.404 306.143 45.2265 306.143 44.9343C306.143 44.5429 306.772 44.4646 309.919 44.4646C313.694 44.4646 313.694 44.4646 313.608 39.0631C313.516 33.2783 313.371 33.0034 310.775 33.7136ZM316.819 53.0758C316.819 71.7071 316.819 71.7071 321.843 71.7071C326.1 71.7071 326.867 71.6354 326.867 71.2374C326.867 70.979 327.008 70.7677 327.181 70.7677C327.387 70.7677 327.495 64.6616 327.495 53.0758C327.495 41.4899 327.387 35.3838 327.181 35.3838C327.008 35.3838 326.867 35.1725 326.867 34.9141C326.867 34.5162 326.1 34.4444 321.843 34.4444C316.819 34.4444 316.819 34.4444 316.819 53.0758ZM330.835 35.1421C330.554 36.1858 330.586 36.3232 331.106 36.3232C331.399 36.3232 331.577 36.6188 331.577 37.1061C331.577 37.5933 331.755 37.8889 332.048 37.8889C332.307 37.8889 332.519 38.1003 332.519 38.3586C332.519 38.6169 332.657 38.8283 332.827 38.8283C332.996 38.8283 333.223 39.1806 333.332 39.6111C333.44 40.0417 333.655 40.3939 333.809 40.3939C333.963 40.3939 334.089 40.6053 334.089 40.8636C334.089 41.122 334.24 41.3333 334.425 41.3333C334.904 41.3333 335.539 42.0291 335.795 42.8354C335.916 43.2146 336.147 43.5253 336.308 43.5253C336.469 43.5253 336.601 43.7366 336.601 43.9949C336.601 44.2533 336.742 44.4646 336.915 44.4646C337.087 44.4646 337.229 44.676 337.229 44.9343C337.229 45.1927 337.441 45.404 337.7 45.404C337.993 45.404 338.171 45.6996 338.171 46.1869C338.171 46.6741 338.349 46.9697 338.642 46.9697C338.901 46.9697 339.113 47.1297 339.113 47.3251C339.113 47.5208 339.466 48.0071 339.898 48.4063C340.329 48.8053 340.683 49.4203 340.683 49.7728C340.683 50.1257 340.834 50.4141 341.019 50.4141C342.285 50.4141 342.59 52.2046 341.468 53.0454C341.036 53.3685 340.683 53.7603 340.683 53.9156C340.683 54.1824 340.418 54.5547 339.505 55.5692C339.289 55.8094 339.113 56.1567 339.113 56.3414C339.113 56.5258 338.901 56.6768 338.642 56.6768C338.349 56.6768 338.171 56.9724 338.171 57.4596C338.171 57.9468 337.993 58.2424 337.7 58.2424C337.441 58.2424 337.229 58.4538 337.229 58.7121C337.229 58.9705 337.087 59.1818 336.915 59.1818C336.742 59.1818 336.601 59.3932 336.601 59.6515C336.601 59.9098 336.469 60.1212 336.308 60.1212C336.147 60.1212 335.917 60.4293 335.797 60.806C335.677 61.1824 335.122 61.9223 334.564 62.45C334.005 62.9773 333.449 63.726 333.326 64.1136C333.204 64.5013 332.973 64.8182 332.812 64.8182C332.651 64.8182 332.519 65.0295 332.519 65.2879C332.519 65.5462 332.387 65.7576 332.226 65.7576C332.065 65.7576 331.836 66.0613 331.718 66.4327C331.6 66.8041 331.167 67.419 330.755 67.7995C330.343 68.1796 330.007 68.5905 330.007 68.7123C330.007 68.8341 329.795 69.145 329.536 69.4034C329.277 69.6617 329.065 70.2858 329.065 70.7899C329.065 72.1357 340.474 72.266 340.812 70.9242C340.92 70.4937 341.147 70.1414 341.317 70.1414C341.486 70.1414 341.625 69.93 341.625 69.6717C341.625 69.4134 341.837 69.202 342.096 69.202C342.389 69.202 342.567 68.9064 342.567 68.4192C342.567 67.932 342.745 67.6364 343.038 67.6364C343.297 67.6364 343.509 67.425 343.509 67.1667C343.509 66.9083 343.65 66.697 343.823 66.697C343.995 66.697 344.137 66.3447 344.137 65.9141C344.137 65.4269 344.315 65.1313 344.608 65.1313C344.867 65.1313 345.079 64.9199 345.079 64.6616C345.079 64.4033 345.217 64.1919 345.387 64.1919C345.556 64.1919 345.783 63.8396 345.891 63.4091C346 62.9785 346.215 62.6263 346.368 62.6263C346.523 62.6263 346.648 62.4149 346.648 62.1566C346.648 61.8982 346.86 61.6869 347.119 61.6869C347.387 61.6869 347.59 61.406 347.59 61.0384C347.59 60.2389 348.574 59.1493 348.769 59.7326C348.84 59.9465 349.099 60.1212 349.343 60.1212C349.609 60.1212 349.788 60.4375 349.788 60.904C349.788 61.3346 349.93 61.6869 350.102 61.6869C350.275 61.6869 350.416 61.8982 350.416 62.1566C350.416 62.4149 350.628 62.6263 350.887 62.6263C351.18 62.6263 351.358 62.9219 351.358 63.4091C351.358 63.8963 351.536 64.1919 351.829 64.1919C352.088 64.1919 352.3 64.4033 352.3 64.6616C352.3 64.9199 352.442 65.1313 352.614 65.1313C352.787 65.1313 352.928 65.4836 352.928 65.9141C352.928 66.4014 353.106 66.697 353.399 66.697C353.658 66.697 353.87 66.9083 353.87 67.1667C353.87 67.425 354.082 67.6364 354.341 67.6364C354.613 67.6364 354.812 67.9194 354.812 68.3049C354.812 68.6728 355.166 69.3 355.597 69.6993C356.029 70.0982 356.382 70.7132 356.382 71.0658C356.382 71.6889 356.546 71.7071 362.191 71.7071C368 71.7071 368 71.7071 368 70.7677C368 70.251 367.859 69.8283 367.686 69.8283C367.513 69.8283 367.372 69.476 367.372 69.0455C367.372 68.5582 367.194 68.2626 366.901 68.2626C366.642 68.2626 366.43 68.0513 366.43 67.7929C366.43 67.5346 366.292 67.3232 366.122 67.3232C365.953 67.3232 365.725 66.971 365.617 66.5404C365.509 66.1098 365.294 65.7576 365.14 65.7576C364.986 65.7576 364.86 65.5462 364.86 65.2879C364.86 65.0295 364.709 64.8182 364.524 64.8182C363.984 64.8182 363.29 63.9752 363.29 63.3189C363.29 62.9861 362.937 62.4493 362.505 62.1262C362.073 61.8027 361.72 61.3603 361.72 61.143C361.72 60.9253 361.508 60.7475 361.249 60.7475C360.956 60.7475 360.778 60.4519 360.778 59.9646C360.778 59.4774 360.6 59.1818 360.307 59.1818C360.048 59.1818 359.836 58.9705 359.836 58.7121C359.836 58.4538 359.695 58.2424 359.522 58.2424C359.35 58.2424 359.208 57.9562 359.208 57.6065C359.208 57.2564 358.996 56.8891 358.737 56.7901C358.478 56.6909 358.266 56.4134 358.266 56.1736C358.266 55.9337 358.115 55.7374 357.93 55.7374C357.376 55.7374 356.696 54.8872 356.696 54.1939C356.696 53.8263 356.492 53.5455 356.225 53.5455C355.966 53.5455 355.754 53.3341 355.754 53.0758C355.754 52.8174 355.542 52.6061 355.283 52.6061C354.99 52.6061 354.812 52.3105 354.812 51.8232C354.812 51.3927 354.964 51.0404 355.149 51.0404C355.628 51.0404 356.262 50.3446 356.519 49.5383C356.64 49.1591 356.87 48.8485 357.031 48.8485C357.192 48.8485 357.324 48.6371 357.324 48.3788C357.324 48.1205 357.536 47.9091 357.795 47.9091C358.054 47.9091 358.266 47.6977 358.266 47.4394C358.266 47.1811 358.405 46.9697 358.574 46.9697C358.743 46.9697 358.971 46.6174 359.079 46.1869C359.187 45.7563 359.402 45.404 359.556 45.404C359.71 45.404 359.836 45.1927 359.836 44.9343C359.836 44.676 360.048 44.4646 360.307 44.4646C360.6 44.4646 360.778 44.169 360.778 43.6818C360.778 43.1946 360.956 42.899 361.249 42.899C361.508 42.899 361.72 42.7393 361.72 42.5442C361.72 42.3491 361.983 41.9618 362.303 41.6831C362.624 41.4047 362.987 40.8599 363.109 40.4722C363.232 40.0846 363.464 39.7677 363.625 39.7677C363.786 39.7677 363.918 39.5563 363.918 39.298C363.918 39.0396 364.13 38.8283 364.389 38.8283C364.648 38.8283 364.86 38.6169 364.86 38.3586C364.86 38.1003 364.999 37.8889 365.168 37.8889C365.337 37.8889 365.565 37.5366 365.673 37.1061C365.781 36.6755 365.996 36.3232 366.15 36.3232C366.304 36.3232 366.43 35.9005 366.43 35.3838C366.43 34.4444 366.43 34.4444 360.621 34.4444C354.812 34.4444 354.812 34.4444 354.812 35.2273C354.812 35.7145 354.634 36.0101 354.341 36.0101C354.082 36.0101 353.87 36.2215 353.87 36.4798C353.87 36.7381 353.658 36.9495 353.399 36.9495C353.14 36.9495 352.928 37.1609 352.928 37.4192C352.928 37.6775 352.787 37.8889 352.614 37.8889C352.442 37.8889 352.3 38.2412 352.3 38.6717C352.3 39.1589 352.122 39.4545 351.829 39.4545C351.536 39.4545 351.358 39.7501 351.358 40.2374C351.358 40.7246 351.18 41.0202 350.887 41.0202C350.628 41.0202 350.416 41.1981 350.416 41.4157C350.416 41.633 350.063 42.0755 349.631 42.3989C349.2 42.7221 348.846 43.2488 348.846 43.5691C348.846 43.8894 348.766 44.1515 348.667 44.1515C348.249 44.1515 347.59 43.2074 347.59 42.6081C347.59 42.2405 347.387 41.9596 347.119 41.9596C346.854 41.9596 346.648 41.6797 346.648 41.3183C346.648 40.9657 346.295 40.3507 345.863 39.9518C345.432 39.5526 345.079 39.0663 345.079 38.8706C345.079 38.6752 344.867 38.5152 344.608 38.5152C344.315 38.5152 344.137 38.2196 344.137 37.7323C344.137 37.3018 343.995 36.9495 343.823 36.9495C343.65 36.9495 343.509 36.7381 343.509 36.4798C343.509 36.2215 343.306 36.0101 343.06 36.0101C342.812 36.0101 342.565 35.6929 342.51 35.3056C342.351 34.1855 331.134 34.0283 330.835 35.1421ZM126.225 42.4293C126.225 42.7214 126.522 42.899 127.01 42.899C127.499 42.899 127.795 43.0765 127.795 43.3687C127.795 43.627 127.947 43.8384 128.132 43.8384C128.611 43.8384 129.245 44.5342 129.502 45.3405C129.623 45.7197 129.853 46.0303 130.014 46.0303C130.175 46.0303 130.307 46.453 130.307 46.9697C130.307 47.4864 130.432 47.9091 130.586 47.9091C130.739 47.9091 130.922 48.9208 130.992 50.1577C131.07 51.5348 131.266 52.4551 131.498 52.5322C131.991 52.6962 131.988 53.4565 131.493 53.6209C131.251 53.7014 131.065 54.6317 130.988 56.152C130.921 57.474 130.741 58.5556 130.587 58.5556C130.433 58.5556 130.307 59.0487 130.307 59.6515C130.307 60.4168 130.165 60.7475 129.836 60.7475C129.577 60.7475 129.365 60.9588 129.365 61.2172C129.365 61.4755 129.224 61.6869 129.051 61.6869C128.879 61.6869 128.737 61.8982 128.737 62.1566C128.737 62.4149 128.525 62.6263 128.266 62.6263C128.007 62.6263 127.795 62.7672 127.795 62.9394C127.795 63.1116 127.583 63.2525 127.324 63.2525C127.065 63.2525 126.853 63.4639 126.853 63.7222C126.853 64.1083 126.295 64.1919 123.713 64.1919C121.132 64.1919 120.573 64.1083 120.573 63.7222C120.573 63.4639 120.361 63.2525 120.102 63.2525C119.843 63.2525 119.631 63.1057 119.631 62.9262C119.631 62.6191 119.386 62.2649 118.454 61.2288C118.238 60.9886 118.061 60.5086 118.061 60.1619C118.061 59.8156 117.939 59.4561 117.789 59.3637C117.639 59.2714 117.425 58.6288 117.314 57.9362C117.203 57.2435 116.973 56.6768 116.802 56.6768C116.616 56.6768 116.491 55.2389 116.491 53.0758C116.491 50.9126 116.616 49.4747 116.802 49.4747C116.973 49.4747 117.202 48.9111 117.313 48.2222C117.423 47.5333 117.637 46.9697 117.788 46.9697C117.938 46.9697 118.061 46.6174 118.061 46.1869C118.061 45.7563 118.187 45.404 118.342 45.404C118.495 45.404 118.71 45.0518 118.818 44.6212C118.927 44.1907 119.154 43.8384 119.323 43.8384C119.493 43.8384 119.631 43.627 119.631 43.3687C119.631 43.0399 119.964 42.899 120.74 42.899C121.436 42.899 121.916 42.7239 122.03 42.4293C122.164 42.0795 122.723 41.9596 124.218 41.9596C125.793 41.9596 126.225 42.0607 126.225 42.4293ZM146.007 52.2929C146.007 56.0505 146.007 56.0505 153.857 56.0505C161.706 56.0505 161.706 56.0505 161.706 52.2929C161.706 48.5354 161.706 48.5354 153.857 48.5354C146.007 48.5354 146.007 48.5354 146.007 52.2929ZM252.451 57.5827C252.451 59.2125 252.335 59.7852 251.98 59.9214C251.72 60.0204 251.509 60.4581 251.509 60.8943C251.509 61.3302 251.357 61.6869 251.172 61.6869C250.737 61.6869 249.939 62.4835 249.939 62.9172C249.939 63.1016 249.727 63.2525 249.468 63.2525C249.209 63.2525 248.997 63.4639 248.997 63.7222C248.997 64.1083 248.438 64.1919 245.857 64.1919C243.275 64.1919 242.717 64.1083 242.717 63.7222C242.717 63.4639 242.505 63.2525 242.246 63.2525C241.987 63.2525 241.775 63.0412 241.775 62.7828C241.775 62.5245 241.633 62.3131 241.461 62.3131C241.286 62.3131 241.147 61.478 241.147 60.4343C241.147 59.3907 241.286 58.5556 241.461 58.5556C241.633 58.5556 241.775 58.3442 241.775 58.0859C241.775 57.8275 241.987 57.6162 242.246 57.6162C242.505 57.6162 242.717 57.4753 242.717 57.303C242.717 57.1308 243.07 56.9899 243.502 56.9899C243.99 56.9899 244.287 56.8124 244.287 56.5202C244.287 56.13 244.897 56.0505 247.898 56.0505C250.096 56.0505 251.509 55.9281 251.509 55.7374C251.509 55.5651 251.72 55.4242 251.98 55.4242C252.353 55.4242 252.451 55.873 252.451 57.5827Z" fill="white"/>
</svg>
