<svg width="589" height="212" viewBox="0 0 589 212" fill="none" xmlns="http://www.w3.org/2000/svg">
<g clip-path="url(#clip0_863_49)">
<path d="M575.66 0.996282C582.415 0.996282 587.911 6.4912 587.911 13.2454V43.5958C587.911 50.3499 582.415 55.8448 575.66 55.8448H359.79C353.034 55.8448 347.538 50.3499 347.538 43.5958V13.2455C347.538 6.4912 353.034 0.996302 359.79 0.996302L575.66 0.996282ZM575.66 0H359.79C352.473 0 346.542 5.93019 346.542 13.2455V43.5958C346.542 50.911 352.473 56.8411 359.79 56.8411H575.66C582.977 56.8411 588.908 50.911 588.908 43.5958V13.2455C588.908 5.93017 582.977 0 575.66 0Z" fill="white"/>
<path d="M388.924 42.9385H386.326L370.451 26.2068V42.9385H364.206V13.9248H366.636L366.764 14.0693L382.689 30.844V13.9248H388.924V42.9385Z" fill="white"/>
<path d="M408.371 13.9023H402.151V42.9385H408.371V13.9023Z" fill="white"/>
<path d="M484.33 42.9385H481.734L465.857 26.2068V42.9385H459.614V13.9248H462.036L478.098 30.844V13.9248H484.33V42.9385Z" fill="white"/>
<path d="M520.019 20.1068H511.133V42.9385H504.895V20.1068H496.017V13.9248H520.019V20.1068Z" fill="white"/>
<path d="M538.076 13.9023H531.861V42.9385H538.076V13.9023Z" fill="white"/>
<path d="M573.354 39.0786C570.364 41.8195 567.653 42.9375 563.995 42.9375C560.127 42.9229 556.827 41.5187 554.19 38.7641C551.565 36.0066 550.233 32.5118 550.233 28.3784C550.242 24.332 551.577 20.8733 554.201 18.0972C556.827 15.328 560.122 13.9238 563.995 13.9238C567.66 13.9238 570.372 15.0448 573.356 17.7906L573.694 18.1021L569.552 22.8751L569.217 22.6026C567.496 21.178 566.216 20.4554 563.995 20.4554C561.742 20.4661 559.906 21.2122 558.54 22.6739C557.167 24.1298 556.471 26.0359 556.471 28.3394C556.485 30.8098 557.188 32.7901 558.562 34.2226C559.932 35.6589 561.771 36.3874 564.028 36.3874C566.304 36.3874 567.56 35.6726 569.213 34.2655L569.548 33.9765L573.695 38.769L573.354 39.0786Z" fill="white"/>
<path d="M437.023 13.9248H431.07L420.296 42.2971L420.057 42.9387H426.721L428.315 38.6325H439.776L441.373 42.9387L448.023 42.9146L437.023 13.9248ZM430.628 32.1896L434.177 22.9113L437.565 32.1062L430.628 32.1896Z" fill="white"/>
<path d="M405.555 81.9971C401.236 81.9992 397.566 84.9447 396.645 89.0898L377.676 160.183L362.113 96.4808C361.101 92.3984 357.452 89.5435 353.242 89.5414H339.758C335.552 89.5435 331.904 92.3962 330.888 96.4872L315.338 160.181L296.386 89.1568C295.448 84.9448 291.778 81.9992 287.459 81.9971H270.871L301.054 189.778L301.396 190.988H321.641C325.786 190.971 329.413 188.165 330.456 184.159C334.986 166.881 343.066 132.915 346.503 118.39C349.939 132.915 358.028 166.881 362.554 184.159C363.6 188.165 367.227 190.971 371.373 190.988H391.618L422.142 81.9971H405.555Z" fill="white"/>
<path d="M238.807 107.835C233.508 104.941 227.334 103.433 221.533 103.582C216.224 103.541 211.11 104.591 206.29 106.737C203.536 107.932 200.791 110.037 197.968 113.132V90.9245C198.029 88.5192 197.147 86.2349 195.487 84.4908C193.827 82.749 191.587 81.757 188.916 81.6943H173.725V190.945H188.907C191.202 190.832 193.58 190.037 195.292 188.343C197.004 186.653 197.951 184.396 197.968 181.889L197.964 144.027C197.557 138.765 199.326 132.791 202.278 129.256C205.477 125.977 209.887 124.199 214.72 124.482C219.268 124.175 223.764 125.932 226.867 129.163C230.101 133.027 231.696 137.924 231.355 143.065V181.98C231.355 186.946 235.397 190.988 240.364 190.988H255.551V140.271C255.736 133.481 254.28 126.652 251.314 120.486C248.526 115.06 244.198 110.683 238.807 107.835Z" fill="white"/>
<path d="M527.546 84.7526C525.903 86.5766 524.969 88.9927 524.987 91.3677V181.929C524.969 184.332 525.894 186.601 527.589 188.313C529.279 190.024 531.536 190.971 533.996 190.988H549.187V81.7422H533.987C531.571 81.7573 529.284 82.8249 527.546 84.7526Z" fill="white"/>
<path d="M589.058 81.8564H573.863C571.442 81.8715 569.177 82.9198 567.478 84.8107C565.87 86.5979 564.962 88.9924 564.975 91.3674V181.928C564.958 184.332 565.883 186.601 567.577 188.312C569.268 190.024 571.524 190.97 573.984 190.988H589.171L589.058 81.8564Z" fill="white"/>
<path d="M484.956 112.655V113.802C482.444 111.28 479.53 109.139 476.37 107.496C471.192 104.849 465.429 103.533 459.627 103.634C445.534 103.345 432.05 111.548 425.748 124.297C422.194 131.327 420.387 139.2 420.521 147.01C420.374 154.894 422.147 162.795 425.652 169.859C428.817 176.269 433.707 181.657 439.784 185.43C445.573 189.069 452.23 190.988 459.013 190.988H460.094C465.727 190.988 471.343 189.644 476.37 187.077C479.561 185.443 482.47 183.277 484.956 180.701V182.007C484.956 186.956 488.998 190.984 494.012 190.984H509.2V103.634H494.012C489.019 103.634 484.956 107.68 484.956 112.655ZM480.586 160.217C478.807 163.555 476.155 166.347 472.945 168.277C469.722 170.128 466.051 171.108 462.33 171.108H462.307C458.668 171.108 455.103 170.105 451.991 168.201C448.656 166.197 445.936 163.323 444.132 159.899C442.08 155.946 441.034 151.503 441.112 146.98C441.006 142.572 442.048 138.19 444.114 134.319C445.936 130.997 448.62 128.217 451.857 126.295C455.108 124.446 458.756 123.521 462.404 123.521C466.051 123.521 469.699 124.446 472.95 126.292C476.275 128.192 478.982 130.977 480.767 134.322C482.791 138.285 483.806 142.727 483.699 147.241C483.768 151.748 482.694 156.236 480.586 160.217Z" fill="white"/>
<path d="M138.522 90.4095C138.522 85.6923 135.124 81.9971 130.84 81.9971H115.969V105.132H115.889C109.65 105.132 104.592 110.189 104.592 116.426V127.826H115.969V166.917C115.632 174.323 118.472 181.21 122.834 185.816C126.595 189.786 131.757 191.882 137.766 191.882C144.276 191.882 149.326 189.973 152.766 186.208C158.084 180.387 157.496 172.325 157.47 171.983L157.345 170.447H146.308C143.718 170.556 141.7 169.915 140.437 168.636C138.349 166.52 138.47 162.871 138.522 161.313V127.826H146.687C152.926 127.826 157.983 122.77 157.983 116.532V105.132H138.522L138.522 90.4095Z" fill="white"/>
<path d="M83.9323 65.0858L55.2502 49.756C49.9655 46.9316 43.6197 46.9316 38.3351 49.756L9.65297 65.0858C3.81573 68.2056 0.170898 74.2858 0.170898 80.9037V109.239C0.170898 115.857 3.81573 121.938 9.65299 125.058L18.5613 129.819L9.65299 134.58C3.81573 137.7 0.170898 143.78 0.170898 150.398V178.734C0.170898 185.352 3.81573 191.432 9.65299 194.552L38.3351 209.882C43.6197 212.706 49.9656 212.706 55.2502 209.882L83.9323 194.552C89.7696 191.432 93.4144 185.352 93.4144 178.734V150.398C93.4144 143.78 89.7696 137.7 83.9323 134.58L75.024 129.819L83.9323 125.057C89.7696 121.938 93.4144 115.857 93.4144 109.239V80.9036C93.4144 74.2858 89.7695 68.2056 83.9323 65.0858ZM68.4734 171.154C68.4734 174.232 66.778 177.059 64.0636 178.51L50.7258 185.639C48.2682 186.952 45.317 186.952 42.8595 185.639L29.5217 178.51C26.8072 177.059 25.1123 174.232 25.1123 171.154V157.977C25.1123 154.9 26.8072 152.072 29.5217 150.622L42.8595 143.493C45.317 142.179 48.2682 142.179 50.7258 143.493L64.0636 150.622C66.778 152.072 68.4734 154.9 68.4734 157.977C68.4734 157.977 68.4734 171.154 68.4734 171.154ZM68.4734 101.66C68.4734 104.738 66.778 107.565 64.0636 109.016L50.7258 116.145C48.2682 117.458 45.317 117.458 42.8595 116.145L29.5217 109.016C26.8072 107.565 25.1123 104.738 25.1123 101.66V88.483C25.1123 85.4056 26.8072 82.5781 29.5217 81.1272L42.8595 73.9984C45.317 72.6851 48.2682 72.6851 50.7258 73.9984L64.0636 81.1272C66.778 82.5781 68.4734 85.4056 68.4734 88.483V101.66Z" fill="white"/>
</g>
<defs>
<clipPath id="clip0_863_49">
<rect width="589" height="212" fill="white"/>
</clipPath>
</defs>
</svg>
