<svg width="544" height="653" viewBox="0 0 544 653" fill="none" xmlns="http://www.w3.org/2000/svg">
<path fill-rule="evenodd" clip-rule="evenodd" d="M272.215 0.924973C272.215 80.279 345.54 169.118 431.31 193.683C466.221 203.681 534.896 205.432 543.778 196.551C544.08 196.248 491.314 157.616 426.521 110.701C361.728 63.786 300.503 19.422 290.465 12.114C275.487 1.20897 272.215 -0.796027 272.215 0.924973ZM135.86 97.298C62.2387 150.83 1.24467 195.45 0.315673 196.454C-1.28133 198.181 1.43867 206.895 50.6797 357.78C102.732 517.28 102.732 517.28 271.348 517.533C405.512 517.734 440.161 517.53 440.923 516.533C441.449 515.844 461.371 455.205 485.194 381.78C509.017 308.355 532.209 236.917 536.733 223.03C541.256 209.143 544.502 197.78 543.946 197.78C538.558 197.78 503.418 218.744 489.039 230.537C407.131 297.716 383.737 426.273 437.827 511.957C439.14 514.038 440.215 515.917 440.215 516.133C440.215 516.349 434.703 511.041 427.965 504.338C341.899 418.714 203.482 418.874 115.871 504.698C103.027 517.28 103.027 517.28 107.185 509.78C168.456 399.267 125.758 261.04 12.6897 203.87C6.10367 200.54 0.939671 197.815 1.21467 197.814C1.48967 197.814 6.43967 198.73 12.2147 199.851C133.79 223.447 258.386 130.302 270.813 6.52997C271.7 -2.30203 286.846 -12.489 135.86 97.298ZM491.22 1.40197C451.589 15.676 461.191 74.793 503.156 74.885C552.677 74.994 554.209 1.46997 504.715 0.0419739C498.378 -0.140026 494.385 0.261975 491.22 1.40197ZM517.814 8.28397C548.296 23.198 537.653 69.236 503.715 69.271C466.171 69.309 458.863 18.028 494.715 6.11497C500.71 4.12297 511.35 5.12197 517.814 8.28397ZM488.215 37.28C488.215 57.78 488.215 57.78 492.215 57.78C496.215 57.78 496.215 57.78 496.215 49.78C496.215 41.78 496.215 41.78 500.965 41.794C510.379 41.821 513.215 44.468 513.215 53.23C513.215 57.78 513.215 57.78 516.831 57.78C522.081 57.78 521.689 46.38 516.274 41.541C513.157 38.756 513.224 36.863 516.442 36.795C522.697 36.664 521.195 20.923 514.667 18.195C496.431 10.576 488.215 16.504 488.215 37.28ZM509.622 22.745C518.181 25.999 513.407 35.016 502.465 36.264C496.215 36.976 496.215 36.976 496.215 29.378C496.215 21.453 500.565 19.301 509.622 22.745ZM253.549 184.261C187.111 196.316 149.899 267.589 178.237 328.507C215.029 407.601 327.422 407.538 364.768 328.403C399.833 254.1 334.599 169.555 253.549 184.261ZM435.209 557.714C419.272 562.562 416.207 569.861 416.237 602.896C416.264 633.014 418.015 637.994 430.812 644.343C436.478 647.155 491.159 647.837 498.11 645.182C523.433 635.511 522.889 567.013 497.42 558.334C492.483 556.652 440.407 556.133 435.209 557.714ZM49.2147 602.28C49.2147 646.78 49.2147 646.78 64.2147 646.78C79.2147 646.78 79.2147 646.78 79.2147 630.308C79.2147 613.836 79.2147 613.836 92.8387 613.558C106.463 613.28 106.463 613.28 110.804 602.78C115.145 592.28 115.145 592.28 115.18 619.53C115.217 648.222 117.339 650.291 142.465 646.138C157.466 643.659 146.046 557.78 130.715 557.78C115.215 557.78 115.215 557.78 115.215 573.78C115.215 589.78 115.215 589.78 97.2147 589.78C79.2147 589.78 79.2147 589.78 79.2147 573.78C79.2147 557.78 79.2147 557.78 64.2147 557.78C49.2147 557.78 49.2147 557.78 49.2147 602.28ZM184.294 560.008C183.806 561.258 175.263 581.081 165.311 604.061C155.358 627.041 147.215 646.053 147.215 646.311C147.215 654.682 207.601 644.972 211.152 636.03C213.5 630.117 215.648 624.718 215.925 624.03C216.313 623.068 213.41 622.78 203.322 622.78C196.113 622.78 190.215 622.569 190.215 622.311C190.215 621.437 203.239 593.356 203.979 592.634C204.384 592.239 209.485 604.148 215.316 619.098C224.251 642.009 260.215 663.918 260.215 646.45C260.215 607.308 194.88 532.919 184.294 560.008ZM261.673 559.03C252.773 582.226 263.604 646.315 276.465 646.557C291.215 646.833 291.215 646.833 291.215 624.807C291.215 612.692 291.552 602.802 291.965 602.83C292.378 602.857 300.365 612.756 309.715 624.828C324.164 643.483 374.764 662.573 364.587 645.53C364.176 644.843 355.762 634.419 345.889 622.367C324.306 596.02 324.655 601.591 343.215 579.695C351.74 569.637 359.303 560.591 360.022 559.594C372.039 542.912 319.733 560.432 306.715 577.449C291.715 597.056 291.715 597.056 291.444 577.418C291.206 560.174 266.976 545.208 261.673 559.03ZM361.715 578.865C342.552 601.644 342.214 595.998 364.329 622.605C380.412 641.953 418.215 657.096 418.215 644.19C418.215 643.865 410.265 633.895 400.548 622.034C379.429 596.254 378.212 602.154 413.025 561.53C414.446 559.872 413.555 559.782 396.12 559.813C377.715 559.846 377.715 559.846 361.715 578.865ZM480.909 584.193C494.002 595.455 483.4 621.791 465.791 621.748C447.554 621.704 447.215 621.339 447.215 601.78C447.215 582.287 447.607 581.856 465.409 581.812C477.41 581.782 478.257 581.912 480.909 584.193Z" fill="white"/>
</svg>
