<svg width="749" height="105" viewBox="0 0 749 105" fill="none" xmlns="http://www.w3.org/2000/svg">
<path fill-rule="evenodd" clip-rule="evenodd" d="M469.903 1.33009L469.166 2.66018L469.903 3.99027L470.642 5.32036L472.369 5.1202C473.32 5.00979 474.428 4.4119 474.831 3.79011L475.565 2.66018L474.831 1.53025C474.428 0.908466 473.32 0.310573 472.369 0.200163L470.642 0L469.903 1.33009ZM609.797 1.33009L609.059 2.66018L609.797 3.99027L610.535 5.32036L612.263 5.1202C613.213 5.00979 614.321 4.4119 614.725 3.79011L615.458 2.66018L614.725 1.53025C614.321 0.908466 613.213 0.310573 612.263 0.200163L610.535 0L609.797 1.33009ZM31.4593 1.52767L29.1166 2.33734L27.9466 4.59721L26.7759 6.85707L26.7752 31.5864L26.7739 56.3151L27.7465 58.1295L28.719 59.9432L30.9165 60.8213C33.7833 61.9667 39.9105 61.9777 42.7024 60.8413L44.9092 59.9432L45.8818 58.1295L46.8543 56.3151V48.8582V41.4007H43.527H40.1997L40.0129 49.9559L39.8262 58.5111H36.8141H33.8021V31.3927V4.27437H36.8141H39.8262L40.1609 12.3453L40.4955 20.4162H43.5076H46.5197V13.6367C46.5197 9.90788 46.2894 6.06354 46.0083 5.09309L45.4962 3.3291L43.3891 2.27859C42.2305 1.70006 39.5993 1.1125 37.5424 0.972389L33.8021 0.717995L31.4593 1.52767ZM72.9589 1.52767L70.6162 2.33734L69.3993 4.59721L68.1824 6.85707L68.5225 12.0225C68.999 19.2534 69.6938 21.0471 75.0673 28.912C77.6738 32.7267 80.2233 36.9881 80.7334 38.3821L81.6604 40.9171V49.5407V58.1637L79.987 58.5685C79.0667 58.7913 77.5607 58.7913 76.6403 58.5685L74.9669 58.1637V49.8203V41.4769L74.3384 41.1017C73.9924 40.8958 72.4863 40.9158 70.9917 41.1463L68.2735 41.566L68.2775 48.1015C68.2795 51.696 68.5947 55.7263 68.9776 57.057L69.6744 59.4776L71.819 60.5624L73.9629 61.6471L78.3137 61.6742L82.6644 61.702L84.7675 60.6102L86.8699 59.519L87.6123 57.4657C88.0199 56.3364 88.3539 52.3126 88.3539 48.5238V41.6351L87.3626 38.4144C86.8171 36.6433 84.1183 31.795 81.3639 27.6401C78.6102 23.4851 76.0252 18.9983 75.6196 17.6683L74.8826 15.2508L75.0921 9.76261L75.3016 4.27437H78.3137H81.3257L81.5138 12.1839L81.7019 20.0934H85.0279H88.3539L88.3499 14.1209C88.3479 10.8357 88.0326 7.05916 87.6497 5.72843L86.9529 3.3078L84.8673 2.26761C83.7207 1.69554 81.0988 1.1125 79.0419 0.972389L75.3016 0.717995L72.9589 1.52767ZM100.013 1.37917C98.8787 1.7175 97.3727 2.61047 96.6665 3.36333L95.382 4.7315L95.1946 33.0741L95.0072 61.4166H98.0394H101.071V46.2432V31.0699H104.753H108.434V46.2432V61.4166H111.446H114.458V33.6829V5.94925L113.715 4.37574C112.379 1.54704 104.916 -0.0852231 100.013 1.37917ZM173.814 1.66067C170.919 2.65631 171.121 2.50716 170.105 4.39318L169.345 5.80398V33.61V61.4166H172.357H175.369V46.2432V31.0699H179.05H182.732V46.2432V61.4166H185.744H188.756V33.4169V5.41722L187.387 3.73782L186.018 2.05906L183.538 1.39466C180.214 0.50427 176.912 0.594666 173.814 1.66067ZM214.333 1.45212L212.132 2.06422L210.822 4.13748L209.51 6.21139L209.508 31.2636L209.506 56.3151L210.478 58.1295L211.451 59.9432L213.658 60.8361L215.865 61.7291L219.881 61.682L223.897 61.6348L226 60.5772L228.102 59.519L228.845 57.4657C229.252 56.3364 229.586 52.2603 229.586 48.4069V41.4007H226.24H222.893V49.3425V57.2843L222.09 58.0591C221.648 58.4852 220.303 58.8339 219.101 58.8339H216.915L216.223 57.5852L215.53 56.3358V31.8001V7.26385L216.197 5.57024L216.865 3.87728L219.711 4.0755L222.558 4.27437L222.893 12.3453L223.227 20.4162L226.072 20.6145L228.917 20.8133V12.827V4.84063L227.583 3.45888C225.213 1.00596 219.207 0.096206 214.333 1.45212ZM526.412 2.30829L524.769 3.89277V6.70404V9.51596L525.729 10.7692L526.689 12.0225L524.591 14.1235L522.493 16.2245V18.3979C522.493 22.7801 525.574 25.2588 531.022 25.2588H533.842L535.285 24.2832L536.729 23.3082L537.147 23.9604C537.377 24.3193 538.959 24.6131 540.663 24.6131H543.761L541.948 22.7878L540.135 20.9625L541.154 18.6116C541.713 17.3189 542.172 15.5253 542.172 14.6258V12.991H539.829H537.486V14.6052C537.486 16.6474 537.003 16.6332 534.72 14.5232L532.885 12.8276L535.186 10.7343L537.486 8.64172V6.26692V3.89277L535.843 2.30829L534.2 0.723158H531.127H528.054L526.412 2.30829ZM0 28.391V55.4131L0.741638 57.4657L1.48395 59.519L3.58637 60.5863L5.68945 61.6536L10.0402 61.6574L14.391 61.6613L16.0643 60.7877C16.9847 60.3073 18.1045 59.4531 18.553 58.8901L19.3682 57.8654L19.3897 29.6171L19.4111 1.36883H16.399H13.387V29.3769V57.3844L12.4264 58.1534C11.8983 58.5763 10.4679 58.8294 9.24704 58.7164L7.02815 58.5111L6.85412 29.9399L6.67942 1.36883H3.34004H0V28.391ZM122.491 31.3927V61.4166H125.503H128.515L128.565 42.8534L128.614 24.2903L131.879 36.2353L135.143 48.1803L135.175 54.7984L135.208 61.4166H138.555H141.902V31.3927V1.36883H138.555H135.208L135.135 15.4123L135.061 29.4557L131.91 17.1879C130.177 10.4406 128.548 4.1207 128.29 3.14444L127.82 1.36883H125.155H122.491V31.3927ZM145.248 2.98302V4.59721H148.595H151.942V33.0069V61.4166H154.954H157.966V33.0069V4.59721H161.647H165.329V2.98302V1.36883H155.289H145.248V2.98302ZM236.057 1.7995C235.811 2.03582 235.61 15.5466 235.61 31.8234V61.4166H238.957H242.304V46.1587V30.9007L244.706 31.2771C246.027 31.4838 247.533 31.9932 248.053 32.409L248.997 33.1651V47.2905V61.4166H252.344H255.691L255.657 51.2472C255.637 45.6544 255.395 39.1085 255.118 36.7021L254.614 32.3264L253.174 30.9382L251.735 29.55L253.378 28.081L255.021 26.6115V15.7048V4.79736L253.85 3.79269C251.527 1.80079 237.665 0.247946 236.057 1.7995ZM262.384 29.5054V57.642L264.242 59.4344L266.1 61.2268L269.329 61.6936L272.556 62.1604L275.896 61.3875L279.236 60.6147L280.513 58.5944L281.791 56.574L281.793 28.9714L281.795 1.36883H278.455H275.116L274.941 29.9399L274.767 58.5111L272.548 58.7164C271.327 58.8294 269.897 58.5763 269.369 58.1534L268.408 57.3844V29.3769V1.36883H265.396H262.384V29.5054ZM287.819 2.98302V4.59721H292.912H298.005L297.646 6.04998C297.447 6.84932 294.994 19.1249 292.191 33.3297C289.389 47.5346 286.937 59.6649 286.743 60.2867L286.39 61.4166H296.141H305.892V59.4796V57.5425H300.202H294.513V56.7923C294.513 56.3803 296.923 44.0066 299.868 29.2962C302.813 14.5858 305.223 2.28375 305.223 1.95898V1.36883H296.521H287.819V2.98302ZM360.778 12.991V24.6131H363.79H366.803V12.991V1.36883H363.79H360.778V12.991ZM552.881 12.9322V24.6131H559.196C568.415 24.6131 571.087 23.0616 571.087 17.7089V15.2954L569.31 13.82C568.332 13.0091 567.842 12.3453 568.222 12.3453C568.601 12.3453 569.39 11.4523 569.975 10.3611L571.039 8.37699L570.627 6.56845C570.4 5.57346 569.454 4.06905 568.524 3.2258L566.833 1.69167L559.857 1.47149L552.881 1.25132V12.9322ZM459.842 4.92004V7.17991H458.503H457.164V8.79409V10.4083H458.503H459.842V16.5422V22.6761L461.217 24.003L462.593 25.3298L465.401 25.1329L468.209 24.936L468.416 23.2101L468.622 21.4848L467.077 21.273L465.531 21.0619L465.337 15.7351L465.142 10.4083H466.509H467.874V8.79409V7.17991H466.535H465.197V4.92004V2.66018H462.519H459.842V4.92004ZM107.631 4.72634L108.434 5.50115V16.6713V27.8415H104.753H101.071V16.6713V5.50115L101.875 4.72634C102.316 4.30019 103.612 3.95153 104.753 3.95153C105.894 3.95153 107.189 4.30019 107.631 4.72634ZM181.929 4.72634L182.732 5.50115V16.6713V27.8415H179.05H175.369V16.6713V5.50115L176.172 4.72634C176.614 4.30019 177.909 3.95153 179.05 3.95153C180.192 3.95153 181.487 4.30019 181.929 4.72634ZM247.938 4.98913L248.997 5.38106V15.5969V25.8121L247.946 26.8271L246.894 27.8415H244.599H242.304V16.2194V4.59721H244.592C245.85 4.59721 247.356 4.77347 247.938 4.98913ZM532.73 5.48372C533.664 6.56845 533.057 8.2937 531.45 9.12274L530.257 9.73871L529.856 8.72952C529.198 7.0753 529.397 5.37266 530.291 5.02465C531.645 4.49777 531.927 4.55072 532.73 5.48372ZM564.245 6.51938L565.569 7.79653L565.17 8.79733C564.621 10.1784 562.727 11.054 560.288 11.054H558.236V8.14842V5.24288H560.579H562.921L564.245 6.51938ZM369.48 15.8965V24.6131H372.157H374.835V18.5018V12.3905L376.199 11.6867C376.949 11.2993 378.154 11.1631 378.876 11.3845L380.189 11.7868V18.1996V24.6131H382.867H385.544V17.5979V10.5826L384.157 8.88126L382.77 7.17991H380.097C378.627 7.17991 376.841 7.48079 376.129 7.84818L374.835 8.51646V7.84818V7.17991H372.157H369.48V15.8965ZM387.552 15.8965V24.6131H390.23H392.907V18.5018V12.3905L394.271 11.6867C395.022 11.2993 396.226 11.1631 396.949 11.3845L398.262 11.7868V18.1996V24.6131H400.939H403.617V17.5979V10.5826L402.229 8.88126L400.842 7.17991H398.169C396.699 7.17991 394.914 7.48079 394.202 7.84818L392.907 8.51646V7.84818V7.17991H390.23H387.552V15.8965ZM410.57 7.81267C408.459 8.6359 406.46 11.422 405.969 14.2287L405.532 16.7197L406.261 19.3276L406.989 21.9362L409.036 23.5975L411.082 25.2588H414.076C417.819 25.2588 420.696 23.8622 422.012 21.4061L423.028 19.5117V16.2194V12.9271L422.012 11.0326C420.245 7.73648 414.741 6.1875 410.57 7.81267ZM423.185 7.94568C423.368 8.4125 424.803 12.3531 426.375 16.7036L429.232 24.6131H431.66H434.089L437.236 15.8965L440.383 7.17991H437.395H434.407V7.91727C434.407 8.32275 433.763 10.7201 432.976 13.2441L431.545 17.8335L430.093 12.6681L428.641 7.50274L425.747 7.30001L422.852 7.09726L423.185 7.94568ZM443.16 8.85156C442.027 9.771 441.1 10.9332 441.1 11.4343V12.3453H443.452C444.745 12.3453 446.403 11.9844 447.136 11.5427L448.468 10.7408L449.636 11.4504C450.28 11.841 450.903 12.6384 451.022 13.2215L451.239 14.2823L448.344 14.2849L445.451 14.2869L443.339 15.5291L441.228 16.7714L440.77 18.7814L440.312 20.7914L441.376 22.3565C441.96 23.2178 443.075 24.2503 443.852 24.6512L445.265 25.3808L448.035 25.007C449.559 24.8017 452.275 24.6448 454.071 24.659L457.336 24.6848L456.915 23.6272C456.685 23.0461 456.495 19.9572 456.495 16.7624V10.9545L454.539 9.06722L452.582 7.17991H448.901H445.219L443.16 8.85156ZM469.882 15.8965V24.6131H472.559H475.237V15.8965V7.17991H472.559H469.882V15.8965ZM482.19 7.81267C480.079 8.6359 478.08 11.422 477.589 14.2287L477.152 16.7197L477.881 19.3276L478.609 21.9362L480.656 23.5975L482.702 25.2588H485.696C489.439 25.2588 492.316 23.8622 493.632 21.4061L494.648 19.5117V16.2194V12.9271L493.632 11.0326C491.865 7.73648 486.361 6.1875 482.19 7.81267ZM496.656 15.8965V24.6131H499.333H502.011V18.5018V12.3905L503.375 11.6867C504.125 11.2993 505.33 11.1631 506.052 11.3845L507.366 11.7868V18.1996V24.6131H510.043H512.72V17.5979V10.5826L511.333 8.88126L509.946 7.17991H507.273C505.803 7.17991 504.017 7.48079 503.305 7.84818L502.011 8.51646V7.84818V7.17991H499.333H496.656V15.8965ZM573.741 14.5548L573.966 21.9304L575.588 23.5943L577.211 25.2588H580.067C581.638 25.2588 583.086 25.0031 583.286 24.6913C583.486 24.3794 585.011 24.2716 586.673 24.4524L589.695 24.781V15.9805V7.17991H587.018H584.34V13.6502V20.1212L582.687 20.8476L581.033 21.5746L580.01 20.7552L578.986 19.9352V13.5579V7.17991H576.251H573.516L573.741 14.5548ZM593.763 8.85156L591.703 10.5232V12.3311C591.703 14.9732 593.565 16.7269 597.719 17.9995L601.393 19.1249L601.613 20.2316L601.833 21.3389L600.002 21.7818L598.171 22.2254L597.005 20.8366L595.839 19.4477H593.437C590.724 19.4477 590.744 19.4193 591.834 21.7257C594.035 26.3874 603.692 26.5353 606.361 21.9484L607.337 20.2703L606.504 18.3314C605.585 16.1909 604.181 15.3335 599.861 14.2733L596.974 13.565L597.184 12.1484L597.393 10.7311L598.867 10.529L600.341 10.3263L601.203 11.659L602.066 12.991H604.136C606.804 12.991 607.177 12.5726 606.254 10.6181C605.24 8.47061 602.448 7.17991 598.816 7.17991H595.822L593.763 8.85156ZM609.776 15.8965V24.6131H612.453H615.13V15.8965V7.17991H612.453H609.776V15.8965ZM617.139 15.8965V24.6131H619.816H622.493V18.5018V12.3905L623.857 11.6867C624.608 11.2993 625.813 11.1631 626.535 11.3845L627.848 11.7868V18.1996V24.6131H630.525H633.203V17.5979V10.5826L631.815 8.88126L630.428 7.17991H627.756C626.285 7.17991 624.5 7.48079 623.788 7.84818L622.493 8.51646V7.84818V7.17991H619.816H617.139V15.8965ZM639.738 8.19039C637.299 9.46689 635.73 12.5577 635.685 16.1735L635.649 19.1249L636.78 21.2124C638.199 23.8312 641.001 25.2595 644.716 25.2562L647.594 25.2543L649.769 23.9746C652.28 22.4979 652.414 21.9949 650.697 20.4957L649.449 19.407L647.358 20.557L645.266 21.7076L643.423 20.7171C642.409 20.1722 641.479 19.2276 641.358 18.6187L641.137 17.5107H646.961H652.785L652.36 14.9493C651.224 8.0916 645.639 5.10148 639.738 8.19039ZM655.343 8.85156L653.283 10.5232V12.3311C653.283 14.9732 655.145 16.7269 659.299 17.9995L662.973 19.1249L663.193 20.2316L663.413 21.3389L661.582 21.7818L659.751 22.2254L658.585 20.8366L657.419 19.4477H655.017C652.304 19.4477 652.324 19.4193 653.414 21.7257C655.615 26.3874 665.272 26.5353 667.941 21.9484L668.917 20.2703L668.084 18.3314C667.165 16.1909 665.761 15.3335 661.441 14.2733L658.554 13.565L658.764 12.1484L658.973 10.7311L660.447 10.529L661.921 10.3263L662.783 11.659L663.645 12.991H665.716C668.384 12.991 668.757 12.5726 667.834 10.6181C666.82 8.47061 664.028 7.17991 660.396 7.17991H657.402L655.343 8.85156ZM672.077 8.85156L670.017 10.5232V12.3311C670.017 14.9732 671.878 16.7269 676.033 17.9995L679.706 19.1249L679.927 20.2316L680.146 21.3389L678.316 21.7818L676.485 22.2254L675.319 20.8366L674.153 19.4477H671.751C669.038 19.4477 669.058 19.4193 670.147 21.7257C672.349 26.3874 682.006 26.5353 684.674 21.9484L685.65 20.2703L684.818 18.3314C683.899 16.1909 682.495 15.3335 678.175 14.2733L675.288 13.565L675.498 12.1484L675.706 10.7311L677.18 10.529L678.654 10.3263L679.517 11.659L680.379 12.991H682.449C685.117 12.991 685.491 12.5726 684.567 10.6181C683.553 8.47061 680.761 7.17991 677.129 7.17991H674.135L672.077 8.85156ZM416.125 11.5615C416.562 11.8294 417.247 12.878 417.646 13.891L418.372 15.7332L417.938 17.964L417.504 20.1954L416 20.8566L414.496 21.5178L413.127 20.8107C411.517 19.9798 410.692 17.0129 411.313 14.2862C411.905 11.6854 414.205 10.3831 416.125 11.5615ZM487.745 11.5615C488.183 11.8294 488.867 12.878 489.266 13.891L489.992 15.7332L489.558 17.964L489.124 20.1954L487.62 20.8566L486.116 21.5178L484.747 20.8107C483.137 19.9798 482.313 17.0129 482.934 14.2862C483.525 11.6854 485.825 10.3831 487.745 11.5615ZM646.208 12.0683C647.926 13.7264 647.433 14.2823 644.247 14.2823H641.235V13.3461C641.235 11.3355 644.561 10.4806 646.208 12.0683ZM531.79 18.0253L533.781 20.1547L532.789 20.7597C531.111 21.7831 529.533 21.4558 528.447 19.8577L527.41 18.3307L528.123 16.5241L528.834 14.7175L529.317 15.307C529.582 15.6311 530.695 16.8547 531.79 18.0253ZM564.304 15.5963L565.599 16.2646V17.8335V19.4025L564.304 20.0708C563.592 20.4382 561.935 20.7391 560.623 20.7391H558.236V17.8335V14.928H560.623C561.935 14.928 563.592 15.2289 564.304 15.5963ZM451.14 18.7795C451.14 20.331 448.885 21.6011 447.099 21.0542C444.396 20.2264 446.305 17.574 449.634 17.5301L451.14 17.5107V18.7795ZM595.719 48.5347V60.8348L598.899 60.7922C600.647 60.7683 603.053 60.9317 604.245 61.1551C605.437 61.3779 607.178 61.3753 608.114 61.1486L609.817 60.7361L611.132 58.655L612.448 56.574L612.45 52.5063L612.453 48.4392L611.442 46.5532C609.808 43.5062 605.617 42.3292 602.369 44.006L601.074 44.6743V40.4548V36.2353H598.397H595.719V48.5347ZM360.778 49.1488V60.7709H369.145H377.512V58.8339V56.8969H371.823H366.133V53.9913V51.0858H370.819H375.504V49.1488V47.2117H370.819H366.133V44.3062V41.4007H371.823H377.512V39.4637V37.5266H369.145H360.778V49.1488ZM554.889 49.1488V60.7709H557.567H560.244V55.9284V51.0858H564.929H569.615V55.9284V60.7709H572.292H574.97V49.1488V37.5266H572.292H569.615V42.3692V47.2117H564.929H560.244V42.3692V37.5266H557.567H554.889V49.1488ZM536.817 41.0778V43.3377H535.478H534.139V44.9519V46.5661H535.478H536.817V52.7V58.8339L538.192 60.1608L539.568 61.4876L542.376 61.2907L545.184 61.0938L545.39 59.3679L545.597 57.6426L544.052 57.4308L542.506 57.2197L542.312 51.8929L542.117 46.5661H543.484H544.849V44.9519V43.3377H543.51H542.172V41.0778V38.818H539.494H536.817V41.0778ZM378.851 52.0543V60.7709H381.528H384.206V54.6596V48.5483L385.57 47.8445C386.32 47.4571 387.525 47.3209 388.247 47.5423L389.56 47.9446V54.3574V60.7709H392.238H394.915V53.7557V46.7404L393.528 45.039L392.141 43.3377H389.468C387.997 43.3377 386.212 43.6386 385.5 44.006L384.206 44.6743V44.006V43.3377H381.528H378.851V52.0543ZM399.319 45.0759C398.372 45.9908 397.281 47.8665 396.896 49.245L396.197 51.7508L396.635 54.1624C397.698 60.0116 404.158 63.8644 407.499 60.6418L408.302 59.867V60.6418C408.302 63.2523 404.51 64.6095 401.479 63.0844L399.677 62.1772L398.667 63.6623L397.659 65.148L398.975 66.2973L400.291 67.4459L403.852 67.7307L407.414 68.016L409.441 67.0043L411.468 65.9931L412.562 63.7688L413.657 61.5444V52.4914V43.4384L407.35 43.4255L401.044 43.4132L399.319 45.0759ZM417.724 45.0094C416.592 45.9288 415.665 47.091 415.665 47.5921V48.5031H418.017C419.31 48.5031 420.968 48.1422 421.7 47.7005L423.032 46.8986L424.201 47.6082C424.844 47.9988 425.467 48.7962 425.587 49.3793L425.803 50.4401L422.909 50.4427L420.016 50.4446L417.904 51.6869L415.793 52.9292L415.335 54.9392L414.877 56.9492L415.941 58.5143C416.525 59.3756 417.639 60.4081 418.417 60.809L419.83 61.5386L422.6 61.1648C424.123 60.9595 426.84 60.8026 428.635 60.8168L431.901 60.8426L431.48 59.785C431.249 59.2039 431.06 56.115 431.06 52.9202V47.1123L429.103 45.225L427.147 43.3377H423.465H419.783L417.724 45.0094ZM436.134 45.0759C435.186 45.9908 434.095 47.8665 433.711 49.245L433.011 51.7508L433.449 54.1624C434.512 60.0116 440.972 63.8644 444.313 60.6418L445.116 59.867V60.6418C445.116 63.2523 441.324 64.6095 438.294 63.0844L436.491 62.1772L435.482 63.6623L434.473 65.148L435.789 66.2973L437.105 67.4459L440.666 67.7307L444.228 68.016L446.255 67.0043L448.282 65.9931L449.377 63.7688L450.471 61.5444V52.4914V43.4384L444.164 43.4255L437.858 43.4132L436.134 45.0759ZM456.336 44.3482C453.898 45.6247 452.329 48.7155 452.284 52.3313L452.247 55.2827L453.379 57.3702C454.798 59.989 457.6 61.4172 461.314 61.414L464.193 61.4121L466.368 60.1324C468.879 58.6557 469.013 58.1527 467.296 56.6535L466.048 55.5648L463.957 56.7148L461.865 57.8654L460.022 56.8749C459.008 56.33 458.078 55.3853 457.957 54.7765L457.735 53.6685H463.559H469.384L468.959 51.1071C467.822 44.2494 462.238 41.2593 456.336 44.3482ZM469.882 52.0543V60.7709H472.559H475.237V54.6596V48.5483L476.601 47.8445C477.351 47.4571 478.556 47.3209 479.278 47.5423L480.592 47.9446V54.3574V60.7709H483.269H485.946V54.6235V48.4753L487.6 47.749L489.254 47.0219L490.277 47.8413L491.301 48.6613V54.7158V60.7709H493.979H496.656V54.7332C496.656 45.482 495.446 43.3377 490.226 43.3377H487.725L486.501 44.4063L485.277 45.4749L484.053 44.4063L482.829 43.3377H480.328C478.952 43.3377 477.244 43.6386 476.531 44.006L475.237 44.6743V44.006V43.3377H472.559H469.882V52.0543ZM503.191 44.3482C500.752 45.6247 499.183 48.7155 499.139 52.3313L499.102 55.2827L500.233 57.3702C501.652 59.989 504.455 61.4172 508.169 61.414L511.047 61.4121L513.222 60.1324C515.733 58.6557 515.867 58.1527 514.15 56.6535L512.902 55.5648L510.811 56.7148L508.72 57.8654L506.876 56.8749C505.862 56.33 504.932 55.3853 504.811 54.7765L504.59 53.6685H510.414H516.238L515.813 51.1071C514.677 44.2494 509.092 41.2593 503.191 44.3482ZM516.736 52.0543V60.7709H519.414H522.091V54.6596V48.5483L523.455 47.8445C524.206 47.4571 525.41 47.3209 526.133 47.5423L527.446 47.9446V54.3574V60.7709H530.123H532.801V53.7557V46.7404L531.413 45.039L530.026 43.3377H527.354C525.883 43.3377 524.098 43.6386 523.386 44.006L522.091 44.6743V44.006V43.3377H519.414H516.736V52.0543ZM577.757 50.7126L577.982 58.0881L579.604 59.752L581.227 61.4166H584.083C585.654 61.4166 587.102 61.1609 587.302 60.849C587.502 60.5372 589.027 60.4294 590.689 60.6102L593.711 60.9388V52.1383V43.3377H591.034H588.357V49.808V56.279L586.703 57.0053L585.049 57.7324L584.026 56.913L583.002 56.093V49.7157V43.3377H580.267H577.532L577.757 50.7126ZM407.008 47.88L408.302 48.5483V52.414V56.279L406.713 56.9769L405.125 57.6756L403.756 56.9685C401.222 55.6604 401.043 49.265 403.502 47.8807C404.945 47.0684 405.435 47.0684 407.008 47.88ZM443.822 47.88L445.116 48.5483V52.414V56.279L443.527 56.9769L441.939 57.6756L440.57 56.9685C438.036 55.6604 437.857 49.265 440.316 47.8807C441.759 47.0684 442.249 47.0684 443.822 47.88ZM462.806 48.2261C464.525 49.8842 464.032 50.4401 460.846 50.4401H457.834V49.5039C457.834 47.4933 461.16 46.6384 462.806 48.2261ZM509.661 48.2261C511.379 49.8842 510.886 50.4401 507.7 50.4401H504.688V49.5039C504.688 47.4933 508.014 46.6384 509.661 48.2261ZM605.922 48.0188C606.986 48.8091 607.401 50.9121 607.199 54.4891L607.098 56.279L605.509 56.9769L603.921 57.6756L602.497 56.9408L601.074 56.206V52.3868V48.567L602.246 47.9091C603.81 47.0303 604.622 47.0542 605.922 48.0188ZM425.705 54.9372C425.705 56.4888 423.449 57.7589 421.664 57.212C418.961 56.3842 420.87 53.7318 424.199 53.6879L425.705 53.6685V54.9372ZM748.331 145.677C748.331 145.855 748.481 146 748.665 146C748.849 146 749 145.855 749 145.677C749 145.5 748.849 145.354 748.665 145.354C748.481 145.354 748.331 145.5 748.331 145.677Z" fill="white"/>
</svg>
