<svg width="286" height="49" viewBox="0 0 286 49" fill="none" xmlns="http://www.w3.org/2000/svg">
<path d="M54.6396 35.3345V12.0322H59.597V35.3345H54.6396Z" fill="white"/>
<path d="M79.862 35.3342H75.0136V24.9353C75.0681 23.9008 74.8502 22.9208 74.3054 22.0497C73.8151 21.3964 72.9435 21.0153 72.1263 21.0697C70.7644 21.0697 69.7839 21.5053 69.1846 22.4308C68.5854 23.3564 68.2585 24.8264 68.2585 26.9497V35.3342H63.4102V17.5308H67.1145L67.7683 19.8175H68.0406C68.5854 18.9464 69.3481 18.2931 70.2742 17.8575C71.3092 17.4219 72.3987 17.1497 73.5427 17.2042C75.6128 17.2042 77.1926 17.7486 78.2822 18.8919C79.3717 20.0353 79.9164 21.6142 79.9164 23.7375L79.862 35.3342Z" fill="white"/>
<path d="M90.6482 31.7953C91.6833 31.7408 92.7183 31.5775 93.6989 31.2508V34.8442C92.2825 35.4431 90.7572 35.7153 89.2318 35.6608C87.2707 35.6608 85.8543 35.1708 84.9827 34.1908C84.1111 33.2108 83.6753 31.7408 83.6208 29.7808V21.1786H81.2783V19.1097L83.9477 17.4764L85.364 13.7197H88.4692V17.5308H93.481V21.1786H88.4692V29.7808C88.4147 30.3797 88.6326 30.9242 89.0684 31.3053C89.5042 31.6864 90.1035 31.8497 90.6482 31.7953Z" fill="white"/>
<path d="M103.668 35.6605C100.781 35.6605 98.5473 34.8439 96.9131 33.265C95.2788 31.6861 94.5161 29.4539 94.5161 26.5139C94.5161 23.5194 95.2788 21.2327 96.7496 19.5994C98.2205 17.9661 100.291 17.1494 102.96 17.1494C105.466 17.1494 107.427 17.8572 108.843 19.3272C110.26 20.7972 110.968 22.7572 110.968 25.2616V27.6027H99.4735C99.4735 28.8005 99.9093 29.9439 100.672 30.815C101.544 31.6316 102.688 32.0672 103.886 31.9583C104.921 31.9583 105.956 31.8494 106.937 31.6316C107.972 31.3594 108.952 31.0327 109.933 30.5427V34.2994C109.061 34.735 108.135 35.0616 107.209 35.225C106.011 35.5516 104.812 35.6605 103.668 35.6605ZM102.96 20.6339C102.034 20.5794 101.162 20.9605 100.563 21.6139C99.9093 22.3761 99.5824 23.3561 99.5279 24.3905H106.337C106.392 23.3561 106.065 22.3761 105.411 21.6139C104.758 20.9605 103.886 20.6339 102.96 20.6339Z" fill="white"/>
<path d="M123.116 17.2041C123.661 17.2041 124.206 17.2585 124.75 17.3674L124.369 21.9408C123.879 21.8319 123.388 21.7774 122.953 21.7774C121.645 21.723 120.338 22.1041 119.303 22.9752C118.377 23.8463 117.941 25.0985 117.995 26.3508V35.443H113.147V17.5308H116.851L117.56 20.5252H117.777C118.322 19.5452 119.085 18.7285 120.011 18.1297C120.937 17.5308 122.027 17.2041 123.116 17.2041Z" fill="white"/>
<path d="M132.05 35.3336L125.295 17.5303H130.416L133.848 27.7114C134.229 28.9092 134.447 30.1069 134.556 31.3592H134.665C134.774 30.1069 134.992 28.9092 135.373 27.7114L138.805 17.5303H143.871L137.062 35.3881H132.05V35.3336Z" fill="white"/>
<path d="M146.051 12.9034C146.051 11.3245 146.922 10.5078 148.72 10.5078C150.463 10.5078 151.389 11.3245 151.389 12.9034C151.444 13.5567 151.172 14.21 150.736 14.6456C150.191 15.0811 149.483 15.3534 148.775 15.2989C146.922 15.2989 146.051 14.5367 146.051 12.9034ZM151.117 35.3889H146.269V17.5311H151.117V35.3889Z" fill="white"/>
<path d="M162.557 35.6605C159.67 35.6605 157.436 34.8439 155.802 33.265C154.168 31.6861 153.351 29.4539 153.351 26.5139C153.351 23.5194 154.113 21.2327 155.584 19.5994C157.055 17.9661 159.125 17.1494 161.794 17.1494C164.3 17.1494 166.261 17.8572 167.678 19.3272C169.094 20.7972 169.802 22.7572 169.802 25.2616V27.6027H158.253C158.253 28.8005 158.689 29.9439 159.452 30.815C160.324 31.6316 161.468 32.0672 162.666 31.9583C163.701 31.9583 164.736 31.8494 165.717 31.6316C166.752 31.3594 167.732 31.0327 168.713 30.5427V34.2994C167.841 34.735 166.915 35.0616 165.989 35.225C164.954 35.5516 163.756 35.6605 162.557 35.6605ZM161.903 20.6339C160.977 20.5794 160.106 20.9605 159.452 21.6139C158.798 22.3761 158.471 23.3561 158.417 24.3905H165.226C165.281 23.3561 164.954 22.3761 164.3 21.6139C163.701 20.9605 162.829 20.6339 161.903 20.6339Z" fill="white"/>
<path d="M186.744 35.3336L185.382 29.0725L183.53 21.2325H183.421L180.152 35.3336H174.923L169.856 17.5303H174.705L176.775 25.4247C177.102 26.8403 177.429 28.8003 177.81 31.3047H177.919C178.028 29.9981 178.191 28.7458 178.464 27.4392L178.736 26.0781L180.915 17.5303H186.254L188.324 26.0781C188.378 26.2958 188.433 26.6769 188.542 27.1125C188.651 27.5481 188.705 28.0381 188.814 28.5825C188.923 29.0725 188.978 29.6169 189.032 30.1069C189.087 30.5969 189.141 30.9781 189.141 31.3047H189.25C189.359 30.5425 189.522 29.5081 189.74 28.1469C190.013 26.7858 190.176 25.9147 190.285 25.4247L192.41 17.5303H197.203L192.083 35.3881L186.744 35.3336Z" fill="white"/>
<path d="M215.399 15.843C213.71 15.7886 212.076 16.5508 211.095 17.9664C210.06 19.3819 209.57 21.2875 209.57 23.7919C209.57 29.0186 211.531 31.5775 215.453 31.5775C217.469 31.523 219.484 31.0875 221.391 30.3797V34.5175C219.375 35.3341 217.196 35.7697 214.963 35.7153C211.585 35.7153 208.97 34.6808 207.173 32.6119C205.375 30.543 204.449 27.603 204.449 23.7375C204.394 21.5597 204.83 19.3819 205.756 17.3675C206.573 15.6253 207.881 14.1553 209.57 13.1753C211.367 12.1408 213.383 11.6508 215.399 11.7053C217.796 11.7053 220.084 12.3041 222.208 13.3386L220.628 17.3675C219.757 16.9319 218.885 16.6053 218.013 16.2786C217.142 15.9519 216.27 15.843 215.399 15.843Z" fill="white"/>
<path d="M235.501 35.3339L234.575 32.9383H234.466C233.812 33.8639 232.94 34.5716 231.96 35.0616C230.87 35.4972 229.726 35.715 228.582 35.6605C227.111 35.7694 225.64 35.225 224.551 34.1905C223.57 33.2105 223.08 31.795 223.08 29.9983C223.08 28.0927 223.734 26.7316 225.041 25.8061C226.349 24.8805 228.364 24.3905 231.034 24.3361L234.139 24.2272V23.465C234.139 21.6683 233.213 20.7427 231.36 20.7427C229.617 20.7972 227.874 21.2872 226.349 22.0494L224.714 18.7827C226.839 17.6939 229.181 17.1494 231.524 17.1494C233.921 17.1494 235.773 17.6939 237.026 18.7283C238.279 19.7627 238.933 21.3416 238.933 23.465V35.3883H235.501V35.3339ZM234.084 27.0583L232.178 27.1127C231.088 27.0583 229.999 27.3305 229.018 27.875C228.31 28.365 227.928 29.1816 227.983 29.9983C227.983 31.3594 228.746 32.0672 230.325 32.0672C231.306 32.1216 232.287 31.795 233.049 31.0872C233.757 30.4339 234.084 29.4539 234.084 28.4739V27.0583Z" fill="white"/>
<path d="M246.886 25.6426L249.011 22.9204L254.022 17.476H259.525L252.443 25.2071L259.96 35.2793H254.349L249.229 28.0382L247.158 29.726V35.2793H242.31V10.5615H247.158V21.6682L246.886 25.6971V25.6426Z" fill="white"/>
<path d="M268.786 35.6605C265.898 35.6605 263.665 34.8439 262.031 33.265C260.396 31.6861 259.579 29.4539 259.579 26.5139C259.579 23.5194 260.342 21.2327 261.813 19.5994C263.283 17.9661 265.408 17.1494 268.023 17.1494C270.529 17.1494 272.49 17.8572 273.906 19.3272C275.323 20.7972 276.031 22.7572 276.031 25.2616V27.6027H264.482C264.482 28.8005 264.918 29.9439 265.68 30.815C266.552 31.6316 267.696 32.0672 268.895 31.9583C269.93 31.9583 270.965 31.8494 271.945 31.6316C272.98 31.3594 273.961 31.0327 274.941 30.5427V34.2994C274.07 34.735 273.144 35.0616 272.218 35.225C271.183 35.5516 269.984 35.6605 268.786 35.6605ZM268.132 20.6339C267.206 20.5794 266.334 20.9605 265.68 21.6139C265.027 22.3761 264.7 23.3561 264.645 24.3905H271.455C271.509 23.3561 271.183 22.3761 270.529 21.6139C269.93 20.9605 269.058 20.6339 268.132 20.6339Z" fill="white"/>
<path d="M33.993 6.91406C32.849 7.02295 31.705 7.13184 30.6155 7.24073C23.5881 8.0574 17.5412 9.69073 12.9652 11.8141C11.9302 12.3041 10.8951 12.8485 9.91455 13.4474V33.9185L43.1995 42.0307V21.2874L33.993 6.91406ZM40.1488 38.2196L12.9652 31.5774V25.4252L40.1488 32.1763V38.2196ZM40.1488 29.073L12.9652 22.3218V16.2241L40.1488 22.9752V29.073Z" fill="white"/>
</svg>
