<svg width="362" height="106" viewBox="0 0 362 106" fill="none" xmlns="http://www.w3.org/2000/svg">
<path fill-rule="evenodd" clip-rule="evenodd" d="M0 53C0 106 0 106 181 106C362 106 362 106 362 53C362 0 362 0 181 0C0 0 0 0 0 53ZM75.967 31.241C82.64 42.989 81.308 43.023 88.293 30.927C93.42 22.047 113.827 16.827 121.672 22.388C133.972 31.109 147.082 69.721 141.178 79.841C131.267 96.828 110.624 98.092 101.387 82.278C79.692 45.131 83.153 46.449 69.605 70.181C53.796 97.871 35.378 101.581 22.775 79.613C15.232 66.466 13.86 70.999 37.72 30.222C46.145 15.825 67.534 16.395 75.967 31.241ZM50.073 30.75C57.66 44.301 55.801 43 67.582 43C73.312 43 78 42.723 78 42.384C78 33.8 67.723 25.013 57.677 25.007C46.853 25 46.853 25 50.073 30.75ZM98.167 25.8C107.858 49.043 122.184 65.972 132.174 65.986C142.849 66 142.849 66 131.174 45.525C121.372 28.335 91.874 10.706 98.167 25.8ZM31.694 47.424C21.44 65.137 20.941 95.695 31.074 85.306C41.683 74.429 53.848 44.791 50.381 38.269C43.367 25.074 45.133 24.209 31.694 47.424ZM89.058 36.087C86.217 41.086 84.029 45.532 84.196 45.969C85.015 48.107 107.53 86 107.98 85.997C108.736 85.992 118 69.208 118 67.844C118 66.751 95.15 27 94.522 27C94.359 27 91.9 31.089 89.058 36.087ZM190.054 51.319C192.117 60.019 194.044 67.377 194.336 67.67C194.911 68.245 195.725 65.423 199 51.5C203.318 33.141 202.229 34.865 209.301 35.204C217.004 35.572 220.195 77 212.52 77C209 77 209 77 209 58.8C209 37.041 208.581 37.088 202.764 59.5C196.098 85.18 192.334 85.078 186.094 59.047C180.701 36.553 180 36.547 180 59C180 77 180 77 176.5 77C173.21 77 170.627 38.707 173.709 35.624C179.73 29.604 186.43 36.038 190.054 51.319ZM289 56C289 77 289 77 285.5 77C282.573 77 282 76.644 282 74.826C282 72.658 281.992 72.659 279.419 75.076C275.939 78.345 267.505 78.513 263.323 75.395C247.558 63.644 262.088 37.83 278.75 47.989C282 49.971 282 49.971 282 43.152C282 35.449 282.229 35 286.167 35C289 35 289 35 289 56ZM340 56C340 77 340 77 337 77C334 77 334 77 334 56C334 35 334 35 337 35C340 35 340 35 340 56ZM246.01 48.25C263.031 59.835 249.145 84.607 230.401 76.095C214.876 69.044 220.312 46 237.5 46C241.251 46 243.628 46.628 246.01 48.25ZM316.273 48C317.671 49.1 319.082 50 319.408 50C319.733 50 320 49.1 320 48C320 46.444 320.667 46 323 46C326 46 326 46 326 61.5C326 77 326 77 323 77C320.652 77 320 76.559 320 74.97C320 72.984 319.933 72.99 316.916 75.22C304.511 84.392 288.533 68.387 295.752 54.02C299.489 46.582 310.4 43.381 316.273 48ZM47.427 64.25C42.03 73.737 36.756 82.963 35.708 84.75C33.802 88 33.802 88 44.661 88C55.519 88 55.519 88 67.174 67.5C78.829 47 78.829 47 68.035 47C57.241 47 57.241 47 47.427 64.25ZM230.923 54.923C225.783 60.063 227.319 68.233 233.941 70.975C243.391 74.89 251.158 63.095 244.411 55.077C240.81 50.797 235.114 50.732 230.923 54.923ZM267.75 53.08C259.263 58.024 264.318 73.164 273.945 71.633C285.275 69.831 284.516 51.934 273.114 52.03C271.126 52.047 268.712 52.519 267.75 53.08ZM303.636 54.636C298.409 59.864 301.07 69.978 308.078 71.517C316.214 73.304 322.437 64.614 318.49 56.98C315.545 51.285 308.154 50.119 303.636 54.636ZM116.348 78.75C113.524 83.563 111.278 87.574 111.357 87.665C115.831 92.8 132.923 87.282 137.599 79.193C142.913 70 142.913 70 132.197 70C121.482 70 121.482 70 116.348 78.75Z" fill="white"/>
</svg>
