<svg width="222" height="38" viewBox="0 0 222 38" fill="none" xmlns="http://www.w3.org/2000/svg">
<path fill-rule="evenodd" clip-rule="evenodd" d="M217.641 0.316667C217.641 0.490833 217.784 0.633333 217.958 0.633333C218.133 0.633333 218.275 0.490833 218.275 0.316667C218.275 0.1425 218.133 0 217.958 0C217.784 0 217.641 0.1425 217.641 0.316667ZM13.1221 1.60677C9.07804 2.87913 5.28366 5.69873 3.06331 9.082L1.07931 12.1055L0.339822 15.8612C-0.576456 20.5175 0.438673 27.1504 2.44358 29.6052C5.15566 32.9257 8.00081 35.4033 10.4803 36.6029L13.3679 38L18.7129 37.9943L24.0572 37.9886L27.0925 36.5193C28.7615 35.7111 31.3893 33.7149 32.9317 32.0828L35.7363 29.1156L36.7083 25.8425C37.9592 21.6334 37.9459 16.8353 36.6722 13.0999L35.6634 10.1409L32.8113 6.97046C31.243 5.2269 29.5581 3.8 29.0676 3.8C28.5771 3.8 28.176 3.55237 28.176 3.25027C28.176 1.3148 17.6895 0.170368 13.1221 1.60677ZM39.7271 1.05703C39.2841 1.23563 38.4927 2.21033 37.968 3.22366L37.015 5.06667L37.9579 6.89003C40.0173 10.8693 46.5523 9.4829 46.5523 5.06667C46.5523 4.47197 45.8527 3.23064 44.9985 2.30914L43.4441 0.633333L41.9886 0.683368C41.1877 0.710601 40.17 0.879066 39.7271 1.05703ZM51.1368 19.475L51.3047 37.6833H53.8394H56.3741L56.5527 30.2417L56.7308 22.8H61.4636C64.0661 22.8 66.1958 23.0483 66.1958 23.3516C66.1958 27.2302 75.2059 38.0101 78.3444 37.8873L80.7701 37.7923V36.8796C80.7701 36.378 79.9147 34.7003 78.8691 33.1518C77.8236 31.6033 76.9681 30.1663 76.9681 29.9586C76.9681 29.7508 75.9701 28.0782 74.7503 26.2415C72.1611 22.3427 72.0636 21.7677 73.891 21.1875C74.6388 20.9507 76.0506 19.938 77.0289 18.9373L78.8083 17.1184L79.2335 14.8529C79.4673 13.6072 79.5135 11.2987 79.3355 9.72293L79.0123 6.85837L76.9098 4.68983C74.0419 1.7328 71.8614 1.27426 60.6418 1.27046L50.9683 1.26667L51.1368 19.475ZM85.8394 19.2489V37.2311L86.8419 37.6156C87.3932 37.8271 92.8965 38 99.0716 38H110.299L110.919 37.3806C111.26 37.0392 111.429 35.6142 111.296 34.2139L111.053 31.6667H101.614H92.176V27.2333V22.8H101.364H110.552V19.6333V16.4667H101.336H92.1203L92.3066 11.875L92.4929 7.28333L101.998 6.96667C107.226 6.7925 111.431 6.43593 111.344 6.175C111.258 5.91407 111.186 4.7025 111.186 3.48333V1.26667H98.5127H85.8394V19.2489ZM118.305 19.4402L118.473 37.6833L120.057 37.8151C120.929 37.8873 122.287 37.81 123.077 37.6422L124.513 37.3375L124.345 19.4604L124.176 1.58333L121.157 1.39017L118.137 1.19637L118.305 19.4402ZM130.978 19.475L131.146 37.6833H142.552H153.958L154.151 34.6934L154.343 31.7028L145.596 31.5267L136.849 31.35L136.68 16.3083L136.51 1.26667H133.66H130.81L130.978 19.475ZM159.493 19.475L159.661 37.6833L171.226 37.7657L182.79 37.8474V34.7751V31.7021L174.077 31.5261L165.364 31.35L165.194 16.3083L165.025 1.26667H162.175H159.325L159.493 19.475ZM178.048 3.00833C178.657 3.96657 179.784 5.605 180.553 6.65C182.32 9.0516 186.299 14.7225 188.615 18.1418L190.394 20.767V29.0548V37.3426L191.978 37.7397C192.849 37.9582 194.275 37.9582 195.146 37.7397L196.731 37.3426V28.8496V20.3572L197.523 19.52C197.959 19.0602 199.17 17.4008 200.216 15.8333C202.035 13.1062 202.373 12.6502 204.176 10.4988C204.612 9.9788 204.968 9.29163 204.968 8.97117C204.968 8.6507 205.426 8.00913 205.985 7.54553C206.543 7.0813 207.254 6.12053 207.562 5.4093C207.871 4.69807 208.589 3.4751 209.158 2.69167L210.192 1.26667H206.661H203.129L199.371 6.55183C197.304 9.45883 195.284 12.4513 194.882 13.2018C193.825 15.1766 193.538 14.9954 190.454 10.4057C188.919 8.12123 186.849 5.13 185.856 3.75883L184.049 1.26667H180.495H176.941L178.048 3.00833ZM215.107 1.58333C215.107 1.7575 215.249 1.9 215.424 1.9C215.598 1.9 215.74 1.7575 215.74 1.58333C215.74 1.40917 215.598 1.26667 215.424 1.26667C215.249 1.26667 215.107 1.40917 215.107 1.58333ZM219.859 1.9C220.075 2.24833 220.393 2.53333 220.568 2.53333C220.742 2.53333 220.708 2.24833 220.493 1.9C220.277 1.55167 219.959 1.26667 219.784 1.26667C219.61 1.26667 219.644 1.55167 219.859 1.9ZM213.839 2.53333C213.839 2.99757 214.03 3.18757 214.262 2.95577C214.494 2.72333 214.494 2.34333 214.262 2.1109C214.03 1.8791 213.839 2.0691 213.839 2.53333ZM215.74 4.23763V6.01667H217.325H218.909L218.859 4.43333C218.831 3.5625 218.665 3.20657 218.489 3.64167C218.313 4.0774 217.749 4.43333 217.235 4.43333C216.72 4.43333 216.463 4.16797 216.664 3.8437C216.865 3.51943 216.738 3.07547 216.384 2.85633L215.74 2.4586V4.23763ZM221.493 3.5359L221.544 4.75L221.876 3.91907C222.059 3.4618 222.037 2.91524 221.826 2.70497C221.616 2.4947 221.466 2.86837 221.493 3.5359ZM213.206 5.06667C213.206 5.5309 213.396 5.7209 213.628 5.4891C213.86 5.25667 213.86 4.87667 213.628 4.64423C213.396 4.41243 213.206 4.60243 213.206 5.06667ZM221.493 6.06923L221.544 7.28333L221.876 6.4524C222.059 5.99514 222.037 5.44857 221.826 5.2383C221.616 5.02804 221.466 5.4017 221.493 6.06923ZM24.0572 7.7672C29.8945 10.0681 33.1021 17.3761 30.992 23.5676L30.0054 26.4607L27.7382 28.7267L25.4703 30.9934L22.2063 31.9415L18.9416 32.8903L15.5744 32.0023C10.5025 30.6647 7.80184 28.0339 6.26774 22.9349L5.26085 19.5871L6.34759 16.1329L7.43495 12.6787L9.54442 10.6147C10.704 9.4791 13.0188 8.0541 14.6872 7.44737L17.7206 6.34473L19.9384 6.68167C21.1582 6.8666 23.0117 7.35553 24.0572 7.7672ZM213.839 6.8989C213.839 7.7007 216.339 9.11367 216.851 8.6013C217.053 8.39863 216.906 8.23333 216.525 8.23333C216.143 8.23333 215.383 7.78557 214.835 7.23837C214.287 6.69053 213.839 6.5379 213.839 6.8989ZM70.8317 7.70323C73.9969 9.38853 74.6185 12.0884 72.4704 14.8181L71.1416 16.5072L64.0743 16.3286L57.0077 16.15L56.8151 12.4209C56.7093 10.3702 56.7714 8.30363 56.9539 7.82927L57.2846 6.96667H63.3659H69.4472L70.8317 7.70323ZM219.226 8.23333L217.958 8.77737L219.03 8.82233C219.619 8.8464 220.277 8.58167 220.493 8.23333C220.943 7.505 220.921 7.505 219.226 8.23333Z" fill="white"/>
</svg>
