<svg width="215" height="60" viewBox="0 0 215 60" fill="none" xmlns="http://www.w3.org/2000/svg">
<path fill-rule="evenodd" clip-rule="evenodd" d="M2.58017 0.12486L2.28872 0.24972L2.14647 0.513342L2.00435 0.776965V19.9184V39.06L2.27124 39.3248L2.53813 39.5896H6.72099H10.9038L11.1581 39.311L11.4123 39.0323L11.4491 32.2272L11.4861 25.422L13.6509 25.4181L15.816 25.4141L18.6283 25.2929L21.4407 25.1718L22.7651 24.9606L24.0896 24.7495L25.183 24.3759L26.2765 24.0022L27.3071 23.3649L28.3376 22.7275L29.2642 21.8603L30.1907 20.993L30.7608 20.1953L31.3309 19.3975L31.7604 18.5472L32.19 17.6969L32.5359 16.4287L32.8817 15.1605L32.8894 12.6447L32.897 10.129L32.6639 9.17767L32.4306 8.22619L32.0756 7.27577L31.7205 6.32522L31.0847 5.35878L30.4488 4.39234L29.6045 3.54361L28.7602 2.69475L27.9161 2.13003L27.0721 1.56545L26.3543 1.25045L25.6366 0.935456L24.5961 0.675673L23.5558 0.41589L22.1546 0.262166L20.7535 0.108574L11.8126 0.0542874L2.87175 0L2.58017 0.12486ZM52.0308 0.270905L50.8808 0.372462L49.7622 0.596759L48.6436 0.821057L47.3758 1.21788L46.1081 1.6147L44.7737 2.25277L43.4392 2.89098L42.2132 3.69681L40.9873 4.50264L39.8218 5.59446L38.6564 6.68643L37.9073 7.6191L37.1582 8.55178L36.5365 9.60521L35.9147 10.6586L35.5116 11.6001L35.1085 12.5416L34.7651 13.7171L34.4219 14.8925L34.2165 16.1519L34.0111 17.4114L34.0155 19.4637L34.0199 21.516L34.2936 23.0914L34.5673 24.6669L35.0256 26.0257L35.4837 27.3843L35.973 28.3562L36.4623 29.328L37.2094 30.4535L37.9565 31.579L39.4301 33.041L40.9037 34.5032L42.1488 35.3263L43.394 36.1496L44.4841 36.6607L45.5743 37.1718L46.6419 37.5193L47.7095 37.8667L48.9105 38.129L50.1115 38.3914L51.8956 38.5465L53.6798 38.7015L55.4987 38.5479L57.3175 38.3943L58.5546 38.135L59.7917 37.8756L60.9863 37.4785L62.181 37.0814L63.0187 36.6635L63.8564 36.2455L64.7905 35.6497L65.7246 35.0538L66.8589 34.1777L67.9932 33.3014L68.9607 32.3903L69.9281 31.4791V31.0831V30.6871L69.5102 30.2062L69.0922 29.7253L67.0301 27.6398L64.968 25.5544H64.5969H64.2257L63.1737 26.4945L62.1216 27.4346L61.1875 28.0994L60.2533 28.7641L59.1858 29.2764L58.1182 29.7888L57.0506 30.0602L55.9831 30.3318L54.7017 30.4115L53.4203 30.4911L52.1249 30.3293L50.8295 30.1675L49.8962 29.8525L48.9628 29.5375L47.8697 28.9693L46.7768 28.4012L45.627 27.2757L44.4771 26.1503L43.9241 25.1572L43.371 24.1642L43.0438 23.149L42.7166 22.1338L42.5757 20.7593L42.4347 19.3848L42.5714 18.0774L42.708 16.77L43.0885 15.6747L43.4689 14.5795L44.0985 13.5772L44.7281 12.5748L45.5814 11.7156L46.4346 10.8565L47.4271 10.2136L48.4195 9.57078L49.3115 9.21659L50.2034 8.86227L51.1337 8.66803L52.0639 8.47392H53.6447H55.2256L56.2049 8.66048L57.1841 8.84704L58.1182 9.19647L59.0523 9.54576L59.9197 10.0155L60.7871 10.4854L61.5211 11.0282L62.255 11.5709L63.29 12.472L64.3252 13.373H64.6558H64.9866L67.443 11.089L69.8993 8.80494L70.042 8.43592L70.1846 8.06677L70.0704 7.77388L69.9562 7.48087L69.1081 6.61294L68.2601 5.74488L67.3927 5.03385L66.5253 4.32269L65.4577 3.63365L64.3901 2.94447L63.276 2.39101L62.162 1.83741L60.7825 1.37942L59.4029 0.921421L58.1504 0.661903L56.8978 0.402385L55.373 0.268522L53.8479 0.134525L53.5143 0.151871L53.1807 0.169216L52.0308 0.270905ZM71.8293 0.362663L71.662 0.479446L71.6959 19.6704L71.7297 38.8613L80.2034 38.9017L88.6772 38.9421L90.3453 38.7946L92.0134 38.6471L93.1555 38.4015L94.2978 38.1559L95.3586 37.7499L96.4194 37.3441L97.5526 36.6566L98.6857 35.9693L99.7647 34.8996L100.844 33.8299L101.394 32.903L101.945 31.9762L102.168 31.1155L102.391 30.2549L102.311 27.2095L102.231 24.1642L102.023 23.315L101.815 22.4658L101.456 21.8121L101.097 21.1583L100.104 20.2374L99.1096 19.3163L97.8967 18.7347L96.684 18.1529L95.8546 17.9271L95.0251 17.7015L95.9999 17.1353L96.9747 16.5692L97.765 15.7776L98.5554 14.9862L99.0576 14.1465L99.5599 13.3068L99.8975 12.2504L100.235 11.1941L100.311 9.93331L100.387 8.67253L100.174 7.5615L99.961 6.45061L99.5492 5.57738L99.1374 4.70416L98.6129 4.01498L98.0885 3.3258L97.2315 2.71898L96.3745 2.11216L95.3949 1.66316L94.4153 1.21404L93.3477 0.944857L92.2803 0.675806L90.9458 0.531217L89.6114 0.386628L80.8039 0.316321L71.9965 0.246013L71.8293 0.362663ZM102.707 0.628801L102.797 0.992921L107.62 19.8609L112.443 38.7289H117.895H123.348L126.293 27.1004L129.239 15.4719L129.345 15.7134L129.452 15.9549L132.433 27.3419L135.415 38.7289H140.858H146.3L151.144 19.7947L155.987 0.860514L156.064 0.561009L156.14 0.261504L151.113 0.296195L146.086 0.330885L143.371 12.7772L140.655 25.2234L140.646 25.4882L140.636 25.753L140.518 25.4882L140.4 25.2234L137.444 12.8434L134.488 0.463292L134.427 0.363987L134.367 0.264682H129.513H124.66L124.457 0.959819L124.255 1.65496L121.31 13.373L118.365 25.091L118.262 25.3366L118.159 25.5822L115.586 13.1552L113.012 0.728107L112.946 0.496394L112.88 0.264682H107.748H102.617L102.707 0.628801ZM87.8824 7.85704L88.5554 8.07074L89.1084 8.54039L89.6613 9.00991L89.9366 9.74L90.2119 10.47V11.4531V12.4362L89.9392 13.1591L89.6666 13.8821L89.156 14.3397L88.6455 14.7974L87.8607 15.1049L87.0759 15.4123L84.3069 15.4634L81.5379 15.5147V11.5161V7.51754L84.3736 7.58044L87.2093 7.64333L87.8824 7.85704ZM18.7359 8.3431L20.0545 8.47035L20.8043 8.8101L21.5541 9.14986L22.0706 9.63937L22.5869 10.129L22.9033 10.791L23.2195 11.4531V12.6447V13.8364L22.9026 14.5119L22.5855 15.1875L22.0997 15.6696L21.6138 16.1517L21.0585 16.4328L20.5032 16.7139L19.4941 16.8953L18.4849 17.0767L14.9819 17.1659L11.479 17.255V12.7321V8.20911L14.4481 8.21255L17.4173 8.21599L18.7359 8.3431ZM164.007 8.95138L163.54 9.00646L162.406 9.14496L161.272 9.28359L159.27 9.67313L157.268 10.0627L156.766 10.202L156.263 10.3413L156.299 13.8763L156.334 17.4114L156.868 17.3964L157.402 17.3815L158.834 16.8338L160.267 16.2861L161.554 15.9544L162.84 15.6227L164.045 15.4873L165.25 15.3518L166.797 15.4861L168.344 15.6203L169.228 15.8645L170.112 16.1086L170.726 16.4656L171.34 16.8226L171.675 17.391L172.011 17.9594L172.123 18.7731L172.235 19.5867L171.691 19.6532L171.147 19.7198L170.079 19.7984L169.011 19.8771L166.676 20.142L164.341 20.407L163.088 20.6747L161.836 20.9424L160.82 21.2774L159.804 21.6123L158.603 22.2223L157.402 22.8321L156.319 23.8954L155.236 24.9586L154.76 25.9517L154.285 26.9447L154.075 27.9653L153.865 28.9859L153.868 30.3486L153.87 31.7114L154.064 32.6189L154.258 33.5265L154.695 34.471L155.133 35.4156L155.771 36.2116L156.409 37.0076L157.156 37.6256L157.904 38.2435L158.72 38.652L159.537 39.0605L160.668 39.3421L161.799 39.6236L163.737 39.5586L165.675 39.4935L166.743 39.1349L167.81 38.7765L168.952 38.1798L170.094 37.5834L171.121 36.7264L172.147 35.8693V37.3323V38.7951H176.756H181.364L181.326 27.706L181.288 16.617L180.923 15.5577L180.557 14.4984L180.17 13.8364L179.784 13.1744L179.231 12.5539L178.679 11.9336L178.048 11.4744L177.418 11.0153L176.484 10.5526L175.55 10.0898L174.616 9.80461L173.682 9.51928L172.147 9.24811L170.613 8.97707L167.544 8.93668L164.474 8.8963L164.007 8.95138ZM180.912 9.76489L180.853 9.8642L186.044 23.5021L191.235 37.1401L191.385 37.6697L191.534 38.1993L190.364 41.1785L189.193 44.1576L189.178 44.1759L189.162 44.1942L186.026 43.8857L182.89 43.5772L178.82 43.2389L174.75 42.9004L171.08 42.6401L167.41 42.3798L163.941 42.1763L160.471 41.9729L156.001 41.7775L151.53 41.5822L145.725 41.4294L139.92 41.2766L128.11 41.3523L116.3 41.4279L112.964 41.5664L109.628 41.7049L105.558 41.9103L101.488 42.1156L96.2169 42.4426L90.9458 42.7693L85.7414 43.1683L80.5371 43.5671L76.0666 43.9655L71.5962 44.3639L67.5928 44.7613L63.5895 45.1585L59.9197 45.5573L56.25 45.9562L51.8463 46.4815L47.4426 47.0069L42.8387 47.6087L38.2348 48.2103L33.6309 48.8687L29.0271 49.527L23.4891 50.3949L17.9511 51.2629L13.4139 52.049L8.8768 52.8352L5.17889 53.5168L1.48098 54.1986L1.32138 54.2964L1.16178 54.3943L0.580888 57.1419L0 59.8893L0.0557801 59.9447L0.11156 60L4.02712 59.252L7.94268 58.5042L12.9469 57.5832L17.9511 56.6622L22.4215 55.877L26.8919 55.0919L32.5073 54.1626L38.1226 53.2331L42.8494 52.5064L47.576 51.7796L51.7128 51.1861L55.8496 50.5925L59.853 50.0589L63.8564 49.5251L68.1933 48.9976L72.5303 48.47L76.7339 48.0063L80.9374 47.5425L84.2735 47.2105L87.6097 46.8786L91.3461 46.5456L95.0826 46.2125L98.352 45.9486L101.621 45.6847L106.492 45.356L111.363 45.0274L114.966 44.8262L118.569 44.625L123.039 44.4292L127.51 44.2334L132.047 44.07L136.584 43.9066L145.658 43.9083L154.733 43.91L158.536 44.0713L162.339 44.2326L165.875 44.4291L169.412 44.6257L173.148 44.8921L176.885 45.1586L180.755 45.4843L184.625 45.8102L186.359 45.9553L188.094 46.1006L188.253 46.148L188.412 46.1954L187.819 47.6577L187.227 49.1198V49.3201V49.5201H192.145H197.062L197.521 48.2954L197.98 47.0706L198.642 47.1021L199.304 47.1336L204.041 47.5247L208.778 47.9157L211.18 48.0795L213.582 48.2433L214.291 47.7379L215 47.2327L214.892 47.141L214.783 47.0495L211.114 46.6174L207.444 46.1853L203.14 45.6894L198.835 45.1937L198.777 45.1361L198.719 45.0784L205.298 27.4713L211.876 9.8642L211.821 9.76489L211.765 9.66558H207.099H202.434L202.305 9.9635L202.177 10.2614L199.501 18.7355L196.824 27.2095L196.742 27.4743L196.66 27.7392L195.149 23.2373L193.637 18.7355L192.084 14.2005L190.531 9.66558H185.751H180.971L180.912 9.76489ZM88.2806 22.3685L89.3518 22.4908L90.1018 22.7691L90.8516 23.0476L91.4473 23.5678L92.0429 24.088L92.3547 24.7881L92.6666 25.4882L92.6686 26.8123L92.6707 28.1364L92.2888 28.9675L91.907 29.7986L91.4561 30.1915L91.0051 30.5843L90.4642 30.858L89.9234 31.1318L88.912 31.3886L87.9006 31.6452H84.7192H81.5379V26.9447V22.2443L84.3736 22.2453L87.2093 22.2462L88.2806 22.3685ZM172.147 28.2577V31.2257L171.647 31.6102L171.147 31.9947L170.68 32.2721L170.212 32.5495L169.356 32.8346L168.499 33.1196L167.314 33.1141L166.13 33.1084L165.569 32.9618L165.008 32.8152L164.454 32.4968L163.899 32.1785L163.587 31.5477L163.275 30.9169L163.278 29.7253L163.282 28.5336L163.574 27.9837L163.866 27.4337L164.37 27.021L164.875 26.6083L165.609 26.3354L166.343 26.0623L167.21 25.8708L168.077 25.679L169.679 25.4996L171.28 25.3202L171.714 25.305L172.147 25.2896V28.2577Z" fill="white"/>
</svg>
