<?xml version="1.0" encoding="utf-8"?>
<!-- Generator: Adobe Illustrator 26.5.0, SVG Export Plug-In . SVG Version: 6.00 Build 0)  -->
<svg version="1.1" id="Layer_1" xmlns="http://www.w3.org/2000/svg" xmlns:xlink="http://www.w3.org/1999/xlink" x="0px" y="0px"
	 viewBox="0 0 841.9 595.3" style="enable-background:new 0 0 841.9 595.3;" xml:space="preserve">
<style type="text/css">
	.st0{fill:#FFFFFF;}
</style>
<path class="st0" d="M274.3,558.7c0-64.4,0-128.6,0-192.7c-0.3-0.1-0.6-0.2-0.9-0.3c-0.8,1.3-1.6,2.6-2.3,4
	c-6.3,12.5-14.7,23.2-26.5,31c-7,4.7-14.7,7.6-22.9,9.4c-9.2,2-18.5,2-27.7,0.7c-13.1-1.8-25.1-6.7-35.8-14.6
	c-14.7-10.7-25.3-24.6-32.8-41.2c-6.4-14.2-9.7-29.1-10.9-44.6c-1.1-14.5,0.4-28.7,3.8-42.8c4.7-19.7,13.2-37.6,26.6-52.9
	c10.7-12.4,23.7-21.6,39.4-26.8c12.2-4,24.8-4.8,37.3-2.9c18.6,2.8,33.2,12.3,43.9,27.8c2.5,3.7,4.6,7.7,6.9,11.5
	c0.3,0.6,0.8,1,1.8,2.1c0.2-1.7,0.3-2.8,0.3-3.8c0-9.8,0.1-19.5,0-29.3c0-2.2,0.7-3.1,2.8-3.3c8.2-0.9,16.4-2,24.6-3
	c8.3-1,16.7-2.1,25-3.1c3.4-0.4,6.7-0.8,10.1-1.2c1.6-0.2,2.2,0.4,2.1,1.9c0,0.4,0,0.8,0,1.2c-0.1,8.5,1.1,6-6.6,9.2
	c-4.2,1.7-8.5,3.2-12.8,4.6c-1.5,0.5-2,1.4-2,2.8c0,0.9,0,1.7,0,2.6c0,110.8,0,221.5,0,332.3c0,4.5,0,4.5,4.5,4.5
	c9.8,0,19.7,0.1,29.5-0.1c2.4,0,3.1,0.9,2.9,3c-0.1,1.7-0.1,3.5,0,5.2c0,1.4-0.5,2-1.9,2.1c-12.4,1.2-24.9,2.3-37.3,3.6
	c-10.4,1-20.8,2.2-31.2,3.1C280.9,559,277.8,558.7,274.3,558.7z M166.6,294.1c-0.1,0-0.3,0-0.4,0c0.3,15.8,0.5,31.6,0.9,47.4
	c0.2,8.9,0.4,17.8,2.9,26.4c2,6.9,4.8,13.4,9.6,19c8,9.4,18.7,13,30.6,13.3c11.4,0.2,21.6-3.6,30.7-10.3c13.4-9.9,21.5-23.6,26.9-39
	c3.8-10.9,6-22.2,6.6-33.6c1.1-20.6,0.9-41.2-3-61.6c-2-10.7-5-21-10.9-30.2c-12.7-20.1-30-32.4-54.9-30.4c-4.5,0.3-9.1,1.3-13.2,3
	c-12,4.8-18.5,14.6-22.2,26.5c-2.7,8.8-3.2,18-3.4,27C166.3,265.7,166.6,279.9,166.6,294.1z"/>
<path class="st0" d="M398.7,229.8c0.5-0.7,1.1-1.4,1.5-2.2c7.7-15.5,18.3-28.4,34-36.4c6.9-3.5,14.3-5.9,22-6.4
	c6.3-0.4,12.7-0.5,19.1-0.1c11.9,0.8,22.8,4.9,33,11c18.5,11.2,31,27.5,39.5,47.1c3.6,8.2,6.2,16.7,7.8,25.4
	c2.2,11.9,3.6,24,2.1,36.1c-1.1,8.8-2.1,17.7-4.4,26.2c-6.9,25.8-19.6,48.3-41.3,64.7c-9,6.8-19,11.7-30,14.2
	c-12.9,2.9-25.9,3.1-38.8-0.4c-20.2-5.4-33.7-18.7-43-36.9c-0.4-0.8-1-1.6-1.6-2.4c-0.2,0.1-0.5,0.1-0.7,0.2
	c-0.1,0.7-0.3,1.4-0.3,2.1c0,10.1,0,20.2,0.1,30.2c0,2-0.6,3-2.7,3.2c-7.4,0.9-14.8,1.9-22.2,2.9c-10.1,1.2-20.1,2.4-30.2,3.6
	c-2.4,0.3-4.8,0.6-7.3,0.9c-1.6,0.2-2.2-0.4-2.3-1.9c0-2.1-0.1-4.3,0.1-6.4c0.1-0.7,0.8-1.7,1.5-2c5-2,10-3.8,15-5.7
	c1-0.4,2.2-0.6,3.1-1.2c0.7-0.5,1.4-1.3,1.7-2.2c0.3-0.8,0.1-1.7,0.1-2.6c0-110.9,0-221.8,0-332.8c0-0.5-0.1-1,0-1.4
	c0.3-2.3-0.8-3-3-3c-10.2,0.1-20.5,0-30.7,0c-3.1,0-3.4-0.2-3.3-3.4c0-2-0.6-4.6,0.4-5.9c0.9-1.2,3.7-1.2,5.6-1.4
	c7.7-0.8,15.5-1.6,23.2-2.3c7.8-0.8,15.7-1.5,23.5-2.3c8.4-0.9,16.9-1.8,25.3-2.7c1.5-0.2,2,0.4,2.1,1.8c0,0.9,0,1.7,0,2.6
	c0,61.2,0,122.3,0,183.5c0,1.8,0,3.7,0,5.5C398.1,229.6,398.4,229.7,398.7,229.8z M505.5,301.7c0.2,0,0.3,0,0.5,0
	c-0.4-18-0.8-36-1.3-54c-0.2-8.2-1-16.3-3.9-24.1c-2.7-7.2-6.3-13.7-12.3-18.7c-6.3-5.3-13.5-7.9-21.6-8.9
	c-10.7-1.3-20.5,1-29.7,6.1c-13,7.2-21.8,18.3-28.2,31.5c-8.4,17.3-11.4,35.9-11.8,54.9c-0.2,9.3,0.2,18.6,0.7,27.8
	c0.7,13.5,2.4,26.8,7,39.6c6.9,19.2,18.9,34,38.3,41.7c10.8,4.3,22,4.6,33.1,1.4c13.7-4,21.5-14.1,25.5-27.4
	c2.9-9.4,3.4-19.2,3.6-28.9C505.6,329.1,505.5,315.4,505.5,301.7z"/>
<path class="st0" d="M572.6,256.5c1.2-0.1,2.1-0.2,3-0.2c7.6-0.4,15.3-0.4,22.8-1.3c9.3-1,18.3-3.5,26.2-9
	c8.1-5.7,12.8-13.6,15.8-22.8c4.8-14.9,4.4-30.3,3.3-45.6c-0.5-7.8-2.7-15.3-7.2-21.9c-6.1-8.8-15-12.4-25.2-13.1
	c-10-0.7-18.9,2.3-26.4,9.2c-4.9,4.6-8.2,10.1-9.3,16.8c-0.6,3.5-0.8,7-1,10.5c-0.1,1.5-0.4,2.7-1.9,3.5c-1.8,0.9-3.5,2.1-5.2,3.2
	c-1.3,0.8-2.2,0.5-3-0.6c-5.3-7.7-10.7-15.4-16-23c-0.7-1-0.8-1.7,0.4-2.3c0.1,0,0.1-0.1,0.2-0.1c2.8-2.8,5.6-3.1,9.1-0.7
	c3.3,2.3,3.6,2,5.7-1.3c8.2-12.6,19.8-20.2,34.5-23.6c10.5-2.4,21.1-2.4,31.6-0.6c14.9,2.5,28.3,8.4,39.2,19.1
	c7.1,7,12.1,15.3,14.9,25c2.5,8.8,2.8,17.7,0.8,26.6c-2.5,10.9-7.7,20.3-15.3,28.5c-8.2,8.9-17.9,15.9-29.1,20.5
	c-6.6,2.7-13.5,4.4-20.3,6.6c-0.6,0.2-1.1,0.3-1.7,1c3.1,0.5,6.2,1,9.4,1.4c16.1,2.2,31.6,6.3,45.2,15.7c11.4,8,19.5,18.4,24.1,31.7
	c2.2,6.6,3.6,13.1,3.2,20.1c-0.3,5.2-0.2,10.4-1,15.5c-1.5,9.9-5.5,19-11.1,27.3c-10.5,15.8-24.8,26.6-42.6,33.1
	c-11.6,4.2-23.5,6.4-35.8,6.1c-9.7-0.3-19.4-0.5-28.9-1.8c-15.7-2.1-29.9-8.1-41.8-19c-1.9-1.8-3.7-3.6-5.6-5.4
	c-1.3-1.2-1.1-2.3,0-3.6c3.2-3.8,6.3-7.7,9.2-11.6c1.2-1.7,1.8-1.3,2.9,0.1c4.1,5.1,7.9,10.4,12.4,15.1
	c10.6,11.1,23.7,16.9,39.1,17.9c12.5,0.8,24.1-1.3,34.6-8.3c8.5-5.6,14.6-13.2,18.2-22.8c5.2-13.8,6.2-28.1,5.2-42.7
	c-0.4-5.7-0.9-11.5-2-17.1c-2.7-14.3-8.4-27-21.1-35.4c-6-3.9-12.5-6.3-19.5-7.9c-11.8-2.6-23.8-3.4-35.8-3.3
	c-1.5,0-2.4-0.4-2.7-1.9C573.7,261.5,573.2,259.1,572.6,256.5z"/>
<path class="st0" d="M481.7,526.9c-1.6,0-3,0-4.5,0c0-25.3,0-50.6,0-75.9c3.8-0.9,4-0.7,4.7,2.8c2.5,13.1,5.1,26.2,7.7,39.4
	c0.1,0.4,0.3,0.7,0.7,1c0-14.4,0-28.7,0-43.3c1.6,0,2.9,0,4.5,0c0,25.3,0,50.5,0,76c-1.4,0-2.8,0-4.5,0c0-1.1,0-2.2,0-3.3
	c0.2-6.6-0.2-13.1-1.8-19.7c-2.3-9.5-4.1-19.1-6.1-28.6c-0.1-0.3-0.2-0.7-0.8-0.9C481.7,491.9,481.7,509.3,481.7,526.9z"/>
<path class="st0" d="M535.2,526.9c-1.8,0-3.2,0-4.9,0c0-0.9,0-1.9,0-2.8c0-21.1,0.1-42.2,0-63.3c0-8.1,2.1-11.7,12.7-10.2
	c3,0.4,4.6,2.1,5.1,5.1c0.2,1.1,0.3,2.2,0.3,3.3c0,21.8,0,43.6,0,65.4c0,0.8-0.1,1.5-0.1,2.4c-1.5,0-2.8,0-4.4,0
	c0-12.9,0-25.8,0-38.9c-3,0-5.6,0-8.6,0C535.2,501,535.2,513.9,535.2,526.9z M543.8,484.7c0-1,0-1.8,0-2.7c0-7.4,0-14.8,0-22.2
	c0-1.3,0-2.7-0.1-4c-0.3-2.7-1.8-3.9-4.5-3.7c-2.6,0.1-3.9,1.6-4,4.8c0,8.8,0,17.6,0,26.4c0,0.4,0.2,0.9,0.2,1.4
	C538.2,484.7,540.9,484.7,543.8,484.7z"/>
<path class="st0" d="M602.7,450.6c4.2,0.2,8.4,0.1,12.5,0.8c3.9,0.6,5.4,2.8,5.4,6.6c0.1,7.3,0.2,14.6-0.1,22
	c-0.1,1.6-1.4,3.2-2.3,4.6c-0.5,0.7-1.4,1.1-2.5,1.9c5.1,2.3,5.1,6.6,5,11.1c-0.1,8.7,0,17.5,0,26.2c0,0.9,0,1.9,0,3
	c-1.7,0-3.1,0-4.9,0c0-0.9,0-1.7,0-2.5c0-9.8,0-19.5,0-29.3c0-5.9-2.2-7.8-8.4-7c0,12.9,0,25.8,0,38.9c-1.7,0-3.1,0-4.6,0
	C602.7,501.6,602.7,476.4,602.7,450.6z M607.5,452.9c0,11.1,0,21.8,0,32.5c6,0.8,8.3-1.2,8.3-7c0-6.7,0-13.3,0-20
	c0-4.1-1.2-5.3-5.3-5.5C609.5,452.9,608.6,452.9,607.5,452.9z"/>
<path class="st0" d="M643.6,450.9c1.7,0,3,0,4.6,0c0.1,0.9,0.2,1.7,0.2,2.5c0,21.9,0,43.8,0,65.6c0,3.4-0.6,6.5-4.2,7.7
	c-4.1,1.3-8.4,1.7-11.8-1.5c-1.2-1.2-2-3.5-2-5.3c-0.1-22.4-0.1-44.9-0.1-67.3c0-2.3,1.4-1.8,2.7-1.8c1.5-0.1,2.3,0.1,2.3,2
	c-0.1,10.2,0,20.3,0,30.5c0,12.7,0,25.3,0,38c0,1.8,0.3,3.6,2.2,4c1.5,0.3,3.5,0.1,4.7-0.7c0.9-0.6,1.3-2.6,1.3-4
	c0.1-22.2,0.1-44.4,0.1-66.6C643.6,453,643.6,452,643.6,450.9z"/>
<path class="st0" d="M466.4,526.9c-1.5,0-2.8,0-4.4,0c0-12.9,0-25.8,0-38.9c-3,0-5.7,0-8.6,0c0,12.9,0,25.8,0,38.8
	c-1.7,0-3.1,0-4.9,0c0-0.9,0-1.8,0-2.6c0-21.4,0-42.8,0-64.2c0-1.1,0-2.2,0.1-3.3c0.5-3.7,2.3-5.6,6-6.2c0.7-0.1,1.4-0.2,2.1-0.2
	c6.9-0.4,9.7,2,9.7,8.8c0.1,22,0,44.1,0,66.1C466.5,525.7,466.4,526.2,466.4,526.9z M461.8,484.7c0-9.5,0-18.7,0-27.9
	c0-3.4-1.4-4.8-4.2-4.8c-2.8,0-4.3,1.5-4.3,4.7c-0.1,9,0,17.9,0,26.9c0,0.3,0.1,0.6,0.3,1C456.2,484.7,458.8,484.7,461.8,484.7z"/>
<path class="st0" d="M349.8,450.9c1.7,0,3,0,4.7,0c0,1.1,0,2.1,0,3.1c0,22.1,0,44.2,0,66.3c0,3.5,1.2,5.1,4,5.3
	c2.5,0.2,4.3-1.3,4.5-3.8c0.1-0.8,0-1.6,0-2.4c0-21.9,0-43.8,0-65.6c0-0.9,0-1.9,0-2.9c1.6,0,3,0,4.6,0c0,0.9,0.1,1.7,0.1,2.5
	c0,22,0,43.9,0,65.9c0,5.5-2.3,7.9-7.8,8.2c-0.9,0-1.9,0-2.8,0c-5-0.5-7.3-3.1-7.3-8.1c0-20.1,0-40.1,0-60.2
	C349.8,456.5,349.8,453.9,349.8,450.9z"/>
<path class="st0" d="M433.5,473.4c0-5.8,0.1-11.3,0-16.9c-0.1-3.6-2.5-5.3-5.9-4.2c-2.3,0.8-2.6,2.6-2.7,4.7
	c-0.8,10,1.7,19.1,6.9,27.6c3.2,5.3,6.1,10.9,6.4,17.3c0.3,6.3,0.2,12.6,0,18.9c-0.2,4.1-2.1,5.8-6.2,6.5c-0.8,0.1-1.6,0.2-2.4,0.2
	c-6.9,0.1-9.5-2.4-9.5-9.3c0-5.1,0-10.2,0-15.5c1.6,0,2.9,0,4.7,0c0,1.6,0,3.2,0,4.8c0,4.5-0.1,9,0,13.5c0.1,3.4,1.9,5,5.1,4.7
	c1.9-0.2,3.4-1.1,3.4-3c-0.1-8.6,1.7-17.4-1.3-25.8c-2-5.7-5.1-11.1-8-16.5c-2.6-4.9-3.8-10.1-3.9-15.6c0-2.4-0.1-4.9,0.1-7.3
	c0.3-4.3,2.3-6.4,6.5-7c0.9-0.1,1.9-0.2,2.8-0.2c6.2,0.1,8.6,2.3,8.8,8.5c0.1,3.9,0,7.9,0,11.8c0,3,0,3-3.1,3
	C434.8,473.6,434.3,473.5,433.5,473.4z"/>
<path class="st0" d="M391,502.7c1.7,0,3.1,0,4.6,0c0.1,0.7,0.2,1.4,0.2,2c0,5,0,9.9,0,14.9c0,4.9-2.4,7.5-7.2,7.8
	c-1.6,0.1-3.3,0.1-4.9-0.2c-4-0.7-6-3.2-6-7.2c0-20.4,0-40.8,0-61.2c0-5.7,2.2-8,7.9-8.4c1.7-0.1,3.5,0.1,5.2,0.4
	c2.5,0.5,4.6,2.1,4.7,4.7c0.2,6,0.1,12.1,0.1,18.2c-1.3,0-2.7,0-4.4,0c0-1.5,0-3,0-4.5c0-4.4,0-8.8-0.1-13.2
	c-0.1-2.5-1.3-3.7-3.6-3.9c-2.5-0.2-4.1,0.9-4.7,3.3c-0.2,0.8-0.2,1.7-0.2,2.6c0,20.9,0,41.7,0,62.6c0,2.4,0.7,4.2,3.1,4.9
	c3,0.9,5.5-0.8,5.5-3.9c0.1-5.4,0-10.7,0-16.1C391,504.6,391,503.8,391,502.7z"/>
<path class="st0" d="M586.9,502.7c1.7,0,3,0,4.5,0c0.1,0.5,0.3,1,0.3,1.6c0,5.2,0.1,10.4,0,15.6c-0.1,4.7-2.3,7.2-6.9,7.6
	c-2,0.2-4.1,0-6.1-0.4c-3.1-0.7-4.8-2.9-5-6.1c-0.1-2-0.1-3.9-0.1-5.9c0-17.7,0-35.4,0-53.1c0-0.8,0-1.6,0-2.4
	c0.2-8,7.6-12.1,14.8-8.1c2,1.1,3.1,2.9,3.2,5.2c0.1,5.6,0,11.2,0,17c-1.4,0-2.9,0-4.6,0c0-1.4,0-2.8,0-4.2c0-4.5,0.1-9-0.1-13.5
	c-0.1-2.6-1.6-3.9-4.1-3.9c-2.5,0-4,1.3-4.3,3.8c-0.1,0.5-0.1,0.9-0.1,1.4c0,21.2,0,42.5,0,63.7c0,2.7,1.1,4.1,3.5,4.6
	c2.8,0.6,5.1-1.1,5.1-4c0.1-5.4,0-10.7,0-16.1C586.9,504.6,586.9,503.8,586.9,502.7z"/>
<path class="st0" d="M669.6,453.5c-3.6,0-6.8,0-10.3,0c-0.1-1-0.1-1.7-0.2-2.6c5.4,0,10.6,0,16.3,0c-3.7,24.3-7.5,48.4-11.3,73
	c4,0,7.9,0,11.9,0c0,1.2,0,2,0,3c-5.8,0-11.5,0-17.7,0C662.1,502.4,665.8,478.1,669.6,453.5z"/>
<path class="st0" d="M510.2,453.5c-2.4,0-4.5,0-6.7,0c0-1,0-1.7,0-2.6c6.2,0,12.3,0,18.5,0c0,0.8,0.1,1.5,0.1,2.5
	c-2.3,0-4.6,0-7.1,0c0,24.7,0,49,0,73.5c-1.7,0-3.1,0-4.8,0C510.2,502.4,510.2,478.1,510.2,453.5z"/>
</svg>
