<svg width="240" height="182" viewBox="0 0 240 182" fill="none" xmlns="http://www.w3.org/2000/svg">
<path fill-rule="evenodd" clip-rule="evenodd" d="M56.173 25.834L44 51.668L44.01 52.624L44.021 53.58L65.125 66.491L86.23 79.401L88.623 79.859L91.016 80.316L93.975 79.09L96.934 77.865L107.86 60.983L118.787 44.102L129.507 60.614L140.228 77.126L142.336 78.603L144.445 80.08H147.375H150.305L171.651 66.988L192.996 53.895L193.49 53.096L193.984 52.296L181.742 26.212L169.5 0.128L168.219 0.104L166.937 0.0799999L166.47 1.33L166.003 2.58L163.668 15.33L161.333 28.081L160.756 28.658L160.179 29.235L146.839 20.31L133.5 11.385L130 9.546L126.5 7.707L119.5 7.643L112.5 7.58L109 9.027L105.5 10.474L91.244 19.938L76.988 29.402L76.615 28.991L76.242 28.58L73.819 14.584L71.397 0.588L69.872 0.294L68.346 0L56.173 25.834ZM73.028 16.58L75.362 30.58L76.309 31.218L77.256 31.856L76.655 32.83L76.053 33.804L79.499 53.076L82.946 72.348L84.553 74.801L86.16 77.254L85.83 77.538L85.5 77.822L65.831 65.701L46.162 53.58L45.545 52.96L44.927 52.34L53.09 34.96L61.254 17.58L65.158 9.162L69.063 0.743L69.879 1.662L70.695 2.58L73.028 16.58ZM180.284 25.83L191.939 50.58L192.219 51.769L192.5 52.959L172.021 65.59L151.541 78.222L149.021 78.724L146.5 79.226L143.917 78.241L141.333 77.256L130.988 61.06L120.642 44.865L119.479 43.702L118.315 42.538L118.583 40.718L118.85 38.897L118.225 39.521L117.601 40.146L110.307 28.863L103.013 17.58L103.007 16.271L103 14.962L102 15.58L101 16.198V15.213V14.227L106.561 11.506L112.121 8.786L118.811 8.799L125.5 8.813L129.211 10.379L132.922 11.945L147.139 21.534L161.356 31.123L161.949 30.162L162.543 29.202L164.919 15.141L167.295 1.08H167.962H168.629L180.284 25.83ZM69 2.58V3.08H69.5H70V2.58V2.08H69.5H69V2.58ZM168 4.08V5.413L168.667 4.747L169.333 4.08L168.667 3.413L168 2.747V4.08ZM69 4.58V5.08H69.5H70V4.58V4.08H69.5H69V4.58ZM58.73 26.83L48.972 47.58L48.986 48.35L49 49.119L61.25 40.956L73.5 32.793L73.858 32.495L74.216 32.198L71.935 19.139L69.654 6.08H69.071H68.488L58.73 26.83ZM166.114 17.423L164 28.766V30.776V32.786L176.207 40.893L188.414 49L188.723 48.69L189.032 48.381L179.266 27.27L169.5 6.159L168.864 6.12L168.228 6.08L166.114 17.423ZM70.487 18.091L72.118 27.58L72.647 29.749L73.176 31.917L62.838 38.818L52.5 45.719L51.297 46.43L50.093 47.141L55.333 36.36L60.574 25.58L64.537 16.96L68.5 8.34L68.678 8.471L68.856 8.602L70.487 18.091ZM177.955 27.08L186.185 44.58L186.693 45.814L187.202 47.049L176.959 40.1L166.717 33.152L165.673 32.804L164.628 32.456L166.452 22.018L168.276 11.58L168.762 10.287L169.247 8.994L169.486 9.287L169.725 9.58L177.955 27.08ZM110.62 11.285L107.741 12.333L105.466 13.513L103.192 14.693L110.575 26.13L117.959 37.566L118.729 37.805L119.5 38.043L126.943 26.389L134.385 14.736L134.746 15.817L135.106 16.898L127.506 28.603L119.907 40.308L125.203 48.731L130.5 57.153L137 66.867L143.5 76.58H147.392H151.284L153.083 74.08L154.881 71.58L157.941 54.34L161 37.101L160.945 34.84L160.89 32.58L150.707 26.08L140.523 19.58L137.511 17.015L134.5 14.449L129.315 12.265L124.129 10.08L118.815 10.159L113.5 10.238L110.62 11.285ZM127.5 12.874L132.5 14.58L132.358 15.399L132.215 16.218L125.507 26.679L118.798 37.141L111.922 26.387L105.046 15.634L105.898 14.782L106.75 13.93L110.625 12.549L114.5 11.168H118.5H122.5L127.5 12.874ZM169 12.58V13.08H169.5H170V12.58V12.08H169.5H169V12.58ZM108.579 28.127L115.099 38.174L115.654 39.621L116.209 41.067L105.465 57.824L94.721 74.58L93.611 75.341L92.5 76.101L89.5 75.841L86.5 75.58L86.75 74.33L87 73.08L85.782 73.33L84.564 73.58L80.891 53.58L77.219 33.58L78.359 32.892L79.5 32.205L90 25.226L100.5 18.248L101.28 18.164L102.059 18.08L108.579 28.127ZM148.507 25.734L160 33.389L160.016 34.484L160.032 35.58L156.893 53.58L153.754 71.58L152.354 73.83L150.954 76.08H148.168H145.382L143.794 74.83L142.206 73.58L131.951 57.58L121.696 41.58L121.682 40.58L121.669 39.58L128.584 28.834L135.5 18.088L136.257 18.084L137.014 18.08L148.507 25.734ZM101 19.58V20.08H101.5H102V19.58V19.08H101.5H101V19.58ZM136 19.58V20.08H136.5H137V19.58V19.08H136.5H136V19.58ZM60.815 43.344L48.129 51.58L48.065 52.159L48 52.738L63.25 62.046L78.5 71.354L80.838 73.467L83.176 75.58L82.116 73.08L81.055 70.58L78.027 53.579L75 36.578V35.829V35.08L74.25 35.094L73.5 35.108L60.815 43.344ZM162.958 35.33L162.917 35.58L159.647 53.58L156.377 71.58L157.155 71.902L157.933 72.224L173.716 62.525L189.5 52.825L189.848 52.521L190.196 52.217L177.218 43.649L164.24 35.08H163.62H163L162.958 35.33ZM76.943 54.043L79.907 70.506L79.704 70.698L79.5 70.89L65 61.955L50.5 53.02L50.274 52.3L50.047 51.58L61.774 43.841L73.5 36.103L73.739 36.841L73.978 37.58L76.943 54.043ZM187.838 52.539L187.5 52.84L174.255 61.022L161.01 69.204L159.851 68.488L158.691 67.771L159.362 68.856L160.033 69.942L159.016 70.57L158 71.198V70.314V69.43L160.019 58.005L162.039 46.58L163.085 41.354L164.132 36.129L176.154 44.183L188.176 52.237L187.838 52.539ZM72 38.58V39.08H72.5H73V38.58V38.08H72.5H72V38.58ZM46 52.08V53.413L46.667 52.747L47.333 52.08L46.667 51.413L46 50.747V52.08ZM2.635 117.153L0 119.225V122.63V126.034L2.57 127.718L5.14 129.402L8.32 130.991L11.5 132.58V135.08V137.58L8 137.459L4.5 137.337L2.25 136.592L0 135.847V137.341V138.835L1.461 140.047L2.922 141.26L6.711 141.765L10.5 142.27L13.25 140.103L16 137.935V135.096V132.258L13.133 129.845L10.266 127.433L7.08 126.113L3.895 124.794L4.197 122.187L4.5 119.58H9.412H14.324L14.688 118.502L15.052 117.425L12.479 116.252L9.906 115.08H7.588H5.27L2.635 117.153ZM26.491 126.555L21.099 138.029L20.8 139.805L20.5 141.58H22H23.5L25 138.352L26.5 135.123L32.75 135.102L39 135.08V136.469V137.858L40.929 140.219L42.858 142.58L43.877 141.58L44.896 140.58L39.202 127.83L33.509 115.08H32.696H31.883L26.491 126.555ZM51.221 128.33L51.5 141.58H53H54.5L55.059 132.08L55.617 122.58L55.927 124.08L56.237 125.58L56.094 126.404L55.95 127.229L56.847 126.675L57.743 126.121L64.016 134.1L70.289 142.08H71.174H72.058L71.779 128.83L71.5 115.58H70.5H69.5L69 124.951L68.5 134.321L61 124.743L53.5 115.166L52.221 115.123L50.942 115.08L51.221 128.33ZM79.705 115.708L79 116.413V117.747V119.08H82.5H86V130.021V140.962L87.112 141.649L88.224 142.336L89.131 140.958L90.038 139.58L89.769 129.328L89.5 119.076L92.823 119.078L96.147 119.08L95.812 117.33L95.478 115.58L87.944 115.292L80.41 115.003L79.705 115.708ZM104.337 122.83L100.788 130.58L98.458 135.81L96.127 141.041L97.064 141.619L98 142.198L99.007 141.576L100.014 140.953L101.533 138.017L103.051 135.08H108.84H114.63L116.299 138.58L117.968 142.08H118.925H119.882L120.416 141.217L120.949 140.353L115.307 127.717L109.665 115.08H108.775H107.886L104.337 122.83ZM147.121 116.79L143.743 118.454L141.875 121.517L140.007 124.58V128.58V132.58L142.026 135.89L144.044 139.2L147.49 140.64L150.936 142.08H153.518H156.099L159.05 140.554L162 139.029V137.613V136.198L161.147 135.671L160.295 135.144L158.397 136.58L156.5 138.016L152.886 138.048L149.273 138.08L146.636 135.444L144 132.807V128.632V124.457L146.028 122.281L148.055 120.104L150.704 119.439L153.353 118.775L156.426 119.973L159.5 121.172L160.441 121.376L161.381 121.58L161.768 119.811L162.154 118.042L158.609 116.561L155.064 115.08L152.782 115.103L150.5 115.126L147.121 116.79ZM170.25 116.195L169 117.48V128.198V138.916L169.607 140.498L170.214 142.08H171.607H173V137.08V132.08H176.348H179.696L181.503 136.086L183.309 140.092L184.697 141.243L186.085 142.395L187.176 141.304L188.268 140.212L185.723 135.87L183.178 131.527L185.589 129.379L188 127.231V123.83V120.429L185.486 118.067L182.973 115.706L177.236 115.308L171.5 114.911L170.25 116.195ZM195.598 115.816L195 116.413L195.022 125.997L195.044 135.58L196.772 137.713L198.5 139.846L200.684 140.963L202.869 142.08H204.887H206.906L209.288 140.995L211.669 139.91L213.335 137.09L215 134.271V125.176V116.08H214H213L212.25 116.071L211.5 116.062L211 125.821L210.5 135.58L209.25 135.33L208 135.08L208.25 136.33L208.5 137.58L205.375 137.884L202.251 138.188L200.625 136.563L199 134.937V125.616V116.294L197.598 115.756L196.196 115.218L195.598 115.816ZM222.667 115.747L222 116.413V117.747V119.08H227.5H233V119.557V120.035L226.842 130.099L220.683 140.163L221.689 141.169L222.694 142.174L230.086 141.877L237.479 141.58L237.813 139.83L238.147 138.08H232.014H225.882L226.51 137.064L227.138 136.047L228.224 136.718L229.309 137.389L228.595 136.233L227.88 135.078L233.53 125.944L239.18 116.81L237.84 115.96L236.5 115.111L229.917 115.095L223.333 115.08L222.667 115.747ZM224 117.58V118.08H223.5H223V117.58V117.08H223.5H224V117.58ZM182.395 120.379L184.172 121.679L183.836 124.629L183.5 127.58L178.25 127.882L173 128.185V123.632V119.08H176.809H180.618L182.395 120.379ZM34.902 127.35L36.929 132.08H32.52H28.111L30.199 127.056L32.286 122.033L32.58 122.327L32.874 122.621L34.902 127.35ZM111.568 128.589L113.027 132.08H108.577H104.127L106.314 127.189L108.5 122.298L109.305 123.698L110.11 125.099L111.568 128.589ZM32 125.58V126.08H32.5H33V125.58V125.08H32.5H32V125.58ZM108 125.58V126.08H108.5H109V125.58V125.08H108.5H108V125.58ZM51.254 154.902L50.008 155.693L52.427 164.137L54.846 172.58L55.961 176.83L57.077 181.08H58.317H59.558L62.602 173.023L65.647 164.965L68.696 172.773L71.745 180.58H73.109H74.473L77.884 168.278L81.295 155.975L80.12 154.8L78.945 153.625L77.251 154.694L75.557 155.762L73.999 162.082L72.442 168.402L69.614 161.193L66.786 153.985L65.643 154.364L64.5 154.743L61.903 161.486L59.305 168.229L57.537 161.904L55.768 155.58L54.634 154.845L53.5 154.111H53H52.5L51.254 154.902ZM92.121 155.79L88.743 157.454L86.875 160.517L85.007 163.58V167.58V171.58L86.96 174.781L88.912 177.983L91.906 179.531L94.901 181.08H98H101.099L104.094 179.531L107.088 177.983L109.04 174.781L110.993 171.58V167.58V163.58L109.114 160.5L107.236 157.42L103.717 155.75L100.198 154.08L97.849 154.103L95.5 154.126L92.121 155.79ZM118.487 155.253L117.933 156.696L118.217 168.638L118.5 180.58L120.715 180.895L122.929 181.21L123.578 178.626L124.226 176.043L123.752 173.562L123.277 171.08L124.889 171.083L126.5 171.086L129 175.829L131.5 180.572L133.356 180.92L135.212 181.268L136.233 180.247L137.253 179.227L134.734 174.719L132.214 170.212L133.555 169.697L134.895 169.183L136.444 166.188L137.993 163.192L137.111 160.886L136.23 158.58L134.163 156.719L132.097 154.857L125.569 154.333L119.041 153.809L118.487 155.253ZM145.218 154.91L143.936 155.738L144.218 168.159L144.5 180.58H147H149.5L150 175.302L150.5 170.024L154.899 175.552L159.299 181.08H161.59H163.882L164.517 180.053L165.151 179.026L159.987 173.065L154.823 167.105L159.416 161.855L164.008 156.605L163.671 155.592L163.334 154.58L161.564 154.237L159.793 153.894L154.957 159.126L150.121 164.359L149.81 159.479L149.5 154.598L148 154.34L146.5 154.083L145.218 154.91ZM172.635 156.153L170 158.225V161.478V164.731L172.25 166.789L174.5 168.846L177.75 170.489L181 172.131V173.637V175.143L179.538 175.704L178.076 176.265L175.08 174.77L172.083 173.275L170.93 174.665L169.776 176.055L170.362 177.582L170.949 179.11L173.724 180.176L176.5 181.242L180 180.691L183.5 180.141L185.25 178L187 175.858V173.058V170.258L184.126 167.919L181.252 165.58L177.96 163.781L174.669 161.983L176.137 160.515L177.605 159.046L180.91 160.198L184.215 161.351L185.091 159.965L185.967 158.58L185.655 157.58L185.342 156.58L182.921 155.345L180.5 154.109L177.885 154.095L175.27 154.08L172.635 156.153ZM103 162.08L105 164.08L105.115 165.83L105.23 167.58L105.055 169.58L104.88 171.58L102.829 173.33L100.778 175.08H98.112H95.445L93.337 173.603L91.229 172.127L90.593 169.595L89.958 167.063L91.458 164.162L92.958 161.261L94.229 160.749L95.5 160.238L98.25 160.159L101 160.08L103 162.08ZM131.41 161.707L132.035 163.333L130.895 164.707L129.755 166.08H126.628H123.5V163.08V160.08H127.143H130.786L131.41 161.707ZM59 163.08V164.413L59.667 163.747L60.333 163.08L59.667 162.413L59 161.747V163.08Z" fill="white"/>
</svg>
