<svg width="545" height="135" viewBox="0 0 545 135" fill="none" xmlns="http://www.w3.org/2000/svg">
<path fill-rule="evenodd" clip-rule="evenodd" d="M46.5068 0.462109C46.2464 0.722433 46.0341 1.34845 46.0341 1.85395V2.77197H47.4584H48.8834L48.6608 1.62393C48.4155 0.356052 47.2426 -0.276164 46.5068 0.462109ZM49.5986 1.21485C49.725 1.87323 50.3661 2.51578 51.0229 2.64249L52.2177 2.87321V1.44487V0.0172173H50.7934H49.3684L49.5986 1.21485ZM53.034 1.21485C53.1604 1.87323 53.8015 2.51578 54.4583 2.64249L55.6531 2.87321V1.44487V0.0172173H54.2288H52.8038L53.034 1.21485ZM57.3708 0.705905C56.7957 1.63839 57.5714 2.77197 58.7855 2.77197H59.7756V1.39459V0.0172173H58.7855C58.2406 0.0172173 57.6044 0.327127 57.3708 0.705905ZM61.182 1.01168C60.721 1.56814 60.5211 2.30917 60.7368 2.65902L61.1284 3.29537L52.7227 3.62456L44.3164 3.95376L38.7414 5.98538L33.1672 8.0177L26.2319 12.9804L19.2972 17.9431L16.127 21.8438C12.5309 26.2693 11.233 28.6329 8.20093 36.2849L6.06069 41.6828L6.03733 50.9801L6.01397 60.2774L7.14146 64.9123C8.75884 71.5636 9.14291 72.3921 14.0912 79.9146L18.5558 86.7017L20.7868 88.2305C22.0132 89.0707 24.4084 91.0879 26.1089 92.7125C27.8094 94.3371 30.0712 95.9941 31.1348 96.3942L33.0696 97.1222L34.3984 96.4094C35.1295 96.0175 35.7685 95.1649 35.8186 94.5155C35.8681 93.8661 36.1003 94.4191 36.3339 95.7448L36.7585 98.1552L39.1887 99.3466C40.5251 100.002 44.0807 100.887 47.0901 101.314L52.5613 102.088L57.7879 101.663C64.4264 101.123 69.8041 99.5291 71.8283 97.4996L73.4106 95.9135L74.0722 96.5767L74.7332 97.2393L77.0452 96.0595C78.317 95.4101 80.9031 93.5754 82.7926 91.9818C84.6821 90.3875 87.1026 88.5163 88.1724 87.8228C89.9863 86.6459 96.8076 77.1261 99.3051 72.2853C99.9138 71.1056 101.029 66.9914 101.783 63.1423L103.154 56.1453L102.683 48.651L102.212 41.1567L103.01 41.6511C103.99 42.2579 105.953 40.7497 105.384 39.8275C105.158 39.4604 104.306 39.3289 103.49 39.5334L102.008 39.9067L99.718 34.2519C95.1847 23.0586 82.6627 10.1581 73.5027 7.24362L72.1814 6.82352L73.0038 5.5033L73.8263 4.18378L73.0444 3.40005C72.6143 2.96893 71.8997 2.84153 71.4559 3.11631L70.6492 3.6163L71.0024 4.97026L71.3555 6.32422L70.3112 5.92271C69.7368 5.70165 68.5131 5.33113 67.5924 5.09973L65.9173 4.67826L66.3261 3.38697C66.5508 2.67693 66.533 1.76786 66.2863 1.36705L65.837 0.639102L64.8592 1.45244L63.8808 2.26578L64.6607 3.20791L65.4405 4.14934H63.9819C62.3961 4.14934 62.1144 3.4579 63.2398 2.32983L63.9564 1.61153L62.9877 0.805765L62.0189 0L61.182 1.01168ZM43.0714 1.1508C42.811 1.41112 42.5987 2.03714 42.5987 2.54263V3.46066H44.023H45.448L45.2254 2.31261C44.9801 1.04474 43.8073 0.412524 43.0714 1.1508ZM39.636 1.83948C39.3756 2.09981 39.1633 2.72583 39.1633 3.23132V4.14934H40.5876H42.0126L41.79 3.0013C41.5447 1.73343 40.3719 1.10121 39.636 1.83948ZM67.6769 2.77197C67.1019 3.70445 67.8776 4.83803 69.0916 4.83803H70.0817V3.46066V2.08328H69.0916C68.5468 2.08328 67.9105 2.39319 67.6769 2.77197ZM164.078 3.04675C160.178 4.09907 158.793 5.17342 157.577 8.08726L156.653 10.3035V53.6887V97.074L158.771 99.4919L160.889 101.909L163.409 102.611C164.795 102.997 167.454 103.314 169.319 103.316L172.709 103.32L175.518 101.957C177.062 101.208 178.86 99.6882 179.514 98.5801L180.701 96.565V83.0702V69.5747H177.339H173.977L173.56 70.6642C173.331 71.2633 173.143 77.6089 173.143 84.7664V97.7792L171.43 98.9038L169.718 100.028L168.043 99.6076C167.122 99.3756 165.883 98.7 165.29 98.1049L164.211 97.0237V52.7018V8.37995L165.29 7.29734L166.371 6.21541H168.986H171.601L172.356 7.12723L173.111 8.03974L173.299 20.7288L173.487 33.4186L177.136 33.6279L180.785 33.838L180.571 20.7591L180.357 7.67956L178.374 5.6073L176.392 3.53503L173.016 2.80916C168.9 1.92419 168.164 1.94417 164.078 3.04675ZM218.994 2.8002C215.055 3.78021 213.179 5.33802 211.902 8.68848L210.741 11.738L211.121 21.2012L211.502 30.6638L212.596 34.2051C213.197 36.1533 216.282 42.6773 219.452 48.7033C222.621 54.7293 225.779 61.1933 226.469 63.068L227.725 66.4756L227.964 81.752L228.203 97.0285L226.782 98.4527L225.361 99.8769H223.431C222.369 99.8769 220.901 99.4375 220.167 98.9011L218.834 97.9245L218.49 83.9221L218.146 69.919H214.711H211.276V83.3808V96.8426L212.488 98.6945C213.154 99.713 214.495 101.068 215.466 101.706L217.232 102.867L222.498 103.136L227.766 103.405L230.122 102.158C231.417 101.471 233.118 100.035 233.9 98.9658L235.323 97.0209V81.7486V66.4756L233.701 61.6548C232.809 59.0033 229.489 51.8258 226.322 45.7041L220.564 34.5742L219.537 30.2086L218.511 25.843L218.5 17.169L218.49 8.49496L219.747 7.35518L221.003 6.21541H223.419H225.835L226.972 7.47502L228.109 8.73394V21.2488V33.7629H231.944H235.778L235.55 21.5387L235.322 9.3145L234.151 7.16924C232.12 3.44895 224.83 1.34776 218.994 2.8002ZM255.409 2.8002C251.514 3.76919 249.595 5.33182 248.398 8.50942L247.316 11.3806L247.503 56.834L247.691 102.287H251.126H254.561L254.742 77.3224L254.922 52.3575H259.723H264.524V77.5304V102.704L268.131 102.495L271.738 102.287V55.8009V9.3145L270.394 7.08729C268.119 3.31672 261.242 1.34914 255.409 2.8002ZM360.271 2.83946C356.644 3.69756 354.155 6.01293 353.216 9.40196L352.477 12.0693L352.474 57.3863L352.47 102.704L356.077 102.495L359.684 102.287L359.864 77.3224L360.045 52.3575H364.845H369.647V77.5304V102.704L373.254 102.495L376.861 102.287V55.8009V9.3145L375.689 7.16924C373.626 3.39316 366.449 1.37806 360.271 2.83946ZM416.024 2.68588C412.708 3.54812 410.888 4.77812 409.463 7.12034L408.128 9.3145L408.126 53.1942L408.123 97.074L410.24 99.4919L412.359 101.909L414.878 102.611C416.265 102.997 418.924 103.314 420.788 103.316L424.179 103.32L427.08 101.913L429.982 100.505L431.076 98.1931L432.171 95.8812V82.7279V69.5747H428.735C424.517 69.5747 425.092 67.5396 424.648 84.0123L424.269 98.1049L422.474 99.1139L420.678 100.122L418.612 99.2647C417.476 98.7922 416.197 97.638 415.77 96.6986L414.994 94.9914V53.0586V11.1257L415.724 9.20087C416.867 6.18579 421.965 4.88073 423.825 7.12723L424.581 8.03974L424.769 20.7288L424.956 33.4186L428.605 33.6279L432.254 33.838L432.041 20.786L431.827 7.73396L430.454 6.21541C427.613 3.07224 420.876 1.42421 416.024 2.68588ZM35.8585 3.97717C35.9863 4.64038 36.5455 5.18237 37.1021 5.18237C37.6586 5.18237 38.2179 4.64038 38.3457 3.97717L38.5772 2.77197H37.1021H35.6269L35.8585 3.97717ZM120.925 49.5008V96.2296L122.485 98.5698C123.342 99.857 125.121 101.452 126.436 102.114L128.827 103.318L132.799 103.319C137.427 103.32 140.508 102.177 142.912 99.5663L144.629 97.7V50.4085V3.11631H141.194H137.759L137.415 50.4292L137.072 97.7427L136.363 98.4527C135.974 98.8432 134.725 99.3487 133.589 99.5767L131.523 99.9906L129.832 98.6173L128.14 97.2441L127.954 50.0084L127.768 2.77197H124.347H120.925V49.5008ZM284.449 52.7397V102.707L287.713 102.497L290.976 102.287L291.32 69.6628L291.664 37.0383L296.114 58.6438L300.565 80.2493L300.924 91.2683L301.283 102.287H304.718H308.153V52.7018V3.11631H304.718H301.283L300.939 28.8774L300.596 54.6384L295.854 29.5661C293.246 15.7765 290.971 4.10664 290.799 3.63283L290.486 2.77197H287.468H284.449V52.7397ZM317.693 3.76506C317.484 4.3105 317.419 5.31805 317.549 6.00329L317.786 7.24844L322.069 7.45367L326.351 7.65821L326.528 54.9731L326.704 102.287H330.14H333.575L333.752 54.9401L333.928 7.59278H338.39H342.851V5.18237V2.77197H330.462H318.073L317.693 3.76506ZM445.579 3.53159C445.378 4.0605 445.293 26.4973 445.391 53.3905L445.568 102.287H449.004H452.439L452.619 76.9781L452.8 51.6688H454.151C454.895 51.6688 456.725 52.1585 458.218 52.7576L460.932 53.8457L461.667 55.9593L462.402 58.0722V80.3519V102.632H465.863H469.323L469.126 78.4739L468.929 54.3161L466.223 51.8306L463.516 49.3452L464.505 49.016C465.048 48.8348 466.358 47.7605 467.415 46.6276L469.336 44.5684L469.132 26.4959L468.929 8.42334L467.555 6.87999C466.799 6.03084 465.118 4.88624 463.819 4.33598L461.459 3.33463L453.702 2.95172L445.946 2.56881L445.579 3.53159ZM481.27 3.62456C481.075 4.13488 481.001 25.3038 481.105 50.6654L481.296 96.7778L482.833 98.9376L484.37 101.098L487.141 102.209C488.666 102.82 491.53 103.313 493.506 103.305L497.099 103.29L499.974 101.982L502.848 100.674L504.096 98.3818L505.344 96.0891L505.541 50.9801C505.649 26.1701 505.566 5.17411 505.356 4.32152L504.974 2.77197H501.552H498.13V49.6337V96.4962L496.367 98.2633L494.603 100.031L492.437 99.5966C491.246 99.3577 489.952 98.8432 489.563 98.4527L488.854 97.7427L488.511 50.4292L488.167 3.11631L484.897 2.90626L481.626 2.69621L481.27 3.62456ZM518.055 5.18237V7.59278H524.658H531.263L530.854 9.83102C530.629 11.0624 529.351 19.5071 528.013 28.5978C526.676 37.6884 524.803 50.2398 523.853 56.4896C522.903 62.7394 521.059 74.861 519.755 83.4269C518.451 91.9928 517.304 99.7406 517.204 100.644L517.024 102.287L528.919 102.476L540.814 102.665L540.599 100.066L540.385 97.4665L532.991 97.2709L525.598 97.0754L525.933 95.5492C526.117 94.7097 527.214 87.515 528.369 79.5606C530.544 64.5934 534.462 39.333 538.031 17.273C539.161 10.2869 539.931 4.16656 539.742 3.67139L539.398 2.77197H528.726H518.055V5.18237ZM32.4217 5.34697C32.5481 6.00536 33.1892 6.6479 33.846 6.77462L35.0409 7.00533V5.57699V4.14934H33.6165H32.1916L32.4217 5.34697ZM74.435 5.22852C74.2076 5.82217 74.3718 6.65892 74.7999 7.08797L75.5783 7.86826L76.3568 7.08797C77.2362 6.20645 76.6914 4.14934 75.5783 4.14934C75.1764 4.14934 74.6624 4.63487 74.435 5.22852ZM59.4843 5.57768C62.4016 5.98401 66.6257 6.89032 68.8718 7.59072L72.9544 8.86479L80.4593 13.8385L87.9635 18.8115L91.4848 23.5731C93.4217 26.1922 96.17 31.0398 97.5922 34.3469L100.178 40.3592L100.657 47.9079L101.135 55.4566L99.6905 62.9116L98.2456 70.3667L94.1259 76.6344C91.8606 80.0813 90.0069 83.1411 90.0069 83.4338C90.0069 87.9069 75.1022 94.5189 72.9441 91.0032L70.8787 87.6389L75.3296 84.0647C80.4153 79.9794 84.9521 74.14 87.9787 67.7834L90.0674 63.3965L91.0478 57.8064L92.029 52.2163L90.6253 45.5725C88.9055 37.4288 88.1518 35.2856 86.2307 33.0742C85.4083 32.1273 83.916 29.9097 82.9142 28.1467L81.0935 24.9408L77.8209 22.5724C76.0208 21.2694 73.2333 19.4782 71.6269 18.5918L68.7062 16.9803L70.081 15.5134C71.8145 13.6643 71.8358 11.5947 70.138 10.0548L68.8209 8.85928L67.2413 9.08723L65.6618 9.3145L64.6311 11.1616L63.5998 13.0079L64.9513 14.5492L66.3028 16.0905L65.2543 15.7103C64.6779 15.501 62.4401 14.9624 60.2813 14.5134L56.356 13.6966L55.7273 12.5713L55.0993 11.4453L54.0021 12.3585L52.9048 13.271L52.9268 11.9811C52.9385 11.2724 53.4023 10.09 53.9574 9.35513C54.5119 8.61961 54.966 7.76771 54.966 7.46124C54.966 6.5625 52.3703 6.82283 51.9312 7.76495L51.5307 8.62581L51.1301 7.76495C50.9096 7.29182 50.1366 6.90409 49.4124 6.90409H48.0953V7.85311C48.0953 8.37444 48.535 9.16712 49.0723 9.61477C49.6103 10.0617 50.3668 11.3392 50.7543 12.4535L51.4592 14.4797H49.8336C48.939 14.4797 47.7566 14.6532 47.2048 14.8653L46.2024 15.251L45.7153 12.6471L45.2274 10.0431L45.9743 9.79383C46.8098 9.51422 47.0118 7.59072 46.2058 7.59691C45.9228 7.59898 44.5314 7.92335 43.114 8.31797L40.5375 9.03489V9.95498C40.5375 10.4612 41.1558 11.0376 41.9116 11.2359L43.2858 11.5961V12.8998C43.2858 13.6174 43.5846 14.5038 43.9495 14.8695L44.6132 15.5347L42.26 16.273C40.9655 16.6786 40.0634 16.7578 40.2537 16.4479C40.4447 16.1387 40.229 14.6394 39.7734 13.1167L38.9455 10.3475H37.6057H36.2659L36.7304 12.2414C36.986 13.2827 37.5961 14.95 38.0853 15.9466L38.9757 17.7578L36.4954 18.943L34.0144 20.129L35.2147 18.7998C36.6878 17.1683 36.7668 15.2606 35.3844 14.729C34.8176 14.5106 34.3538 13.9005 34.3538 13.3729C34.3538 11.9102 32.5873 12.2256 30.4478 14.0699L28.5267 15.7269L29.7222 17.0512C30.3804 17.7798 30.9184 18.7392 30.9184 19.1827C30.9184 19.6262 31.5959 19.9892 32.4238 19.9892H33.9292L32.5956 20.974L31.2619 21.9588L31.0331 21.3183C30.9067 20.9664 30.3584 20.6778 29.8136 20.6778C29.2687 20.6778 28.5294 19.9031 28.1701 18.9561C27.3518 16.7992 26.0312 16.7751 23.6004 18.8707L21.7027 20.5071L23.7337 22.9533L25.7653 25.3995L26.7211 25.0889L27.6775 24.7783L26.8021 25.8354L25.9268 26.8933L25.0597 26.1715C24.5822 25.7748 23.7845 25.5386 23.2864 25.6467C22.7882 25.7549 22.0641 25.1454 21.6765 24.2935C20.7277 22.2033 19.8675 22.3582 18.0632 24.945L16.5455 27.1226L19.0938 29.378L21.6429 31.6342L23.23 29.7713L24.8172 27.9091L22.4316 32.3855C19.1474 38.5486 17.8083 42.8033 17.1205 49.2584L16.5331 54.7679L17.2298 59.1851C18.6781 68.3722 24.857 78.2873 32.2836 83.3422C36.9873 86.5439 36.9908 86.5563 34.722 91.4405C32.7179 95.7558 32.9803 95.7076 29.3574 92.4219C27.7592 90.9729 24.9065 88.6245 23.017 87.2037L19.5817 84.6191L16.7049 80.0234C15.1225 77.4966 13.0146 74.1262 12.0204 72.534L10.2134 69.6394L8.88183 62.2367L7.54959 54.8333L7.9955 48.2584L8.44072 41.6828L10.4456 36.1733C14.2637 25.6777 17.9031 21.0752 27.8362 14.1815L34.1593 9.79314L39.1606 7.98533C47.3979 5.00676 51.7175 4.49507 59.4843 5.57768ZM29.187 6.23744C28.9204 6.66994 29.0255 7.3483 29.4206 7.74429C30.344 8.66989 32.4966 7.86275 32.1208 6.73123C31.7388 5.58044 29.7943 5.25262 29.187 6.23744ZM77.6395 7.59278V9.07139L78.8419 8.83931C79.5036 8.71121 80.0443 8.15062 80.0443 7.59278C80.0443 7.03494 79.5036 6.47435 78.8419 6.34626L77.6395 6.11417V7.59278ZM263.454 7.74636L264.524 9.27662V28.0626V46.848H259.715H254.905V27.6136V8.37995L255.984 7.29734L257.065 6.21541H259.725H262.385L263.454 7.74636ZM368.39 7.35518L369.647 8.49496V27.6715V46.848H364.837H360.028V27.7913V8.73394L361.165 7.47502L362.302 6.21541H364.718H367.134L368.39 7.35518ZM26.3397 7.98327C26.1123 8.57692 26.2765 9.41367 26.7046 9.84272L27.483 10.623L28.2615 9.84272C29.1409 8.9612 28.5961 6.90409 27.483 6.90409C27.0811 6.90409 26.5671 7.38962 26.3397 7.98327ZM461.155 8.95776L462.402 10.5004L462.333 26.0916C462.247 45.8762 461.967 46.7502 455.359 47.9216L452.783 48.3789V27.5537V6.72917L456.346 7.07213L459.91 7.4151L461.155 8.95776ZM80.6187 8.67195C80.3913 9.2656 80.5555 10.1024 80.9835 10.5314L81.762 11.3117L82.5404 10.5314C83.4199 9.64989 82.8751 7.59278 81.762 7.59278C81.3601 7.59278 80.8461 8.07831 80.6187 8.67195ZM23.4361 9.91159L22.6563 10.8537L23.6045 11.6423L24.5526 12.4308L25.3895 11.4191C26.2202 10.4164 25.8595 8.97016 24.778 8.97016C24.4688 8.97016 23.8649 9.3937 23.4361 9.91159ZM59.0885 11.0865V12.5148L60.2833 12.2841C60.9402 12.1574 61.5812 11.5149 61.7076 10.8565L61.9378 9.65884H60.5128H59.0885V11.0865ZM83.367 10.738C83.1396 11.3317 83.2907 12.1553 83.703 12.5686L84.4519 13.3192L85.5203 12.4308L86.5887 11.5424L85.8089 10.6003C84.7796 9.35789 83.8761 9.40885 83.367 10.738ZM20.8431 12.1154C20.6157 12.709 20.7799 13.5458 21.208 13.9749L21.9864 14.7551L22.7649 13.9749C23.6443 13.0933 23.0995 11.0362 21.9864 11.0362C21.5845 11.0362 21.0705 11.5217 20.8431 12.1154ZM68.7076 12.4136V13.791H67.6769C66.6312 13.791 66.2678 12.3344 67.1046 11.4956C67.9751 10.6223 68.7076 11.0417 68.7076 12.4136ZM72.3855 14.4597L70.9103 17.1834L71.9368 18.0374L72.9633 18.8914L73.5817 17.7826L74.2007 16.6738L75.5769 17.0347L76.9525 17.3949V16.6263C76.9525 16.2028 77.4162 15.857 77.9831 15.857C79.7331 15.857 79.1147 14.198 76.8927 12.9301C74.0825 11.3268 74.0819 11.3275 72.3855 14.4597ZM86.0136 13.6112C86.14 14.2696 86.7811 14.9122 87.4379 15.0389L88.6327 15.2696V13.8412V12.4136H87.2084H85.7834L86.0136 13.6112ZM17.864 15.1181V16.5457H16.4397H15.0147L15.2373 17.6938C15.3596 18.3253 15.866 18.9775 16.3634 19.1435L17.2676 19.4458L17.6297 18.0595C17.8282 17.2971 18.6136 16.5099 19.3742 16.3109L20.7572 15.9479L20.4556 15.0416C20.29 14.543 19.6394 14.0355 19.0093 13.9129L17.864 13.6897V15.1181ZM88.8547 15.5822L88.4328 16.6848L89.3858 17.275L90.3388 17.8659L90.9509 17.2523C91.7012 16.5003 91.0128 14.4797 90.0069 14.4797C89.605 14.4797 89.0869 14.9755 88.8547 15.5822ZM51.8398 16.4927C51.4805 16.8425 50.2596 17.2296 49.1259 17.3536L47.0647 17.5788L47.2364 18.4396L47.4082 19.3005L44.1446 19.2798L40.881 19.2585L42.0284 18.5877C43.0439 17.9933 50.1201 16.0657 51.8398 15.9142L52.4926 15.857L51.8398 16.4927ZM61.8368 16.9679C61.8368 17.1146 60.9092 17.2344 59.7756 17.2344C58.6419 17.2344 57.7143 16.9782 57.7143 16.6649C57.7143 16.3515 58.6419 16.2324 59.7756 16.399C60.9092 16.5657 61.8368 16.8219 61.8368 16.9679ZM67.3334 16.2014C67.3334 16.3908 67.1788 16.5457 66.9899 16.5457C66.8009 16.5457 66.6463 16.3908 66.6463 16.2014C66.6463 16.012 66.8009 15.857 66.9899 15.857C67.1788 15.857 67.3334 16.012 67.3334 16.2014ZM54.0612 18.0526L53.7004 18.9561L53.6462 17.6359C53.6166 16.91 53.7788 16.5037 54.0069 16.7324C54.235 16.961 54.2597 17.5553 54.0612 18.0526ZM33.4379 17.6938C33.1857 17.9458 32.7735 17.9458 32.5213 17.6938C32.2699 17.441 32.476 17.2344 32.9796 17.2344C33.4833 17.2344 33.6894 17.441 33.4379 17.6938ZM66.6463 18.6745L67.6769 19.2585L65.2152 19.2798L62.7527 19.3005V18.2578V17.2144L64.1845 17.6518C64.9719 17.8928 66.0795 18.3528 66.6463 18.6745ZM91.0238 17.9451C90.7572 18.3776 90.8623 19.056 91.2574 19.452C92.1808 20.3776 94.3334 19.5704 93.9576 18.4389C93.5756 17.2881 91.6311 16.9603 91.0238 17.9451ZM57.4856 19.0711C57.2334 19.3232 56.8211 19.3232 56.569 19.0711C56.3175 18.8184 56.5236 18.6118 57.0273 18.6118C57.5309 18.6118 57.737 18.8184 57.4856 19.0711ZM80.3604 19.6779L79.5462 20.6613L80.6208 21.0752C81.7799 21.5208 83.1361 20.9533 83.1361 20.0222C83.1361 18.9375 81.1752 18.6944 80.3604 19.6779ZM13.0544 20.2185C13.0544 20.724 13.2393 21.3225 13.4653 21.5483C14.1338 22.2191 15.8027 21.2984 15.8027 20.2598V19.3005H14.4286H13.0544V20.2185ZM44.5335 20.9884C44.4139 21.0828 40.6838 22.7928 36.2432 24.7893C31.8027 26.7858 28.1701 28.6914 28.1701 29.0247C28.1701 29.9793 29.6363 29.7176 32.9796 28.1666C38.5546 25.5806 46.7211 22.1034 46.7211 22.3149C46.7211 22.4292 44.2566 24.301 41.2445 26.4752L35.7678 30.4276L32.8278 30.2114L29.8878 29.9951L29.6748 32.5591L29.4625 35.1231L25.3387 38.3034C20.0454 42.386 19.761 41.917 23.2506 34.8586L26.1151 29.064L29.6782 25.8533C31.6378 24.0875 34.2507 22.1227 35.4847 21.4877L37.728 20.3335L41.239 20.5752C43.1703 20.7082 44.6524 20.8941 44.5335 20.9884ZM50.1565 22.8507C50.1565 23.1709 49.7958 23.4326 49.3547 23.4326C48.9143 23.4326 48.7604 23.2253 49.0132 22.9719C49.2654 22.7184 48.9308 21.8665 48.2684 21.078L47.0647 19.6448L48.6106 20.9568C49.4605 21.6785 50.1565 22.5304 50.1565 22.8507ZM52.9048 21.3996C52.9048 22.6427 51.6667 22.6516 51.3431 21.4106L50.9989 20.0925L51.9518 20.4588C52.4761 20.6606 52.9048 21.0835 52.9048 21.3996ZM78.2132 25.5179C79.5984 26.8678 81.6589 29.4827 82.7926 31.3284C83.9263 33.1741 85.4193 35.5542 86.1098 36.6175C86.8003 37.6809 87.2641 39.0341 87.1404 39.6257L86.9151 40.7001L82.9644 37.7883L79.0137 34.8758V32.3105V29.7458L79.8725 29.438C81.2254 28.9538 80.4023 28.4483 71.8104 24.4849L63.7345 20.7598L67.0799 20.5387L70.4252 20.317L73.0602 21.6902C74.5092 22.445 76.8281 24.1674 78.2132 25.5179ZM93.5728 21.1944C93.7006 21.8569 94.2599 22.3996 94.8164 22.3996C95.373 22.3996 95.9322 21.8569 96.06 21.1944L96.2916 19.9892H94.8164H93.3413L93.5728 21.1944ZM11.1471 22.1764L10.3391 22.9863L11.1004 23.9071L11.8624 24.8272L12.7611 24.0793C13.2557 23.6681 13.4907 22.8899 13.2839 22.3493C12.8263 21.1544 12.2162 21.1048 11.1471 22.1764ZM28.7589 22.6682L29.6913 23.2604L29.0083 23.6833C28.6332 23.9161 27.9441 23.6447 27.4768 23.0807C26.5493 21.9609 27.2769 21.7274 28.7589 22.6682ZM84.1915 23.4051L82.9733 24.7542L83.4062 26.4842C83.8342 28.1935 86.3146 30.1177 87.0896 29.3415C87.3094 29.1205 87.0731 28.1598 86.5633 27.2052L85.6371 25.4711L86.4705 24.6357L87.3039 23.8004L87.7045 25.3382L88.1058 26.876H89.4002C90.9097 26.876 90.9674 26.6171 89.9038 24.5923C88.3936 21.7171 86.1393 21.2481 84.1915 23.4051ZM60.4626 23.0883C60.4626 23.2776 60.3081 23.4326 60.1191 23.4326C59.9302 23.4326 59.7756 23.2776 59.7756 23.0883C59.7756 22.8989 59.9302 22.7439 60.1191 22.7439C60.3081 22.7439 60.4626 22.8989 60.4626 23.0883ZM71.3961 26.1874L78.4475 29.2864L75.2732 29.4972L72.099 29.7079L67.655 26.4373C65.211 24.6385 63.211 23.0462 63.211 22.8982C63.211 22.5731 62.7472 22.3865 71.3961 26.1874ZM95.5035 24.1213V25.4987H96.6076H97.7118L97.3483 26.4477C96.879 27.6728 98.1439 28.9407 99.3662 28.4703C100.597 27.9965 100.587 26.2493 99.3504 25.7734C98.8207 25.5703 98.2312 24.8052 98.0402 24.0738C97.8492 23.3424 97.2006 22.7439 96.5987 22.7439H95.5035V24.1213ZM56.3402 23.7769C56.3402 23.9663 56.1856 24.1213 55.9967 24.1213C55.8077 24.1213 55.6531 23.9663 55.6531 23.7769C55.6531 23.5876 55.8077 23.4326 55.9967 23.4326C56.1856 23.4326 56.3402 23.5876 56.3402 23.7769ZM9.40606 24.5641C9.14566 24.8258 8.93198 25.5744 8.93198 26.2287C8.93198 26.8822 8.46821 27.5957 7.90137 27.814C7.33453 28.0317 6.87076 28.6845 6.87076 29.2651V30.3195H8.24491H9.61906V29.19C9.61906 28.5688 10.1605 27.6584 10.8214 27.166L12.0238 26.2714L10.952 25.1798C10.3632 24.58 9.66715 24.3024 9.40606 24.5641ZM44.8997 26.9594C43.3428 28.5206 41.6794 29.668 41.2039 29.5089L40.3403 29.2203L43.7021 26.6922C48.0747 23.4037 48.3797 23.4719 44.8997 26.9594ZM68.0205 28.9077L69.7382 30.2892L68.6753 30.3043C68.0906 30.3126 66.3901 29.0296 64.8963 27.4532L62.1803 24.5868L64.2416 26.0565C65.3752 26.8643 67.0758 28.1474 68.0205 28.9077ZM49.4694 26.1874C49.4694 26.5661 49.1417 26.876 48.7418 26.876C48.342 26.876 48.2052 26.5661 48.4388 26.1874C48.6724 25.8086 48.9995 25.4987 49.1664 25.4987C49.3334 25.4987 49.4694 25.8086 49.4694 26.1874ZM54.7943 25.9732L53.5919 26.2886L53.4984 28.4759L53.405 30.6638L53.1006 29.064C52.6774 26.8388 53.3274 25.4842 54.773 25.5786L55.9967 25.6584L54.7943 25.9732ZM62.5239 27.9091C63.4116 28.856 63.852 29.6211 63.5023 29.6094C62.9148 29.5895 60.0834 26.1874 60.6543 26.1874C60.7952 26.1874 61.6362 26.9621 62.5239 27.9091ZM22.6735 27.2204C22.6735 27.4098 22.5189 27.5647 22.33 27.5647C22.141 27.5647 21.9864 27.4098 21.9864 27.2204C21.9864 27.031 22.141 26.876 22.33 26.876C22.5189 26.876 22.6735 27.031 22.6735 27.2204ZM51.5307 27.8877V28.8987L50.4423 28.48L49.354 28.062L50.2706 27.4793C51.4908 26.7039 51.5307 26.717 51.5307 27.8877ZM58.1692 29.1143C57.9789 29.5881 57.8229 29.2004 57.8229 28.2534C57.8229 27.3065 57.9789 26.9194 58.1692 27.3926C58.3602 27.8664 58.3602 28.6411 58.1692 29.1143ZM47.4082 27.825C47.4082 27.9676 46.8675 28.5103 46.2058 29.0303L45.0034 29.9751L45.9461 28.7699C46.8441 27.6226 47.4082 27.2583 47.4082 27.825ZM59.7756 27.9091C59.7756 28.0985 59.621 28.2534 59.432 28.2534C59.2431 28.2534 59.0885 28.0985 59.0885 27.9091C59.0885 27.7197 59.2431 27.5647 59.432 27.5647C59.621 27.5647 59.7756 27.7197 59.7756 27.9091ZM14.7123 29.8835L14.2616 31.0591L15.5478 32.5143L16.8334 33.9688L15.0153 33.5267L13.198 33.0839L12.7666 34.2106C12.2011 35.6871 12.177 35.6747 16.0391 35.9109L19.368 36.1141L19.9616 35.0508L20.5552 33.9867L17.8592 31.3477L15.1624 28.7079L14.7123 29.8835ZM48.7824 29.2864C48.7824 29.4758 48.6278 29.6308 48.4388 29.6308C48.2499 29.6308 48.0953 29.4758 48.0953 29.2864C48.0953 29.0971 48.2499 28.9421 48.4388 28.9421C48.6278 28.9421 48.7824 29.0971 48.7824 29.2864ZM60.4626 29.2864C60.4626 29.4758 60.3081 29.6308 60.1191 29.6308C59.9302 29.6308 59.7756 29.4758 59.7756 29.2864C59.7756 29.0971 59.9302 28.9421 60.1191 28.9421C60.3081 28.9421 60.4626 29.0971 60.4626 29.2864ZM90.1917 29.6494C86.4465 30.1838 84.9693 32.3855 88.3559 32.3855H89.372L89.1742 34.2071C88.878 36.9343 90.2577 36.8765 92.3911 34.0735L94.2874 31.5805L93.6931 30.4076L93.0987 29.2348L90.1917 29.6494ZM98.9389 30.3195V31.6969H100.313H101.687V30.3195V28.9421H100.313H98.9389V30.3195ZM56.1114 30.7788C55.8592 31.0309 55.6531 30.8243 55.6531 30.3195C55.6531 29.8147 55.8592 29.6081 56.1114 29.8601C56.3629 30.1129 56.3629 30.5261 56.1114 30.7788ZM5.4966 32.3855V33.7629H6.87076H8.24491V32.3855V31.0082H6.87076H5.4966V32.3855ZM51.4283 31.7643L53.5919 32.5205V52.0634V71.6063L51.3589 71.18C48.3392 70.6043 48.1049 70.2634 50.7288 70.2634C52.9776 70.2634 53.8365 68.9617 51.7024 68.7882C51.0408 68.7338 49.4591 68.6043 48.186 68.5003C46.9135 68.3963 45.538 67.9755 45.1285 67.5651L44.3851 66.8199H45.2501C45.7256 66.8199 45.9241 66.51 45.6905 66.1312C45.4569 65.7525 44.4339 65.4377 43.417 65.4322L41.5681 65.4212L42.4633 64.8523C42.9553 64.5397 43.2645 63.955 43.1504 63.5542C42.9154 62.7326 43.0906 62.6837 46.2058 62.6981L48.4388 62.7091L47.4082 63.371C46.8414 63.736 45.8369 63.8648 45.1752 63.6588C44.5136 63.4522 43.9728 63.5762 43.9728 63.9336C43.9728 64.4288 51.4647 65.5989 51.9807 65.1836C52.0391 65.1368 52.1937 64.4977 52.3242 63.7635L52.5613 62.4295L50.1565 61.871C48.8339 61.5639 45.6211 61.1272 43.0164 60.9L38.2811 60.4868L38.6446 61.88L39.008 63.2732L38.0551 62.9068L37.1021 62.5404V47.1517V31.7623L41.3963 31.5178C43.7585 31.3835 46.4944 31.2141 47.4776 31.1411C48.4601 31.0681 50.2383 31.3484 51.4283 31.7643ZM67.4481 32.1617L71.4559 32.5818V42.125V51.6688L70.597 51.7501C70.125 51.7955 69.429 51.7521 69.0511 51.655C68.3036 51.4622 62.3432 51.0504 58.2297 50.9071C56.8129 50.8582 55.6531 50.5442 55.6531 50.2102C55.6531 49.4567 56.4797 49.3975 64.4133 49.5779L70.7688 49.7233V48.9216V48.12L68.5358 48.2426C67.308 48.3101 66.1482 48.3094 65.9593 48.2412C65.7703 48.173 63.472 47.9816 60.8522 47.8156C58.2317 47.6496 55.9389 47.3638 55.7562 47.1806C54.9241 46.3466 56.6611 45.9919 61.1229 46.0835L65.9593 46.1834V45.4665V44.7496L63.5724 45.0133C62.2594 45.1579 61.0061 45.0973 60.7869 44.8776C60.5685 44.658 59.3235 44.5705 58.0208 44.6827L55.6531 44.8873V44.1463V43.4045H63.211H70.7688V42.7758V42.147H64.5075H58.2461L57.4993 41.3984L56.7524 40.6498L58.0922 40.5685C58.8295 40.5231 59.7412 40.5527 60.1191 40.634C60.497 40.7152 63.0783 40.9211 65.8555 41.0919L70.9041 41.4018L70.6053 40.5093L70.3064 39.6168L67.2743 39.5286C65.6061 39.4804 62.2319 39.3709 59.7756 39.2862L55.3096 39.1312L57.6532 38.5775C58.9428 38.2731 60.4111 38.1829 60.9168 38.3771L61.8368 38.7311V37.5548V36.3792L58.745 36.6258C57.0444 36.7608 55.6531 36.6375 55.6531 36.3503C55.6531 35.7711 56.85 35.6926 65.1004 35.7284L70.7688 35.7532V34.9302V34.1073H63.211C56.053 34.1073 54.6143 33.7994 56.4522 32.6603C57.7329 31.867 61.4074 31.1259 62.4668 31.4469C63.0028 31.6094 65.244 31.931 67.4481 32.1617ZM77.4643 48.3652C77.3365 51.5076 77.2314 49.1207 77.2307 43.0602C77.23 36.9997 77.3338 34.4282 77.4623 37.3462C77.5908 40.2634 77.5914 45.222 77.4643 48.3652ZM100.442 33.5832C100.569 34.2416 101.21 34.8841 101.867 35.0108L103.061 35.2415V33.8132V32.3855H101.637H100.212L100.442 33.5832ZM38.0599 34.7381C37.8544 35.2739 37.7871 36.5914 37.9094 37.665L38.1327 39.6168L44.3164 40.4019C47.7174 40.8337 50.8092 41.2985 51.1871 41.4349C51.565 41.5713 51.9697 41.3729 52.0865 40.9941C52.3593 40.1092 49.9215 39.4281 46.1653 39.3413L43.2047 39.2724L43.6011 38.6292C43.9625 38.0431 45.6816 38.1168 51.0154 38.9446C52.0549 39.1058 52.9048 38.966 52.9048 38.634C52.9048 37.6512 49.2406 36.663 46.1543 36.8124L43.2858 36.9522V36.0459V35.1403H45.9894C47.4762 35.1403 49.5292 35.4592 50.5509 35.8483C52.7543 36.6878 53.4366 36.2677 52.2315 34.8125L51.3623 33.7629H44.8976H38.4329L38.0599 34.7381ZM4.25162 35.6492C4.37805 36.3076 5.01909 36.9502 5.67593 37.0769L6.87076 37.3076V35.8793V34.4516H5.44645H4.02145L4.25162 35.6492ZM92.7552 36.2966C89.6297 37.6526 89.7465 37.4288 90.6789 40.2593L91.4875 42.7159H92.5395H93.5914L93.153 40.9652L92.7147 39.2153L94.7958 38.4873L96.8777 37.7601V36.4502C96.8777 34.9096 96.0236 34.8779 92.7552 36.2966ZM101.818 37.0342C101.946 37.6967 102.505 38.2394 103.061 38.2394C103.618 38.2394 104.177 37.6967 104.305 37.0342L104.536 35.829H103.061H101.586L101.818 37.0342ZM68.8793 37.0121C67.5237 37.4997 67.8789 38.5837 69.3946 38.5837C70.1504 38.5837 70.7688 38.2924 70.7688 37.9357C70.7688 37.0542 69.9189 36.6389 68.8793 37.0121ZM11.4728 37.6444C10.2031 38.9171 11.714 40.1243 15.631 40.9673L17.864 41.448V40.1016V38.7559L15.9745 38.3737C14.935 38.1636 13.6048 37.8055 13.0187 37.5776C12.4319 37.3496 11.7366 37.3799 11.4728 37.6444ZM62.5239 37.9756V38.7442L63.8973 38.3847C64.6524 38.1864 65.4474 38.3103 65.6624 38.6595C66.1166 39.3964 67.3334 38.8096 67.3334 37.8544C67.3334 37.4977 66.2513 37.2064 64.9286 37.2064H62.5239V37.9756ZM3.0781 38.6058C2.81151 39.0383 2.91664 39.7166 3.3117 40.1126C4.23513 41.0382 6.38774 40.2311 6.01191 39.0996C5.6299 37.9488 3.68547 37.6209 3.0781 38.6058ZM29.5147 40.4776L29.4845 43.0602L24.0339 48.914L18.5826 54.7679L18.5668 53.1026C18.5394 50.1929 20.0441 42.7083 20.5896 43.0457C20.8775 43.2248 22.7786 42.1649 24.8137 40.6918C29.4412 37.3413 29.5504 37.3365 29.5147 40.4776ZM84.4313 41.0031L87.923 43.5175L88.5792 46.0436C88.9406 47.4327 89.4531 49.8093 89.7183 51.3245L90.2013 54.0792L88.7035 52.7438L87.2064 51.4078L87.631 49.4726L88.0549 47.5367H87.0099C86.4355 47.5367 85.7573 47.8748 85.5024 48.288L85.0387 49.0401L82.0567 45.7055L79.0755 42.3715L79.0446 40.0596L79.0137 37.7477L79.9763 38.1182C80.506 38.3213 82.5109 39.6202 84.4313 41.0031ZM2.36766 42.0871C1.76785 43.0595 3.09253 44.3873 4.06268 43.7861C5.15238 43.1112 4.97649 41.3385 3.81945 41.3385C3.2746 41.3385 2.62188 41.6752 2.36766 42.0871ZM38.4762 42.3818V43.2165L43.5235 43.2324C46.2993 43.2413 49.6227 43.4651 50.9096 43.7303L53.2484 44.2131L51.6337 43.0327L50.0184 41.8522L44.2477 41.6994L38.4762 41.5472V42.3818ZM56.3402 41.6828C56.3402 41.8722 56.1856 42.0272 55.9967 42.0272C55.8077 42.0272 55.6531 41.8722 55.6531 41.6828C55.6531 41.4934 55.8077 41.3385 55.9967 41.3385C56.1856 41.3385 56.3402 41.4934 56.3402 41.6828ZM10.1302 42.4335C9.25834 43.3074 9.56547 44.0932 10.7795 44.0932H11.9393L10.436 45.4975C8.29919 47.4926 8.51905 47.8989 12.1901 48.7405L15.4489 49.4877L15.9587 48.6847C16.7866 47.3796 16.5791 46.9616 14.9439 46.6393L13.398 46.3342L14.8965 45.8342C16.1896 45.4031 17.5802 43.565 17.0216 43.0258C16.4802 42.5037 10.5672 41.9955 10.1302 42.4335ZM94.9882 42.9383L92.0681 43.6001V44.9534V46.3067L93.05 45.9293C93.59 45.7213 95.1359 45.3439 96.4853 45.0898L98.9389 44.6283V43.7131C98.9389 42.3502 98.212 42.2076 94.9882 42.9383ZM103.668 43.1635L102.718 44.3171L103.575 44.6063L104.433 44.8962L104.035 46.4857L103.637 48.0752L104.44 48.5725C104.881 48.8459 105.594 48.7171 106.024 48.286L106.806 47.5022L106.014 46.2302L105.221 44.9589L105.888 44.2902L106.555 43.6215L105.586 42.8157L104.618 42.0099L103.668 43.1635ZM38.4762 45.1022V46.1359L43.4575 46.0085C46.1969 45.9389 49.444 46.1235 50.6718 46.4196L52.9048 46.9575V46.2605C52.9048 45.2165 51.0559 44.8143 44.4552 44.4231L38.4762 44.0684V45.1022ZM1.70395 45.4926C1.43736 45.9251 1.54248 46.6035 1.93755 46.9995C2.86098 47.9251 5.01359 47.1179 4.63776 45.9864C4.25575 44.8356 2.31132 44.5078 1.70395 45.4926ZM66.6463 45.8149V46.848H68.364H70.0817V45.8149V44.7819H68.364H66.6463V45.8149ZM26.4064 60.0983C24.6495 62.9812 23.3475 65.7469 23.5131 66.2449L23.814 67.1512L26.5074 63.0755L29.2007 58.9999L29.4288 60.5666L29.6576 62.1341L28.3178 63.0748C27.5806 63.5927 26.785 64.9818 26.5493 66.1622C26.3136 67.3433 25.5434 69.0451 24.8371 69.9445L23.5536 71.5801L22.6893 69.7165C20.8843 65.8234 19.2381 60.3215 19.2381 58.1831V55.96L24.2194 51.0889L29.2007 46.2185L29.4007 50.538L29.6013 54.8581L26.4064 60.0983ZM80.3397 48.0532C80.3129 49.0952 80.023 50.5669 79.6946 51.3245L79.0975 52.7018L79.1669 49.4306C79.2054 47.6317 79.4953 46.1593 79.8121 46.1593C80.1288 46.1593 80.3658 47.0112 80.3397 48.0532ZM38.4762 47.5415C38.4762 47.9175 39.017 48.2474 39.6786 48.2749C47.2055 48.5828 50.1558 48.8211 51.4132 49.2212L52.9048 49.6957V49.0008C52.9048 47.6785 51.2009 47.2681 44.853 47.0635L38.4762 46.8576V47.5415ZM93.2135 47.3073C92.9613 47.5594 92.7552 48.3555 92.7552 49.0752V50.3844L94.1294 49.9471L95.5035 49.5098V51.0077V52.5049L96.5341 52.1082C97.101 51.8906 97.5647 52.0124 97.5647 52.3788C97.5647 52.7459 98.0285 53.0462 98.5953 53.0462H99.626V49.9471V46.848H96.6489C95.0109 46.848 93.465 47.0546 93.2135 47.3073ZM1.50332 49.423C1.62974 50.0814 2.27078 50.7239 2.92763 50.8506L4.12245 51.0813V49.653V48.2254H2.69815H1.27315L1.50332 49.423ZM38.4762 50.6358V51.6688H40.5375H42.5987V50.6358V49.6027H40.5375H38.4762V50.6358ZM104.078 50.3135C103.812 50.746 103.917 51.4243 104.312 51.8203C105.235 52.7459 107.388 51.9388 107.012 50.8072C106.63 49.6564 104.686 49.3286 104.078 50.3135ZM9.2659 50.8754C9.08245 51.0593 8.93198 51.6227 8.93198 52.1281V53.0462H11.3367H13.7415V54.0792V55.1122H11.3367H8.93198V56.1666C8.93198 57.637 10.4209 58.055 13.1424 57.3484L15.4592 56.7465V54.0351V51.3245L12.5295 50.9326C10.9176 50.717 9.44935 50.6909 9.2659 50.8754ZM43.2858 51.0497C43.2858 51.3906 44.7547 51.6729 46.5494 51.6784C48.344 51.6833 50.5502 51.885 51.451 52.1268L53.089 52.5662L52.7674 51.6013L52.4459 50.6358L47.8658 50.5331L43.2858 50.4312V51.0497ZM1.37415 52.9959V54.4235H2.79846H4.22345L3.99328 53.2259C3.86686 52.5675 3.22582 51.925 2.56898 51.7983L1.37415 51.5676V52.9959ZM83.7772 54.8168L82.2093 56.4896H80.2683C78.0628 56.4896 77.665 55.4153 79.6376 54.7879C80.3583 54.5585 81.1477 53.8492 81.3917 53.2115L81.8362 52.0517L82.5219 53.0655L83.2076 54.0792L84.0293 52.8706L84.8511 51.6612L85.0977 52.4029C85.2338 52.8106 84.6395 53.8974 83.7772 54.8168ZM38.4762 53.3471V54.4235H40.938H43.4005L43.1181 53.5627C42.9635 53.0896 41.8553 52.6047 40.6563 52.4863L38.4762 52.27V53.3471ZM44.3171 53.0448C43.6417 54.1405 43.8334 54.2142 48.2671 54.5668L52.2177 54.8815V53.9635V53.0462H49.5258C48.0451 53.0462 46.3755 52.8699 45.8163 52.655C45.257 52.4394 44.5823 52.6151 44.3171 53.0448ZM66.9899 53.0193L69.0511 53.5186L67.8473 54.0455C67.185 54.3347 65.8404 54.3705 64.8599 54.1233L63.0763 53.6749L63.3724 54.5654C63.5359 55.0558 64.0299 55.4951 64.4704 55.5427C64.9115 55.5902 65.736 55.6673 66.3028 55.7148C66.8696 55.7624 67.3334 56.1108 67.3334 56.4896C67.3334 56.8684 66.8696 57.1783 66.3028 57.1783C65.736 57.1783 65.2722 57.4882 65.2722 57.867C65.2722 58.2458 65.8905 58.5557 66.6463 58.5557C67.4021 58.5557 68.0205 58.9055 68.0205 59.3325V60.1093L65.2722 59.6686L62.5239 59.2278V60.5494V61.8703L61.1497 61.5101L59.7756 61.15V62.1892C59.7756 62.7615 59.3118 63.4075 58.745 63.6258C58.1781 63.8434 57.7143 63.7215 57.7143 63.3551C57.7143 62.9881 58.0235 62.6878 58.4014 62.6878C60.0511 62.6878 58.9002 61.3035 57.199 61.2416L55.3096 61.1734L57.0273 60.639C57.972 60.3449 59.441 60.2547 60.2909 60.4379L61.8368 60.7712V60.0074V59.2444L59.6038 59.1631C58.376 59.1176 56.9847 59.1314 56.512 59.1927C56.0399 59.2547 55.6531 58.9813 55.6531 58.586C55.6531 57.7368 58.1355 57.502 62.1206 57.9744L64.1213 58.2113L64.4106 57.3505L64.6998 56.4896H60.1761H55.6531V55.8009C55.6531 55.4221 56.5807 55.1122 57.7143 55.1122C58.848 55.1122 59.7756 54.8023 59.7756 54.4235C59.7756 54.0448 58.848 53.7349 57.7143 53.7349C56.5807 53.7349 55.6531 53.4249 55.6531 53.0462V52.3575L60.2909 52.4387C62.842 52.4835 65.8562 52.7452 66.9899 53.0193ZM74.2042 53.2218C74.2042 53.6977 73.122 54.4263 71.7994 54.8409C68.9343 55.7396 68.621 54.8884 71.2841 53.4401C73.6298 52.1646 74.2042 52.1213 74.2042 53.2218ZM104.078 53.7569C103.812 54.1894 103.917 54.8677 104.312 55.2637C105.235 56.1893 107.388 55.3822 107.012 54.2507C106.63 53.0999 104.686 52.7721 104.078 53.7569ZM60.4626 54.4235C60.4626 54.8023 60.9264 55.1122 61.4933 55.1122C62.0601 55.1122 62.5239 54.8023 62.5239 54.4235C62.5239 54.0448 62.0601 53.7349 61.4933 53.7349C60.9264 53.7349 60.4626 54.0448 60.4626 54.4235ZM88.9797 57.867C88.3847 61.3325 85.8844 68.8047 85.1713 69.2462C84.838 69.4528 84.893 68.6794 85.2936 67.5279L86.0219 65.4336L83.7421 61.8724L81.4624 58.3112L82.4532 57.9806C82.998 57.7981 84.2252 56.8408 85.1795 55.8519L86.9151 54.0551L88.1539 54.7555L89.3933 55.4566L88.9797 57.867ZM94.2565 54.2059C93.7597 54.4049 93.0561 55.3519 92.6927 56.3105L92.0317 58.0529L93.096 59.6817L94.161 61.3104H95.8237H97.4871L98.5562 59.7795C100.971 56.3243 98.1371 52.6502 94.2565 54.2059ZM1.62699 56.1342C1.38721 56.7596 1.51775 57.5977 1.91625 57.9971C2.31476 58.3966 2.47622 59.1548 2.27422 59.6817C2.07222 60.2085 2.26598 61.0728 2.70502 61.6024L3.50202 62.5652L2.7483 63.0321L1.99458 63.4991L2.80602 64.4791L3.61745 65.4598L4.56562 64.6712L5.51378 63.8827L4.76143 62.9736L4.00909 62.0652L4.45569 60.6548L4.90228 59.2444H4.21109C3.83113 59.2444 3.57829 58.4262 3.64975 57.4255L3.77892 55.6067L2.92076 55.3023C2.44805 55.135 1.8661 55.5089 1.62699 56.1342ZM38.4762 56.4641V57.1273L42.923 57.0929C45.369 57.0743 48.4814 57.4262 49.8398 57.8759C52.6946 58.8201 53.8592 58.2038 51.9134 56.7775L50.5811 55.8009H44.5287H38.4762V56.4641ZM97.2583 57.2382C97.5118 57.65 97.3888 58.3188 96.9841 58.7244L96.249 59.4613L95.1964 58.586C94.6179 58.1046 94.3142 57.4359 94.521 57.1005C95.0439 56.252 96.7018 56.336 97.2583 57.2382ZM104.115 57.1418C103.51 58.1218 104.281 59.2444 105.557 59.2444H106.598L106.375 58.0963C106.108 56.7127 104.736 56.1342 104.115 57.1418ZM71.4559 58.6934V60.2085L70.6911 59.442C70.2707 59.0205 70.1346 58.3387 70.3881 57.9269C71.0993 56.774 71.4559 57.0302 71.4559 58.6934ZM38.4762 58.8201V59.8676L43.1161 59.8525C45.6685 59.8449 48.6257 60.1693 49.6879 60.5742C52.1064 61.4957 52.9048 61.5033 52.9048 60.6045C52.9048 59.4895 50.2623 58.7823 44.1446 58.2582L38.4762 57.7726V58.8201ZM79.7008 58.9C79.7008 59.0894 79.5462 59.2444 79.3572 59.2444C79.1683 59.2444 79.0137 59.0894 79.0137 58.9C79.0137 58.7106 79.1683 58.5557 79.3572 58.5557C79.5462 58.5557 79.7008 58.7106 79.7008 58.9ZM12.8401 60.3779C12.5797 60.6383 12.3674 61.287 12.3674 61.82V62.789L13.5697 62.5569C14.2307 62.4288 14.7721 61.8896 14.7721 61.3586C14.7721 60.2712 13.5601 59.6562 12.8401 60.3779ZM103.725 60.6362L102.718 61.2608L103.807 62.3531L104.897 63.4454L105.705 62.4695L106.514 61.4929L105.623 60.7526L104.733 60.0116L103.725 60.6362ZM68.364 61.2732C68.7419 61.3056 68.6443 61.59 68.1476 61.9054C67.0957 62.5742 63.898 62.101 63.898 61.2774C63.898 60.9681 64.7479 60.8283 65.7875 60.9654C66.827 61.1031 67.9861 61.2416 68.364 61.2732ZM76.6089 61.9991C74.5346 63.3758 72.0914 63.7835 71.2099 62.9006C70.6321 62.3207 74.5752 60.8159 76.9525 60.7085L78.6702 60.6307L76.6089 61.9991ZM91.381 62.9171C91.381 63.5039 91.7431 64.2084 92.1856 64.4825L92.9902 64.9804L91.4985 65.5335C90.6782 65.8379 90.0069 66.5823 90.0069 67.1884V68.2903L91.3 67.8791L92.5924 67.4673L92.9957 68.521C93.2176 69.1009 94.0428 69.5747 94.8302 69.5747H96.2607L97.2562 67.1863C98.6482 63.8469 98.4648 63.632 93.0685 62.2746L91.381 61.8497V62.9171ZM49.9277 63.1472C49.6756 63.3992 49.2633 63.3992 49.0112 63.1472C48.7597 62.8944 48.9658 62.6878 49.4694 62.6878C49.9731 62.6878 50.1792 62.8944 49.9277 63.1472ZM81.3971 63.342C81.6191 63.7015 81.1732 64.3324 80.4071 64.7435L79.0137 65.4908V64.0893V62.6878H80.0038C80.5486 62.6878 81.1752 62.9819 81.3971 63.342ZM56.7985 63.8358C56.5463 64.0879 56.1341 64.0879 55.8819 63.8358C55.6304 63.5831 55.8366 63.3765 56.3402 63.3765C56.8438 63.3765 57.0499 63.5831 56.7985 63.8358ZM67.3334 63.7208C67.3334 63.9102 67.1788 64.0652 66.9899 64.0652C66.8009 64.0652 66.6463 63.9102 66.6463 63.7208C66.6463 63.5314 66.8009 63.3765 66.9899 63.3765C67.1788 63.3765 67.3334 63.5314 67.3334 63.7208ZM102.681 64.1251C102.013 65.2084 103.456 66.3909 104.81 65.8702L105.964 65.426L105.116 64.4013C104.111 63.1871 103.315 63.0969 102.681 64.1251ZM33.532 66.3289L32.8388 68.5926L30.467 68.3151L28.0952 68.0375L28.3048 66.5727L28.5136 65.1072L30.5749 64.6678C31.7085 64.426 32.9934 64.1912 33.4303 64.1464L34.2253 64.0652L33.532 66.3289ZM37.3481 64.4674L38.3945 64.8696L37.6627 66.479L36.931 68.0885L36.088 67.7641L35.2442 67.4397L35.5665 65.7525C35.9237 63.8792 35.8873 63.9054 37.3481 64.4674ZM70.7688 64.7539L71.7994 65.4212H70.7688C70.2019 65.4212 69.2744 65.1209 68.7076 64.7539L67.6769 64.0865H68.7076C69.2744 64.0865 70.2019 64.3868 70.7688 64.7539ZM62.2539 65.8434C62.0244 66.4425 61.8368 67.3723 61.8368 67.9094C61.8368 69.4624 59.9762 69.0403 59.5454 67.3888C59.0438 65.468 59.5097 64.7539 61.2638 64.7539H62.6709L62.2539 65.8434ZM65.5182 65.1561L66.5646 65.5582L65.8177 67.2008C64.9211 69.1725 63.898 68.7641 63.898 66.4349C63.898 64.6099 63.964 64.5583 65.5182 65.1561ZM3.66624 66.5217C3.43881 67.1154 3.52813 67.8771 3.86549 68.2152L4.47767 68.8288L5.43064 68.2379L6.38362 67.6477L5.96175 66.5451C5.42309 65.1375 4.20078 65.1251 3.66624 66.5217ZM16.1793 67.2104L15.0236 68.9783L14.0225 68.145C13.4715 67.687 12.8243 67.5093 12.5845 67.7503C11.9826 68.3529 13.6446 73.7068 14.4327 73.7068C14.9253 73.7068 19.2264 71.9348 20.4886 71.2117C20.7593 71.056 17.934 65.4425 17.5857 65.4425C17.4476 65.4425 16.8148 66.238 16.1793 67.2104ZM39.8504 65.7869C39.8504 65.9763 39.6958 66.1312 39.5068 66.1312C39.3179 66.1312 39.1633 65.9763 39.1633 65.7869C39.1633 65.5975 39.3179 65.4425 39.5068 65.4425C39.6958 65.4425 39.8504 65.5975 39.8504 65.7869ZM47.1464 65.999C46.917 66.3709 47.2165 66.8633 47.8122 67.092C49.5127 67.7462 52.2177 67.5795 52.2177 66.8199C52.2177 66.4411 51.8316 66.1271 51.3589 66.1216C50.8869 66.1168 49.8391 65.935 49.0318 65.7173C48.2238 65.5004 47.3759 65.6271 47.1464 65.999ZM56.7985 65.9019C56.5463 66.154 56.1341 66.154 55.8819 65.9019C55.6304 65.6492 55.8366 65.4425 56.3402 65.4425C56.8438 65.4425 57.0499 65.6492 56.7985 65.9019ZM83.8232 66.6911C83.8232 68.0912 80.4387 71.6407 79.1037 71.6407H78.2387L78.4544 69.4025L78.6702 67.1643L80.7314 66.3854C83.6542 65.2814 83.8232 65.2979 83.8232 66.6911ZM95.2747 66.5906C95.0226 66.8426 94.8164 66.636 94.8164 66.1312C94.8164 65.6264 95.0226 65.4198 95.2747 65.6719C95.5262 65.9246 95.5262 66.3378 95.2747 66.5906ZM68.4788 66.5906C68.2266 66.8426 67.8144 66.8426 67.5622 66.5906C67.3107 66.3378 67.5169 66.1312 68.0205 66.1312C68.5241 66.1312 68.7302 66.3378 68.4788 66.5906ZM41.9116 67.1643C41.9116 67.3537 41.757 67.5086 41.5681 67.5086C41.3791 67.5086 41.2245 67.3537 41.2245 67.1643C41.2245 66.9749 41.3791 66.8199 41.5681 66.8199C41.757 66.8199 41.9116 66.9749 41.9116 67.1643ZM71.4559 67.1643C71.4559 67.3537 71.3013 67.5086 71.1123 67.5086C70.9234 67.5086 70.7688 67.3537 70.7688 67.1643C70.7688 66.9749 70.9234 66.8199 71.1123 66.8199C71.3013 66.8199 71.4559 66.9749 71.4559 67.1643ZM102.16 67.2648C101.899 67.5251 101.687 68.1512 101.687 68.6567V69.5747H103.111H104.536L104.314 68.4266C104.069 67.1588 102.896 66.5265 102.16 67.2648ZM57.3708 68.1973C57.1372 68.5761 56.6556 68.886 56.2997 68.886C55.9438 68.886 55.6531 68.5761 55.6531 68.1973C55.6531 67.8185 56.1354 67.5086 56.7243 67.5086H57.7954L57.3708 68.1973ZM39.5776 70.8322L38.4577 71.9541L39.3261 70.0981C39.803 69.0774 40.3073 68.5726 40.4454 68.9762C40.5835 69.3798 40.1932 70.2152 39.5776 70.8322ZM4.34438 69.9886L3.92251 71.0912L4.84869 71.6648C6.07924 72.4272 6.87076 71.8632 6.87076 70.2227V68.886H5.81884C5.23964 68.886 4.57661 69.3818 4.34438 69.9886ZM17.864 69.2303C17.864 69.4197 17.7094 69.5747 17.5204 69.5747C17.3315 69.5747 17.1769 69.4197 17.1769 69.2303C17.1769 69.0409 17.3315 68.886 17.5204 68.886C17.7094 68.886 17.864 69.0409 17.864 69.2303ZM71.4559 69.2303C71.4559 69.4197 71.3013 69.5747 71.1123 69.5747C70.9234 69.5747 70.7688 69.4197 70.7688 69.2303C70.7688 69.0409 70.9234 68.886 71.1123 68.886C71.3013 68.886 71.4559 69.0409 71.4559 69.2303ZM88.8746 69.9362C88.6568 70.5044 88.8856 71.461 89.3823 72.0608L90.2859 73.1524L88.6176 72.9127L86.9487 72.6738L86.7131 73.8604L86.4781 75.047L88.7578 76.4402C91.3742 78.0393 92.3979 77.9333 92.444 76.058C92.4611 75.3328 92.8287 74.8108 93.2609 74.8982C93.9658 75.0401 95.2768 72.4658 94.7072 72.0574C94.5787 71.9651 93.3021 71.2179 91.8716 70.3963L89.2703 68.9032L88.8746 69.9362ZM15.1157 69.919C15.1157 70.1084 14.9611 70.2634 14.7721 70.2634C14.5832 70.2634 14.4286 70.1084 14.4286 69.919C14.4286 69.7296 14.5832 69.5747 14.7721 69.5747C14.9611 69.5747 15.1157 69.7296 15.1157 69.919ZM45.1361 73.1014C44.6867 73.8218 43.7777 74.5835 43.1154 74.7942C42.4537 75.0043 41.9116 75.4141 41.9116 75.7047C41.9116 76.7832 42.8179 77.0814 44.0628 76.4133C45.7166 75.5263 45.7455 76.5697 44.0965 77.602L42.846 78.3844L40.9923 75.3087C39.9734 73.6173 39.4189 72.4066 39.7604 72.618C40.1019 72.8294 40.7635 72.5415 41.2307 71.9775C41.6979 71.4135 42.5059 70.952 43.026 70.952C43.5468 70.952 43.9825 70.565 43.9948 70.0912L44.0168 69.2303L44.9842 70.5106L45.9516 71.7916L45.1361 73.1014ZM47.8665 70.034C47.6143 70.2861 47.2021 70.2861 46.9499 70.034C46.6985 69.7813 46.9046 69.5747 47.4082 69.5747C47.9118 69.5747 48.118 69.7813 47.8665 70.034ZM67.3334 70.2634C67.3334 70.6421 67.0057 70.952 66.6058 70.952C66.2059 70.952 66.0692 70.6421 66.3028 70.2634C66.5364 69.8846 66.8634 69.5747 67.0304 69.5747C67.1974 69.5747 67.3334 69.8846 67.3334 70.2634ZM76.9422 71.8129C76.9477 72.0966 76.5175 72.3294 75.9864 72.3294H75.0197L75.3942 70.8935L75.7686 69.4583L76.3499 70.377C76.6701 70.8825 76.936 71.5292 76.9422 71.8129ZM29.5442 70.9307C29.5442 71.2971 29.0805 71.419 28.5136 71.2014C27.9468 70.983 27.483 70.6828 27.483 70.534C27.483 70.3853 27.9468 70.2634 28.5136 70.2634C29.0805 70.2634 29.5442 70.5636 29.5442 70.9307ZM56.1114 71.4114C55.8592 71.6635 55.6531 71.4569 55.6531 70.952C55.6531 70.4472 55.8592 70.2406 56.1114 70.4927C56.3629 70.7454 56.3629 71.1587 56.1114 71.4114ZM71.4559 71.2964C71.4559 71.8646 71.1563 72.3294 70.7901 72.3294C70.4246 72.3294 70.3029 71.8646 70.5201 71.2964C70.7379 70.7282 71.0374 70.2634 71.1858 70.2634C71.3342 70.2634 71.4559 70.7282 71.4559 71.2964ZM82.3714 73.7268C81.2027 75.631 78.6385 78.6103 76.6742 80.3457L73.1021 83.5027L70.1703 83.6453L67.2386 83.7878L67.6199 82.3629C67.8302 81.5792 68.0061 79.9305 68.0109 78.6998L68.0205 76.4616H70.7688H73.5171L74.8912 77.8389C76.5347 79.4863 76.9525 79.5565 76.9525 78.1833C76.9525 77.6151 77.4162 77.1502 77.9831 77.1502H79.0137V75.5442V73.9375L81.5902 72.169C83.0077 71.1965 84.241 70.3694 84.3323 70.3322C84.423 70.2944 83.5408 71.8219 82.3714 73.7268ZM100.795 70.6986C100.53 70.9644 100.313 71.6166 100.313 72.1476V73.1138L101.859 72.8941L103.405 72.6738V71.6504C103.405 70.5561 101.595 69.8963 100.795 70.6986ZM61.3009 73.0512L61.6087 75.1503L60.1768 74.9451L58.745 74.7398L58.5278 72.8459L58.31 70.952H59.6519H60.9938L61.3009 73.0512ZM27.7895 72.6986L29.1272 73.7116L28.2587 74.5704L27.3903 75.4285L26.4064 74.0918C24.6104 71.6531 25.384 70.8742 27.7895 72.6986ZM73.5171 71.9851C73.5171 72.1745 73.3625 72.3294 73.1735 72.3294C72.9846 72.3294 72.83 72.1745 72.83 71.9851C72.83 71.7957 72.9846 71.6407 73.1735 71.6407C73.3625 71.6407 73.5171 71.7957 73.5171 71.9851ZM5.84014 73.0181C5.26506 73.9506 6.04077 75.0842 7.25483 75.0842H8.24491V73.7068V72.3294H7.25483C6.70998 72.3294 6.07375 72.6393 5.84014 73.0181ZM18.3724 73.9478L15.789 75.4285L15.9807 76.4616C16.0858 77.0297 16.7846 77.5263 17.5335 77.5648C19.9431 77.6888 20.1086 77.8203 19.2141 78.9009L18.3346 79.9635L19.0505 80.6811L19.7665 81.3988L22.242 79.7914C24.9511 78.0318 24.9992 77.9464 24.0896 76.5056L23.465 75.5174L22.4433 76.3672L21.4216 77.217L20.8953 76.3638L20.369 75.5098L21.1777 75.2398C22.0764 74.9395 22.275 73.2764 21.4711 72.7833C21.1873 72.609 19.7933 73.1331 18.3724 73.9478ZM99.3972 74.1662C98.4724 75.0924 98.9753 76.4616 100.24 76.4616C101.544 76.4616 102.638 74.8893 101.869 74.1186C101.321 73.5691 99.9661 73.5952 99.3972 74.1662ZM55.9967 75.0842C55.7631 75.463 55.1268 75.7729 54.582 75.7729C54.0371 75.7729 53.5919 75.463 53.5919 75.0842C53.5919 74.7054 54.2288 74.3955 55.0066 74.3955H56.4213L55.9967 75.0842ZM7.32354 76.2839C7.12429 76.6076 7.2191 77.2894 7.53378 77.7997L8.10612 78.728L9.26315 78.2831C9.89938 78.0386 10.2917 77.4512 10.1344 76.9774C9.79083 75.943 7.83197 75.4595 7.32354 76.2839ZM52.1181 79.1068C53.1178 79.4842 54.7317 79.9656 55.7046 80.1763L57.4732 80.5592L58.2166 82.9869L58.96 85.4145H57.9933C57.0431 85.4145 56.8933 85.0419 56.7538 82.3305L56.6837 80.9683L54.2693 80.5716C51.2833 80.0806 47.4082 77.8548 47.4082 76.6303V75.7191L48.8545 77.0697C49.6501 77.8128 51.1184 78.7294 52.1181 79.1068ZM84.4691 76.8555L83.6047 77.9002L85.947 79.9077C88.6561 82.2293 89.2092 82.3719 89.7753 80.8939L90.1876 79.8168L88.7571 78.8127C87.9697 78.2604 86.878 77.3589 86.3297 76.81L85.3341 75.8114L84.4691 76.8555ZM30.7466 76.8954L32.2926 77.3107V78.6082C32.2926 80.4993 33.5678 80.1949 34.0714 78.1833L34.5029 76.4616H37.0499H39.5975L41.14 79.2135C43.0789 82.6708 42.8398 83.022 38.5855 82.96L35.1315 82.9097L32.5097 81.084C29.9888 79.3286 27.5998 76.4512 28.6799 76.4712C28.9664 76.476 29.8967 76.6675 30.7466 76.8954ZM53.2435 77.1427L53.6633 77.8231L52.597 77.4133C51.407 76.9553 51.1892 76.4616 52.1772 76.4616C52.5331 76.4616 53.0127 76.768 53.2435 77.1427ZM60.3493 76.9106L61.9529 77.341L61.0364 77.9236C59.801 78.7087 55.6531 78.6874 55.6531 77.8961C55.6531 76.6923 57.8311 76.235 60.3493 76.9106ZM97.7908 77.5524C97.2988 78.8382 98.5198 80.2459 99.5662 79.5978C100.657 78.9222 100.479 77.361 99.2563 76.8913L98.1996 76.485L97.7908 77.5524ZM66.4656 78.5352C66.9919 81.5503 64.9499 81.9469 64.2058 78.9746L63.7146 77.0139L65.0008 77.2618C65.7085 77.3989 66.3674 77.9718 66.4656 78.5352ZM9.13055 79.6915L8.68463 80.8554L9.54004 81.1412C10.01 81.2982 10.6861 82.1942 11.042 83.1322L11.6885 84.8381L12.5433 84.5523C13.0132 84.3959 13.4976 83.7506 13.6199 83.1191L13.8425 81.9711H12.513H11.1835L11.512 80.2493L11.8404 78.5276H10.7081C10.0856 78.5276 9.37515 79.0517 9.13055 79.6915ZM82.1385 79.3885C81.9915 79.8623 81.7434 80.7128 81.5882 81.2796C81.4329 81.8457 80.7128 82.3106 79.988 82.3126C77.6856 82.3175 78.5657 84.0571 81.549 85.3959L84.4285 86.6879L85.2063 85.7478L85.9848 84.8078L84.5989 81.6673C83.1698 78.4291 82.6002 77.9016 82.1385 79.3885ZM25.1456 81.208L23.9693 82.5103L22.6343 82.1604L21.2993 81.8106V82.7947C21.2993 83.3367 22.2015 84.6459 23.3049 85.7051L25.3098 87.6307L26.0999 87.1417C26.5342 86.8724 26.7066 86.1741 26.4826 85.5894L26.0759 84.5268L27.2061 83.2747L28.3371 82.022L27.9317 80.9635C27.393 79.5565 26.5713 79.6288 25.1456 81.208ZM95.5035 81.2824V82.6597H96.8777H98.2518V81.2824V79.905H96.8777H95.5035V81.2824ZM46.0341 81.9711C46.0341 82.3498 45.898 82.6597 45.7311 82.6597C45.5641 82.6597 45.2371 82.3498 45.0034 81.9711C44.7698 81.5923 44.9066 81.2824 45.3065 81.2824C45.7063 81.2824 46.0341 81.5923 46.0341 81.9711ZM93.915 83.1046C93.6546 83.365 93.4423 83.991 93.4423 84.4965V85.4145H94.8666H96.2916L96.069 84.2664C95.8237 82.9986 94.6508 82.3664 93.915 83.1046ZM50.4801 86.785L54.1038 88.0343L58.4852 87.1982C60.8955 86.7388 63.5607 85.9847 64.4085 85.5226L65.9496 84.6824L65.1856 86.3628L64.4223 88.0425L60.0683 89.1389C54.4061 90.5645 53.1288 90.5252 47.7662 88.7608L43.2858 87.287V85.2382V83.19L45.0715 84.3629C46.0533 85.0082 48.4876 86.0977 50.4801 86.785ZM53.5919 83.6928C53.5919 83.8822 53.4373 84.0371 53.2484 84.0371C53.0594 84.0371 52.9048 83.8822 52.9048 83.6928C52.9048 83.5034 53.0594 83.3484 53.2484 83.3484C53.4373 83.3484 53.5919 83.5034 53.5919 83.6928ZM13.7243 85.0908L12.838 86.1617L13.6385 86.964L14.4382 87.7657L15.4984 86.703L16.5585 85.6404L15.5849 84.8305L14.6107 84.0199L13.7243 85.0908ZM40.1376 84.4552C41.5454 84.9965 41.5124 85.5922 40.0222 86.5247L38.8198 87.2767L38.7208 85.6569C38.6109 83.8615 38.6061 83.8656 40.1376 84.4552ZM62.5239 84.3815C62.5239 84.5708 62.3693 84.7258 62.1803 84.7258C61.9914 84.7258 61.8368 84.5708 61.8368 84.3815C61.8368 84.1921 61.9914 84.0371 62.1803 84.0371C62.3693 84.0371 62.5239 84.1921 62.5239 84.3815ZM51.5307 85.0701C51.5307 85.2595 51.3761 85.4145 51.1871 85.4145C50.9982 85.4145 50.8436 85.2595 50.8436 85.0701C50.8436 84.8808 50.9982 84.7258 51.1871 84.7258C51.3761 84.7258 51.5307 84.8808 51.5307 85.0701ZM52.9048 85.0701C52.9048 85.2595 52.7502 85.4145 52.5613 85.4145C52.3723 85.4145 52.2177 85.2595 52.2177 85.0701C52.2177 84.8808 52.3723 84.7258 52.5613 84.7258C52.7502 84.7258 52.9048 84.8808 52.9048 85.0701ZM69.7663 86.057C69.5176 86.4613 68.7907 86.7822 68.1517 86.7698L66.9899 86.7478L68.3139 85.7444C69.7258 84.6735 70.5146 84.8436 69.7663 86.057ZM91.381 86.7416V88.1692H92.8054H94.2304L94.0002 86.9716C93.8738 86.3132 93.2327 85.6707 92.5759 85.544L91.381 85.3133V86.7416ZM28.9877 87.3084C29.1155 87.9716 29.6748 88.5136 30.2313 88.5136C30.7879 88.5136 31.3471 87.9716 31.4749 87.3084L31.7065 86.1032H30.2313H28.7562L28.9877 87.3084ZM75.32 87.1624L74.9146 88.2216L75.9796 88.6313C77.2623 89.1244 78.6667 87.9007 78.0202 86.8518C77.3462 85.7581 75.7886 85.9372 75.32 87.1624ZM16.261 87.2512C15.3149 88.1989 15.8529 89.5466 17.1769 89.5466H18.551V90.9743V92.4026L19.6964 92.1795C20.3264 92.0569 20.9771 91.5493 21.1427 91.0507L21.4443 90.1444L20.0612 89.7815C19.3006 89.5824 18.5236 88.8283 18.3353 88.1059C17.9883 86.7767 17.0992 86.4103 16.261 87.2512ZM89.3384 88.4909C88.3888 89.6382 88.9447 90.924 90.391 90.924H91.381V89.5872C91.381 87.807 90.3594 87.2581 89.3384 88.4909ZM46.4415 90.2863L50.5001 91.7153L56.3402 91.4577C59.5523 91.3158 61.6396 91.3159 60.978 91.457C60.3163 91.5982 59.7756 91.9384 59.7756 92.2139C59.7756 92.4887 58.7298 92.5913 57.4519 92.4419L55.1282 92.1698L54.6424 92.9577L54.1567 93.7455L53.2319 92.9763C52.7234 92.5534 51.3026 92.3062 50.0748 92.4267L47.8424 92.6457L47.3258 94.5981C46.3687 98.2131 49.0249 100.24 52.5874 98.6132L54.2302 97.8625L54.6383 98.5257C55.122 99.3094 57.9493 99.4121 58.6872 98.6717C58.9703 98.388 60.4173 98.1359 61.9021 98.1125C63.3868 98.0884 64.9293 97.7413 65.3285 97.3412L66.0548 96.6132L65.5917 94.136L65.1279 91.6595L63.6541 91.1864L62.1803 90.7126L64.9286 89.9226L67.6769 89.132L68.1442 90.2002C68.8786 91.8813 68.7886 92.1547 67.5313 92.0528L66.3557 91.957L66.107 93.1622L65.8583 94.3674H67.2832C68.0665 94.3674 68.7076 93.9886 68.7076 93.5252C68.7076 93.0624 69.2029 93.3922 69.8082 94.2586C70.4136 95.125 70.8004 95.9294 70.6671 96.0458C69.6234 96.9624 65.6439 98.4851 62.4243 99.2013L58.545 100.064L51.431 99.7075C47.5181 99.5119 43.0796 98.9176 41.5681 98.388L38.8198 97.4238L38.9544 95.0051C39.3021 88.7725 40.3197 88.1314 46.4415 90.2863ZM37.7892 90.5796C37.7892 90.769 37.6346 90.924 37.4456 90.924C37.2567 90.924 37.1021 90.769 37.1021 90.5796C37.1021 90.3903 37.2567 90.2353 37.4456 90.2353C37.6346 90.2353 37.7892 90.3903 37.7892 90.5796ZM86.228 90.924C85.6529 91.8565 86.4286 92.9901 87.6427 92.9901H88.6327V91.6127V90.2353H87.6427C87.0978 90.2353 86.4616 90.5452 86.228 90.924ZM43.6664 91.7848C43.5214 92.2587 43.2411 93.8082 43.0439 95.2283L42.6853 97.8109H43.329C43.6829 97.8109 44.1707 97.8887 44.4126 97.983C44.6537 98.0774 45.2329 96.8605 45.6995 95.2786L46.5466 92.4019L45.8094 91.6629C44.8296 90.6809 43.9893 90.7284 43.6664 91.7848ZM20.9373 92.3317C20.6933 92.727 20.8706 93.5052 21.3316 94.0616L22.1685 95.0733L23.0672 94.3254C23.5619 93.9143 23.7969 93.1361 23.5901 92.5954C23.151 91.4488 21.5776 91.2924 20.9373 92.3317ZM39.9692 93.4439C40.1032 94.1415 40.6721 94.7118 41.2342 94.7118C42.7066 94.7118 42.4942 92.7104 40.9902 92.4205L39.7253 92.176L39.9692 93.4439ZM84.2753 92.7662C84.0266 93.0155 83.8232 93.8495 83.8232 94.6202V96.0203L83.0523 95.2476C82.1083 94.3013 80.3878 94.8653 80.3878 96.1222C80.3878 97.6428 81.7702 98.0168 83.0619 96.8453C83.7291 96.24 84.6037 95.7448 85.0064 95.7448C86.16 95.7448 86.5818 93.8557 85.6089 93.0465C85.1239 92.643 84.524 92.5169 84.2753 92.7662ZM62.5239 93.3344C62.5239 93.5238 62.3693 93.6787 62.1803 93.6787C61.9914 93.6787 61.8368 93.5238 61.8368 93.3344C61.8368 93.145 61.9914 92.9901 62.1803 92.9901C62.3693 92.9901 62.5239 93.145 62.5239 93.3344ZM24.1232 94.6202L23.3434 95.5623L24.4352 96.47L25.5262 97.3777L26.0979 96.4514C27.3161 94.4756 25.5778 92.8633 24.1232 94.6202ZM50.8436 94.0231C50.8436 94.2125 50.689 94.3674 50.5001 94.3674C50.3111 94.3674 50.1565 94.2125 50.1565 94.0231C50.1565 93.8337 50.3111 93.6787 50.5001 93.6787C50.689 93.6787 50.8436 93.8337 50.8436 94.0231ZM59.7756 94.7118C59.7756 94.9012 59.621 95.0561 59.432 95.0561C59.2431 95.0561 59.0885 94.9012 59.0885 94.7118C59.0885 94.5224 59.2431 94.3674 59.432 94.3674C59.621 94.3674 59.7756 94.5224 59.7756 94.7118ZM26.7959 97.1222V98.4996H28.0966C28.8118 98.4996 29.5752 98.9644 29.793 99.5326C30.2918 100.836 32.026 100.878 32.5152 99.6001C32.9721 98.4059 32.4279 97.8109 30.8772 97.8109C30.2251 97.8109 29.5133 97.346 29.2955 96.7778C29.0784 96.2097 28.4271 95.7448 27.8479 95.7448H26.7959V97.1222ZM63.211 96.0891C63.211 96.2785 63.0564 96.4335 62.8674 96.4335C62.6785 96.4335 62.5239 96.2785 62.5239 96.0891C62.5239 95.8998 62.6785 95.7448 62.8674 95.7448C63.0564 95.7448 63.211 95.8998 63.211 96.0891ZM50.6148 96.8928C50.3626 97.1449 49.9504 97.1449 49.6982 96.8928C49.4468 96.6401 49.6529 96.4335 50.1565 96.4335C50.6601 96.4335 50.8663 96.6401 50.6148 96.8928ZM57.0273 96.7778C57.0273 96.9672 56.8727 97.1222 56.6837 97.1222C56.4948 97.1222 56.3402 96.9672 56.3402 96.7778C56.3402 96.5884 56.4948 96.4335 56.6837 96.4335C56.8727 96.4335 57.0273 96.5884 57.0273 96.7778ZM77.6395 97.7606V99.1882H79.0638H80.4888L80.2587 97.9906C80.1322 97.3322 79.4912 96.6897 78.8344 96.563L77.6395 96.3322V97.7606ZM74.4872 98.7537C73.9712 100.101 74.6741 101.254 76.0105 101.254H77.048L76.8288 99.7585C76.5622 97.9424 75.0465 97.2923 74.4872 98.7537ZM33.1088 100.386C33.2352 101.044 33.8763 101.687 34.5331 101.814L35.7279 102.044V100.616V99.1882H34.3036H32.8786L33.1088 100.386ZM70.7688 100.501C70.7688 100.845 70.1855 100.973 69.4723 100.785C67.8123 100.351 66.9624 101.698 68.0596 103.024L68.9047 104.043L70.0082 103.083C70.6156 102.555 71.5349 102.275 72.0509 102.461C73.0622 102.826 74.3313 101.329 73.7747 100.427C73.3075 99.6683 70.7688 99.7316 70.7688 100.501ZM36.5456 101.771C36.6733 102.434 37.2326 102.976 37.7892 102.976C38.3457 102.976 38.905 102.434 39.0328 101.771L39.2643 100.566H37.7892H36.314L36.5456 101.771ZM40.3231 101.699C40.0627 101.96 39.8504 102.586 39.8504 103.091V104.009H41.2747H42.6997L42.4771 102.861C42.2318 101.593 41.059 100.961 40.3231 101.699ZM43.7585 102.388C43.4981 102.648 43.2858 103.274 43.2858 103.78V104.698H44.7101H46.1351L45.9124 103.55C45.6672 102.282 44.4943 101.65 43.7585 102.388ZM63.0392 102.436L61.1497 102.723V103.67C61.1497 104.19 61.5056 104.837 61.9412 105.107L62.7321 105.597L63.5456 104.483L64.3584 103.369L65.187 104.199L66.0163 105.03L66.6298 104.036C66.9665 103.489 67.0902 102.795 66.904 102.493C66.5598 101.933 66.3681 101.931 63.0392 102.436ZM46.7211 104.059V105.488L47.916 105.257C48.5728 105.13 49.2138 104.488 49.3403 103.829L49.5704 102.632H48.1454H46.7211V104.059ZM50.6292 103.077C50.3688 103.337 50.1565 103.963 50.1565 104.468V105.386H51.5808H53.0058L52.7832 104.238C52.5379 102.971 51.3651 102.338 50.6292 103.077ZM54.4507 103.119C53.9787 103.293 53.5919 103.859 53.5919 104.378V105.32L56.7985 105.181L60.0044 105.042L60.2909 104.182C60.6811 103.008 58.5972 102.3 57.4828 103.227L56.582 103.976L55.9458 103.39C55.5961 103.068 54.9234 102.946 54.4507 103.119ZM0 121.915V132.934H5.22177H10.4435L12.6759 130.696L14.9089 128.457L15.398 125.186C15.6667 123.387 15.6667 120.443 15.398 118.644L14.9089 115.372L12.6759 113.134L10.4435 110.896H5.22177H0V121.915ZM17.864 121.915V132.934H20.6123H23.3606V121.915V110.896H20.6123H17.864V121.915ZM24.7546 111.412C24.7656 111.696 26.113 116.578 27.7482 122.259L30.7226 132.59H33.6667H36.6108L39.5852 122.259C41.2204 116.578 42.5678 111.696 42.5788 111.412C42.5898 111.129 41.2706 110.896 39.6463 110.896H36.6946L35.3844 117.094C34.6636 120.503 33.8907 123.292 33.6667 123.292C33.4427 123.292 32.6698 120.503 31.949 117.094L30.6388 110.896H27.6871C26.0628 110.896 24.7437 111.129 24.7546 111.412ZM43.9728 121.915V132.934H46.7211H49.4694V121.915V110.896H46.7211H43.9728V121.915ZM55.3096 111.691C50.1572 114.516 51.3259 120.527 57.6079 123.509L60.8062 125.026L61.0288 126.964L61.2507 128.903L59.3111 128.681L57.3708 128.457L57.1509 126.908L56.9318 125.358H54.2309H51.5307V126.359C51.5307 130.205 55.0938 132.934 60.1164 132.934H63.2735L64.9596 131.243L66.6463 129.553V126.897V124.241L65.1897 122.674C64.3886 121.812 62.3569 120.516 60.6756 119.792L57.6175 118.479L57.838 116.933L58.0579 115.386L59.309 115.147L60.5602 114.908L60.9354 116.346L61.3098 117.783H63.9784H66.6463V116.155V114.527L64.8352 112.711L63.0234 110.896L59.8539 110.917C58.1101 110.928 56.0654 111.277 55.3096 111.691ZM68.7076 121.915V132.934H71.4559H74.2042V121.915V110.896H71.4559H68.7076V121.915ZM79.2885 113.237L76.9525 115.579V121.568V127.556L78.0964 129.497C79.5256 131.922 81.6823 132.934 85.4207 132.934H88.327L89.8578 131.859C90.7002 131.268 91.851 129.889 92.4158 128.794L93.4423 126.804V122.272V117.739L92.4845 115.441C91.9575 114.176 90.8067 112.637 89.9265 112.019L88.327 110.896H84.9754H81.6246L79.2885 113.237ZM95.5035 121.876V132.934H98.2518H101L101.018 126.908L101.035 120.882L103.644 126.736L106.252 132.59L109.123 132.801L111.993 133.013V121.954V110.896H109.245H106.497L106.479 116.922L106.462 122.948L103.853 117.094L101.245 111.24L98.3741 111.029L95.5035 110.817V121.876ZM149.042 112.909C146.817 115.14 146.549 116.91 148.008 119.739L148.981 121.626L152.463 123.261L155.945 124.895L156.343 126.154C156.87 127.816 156.197 128.802 154.537 128.802H153.188L152.391 127.046L151.592 125.29L149.141 125.497L146.691 125.703L146.899 127.424C147.013 128.371 148.023 129.999 149.143 131.04L151.179 132.934L154.775 132.912C158.615 132.888 160.039 132.176 161.413 129.59L162.276 127.968L161.851 125.699C161.371 123.134 160.536 122.292 156.042 119.846L152.874 118.122V116.747V115.372L154.47 115.146L156.066 114.919L156.44 116.351L156.813 117.783H159.556H162.299L161.855 115.889C161.61 114.848 160.633 113.298 159.681 112.445L157.95 110.896H154.501H151.051L149.042 112.909ZM162.963 112.79L163.18 114.684L165.757 114.897L168.334 115.111V124.022V132.934H171.082H173.83V123.981V115.028H176.578H179.327V112.962V110.896H171.036H162.746L162.963 112.79ZM180.723 120.021L180.745 129.146L181.582 130.239C182.977 132.061 185.255 132.934 188.61 132.934H191.8L193.808 130.921L195.817 128.908V119.902V110.896H193.089H190.361L190.169 119.677L189.976 128.457H188.259H186.541L186.349 119.677L186.156 110.896H183.429H180.701L180.723 120.021ZM197.878 121.915V132.934H203.1H208.321L210.554 130.696L212.787 128.457L213.276 125.186C213.544 123.387 213.544 120.443 213.276 118.644L212.787 115.372L210.554 113.134L208.321 110.896H203.1H197.878V121.915ZM215.742 121.915V132.934H222.658H229.575L229.357 131.04L229.14 129.146L225.189 128.94L221.238 128.733V126.395V124.057L224.502 123.847L227.766 123.637L227.983 121.743L228.2 119.849H224.719H221.238V117.473V115.097L225.189 114.89L229.14 114.684L229.357 112.79L229.575 110.896H222.658H215.742V121.915ZM230.857 121.876V132.934H233.578H236.298L236.498 127.257L236.698 121.58L239.102 127.252L241.507 132.922L244.427 132.928L247.347 132.934V121.915V110.896H244.626H241.904L241.706 116.887L241.507 122.878L238.99 117.059L236.473 111.24L233.665 111.029L230.857 110.817V121.876ZM248.161 112.79L248.378 114.684L250.954 114.897L253.531 115.111V124.022V132.934H256.279H259.027V123.981V115.028H261.776H264.524V112.962V110.896H256.234H247.943L248.161 112.79ZM275.156 121.054C273.418 126.641 271.864 131.617 271.703 132.112L271.408 133.012L274.294 132.801L277.18 132.59L277.579 130.868L277.977 129.146L280.777 128.939L283.577 128.732L283.996 130.833L284.415 132.934H287.261H290.106L289.778 131.729C289.598 131.066 288.093 126.11 286.434 120.717L283.419 110.91L280.867 110.903L278.315 110.896L275.156 121.054ZM291.32 121.915V132.934H294.068H296.817V128.457V123.981H300.252H303.687V121.915V119.849H300.252H296.817V117.438V115.028H300.596H304.374V112.962V110.896H297.847H291.32V121.915ZM305.749 121.915V132.934H308.497H311.245V128.457V123.981H314.681H318.116V121.915V119.849H314.681H311.245V117.438V115.028H315.024H318.803V112.962V110.896H312.276H305.749V121.915ZM322.266 113.479C321.874 114.899 320.348 119.857 318.877 124.498L316.201 132.934H319.134H322.067L322.479 130.868L322.891 128.802H325.602H328.313L328.766 130.868L329.218 132.934H331.912H334.606V132.189C334.606 131.779 333.155 126.82 331.383 121.17L328.161 110.896H325.569H322.978L322.266 113.479ZM335.98 121.915V132.934H338.728H341.477V121.915V110.896H338.728H335.98V121.915ZM344.225 121.915V132.934H346.973H349.721V129.089V125.243L350.499 125.504C350.927 125.646 351.932 127.376 352.732 129.348L354.187 132.933L357.116 132.933L360.046 132.934L358.939 130.351C358.331 128.931 357.518 126.902 357.134 125.843L356.436 123.918L357.626 122.6C358.28 121.875 358.967 119.938 359.152 118.296L359.488 115.309L357.635 113.102L355.783 110.896H350.004H344.225V121.915ZM363.41 112.909L361.402 114.922V117.073V119.223L363.077 120.902C363.998 121.825 365.984 123.075 367.49 123.679C370.346 124.824 371.251 126.022 370.582 127.769L370.187 128.802H368.556H366.924L366.484 127.044L366.044 125.285L363.551 125.494L361.058 125.703L361.232 127.424L361.406 129.146L363.476 131.04L365.546 132.934H368.932H372.318L374.143 131.361L375.968 129.787V127.312C375.968 123.74 374.914 122.248 370.848 120.064L367.242 118.127V116.75V115.372L368.729 115.16L370.216 114.947L370.664 116.365L371.114 117.783H373.472H375.83V116.03V114.277L374.144 112.587L372.457 110.896H368.938H365.418L363.41 112.909ZM430.743 112.909C428.518 115.14 428.25 116.91 429.709 119.739L430.682 121.626L434.164 123.261L437.646 124.895L438.044 126.154C438.571 127.816 437.898 128.802 436.238 128.802H434.889L434.092 127.046L433.293 125.29L430.842 125.497L428.392 125.703L428.6 127.424C428.714 128.371 429.724 129.999 430.844 131.04L432.88 132.934L436.476 132.912C440.316 132.888 441.74 132.176 443.114 129.59L443.977 127.968L443.552 125.699C443.072 123.134 442.237 122.292 437.743 119.846L434.575 118.122V116.747V115.372L436.171 115.146L437.767 114.919L438.141 116.351L438.514 117.783H441.257H444L443.556 115.889C443.311 114.848 442.334 113.298 441.382 112.445L439.651 110.896H436.202H432.752L430.743 112.909ZM445.225 118.838V126.78L446.197 129.113C447.428 132.064 449.064 132.934 453.386 132.934H456.828L458.756 131.274L460.684 129.613L460.909 120.255L461.134 110.896H458.353H455.572L455.38 119.677L455.188 128.457L453.547 128.69L451.907 128.922L451.325 128.001C451.005 127.495 450.738 123.439 450.732 118.988L450.722 110.896H447.973H445.225V118.838ZM466.6 111.857C465.697 112.359 464.548 113.51 464.048 114.415L463.138 116.061L463.113 121.777L463.089 127.493L464.126 129.504C465.499 132.163 467.099 132.934 471.25 132.934H474.692L476.449 131.384C477.416 130.532 478.399 128.827 478.635 127.597L479.063 125.358H476.277H473.491L473.271 126.908L473.052 128.457H470.997H468.942L468.346 125.186L467.75 121.915L468.346 118.644L468.942 115.372H470.966H472.99L473.391 117.094L473.793 118.816L476.342 119.029L478.892 119.244V117.79C478.892 112.231 471.955 108.882 466.6 111.857ZM483.474 112.304L481.687 113.713L480.98 116.264C480.591 117.668 480.273 120.21 480.273 121.915C480.273 123.619 480.591 126.162 480.98 127.566L481.687 130.117L483.474 131.526L485.261 132.934H488.649C493.536 132.934 496.756 130.208 496.756 126.069V125.358H494.082H491.408L490.977 127.08L490.546 128.802H488.865H487.185L486.474 127.47C485.574 125.785 485.549 119.124 486.432 116.795L487.102 115.028H488.77H490.437L491.156 117.094L491.875 119.16H493.931C497.347 119.16 497.262 114.36 493.802 111.931L492.327 110.896H488.794H485.261L483.474 112.304ZM498.13 121.915V132.934H505.001H511.871V130.868V128.802H507.749H503.626V126.391V123.981H507.062H510.497V121.915V119.849H507.062H503.626V117.438V115.028H507.749H511.871V112.962V110.896H505.001H498.13V121.915ZM515.254 112.909C513.028 115.14 512.76 116.91 514.219 119.739L515.193 121.626L518.675 123.261L522.156 124.895L522.555 126.154C523.081 127.816 522.408 128.802 520.748 128.802H519.4L518.602 127.046L517.803 125.29L515.353 125.497L512.902 125.703L513.11 127.424C513.224 128.371 514.234 129.999 515.354 131.04L517.39 132.934L520.986 132.912C524.826 132.888 526.25 132.176 527.625 129.59L528.487 127.968L528.062 125.699C527.582 123.134 526.747 122.292 522.254 119.846L519.086 118.122V116.747V115.372L520.682 115.146L522.278 114.919L522.652 116.351L523.025 117.783H525.767H528.51L528.066 115.889C527.822 114.848 526.844 113.298 525.892 112.445L524.162 110.896H520.712H517.262L515.254 112.909ZM531.744 112.909C529.518 115.14 529.25 116.91 530.709 119.739L531.682 121.626L535.165 123.261L538.646 124.895L539.044 126.154C539.571 127.816 538.898 128.802 537.238 128.802H535.889L535.092 127.046L534.293 125.29L531.843 125.497L529.392 125.703L529.6 127.424C529.714 128.371 530.724 129.999 531.844 131.04L533.88 132.934L537.476 132.912C541.316 132.888 542.74 132.176 544.114 129.59L544.977 127.968L544.552 125.699C544.072 123.134 543.237 122.292 538.744 119.846L535.575 118.122V116.747V115.372L537.171 115.146L538.768 114.919L539.141 116.351L539.514 117.783H542.257H545L544.556 115.889C544.312 114.848 543.334 113.298 542.382 112.445L540.652 110.896H537.202H533.752L531.744 112.909ZM9.28651 115.735C9.5263 116.123 9.89183 118.093 10.1 120.112L10.4779 123.783L9.65135 126.292L8.82549 128.802H7.1607H5.4966V121.915V115.028H7.17376C8.0965 115.028 9.04672 115.346 9.28651 115.735ZM87.2345 116.36C90.1223 121.769 86.4547 131.777 83.0791 127.699L82.166 126.597V121.915V117.233L83.0791 116.131C84.3214 114.629 86.3709 114.743 87.2345 116.36ZM207.164 115.735C207.404 116.123 207.77 118.093 207.978 120.112L208.356 123.783L207.529 126.292L206.703 128.802H205.038H203.374V121.915V115.028H205.052C205.974 115.028 206.924 115.346 207.164 115.735ZM353.722 117.308C353.981 119.572 352.837 121.226 351.012 121.226H349.721V118.082V114.936L351.611 115.155L353.5 115.372L353.722 117.308ZM136.556 116.461C135.895 116.847 135.354 117.597 135.354 118.127C135.354 118.657 134.813 119.412 134.152 119.802L132.949 120.512L133.732 121.042L134.516 121.571L133.511 127.08L132.507 132.59L131.525 133.354C130.183 134.401 130.295 135 131.835 135C133.895 135 134.902 133.144 136.089 127.165L137.199 121.571L138.681 121.35C140.512 121.079 140.653 119.849 138.854 119.849H137.544L137.903 118.471L138.262 117.094H139.499C140.179 117.094 140.893 117.482 141.085 117.955L141.433 118.816L142.127 117.816C143.523 115.804 139.399 114.801 136.556 116.461ZM416.368 116.348C416.368 116.695 416.718 117.096 417.146 117.239L417.924 117.499L417.482 118.898L417.038 120.297L414.984 119.994L412.93 119.692L411.242 120.801L409.554 121.909L408.739 124.636L407.924 127.362L409.053 129.089L410.182 130.816L413.966 130.771L417.752 130.725L418.092 129.247C419.061 125.044 420.49 117.571 420.49 116.705V115.717H418.429C417.295 115.717 416.368 116 416.368 116.348ZM282.336 124.153C282.365 124.437 281.77 124.67 281.014 124.67C279.491 124.67 279.439 124.47 280.1 121.158L280.56 118.852L281.422 121.244C281.895 122.56 282.307 123.869 282.336 124.153ZM122.64 121.511C121.728 122.426 120.767 124.031 120.504 125.079L120.027 126.984L121.013 128.754L122 130.524L124.807 130.731L127.615 130.938L129.423 128.784L131.231 126.63V124.066C131.231 120.813 130.25 119.849 126.941 119.849H124.298L122.64 121.511ZM326.629 122.776L327.074 124.67H325.606H324.14L324.554 123.12C324.781 122.268 324.972 121.121 324.977 120.572L324.987 119.573L325.585 120.228C325.914 120.587 326.384 121.734 326.629 122.776ZM387.177 121.342C386.135 122.163 384.86 123.85 384.342 125.091L383.402 127.347L383.86 128.591C384.553 130.47 385.407 130.796 389.585 130.776L393.414 130.758L393.382 128.23C393.365 126.84 393.586 124.386 393.874 122.776L394.398 119.849H391.734H389.07L387.177 121.342ZM396.443 120.542C396.443 120.918 396.794 121.226 397.223 121.226H398.004L397.58 124.325C397.347 126.029 396.962 128.199 396.725 129.145L396.294 130.868H397.653H399.012L399.822 126.742L400.632 122.616L401.982 121.892L403.334 121.167L403.769 122.303C404.008 122.928 403.901 125.11 403.532 127.154L402.861 130.868H405.148C406.407 130.868 407.436 130.558 407.436 130.179C407.436 129.8 407.136 129.49 406.77 129.49H406.104L406.255 124.842L406.405 120.193L401.424 120.026L396.443 119.859V120.542ZM128.359 123.858L128.577 126.145L127.484 127.818C124.436 132.481 121.796 127.675 124.502 122.389L125.141 121.143L126.64 121.356L128.14 121.571L128.359 123.858ZM391.243 123.809C390.439 128.408 387.626 131.203 386.573 128.451C385.768 126.348 388.722 121.226 390.74 121.226H391.696L391.243 123.809ZM415.962 124.557L415.9 127.499L414.813 128.589L413.726 129.679L412.642 129.262L411.558 128.845V126.295V123.745L412.718 122.46C413.356 121.754 414.362 121.274 414.951 121.394L416.024 121.613L415.962 124.557Z" fill="white"/>
</svg>
