<svg width="52" height="61" viewBox="0 0 52 61" fill="none" xmlns="http://www.w3.org/2000/svg">
<path fill-rule="evenodd" clip-rule="evenodd" d="M25.0913 0.0639093C23.6573 0.362186 23.9259 0.210832 12.2776 7.28389L1.5338 13.8076L1.10661 14.2154C0.551481 14.7454 0.232125 15.3824 0.103594 16.2162L0 16.8882L0.0275988 30.9699L0.0552961 45.0516L0.284661 45.6192L0.514026 46.1868L0.974629 46.674L1.43523 47.1611L12.179 53.6802C22.966 60.2255 23.6485 60.6189 24.6477 60.8659L25.1898 61L26.1262 60.9967L27.0626 60.9932L27.8511 60.7566L28.6397 60.5199L31.2024 58.9733C32.6119 58.1226 37.5575 55.1257 42.1926 52.3134L50.6201 47.2001L51.0471 46.7848C51.2819 46.5563 51.5924 46.1172 51.737 45.809L52 45.2486V30.4775V15.7065L51.717 15.1487C51.2488 14.2255 51.0983 14.1257 40.0734 7.42992C28.501 0.401574 28.616 0.467946 27.5292 0.190251L26.7846 0L26.0365 0.0114228C25.6251 0.0177252 25.1997 0.0412604 25.0913 0.0639093ZM26.8832 6.21062C27.0356 6.26843 31.3299 8.84391 36.426 11.9338L45.6917 17.5518L46.0121 17.8833L46.3324 18.2147V20.5352V22.8556L46.1871 23.1363L46.0419 23.4168L36.5546 29.1591C31.3366 32.3173 26.8735 34.965 26.6366 35.0429L26.2061 35.1846L25.7286 35.0745L25.2511 34.9643L18.4877 30.8699C14.7678 28.618 11.616 26.7262 11.4838 26.666L11.2434 26.5566L11.0459 26.7352L10.8484 26.9138L10.8505 28.4987L10.8527 30.0837L11.0338 30.4775C11.1333 30.6942 11.2987 30.9422 11.4012 31.0287C11.5943 31.1917 24.4762 38.6114 25.2105 38.9826L25.6255 39.1925H26.0761C26.7384 39.1925 26.4391 39.3622 36.18 33.4621C41.1404 30.4576 45.3003 27.9452 45.4244 27.879C45.6734 27.7461 45.9567 27.8021 46.184 28.0292L46.3324 28.1775V35.443V42.7084L46.1106 43.0233L45.8889 43.3382L36.4111 49.0877L26.9332 54.8371L26.5283 54.9461L26.1233 55.0551L25.7551 54.9885C25.2432 54.8959 25.854 55.2546 15.6289 49.0415C5.76281 43.0465 5.97088 43.1822 5.82185 42.6463L5.72397 42.2944L5.72348 40.185L5.72289 38.0755L5.88602 37.8955L6.04914 37.7153H6.33114H6.61324L15.9893 43.3952L25.3655 49.0752L25.8792 49.1177L26.393 49.1602L26.8263 48.9664C27.4772 48.6754 40.6271 40.691 40.9086 40.4161L41.1523 40.1781L41.2219 39.4144C41.2602 38.9944 41.2947 38.2776 41.2985 37.8216L41.3055 36.9923L41.1424 36.8122C40.8601 36.5006 40.7765 36.5457 33.7995 40.7707C30.0407 43.0469 26.7877 44.958 26.5705 45.0175L26.1755 45.1258L25.7315 45.0369L25.2875 44.9479L15.8748 39.2489C5.98951 33.2637 5.97601 33.2548 5.82136 32.6988L5.72397 32.3485L5.72772 25.5046L5.73156 18.6607L5.87103 18.2668C5.94782 18.0502 6.10661 17.8065 6.224 17.7252C6.72117 17.3811 24.2598 6.73884 24.8274 6.43692L25.4505 6.10536H26.0284C26.3462 6.10536 26.7309 6.15272 26.8832 6.21062Z" fill="white"/>
</svg>
