<svg width="223" height="71" viewBox="0 0 223 71" fill="none" xmlns="http://www.w3.org/2000/svg">
<path fill-rule="evenodd" clip-rule="evenodd" d="M4.39777 0.618714L3.8152 1.23743L3.19907 3.59818L2.5832 5.95893L1.94928 9.12857L1.31537 12.2982L0.796845 16.1018L0.27807 19.9054L0.139035 27.5125L0 35.1196L0.291287 38.6696L0.582828 42.2196L0.973753 45.2625L1.36493 48.3054L1.99326 51.7286L2.62158 55.1518L3.51527 58.7872L4.40921 62.4227L5.6745 66.3219L6.94005 70.2208L7.49772 70.6105L8.05513 71H8.92568H9.79624L14.3976 67.7832L18.9987 64.5666L20.8179 63.2346L22.637 61.9026L22.8022 61.1518L22.9677 60.401L21.8 56.6494L20.6326 52.8978L19.7412 49.3666L18.8498 45.8353L18.9342 45.5825L19.0186 45.3297L19.7447 46.437L20.4707 47.5446L22.5752 50.3527L24.6798 53.1605L27.1393 55.7411L29.5987 58.3214H29.8541H30.1096L35.7556 54.1487L41.4016 49.9759L41.7018 49.3189L42.0018 48.6619V48.028V47.394L41.4761 44.465L40.9505 41.5358L41.0755 41.411L41.2006 41.2862L42.3002 42.2731L43.3997 43.26L44.4164 44.0375L45.4331 44.8147L46.5032 45.3556L47.5733 45.8964H48.1803H48.787L50.9229 44.2933L53.0585 42.6903L57.0445 39.8485L61.0305 37.0067L61.322 36.1256L61.6133 35.2447L61.4532 34.5166L61.2928 33.7886L60.7341 33.2655L60.1754 32.7422L55.1262 29.43L50.0767 26.1179H49.8662H49.6558L49.302 26.622L48.9482 27.1258L49.3307 28.9033L49.7132 30.6806L49.5551 30.8386L49.3968 30.9963L48.1256 30.0655L46.8545 29.1346L45.2354 27.3898L43.616 25.6452L42.7907 24.1002L41.9654 22.5554L41.4116 21.0142L40.858 19.473L35.5474 16.025L30.2367 12.5771H29.3765H28.5164L27.8825 13.2096L27.2486 13.8422L27.0076 15.9862L26.7664 18.1304L26.5058 22.9482L26.2453 27.7661L26.2362 28.4L26.227 29.0339L25.5837 28.0196L24.9404 27.0054L23.0564 23.2018L21.1724 19.3982L20.1649 16.3325L19.1576 13.2671L18.7593 11.1343L18.361 9.00179L18.2985 6.97321L18.2362 4.94464L12.5172 2.48094L6.79822 0.0172429L5.88928 0.00862143L4.9806 0L4.39777 0.618714ZM91.8205 9.87052V10.1053L95.6113 20.3303L99.4021 30.5554L99.5818 31.0082L99.7615 31.4611L102.064 31.3886L104.367 31.3161L108.352 20.6093L112.337 9.90247L112.204 9.76909L112.07 9.63571L109.888 9.63698L107.707 9.63825L104.915 17.5928L102.124 25.5476L99.3309 17.5915L96.5377 9.63571H94.179H91.8205V9.87052ZM134.522 16.4865L133.378 17.0169L132.403 17.9541L131.428 18.8911L130.752 20.1589L130.077 21.4268L130.076 23.8357L130.074 26.2446L130.659 27.5125L131.244 28.7804L132.057 29.627L132.87 30.474L134.141 31.1472L135.412 31.8207L137.827 31.8212L140.241 31.8217L141.258 31.2742L142.275 30.7265L143.072 29.8803L143.87 29.0339L144.29 28.2025L144.71 27.3708L144.579 27.16L144.449 26.9493L142.887 26.5122L141.325 26.0747L140.579 26.9777L139.833 27.8804L138.83 28.15L137.827 28.4195L136.833 28.1528L135.84 27.8858L135.054 26.9929L134.268 26.1001V25.6018V25.1036H139.606H144.943V23.8481V22.5927L144.667 21.3084L144.391 20.024L143.58 18.85L142.77 17.6762L141.395 16.9015L140.02 16.1266L137.843 16.0412L135.666 15.9557L134.522 16.4865ZM113.171 22.1074V27.7329L113.703 28.8273L114.234 29.9219L115.115 30.6466L115.996 31.3711L116.964 31.6607L117.933 31.95H118.991H120.05L120.986 31.56L121.922 31.17L122.387 30.7501L122.852 30.3302L122.998 30.8865L123.143 31.4429H125.183H127.222L127.062 30.1116L126.901 28.7804L126.899 22.6312L126.897 16.4821H124.883H122.869L122.786 21.4106L122.703 26.3392L121.956 27.1159L121.21 27.8929H119.987H118.763L118.271 27.4022L117.78 26.9115L117.51 25.9442L117.241 24.9768L117.24 20.7295L117.238 16.4821H115.205H113.171V22.1074ZM139.315 19.8863L140.015 20.2477L140.319 20.9125L140.622 21.5774V21.8191V22.0607H137.445H134.268V21.9212V21.782L134.653 21.0403L135.037 20.2986L135.733 19.9218L136.429 19.5453L137.522 19.5351L138.614 19.525L139.315 19.8863ZM98.4275 41.569L97.7903 41.7625L96.9963 42.172L96.2025 42.5815L95.397 43.2578L94.5915 43.934L93.9233 45.2321L93.2548 46.5304L93.2629 48.1793L93.2711 49.8283L93.8056 50.8733L94.3399 51.9182L95.1771 52.6242L96.0144 53.3301L97.0311 53.7762L98.0478 54.2219L100.292 54.6621L102.536 55.1023L103.339 55.6419L104.141 56.1818L104.376 56.8474L104.611 57.5133L104.28 58.3098L103.949 59.106L103.159 59.5254L102.369 59.9448L100.971 59.9341L99.5729 59.9235L98.7692 59.5079L97.9657 59.0923L97.4172 58.3967L96.8687 57.7009L96.7263 56.9917L96.5843 56.2822L96.3563 56.1417L96.1283 56.0012L94.3236 56.464L92.5189 56.9268L92.4122 57.2032L92.3057 57.4798L92.8204 58.8514L93.3351 60.2232L94.1119 61.1627L94.8886 62.1022L96.5632 62.9245L98.2374 63.7468L100.466 63.8531L102.694 63.9593L103.974 63.5351L105.255 63.1106L106.285 62.3661L107.315 61.6217L107.943 60.669L108.572 59.7161L108.848 58.4726L109.124 57.2288L108.846 55.892L108.568 54.5549L107.83 53.5391L107.092 52.5233L105.995 51.8817L104.898 51.2402L103.379 50.8669L101.86 50.4937L100.362 50.198L98.8627 49.9021L98.2646 49.3054L97.6665 48.7088V47.7848V46.8605L98.4413 46.1386L99.216 45.4167L100.345 45.2478L101.473 45.0789L102.666 45.6778L103.859 46.2768L104.301 47.1232L104.744 47.9699L104.87 48.0957L104.996 48.2212L106.796 47.6428L108.596 47.0644L108.591 46.6706L108.585 46.2768L108.121 45.2625L107.656 44.2482L106.498 43.1875L105.34 42.1268L103.999 41.7295L102.658 41.3321L100.861 41.3539L99.0645 41.3758L98.4275 41.569ZM128.676 52.3625V63.3929H130.837H132.997V58.6891V53.9856L133.383 53.2416L133.768 52.4979L134.557 52.0907L135.347 51.6837L136.165 51.8368L136.983 51.99L137.595 52.6397L138.208 53.2896L138.286 58.3412L138.365 63.3929H140.531H142.698L142.612 57.6241L142.526 51.8554L141.967 50.8096L141.407 49.7639L140.622 49.1046L139.837 48.4456L138.768 48.157L137.699 47.8687L136.236 47.9998L134.772 48.1309L133.885 48.6533L132.997 49.1759V45.2539V41.3321H130.837H128.676V52.3625ZM182.053 52.3625V63.3929H184.214H186.374V52.3625V41.3321H184.214H182.053V52.3625ZM200.481 42.1322L199.973 42.4096L199.655 42.8067L199.337 43.204V44.1257V45.0472L199.926 45.5987L200.514 46.15H201.406H202.299L202.852 45.5632L203.404 44.9762V44.1519V43.3275L203.155 42.8635L202.907 42.3997L202.101 42.1195L201.295 41.8393L201.142 41.8469L200.99 41.8548L200.481 42.1322ZM18.8716 45.0089V45.1357H18.7445H18.6175V45.0089V44.8821H18.7445H18.8716V45.0089ZM115.795 48.3403L114.734 48.7154L113.559 49.7469L112.385 50.7784L111.698 52.0777L111.011 53.3768V55.9125V58.4482L111.694 59.7389L112.376 61.0296L113.289 61.8293L114.202 62.6291L115.275 63.1778L116.349 63.7266L118.19 63.8465L120.032 63.9664L121.113 63.6621L122.195 63.3579L123.205 62.6702L124.215 61.9827L124.91 60.9761L125.605 59.9696L125.756 59.3266L125.908 58.6838L124.062 58.0907L122.216 57.4973L122.117 57.792L122.019 58.0866L121.4 58.821L120.78 59.5553L119.915 59.8403L119.049 60.1253L118.142 59.9554L117.234 59.7855L116.595 59.2847L115.957 58.7837L115.563 58.023L115.168 57.2623V55.8811V54.4999L115.632 53.7112L116.094 52.9226L116.792 52.4036L117.49 51.8845L118.699 51.8853L119.907 51.8858L120.594 52.3359L121.281 52.7857L121.61 53.5251L121.937 54.2643H122.175H122.413L124.148 53.7069L125.882 53.1493L125.728 52.6293L125.573 52.1089L124.942 51.0115L124.311 49.9143L123.134 49.17L121.958 48.4258L121.06 48.1768L120.161 47.9278L118.509 47.9466L116.857 47.9651L115.795 48.3403ZM150.512 48.319L149.345 48.6776L148.149 49.7281L146.953 50.7784L146.266 52.0777L145.579 53.3768V55.9125V58.4482L146.255 59.7161L146.931 60.9839L147.78 61.7806L148.629 62.5774L149.773 63.152L150.917 63.7266L152.716 63.844L154.516 63.9611L155.928 63.5516L157.34 63.1418L158.62 61.9939L159.9 60.846L160.44 59.7331L160.98 58.6201L161.196 57.2663L161.413 55.9125L161.174 54.4238L160.936 52.9351L160.451 51.9865L159.965 51.0376L158.68 49.8849L157.395 48.7324L156.208 48.3287L155.02 47.925L153.35 47.9428L151.679 47.9602L150.512 48.319ZM168.836 48.1499L168.201 48.3556L167.167 48.8827L166.133 49.4097L165.228 50.4092L164.322 51.4086L163.759 52.8998L163.195 54.3911L163.298 56.4227L163.401 58.4546L164.135 59.8L164.869 61.1457L165.716 61.8874L166.563 62.6291L167.636 63.1799L168.709 63.7304L170.648 63.846L172.586 63.9616L173.881 63.5326L175.175 63.1035L176.467 61.9455L177.758 60.7874L178.233 59.8576L178.709 58.9277L178.995 57.352L179.282 55.7766L179.026 54.3972L178.77 53.0177L178.253 52.007L177.737 50.9965L176.814 50.1022L175.891 49.2081L174.714 48.6325L173.538 48.0569L171.505 48.0006L169.472 47.9445L168.836 48.1499ZM212.555 48.1499L211.919 48.3556L210.885 48.8827L209.851 49.4097L208.946 50.4092L208.041 51.4086L207.477 52.8998L206.913 54.3911L207.016 56.4227L207.12 58.4546L207.854 59.8L208.588 61.1457L209.434 61.8874L210.281 62.6291L211.354 63.1799L212.428 63.7304L214.366 63.846L216.304 63.9616L217.599 63.5326L218.894 63.1035L220.185 61.9455L221.476 60.7874L221.952 59.8576L222.427 58.9277L222.714 57.352L223 55.7766L222.744 54.3972L222.489 53.0177L221.972 52.007L221.455 50.9965L220.532 50.1022L219.609 49.2081L218.433 48.6325L217.257 48.0569L215.223 48.0006L213.19 47.9445L212.555 48.1499ZM199.337 55.7857V63.3929H201.498H203.658V55.7857V48.1786H201.498H199.337V55.7857ZM154.522 51.9984L155.238 52.2679L155.919 52.9158L156.6 53.5639L156.89 54.7712L157.18 55.9784L156.886 57.0865L156.592 58.1946L155.936 58.8861L155.281 59.5776L154.417 59.8621L153.552 60.1466L152.705 59.9882L151.858 59.8294L151.191 59.3066L150.525 58.7837L150.149 58.058L149.773 57.3322V55.8359V54.3393L150.35 53.4777L150.927 52.6161L151.811 52.1728L152.696 51.7293L153.251 51.7291L153.807 51.7286L154.522 51.9984ZM173.12 52.4231L173.761 52.9011L174.285 53.6012L174.809 54.3016V55.9125V57.5234L174.285 58.2238L173.761 58.9239L173.059 59.4468L172.357 59.9696H171.124H169.89L169.172 59.4445L168.455 58.9193L168.011 58.0499L167.566 57.1804L167.566 55.7598L167.565 54.3393L168.142 53.4777L168.719 52.6161L169.604 52.1591L170.488 51.7019L171.483 51.8234L172.478 51.9451L173.12 52.4231ZM216.838 52.4231L217.48 52.9011L218.004 53.6012L218.528 54.3016V55.9125V57.5234L218.004 58.2238L217.48 58.9239L216.778 59.4468L216.076 59.9696H214.842H213.609L212.891 59.4445L212.173 58.9193L211.729 58.0499L211.284 57.1804L211.284 55.7598L211.284 54.3393L211.861 53.4777L212.438 52.6161L213.322 52.1591L214.207 51.7019L215.201 51.8234L216.196 51.9451L216.838 52.4231ZM191.297 58.5172L190.755 58.9554L190.471 59.5092L190.187 60.0632V60.9925V61.9221L191.051 62.7843L191.915 63.6464H192.982H194.048L194.768 63.135L195.488 62.6235L195.78 61.7403L196.072 60.8571L195.78 59.9737L195.488 59.09L194.837 58.5791L194.185 58.0679L193.012 58.0734L191.839 58.079L191.297 58.5172Z" fill="white"/>
</svg>
