<svg width="695" height="159" viewBox="0 0 695 159" fill="none" xmlns="http://www.w3.org/2000/svg">
<path fill-rule="evenodd" clip-rule="evenodd" d="M92.2866 2.62086C60.4346 126.627 59.6376 122.388 114.846 122.665C187.949 123.032 181.447 129.012 181.447 61.4059C181.447 -4.57814 185.73 0.545856 130.225 0.120856C93.0026 -0.163144 93.0026 -0.163143 92.2866 2.62086ZM411.947 23.7189C400.714 27.4549 391.666 35.6949 387.98 45.5459C384.744 54.1949 384.857 54.4129 393.43 56.1189C401.439 57.7119 401.947 57.6229 401.947 54.6249C401.947 35.6259 438.034 29.4349 446.946 46.9039C449.169 51.2619 450.754 59.9009 449.333 59.9149C446.867 59.9389 423.232 62.9479 417.87 63.9199C390.196 68.9379 376.365 87.8298 386.108 107.301C396.427 127.921 429.738 130.583 446.018 112.088C449.947 107.624 449.947 107.624 449.947 115.265C449.947 122.906 449.947 122.906 458.503 122.906C473.549 122.906 470.836 46.1449 455.288 31.9349C445.381 22.8799 425.693 19.1479 411.947 23.7189ZM529.026 23.5489C521.174 26.2979 509.499 35.9449 508.758 40.2969C508.654 40.9069 508.317 37.3559 508.008 32.4059C505.378 -9.78314 490.947 24.4399 490.947 72.8659C490.947 122.906 490.947 122.906 499.447 122.906C507.947 122.906 507.947 122.906 507.964 97.1559C507.987 63.4289 509.545 55.8909 518.554 45.9189C532.326 30.6749 559.122 36.8809 561.674 55.9059C562.293 60.5229 563.177 60.7219 573.447 58.5499C579.447 57.2809 579.447 57.2809 579.157 53.3439C577.502 30.8879 551.762 15.5899 529.026 23.5489ZM634.447 23.3079C628.281 25.2629 622.249 28.6379 617.902 32.5659C613.947 36.1389 613.947 36.1389 613.947 29.4819C613.947 22.8249 613.947 22.8249 605.697 23.1159C592.433 23.5829 592.177 158.906 605.44 158.906C613.947 158.906 613.947 158.906 613.947 134.279C613.947 109.651 613.947 109.651 618.519 113.865C642.971 136.405 683.866 122.481 692.606 88.6409C703.019 48.3239 670.557 11.8579 634.447 23.3079ZM14.7896 23.8809C0.549626 28.1829 0.487625 28.4379 0.197625 83.8189C-0.151375 150.395 -4.20337 145.406 50.2226 145.406C90.7556 145.406 90.6506 145.434 90.9276 134.656C90.9376 134.244 81.4876 133.906 69.9276 133.906C48.9086 133.906 48.9086 133.906 49.4556 131.656C59.1006 91.9709 74.9466 25.1839 74.9466 24.2139C74.9466 22.7169 19.6556 22.4109 14.7896 23.8809ZM234.775 23.4119C234.497 23.6899 241.059 46.1849 249.358 73.4009C269.916 140.82 275.442 142.587 292.338 87.1439C298.328 67.4879 303.539 50.8129 303.916 50.0879C304.294 49.3629 309.734 65.4659 316.004 85.8729C333.39 142.454 338.634 140.922 359.489 73.1709C367.824 46.0919 374.412 23.7039 374.129 23.4209C373.845 23.1379 369.883 22.9059 365.323 22.9059C355.709 22.9059 358.314 17.4629 344.981 65.4059C340.545 81.3559 336.586 95.1979 336.182 96.1659C335.694 97.3349 331.953 86.4219 325.042 63.6659C311.165 17.9719 313.704 22.9059 304.073 22.9059C296.097 22.9059 296.097 22.9059 294.69 27.6559C271.044 107.459 274.362 103.739 263.032 63.1409C250.561 18.4529 252.76 22.9059 243.165 22.9059C238.828 22.9059 235.053 23.1329 234.775 23.4119ZM659.525 40.3999C684.678 52.7059 681.98 99.5819 655.668 107.396C627.261 115.832 604.723 88.4129 615.253 58.2279C621.629 39.9539 641.915 31.7849 659.525 40.3999ZM449.645 80.6559C447.374 106.555 414.722 121.987 402.971 102.714C394.826 89.3539 405.676 78.9789 431.462 75.4709C450.449 72.8869 450.329 72.8529 449.645 80.6559Z" fill="white"/>
</svg>
