<svg width="103" height="60" viewBox="0 0 103 60" fill="none" xmlns="http://www.w3.org/2000/svg">
<g clip-path="url(#clip0_848_178)">
<path d="M102.668 14.6908C102.668 6.83592 96.2786 0 88.4244 0H25.5626C23.2586 0.00841415 20.9893 0.561524 18.9398 1.61419C16.8903 2.66686 15.1187 4.18925 13.7696 6.05712C12.4205 7.92499 11.5321 10.0854 11.177 12.3621C10.8219 14.6387 11.01 16.9671 11.7261 19.1572C8.96044 19.7274 6.41659 21.0798 4.39687 23.0535C1.56118 25.8549 0 29.772 0 34.0829C0 38.3938 1.61299 42.3731 4.53848 45.1779C6.49341 47.0466 9.93699 49.2746 15.2457 49.2746H25.3588C28.0254 49.2758 30.6418 48.5497 32.9264 47.1744C33.3044 50.7161 34.986 53.9907 37.6442 56.3612C40.3025 58.7317 43.7472 60.0287 47.3086 60C52.6822 60.0225 57.8735 58.0536 61.8808 54.4732C64.1248 52.4597 66.0252 50.0936 67.5073 47.4681C69.3909 48.3614 71.4498 48.824 73.5344 48.8221H88.8699C92.6161 48.8148 96.2068 47.3233 98.8558 44.6741C101.505 42.0249 102.996 38.4339 103.003 34.6874L102.668 14.6908ZM15.2457 37.8757C12.9108 37.8757 11.5776 36.7081 11.5776 34.2625C11.5776 31.7617 12.9108 30.5389 15.2457 30.5389C17.5806 30.5389 18.862 31.7651 18.862 34.266C18.862 36.7116 17.5806 37.8757 15.2457 37.8757ZM41.0294 37.8757C40.5683 37.8763 40.1132 37.7714 39.699 37.569C39.2847 37.3666 38.9222 37.0722 38.6392 36.7081C36.9123 34.3178 33.1924 29.0397 33.1924 29.0397C33.1924 29.0397 29.469 34.3212 27.7455 36.7081C27.4624 37.072 27.0999 37.3663 26.6856 37.5687C26.2714 37.771 25.8164 37.876 25.3554 37.8757C24.7954 37.8731 24.2472 37.7146 23.7722 37.418C23.2972 37.1214 22.9142 36.6984 22.666 36.1964C22.4179 35.6943 22.3145 35.1331 22.3673 34.5755C22.4202 34.018 22.6272 33.4862 22.9653 33.0397L29.6901 24.5941L23.1898 16.5941C22.7833 16.0701 22.5677 15.4231 22.5784 14.7599C22.5766 14.3652 22.653 13.9741 22.8032 13.6091C22.9534 13.244 23.1744 12.9124 23.4535 12.6333C23.7325 12.3542 24.0641 12.1332 24.4291 11.983C24.7941 11.8328 25.1852 11.7564 25.5799 11.7582C26.0409 11.7581 26.4958 11.8632 26.91 12.0656C27.3242 12.2679 27.6867 12.5621 27.97 12.9257L33.1924 20.0933L38.4147 12.9257C38.698 12.5621 39.0606 12.2679 39.4748 12.0656C39.889 11.8632 40.3439 11.7581 40.8049 11.7582C41.1995 11.7564 41.5907 11.8328 41.9556 11.983C42.3206 12.1332 42.6522 12.3542 42.9313 12.6333C43.2104 12.9124 43.4314 13.244 43.5816 13.6091C43.7318 13.9741 43.8082 14.3652 43.8063 14.7599C43.8171 15.4231 43.6015 16.0701 43.195 16.5941L36.6947 24.5941L43.416 33.0432C43.7529 33.4894 43.9591 34.0206 44.0116 34.5773C44.064 35.134 43.9607 35.6943 43.7131 36.1956C43.4655 36.6969 43.0834 37.1196 42.6095 37.4162C42.1355 37.7129 41.5885 37.872 41.0294 37.8757ZM69.1445 15.924L58.8068 39.2643C56.3614 44.7116 52.8626 48.5907 47.3052 48.5907C46.932 48.6038 46.5601 48.5417 46.2115 48.408C45.8628 48.2742 45.5447 48.0717 45.2761 47.8123C45.0075 47.553 44.7938 47.2422 44.6479 46.8985C44.502 46.5547 44.4268 46.1852 44.4268 45.8117C44.4268 45.4383 44.502 45.0688 44.6479 44.725C44.7938 44.3813 45.0075 44.0705 45.2761 43.8112C45.5447 43.5518 45.8628 43.3493 46.2115 43.2155C46.5601 43.0818 46.932 43.0197 47.3052 43.0328C50.8593 43.0328 52.5275 40.1969 54.3616 35.6408L45.8027 15.924C45.6547 15.5527 45.5796 15.1562 45.5817 14.7565C45.5798 14.3618 45.6562 13.9706 45.8064 13.6056C45.9566 13.2406 46.1776 12.909 46.4567 12.6299C46.7358 12.3508 47.0674 12.1297 47.4324 11.9795C47.7974 11.8293 48.1885 11.7529 48.5831 11.7547C49.1817 11.7492 49.7675 11.9273 50.2616 12.2652C50.7557 12.6031 51.1343 13.0844 51.3463 13.6442L57.4598 29.095L63.5733 13.6442C63.7857 13.0847 64.1643 12.6036 64.6584 12.2658C65.1524 11.928 65.738 11.7497 66.3364 11.7547C66.7311 11.7529 67.1222 11.8293 67.4872 11.9795C67.8522 12.1297 68.1838 12.3508 68.4629 12.6299C68.7419 12.909 68.9629 13.2406 69.1131 13.6056C69.2633 13.9706 69.3397 14.3618 69.3379 14.7565C69.3488 15.1544 69.2831 15.5508 69.1445 15.924ZM88.8699 37.4301H73.5344C72.8588 37.4229 72.2128 37.1512 71.7351 36.6734C71.2573 36.1956 70.9857 35.5496 70.9785 34.8739C70.9731 34.262 71.1904 33.6691 71.5899 33.2055L78.2111 24.3351L82.4145 18.7185L83.5336 17.2193H74.1458C73.8174 17.2193 73.4922 17.1547 73.1888 17.029C72.8854 16.9033 72.6098 16.7191 72.3775 16.4869C72.1453 16.2546 71.9611 15.9789 71.8355 15.6755C71.7098 15.3721 71.6451 15.0469 71.6451 14.7185C71.6451 14.3901 71.7098 14.0649 71.8355 13.7614C71.9611 13.458 72.1453 13.1823 72.3775 12.9501C72.6098 12.7179 72.8854 12.5337 73.1888 12.408C73.4922 12.2823 73.8174 12.2176 74.1458 12.2176H88.4244C88.9332 12.2174 89.4316 12.362 89.8615 12.6343C90.2913 12.9067 90.6349 13.2956 90.8521 13.7558C91.0694 14.216 91.1513 14.7285 91.0884 15.2335C91.0254 15.7385 90.8202 16.2151 90.4967 16.6079L78.7568 32.3178H88.8699C89.5483 32.3178 90.1988 32.5873 90.6784 33.067C91.1581 33.5467 91.4276 34.1973 91.4276 34.8756C91.4276 35.554 91.1581 36.2046 90.6784 36.6843C90.1988 37.164 89.5483 37.4335 88.8699 37.4335V37.4301Z" fill="white"/>
</g>
<defs>
<clipPath id="clip0_848_178">
<rect width="103" height="60" fill="white"/>
</clipPath>
</defs>
</svg>
